G04 Layer_Color=16711935*
%FSLAX25Y25*%
%MOIN*%
G70*
G01*
G75*
%ADD114C,0.28359*%
%ADD115C,0.07099*%
%ADD116C,0.09461*%
%ADD117C,0.00800*%
%ADD118C,0.08280*%
%ADD119C,0.02768*%
D114*
X224410Y867717D02*
D03*
X583465Y509449D02*
D03*
X225197Y510236D02*
D03*
X582677Y868110D02*
D03*
D115*
X555512Y709055D02*
D03*
Y699055D02*
D03*
X537008Y709055D02*
D03*
Y699055D02*
D03*
X333858Y629213D02*
D03*
Y619213D02*
D03*
Y609213D02*
D03*
Y599213D02*
D03*
X233071Y556850D02*
D03*
Y546850D02*
D03*
Y536850D02*
D03*
X540945Y658819D02*
D03*
Y648819D02*
D03*
Y638819D02*
D03*
X568898Y603071D02*
D03*
Y593071D02*
D03*
Y563071D02*
D03*
Y583071D02*
D03*
Y573071D02*
D03*
Y553071D02*
D03*
Y543071D02*
D03*
Y533071D02*
D03*
X558898D02*
D03*
Y543071D02*
D03*
Y553071D02*
D03*
Y573071D02*
D03*
Y583071D02*
D03*
Y563071D02*
D03*
Y593071D02*
D03*
Y603071D02*
D03*
D116*
X537795Y819685D02*
D03*
X559449D02*
D03*
D117*
X588189D02*
D03*
X224528Y581220D02*
D03*
Y691221D02*
D03*
X584764Y736063D02*
D03*
Y626063D02*
D03*
D118*
X229528Y591221D02*
D03*
X219528D02*
D03*
Y601221D02*
D03*
X229528D02*
D03*
Y611221D02*
D03*
X219528D02*
D03*
Y621220D02*
D03*
X229528D02*
D03*
Y631220D02*
D03*
X219528D02*
D03*
Y641221D02*
D03*
X229528D02*
D03*
Y651221D02*
D03*
X219528D02*
D03*
Y661221D02*
D03*
X229528D02*
D03*
Y671220D02*
D03*
X219528D02*
D03*
Y681220D02*
D03*
X229528D02*
D03*
X579764Y726063D02*
D03*
X589764D02*
D03*
Y716063D02*
D03*
X579764D02*
D03*
Y706063D02*
D03*
X589764D02*
D03*
Y696063D02*
D03*
X579764D02*
D03*
Y686063D02*
D03*
X589764D02*
D03*
Y676063D02*
D03*
X579764D02*
D03*
Y666063D02*
D03*
X589764D02*
D03*
Y656063D02*
D03*
X579764D02*
D03*
Y646063D02*
D03*
X589764D02*
D03*
Y636063D02*
D03*
X579764D02*
D03*
D119*
X287598Y528150D02*
D03*
X283268D02*
D03*
X287598Y532480D02*
D03*
X283268D02*
D03*
M02*
