M48
;Layer_Color=9474304
;FILE_FORMAT=2:5
INCH,LZ
;TYPE=PLATED
T1F00S00C0.00787
T2F00S00C0.01575
T3F00S00C0.03937
T4F00S00C0.04331
T5F00S00C0.04724
T6F00S00C0.05118
T7F00S00C0.07087
T8F00S00C0.10000
T9F00S00C0.11811
T10F00S00C0.16535
%
T01
X0283268Y052815
Y053248
X0287598
Y052815
T02
X0479345Y0502151
X047874Y0506299
X0484842Y049685
X0497142Y0498917
X0505903
X0514665
X0540059
X0547275
X0554491
X0550098Y052313
X052185Y0522441
X0525886Y0539468
X0521358Y054311
X0532776Y0545866
X0523228Y0578051
X0520177Y0588779
X0505118Y0589862
X0498032Y0590551
X0498819Y0593701
X0495177Y0596457
X0497441Y0603839
X0497244Y060876
X0498721Y0612894
X0505197Y0613346
X0498701Y0620354
X0492126Y0612106
X0483366Y0611122
X0482282Y0614487
X0469587Y0611811
X046937Y0617638
X0469764Y0621535
X0471673Y060313
X047126Y0596457
X0470866Y0584646
X0477224Y0581161
X0482283Y0583858
X0484842Y0586319
X0488425Y0585197
X0484646Y0596457
X0478543Y0571752
X0473228Y0567126
X0479232Y0561122
X0478937Y0557579
X0477756Y0554232
X0478642Y0547835
X0487008Y0535335
Y0565551
X0493405Y0572736
X0551673Y0573917
X0546496Y0617087
X0576496Y0613189
X0591929Y0623917
X0596654Y0619685
X0462894Y0615945
X0462697Y0607677
X0460827Y0581988
X0464862Y058189
X0456201Y0581791
X0452756Y0580709
X044189Y0581339
X0437795Y0582283
X0420236Y0582126
X0421654Y0570079
X0424016Y0567323
X0397933
X0397874Y0560472
X0406496Y0556693
X0385512Y055748
X0383071Y0560039
X0380906Y0554823
X0378661Y0550512
X037098Y0542441
X0364488Y0539291
X0355681Y0545079
X0351476Y0547441
X0341831Y0548425
X0342961Y0557697
X0344291Y0567323
X034252Y0573228
X0345276Y0577953
X0333563Y0582972
X0329921Y0580315
X0329331Y0561299
X0322539Y0559646
X0325197Y0556595
X0315591Y0548976
X0317913Y0570118
Y0593602
X0328366Y0598898
X0326279Y0614272
X0327953Y0620965
X0325492Y0623819
X0348327Y0620079
X0349508Y0612305
X0348721Y0605118
X0370177Y0607185
X0384134Y0611693
X0386653Y0604646
X038563Y0594095
X0386614Y0588937
X0388701Y0582126
X0401575Y0581693
X0395472Y0573819
X0398327Y0595256
Y0601161
X0387106Y0618898
X0387736Y0622815
X0381653Y0621614
X0378445Y0589961
X0370079Y0563878
X0361024Y0556102
X0358858Y0550886
X0360138Y0524311
X0370177
X0375Y0524213
X038002Y0532087
X0389409Y0534488
X0387047Y0542087
X0391732Y0510236
X0397146Y0510138
X0388799Y0507303
X0379961Y0508228
X0374961Y0508209
X0386614Y0496752
X0347638Y0496654
Y0507579
X0350541Y0509498
X035315Y0512205
X0336516Y0531988
X0315846Y0522244
X0315748Y0506693
X032815Y0499705
X0460236Y0556791
X0465354Y0567224
X0312402Y0570118
X0305512Y0573622
X0305965Y058189
X0298268Y0570217
X0290984Y0571102
X0280118Y0568661
X0274095Y0567598
X0275098Y0561654
X0260709Y0562165
X0255276Y0563779
X0251732Y0561887
X0258154Y0570173
X0265551Y0573622
X0276181Y0577165
X0259724Y0596535
X0264862Y0609646
X0280118Y0616339
X029252Y0607677
X0298622Y0599114
X0305669Y0561732
X029813Y0552461
X0295039Y0538071
X0305709Y0531004
X0292028Y052313
X028119Y0513802
X0261732Y0516378
X0266929Y0530807
X0267913Y053435
X0272342Y053435
X0270079Y0542421
X0264567Y0542421
X027811Y0543071
X0241811Y0540827
X0234429Y0532697
X0238583Y0574508
X0243996Y0584941
X0243347Y0607756
X0240472Y061685
X0237854Y06236
X021063Y061559
X0210354Y0606299
X030502Y0506398
X029941Y0499606
X0294094Y0627953
X0286614Y0627559
X0296457Y0634449
X0292717Y0644488
X029815Y066311
Y0685157
X0289449Y0677716
X0280039Y0676457
X0276535Y0678661
X028248Y0670905
X0257143Y0662914
X0250197Y0661221
X0247342Y0648327
X0243209Y0650886
X0239961Y0653839
X0258268Y0640945
X0256398Y0679823
X0256299Y0709055
X0256614Y0724882
X024Y0727953
X0236024Y0730834
X0239291Y073937
X0240472Y0743032
Y0764606
X0235906Y0760039
X0255945Y0756929
X0256102Y0774508
X028126Y0767362
X0285984Y0765472
X0299252Y075685
X0299331Y0776063
X0298031Y0729528
X0300551Y0708819
X027311Y0746496
X0276299Y0749787
X024Y0714921
X0236102Y0715276
X0212303Y0701181
X0214904Y0696969
X0317913Y0703051
X031811Y074063
X0330039Y0752991
X0333424Y0752164
X0334449Y0748779
X0332598Y0768189
X0328819Y0770866
X0357087Y0767795
Y0779331
X0353661Y0739921
X0357087Y0727953
X0357165Y0717992
X0352362Y0698917
X0357087Y0684646
X0353661Y0677008
X0351476Y0666063
X0348268Y066311
X035435Y0657579
X0358189Y0659173
X0360512Y066252
X0364488Y0662638
X0367421Y0674272
X0381811Y0677618
X0389567Y0671358
X0390039Y0658071
X0385315Y0659134
X0393425Y0660512
X0397441Y0660906
X040189Y0653307
X0408366Y0653543
X0411417Y0651575
X0414331Y0655079
Y0669685
X0408425
X0422047Y0672835
X041811Y0676772
X0431358Y0683957
X0434547Y0697441
X0441535Y0699488
X0438681Y0710728
X0439173Y0723622
X0452264Y0722342
X0454134Y0729823
X0428937Y0732382
X0416831Y0726968
X0404626Y0726673
X0400098Y0713406
X0389469Y0716732
X0389764Y0744803
X041874Y0754213
X041815Y0709961
X0422047Y0702362
X040813Y0702697
X0400295Y0699016
X0401279Y0683957
X0399311Y0647835
X0399095Y0640531
X0398839Y0634626
X0399016Y0627854
X0403443Y0637559
X0385827Y0639468
X038622Y0633503
X0370079Y0633514
X0361614Y0643307
X0359744Y064685
X0357283Y0649213
X0354626Y0651673
X0335709Y0655
X033374Y0643819
X0333386Y0635118
X0324528Y0642283
X0332716Y0665984
X0333622Y0670039
X0334173Y0674685
X0430276Y0668307
X043492Y066614
X0438681Y0665748
X0441732Y0669291
X0445827Y0667323
X0450492Y0665945
Y0655118
X044189
X0437205Y0654134
X0463189Y0653445
X0460099Y0650138
X0462953Y0668347
X0467362Y0667362
X0452362Y067748
X0448228Y0690846
X0459744Y0702362
X0482185Y0705669
X0494882Y0705709
X0507874Y0707224
X0528839Y0701083
X0542382Y0699055
X0550157
X0550098Y0687106
X0546161Y0683563
X0542224Y0687106
X0537008Y0679429
X053248Y0676673
X052815Y0673917
X0526772Y0683563
X0523109Y0662676
X0520393Y065307
X0513976Y0656791
X0498917Y0654528
X0496949Y0650984
X0498622Y0647736
Y0641732
X0497146Y0636122
X0498621Y0630944
X049815Y0625669
X0472835Y0643504
X0479035Y0655118
X0472835Y0661516
X047126Y0664862
X0492224Y0671063
X0495374Y0674606
X0478543Y069065
X0478642Y0726279
X0472933Y0723032
X0489461Y0717264
X048563Y0746555
X0477658Y0761811
X0509449Y076063
X0513976Y0765256
X0513386Y0754134
X0518209
Y0746555
X0513386
X0505809Y0750591
X0527067Y0750591
X0551968Y0757874
X0557087
X0554528Y0761909
X0551968Y0765945
X0557087
X0554528Y076998
X0551968Y0774016
X0557087
X051878Y0778228
X0503543Y0770079
X0544587Y071565
X0564075Y0720276
X0566563Y0725174
X0567843Y073104
X0574409Y0731811
X0576221Y0734764
X0587106Y0734547
X0591978Y0739813
X0596654Y0743504
X0583583Y0653031
X0572638
X0573091Y0633287
X0588189Y0629724
X0585689Y0626988
X0537992Y063376
X054124Y064374
X0545768Y0648819
Y0669783
X054124Y0673425
X0550512Y0673268
X0528543Y0643405
X0518898Y0790158
X0510532Y0788681
X0507382Y0808366
X0502756Y0804331
X0484547Y0808071
X0477658Y0832677
X0470768Y0834744
X0492815Y083563
X0499606Y0831594
X0533476Y0872035
X053702Y0875185
X0541688Y0872035
X0545419Y0875185
X0454035Y0831791
X0446752Y0834744
X0411221Y0799173
X0400748Y0799213
X0376083Y0814173
X0371654Y0814272
X0369291Y0817126
Y0820866
Y0824606
Y0828347
Y0832087
X0362894Y083189
X0367126Y0836811
X0356142Y0838031
X0353248Y0846653
X0361614Y0857185
X0364567Y0859055
X036998Y0859449
X0369882Y0863287
Y0867126
Y0870965
X0372047Y0875197
X036998Y085502
X0373819Y0852854
X0339606Y080685
X0340709Y0801378
X0342284Y079622
X0347284Y0794921
X0336929Y0798071
X0335748Y0809882
X0326575Y0804921
X0317047Y0804961
X0293012Y0814173
X0288583Y0814272
X0285925Y0816535
Y0820276
Y0824016
Y0827756
Y0831496
X0283957Y0835925
X0272933
X0276772Y0827854
X0269291Y0811063
X0248858Y0809764
X024878Y0815039
X025126Y0820551
X0270768Y084626
X0276772Y0856496
X0281102Y085748
X028691Y0859449
X0286811Y0863287
Y0867126
Y0870965
X0288583Y0874409
X028691Y085502
X0290945Y0853051
T03
X050502Y059498
X0514075Y0604921
X0317913Y0584547
X0306594Y0590551
X0263976Y0686516
X0264075Y0731398
X0263189Y0780709
X0317913Y0761221
X0427461
X0389469Y0687598
X0505118Y0681988
X0493701Y0761221
X0436909Y0811417
X0389764Y0810827
X0420866Y0858957
X0420669Y0881496
X0258366
X0249705Y0799311
X0279528
X0306594Y0809842
T04
X0506791Y0558366
X0516791
X0559094Y0562913
Y0572913
Y0582913
Y0592913
Y0602913
X0569095
Y0592913
Y0582913
Y0572913
Y0562913
Y0552913
X0559094
Y0542913
Y0532913
X0569095
Y0542913
X0334173Y0588898
Y0598898
Y0608898
Y0618898
X0215158Y055685
Y054685
Y053685
X0334173Y0628898
X0533169Y0638819
Y0648819
Y0658819
X0559094
Y0668819
Y0648819
Y0638819
Y0628819
X0555512Y0699055
Y0709055
X0537008
Y0699055
X0575866
Y0709055
Y0689055
X0549921Y0747913
X0539921
T05
X0229528Y0591221
Y0601221
Y0611221
Y062122
Y063122
Y0641221
Y0651221
Y0661221
Y067122
Y068122
X0229685Y0735039
Y0745039
Y0755039
Y0765039
Y0775039
Y0785039
Y0795039
Y0805039
Y0815039
Y0825039
T06
X0219528Y0591221
Y0601221
Y0611221
Y062122
Y063122
Y0641221
Y0651221
Y0661221
Y067122
Y068122
X0219685Y0735039
Y0745039
Y0755039
Y0765039
Y0775039
Y0785039
Y0795039
Y0805039
Y0815039
Y0825039
T07
X0537795Y0819685
X0559449
T08
X0224528Y058122
Y0691221
X0224685Y0725039
Y0835039
T09
X0588189Y0819685
T10
X0583465Y0509449
X0225197Y0510236
X0582677Y086811
X022441Y0867717
M30
