G04 Layer_Color=32896*
%FSLAX25Y25*%
%MOIN*%
G70*
G01*
G75*
%ADD59C,0.00394*%
%ADD60R,0.02960X0.15512*%
%ADD61R,0.02436X0.10984*%
%ADD62C,0.00197*%
D59*
X216371Y885827D02*
G03*
X206299Y875755I0J-10072D01*
G01*
Y502198D02*
G03*
X216371Y492126I10072J0D01*
G01*
X589928D02*
G03*
X600000Y502198I0J10072D01*
G01*
Y875830D02*
G03*
X590003Y885827I-9997J0D01*
G01*
X216371D02*
X218110D01*
X206299Y508268D02*
Y875755D01*
Y502198D02*
Y508268D01*
X216371Y492126D02*
X589928D01*
X600000Y502198D02*
Y874016D01*
Y875830D01*
X218110Y885827D02*
X590003D01*
X510039Y710827D02*
G03*
X510039Y710827I-1969J0D01*
G01*
X506890Y771457D02*
G03*
X506890Y771457I-1969J0D01*
G01*
X289764Y603937D02*
G03*
X289764Y603937I-1969J0D01*
G01*
X284842Y579724D02*
G03*
X284842Y579724I-1969J0D01*
G01*
X379331Y846260D02*
G03*
X379331Y846260I-1969J0D01*
G01*
X296260D02*
G03*
X296260Y846260I-1969J0D01*
G01*
X512106Y559055D02*
G03*
X512106Y559055I-1969J0D01*
G01*
X283071Y534646D02*
G03*
X283071Y534646I-1969J0D01*
G01*
X401142Y582067D02*
G03*
X401142Y582067I-1969J0D01*
G01*
X488091Y632185D02*
X492224D01*
X488091Y630020D02*
X492224D01*
X488091D02*
Y632185D01*
X492224Y630020D02*
Y632185D01*
X504528Y695079D02*
Y714370D01*
X519882Y695079D02*
Y714370D01*
X504528D02*
X519882D01*
X504528Y695079D02*
X519882D01*
X394094Y700984D02*
Y707677D01*
X405905Y700984D02*
Y707677D01*
X394094Y700984D02*
X405905D01*
X394094Y707677D02*
X405905D01*
X509744Y687894D02*
X513878D01*
X509744Y690059D02*
X513878D01*
Y687894D02*
Y690059D01*
X509744Y687894D02*
Y690059D01*
X556595Y683366D02*
Y687500D01*
X554429Y683366D02*
Y687500D01*
X556595D01*
X554429Y683366D02*
X556595D01*
X538091D02*
Y687500D01*
X535925Y683366D02*
Y687500D01*
X538091D01*
X535925Y683366D02*
X538091D01*
X492815Y701870D02*
Y706004D01*
X490650Y701870D02*
Y706004D01*
X492815D01*
X490650Y701870D02*
X492815D01*
X260531Y598721D02*
Y602854D01*
X258366Y598721D02*
Y602854D01*
X260531D01*
X258366Y598721D02*
X260531D01*
X444783Y555807D02*
X448917D01*
X444783Y553642D02*
X448917D01*
X444783D02*
Y555807D01*
X448917Y553642D02*
Y555807D01*
X423130Y553642D02*
X427264D01*
X423130Y555807D02*
X427264D01*
Y553642D02*
Y555807D01*
X423130Y553642D02*
Y555807D01*
X488091Y647146D02*
X492224D01*
X488091Y644980D02*
X492224D01*
X488091D02*
Y647146D01*
X492224Y644980D02*
Y647146D01*
X488091Y627198D02*
X492224D01*
X488091Y625033D02*
X492224D01*
X488091D02*
Y627198D01*
X492224Y625033D02*
Y627198D01*
X488091Y642159D02*
X492224D01*
X488091Y639993D02*
X492224D01*
X488091D02*
Y642159D01*
X492224Y639993D02*
Y642159D01*
X488091Y622211D02*
X492224D01*
X488091Y620046D02*
X492224D01*
X488091D02*
Y622211D01*
X492224Y620046D02*
Y622211D01*
X485532Y701870D02*
Y706004D01*
X487697Y701870D02*
Y706004D01*
X485532Y701870D02*
X487697D01*
X485532Y706004D02*
X487697D01*
X306594Y598721D02*
Y602854D01*
X304429Y598721D02*
Y602854D01*
X306594D01*
X304429Y598721D02*
X306594D01*
X297933Y574705D02*
X302067D01*
X297933Y572539D02*
X302067D01*
X297933D02*
Y574705D01*
X302067Y572539D02*
Y574705D01*
X297933Y580807D02*
X302067D01*
X297933Y582972D02*
X302067D01*
Y580807D02*
Y582972D01*
X297933Y580807D02*
Y582972D01*
X268996Y545177D02*
Y549311D01*
X271161Y545177D02*
Y549311D01*
X268996Y545177D02*
X271161D01*
X268996Y549311D02*
X271161D01*
X521161Y522933D02*
X525295D01*
X521161Y525098D02*
X525295D01*
Y522933D02*
Y525098D01*
X521161Y522933D02*
Y525098D01*
X488091Y652264D02*
X492224D01*
X488091Y650098D02*
X492224D01*
X488091D02*
Y652264D01*
X492224Y650098D02*
Y652264D01*
X377854Y629626D02*
X381988D01*
X377854Y631791D02*
X381988D01*
Y629626D02*
Y631791D01*
X377854Y629626D02*
Y631791D01*
X407342Y672461D02*
Y676594D01*
X409508Y672461D02*
Y676594D01*
X407342Y672461D02*
X409508D01*
X407342Y676594D02*
X409508D01*
X461319Y559744D02*
Y563878D01*
X459154Y559744D02*
Y563878D01*
X461319D01*
X459154Y559744D02*
X461319D01*
X377854Y603248D02*
X381988D01*
X377854Y605413D02*
X381988D01*
Y603248D02*
Y605413D01*
X377854Y603248D02*
Y605413D01*
X488091Y589468D02*
X492224D01*
X488091Y587303D02*
X492224D01*
X488091D02*
Y589468D01*
X492224Y587303D02*
Y589468D01*
X377854Y598130D02*
X381988D01*
X377854Y600295D02*
X381988D01*
Y598130D02*
Y600295D01*
X377854Y598130D02*
Y600295D01*
X265650Y545177D02*
Y549311D01*
X263484Y545177D02*
Y549311D01*
X265650D01*
X263484Y545177D02*
X265650D01*
X410827Y698917D02*
Y703051D01*
X412992Y698917D02*
Y703051D01*
X410827Y698917D02*
X412992D01*
X410827Y703051D02*
X412992D01*
X413248Y672461D02*
Y676594D01*
X415413Y672461D02*
Y676594D01*
X413248Y672461D02*
X415413D01*
X413248Y676594D02*
X415413D01*
X440650Y672461D02*
Y676594D01*
X442815Y672461D02*
Y676594D01*
X440650Y672461D02*
X442815D01*
X440650Y676594D02*
X442815D01*
X488091Y609350D02*
X492224D01*
X488091Y607185D02*
X492224D01*
X488091D02*
Y609350D01*
X492224Y607185D02*
Y609350D01*
X407579Y560138D02*
Y564272D01*
X405413Y560138D02*
Y564272D01*
X407579D01*
X405413Y560138D02*
X407579D01*
X488091Y617224D02*
X492224D01*
X488091Y615059D02*
X492224D01*
X488091D02*
Y617224D01*
X492224Y615059D02*
Y617224D01*
X377854Y623721D02*
X381988D01*
X377854Y625886D02*
X381988D01*
Y623721D02*
Y625886D01*
X377854Y623721D02*
Y625886D01*
Y641437D02*
X381988D01*
X377854Y643602D02*
X381988D01*
Y641437D02*
Y643602D01*
X377854Y641437D02*
Y643602D01*
X517815Y782579D02*
Y786713D01*
X519980Y782579D02*
Y786713D01*
X517815Y782579D02*
X519980D01*
X517815Y786713D02*
X519980D01*
X316831Y574016D02*
X318996D01*
X316831Y578150D02*
X318996D01*
X316831Y574016D02*
Y578150D01*
X318996Y574016D02*
Y578150D01*
X313484Y574016D02*
Y578150D01*
X311319Y574016D02*
Y578150D01*
X313484D01*
X311319Y574016D02*
X313484D01*
X377854Y593012D02*
X381988D01*
X377854Y595177D02*
X381988D01*
Y593012D02*
Y595177D01*
X377854Y593012D02*
Y595177D01*
Y584350D02*
X381988D01*
X377854Y586516D02*
X381988D01*
Y584350D02*
Y586516D01*
X377854Y584350D02*
Y586516D01*
X252776Y738858D02*
X274783D01*
X252776Y723347D02*
X274783D01*
X252776D02*
Y738858D01*
X274783Y723347D02*
Y738858D01*
X252776Y694370D02*
X274783D01*
X252776Y678858D02*
X274783D01*
X252776D02*
Y694370D01*
X274783Y678858D02*
Y694370D01*
X553150Y756299D02*
Y795669D01*
X588976Y756299D02*
Y795669D01*
X553150D02*
X588976D01*
X553150Y756299D02*
X588976D01*
X342165Y767362D02*
Y793740D01*
X327598Y767362D02*
Y793740D01*
Y767362D02*
X342165D01*
X327598Y793740D02*
X342165D01*
Y717362D02*
Y743740D01*
X327598Y717362D02*
Y743740D01*
Y717362D02*
X342165D01*
X327598Y743740D02*
X342165D01*
X503740Y759350D02*
X507874D01*
X503740Y757185D02*
X507874D01*
X503740D02*
Y759350D01*
X507874Y757185D02*
Y759350D01*
X517815Y745374D02*
X521949D01*
X517815Y747539D02*
X521949D01*
Y745374D02*
Y747539D01*
X517815Y745374D02*
Y747539D01*
X509646Y747539D02*
X513779D01*
X509646Y745374D02*
X513779D01*
X509646D02*
Y747539D01*
X513779Y745374D02*
Y747539D01*
X309547Y598721D02*
Y602854D01*
X311713Y598721D02*
Y602854D01*
X309547Y598721D02*
X311713D01*
X309547Y602854D02*
X311713D01*
X270020Y758012D02*
X274153D01*
X270020Y755847D02*
X274153D01*
X270020D02*
Y758012D01*
X274153Y755847D02*
Y758012D01*
X270020Y709980D02*
X274153D01*
X270020Y707815D02*
X274153D01*
X270020D02*
Y709980D01*
X274153Y707815D02*
Y709980D01*
X270020Y663917D02*
X274153D01*
X270020Y661752D02*
X274153D01*
X270020D02*
Y663917D01*
X274153Y661752D02*
Y663917D01*
X356004Y771161D02*
Y775295D01*
X358169Y771161D02*
Y775295D01*
X356004Y771161D02*
X358169D01*
X356004Y775295D02*
X358169D01*
X356004Y721161D02*
Y725295D01*
X358169Y721161D02*
Y725295D01*
X356004Y721161D02*
X358169D01*
X356004Y725295D02*
X358169D01*
X356004Y676673D02*
Y680807D01*
X358169Y676673D02*
Y680807D01*
X356004Y676673D02*
X358169D01*
X356004Y680807D02*
X358169D01*
X501378Y767913D02*
X513583D01*
X501378Y780118D02*
X513583D01*
X501378Y767913D02*
Y780118D01*
X513583Y767913D02*
Y780118D01*
X291339Y600394D02*
Y612205D01*
X279528Y600394D02*
Y612205D01*
Y600394D02*
X291339D01*
X279528Y612205D02*
X291339D01*
X285453Y772953D02*
X307461D01*
X285453Y788465D02*
X307461D01*
Y772953D02*
Y788465D01*
X285453Y772953D02*
Y788465D01*
Y723347D02*
X307461D01*
X285453Y738858D02*
X307461D01*
Y723347D02*
Y738858D01*
X285453Y723347D02*
Y738858D01*
Y678858D02*
X307461D01*
X285453Y694370D02*
X307461D01*
Y678858D02*
Y694370D01*
X285453Y678858D02*
Y694370D01*
X488091Y637172D02*
X492224D01*
X488091Y635007D02*
X492224D01*
X488091D02*
Y637172D01*
X492224Y635007D02*
Y637172D01*
X269193Y572539D02*
X273327D01*
X269193Y574705D02*
X273327D01*
Y572539D02*
Y574705D01*
X269193Y572539D02*
Y574705D01*
X251181Y531181D02*
X258268D01*
X251181Y550079D02*
X258268D01*
X251181Y531181D02*
Y550079D01*
X258268Y531181D02*
Y550079D01*
X449606Y696870D02*
X467717D01*
X449606Y707854D02*
X467717D01*
Y696870D02*
Y707854D01*
X449606Y696870D02*
Y707854D01*
X529429Y610650D02*
X547539D01*
X529429Y621634D02*
X547539D01*
Y610650D02*
Y621634D01*
X529429Y610650D02*
Y621634D01*
X252776Y788465D02*
X274783D01*
X252776Y772953D02*
X274783D01*
X252776D02*
Y788465D01*
X274783Y772953D02*
Y788465D01*
X500591Y823228D02*
Y827362D01*
X498425Y823228D02*
Y827362D01*
X500591D01*
X498425Y823228D02*
X500591D01*
X279331Y571063D02*
X291535D01*
X279331Y583268D02*
X291535D01*
Y571063D02*
Y583268D01*
X279331Y571063D02*
Y583268D01*
X565256Y623425D02*
Y627559D01*
X563091Y623425D02*
Y627559D01*
X565256D01*
X563091Y623425D02*
X565256D01*
X358760Y855217D02*
X360925D01*
X358760Y851083D02*
X360925D01*
Y855217D01*
X358760Y851083D02*
Y855217D01*
X354035Y851083D02*
X356201D01*
X354035Y855217D02*
X356201D01*
X354035Y851083D02*
Y855217D01*
X356201Y851083D02*
Y855217D01*
X349311Y851083D02*
X351476D01*
X349311Y855217D02*
X351476D01*
X349311Y851083D02*
Y855217D01*
X351476Y851083D02*
Y855217D01*
X390748Y821063D02*
Y845866D01*
X415551Y821063D02*
Y845866D01*
X390748Y821063D02*
X415551D01*
X390748Y845866D02*
X415551D01*
X374213Y816634D02*
X382480D01*
X374213Y821949D02*
X382480D01*
Y816634D02*
Y821949D01*
X374213Y816634D02*
Y821949D01*
X374213Y826083D02*
X382480D01*
X374213Y831398D02*
X382480D01*
Y826083D02*
Y831398D01*
X374213Y826083D02*
Y831398D01*
X358760Y832579D02*
X360925D01*
X358760Y836713D02*
X360925D01*
X358760Y832579D02*
Y836713D01*
X360925Y832579D02*
Y836713D01*
X368701Y849803D02*
X380906D01*
X368701Y837598D02*
X380906D01*
Y849803D01*
X368701Y837598D02*
Y849803D01*
X355807Y840650D02*
Y842815D01*
X359941Y840650D02*
Y842815D01*
X355807D02*
X359941D01*
X355807Y840650D02*
X359941D01*
X355807Y845374D02*
Y847539D01*
X359941Y845374D02*
Y847539D01*
X355807D02*
X359941D01*
X355807Y845374D02*
X359941D01*
X374213Y856004D02*
X382480D01*
X374213Y861319D02*
X382480D01*
Y856004D02*
Y861319D01*
X374213Y856004D02*
Y861319D01*
X376279Y874114D02*
Y876280D01*
X380413Y874114D02*
Y876280D01*
X376279D02*
X380413D01*
X376279Y874114D02*
X380413D01*
X285630Y837598D02*
Y849803D01*
X297835Y837598D02*
Y849803D01*
X285630Y837598D02*
X297835D01*
X285630Y849803D02*
X297835D01*
X307283Y821063D02*
Y845866D01*
X332087Y821063D02*
Y845866D01*
X307283Y821063D02*
X332087D01*
X307283Y845866D02*
X332087D01*
X275689Y853642D02*
X277854D01*
X275689Y849508D02*
X277854D01*
Y853642D01*
X275689Y849508D02*
Y853642D01*
X270965Y849508D02*
X273130D01*
X270965Y853642D02*
X273130D01*
X270965Y849508D02*
Y853642D01*
X273130Y849508D02*
Y853642D01*
X266240Y849508D02*
X268406D01*
X266240Y853642D02*
X268406D01*
X266240Y849508D02*
Y853642D01*
X268406Y849508D02*
Y853642D01*
X291142Y816634D02*
X299409D01*
X291142Y821949D02*
X299409D01*
Y816634D02*
Y821949D01*
X291142Y816634D02*
Y821949D01*
X291142Y826083D02*
X299410D01*
X291142Y831398D02*
X299410D01*
Y826083D02*
Y831398D01*
X291142Y826083D02*
Y831398D01*
X275689Y830610D02*
X277854D01*
X275689Y834744D02*
X277854D01*
X275689Y830610D02*
Y834744D01*
X277854Y830610D02*
Y834744D01*
X272736Y838681D02*
Y840847D01*
X276870Y838681D02*
Y840847D01*
X272736D02*
X276870D01*
X272736Y838681D02*
X276870D01*
X272736Y843406D02*
Y845571D01*
X276870Y843406D02*
Y845571D01*
X272736D02*
X276870D01*
X272736Y843406D02*
X276870D01*
X291142Y856004D02*
X299410D01*
X291142Y861319D02*
X299410D01*
Y856004D02*
Y861319D01*
X291142Y856004D02*
Y861319D01*
X291142Y865453D02*
X299409D01*
X291142Y870768D02*
X299409D01*
Y865453D02*
Y870768D01*
X291142Y865453D02*
Y870768D01*
X293209Y874508D02*
Y876673D01*
X297342Y874508D02*
Y876673D01*
X293209D02*
X297342D01*
X293209Y874508D02*
X297342D01*
X342165Y672874D02*
Y699252D01*
X327598Y672874D02*
Y699252D01*
Y672874D02*
X342165D01*
X327598Y699252D02*
X342165D01*
X374213Y865453D02*
X382480D01*
X374213Y870768D02*
X382480D01*
Y865453D02*
Y870768D01*
X374213Y865453D02*
Y870768D01*
X469390Y559744D02*
Y563878D01*
X471555Y559744D02*
Y563878D01*
X469390Y559744D02*
X471555D01*
X469390Y563878D02*
X471555D01*
X513091Y543405D02*
Y545571D01*
X508957Y543405D02*
Y545571D01*
Y543405D02*
X513091D01*
X508957Y545571D02*
X513091D01*
X526673Y555512D02*
Y573228D01*
X506595Y555512D02*
Y573228D01*
X526673D01*
X506595Y555512D02*
X526673D01*
X495276Y572244D02*
X497441D01*
X495276Y576378D02*
X497441D01*
X495276Y572244D02*
Y576378D01*
X497441Y572244D02*
Y576378D01*
X490059Y572244D02*
X492224D01*
X490059Y576378D02*
X492224D01*
X490059Y572244D02*
Y576378D01*
X492224Y572244D02*
Y576378D01*
X500492Y572342D02*
X502658D01*
X500492Y576476D02*
X502658D01*
X500492Y572342D02*
Y576476D01*
X502658Y572342D02*
Y576476D01*
X305020Y547894D02*
Y550059D01*
X309154Y547894D02*
Y550059D01*
X305020D02*
X309154D01*
X305020Y547894D02*
X309154D01*
X304331Y496161D02*
Y503248D01*
X323228Y496161D02*
Y503248D01*
X304331D02*
X323228D01*
X304331Y496161D02*
X323228D01*
X277559Y522441D02*
X293307D01*
X277559Y538189D02*
X293307D01*
Y522441D02*
Y538189D01*
X277559Y522441D02*
Y538189D01*
X348721Y499606D02*
Y503740D01*
X346555Y499606D02*
Y503740D01*
X348721D01*
X346555Y499606D02*
X348721D01*
X269193Y580807D02*
X273327D01*
X269193Y582972D02*
X273327D01*
Y580807D02*
Y582972D01*
X269193Y580807D02*
Y582972D01*
X265650Y598721D02*
Y602854D01*
X263484Y598721D02*
Y602854D01*
X265650D01*
X263484Y598721D02*
X265650D01*
X377854Y637697D02*
X381988D01*
X377854Y635532D02*
X381988D01*
X377854D02*
Y637697D01*
X381988Y635532D02*
Y637697D01*
X488091Y604626D02*
X492224D01*
X488091Y602461D02*
X492224D01*
X488091D02*
Y604626D01*
X492224Y602461D02*
Y604626D01*
X488189Y594095D02*
X492323D01*
X488189Y591929D02*
X492323D01*
X488189D02*
Y594095D01*
X492323Y591929D02*
Y594095D01*
X466437Y559744D02*
Y563878D01*
X464272Y559744D02*
Y563878D01*
X466437D01*
X464272Y559744D02*
X466437D01*
X488091Y597736D02*
X492224D01*
X488091Y599902D02*
X492224D01*
Y597736D02*
Y599902D01*
X488091Y597736D02*
Y599902D01*
X509744Y717421D02*
X513878D01*
X509744Y719587D02*
X513878D01*
Y717421D02*
Y719587D01*
X509744Y717421D02*
Y719587D01*
X517815Y740748D02*
Y742913D01*
X521949Y740748D02*
Y742913D01*
X517815D02*
X521949D01*
X517815Y740748D02*
X521949D01*
X513779Y740748D02*
Y742913D01*
X509646Y740748D02*
Y742913D01*
Y740748D02*
X513779D01*
X509646Y742913D02*
X513779D01*
X411614Y710925D02*
X415748D01*
X411614Y708760D02*
X415748D01*
X411614D02*
Y710925D01*
X415748Y708760D02*
Y710925D01*
X361122Y775295D02*
X363287D01*
X361122Y771161D02*
X363287D01*
Y775295D01*
X361122Y771161D02*
Y775295D01*
X362697Y680807D02*
X364862D01*
X362697Y676673D02*
X364862D01*
Y680807D01*
X362697Y676673D02*
Y680807D01*
X361516Y725295D02*
X363681D01*
X361516Y721161D02*
X363681D01*
Y725295D01*
X361516Y721161D02*
Y725295D01*
X400492Y560138D02*
X402658D01*
X400492Y564272D02*
X402658D01*
X400492Y560138D02*
Y564272D01*
X402658Y560138D02*
Y564272D01*
X448130Y495571D02*
X452264D01*
X448130Y497736D02*
X452264D01*
Y495571D02*
Y497736D01*
X448130Y495571D02*
Y497736D01*
X395630Y578524D02*
X474370D01*
X395630Y657264D02*
X474370D01*
X395630Y578524D02*
Y657264D01*
X474370Y578524D02*
Y657264D01*
X455315Y823228D02*
Y827362D01*
X453150Y823228D02*
Y827362D01*
X455315D01*
X453150Y823228D02*
X455315D01*
X478937D02*
Y827362D01*
X476772Y823228D02*
Y827362D01*
X478937D01*
X476772Y823228D02*
X478937D01*
X490158Y630020D02*
Y632185D01*
X489075Y631102D02*
X491240D01*
X510236Y704724D02*
X514173D01*
X512205Y702756D02*
Y706693D01*
X398031Y704331D02*
X401968D01*
X400000Y702362D02*
Y706299D01*
X511811Y687894D02*
Y690059D01*
X510728Y688976D02*
X512894D01*
X554429Y685433D02*
X556595D01*
X555512Y684350D02*
Y686516D01*
X535925Y685433D02*
X538091D01*
X537008Y684350D02*
Y686516D01*
X490650Y703937D02*
X492815D01*
X491732Y702854D02*
Y705020D01*
X258366Y600787D02*
X260531D01*
X259449Y599705D02*
Y601870D01*
X446850Y553642D02*
Y555807D01*
X445768Y554724D02*
X447933D01*
X425197Y553642D02*
Y555807D01*
X424114Y554724D02*
X426279D01*
X490158Y644980D02*
Y647146D01*
X489075Y646063D02*
X491240D01*
X490158Y625033D02*
Y627198D01*
X489075Y626116D02*
X491240D01*
X490158Y639993D02*
Y642159D01*
X489075Y641076D02*
X491240D01*
X490158Y620046D02*
Y622211D01*
X489075Y621129D02*
X491240D01*
X485532Y703937D02*
X487697D01*
X486614Y702854D02*
Y705020D01*
X304429Y600787D02*
X306594D01*
X305512Y599705D02*
Y601870D01*
X300000Y572539D02*
Y574705D01*
X298917Y573622D02*
X301083D01*
X300000Y580807D02*
Y582972D01*
X298917Y581890D02*
X301083D01*
X268996Y547244D02*
X271161D01*
X270079Y546161D02*
Y548327D01*
X523228Y522933D02*
Y525098D01*
X522146Y524016D02*
X524311D01*
X490158Y650098D02*
Y652264D01*
X489075Y651181D02*
X491240D01*
X379921Y629626D02*
Y631791D01*
X378839Y630709D02*
X381004D01*
X407342Y674528D02*
X409508D01*
X408425Y673445D02*
Y675610D01*
X459154Y561811D02*
X461319D01*
X460236Y560728D02*
Y562894D01*
X379921Y603248D02*
Y605413D01*
X378839Y604331D02*
X381004D01*
X490158Y587303D02*
Y589468D01*
X489075Y588386D02*
X491240D01*
X379921Y598130D02*
Y600295D01*
X378839Y599213D02*
X381004D01*
X263484Y547244D02*
X265650D01*
X264567Y546161D02*
Y548327D01*
X410827Y700984D02*
X412992D01*
X411909Y699902D02*
Y702067D01*
X413248Y674528D02*
X415413D01*
X414331Y673445D02*
Y675610D01*
X440650Y674528D02*
X442815D01*
X441732Y673445D02*
Y675610D01*
X490158Y607185D02*
Y609350D01*
X489075Y608268D02*
X491240D01*
X405413Y562205D02*
X407579D01*
X406496Y561122D02*
Y563287D01*
X490158Y615059D02*
Y617224D01*
X489075Y616142D02*
X491240D01*
X379921Y623721D02*
Y625886D01*
X378839Y624803D02*
X381004D01*
X379921Y641437D02*
Y643602D01*
X378839Y642520D02*
X381004D01*
X517815Y784646D02*
X519980D01*
X518898Y783563D02*
Y785728D01*
X317913Y575000D02*
Y577165D01*
X316831Y576083D02*
X318996D01*
X311319D02*
X313484D01*
X312402Y575000D02*
Y577165D01*
X379921Y593012D02*
Y595177D01*
X378839Y594095D02*
X381004D01*
X379921Y584350D02*
Y586516D01*
X378839Y585433D02*
X381004D01*
X263779Y729134D02*
Y733071D01*
X261811Y731102D02*
X265748D01*
X263779Y684646D02*
Y688583D01*
X261811Y686614D02*
X265748D01*
X561417Y775984D02*
X565354D01*
X563386Y774016D02*
Y777953D01*
X332913Y780551D02*
X336850D01*
X334882Y778583D02*
Y782520D01*
X332913Y730551D02*
X336850D01*
X334882Y728583D02*
Y732520D01*
X505807Y757185D02*
Y759350D01*
X504724Y758268D02*
X506890D01*
X519882Y745374D02*
Y747539D01*
X518799Y746457D02*
X520965D01*
X511713Y745374D02*
Y747539D01*
X510630Y746457D02*
X512795D01*
X309547Y600787D02*
X311713D01*
X310630Y599705D02*
Y601870D01*
X272087Y755847D02*
Y758012D01*
X271004Y756929D02*
X273169D01*
X272087Y707815D02*
Y709980D01*
X271004Y708898D02*
X273169D01*
X272087Y661752D02*
Y663917D01*
X271004Y662835D02*
X273169D01*
X356004Y773228D02*
X358169D01*
X357087Y772146D02*
Y774311D01*
X356004Y723228D02*
X358169D01*
X357087Y722146D02*
Y724311D01*
X356004Y678740D02*
X358169D01*
X357087Y677658D02*
Y679823D01*
X507480Y772047D02*
Y775984D01*
X505512Y774016D02*
X509449D01*
X283465Y606299D02*
X287402D01*
X285433Y604331D02*
Y608268D01*
X296457Y778740D02*
Y782677D01*
X294488Y780709D02*
X298425D01*
X296457Y729134D02*
Y733071D01*
X294488Y731102D02*
X298425D01*
X296457Y684646D02*
Y688583D01*
X294488Y686614D02*
X298425D01*
X490158Y635007D02*
Y637172D01*
X489075Y636089D02*
X491240D01*
X271260Y572539D02*
Y574705D01*
X270177Y573622D02*
X272342D01*
X254724Y538661D02*
Y542598D01*
X252756Y540630D02*
X256693D01*
X458661Y700394D02*
Y704331D01*
X456693Y702362D02*
X460630D01*
X538484Y614173D02*
Y618110D01*
X536516Y616142D02*
X540453D01*
X263779Y778740D02*
Y782677D01*
X261811Y780709D02*
X265748D01*
X498425Y825295D02*
X500591D01*
X499508Y824213D02*
Y826378D01*
X285433Y575197D02*
Y579134D01*
X283465Y577165D02*
X287402D01*
X563091Y625492D02*
X565256D01*
X564173Y624409D02*
Y626575D01*
X359842Y852067D02*
Y854232D01*
X358760Y853150D02*
X360925D01*
X355118Y852067D02*
Y854232D01*
X354035Y853150D02*
X356201D01*
X350394Y852067D02*
Y854232D01*
X349311Y853150D02*
X351476D01*
X401181Y833465D02*
X405118D01*
X403150Y831496D02*
Y835433D01*
X378346Y817323D02*
Y821260D01*
X376378Y819291D02*
X380315D01*
X378346Y826772D02*
Y830709D01*
X376378Y828740D02*
X380315D01*
X359842Y833563D02*
Y835728D01*
X358760Y834646D02*
X360925D01*
X374803Y841732D02*
Y845669D01*
X372835Y843701D02*
X376772D01*
X356791Y841732D02*
X358957D01*
X357874Y840650D02*
Y842815D01*
X356791Y846457D02*
X358957D01*
X357874Y845374D02*
Y847539D01*
X378346Y856693D02*
Y860630D01*
X376378Y858661D02*
X380315D01*
X377264Y875197D02*
X379429D01*
X378346Y874114D02*
Y876280D01*
X289764Y843701D02*
X293701D01*
X291732Y841732D02*
Y845669D01*
X317717Y833465D02*
X321654D01*
X319685Y831496D02*
Y835433D01*
X276772Y850492D02*
Y852658D01*
X275689Y851575D02*
X277854D01*
X272047Y850492D02*
Y852658D01*
X270965Y851575D02*
X273130D01*
X267323Y850492D02*
Y852658D01*
X266240Y851575D02*
X268406D01*
X295276Y817323D02*
Y821260D01*
X293307Y819291D02*
X297244D01*
X295276Y826772D02*
Y830709D01*
X293307Y828740D02*
X297244D01*
X276772Y831594D02*
Y833760D01*
X275689Y832677D02*
X277854D01*
X273721Y839764D02*
X275886D01*
X274803Y838681D02*
Y840847D01*
X273721Y844488D02*
X275886D01*
X274803Y843406D02*
Y845571D01*
X295276Y856693D02*
Y860630D01*
X293307Y858661D02*
X297244D01*
X295276Y866142D02*
Y870079D01*
X293307Y868110D02*
X297244D01*
X294193Y875591D02*
X296358D01*
X295276Y874508D02*
Y876673D01*
X332913Y686063D02*
X336850D01*
X334882Y684094D02*
Y688031D01*
X378346Y866142D02*
Y870079D01*
X376378Y868110D02*
X380315D01*
X469390Y561811D02*
X471555D01*
X470472Y560728D02*
Y562894D01*
X509941Y544488D02*
X512106D01*
X511024Y543405D02*
Y545571D01*
X514665Y564370D02*
X518602D01*
X516634Y562402D02*
Y566339D01*
X496358Y573228D02*
Y575394D01*
X495276Y574311D02*
X497441D01*
X491142Y573228D02*
Y575394D01*
X490059Y574311D02*
X492224D01*
X501575Y573327D02*
Y575492D01*
X500492Y574409D02*
X502658D01*
X306004Y548976D02*
X308169D01*
X307087Y547894D02*
Y550059D01*
X311811Y499705D02*
X315748D01*
X313779Y497736D02*
Y501673D01*
X285433Y528346D02*
Y532283D01*
X283465Y530315D02*
X287402D01*
X346555Y501673D02*
X348721D01*
X347638Y500591D02*
Y502756D01*
X271260Y580807D02*
Y582972D01*
X270177Y581890D02*
X272342D01*
X263484Y600787D02*
X265650D01*
X264567Y599705D02*
Y601870D01*
X379921Y635532D02*
Y637697D01*
X378839Y636614D02*
X381004D01*
X490158Y602461D02*
Y604626D01*
X489075Y603543D02*
X491240D01*
X490256Y591929D02*
Y594095D01*
X489173Y593012D02*
X491339D01*
X464272Y561811D02*
X466437D01*
X465354Y560728D02*
Y562894D01*
X490158Y597736D02*
Y599902D01*
X489075Y598819D02*
X491240D01*
X511811Y717421D02*
Y719587D01*
X510728Y718504D02*
X512894D01*
X518799Y741831D02*
X520965D01*
X519882Y740748D02*
Y742913D01*
X510630Y741831D02*
X512795D01*
X511713Y740748D02*
Y742913D01*
X413681Y708760D02*
Y710925D01*
X412598Y709842D02*
X414764D01*
X362205Y772146D02*
Y774311D01*
X361122Y773228D02*
X363287D01*
X363779Y677658D02*
Y679823D01*
X362697Y678740D02*
X364862D01*
X362598Y722146D02*
Y724311D01*
X361516Y723228D02*
X363681D01*
X401575Y561122D02*
Y563287D01*
X400492Y562205D02*
X402658D01*
X450197Y495571D02*
Y497736D01*
X449114Y496654D02*
X451279D01*
X435000Y615925D02*
Y619862D01*
X433032Y617894D02*
X436969D01*
X453150Y825295D02*
X455315D01*
X454232Y824213D02*
Y826378D01*
X476772Y825295D02*
X478937D01*
X477854Y824213D02*
Y826378D01*
D60*
X254256Y731102D02*
D03*
Y686614D02*
D03*
X305981Y780709D02*
D03*
X305981Y731102D02*
D03*
X305981Y686614D02*
D03*
X254256Y780709D02*
D03*
D61*
X450824Y702362D02*
D03*
X530647Y616142D02*
D03*
D62*
X486417Y633071D02*
X493898D01*
X486417Y629134D02*
X493898D01*
X486417D02*
Y633071D01*
X493898Y629134D02*
Y633071D01*
X497736Y694095D02*
Y715354D01*
X526673Y694095D02*
Y715354D01*
X497736D02*
X526673D01*
X497736Y694095D02*
X526673D01*
X393110Y696063D02*
Y712598D01*
X406890Y696063D02*
Y712598D01*
X393110Y696063D02*
X406890D01*
X393110Y712598D02*
X406890D01*
X508268Y687205D02*
X515354D01*
X508268Y690748D02*
X515354D01*
Y687205D02*
Y690748D01*
X508268Y687205D02*
Y690748D01*
X557283Y681890D02*
Y688976D01*
X553740Y681890D02*
Y688976D01*
X557283D01*
X553740Y681890D02*
X557283D01*
X538779D02*
Y688976D01*
X535236Y681890D02*
Y688976D01*
X538779D01*
X535236Y681890D02*
X538779D01*
X493504Y700394D02*
Y707480D01*
X489961Y700394D02*
Y707480D01*
X493504D01*
X489961Y700394D02*
X493504D01*
X261417Y597047D02*
Y604528D01*
X257480Y597047D02*
Y604528D01*
X261417D01*
X257480Y597047D02*
X261417D01*
X443110Y556693D02*
X450591D01*
X443110Y552756D02*
X450591D01*
X443110D02*
Y556693D01*
X450591Y552756D02*
Y556693D01*
X421457Y552756D02*
X428937D01*
X421457Y556693D02*
X428937D01*
Y552756D02*
Y556693D01*
X421457Y552756D02*
Y556693D01*
X486417Y648032D02*
X493898D01*
X486417Y644094D02*
X493898D01*
X486417D02*
Y648032D01*
X493898Y644094D02*
Y648032D01*
X486417Y628084D02*
X493898D01*
X486417Y624147D02*
X493898D01*
X486417D02*
Y628084D01*
X493898Y624147D02*
Y628084D01*
X486417Y643045D02*
X493898D01*
X486417Y639108D02*
X493898D01*
X486417D02*
Y643045D01*
X493898Y639108D02*
Y643045D01*
X486417Y623097D02*
X493898D01*
X486417Y619160D02*
X493898D01*
X486417D02*
Y623097D01*
X493898Y619160D02*
Y623097D01*
X484646Y700197D02*
Y707677D01*
X488583Y700197D02*
Y707677D01*
X484646Y700197D02*
X488583D01*
X484646Y707677D02*
X488583D01*
X307480Y597047D02*
Y604528D01*
X303543Y597047D02*
Y604528D01*
X307480D01*
X303543Y597047D02*
X307480D01*
X296260Y575591D02*
X303740D01*
X296260Y571654D02*
X303740D01*
X296260D02*
Y575591D01*
X303740Y571654D02*
Y575591D01*
X296260Y579921D02*
X303740D01*
X296260Y583858D02*
X303740D01*
Y579921D02*
Y583858D01*
X296260Y579921D02*
Y583858D01*
X268110Y543504D02*
Y550984D01*
X272047Y543504D02*
Y550984D01*
X268110Y543504D02*
X272047D01*
X268110Y550984D02*
X272047D01*
X519488Y522047D02*
X526968D01*
X519488Y525984D02*
X526968D01*
Y522047D02*
Y525984D01*
X519488Y522047D02*
Y525984D01*
X486417Y653150D02*
X493898D01*
X486417Y649213D02*
X493898D01*
X486417D02*
Y653150D01*
X493898Y649213D02*
Y653150D01*
X376181Y628740D02*
X383661D01*
X376181Y632677D02*
X383661D01*
Y628740D02*
Y632677D01*
X376181Y628740D02*
Y632677D01*
X406457Y670787D02*
Y678268D01*
X410394Y670787D02*
Y678268D01*
X406457Y670787D02*
X410394D01*
X406457Y678268D02*
X410394D01*
X462205Y558071D02*
Y565551D01*
X458268Y558071D02*
Y565551D01*
X462205D01*
X458268Y558071D02*
X462205D01*
X376181Y602362D02*
X383661D01*
X376181Y606299D02*
X383661D01*
Y602362D02*
Y606299D01*
X376181Y602362D02*
Y606299D01*
X486417Y590354D02*
X493898D01*
X486417Y586417D02*
X493898D01*
X486417D02*
Y590354D01*
X493898Y586417D02*
Y590354D01*
X376181Y597244D02*
X383661D01*
X376181Y601181D02*
X383661D01*
Y597244D02*
Y601181D01*
X376181Y597244D02*
Y601181D01*
X266535Y543504D02*
Y550984D01*
X262598Y543504D02*
Y550984D01*
X266535D01*
X262598Y543504D02*
X266535D01*
X409941Y697244D02*
Y704724D01*
X413878Y697244D02*
Y704724D01*
X409941Y697244D02*
X413878D01*
X409941Y704724D02*
X413878D01*
X412362Y670787D02*
Y678268D01*
X416299Y670787D02*
Y678268D01*
X412362Y670787D02*
X416299D01*
X412362Y678268D02*
X416299D01*
X439764Y670787D02*
Y678268D01*
X443701Y670787D02*
Y678268D01*
X439764Y670787D02*
X443701D01*
X439764Y678268D02*
X443701D01*
X486417Y610236D02*
X493898D01*
X486417Y606299D02*
X493898D01*
X486417D02*
Y610236D01*
X493898Y606299D02*
Y610236D01*
X408465Y558465D02*
Y565945D01*
X404528Y558465D02*
Y565945D01*
X408465D01*
X404528Y558465D02*
X408465D01*
X486417Y618110D02*
X493898D01*
X486417Y614173D02*
X493898D01*
X486417D02*
Y618110D01*
X493898Y614173D02*
Y618110D01*
X376181Y622835D02*
X383661D01*
X376181Y626772D02*
X383661D01*
Y622835D02*
Y626772D01*
X376181Y622835D02*
Y626772D01*
Y640551D02*
X383661D01*
X376181Y644488D02*
X383661D01*
Y640551D02*
Y644488D01*
X376181Y640551D02*
Y644488D01*
X516929Y780905D02*
Y788386D01*
X520866Y780905D02*
Y788386D01*
X516929Y780905D02*
X520866D01*
X516929Y788386D02*
X520866D01*
X315945Y572342D02*
X319882D01*
X315945Y579823D02*
X319882D01*
X315945Y572342D02*
Y579823D01*
X319882Y572342D02*
Y579823D01*
X314370Y572342D02*
Y579823D01*
X310433Y572342D02*
Y579823D01*
X314370D01*
X310433Y572342D02*
X314370D01*
X376181Y592126D02*
X383661D01*
X376181Y596063D02*
X383661D01*
Y592126D02*
Y596063D01*
X376181Y592126D02*
Y596063D01*
Y583465D02*
X383661D01*
X376181Y587402D02*
X383661D01*
Y583465D02*
Y587402D01*
X376181Y583465D02*
Y587402D01*
X249803Y739961D02*
X277756D01*
X249803Y722244D02*
X277756D01*
X249803D02*
Y739961D01*
X277756Y722244D02*
Y739961D01*
X249803Y695472D02*
X277756D01*
X249803Y677756D02*
X277756D01*
X249803D02*
Y695472D01*
X277756Y677756D02*
Y695472D01*
X529724Y755315D02*
Y796654D01*
X597047Y755315D02*
Y796654D01*
X529724D02*
X597047D01*
X529724Y755315D02*
X597047D01*
X351614Y766378D02*
Y794724D01*
X318150Y766378D02*
Y794724D01*
Y766378D02*
X351614D01*
X318150Y794724D02*
X351614D01*
Y716378D02*
Y744724D01*
X318150Y716378D02*
Y744724D01*
Y716378D02*
X351614D01*
X318150Y744724D02*
X351614D01*
X502264Y760039D02*
X509350D01*
X502264Y756496D02*
X509350D01*
X502264D02*
Y760039D01*
X509350Y756496D02*
Y760039D01*
X516339Y744685D02*
X523425D01*
X516339Y748228D02*
X523425D01*
Y744685D02*
Y748228D01*
X516339Y744685D02*
Y748228D01*
X508169Y748228D02*
X515256D01*
X508169Y744685D02*
X515256D01*
X508169D02*
Y748228D01*
X515256Y744685D02*
Y748228D01*
X308858Y597244D02*
Y604331D01*
X312402Y597244D02*
Y604331D01*
X308858Y597244D02*
X312402D01*
X308858Y604331D02*
X312402D01*
X268543Y758701D02*
X275630D01*
X268543Y755158D02*
X275630D01*
X268543D02*
Y758701D01*
X275630Y755158D02*
Y758701D01*
X268543Y710669D02*
X275630D01*
X268543Y707126D02*
X275630D01*
X268543D02*
Y710669D01*
X275630Y707126D02*
Y710669D01*
X268543Y664606D02*
X275630D01*
X268543Y661063D02*
X275630D01*
X268543D02*
Y664606D01*
X275630Y661063D02*
Y664606D01*
X355315Y769685D02*
Y776772D01*
X358858Y769685D02*
Y776772D01*
X355315Y769685D02*
X358858D01*
X355315Y776772D02*
X358858D01*
X355315Y719685D02*
Y726772D01*
X358858Y719685D02*
Y726772D01*
X355315Y719685D02*
X358858D01*
X355315Y726772D02*
X358858D01*
X355315Y675197D02*
Y682283D01*
X358858Y675197D02*
Y682283D01*
X355315Y675197D02*
X358858D01*
X355315Y682283D02*
X358858D01*
X500394Y761614D02*
X514567D01*
X500394Y786417D02*
X514567D01*
X500394Y761614D02*
Y786417D01*
X514567Y761614D02*
Y786417D01*
X297736Y599409D02*
Y613189D01*
X273130Y599409D02*
Y613189D01*
Y599409D02*
X297736D01*
X273130Y613189D02*
X297736D01*
X282480Y771850D02*
X310433D01*
X282480Y789567D02*
X310433D01*
Y771850D02*
Y789567D01*
X282480Y771850D02*
Y789567D01*
Y722244D02*
X310433D01*
X282480Y739961D02*
X310433D01*
Y722244D02*
Y739961D01*
X282480Y722244D02*
Y739961D01*
Y677756D02*
X310433D01*
X282480Y695472D02*
X310433D01*
Y677756D02*
Y695472D01*
X282480Y677756D02*
Y695472D01*
X486417Y638058D02*
X493898D01*
X486417Y634121D02*
X493898D01*
X486417D02*
Y638058D01*
X493898Y634121D02*
Y638058D01*
X267717Y571850D02*
X274803D01*
X267717Y575394D02*
X274803D01*
Y571850D02*
Y575394D01*
X267717Y571850D02*
Y575394D01*
X250000Y528819D02*
X259449D01*
X250000Y552441D02*
X259449D01*
X250000Y528819D02*
Y552441D01*
X259449Y528819D02*
Y552441D01*
X446654Y695866D02*
X470669D01*
X446654Y708858D02*
X470669D01*
Y695866D02*
Y708858D01*
X446654Y695866D02*
Y708858D01*
X526476Y609646D02*
X550492D01*
X526476Y622638D02*
X550492D01*
Y609646D02*
Y622638D01*
X526476Y609646D02*
Y622638D01*
X249803Y789567D02*
X277756D01*
X249803Y771850D02*
X277756D01*
X249803D02*
Y789567D01*
X277756Y771850D02*
Y789567D01*
X501279Y821752D02*
Y828839D01*
X497736Y821752D02*
Y828839D01*
X501279D01*
X497736Y821752D02*
X501279D01*
X277146Y570079D02*
X293721D01*
X277146Y584252D02*
X293721D01*
Y570079D02*
Y584252D01*
X277146Y570079D02*
Y584252D01*
X565945Y621949D02*
Y629035D01*
X562402Y621949D02*
Y629035D01*
X565945D01*
X562402Y621949D02*
X565945D01*
X358071Y856693D02*
X361614D01*
X358071Y849606D02*
X361614D01*
Y856693D01*
X358071Y849606D02*
Y856693D01*
X353150Y849409D02*
X357087D01*
X353150Y856890D02*
X357087D01*
X353150Y849409D02*
Y856890D01*
X357087Y849409D02*
Y856890D01*
X348622Y849606D02*
X352165D01*
X348622Y856693D02*
X352165D01*
X348622Y849606D02*
Y856693D01*
X352165Y849606D02*
Y856693D01*
X389764Y817815D02*
Y849114D01*
X416535Y817815D02*
Y849114D01*
X389764Y817815D02*
X416535D01*
X389764Y849114D02*
X416535D01*
X371850Y815551D02*
X384842D01*
X371850Y823032D02*
X384842D01*
Y815551D02*
Y823032D01*
X371850Y815551D02*
Y823032D01*
X371850Y825000D02*
X384842D01*
X371850Y832480D02*
X384842D01*
Y825000D02*
Y832480D01*
X371850Y825000D02*
Y832480D01*
X357874Y830906D02*
X361811D01*
X357874Y838386D02*
X361811D01*
X357874Y830906D02*
Y838386D01*
X361811Y830906D02*
Y838386D01*
X366535Y851968D02*
X383071D01*
X366535Y835433D02*
X383071D01*
Y851968D01*
X366535Y835433D02*
Y851968D01*
X354134Y839764D02*
Y843701D01*
X361614Y839764D02*
Y843701D01*
X354134D02*
X361614D01*
X354134Y839764D02*
X361614D01*
X354134Y844488D02*
Y848425D01*
X361614Y844488D02*
Y848425D01*
X354134D02*
X361614D01*
X354134Y844488D02*
X361614D01*
X371850Y854921D02*
X384842D01*
X371850Y862402D02*
X384842D01*
Y854921D02*
Y862402D01*
X371850Y854921D02*
Y862402D01*
X374803Y873425D02*
Y876968D01*
X381890Y873425D02*
Y876968D01*
X374803D02*
X381890D01*
X374803Y873425D02*
X381890D01*
X283465Y835433D02*
Y851968D01*
X300000Y835433D02*
Y851968D01*
X283465Y835433D02*
X300000D01*
X283465Y851968D02*
X300000D01*
X306299Y817815D02*
Y849114D01*
X333071Y817815D02*
Y849114D01*
X306299Y817815D02*
X333071D01*
X306299Y849114D02*
X333071D01*
X275000Y855118D02*
X278543D01*
X275000Y848032D02*
X278543D01*
Y855118D01*
X275000Y848032D02*
Y855118D01*
X270079Y847835D02*
X274016D01*
X270079Y855315D02*
X274016D01*
X270079Y847835D02*
Y855315D01*
X274016Y847835D02*
Y855315D01*
X265551Y848032D02*
X269094D01*
X265551Y855118D02*
X269094D01*
X265551Y848032D02*
Y855118D01*
X269094Y848032D02*
Y855118D01*
X288779Y815551D02*
X301772D01*
X288779Y823032D02*
X301772D01*
Y815551D02*
Y823032D01*
X288779Y815551D02*
Y823032D01*
X288779Y825000D02*
X301772D01*
X288779Y832480D02*
X301772D01*
Y825000D02*
Y832480D01*
X288779Y825000D02*
Y832480D01*
X274803Y828937D02*
X278740D01*
X274803Y836417D02*
X278740D01*
X274803Y828937D02*
Y836417D01*
X278740Y828937D02*
Y836417D01*
X271063Y837795D02*
Y841732D01*
X278543Y837795D02*
Y841732D01*
X271063D02*
X278543D01*
X271063Y837795D02*
X278543D01*
X271063Y842520D02*
Y846457D01*
X278543Y842520D02*
Y846457D01*
X271063D02*
X278543D01*
X271063Y842520D02*
X278543D01*
X288779Y854921D02*
X301772D01*
X288779Y862402D02*
X301772D01*
Y854921D02*
Y862402D01*
X288779Y854921D02*
Y862402D01*
X288779Y864370D02*
X301772D01*
X288779Y871850D02*
X301772D01*
Y864370D02*
Y871850D01*
X288779Y864370D02*
Y871850D01*
X291732Y873819D02*
Y877362D01*
X298819Y873819D02*
Y877362D01*
X291732D02*
X298819D01*
X291732Y873819D02*
X298819D01*
X351614Y671890D02*
Y700236D01*
X318150Y671890D02*
Y700236D01*
Y671890D02*
X351614D01*
X318150Y700236D02*
X351614D01*
X371850Y864370D02*
X384842D01*
X371850Y871850D02*
X384842D01*
Y864370D02*
Y871850D01*
X371850Y864370D02*
Y871850D01*
X468701Y558268D02*
Y565354D01*
X472244Y558268D02*
Y565354D01*
X468701Y558268D02*
X472244D01*
X468701Y565354D02*
X472244D01*
X514567Y542717D02*
Y546260D01*
X507480Y542717D02*
Y546260D01*
Y542717D02*
X514567D01*
X507480Y546260D02*
X514567D01*
X527658Y549016D02*
Y579724D01*
X505610Y549016D02*
Y579724D01*
X527658D01*
X505610Y549016D02*
X527658D01*
X494587Y570768D02*
X498130D01*
X494587Y577854D02*
X498130D01*
X494587Y570768D02*
Y577854D01*
X498130Y570768D02*
Y577854D01*
X489370Y570768D02*
X492913D01*
X489370Y577854D02*
X492913D01*
X489370Y570768D02*
Y577854D01*
X492913Y570768D02*
Y577854D01*
X499606Y570669D02*
X503543D01*
X499606Y578150D02*
X503543D01*
X499606Y570669D02*
Y578150D01*
X503543Y570669D02*
Y578150D01*
X303543Y547205D02*
Y550748D01*
X310630Y547205D02*
Y550748D01*
X303543D02*
X310630D01*
X303543Y547205D02*
X310630D01*
X301969Y494980D02*
Y504429D01*
X325590Y494980D02*
Y504429D01*
X301969D02*
X325590D01*
X301969Y494980D02*
X325590D01*
X275295Y520177D02*
X295571D01*
X275295Y540453D02*
X295571D01*
Y520177D02*
Y540453D01*
X275295Y520177D02*
Y540453D01*
X349410Y498130D02*
Y505217D01*
X345866Y498130D02*
Y505217D01*
X349410D01*
X345866Y498130D02*
X349410D01*
X267717Y580118D02*
X274803D01*
X267717Y583661D02*
X274803D01*
Y580118D02*
Y583661D01*
X267717Y580118D02*
Y583661D01*
X266339Y597244D02*
Y604331D01*
X262795Y597244D02*
Y604331D01*
X266339D01*
X262795Y597244D02*
X266339D01*
X376378Y638386D02*
X383465D01*
X376378Y634842D02*
X383465D01*
X376378D02*
Y638386D01*
X383465Y634842D02*
Y638386D01*
X486417Y605512D02*
X493898D01*
X486417Y601575D02*
X493898D01*
X486417D02*
Y605512D01*
X493898Y601575D02*
Y605512D01*
X486516Y594980D02*
X493996D01*
X486516Y591043D02*
X493996D01*
X486516D02*
Y594980D01*
X493996Y591043D02*
Y594980D01*
X467323Y558071D02*
Y565551D01*
X463386Y558071D02*
Y565551D01*
X467323D01*
X463386Y558071D02*
X467323D01*
X486614Y597047D02*
X493701D01*
X486614Y600591D02*
X493701D01*
Y597047D02*
Y600591D01*
X486614Y597047D02*
Y600591D01*
X508268Y716732D02*
X515354D01*
X508268Y720276D02*
X515354D01*
Y716732D02*
Y720276D01*
X508268Y716732D02*
Y720276D01*
X516339Y740059D02*
Y743602D01*
X523425Y740059D02*
Y743602D01*
X516339D02*
X523425D01*
X516339Y740059D02*
X523425D01*
X515256Y740059D02*
Y743602D01*
X508169Y740059D02*
Y743602D01*
Y740059D02*
X515256D01*
X508169Y743602D02*
X515256D01*
X409941Y711811D02*
X417421D01*
X409941Y707874D02*
X417421D01*
X409941D02*
Y711811D01*
X417421Y707874D02*
Y711811D01*
X360433Y776772D02*
X363976D01*
X360433Y769685D02*
X363976D01*
Y776772D01*
X360433Y769685D02*
Y776772D01*
X362008Y682283D02*
X365551D01*
X362008Y675197D02*
X365551D01*
Y682283D01*
X362008Y675197D02*
Y682283D01*
X360827Y726772D02*
X364370D01*
X360827Y719685D02*
X364370D01*
Y726772D01*
X360827Y719685D02*
Y726772D01*
X399606Y558465D02*
X403543D01*
X399606Y565945D02*
X403543D01*
X399606Y558465D02*
Y565945D01*
X403543Y558465D02*
Y565945D01*
X446654Y494882D02*
X453740D01*
X446654Y498425D02*
X453740D01*
Y494882D02*
Y498425D01*
X446654Y494882D02*
Y498425D01*
X388937Y571831D02*
X481063D01*
X388937Y663957D02*
X481063D01*
X388937Y571831D02*
Y663957D01*
X481063Y571831D02*
Y663957D01*
X456004Y821752D02*
Y828839D01*
X452461Y821752D02*
Y828839D01*
X456004D01*
X452461Y821752D02*
X456004D01*
X479626D02*
Y828839D01*
X476083Y821752D02*
Y828839D01*
X479626D01*
X476083Y821752D02*
X479626D01*
M02*
