G04 Layer_Color=16711935*
%FSLAX25Y25*%
%MOIN*%
G70*
G01*
G75*
%ADD118C,0.07099*%
%ADD119C,0.00800*%
%ADD120C,0.08280*%
%ADD121C,0.09461*%
%ADD122C,0.28359*%
%ADD123C,0.02768*%
D118*
X506791Y558366D02*
D03*
X516791D02*
D03*
X559094Y602913D02*
D03*
Y592913D02*
D03*
Y562913D02*
D03*
Y582913D02*
D03*
Y572913D02*
D03*
Y552913D02*
D03*
Y542913D02*
D03*
Y532913D02*
D03*
X569095D02*
D03*
Y542913D02*
D03*
Y552913D02*
D03*
Y572913D02*
D03*
Y582913D02*
D03*
Y562913D02*
D03*
Y592913D02*
D03*
Y602913D02*
D03*
X533169Y638819D02*
D03*
Y648819D02*
D03*
Y658819D02*
D03*
X215158Y536850D02*
D03*
Y546850D02*
D03*
Y556850D02*
D03*
X537008Y699055D02*
D03*
Y709055D02*
D03*
X555512Y699055D02*
D03*
Y709055D02*
D03*
X334173Y618898D02*
D03*
Y628898D02*
D03*
Y588898D02*
D03*
Y598898D02*
D03*
Y608898D02*
D03*
X215158Y729114D02*
D03*
Y739114D02*
D03*
Y749114D02*
D03*
X559094Y658819D02*
D03*
Y668819D02*
D03*
Y638819D02*
D03*
Y648819D02*
D03*
D119*
X224528Y691221D02*
D03*
Y581220D02*
D03*
X581319Y626024D02*
D03*
Y736024D02*
D03*
X588189Y819685D02*
D03*
D120*
X229528Y681220D02*
D03*
X219528D02*
D03*
Y671220D02*
D03*
X229528D02*
D03*
Y661221D02*
D03*
X219528D02*
D03*
Y651221D02*
D03*
X229528D02*
D03*
Y641221D02*
D03*
X219528D02*
D03*
Y631220D02*
D03*
X229528D02*
D03*
Y621220D02*
D03*
X219528D02*
D03*
Y611221D02*
D03*
X229528D02*
D03*
Y601221D02*
D03*
X219528D02*
D03*
Y591221D02*
D03*
X229528D02*
D03*
X576319Y636024D02*
D03*
X586319D02*
D03*
Y646024D02*
D03*
X576319D02*
D03*
Y656024D02*
D03*
X586319D02*
D03*
Y666024D02*
D03*
X576319D02*
D03*
Y676024D02*
D03*
X586319D02*
D03*
Y686024D02*
D03*
X576319D02*
D03*
Y696024D02*
D03*
X586319D02*
D03*
Y706024D02*
D03*
X576319D02*
D03*
Y716024D02*
D03*
X586319D02*
D03*
Y726024D02*
D03*
X576319D02*
D03*
D121*
X559449Y819685D02*
D03*
X537795D02*
D03*
D122*
X582677Y868110D02*
D03*
X225197Y510236D02*
D03*
X583465Y509449D02*
D03*
X224410Y867717D02*
D03*
D123*
X283268Y532480D02*
D03*
X287598D02*
D03*
X283268Y528150D02*
D03*
X287598D02*
D03*
M02*
