G04*
G04 #@! TF.GenerationSoftware,Altium Limited,Altium Designer,18.1.7 (191)*
G04*
G04 Layer_Physical_Order=1*
G04 Layer_Color=255*
%FSLAX25Y25*%
%MOIN*%
G70*
G01*
G75*
%ADD11C,0.02362*%
%ADD12C,0.01575*%
%ADD13C,0.01000*%
%ADD16C,0.00787*%
%ADD20R,0.02362X0.02165*%
%ADD21R,0.04134X0.02362*%
%ADD22R,0.05315X0.04724*%
%ADD23R,0.03937X0.05315*%
%ADD24R,0.02165X0.02362*%
%ADD25R,0.05000X0.08465*%
%ADD26O,0.05709X0.02362*%
%ADD27R,0.00787X0.01870*%
%ADD28R,0.01575X0.05315*%
%ADD29R,0.08268X0.06299*%
%ADD30R,0.07087X0.07480*%
%ADD31R,0.07480X0.07480*%
%ADD32R,0.01575X0.05335*%
%ADD33R,0.00787X0.02087*%
%ADD34R,0.03740X0.02559*%
%ADD35R,0.02362X0.04134*%
%ADD36R,0.03937X0.02362*%
%ADD37R,0.03150X0.03150*%
%ADD38R,0.03150X0.03150*%
%ADD39R,0.05118X0.03543*%
%ADD40O,0.05709X0.01181*%
%ADD41O,0.01181X0.05709*%
%ADD42R,0.02441X0.02598*%
%ADD43R,0.04724X0.05315*%
%ADD44O,0.05512X0.01378*%
%ADD45R,0.07874X0.14961*%
%ADD46R,0.07874X0.05906*%
%ADD47R,0.02165X0.00984*%
%ADD48R,0.06299X0.09449*%
%ADD49R,0.22441X0.06299*%
%ADD50R,0.02598X0.02441*%
%ADD51R,0.14567X0.07874*%
%ADD52R,0.08268X0.07087*%
%ADD53R,0.05000X0.07165*%
%ADD54R,0.07165X0.05000*%
%ADD55R,0.06102X0.05118*%
%ADD56O,0.01181X0.05315*%
%ADD57R,0.06299X0.13780*%
%ADD58R,0.10630X0.38583*%
%ADD59R,0.16339X0.04134*%
%ADD60R,0.22047X0.08268*%
%ADD61R,0.03000X0.11000*%
%ADD62R,0.03150X0.02165*%
%ADD63R,0.02362X0.01181*%
%ADD64R,0.05866X0.09449*%
%ADD65R,0.03347X0.01181*%
%ADD66R,0.01181X0.03347*%
%ADD67R,0.08189X0.08189*%
%ADD123C,0.01181*%
%ADD124C,0.01968*%
%ADD125C,0.03937*%
%ADD126C,0.07874*%
%ADD127C,0.02756*%
%ADD128C,0.06299*%
%ADD129C,0.07480*%
%ADD130C,0.08661*%
%ADD131C,0.27559*%
%ADD132C,0.02362*%
%ADD133C,0.04724*%
%ADD134C,0.01968*%
G36*
X547571Y878335D02*
X550984Y874921D01*
X550984Y858622D01*
X549437Y857075D01*
X529539Y857075D01*
X528358Y858256D01*
X528358Y874539D01*
X532154Y878335D01*
X547571Y878335D01*
D02*
G37*
G36*
X371358Y872047D02*
X371450D01*
X371835Y871768D01*
Y868610D01*
X375197D01*
Y868110D01*
X375697D01*
Y864453D01*
X377327D01*
Y862319D01*
X375697D01*
Y858661D01*
Y855004D01*
X377327D01*
Y852819D01*
X375886Y851378D01*
X369882D01*
X366732Y854528D01*
Y858760D01*
X366732Y858760D01*
X366791Y859055D01*
X366621Y859906D01*
X366139Y860628D01*
X366043Y860692D01*
Y871850D01*
X366929Y872736D01*
X370669D01*
X371358Y872047D01*
D02*
G37*
G36*
X287732Y872355D02*
X288041Y872293D01*
X288287Y872047D01*
X288380D01*
X288764Y871768D01*
Y868610D01*
X292126D01*
Y868110D01*
X292626D01*
Y864453D01*
X294256D01*
Y862319D01*
X292626D01*
Y858661D01*
Y855004D01*
X294256D01*
Y852819D01*
X292815Y851378D01*
X286811D01*
X283661Y854528D01*
Y858760D01*
X282972Y859449D01*
Y871850D01*
X283858Y872736D01*
X287161D01*
X287732Y872355D01*
D02*
G37*
G36*
X306693Y874016D02*
Y851968D01*
X304563Y849839D01*
X303963D01*
X303573Y849761D01*
X303242Y849540D01*
X300713Y847010D01*
X300405Y847138D01*
X298130D01*
Y847638D01*
X297630D01*
Y849130D01*
X296148D01*
X295783Y849425D01*
D01*
X295334Y849548D01*
X295276Y849606D01*
Y855004D01*
X297925D01*
Y858661D01*
Y862319D01*
X295276D01*
Y864453D01*
X297925D01*
Y868110D01*
Y871768D01*
X295276D01*
Y873508D01*
X296449D01*
Y875591D01*
Y877673D01*
X296413D01*
X296164Y878173D01*
X296294Y878347D01*
X302362D01*
X306693Y874016D01*
D02*
G37*
G36*
X423130Y876181D02*
X427559Y872244D01*
Y857382D01*
X423130Y852953D01*
X390256Y852953D01*
X387070Y849767D01*
X387038Y849761D01*
X386707Y849540D01*
X383784Y846616D01*
X383283Y846824D01*
Y847138D01*
X381201D01*
Y847638D01*
X380701D01*
Y849130D01*
X379214D01*
X378854Y849425D01*
D01*
X378463Y849687D01*
X378248Y849902D01*
Y852398D01*
X378269Y852429D01*
X378346Y852819D01*
Y855004D01*
X380996D01*
Y858661D01*
Y862319D01*
X378346D01*
Y864453D01*
X380996D01*
Y868110D01*
Y871768D01*
X378248D01*
Y873114D01*
X379520D01*
Y875197D01*
X380020D01*
Y875697D01*
X382201D01*
Y876181D01*
X423130Y876181D01*
D02*
G37*
G36*
X335039Y847598D02*
X335039Y838583D01*
X333071Y836614D01*
X303937Y836614D01*
X300213Y840339D01*
Y841256D01*
X298317D01*
X298130Y841293D01*
Y842232D01*
X300213D01*
Y843201D01*
X298130D01*
Y844140D01*
X298317Y844177D01*
X300213D01*
Y845068D01*
X300422Y845278D01*
X301207Y846063D01*
X303892Y848748D01*
X303971Y848800D01*
X304064Y848819D01*
X304563D01*
X304953Y848897D01*
X305284Y849117D01*
X306442Y850276D01*
X332362Y850276D01*
X335039Y847598D01*
D02*
G37*
G36*
X418504Y846457D02*
X418504Y838976D01*
X416142Y836614D01*
X387402Y836614D01*
X383465Y840551D01*
X383283D01*
Y841256D01*
X381388D01*
X381201Y841293D01*
Y842232D01*
X383283D01*
Y843201D01*
X381201D01*
Y844140D01*
X381388Y844177D01*
X383283D01*
Y844177D01*
Y844674D01*
X383887Y845278D01*
X384672Y846063D01*
X387428Y848819D01*
X416142Y848819D01*
X418504Y846457D01*
D02*
G37*
G36*
X335039Y831496D02*
X335039Y816142D01*
X333071Y814173D01*
X330232D01*
Y815287D01*
X326575D01*
X322917D01*
Y814173D01*
X320705D01*
Y815327D01*
X317047D01*
X313390D01*
Y814173D01*
X296063D01*
X295347Y814890D01*
X295294Y814968D01*
X295276Y815061D01*
Y815634D01*
X297925D01*
Y819291D01*
Y822949D01*
X295276D01*
Y825083D01*
X297925D01*
Y828740D01*
Y832398D01*
X297224D01*
X297033Y832860D01*
X297638Y833465D01*
X333071D01*
X335039Y831496D01*
D02*
G37*
G36*
X378346Y833268D02*
Y832398D01*
X375697D01*
Y828740D01*
Y825083D01*
X377721D01*
Y822949D01*
X375697D01*
Y819291D01*
Y815634D01*
X377721D01*
Y814961D01*
X377798Y814570D01*
X378019Y814240D01*
X378346Y813912D01*
Y813878D01*
X377318Y812850D01*
X368646D01*
X366634Y814862D01*
Y831988D01*
X368898Y834252D01*
X377362D01*
X378346Y833268D01*
D02*
G37*
G36*
X295276Y833268D02*
Y832398D01*
X292626D01*
Y828740D01*
Y825083D01*
X294256D01*
Y822949D01*
X292626D01*
Y819291D01*
Y815634D01*
X294256D01*
Y814961D01*
X294334Y814570D01*
X294555Y814240D01*
X295096Y813698D01*
X293406Y812008D01*
X286417D01*
X283563Y814862D01*
Y831988D01*
X285477Y833902D01*
X294641D01*
X295276Y833268D01*
D02*
G37*
G36*
X418504Y831102D02*
Y810335D01*
X416142Y807972D01*
X414878D01*
Y809539D01*
X411221D01*
X407563D01*
Y807972D01*
X404405D01*
Y809579D01*
X400748D01*
X397091D01*
Y807972D01*
X385728D01*
X378811Y814890D01*
X378759Y814968D01*
X378740Y815061D01*
Y815634D01*
X380996D01*
Y819291D01*
Y822949D01*
X378740D01*
Y825083D01*
X380996D01*
Y828740D01*
Y832398D01*
X380689D01*
X380497Y832860D01*
X381102Y833465D01*
X416142D01*
X418504Y831102D01*
D02*
G37*
G36*
X561319Y773917D02*
X561319Y758661D01*
X557776Y755118D01*
X527165Y755118D01*
X527165Y777559D01*
X557677Y777559D01*
X561319Y773917D01*
D02*
G37*
%LPC*%
G36*
X548059Y869059D02*
X540276D01*
Y864622D01*
X548059D01*
Y869059D01*
D02*
G37*
G36*
X539276D02*
X531492D01*
Y864622D01*
X539276D01*
Y869059D01*
D02*
G37*
G36*
X548059Y863622D02*
X540276D01*
Y859185D01*
X548059D01*
Y863622D01*
D02*
G37*
G36*
X539276D02*
X531492D01*
Y859185D01*
X539276D01*
Y863622D01*
D02*
G37*
G36*
X374697Y867610D02*
X371835D01*
Y864453D01*
X374697D01*
Y867610D01*
D02*
G37*
G36*
X374697Y862319D02*
X371835D01*
Y859161D01*
X374697D01*
Y862319D01*
D02*
G37*
G36*
Y858161D02*
X371835D01*
Y855004D01*
X374697D01*
Y858161D01*
D02*
G37*
G36*
X291626Y867610D02*
X288764D01*
Y864453D01*
X291626D01*
Y867610D01*
D02*
G37*
G36*
X291626Y862319D02*
X288764D01*
Y859161D01*
X291626D01*
Y862319D01*
D02*
G37*
G36*
Y858161D02*
X288764D01*
Y855004D01*
X291626D01*
Y858161D01*
D02*
G37*
G36*
X299130Y877673D02*
X297449D01*
Y876091D01*
X299130D01*
Y877673D01*
D02*
G37*
G36*
Y875091D02*
X297449D01*
Y873508D01*
X299130D01*
Y875091D01*
D02*
G37*
G36*
X301787Y871768D02*
X298925D01*
Y868610D01*
X301787D01*
Y871768D01*
D02*
G37*
G36*
Y867610D02*
X298925D01*
Y864453D01*
X301787D01*
Y867610D01*
D02*
G37*
G36*
X301787Y862319D02*
X298925D01*
Y859161D01*
X301787D01*
Y862319D01*
D02*
G37*
G36*
Y858161D02*
X298925D01*
Y855004D01*
X301787D01*
Y858161D01*
D02*
G37*
G36*
X300213Y849130D02*
X298630D01*
Y848138D01*
X300213D01*
Y849130D01*
D02*
G37*
G36*
X382201Y874697D02*
X380520D01*
Y873114D01*
X382201D01*
Y874697D01*
D02*
G37*
G36*
X384858Y871768D02*
X381996D01*
Y868610D01*
X384858D01*
Y871768D01*
D02*
G37*
G36*
Y867610D02*
X381996D01*
Y864453D01*
X384858D01*
Y867610D01*
D02*
G37*
G36*
X384858Y862319D02*
X381996D01*
Y859161D01*
X384858D01*
Y862319D01*
D02*
G37*
G36*
Y858161D02*
X381996D01*
Y855004D01*
X384858D01*
Y858161D01*
D02*
G37*
G36*
X383283Y849130D02*
X381701D01*
Y848138D01*
X383283D01*
Y849130D01*
D02*
G37*
G36*
X332142Y849347D02*
X320421D01*
Y845697D01*
X332142D01*
Y849347D01*
D02*
G37*
G36*
X319421D02*
X307701D01*
Y845697D01*
X319421D01*
Y849347D01*
D02*
G37*
G36*
X332142Y844697D02*
X320421D01*
Y841047D01*
X332142D01*
Y844697D01*
D02*
G37*
G36*
X319421D02*
X307701D01*
Y841047D01*
X319421D01*
Y844697D01*
D02*
G37*
G36*
X415370Y846866D02*
X403650D01*
Y843217D01*
X415370D01*
Y846866D01*
D02*
G37*
G36*
X402650D02*
X390929D01*
Y843217D01*
X402650D01*
Y846866D01*
D02*
G37*
G36*
X415370Y842216D02*
X403650D01*
Y838567D01*
X415370D01*
Y842216D01*
D02*
G37*
G36*
X402650D02*
X390929D01*
Y838567D01*
X402650D01*
Y842216D01*
D02*
G37*
G36*
X301787Y832398D02*
X298925D01*
Y829240D01*
X301787D01*
Y832398D01*
D02*
G37*
G36*
X332142Y830842D02*
X320421D01*
Y827193D01*
X332142D01*
Y830842D01*
D02*
G37*
G36*
X319421D02*
X307701D01*
Y827193D01*
X319421D01*
Y830842D01*
D02*
G37*
G36*
X301787Y828240D02*
X298925D01*
Y825083D01*
X301787D01*
Y828240D01*
D02*
G37*
G36*
X332142Y826193D02*
X320421D01*
Y822543D01*
X332142D01*
Y826193D01*
D02*
G37*
G36*
X319421D02*
X307701D01*
Y822543D01*
X319421D01*
Y826193D01*
D02*
G37*
G36*
X301787Y822949D02*
X298925D01*
Y819791D01*
X301787D01*
Y822949D01*
D02*
G37*
G36*
X320705Y819189D02*
X317547D01*
Y816327D01*
X320705D01*
Y819189D01*
D02*
G37*
G36*
X316547D02*
X313390D01*
Y816327D01*
X316547D01*
Y819189D01*
D02*
G37*
G36*
X330232Y819150D02*
X327075D01*
Y816287D01*
X330232D01*
Y819150D01*
D02*
G37*
G36*
X326075D02*
X322917D01*
Y816287D01*
X326075D01*
Y819150D01*
D02*
G37*
G36*
X301787Y818791D02*
X298925D01*
Y815634D01*
X301787D01*
Y818791D01*
D02*
G37*
G36*
X374697Y832398D02*
X371835D01*
Y829240D01*
X374697D01*
Y832398D01*
D02*
G37*
G36*
Y828240D02*
X371835D01*
Y825083D01*
X374697D01*
Y828240D01*
D02*
G37*
G36*
X374697Y822949D02*
X371835D01*
Y819791D01*
X374697D01*
Y822949D01*
D02*
G37*
G36*
Y818791D02*
X371835D01*
Y815634D01*
X374697D01*
Y818791D01*
D02*
G37*
G36*
X291626Y832398D02*
X288764D01*
Y829240D01*
X291626D01*
Y832398D01*
D02*
G37*
G36*
Y828240D02*
X288764D01*
Y825083D01*
X291626D01*
Y828240D01*
D02*
G37*
G36*
X291626Y822949D02*
X288764D01*
Y819791D01*
X291626D01*
Y822949D01*
D02*
G37*
G36*
Y818791D02*
X288764D01*
Y815634D01*
X291626D01*
Y818791D01*
D02*
G37*
G36*
X384858Y832398D02*
X381996D01*
Y829240D01*
X384858D01*
Y832398D01*
D02*
G37*
G36*
Y828240D02*
X381996D01*
Y825083D01*
X384858D01*
Y828240D01*
D02*
G37*
G36*
X415370Y828362D02*
X403650D01*
Y824713D01*
X415370D01*
Y828362D01*
D02*
G37*
G36*
X402650D02*
X390929D01*
Y824713D01*
X402650D01*
Y828362D01*
D02*
G37*
G36*
X415370Y823713D02*
X403650D01*
Y820063D01*
X415370D01*
Y823713D01*
D02*
G37*
G36*
X402650D02*
X390929D01*
Y820063D01*
X402650D01*
Y823713D01*
D02*
G37*
G36*
X384858Y822949D02*
X381996D01*
Y819791D01*
X384858D01*
Y822949D01*
D02*
G37*
G36*
Y818791D02*
X381996D01*
Y815634D01*
X384858D01*
Y818791D01*
D02*
G37*
G36*
X404405Y813441D02*
X401248D01*
Y810579D01*
X404405D01*
Y813441D01*
D02*
G37*
G36*
X400248D02*
X397091D01*
Y810579D01*
X400248D01*
Y813441D01*
D02*
G37*
G36*
X414878Y813402D02*
X411721D01*
Y810539D01*
X414878D01*
Y813402D01*
D02*
G37*
G36*
X410720D02*
X407563D01*
Y810539D01*
X410720D01*
Y813402D01*
D02*
G37*
G36*
X547949Y769051D02*
X539280D01*
Y766484D01*
X547949D01*
Y769051D01*
D02*
G37*
G36*
X538279D02*
X529610D01*
Y766484D01*
X538279D01*
Y769051D01*
D02*
G37*
G36*
X547949Y765484D02*
X539280D01*
Y762917D01*
X547949D01*
Y765484D01*
D02*
G37*
G36*
X538279D02*
X529610D01*
Y762917D01*
X538279D01*
Y765484D01*
D02*
G37*
%LPD*%
D11*
X295079Y577854D02*
X317913D01*
Y579429D02*
Y584547D01*
X298268Y570217D02*
Y573622D01*
X300492Y590551D02*
X306594D01*
X298268Y588327D02*
X300492Y590551D01*
X298268Y581890D02*
Y588327D01*
D12*
X482185Y705315D02*
X482539Y705669D01*
X442953Y677480D02*
X452362D01*
X441732Y676260D02*
X442953Y677480D01*
X294213Y538071D02*
X295039D01*
X293504Y538779D02*
X294213Y538071D01*
X289764Y538779D02*
X293504D01*
X378445Y589961D02*
X380512D01*
X249803Y504232D02*
X266929D01*
X246260Y507776D02*
X249803Y504232D01*
X246260Y507776D02*
Y524803D01*
X253740Y532283D01*
X254724D01*
X279528Y509350D02*
Y511922D01*
X281190Y513584D02*
Y513802D01*
X279528Y511922D02*
X281190Y513584D01*
X305020Y506398D02*
Y510630D01*
X269291Y506595D02*
Y509350D01*
X266929Y504232D02*
X269291Y506595D01*
X485433Y717264D02*
X489461D01*
X435145Y723622D02*
X439173D01*
X435138Y723630D02*
X435145Y723622D01*
X416831Y723760D02*
Y726968D01*
X505905Y536811D02*
Y539468D01*
X487008Y535335D02*
X504429D01*
X505905Y536811D01*
X305512Y602520D02*
X305551Y602559D01*
X310236D01*
X268602Y612992D02*
X273425D01*
X380512Y589961D02*
X380610D01*
X381653Y585433D02*
Y588917D01*
X380610Y589961D02*
X381653Y588917D01*
Y591102D02*
Y594095D01*
X380512Y589961D02*
X381653Y591102D01*
X315748Y506693D02*
Y510630D01*
X499409Y823524D02*
X499508Y823622D01*
X492815Y823524D02*
X499409D01*
X454134Y823524D02*
X454232Y823622D01*
X482539Y705669D02*
X486614D01*
D13*
X484685Y616142D02*
X488425D01*
X483504Y617323D02*
X484685Y616142D01*
X483504Y617323D02*
Y620064D01*
X480753Y622815D02*
X483504Y620064D01*
X481693Y615077D02*
Y619331D01*
Y615077D02*
X482282Y614487D01*
X480177Y620847D02*
X481693Y619331D01*
X477224Y622815D02*
X480753D01*
X477224Y620847D02*
X480177D01*
X563957Y547618D02*
X569173Y552835D01*
X525689Y539468D02*
X525886Y539272D01*
X544272Y547618D02*
X563957D01*
X536122Y539468D02*
X544272Y547618D01*
X525886Y539468D02*
X536122D01*
X432012Y700122D02*
X435658D01*
X428189Y696299D02*
X432012Y700122D01*
X405924Y696299D02*
X428189D01*
X355000Y687953D02*
X379213D01*
X387012Y695752D01*
X405376D01*
X405924Y696299D01*
X435658Y700122D02*
X436292Y699488D01*
X441535D01*
X435650Y696339D02*
X501083D01*
X434547Y697441D02*
X435650Y696339D01*
X445827Y660118D02*
Y667323D01*
X353504Y686457D02*
X355000Y687953D01*
X353504Y683150D02*
Y686457D01*
X351929Y681575D02*
X353504Y683150D01*
X333819Y681575D02*
X351929D01*
X328976Y676732D02*
X333819Y681575D01*
X312598Y676732D02*
X328976D01*
X311614Y677716D02*
X312598Y676732D01*
X289449Y677716D02*
X311614D01*
X256594Y627559D02*
X286614D01*
X281260Y767362D02*
X284764Y770866D01*
X328819D01*
X288539Y768028D02*
X332437D01*
X332598Y768189D01*
X508300Y774559D02*
X511417Y771442D01*
Y765256D02*
Y771442D01*
X434920Y665769D02*
Y666140D01*
Y665769D02*
X435984Y664705D01*
X401516Y563878D02*
Y566870D01*
X344370Y809882D02*
X353142Y801110D01*
X335748Y809882D02*
X344370D01*
X339606Y806850D02*
X339685Y806929D01*
X344370D01*
X340138Y794075D02*
X342284Y796220D01*
X353142Y801110D02*
X364033D01*
X344370Y806929D02*
X351988Y799311D01*
X251260Y820551D02*
Y823445D01*
X367421Y674272D02*
X370787D01*
X378445Y677618D02*
X381811D01*
X324528Y642283D02*
Y645650D01*
X573091Y633287D02*
X576457D01*
X582323Y626988D02*
X585689D01*
X576496Y613189D02*
Y616555D01*
X342961Y557697D02*
X346063D01*
X285984Y765472D02*
X288539Y768028D01*
X351988Y799311D02*
X363287D01*
X389941Y624783D02*
X392776D01*
X387244Y627480D02*
X389941Y624783D01*
X382402Y627480D02*
X387244D01*
X381653Y624803D02*
Y626732D01*
X382402Y627480D01*
X388701Y582126D02*
X390020Y583445D01*
X381673Y599193D02*
X392776D01*
X384469Y597224D02*
X392776D01*
X381653Y594410D02*
X384469Y597224D01*
X385543Y601965D02*
X387764D01*
X383972Y603535D02*
X385543Y601965D01*
X383972Y603535D02*
Y603823D01*
X383465Y604331D02*
X383972Y603823D01*
X381653Y604331D02*
X383465D01*
X388929Y603130D02*
X392776D01*
X387764Y601965D02*
X388929Y603130D01*
X381653Y594095D02*
Y594410D01*
X520393Y650867D02*
X522539Y648721D01*
X523109Y660454D02*
X524606Y658957D01*
X520393Y650867D02*
Y653070D01*
X523109Y660454D02*
Y662676D01*
X230650Y794075D02*
X340138D01*
X229685Y795039D02*
X230650Y794075D01*
X347284Y721496D02*
X347342Y721555D01*
X347244Y721457D02*
X347284Y721496D01*
X347342Y721555D02*
X357087D01*
X346161Y577067D02*
X395472D01*
X345276Y577953D02*
X346161Y577067D01*
X390020Y583445D02*
X392776D01*
X401516Y566870D02*
X403150Y568504D01*
X364033Y801110D02*
X369910Y795233D01*
Y784111D02*
Y795233D01*
Y784111D02*
X379682Y774339D01*
X501467D01*
X368110Y783366D02*
Y794488D01*
Y783366D02*
X378937Y772539D01*
X501467Y774339D02*
X501687Y774559D01*
X508300D01*
X513386Y746555D02*
Y750591D01*
X363287Y799311D02*
X368110Y794488D01*
X378937Y772539D02*
X502212D01*
X502433Y772760D01*
X507555D01*
X509449Y770866D01*
Y765256D02*
Y770866D01*
X518209Y746555D02*
Y750591D01*
X513386D02*
Y754134D01*
X511417Y765256D02*
X513976D01*
X518209Y750591D02*
Y754134D01*
X533071Y648721D02*
X533169Y648819D01*
X522539Y648721D02*
X533071D01*
X533032Y658957D02*
X533169Y658819D01*
X524606Y658957D02*
X533032D01*
X509154Y589075D02*
X519882D01*
X502559Y582480D02*
X509154Y589075D01*
X484842Y582480D02*
X502559D01*
X499311Y712205D02*
X501555D01*
X495669Y708563D02*
X499311Y712205D01*
X442815Y708563D02*
X495669D01*
X516791Y547185D02*
X517028Y546949D01*
X525827Y545866D02*
X525886Y545807D01*
Y539468D02*
Y545807D01*
X456201Y581791D02*
X457638Y580354D01*
Y575669D02*
Y580354D01*
X516634Y547047D02*
X516732Y546949D01*
X512598Y547047D02*
X516634D01*
X508465Y542913D02*
X512598Y547047D01*
X499606Y542913D02*
X508465D01*
X516791Y547185D02*
Y558366D01*
X517028Y539468D02*
X525689D01*
X552165Y585236D02*
X555020Y588091D01*
X509449Y585236D02*
X552165D01*
X504331Y580118D02*
X509449Y585236D01*
X506496Y577854D02*
X511555Y582913D01*
X549508Y580905D02*
X557500Y572913D01*
X513583Y580905D02*
X549508D01*
X508268Y575591D02*
X513583Y580905D01*
X485728Y580118D02*
X504331D01*
X487205Y577854D02*
X506496D01*
X488189Y575591D02*
X508268D01*
X510433Y573721D02*
X514764Y578051D01*
X499803Y573721D02*
X510433D01*
X514764Y578051D02*
X523228D01*
X563917Y588091D02*
X569095Y582913D01*
X555020Y588091D02*
X563917D01*
X519882Y589075D02*
X520177Y588779D01*
X483957Y574606D02*
X487205Y577854D01*
X477756Y553839D02*
X478814Y554897D01*
X502165Y569783D02*
X551279D01*
X489764Y557382D02*
X502165Y569783D01*
X484744Y557382D02*
X489764D01*
X551279Y569783D02*
X558150Y562913D01*
X487795Y561713D02*
X499803Y573721D01*
X549508Y571752D02*
X551673Y573917D01*
X500984Y571752D02*
X549508D01*
X488878Y559646D02*
X500984Y571752D01*
X482087Y576476D02*
X485728Y580118D01*
X484350Y571752D02*
X488189Y575591D01*
X473032Y576476D02*
X482087D01*
X472224Y575669D02*
X473032Y576476D01*
X469449Y575669D02*
X472224D01*
X483366Y581004D02*
X484842Y582480D01*
X481004Y581004D02*
X483366D01*
X474902Y574606D02*
X483957D01*
X470866Y570571D02*
X474902Y574606D01*
X478543Y571752D02*
X484350D01*
X481791Y559646D02*
X488878D01*
X479724Y557579D02*
X481791Y559646D01*
X479823Y561713D02*
X487795D01*
X479232Y561122D02*
X479823Y561713D01*
X478346Y578346D02*
X481004Y581004D01*
X472441Y578346D02*
X478346D01*
X465748Y585039D02*
X472441Y578346D01*
X480532Y593287D02*
X483563Y590256D01*
X485827D01*
X487697Y588386D01*
X469291Y570571D02*
X470866D01*
X467480Y572382D02*
X469291Y570571D01*
X478937Y557579D02*
X479724D01*
X477756Y553839D02*
Y554232D01*
X482259Y554897D02*
X484744Y557382D01*
X478814Y554897D02*
X482259D01*
X558150Y562913D02*
X559094D01*
X557500Y572913D02*
X559094D01*
X511555Y582913D02*
X559094D01*
X297441Y609646D02*
X301279D01*
X273425D02*
X280118D01*
X381653Y642520D02*
X383228Y644095D01*
X387008D01*
X288583Y874409D02*
X292421D01*
X293602Y875591D01*
X501555Y712205D02*
X501575Y712224D01*
X435984Y660118D02*
Y664705D01*
X437953Y665020D02*
X438681Y665748D01*
X437953Y660118D02*
Y665020D01*
X467480Y572382D02*
Y575669D01*
X408661Y587402D02*
X468110D01*
X409449Y585039D02*
X465748D01*
X465354Y563937D02*
Y567224D01*
X463681Y568898D02*
X465354Y567224D01*
X483366Y593012D02*
X488524D01*
X481890Y594488D02*
X483366Y593012D01*
X481890Y594488D02*
Y598425D01*
X481122Y599193D02*
X481890Y598425D01*
X441890Y575669D02*
Y581339D01*
X415846Y568504D02*
X418268Y570925D01*
X403150Y568504D02*
X415846D01*
X509449Y760630D02*
Y765256D01*
X404488Y583228D02*
X408661Y587402D01*
X404488Y575669D02*
Y583228D01*
X406457Y575669D02*
Y582047D01*
X409449Y585039D01*
X441732Y669291D02*
Y672795D01*
X441890Y655118D02*
Y660118D01*
X414331Y655079D02*
Y660118D01*
X418268Y570925D02*
Y575669D01*
X458268Y568898D02*
X463681D01*
X455669Y571496D02*
X458268Y568898D01*
X455669Y571496D02*
Y575669D01*
X388602Y642500D02*
X392776D01*
X387008Y644095D02*
X388602Y642500D01*
X293307Y577854D02*
X295079D01*
X292717Y578445D02*
X293307Y577854D01*
X290945Y578445D02*
X292717D01*
X485728Y651181D02*
X488425D01*
X480984Y646437D02*
X485728Y651181D01*
X477224Y646437D02*
X480984D01*
X488327Y608366D02*
X488425Y608268D01*
X483661Y608366D02*
X488327D01*
X482362Y607067D02*
X483661Y608366D01*
X477224Y607067D02*
X482362D01*
X483563Y603543D02*
X488425D01*
X482008Y605098D02*
X483563Y603543D01*
X477224Y605098D02*
X482008D01*
X477224Y599193D02*
X481122D01*
X477224Y593287D02*
X480532D01*
X381653Y585433D02*
X381673Y585413D01*
X392776D01*
X381653Y599213D02*
X381673Y599193D01*
X381673Y630689D02*
X392776D01*
X372047Y875197D02*
X376673D01*
X364567Y853937D02*
Y859055D01*
Y853937D02*
X368406Y850098D01*
Y847638D02*
Y850098D01*
X365748Y839764D02*
X368406D01*
X362205Y836220D02*
X365748Y839764D01*
X360000Y836220D02*
X362205D01*
X359842Y836378D02*
X360000Y836220D01*
X350394Y851476D02*
X350453Y851417D01*
X355118D01*
X355177Y851476D01*
X359842D01*
X363090D01*
X364173Y850394D01*
Y848425D02*
Y850394D01*
Y848425D02*
X366929Y845669D01*
X368406D01*
X359606Y846457D02*
X362598D01*
X365354Y843701D01*
X368406D01*
X285335Y847638D02*
Y850098D01*
X281102Y854331D02*
X285335Y850098D01*
X281102Y854331D02*
Y857480D01*
X280709Y836220D02*
Y838189D01*
X278898Y834410D02*
X280709Y836220D01*
X276772Y834410D02*
X278898D01*
X280709Y838189D02*
X282283Y839764D01*
X285335D01*
X381201Y845669D02*
Y847638D01*
X298130Y845669D02*
Y847638D01*
X279528Y847638D02*
X281496Y845669D01*
X279528Y847638D02*
Y848819D01*
X281496Y845669D02*
X285335D01*
X267323Y849902D02*
X267382Y849842D01*
X272047D01*
X272106Y849902D01*
X276772D01*
X278445D01*
X279528Y848819D01*
X276535Y844488D02*
X279528D01*
X280315Y843701D01*
X285335D01*
X438681Y710728D02*
X440650D01*
X442815Y708563D01*
X392776Y626752D02*
X397913D01*
X399016Y627854D01*
X398150Y628721D02*
X399016Y627854D01*
X392776Y628721D02*
X398150D01*
X392776Y640531D02*
X399095D01*
X376575Y839764D02*
X381201D01*
X374705Y841634D02*
X376575Y839764D01*
X374705Y841634D02*
Y843701D01*
X373819Y844587D02*
X374705Y843701D01*
X293996Y839764D02*
X298130D01*
X291634Y842126D02*
X293996Y839764D01*
X291634Y842126D02*
Y843701D01*
X518898Y786378D02*
Y790158D01*
X509449Y787598D02*
X510532Y788681D01*
X509449Y782776D02*
Y787598D01*
X411417Y651575D02*
Y656988D01*
X412362Y657933D02*
Y660118D01*
X437795Y581496D02*
Y582283D01*
Y581496D02*
X439921Y579370D01*
X420236Y575669D02*
Y582126D01*
X392776Y595256D02*
X398327D01*
X392776Y601161D02*
X398327D01*
X471673Y603130D02*
X477224D01*
X439921Y575669D02*
Y579370D01*
X452756Y580709D02*
X453701Y579764D01*
Y575669D02*
Y579764D01*
X451732Y579685D02*
X452756Y580709D01*
X451732Y575669D02*
Y579685D01*
X471260Y596457D02*
X472461Y595256D01*
X477224D01*
X471260Y596457D02*
X472027Y597224D01*
X477224D01*
X410394Y658012D02*
Y660118D01*
Y658012D02*
X411417Y656988D01*
X412362Y657933D01*
X408425Y653602D02*
Y660118D01*
X408366Y653543D02*
X408425Y653602D01*
X477224Y609035D02*
X481280D01*
X483366Y611122D01*
X468110Y587402D02*
X470866Y584646D01*
X400098Y581693D02*
X401575D01*
X395472Y577067D02*
X400098Y581693D01*
D16*
X275242Y522626D02*
G03*
X274410Y521654I152J-972D01*
G01*
X276378D02*
G03*
X275406Y522626I-972J0D01*
G01*
X286713Y515945D02*
G03*
X288287Y514370I1575J0D01*
G01*
X292323Y512402D02*
G03*
X290354Y514370I-1969J0D01*
G01*
X291142Y504134D02*
G03*
X292323Y505315I0J1181D01*
G01*
X271850Y505610D02*
G03*
X273327Y504134I1476J0D01*
G01*
X279921Y518307D02*
G03*
X280906Y517323I984J0D01*
G01*
X283268D02*
G03*
X284252Y518307I0J984D01*
G01*
Y522736D02*
G03*
X284154Y522835I-98J0D01*
G01*
X279921Y520472D02*
G03*
X279035Y521358I-886J0D01*
G01*
X278937D02*
G03*
X278051Y520472I0J-886D01*
G01*
X276378Y513976D02*
G03*
X277264Y513091I886J0D01*
G01*
D02*
G03*
X278051Y513878I0J787D01*
G01*
X525107Y739862D02*
X527568Y737402D01*
X483705Y739862D02*
X525107D01*
X479536Y744031D02*
X483705Y739862D01*
X576240Y629724D02*
X588189D01*
X525764Y741449D02*
X528225Y738988D01*
X484362Y741449D02*
X525764D01*
X528225Y738988D02*
X584449D01*
X526421Y743035D02*
X528882Y740575D01*
X485019Y743035D02*
X526421D01*
X528882Y740575D02*
X583587D01*
X482709Y745345D02*
X485019Y743035D01*
X550709Y619685D02*
X596654D01*
X554173Y643740D02*
X559094Y638819D01*
X541240Y643740D02*
X554173D01*
X572638Y653031D02*
X576988D01*
X576240Y629724D02*
X576457Y629941D01*
X569913Y623398D02*
X576240Y629724D01*
X553807Y623398D02*
X569913D01*
X549409Y627795D02*
X553807Y623398D01*
X509154Y627795D02*
X549409D01*
X507508Y624815D02*
X548925D01*
X573095Y621811D02*
X574925Y623642D01*
X551929Y621811D02*
X573095D01*
X548925Y624815D02*
X551929Y621811D01*
X548032Y622362D02*
X550709Y619685D01*
X506339Y622362D02*
X548032D01*
X497304Y618110D02*
X498052Y617362D01*
X531142D02*
X531417Y617087D01*
X498052Y617362D02*
X531142D01*
X505772Y622929D02*
X506339Y622362D01*
X582323Y623642D02*
X585984D01*
X574925D02*
X582323D01*
X503954Y628369D02*
X507508Y624815D01*
X587815Y625472D02*
X590374D01*
X585984Y623642D02*
X587815Y625472D01*
X590374D02*
X591929Y623917D01*
X501870Y635079D02*
X509154Y627795D01*
X494394Y622929D02*
X505772D01*
X497554Y628369D02*
X503954D01*
X486654Y618110D02*
X497304D01*
X485512Y619252D02*
X486654Y618110D01*
X485512Y619252D02*
Y621102D01*
X481831Y624783D02*
X485512Y621102D01*
X477224Y624783D02*
X481831D01*
X411378Y699016D02*
X411811Y699449D01*
X493701Y623622D02*
X494394Y622929D01*
X497282Y628642D02*
X497554Y628369D01*
X489390Y628642D02*
X497282D01*
X498350Y633547D02*
X499882Y635079D01*
X495685Y633547D02*
X498350D01*
X499882Y635079D02*
X501870D01*
X495669Y633563D02*
X495685Y633547D01*
X495866Y638779D02*
X500492D01*
X495669Y638583D02*
X495866Y638779D01*
X489173Y638583D02*
X495669D01*
X489598Y622760D02*
X490460Y623622D01*
X489598Y622302D02*
Y622760D01*
X488425Y621129D02*
X489598Y622302D01*
X490460Y623622D02*
X493701D01*
X482776Y626778D02*
X488425Y621129D01*
X482776Y626778D02*
Y627165D01*
X482500Y630689D02*
X484488Y628701D01*
X485840D01*
X488425Y626116D01*
X477224Y630689D02*
X482500D01*
X488425Y627677D02*
X489390Y628642D01*
X488425Y626116D02*
Y627677D01*
X335630Y580315D02*
X336024Y580709D01*
X329921Y580315D02*
X335630D01*
X336024Y580709D02*
X346161D01*
X255044Y649434D02*
X326029D01*
X456855Y680744D02*
X461339Y676260D01*
X440881Y680744D02*
X456855D01*
X437708Y677570D02*
X440881Y680744D01*
X458150Y682441D02*
X462736Y677854D01*
X440315Y682441D02*
X458150D01*
X437031Y679157D02*
X440315Y682441D01*
X458740Y684449D02*
X463268Y679921D01*
X440059Y684449D02*
X458740D01*
X436354Y680744D02*
X440059Y684449D01*
X461339Y676260D02*
X493720D01*
X462736Y677854D02*
X496260D01*
X463268Y679921D02*
X497539D01*
X400591Y678740D02*
X405315Y683465D01*
X385728Y678740D02*
X400591D01*
X401279Y683957D02*
X402658D01*
X422676D02*
X431358D01*
X423645Y680744D02*
X436354D01*
X422988Y679157D02*
X437031D01*
X422331Y677570D02*
X437708D01*
X323799Y657008D02*
X332716Y665926D01*
Y665984D01*
X332362Y670039D02*
X333622D01*
X328610Y666287D02*
X332362Y670039D01*
X224594Y666287D02*
X328610D01*
X281752Y673819D02*
X282618Y674685D01*
X334173D01*
X330039Y752991D02*
X332220Y755172D01*
X349061D01*
X334140Y753063D02*
X348925D01*
X337146Y751476D02*
X348268D01*
X334449Y748779D02*
X337146Y751476D01*
X349061Y755172D02*
X352972Y751260D01*
X329410Y628898D02*
X334173D01*
X327402Y626890D02*
X329410Y628898D01*
X295158Y626890D02*
X327402D01*
X335827Y655217D02*
X336417Y654626D01*
X294094Y627953D02*
X295158Y626890D01*
X437205Y654134D02*
X439921Y656850D01*
X446949Y655217D02*
X450492D01*
X443228Y651496D02*
X446949Y655217D01*
X433150Y651496D02*
X443228D01*
X432047Y652598D02*
X433150Y651496D01*
X503937Y758405D02*
Y758759D01*
X432169Y665217D02*
X434016Y663370D01*
X432169Y665217D02*
Y666138D01*
X430602Y667705D02*
X432169Y666138D01*
X429764Y667705D02*
X430602D01*
X430079Y660118D02*
Y663386D01*
X426496Y666968D02*
X430079Y663386D01*
X352382Y666968D02*
X426496D01*
X434016Y660118D02*
Y663370D01*
X418740Y754213D02*
X419410Y754882D01*
X503937Y758405D02*
X504173D01*
X501398D02*
X503937D01*
X419410Y754882D02*
X497874D01*
X482709Y745345D02*
Y745775D01*
X477224Y751260D02*
X482709Y745775D01*
X481122Y744688D02*
X484362Y741449D01*
X481122Y744688D02*
Y745118D01*
X476634Y749606D02*
X481122Y745118D01*
X479536Y744031D02*
Y744461D01*
X475977Y748020D02*
X479536Y744461D01*
X497874Y754882D02*
X501398Y758405D01*
X340118Y800787D02*
X340709Y801378D01*
X291024Y800787D02*
X340118D01*
X284252Y807559D02*
X291024Y800787D01*
X283622Y805039D02*
X290591Y798071D01*
X336929D01*
X251063Y807559D02*
X284252D01*
X240768Y823327D02*
X245787D01*
X239055Y825039D02*
X240768Y823327D01*
X229685Y825039D02*
X239055D01*
X245787Y826673D02*
X245905Y826791D01*
X251260D01*
X253563D01*
X269291Y811063D01*
X359016Y672638D02*
X363996Y677618D01*
X370787D01*
X383819Y680650D02*
X385728Y678740D01*
X370787Y677618D02*
X373819Y680650D01*
X383819D01*
X344419Y670915D02*
X372648D01*
X376004Y674272D01*
X378445D01*
X384508D02*
X387106Y676870D01*
X378445Y674272D02*
X384508D01*
X343071Y672638D02*
X359016D01*
X324272Y653839D02*
X343071Y672638D01*
X340531Y563917D02*
X351024D01*
X346063Y560748D02*
X382362D01*
X338779Y565669D02*
X340531Y563917D01*
X355689Y554410D02*
X359957Y558677D01*
X340945Y554410D02*
X355689D01*
X331480Y563874D02*
X340945Y554410D01*
X366167Y557238D02*
X366167D01*
X365716Y557689D02*
X366167Y557238D01*
X366167D02*
X366394Y557465D01*
X363078Y557689D02*
X365716D01*
X362090Y558677D02*
X363078Y557689D01*
X359957Y558677D02*
X362090D01*
X319209Y563874D02*
X331480D01*
X219528Y591221D02*
X224461Y596153D01*
X215905Y566339D02*
X254193D01*
X207244Y575000D02*
X215905Y566339D01*
X207244Y575000D02*
Y617480D01*
X210984Y621220D01*
X219528D01*
Y622992D01*
X254193Y566339D02*
X258028Y570173D01*
X258154D01*
X277142D01*
X226468Y606153D02*
X236075D01*
X224461Y604146D02*
X226468Y606153D01*
X224461Y596153D02*
Y604146D01*
X236075Y606153D02*
X237677Y607756D01*
X243347D01*
X224528Y607756D02*
Y613622D01*
X219528Y602756D02*
X224528Y607756D01*
X219528Y601221D02*
Y602756D01*
X224461Y617846D02*
Y624421D01*
X219528Y612913D02*
X224461Y617846D01*
X219528Y611221D02*
Y612913D01*
X224528Y613622D02*
X227193Y616287D01*
X239910D01*
X240472Y616850D01*
X235219Y623600D02*
X237854D01*
X226193Y626154D02*
X232665D01*
X224461Y624421D02*
X226193Y626154D01*
X232665D02*
X235219Y623600D01*
X240000Y714921D02*
Y727953D01*
X224752Y739972D02*
X238689D01*
X239291Y739370D01*
X252650Y721012D02*
X301803D01*
X236024Y730834D02*
X241425D01*
X244252Y733661D01*
X248150D01*
X249705Y732106D01*
Y723957D02*
Y732106D01*
Y723957D02*
X252650Y721012D01*
X385496Y557465D02*
X385512Y557480D01*
X366394Y557465D02*
X385496D01*
X385177Y545354D02*
X387441D01*
X376055Y536232D02*
X385177Y545354D01*
X337469Y536232D02*
X376055D01*
X387441Y545354D02*
X389622Y543173D01*
Y534701D02*
Y543173D01*
X389409Y534488D02*
X389622Y534701D01*
X385886Y542087D02*
X387047D01*
X378445Y534646D02*
X385886Y542087D01*
X242913Y536043D02*
Y538898D01*
X241811Y540000D02*
X242913Y538898D01*
X241811Y540000D02*
Y540827D01*
X374232Y539291D02*
X377165Y542224D01*
X364488Y539291D02*
X374232D01*
X331870Y541831D02*
X337469Y536232D01*
X336142Y534646D02*
X378445D01*
X330728Y540059D02*
X336142Y534646D01*
X302854Y541831D02*
X331870D01*
X298327Y540059D02*
X330728D01*
X301614Y543071D02*
X302854Y541831D01*
X278110Y543071D02*
X301614D01*
X297559Y540827D02*
X298327Y540059D01*
X285000Y540827D02*
X297559D01*
X284154Y539980D02*
X285000Y540827D01*
X284154Y539173D02*
Y539980D01*
X251732Y561887D02*
X252483D01*
X247399D02*
X251732D01*
X252483D02*
X258898Y555472D01*
X240000Y554488D02*
X247399Y561887D01*
X239055Y556850D02*
X246667Y564462D01*
X254593D01*
X255276Y563779D01*
X275098Y561697D02*
X277661Y559134D01*
X318386D01*
X215158Y556850D02*
X239055D01*
X212052Y709090D02*
X249701D01*
X208673Y712468D02*
X212052Y709090D01*
X208673Y712468D02*
Y784165D01*
X213575Y710677D02*
X248944D01*
X210260Y713992D02*
X213575Y710677D01*
X210260Y713992D02*
Y775752D01*
X215099Y712263D02*
X248287D01*
X211929Y715433D02*
X215099Y712263D01*
X211929Y715433D02*
Y767421D01*
X207087Y711181D02*
X210765Y707504D01*
X207087Y711181D02*
Y792579D01*
X210765Y707504D02*
X250358D01*
X239489Y657008D02*
X323799D01*
X238768Y656287D02*
X239489Y657008D01*
X224594Y656287D02*
X238768D01*
X219528Y651221D02*
X224594Y656287D01*
X219528Y661221D02*
X224594Y666287D01*
X236142Y673819D02*
X281752D01*
X233807Y676154D02*
X236142Y673819D01*
X224461Y676154D02*
X233807D01*
X219528Y671220D02*
X224461Y676154D01*
X275469Y676087D02*
X279669D01*
X274481Y677075D02*
X275469Y676087D01*
X259685Y677075D02*
X274481D01*
X279669Y676087D02*
X280039Y676457D01*
X259028Y678661D02*
X276535D01*
X257508Y677142D02*
X259028Y678661D01*
X239961Y653839D02*
X324272D01*
X325103Y651600D02*
X344419Y670915D01*
X250590Y651600D02*
X325103D01*
X345492Y668898D02*
X382382D01*
X326029Y649434D02*
X345492Y668898D01*
X230787Y689567D02*
Y693858D01*
X227232Y697413D02*
X230787Y693858D01*
X220878Y697413D02*
X227232D01*
X217756Y694291D02*
X220878Y697413D01*
X217756Y682992D02*
Y694291D01*
Y682992D02*
X219528Y681220D01*
X230787Y689567D02*
X239134Y681220D01*
X231457Y679291D02*
X250894D01*
X258165Y675555D02*
X259685Y677075D01*
X254630Y675555D02*
X258165D01*
X250894Y679291D02*
X254630Y675555D01*
X229528Y681220D02*
X231457Y679291D01*
X239134Y681220D02*
X251208D01*
X255287Y677142D01*
X257508D01*
X278205Y571236D02*
X281185D01*
X277142Y570173D02*
X278205Y571236D01*
X285732Y566689D02*
X302497D01*
X281185Y571236D02*
X285732Y566689D01*
X302497D02*
X303288Y567480D01*
X308050D01*
X309113Y566417D01*
X317265D01*
X318103Y567256D01*
X333063D01*
X336004Y570197D01*
X414482D01*
X318760Y565669D02*
X338779D01*
X317867Y564776D02*
X318760Y565669D01*
X318524Y563189D02*
X319209Y563874D01*
X323606Y562220D02*
X324527Y561299D01*
X321473Y562220D02*
X323606D01*
X318386Y559134D02*
X321473Y562220D01*
X324527Y561299D02*
X329331D01*
X308511Y564776D02*
X317867D01*
X307393Y565894D02*
X308511Y564776D01*
X303946Y565894D02*
X307393D01*
X303154Y565102D02*
X303946Y565894D01*
X283677Y565102D02*
X303154D01*
X280118Y568661D02*
X283677Y565102D01*
X307854Y563189D02*
X318524D01*
X306736Y564307D02*
X307854Y563189D01*
X304603Y564307D02*
X306736D01*
X303811Y563516D02*
X304603Y564307D01*
X280358Y563516D02*
X303811D01*
X276276Y567598D02*
X280358Y563516D01*
X320177Y557283D02*
X322539Y559646D01*
X261772Y557283D02*
X320177D01*
X255276Y563779D02*
X261772Y557283D01*
X258898Y555472D02*
X298063D01*
X324224Y555622D02*
X325197Y556595D01*
X298212Y555622D02*
X324224D01*
X298063Y555472D02*
X298212Y555622D01*
X357087Y767795D02*
Y771555D01*
Y721555D02*
X357165Y721476D01*
Y717992D02*
Y721476D01*
X360512Y660787D02*
Y662520D01*
Y660787D02*
X361388Y659911D01*
X367864D01*
X369882Y661929D01*
X388425D01*
X389709Y660646D01*
X393291D01*
X393425Y660512D01*
X383980Y657799D02*
X385315Y659134D01*
X361767Y657799D02*
X383980D01*
X361759Y657807D02*
X361767Y657799D01*
X359555Y657807D02*
X361759D01*
X358189Y659173D02*
X359555Y657807D01*
X348268Y663110D02*
X353780D01*
X356051Y665382D01*
X351476Y666063D02*
X352382Y666968D01*
X356051Y665382D02*
X424776D01*
X354350Y657579D02*
X355709Y656220D01*
X361102D01*
X361110Y656213D02*
X388181D01*
X361102Y656220D02*
X361110Y656213D01*
X364488Y662638D02*
X365646Y663795D01*
X399000D01*
X388181Y656213D02*
X390039Y658071D01*
X395316Y654626D02*
X399233Y650709D01*
X336417Y654626D02*
X395316D01*
X399233Y650709D02*
X404291D01*
X405791Y652209D01*
X398435Y657372D02*
X399803Y656004D01*
X397441Y660906D02*
X398435Y659911D01*
Y657372D02*
Y659911D01*
X401890Y653307D02*
X404488Y655905D01*
Y660118D01*
X405791Y652209D02*
Y654807D01*
X406457Y655473D01*
X399000Y663795D02*
X400551Y662244D01*
X424776Y665382D02*
X426142Y664016D01*
X392776Y634626D02*
X398839D01*
X396575Y638563D02*
X397579Y637559D01*
X403443D01*
X386554Y633503D02*
X389646Y636594D01*
X386220Y633503D02*
X386554D01*
X387736Y622815D02*
X392776D01*
X386614Y588937D02*
X388996Y591319D01*
X382362Y560748D02*
X383071Y560039D01*
X385630Y594095D02*
X386437Y593287D01*
X344291Y567323D02*
X397835D01*
X387106Y618898D02*
X387835D01*
X389784Y620847D01*
X392776D01*
X338614Y614272D02*
X339223Y614880D01*
X326279Y614272D02*
X338614D01*
X386232Y615854D02*
X388583Y613504D01*
X382410Y615854D02*
X386232D01*
X381438Y614882D02*
X382410Y615854D01*
X359921Y614882D02*
X381438D01*
X350984Y623819D02*
X359921Y614882D01*
X388583Y610335D02*
Y613504D01*
X352083Y613279D02*
Y613372D01*
X386709Y612755D02*
X386713D01*
X386709D02*
Y612759D01*
X385200Y614268D02*
X386709Y612759D01*
X383067Y614268D02*
X385200D01*
X382079Y613279D02*
X383067Y614268D01*
X352083Y613279D02*
X382079D01*
X350574Y614880D02*
X352083Y613372D01*
X339223Y614880D02*
X350574D01*
X360394Y611693D02*
X384134D01*
X353819Y605118D02*
X360394Y611693D01*
X348721Y605118D02*
X353819D01*
X386713Y609842D02*
Y612755D01*
X381512Y610051D02*
X383831Y607732D01*
X361331Y610051D02*
X381512D01*
X350177Y598898D02*
X361331Y610051D01*
X383831Y607469D02*
X386653Y604646D01*
X383831Y607469D02*
Y607732D01*
X399016Y647539D02*
X400295Y648819D01*
X236575Y746496D02*
X273110D01*
X229685Y745039D02*
X235118D01*
X236575Y746496D01*
X229685Y755039D02*
X234937Y749787D01*
X276299D01*
X274095Y567598D02*
X276276D01*
X361024Y556102D02*
X365059D01*
X388996Y591319D02*
X392776D01*
X386437Y593287D02*
X392776D01*
X219685Y745039D02*
X224752Y739972D01*
X213516Y748870D02*
X219685Y755039D01*
X213516Y716720D02*
Y748870D01*
Y716720D02*
X214961Y715276D01*
X211929Y767421D02*
X219528Y775020D01*
X210260Y775752D02*
X219528Y785020D01*
X208673Y784165D02*
X219528Y795020D01*
X207087Y792579D02*
X219528Y805020D01*
X214961Y715276D02*
X236102D01*
X255449Y719425D02*
X301146D01*
X248287Y712263D02*
X255449Y719425D01*
X256106Y717839D02*
X300488D01*
X248944Y710677D02*
X256106Y717839D01*
X249701Y709090D02*
X256862Y716252D01*
X299831D01*
X257520Y714665D02*
X299174D01*
X250358Y707504D02*
X257520Y714665D01*
X235433Y546850D02*
X240000Y551417D01*
Y554488D01*
X475795Y742039D02*
X482362Y735472D01*
X383693Y742039D02*
X475795D01*
X371181Y729528D02*
X383693Y742039D01*
X384863Y740453D02*
X474841D01*
X372957Y728546D02*
X384863Y740453D01*
X474841D02*
X481534Y733760D01*
X474759Y738291D02*
X480877Y732173D01*
X384945Y738291D02*
X474759D01*
X374543Y727889D02*
X384945Y738291D01*
X474102Y736705D02*
X480220Y730587D01*
X385603Y736705D02*
X474102D01*
X376130Y727232D02*
X385603Y736705D01*
X473444Y735118D02*
X479563Y729000D01*
X386260Y735118D02*
X473444D01*
X377716Y726575D02*
X386260Y735118D01*
X351725Y748020D02*
X475977D01*
X348268Y751476D02*
X351725Y748020D01*
X352382Y749606D02*
X476634D01*
X348925Y753063D02*
X352382Y749606D01*
X352972Y751260D02*
X477224D01*
X219685Y765039D02*
X224685Y760039D01*
X235906D01*
X301803Y721012D02*
X308791Y714024D01*
X362213D01*
X371181Y722991D01*
Y729528D01*
X482362Y735472D02*
X574134D01*
X574843Y734764D01*
X576221D01*
X572461Y733760D02*
X574409Y731811D01*
X545768Y648819D02*
X559094D01*
X518661Y668543D02*
X525395D01*
X513165Y663047D02*
X518661Y668543D01*
X479484Y663047D02*
X513165D01*
X517295Y670130D02*
X526052D01*
X511799Y664634D02*
X517295Y670130D01*
X547244Y676535D02*
X550512Y673268D01*
X539921Y676535D02*
X547244D01*
X534728Y671343D02*
X539921Y676535D01*
X527083Y671343D02*
X534728D01*
X526575Y671850D02*
X527083Y671343D01*
X515394Y671850D02*
X526575D01*
X525474Y663976D02*
X553937D01*
X525651Y666043D02*
X548524D01*
X526308Y667630D02*
X543614D01*
X526426Y669756D02*
X538146D01*
X538508Y670118D01*
X525395Y668543D02*
X526308Y667630D01*
X524738Y666957D02*
X525651Y666043D01*
X524080Y665370D02*
X525474Y663976D01*
X522063Y665370D02*
X524080D01*
X520106Y666957D02*
X524738D01*
X526052Y670130D02*
X526426Y669756D01*
X509772Y666228D02*
X515394Y671850D01*
X475150Y666228D02*
X509772D01*
X538508Y670118D02*
X541240Y673425D01*
X543614Y667630D02*
X545768Y669783D01*
X548524Y666043D02*
X549803Y667323D01*
X514610Y661461D02*
X520106Y666957D01*
X516567Y659874D02*
X522063Y665370D01*
X484087Y659874D02*
X516567D01*
X473941Y667437D02*
X475150Y666228D01*
X467437Y667437D02*
X473941D01*
X467362Y667362D02*
X467437Y667437D01*
X476445Y664634D02*
X511799D01*
X473327Y661516D02*
X476445Y664634D01*
X469882Y653445D02*
X479484Y663047D01*
X481343Y661461D02*
X514610D01*
X470020Y650138D02*
X481343Y661461D01*
X479331Y655118D02*
X484087Y659874D01*
X479035Y655118D02*
X479331D01*
X472835Y661516D02*
X473327D01*
X463189Y653445D02*
X469882D01*
X475807Y667815D02*
X508366D01*
X473685Y669937D02*
X475807Y667815D01*
X508366D02*
X514468Y673917D01*
X462953Y668347D02*
X464543Y669937D01*
X473685D01*
X460532Y665945D02*
X461689Y664787D01*
X493720Y676260D02*
X495374Y674606D01*
X461689Y664787D02*
X471185D01*
X471260Y664862D01*
X469370Y617638D02*
X470098Y616909D01*
X477224D01*
X472421Y618878D02*
X477224D01*
X469764Y621535D02*
X472421Y618878D01*
X397835Y567323D02*
X397933Y567224D01*
X229685Y805039D02*
X283622D01*
X248858Y809764D02*
X251063Y807559D01*
X229685Y815039D02*
X248780D01*
X261732Y516378D02*
X263386Y518032D01*
Y520433D01*
X274410Y520472D02*
Y521654D01*
Y512087D02*
Y520472D01*
X274390Y520453D02*
X274410Y520472D01*
X267323Y520453D02*
X274390D01*
X265354Y518135D02*
Y520453D01*
X271850Y505610D02*
Y509350D01*
X265354Y518135D02*
X271850Y511639D01*
Y509350D02*
Y511639D01*
X288287Y514370D02*
X290354D01*
X286713Y515945D02*
Y522835D01*
X292323Y505315D02*
Y512402D01*
X273327Y504134D02*
X291142D01*
X375748Y553425D02*
X378661Y550512D01*
X372008Y553425D02*
X375748D01*
X371358Y552776D02*
X372008Y553425D01*
X371358Y550886D02*
Y552776D01*
X365059Y556102D02*
X369390Y551772D01*
X351689Y547653D02*
X368406D01*
X373327Y549902D02*
X377165Y546063D01*
X369390Y550886D02*
Y551772D01*
X373327Y549902D02*
Y550886D01*
X370374Y545669D02*
Y547618D01*
X377165Y542224D02*
Y546063D01*
X351476Y547441D02*
X351689Y547653D01*
X355681Y545079D02*
X369783D01*
X370374Y545669D01*
X358858Y550886D02*
X367421D01*
X342719Y612305D02*
X349508D01*
X339311Y608898D02*
X342719Y612305D01*
X280906Y517323D02*
X283268D01*
X278937Y521358D02*
X279035D01*
X284252Y518307D02*
Y522736D01*
X278051Y513878D02*
Y520472D01*
X279921Y518307D02*
Y520472D01*
X276378Y513976D02*
Y521654D01*
X275242Y522626D02*
X275406D01*
X484606Y724469D02*
X485433D01*
X483169Y723032D02*
X484606Y724469D01*
X472933Y723032D02*
X483169D01*
X560555Y725174D02*
X566563D01*
X555142Y730587D02*
X560555Y725174D01*
X480220Y730587D02*
X555142D01*
X551217Y729000D02*
X559941Y720276D01*
X479563Y729000D02*
X551217D01*
X480877Y732173D02*
X566709D01*
X567843Y731040D01*
X481534Y733760D02*
X572461D01*
X428937Y732382D02*
X430485Y730834D01*
X435138D01*
X421495Y685138D02*
X422676Y683957D01*
X403839Y685138D02*
X421495D01*
X420925Y683465D02*
X423645Y680744D01*
X405315Y683465D02*
X420925D01*
X420551Y681595D02*
X422988Y679157D01*
X406496Y681595D02*
X420551D01*
X407480Y679823D02*
X420079D01*
X422331Y677570D01*
X406161Y730965D02*
X416831D01*
X404626Y729429D02*
X406161Y730965D01*
X404626Y726673D02*
Y729429D01*
X243224Y650902D02*
X248409D01*
X243209Y650886D02*
X243224Y650902D01*
X248425Y650886D02*
X249877D01*
X248409Y650902D02*
X248425Y650886D01*
X247342Y648327D02*
X253937D01*
X255044Y649434D01*
X249877Y650886D02*
X250590Y651600D01*
X559941Y720276D02*
X564075D01*
X377716Y720433D02*
Y726575D01*
X364961Y707677D02*
X377716Y720433D01*
X306162Y707677D02*
X364961D01*
X299174Y714665D02*
X306162Y707677D01*
X376130Y721209D02*
Y727232D01*
X364185Y709264D02*
X376130Y721209D01*
X306820Y709264D02*
X364185D01*
X299831Y716252D02*
X306820Y709264D01*
X374543Y721866D02*
Y727889D01*
X363528Y710850D02*
X374543Y721866D01*
X307477Y710850D02*
X363528D01*
X300488Y717839D02*
X307477Y710850D01*
X463898Y614941D02*
X477224D01*
X462894Y615945D02*
X463898Y614941D01*
X372957Y722523D02*
Y728546D01*
X362871Y712437D02*
X372957Y722523D01*
X308134Y712437D02*
X362871D01*
X301146Y719425D02*
X308134Y712437D01*
X527568Y737402D02*
X584252D01*
X346161Y580709D02*
X348110Y578760D01*
X394114D01*
X399016Y583661D01*
X586516Y743504D02*
X596654D01*
X583587Y740575D02*
X586516Y743504D01*
X585274Y739813D02*
X591978D01*
X584449Y738988D02*
X585274Y739813D01*
X584252Y737402D02*
X587106Y734547D01*
X489075Y633563D02*
X495669D01*
X488425Y632913D02*
X489075Y633563D01*
X477224Y632657D02*
X483091D01*
X488425Y631102D02*
Y632913D01*
X488327Y631004D02*
X488425Y631102D01*
X483091Y632657D02*
X484744Y631004D01*
X488327D01*
X481220Y628721D02*
X482776Y627165D01*
X477224Y628721D02*
X481220D01*
X554646Y668819D02*
X559094D01*
X553150Y667323D02*
X554646Y668819D01*
X549803Y667323D02*
X553150D01*
X473504Y611004D02*
X477224D01*
X470177Y607677D02*
X473504Y611004D01*
X460099Y650138D02*
X470020D01*
X462697Y607677D02*
X470177D01*
X553937Y663976D02*
X559094Y658819D01*
X470650Y612972D02*
X477224D01*
X469587Y611909D02*
X470650Y612972D01*
X469587Y611811D02*
Y611909D01*
X414482Y570197D02*
X416299Y572014D01*
Y575669D01*
X503937Y758759D02*
X507480Y762303D01*
Y765256D01*
X501083Y638189D02*
X525000D01*
X500492Y638779D02*
X501083Y638189D01*
X514961Y800394D02*
Y808405D01*
X507382Y808366D02*
X514921D01*
X514961Y808405D01*
X361614Y643307D02*
X361909D01*
X365039Y646437D01*
X392776D01*
X359744Y646850D02*
X361299Y648406D01*
X392776D01*
X358445Y650374D02*
X392776D01*
X357283Y649213D02*
X358445Y650374D01*
X505709Y547146D02*
X505905Y546949D01*
X499803Y547146D02*
X505709D01*
X499114Y547835D02*
X499803Y547146D01*
X478642Y547835D02*
X499114D01*
X448622Y546260D02*
Y558465D01*
X423425Y547441D02*
Y558464D01*
X481516Y585413D02*
X482283Y584646D01*
Y583858D02*
Y584646D01*
X483760Y586319D02*
X484842D01*
X482697Y587382D02*
X483760Y586319D01*
X333583Y618307D02*
X334173Y618898D01*
X290650Y618307D02*
X333583D01*
X284744Y612402D02*
X290650Y618307D01*
X291831Y616339D02*
X315945D01*
X286713Y611221D02*
X291831Y616339D01*
X286713Y608366D02*
Y611221D01*
X284055Y605709D02*
X286713Y608366D01*
X280118Y605709D02*
X284055D01*
X315945Y616339D02*
X323386Y608898D01*
X334173D01*
X280118Y607677D02*
X283563D01*
X284744Y608858D01*
Y612402D01*
X334173Y598898D02*
X350177D01*
X400295Y648819D02*
X423622D01*
X428110Y653307D01*
Y660118D01*
X334173Y608898D02*
X339311D01*
X334173Y618898D02*
X335354Y620079D01*
X348327D01*
X386713Y609842D02*
X389488Y607067D01*
X364961Y500394D02*
Y506595D01*
X364173Y507382D02*
X364961Y506595D01*
X352658Y507382D02*
X364173D01*
X407087Y566437D02*
X410630D01*
X406496Y565846D02*
X407087Y566437D01*
X406496Y563937D02*
Y565846D01*
X485630Y597441D02*
X485630Y598819D01*
X484646Y596457D02*
X485630Y597441D01*
X459547Y566929D02*
X460236Y566240D01*
Y563543D02*
Y566240D01*
X453937Y566929D02*
X459547D01*
X382382Y668898D02*
X388583Y675098D01*
X489272Y648622D02*
X493701D01*
X488425Y646063D02*
Y647776D01*
X489272Y648622D01*
X485433Y646063D02*
X488425D01*
X484646Y642126D02*
Y645276D01*
X485433Y646063D01*
X481083Y638563D02*
X484646Y642126D01*
X477224Y638563D02*
X481083D01*
X494980Y643602D02*
X496457Y645079D01*
X489075Y643602D02*
X494980D01*
X488425Y642953D02*
X489075Y643602D01*
X488425Y641076D02*
Y642953D01*
X486745Y641076D02*
X488425D01*
X482264Y636594D02*
X486745Y641076D01*
X477224Y636594D02*
X482264D01*
X488425Y637835D02*
X489173Y638583D01*
X488425Y636089D02*
Y637835D01*
X488163Y635827D02*
X488425Y636089D01*
X483957Y635827D02*
X488163D01*
X482756Y634626D02*
X483957Y635827D01*
X477224Y634626D02*
X482756D01*
X461713Y496654D02*
X461811Y496752D01*
X451870Y496654D02*
X461713D01*
X448425Y496752D02*
X448524Y496654D01*
X386614Y496752D02*
X448425D01*
X389646Y636594D02*
X392776D01*
X463543Y580571D02*
X464862Y581890D01*
X463543Y575669D02*
Y580571D01*
X459606Y575669D02*
Y581555D01*
X470472Y563484D02*
Y566535D01*
X465512Y571496D02*
X470472Y566535D01*
X480984Y646437D02*
X481890Y645532D01*
Y641732D02*
Y645532D01*
X480689Y640531D02*
X481890Y641732D01*
X477224Y640531D02*
X480689D01*
X347047Y771260D02*
X347284Y771496D01*
X430079Y571811D02*
Y575669D01*
X426772Y568504D02*
X430079Y571811D01*
X425197Y568504D02*
X426772D01*
X424016Y567323D02*
X425197Y568504D01*
X426142Y571417D02*
Y575669D01*
X422047Y570472D02*
X425197D01*
X426142Y571417D01*
X421654Y570079D02*
X422047Y570472D01*
X410630Y566437D02*
X412500Y564567D01*
X425197D01*
X477224Y585413D02*
X481516D01*
X395669Y506299D02*
X478740D01*
X391732Y510236D02*
X395669Y506299D01*
X477224Y587382D02*
X482697D01*
X388799Y507303D02*
X393951Y502151D01*
X479345D01*
X514961Y808405D02*
Y808405D01*
X507480Y792913D02*
X514961Y800394D01*
X507480Y782776D02*
Y792913D01*
X502756Y804331D02*
X503543Y803543D01*
X502894Y808268D02*
X505512Y805650D01*
Y784882D02*
Y805650D01*
X503543Y782776D02*
Y803543D01*
X426142Y660118D02*
Y664016D01*
X350541Y509498D02*
X352658Y507382D01*
X355807Y509547D02*
X367126D01*
X353199Y512155D02*
X355807Y509547D01*
X355295Y652343D02*
X392776D01*
X354626Y651673D02*
X355295Y652343D01*
X379961Y500394D02*
Y508228D01*
X374961Y500394D02*
Y508209D01*
X367126Y509547D02*
X369961Y506713D01*
Y500394D02*
Y506713D01*
X347638Y503346D02*
Y507579D01*
Y503346D02*
X350787D01*
X353740Y500394D01*
X359961D01*
X465512Y571496D02*
Y575669D01*
X425197Y564567D02*
X432047Y571417D01*
X388858Y638563D02*
X392776D01*
X386909Y636614D02*
X388858Y638563D01*
X381594Y636614D02*
X386909D01*
X485630Y598819D02*
X488484D01*
X483287Y601161D02*
X485630Y598819D01*
X477224Y601161D02*
X483287D01*
X449764Y571102D02*
Y575669D01*
Y571102D02*
X453937Y566929D01*
X495669Y808268D02*
X502894D01*
X445118Y554724D02*
Y554724D01*
X436024Y563819D02*
X445118Y554724D01*
X436024Y563819D02*
Y573917D01*
X426929Y554724D02*
X436024Y563819D01*
X432047Y571417D02*
Y575669D01*
X423425Y558464D02*
X434055Y569095D01*
Y573917D01*
X416732Y531102D02*
Y540748D01*
X454134Y531102D02*
Y540748D01*
X448622Y546260D02*
X454134Y540748D01*
X437992Y569095D02*
X448622Y558465D01*
X437992Y569095D02*
Y573917D01*
X416732Y540748D02*
X423425Y547441D01*
X270669Y531595D02*
X276575D01*
X267913Y534350D02*
X270669Y531595D01*
X389488Y607067D02*
X392776D01*
X389882Y609035D02*
X392776D01*
X388583Y610335D02*
X389882Y609035D01*
X325492Y623819D02*
X350984D01*
X439921Y656850D02*
Y660118D01*
X392776Y638563D02*
X396575D01*
X342815Y572539D02*
X394193D01*
X395472Y573819D01*
X342520Y572835D02*
Y573228D01*
Y572835D02*
X342815Y572539D01*
X397146Y510138D02*
X531496D01*
X532677Y511319D01*
Y516634D01*
X406457Y655473D02*
Y660118D01*
X402520Y656752D02*
Y660118D01*
X401772Y656004D02*
X402520Y656752D01*
X399803Y656004D02*
X401772D01*
X400551Y660118D02*
Y662244D01*
X388583Y675098D02*
X402756D01*
X407480Y679823D01*
X387106Y676870D02*
X401772D01*
X406496Y681595D01*
X402658Y683957D02*
X403839Y685138D01*
X432047Y652598D02*
Y660118D01*
X450492Y665945D02*
X460532D01*
X493701Y648622D02*
X496063Y650984D01*
X496949D01*
X504626Y643405D02*
X528543D01*
X502953Y645079D02*
X504626Y643405D01*
X496457Y645079D02*
X502953D01*
X525000Y638189D02*
X529429Y633760D01*
X537992D01*
X497539Y679921D02*
X500689Y676772D01*
X496260Y677854D02*
X499311Y674803D01*
X500689Y676772D02*
X508268D01*
X510925Y679429D01*
X537008D01*
X511319Y676673D02*
X532480D01*
X509449Y674803D02*
X511319Y676673D01*
X499311Y674803D02*
X509449D01*
X477224Y581161D02*
Y583445D01*
X514468Y673917D02*
X528150D01*
X215158Y546850D02*
X235433D01*
X392776Y589350D02*
X397756D01*
X399016Y588091D01*
Y583661D02*
Y588091D01*
D20*
X580335Y653031D02*
D03*
X576988D02*
D03*
X305709Y536811D02*
D03*
X309055D02*
D03*
X305709Y527854D02*
D03*
X309055D02*
D03*
X293504Y549016D02*
D03*
X290158D02*
D03*
X472539Y718996D02*
D03*
X469193D02*
D03*
X455610D02*
D03*
X452264D02*
D03*
X296949Y875591D02*
D03*
X293602D02*
D03*
X380020Y875197D02*
D03*
X376673D02*
D03*
X448524Y496654D02*
D03*
X451870D02*
D03*
X269587Y573622D02*
D03*
X272933D02*
D03*
X269587Y581988D02*
D03*
X272933D02*
D03*
X381594Y636614D02*
D03*
X378248D02*
D03*
X488484Y598819D02*
D03*
X491831D02*
D03*
X460925Y718996D02*
D03*
X464272D02*
D03*
X273760Y662835D02*
D03*
X270413D02*
D03*
X273760Y708898D02*
D03*
X270413D02*
D03*
X273760Y756929D02*
D03*
X270413D02*
D03*
X513386Y750591D02*
D03*
X510039D02*
D03*
X518209D02*
D03*
X521555D02*
D03*
X510138Y718504D02*
D03*
X513484D02*
D03*
X510138Y688976D02*
D03*
X513484D02*
D03*
D21*
X542047Y617087D02*
D03*
Y609606D02*
D03*
X531417D02*
D03*
Y613346D02*
D03*
Y617087D02*
D03*
D22*
X326575Y809488D02*
D03*
Y815787D02*
D03*
X317047Y809528D02*
D03*
Y815827D02*
D03*
X411221Y803740D02*
D03*
Y810039D02*
D03*
X400748Y803780D02*
D03*
Y810079D02*
D03*
X243996Y571654D02*
D03*
Y577953D02*
D03*
D23*
X285945Y780669D02*
D03*
X278858D02*
D03*
D24*
X251260Y823445D02*
D03*
Y826791D02*
D03*
X245787Y826673D02*
D03*
Y823327D02*
D03*
X378445Y677618D02*
D03*
Y674272D02*
D03*
X370787D02*
D03*
Y677618D02*
D03*
X324528Y645650D02*
D03*
Y648996D02*
D03*
X576496Y616555D02*
D03*
Y619902D02*
D03*
X582323Y626988D02*
D03*
Y623642D02*
D03*
X576457Y633287D02*
D03*
Y629941D02*
D03*
X346063Y557697D02*
D03*
Y561043D02*
D03*
X351024Y560571D02*
D03*
Y563917D02*
D03*
X499606Y542913D02*
D03*
Y539567D02*
D03*
X305512Y611221D02*
D03*
Y607874D02*
D03*
X273425Y612992D02*
D03*
Y609646D02*
D03*
X268602D02*
D03*
Y612992D02*
D03*
X264665Y602854D02*
D03*
Y599508D02*
D03*
X332087Y553543D02*
D03*
Y556890D02*
D03*
X310236Y599213D02*
D03*
Y602559D02*
D03*
X276772Y849902D02*
D03*
Y853248D02*
D03*
X267323D02*
D03*
Y849902D02*
D03*
X359842Y851476D02*
D03*
Y854823D02*
D03*
X350394D02*
D03*
Y851476D02*
D03*
X242913Y536043D02*
D03*
Y532697D02*
D03*
X470472Y563484D02*
D03*
Y560138D02*
D03*
X454232Y823622D02*
D03*
Y826968D02*
D03*
X477854Y823622D02*
D03*
Y826968D02*
D03*
X499508Y823622D02*
D03*
Y826968D02*
D03*
X347638Y500000D02*
D03*
Y503346D02*
D03*
X357087Y680413D02*
D03*
Y677067D02*
D03*
Y724902D02*
D03*
Y721555D02*
D03*
Y774902D02*
D03*
Y771555D02*
D03*
X237953Y532697D02*
D03*
Y536043D02*
D03*
X504173Y758405D02*
D03*
Y755059D02*
D03*
X491732Y702264D02*
D03*
Y705610D02*
D03*
X537008Y683760D02*
D03*
Y687106D02*
D03*
X555512Y683760D02*
D03*
Y687106D02*
D03*
D25*
X303937Y731102D02*
D03*
X288976D02*
D03*
X256299D02*
D03*
X271260D02*
D03*
X288976Y686614D02*
D03*
X303937D02*
D03*
X271260Y686614D02*
D03*
X256299D02*
D03*
D26*
X522933Y697224D02*
D03*
Y702224D02*
D03*
Y707224D02*
D03*
Y712224D02*
D03*
X501476Y697224D02*
D03*
Y702224D02*
D03*
Y707224D02*
D03*
Y712224D02*
D03*
D27*
X267323Y523504D02*
D03*
Y520453D02*
D03*
X265354D02*
D03*
X263386D02*
D03*
X261417D02*
D03*
X259449D02*
D03*
Y523504D02*
D03*
X261417D02*
D03*
X263386D02*
D03*
X265354D02*
D03*
D28*
X269291Y509350D02*
D03*
X279528D02*
D03*
X276969D02*
D03*
X274410D02*
D03*
D29*
X262205Y508858D02*
D03*
X286614Y508858D02*
D03*
D30*
X259449Y498819D02*
D03*
X289370Y498819D02*
D03*
D31*
X269685Y498819D02*
D03*
X279134D02*
D03*
D32*
X271850Y509350D02*
D03*
D33*
X373327Y550886D02*
D03*
X372342Y547618D02*
D03*
X371358Y550886D02*
D03*
X369390D02*
D03*
X367421D02*
D03*
X370374Y547618D02*
D03*
X368406D02*
D03*
D34*
X485433Y724469D02*
D03*
Y717264D02*
D03*
X494685Y720866D02*
D03*
X435138Y730834D02*
D03*
Y723630D02*
D03*
X444390Y727232D02*
D03*
X416831Y730965D02*
D03*
Y723760D02*
D03*
X426083Y727362D02*
D03*
D35*
X403740Y698917D02*
D03*
X396260D02*
D03*
Y709744D02*
D03*
X400000D02*
D03*
X403740D02*
D03*
D36*
X505905Y539468D02*
D03*
Y546949D02*
D03*
X516732D02*
D03*
Y543209D02*
D03*
Y539468D02*
D03*
D37*
X285669Y756929D02*
D03*
X291575D02*
D03*
Y708898D02*
D03*
X285669D02*
D03*
Y662835D02*
D03*
X291575D02*
D03*
X461811Y496752D02*
D03*
X467717D02*
D03*
X327559Y536811D02*
D03*
X321654D02*
D03*
X321555Y527854D02*
D03*
X327461D02*
D03*
D38*
X492815Y823524D02*
D03*
Y829429D02*
D03*
X470768D02*
D03*
Y823524D02*
D03*
X446752D02*
D03*
Y829429D02*
D03*
D39*
X315748Y510630D02*
D03*
Y518110D02*
D03*
X305020Y510630D02*
D03*
Y518110D02*
D03*
D40*
X392776Y583445D02*
D03*
Y585413D02*
D03*
Y587382D02*
D03*
Y589350D02*
D03*
Y591319D02*
D03*
Y593287D02*
D03*
Y595256D02*
D03*
Y597224D02*
D03*
Y599193D02*
D03*
Y601161D02*
D03*
Y603130D02*
D03*
Y605098D02*
D03*
Y607067D02*
D03*
Y609035D02*
D03*
Y611004D02*
D03*
Y612972D02*
D03*
Y614941D02*
D03*
Y616909D02*
D03*
Y618878D02*
D03*
Y620847D02*
D03*
Y622815D02*
D03*
Y624783D02*
D03*
Y626752D02*
D03*
Y628721D02*
D03*
Y630689D02*
D03*
Y632657D02*
D03*
Y634626D02*
D03*
Y636594D02*
D03*
Y638563D02*
D03*
Y640531D02*
D03*
Y642500D02*
D03*
Y644468D02*
D03*
Y646437D02*
D03*
Y648406D02*
D03*
Y650374D02*
D03*
Y652343D02*
D03*
X477224D02*
D03*
Y650374D02*
D03*
Y648406D02*
D03*
Y646437D02*
D03*
Y644468D02*
D03*
Y642500D02*
D03*
Y640531D02*
D03*
Y638563D02*
D03*
Y636594D02*
D03*
Y634626D02*
D03*
Y632657D02*
D03*
Y630689D02*
D03*
Y628721D02*
D03*
Y626752D02*
D03*
Y624783D02*
D03*
Y622815D02*
D03*
Y620847D02*
D03*
Y618878D02*
D03*
Y616909D02*
D03*
Y614941D02*
D03*
Y612972D02*
D03*
Y611004D02*
D03*
Y609035D02*
D03*
Y607067D02*
D03*
Y605098D02*
D03*
Y603130D02*
D03*
Y601161D02*
D03*
Y599193D02*
D03*
Y597224D02*
D03*
Y595256D02*
D03*
Y593287D02*
D03*
Y591319D02*
D03*
Y589350D02*
D03*
Y587382D02*
D03*
Y585413D02*
D03*
Y583445D02*
D03*
D41*
X400551Y660118D02*
D03*
X402520D02*
D03*
X404488D02*
D03*
X406457D02*
D03*
X408425D02*
D03*
X410394D02*
D03*
X412362D02*
D03*
X414331D02*
D03*
X416299D02*
D03*
X418268D02*
D03*
X420236D02*
D03*
X422205D02*
D03*
X424173D02*
D03*
X426142D02*
D03*
X428110D02*
D03*
X430079D02*
D03*
X432047D02*
D03*
X434016D02*
D03*
X435984D02*
D03*
X437953D02*
D03*
X439921D02*
D03*
X441890D02*
D03*
X443858D02*
D03*
X445827D02*
D03*
X447795D02*
D03*
X449764D02*
D03*
X451732D02*
D03*
X453701D02*
D03*
X455669D02*
D03*
X457638D02*
D03*
X459606D02*
D03*
X461575D02*
D03*
X463543D02*
D03*
X465512D02*
D03*
X467480D02*
D03*
X469449D02*
D03*
Y575669D02*
D03*
X467480D02*
D03*
X465512D02*
D03*
X463543D02*
D03*
X461575D02*
D03*
X459606D02*
D03*
X457638D02*
D03*
X455669D02*
D03*
X453701D02*
D03*
X451732D02*
D03*
X449764D02*
D03*
X447795D02*
D03*
X445827D02*
D03*
X443858D02*
D03*
X441890D02*
D03*
X439921D02*
D03*
X437953D02*
D03*
X435984D02*
D03*
X434016D02*
D03*
X432047D02*
D03*
X430079D02*
D03*
X428110D02*
D03*
X426142D02*
D03*
X424173D02*
D03*
X422205D02*
D03*
X420236D02*
D03*
X418268D02*
D03*
X416299D02*
D03*
X414331D02*
D03*
X412362D02*
D03*
X410394D02*
D03*
X408425D02*
D03*
X406457D02*
D03*
X404488D02*
D03*
X402520D02*
D03*
X400551D02*
D03*
D42*
X401575Y563937D02*
D03*
Y560472D02*
D03*
X272047Y853307D02*
D03*
Y849842D02*
D03*
X276772Y834410D02*
D03*
Y830945D02*
D03*
X355118Y854882D02*
D03*
Y851417D02*
D03*
X359842Y836378D02*
D03*
Y832913D02*
D03*
X465354Y560079D02*
D03*
Y563543D02*
D03*
X312402Y574350D02*
D03*
Y577815D02*
D03*
X317913D02*
D03*
Y574350D02*
D03*
X518898Y786378D02*
D03*
Y782913D02*
D03*
X406496Y560472D02*
D03*
Y563937D02*
D03*
X441732Y676260D02*
D03*
Y672795D02*
D03*
X414331Y676260D02*
D03*
Y672795D02*
D03*
X411909Y702716D02*
D03*
Y699252D02*
D03*
X264567Y545512D02*
D03*
Y548976D02*
D03*
X460236Y560079D02*
D03*
Y563543D02*
D03*
X408425Y676260D02*
D03*
Y672795D02*
D03*
X270079Y548976D02*
D03*
Y545512D02*
D03*
X305512Y599055D02*
D03*
Y602520D02*
D03*
X486614Y705669D02*
D03*
Y702205D02*
D03*
X259744Y599350D02*
D03*
Y602815D02*
D03*
D43*
X375197Y868110D02*
D03*
X381496D02*
D03*
X292126Y828740D02*
D03*
X298425D02*
D03*
X292126Y819291D02*
D03*
X298425D02*
D03*
X292126Y868110D02*
D03*
X298425D02*
D03*
X292126Y858661D02*
D03*
X298425D02*
D03*
X375197Y828740D02*
D03*
X381496D02*
D03*
X375197Y819291D02*
D03*
X381496D02*
D03*
X375197Y858661D02*
D03*
X381496D02*
D03*
D44*
X297441Y605709D02*
D03*
Y607677D02*
D03*
Y609646D02*
D03*
Y611614D02*
D03*
Y613583D02*
D03*
X280118Y605709D02*
D03*
Y607677D02*
D03*
Y609646D02*
D03*
Y611614D02*
D03*
Y613583D02*
D03*
D45*
X322480Y686063D02*
D03*
Y730551D02*
D03*
Y780551D02*
D03*
D46*
X347284Y695118D02*
D03*
Y686063D02*
D03*
Y677008D02*
D03*
Y739606D02*
D03*
Y730551D02*
D03*
Y721496D02*
D03*
Y789606D02*
D03*
Y780551D02*
D03*
Y771496D02*
D03*
D47*
X285335Y847638D02*
D03*
Y845669D02*
D03*
Y843701D02*
D03*
Y841732D02*
D03*
Y839764D02*
D03*
X298130D02*
D03*
Y841732D02*
D03*
Y843701D02*
D03*
Y845669D02*
D03*
Y847638D02*
D03*
X381201D02*
D03*
Y845669D02*
D03*
Y843701D02*
D03*
Y841732D02*
D03*
Y839764D02*
D03*
X368406D02*
D03*
Y841732D02*
D03*
Y843701D02*
D03*
Y845669D02*
D03*
Y847638D02*
D03*
D48*
X291634Y843701D02*
D03*
X374705D02*
D03*
D49*
X319921Y845197D02*
D03*
Y826693D02*
D03*
X403150Y842717D02*
D03*
Y824213D02*
D03*
D50*
X276535Y844488D02*
D03*
X273071D02*
D03*
X276535Y839764D02*
D03*
X273071D02*
D03*
X359606Y846457D02*
D03*
X356142D02*
D03*
X359606Y841732D02*
D03*
X356142D02*
D03*
X491988Y593012D02*
D03*
X488524D02*
D03*
X491890Y603543D02*
D03*
X488425D02*
D03*
X415413Y709842D02*
D03*
X411949D02*
D03*
X491890Y636089D02*
D03*
X488425D02*
D03*
X378189Y585433D02*
D03*
X381653D02*
D03*
X378189Y594095D02*
D03*
X381653D02*
D03*
X378189Y642520D02*
D03*
X381653D02*
D03*
X378189Y624803D02*
D03*
X381653D02*
D03*
X491890Y615512D02*
D03*
X488425D02*
D03*
X491890Y608268D02*
D03*
X488425D02*
D03*
X378189Y599213D02*
D03*
X381653D02*
D03*
X491890Y588386D02*
D03*
X488425D02*
D03*
X378189Y604331D02*
D03*
X381653D02*
D03*
X378189Y630709D02*
D03*
X381653D02*
D03*
X491890Y651181D02*
D03*
X488425D02*
D03*
X529291Y545866D02*
D03*
X525827D02*
D03*
X298268Y581890D02*
D03*
X301732D02*
D03*
X301732Y573622D02*
D03*
X298268D02*
D03*
X491890Y621129D02*
D03*
X488425D02*
D03*
X491890Y641076D02*
D03*
X488425D02*
D03*
X491890Y626116D02*
D03*
X488425D02*
D03*
X491890Y646063D02*
D03*
X488425D02*
D03*
X423465Y554724D02*
D03*
X426929D02*
D03*
X448583D02*
D03*
X445118D02*
D03*
X491890Y631102D02*
D03*
X488425D02*
D03*
X554272Y523130D02*
D03*
X557736D02*
D03*
D51*
X539776Y864122D02*
D03*
X256594Y627559D02*
D03*
X471654Y855512D02*
D03*
X493701D02*
D03*
X428543Y708504D02*
D03*
X449713Y855512D02*
D03*
D52*
X450000Y702362D02*
D03*
X467323D02*
D03*
D53*
X322126Y499705D02*
D03*
X305433D02*
D03*
D54*
X254724Y548976D02*
D03*
Y532283D02*
D03*
D55*
X521949Y498917D02*
D03*
X490650D02*
D03*
X521949Y516634D02*
D03*
X490650D02*
D03*
X532677D02*
D03*
X563976D02*
D03*
X532677Y498917D02*
D03*
X563976D02*
D03*
D56*
X511417Y782776D02*
D03*
X509449D02*
D03*
X507480D02*
D03*
X505512D02*
D03*
X503543D02*
D03*
X511417Y765256D02*
D03*
X509449D02*
D03*
X507480D02*
D03*
X505512D02*
D03*
X503543D02*
D03*
D57*
X514961Y808268D02*
D03*
X493701D02*
D03*
D58*
X590945Y775984D02*
D03*
D59*
X538779Y765984D02*
D03*
Y785984D02*
D03*
D60*
X416732Y531102D02*
D03*
X454134D02*
D03*
D61*
X379961Y500394D02*
D03*
X374961D02*
D03*
X369961D02*
D03*
X364961D02*
D03*
X359961D02*
D03*
Y516378D02*
D03*
X364961D02*
D03*
X369961D02*
D03*
X374961D02*
D03*
X379961D02*
D03*
D62*
X458169Y729823D02*
D03*
X464468D02*
D03*
X458169Y726279D02*
D03*
X464468D02*
D03*
D63*
X279921Y581004D02*
D03*
Y578445D02*
D03*
Y575886D02*
D03*
Y573327D02*
D03*
X290945Y581004D02*
D03*
Y578445D02*
D03*
Y575886D02*
D03*
Y573327D02*
D03*
D64*
X285433Y577165D02*
D03*
D65*
X277953Y534154D02*
D03*
Y531595D02*
D03*
Y529035D02*
D03*
Y526476D02*
D03*
X292913D02*
D03*
Y529035D02*
D03*
Y531595D02*
D03*
Y534154D02*
D03*
D66*
X281594Y522835D02*
D03*
X284154D02*
D03*
X286713D02*
D03*
X289272D02*
D03*
Y537795D02*
D03*
X286713D02*
D03*
X284154D02*
D03*
X281594D02*
D03*
D67*
X285433Y530315D02*
D03*
D123*
X518760Y782776D02*
X518780Y782756D01*
Y778228D02*
Y782756D01*
X511417Y782776D02*
X518760D01*
X531417Y613346D02*
X536772D01*
X540512Y609606D01*
X542047D01*
X505197Y613346D02*
X531417D01*
X403740Y699016D02*
X411378D01*
X569095Y562913D02*
X576811Y555197D01*
Y529468D02*
Y555197D01*
X563976Y516634D02*
X576811Y529468D01*
X562028Y683760D02*
X577323Y699055D01*
X537008Y683760D02*
X555512D01*
X326681Y697350D02*
X332579Y703248D01*
X230853Y697350D02*
X326681D01*
X229007Y699197D02*
X230853Y697350D01*
X325861Y699331D02*
X331758Y705228D01*
X231673Y699331D02*
X325861D01*
X229724Y701279D02*
X231673Y699331D01*
X217132Y699197D02*
X229007D01*
X214904Y696969D02*
X217132Y699197D01*
X232756Y578307D02*
Y587992D01*
X228307Y573858D02*
X232756Y578307D01*
X219370Y573858D02*
X228307D01*
X210630Y611221D02*
X213465Y608386D01*
Y579764D02*
Y608386D01*
Y579764D02*
X219370Y573858D01*
X229528Y601221D02*
X236535Y594213D01*
Y577913D02*
Y594213D01*
X229055Y570433D02*
X236535Y577913D01*
X216653Y570433D02*
X229055D01*
X210354Y576732D02*
X216653Y570433D01*
X210354Y576732D02*
Y606299D01*
X229528Y591221D02*
X232756Y587992D01*
X210630Y611221D02*
Y615590D01*
X275709Y546339D02*
X281535D01*
X273622Y544252D02*
X275709Y546339D01*
X273622Y540551D02*
Y544252D01*
X522933Y702224D02*
X527697D01*
X517677D02*
X522933D01*
X555512Y683760D02*
X562028D01*
X555512Y709055D02*
X575866D01*
X522933Y707224D02*
X527894D01*
X522835D02*
X522933D01*
X532717Y713346D02*
X537008Y709055D01*
X528307Y713346D02*
X532717D01*
X523150Y718504D02*
X528307Y713346D01*
X513484Y718504D02*
X523150D01*
X237953Y536043D02*
X242913D01*
X251654Y538031D02*
X271102D01*
X246319Y532697D02*
X251654Y538031D01*
X242913Y532697D02*
X246319D01*
X271102Y538031D02*
X273622Y540551D01*
X281535Y546339D02*
X282795Y545079D01*
X307520D01*
X308347Y544252D01*
X332835D01*
X264567Y542421D02*
Y545512D01*
X332835Y544252D02*
X334780Y542307D01*
X370847D01*
X370980Y542441D01*
X276247Y564425D02*
X278939Y561732D01*
X305669D01*
X276181Y577165D02*
X277461Y575886D01*
X279921D01*
X290984Y571102D02*
Y573286D01*
X290944Y573326D02*
X290984Y573286D01*
X290944Y573326D02*
X290945Y573327D01*
X271284Y562165D02*
X273543Y564425D01*
X260709Y562165D02*
X271284D01*
X273543Y564425D02*
X276247D01*
X347342Y677067D02*
X357087D01*
X277953Y529035D02*
X284154D01*
X266929Y530807D02*
X273039Y524697D01*
X280118D01*
X280126Y524705D02*
X280906D01*
X280118Y524697D02*
X280126Y524705D01*
X280906D02*
X281594Y524016D01*
X347284Y677008D02*
X347342Y677067D01*
X478248Y720866D02*
X494685D01*
X476378Y718996D02*
X478248Y720866D01*
X472539Y718996D02*
X476378D01*
X444193Y713189D02*
X492815D01*
X440256Y717126D02*
X444193Y713189D01*
X492815D02*
X496752Y717126D01*
X444390Y719587D02*
Y727232D01*
Y719587D02*
X448425Y715551D01*
X463189D01*
X464272Y716634D01*
Y718996D01*
X455610D02*
Y723819D01*
X452953Y726476D02*
X455610Y723819D01*
X451772Y726476D02*
X452953D01*
X447047Y731201D02*
X451772Y726476D01*
X441535Y731201D02*
X447047D01*
X437697Y727362D02*
X441535Y731201D01*
X426083Y727362D02*
X437697D01*
X452264Y718996D02*
Y722342D01*
X454134Y729823D02*
X458169D01*
X388386Y723524D02*
X409547D01*
X408833Y721358D02*
X415132Y715059D01*
X389583Y721358D02*
X408833D01*
X409547Y723524D02*
X415945Y717126D01*
X440256D01*
X415132Y715059D02*
X439272D01*
X212402Y701279D02*
X229724D01*
X212303Y701181D02*
X212402Y701279D01*
X370091Y705228D02*
X388386Y723524D01*
X331758Y705228D02*
X370091D01*
X371472Y703248D02*
X389583Y721358D01*
X332579Y703248D02*
X371472D01*
X524902Y721260D02*
X530512Y715650D01*
X544587D01*
X527697Y702224D02*
X528839Y701083D01*
X526968Y683760D02*
X537008D01*
X515846Y700394D02*
X517677Y702224D01*
X526772Y683563D02*
X526968Y683760D01*
X508366Y721260D02*
X524902D01*
X502165Y715059D02*
X508366Y721260D01*
X497933Y715059D02*
X502165D01*
X443405Y710925D02*
X493799D01*
X497933Y715059D01*
X439272D02*
X443405Y710925D01*
X515846Y691339D02*
Y700394D01*
X513484Y688976D02*
X515846Y691339D01*
X530512Y718701D02*
X551476D01*
X555512Y714665D01*
X537008Y709055D02*
X555512D01*
X525886Y723327D02*
X530512Y718701D01*
X555512Y709055D02*
Y714665D01*
X529724Y709055D02*
X537008D01*
X527894Y707224D02*
X529724Y709055D01*
X507480Y723327D02*
X525886D01*
X501279Y717126D02*
X507480Y723327D01*
X496752Y717126D02*
X501279D01*
X550157Y699055D02*
X555512D01*
X270768Y846260D02*
X271299D01*
X273071Y844488D01*
X360138Y516555D02*
Y524311D01*
X359961Y516378D02*
X360138Y516555D01*
X370177Y516595D02*
Y524311D01*
X369961Y516378D02*
X370177Y516595D01*
X375000Y516417D02*
Y524213D01*
X374961Y516378D02*
X375000Y516417D01*
X276772Y853248D02*
Y856496D01*
X361614Y856594D02*
Y857185D01*
X359842Y854823D02*
X361614Y856594D01*
X353248Y846653D02*
X355945D01*
X356142Y846457D01*
X360866Y831890D02*
X362894D01*
X359842Y832913D02*
X360866Y831890D01*
X272342Y534154D02*
X276969D01*
X291732Y522835D02*
X292028Y523130D01*
X292913Y524016D01*
X289272Y522835D02*
X291732D01*
X292913Y524016D02*
Y526476D01*
X281594Y522835D02*
Y524016D01*
X503199Y711762D02*
X510138Y718701D01*
X298760Y602520D02*
X305512D01*
X297244Y604035D02*
Y605512D01*
Y604035D02*
X298760Y602520D01*
X529291Y545866D02*
X532776D01*
X505807Y539567D02*
X505905Y539468D01*
X499606Y539567D02*
X505807D01*
X516831Y543110D02*
X521358D01*
X516732Y543209D02*
X516831Y543110D01*
X487697Y588386D02*
X488425D01*
X503543Y765256D02*
Y770079D01*
Y765256D02*
X505512D01*
X472835Y643504D02*
X473839Y642500D01*
X477224D01*
X472835Y643504D02*
X473799Y644468D01*
X477224D01*
X280118Y613583D02*
Y616339D01*
Y611614D02*
Y613583D01*
X273425Y612992D02*
Y616634D01*
X277756Y620965D01*
X327953D01*
X264665Y602854D02*
X285138D01*
X289075Y606791D01*
Y609252D01*
X291437Y611614D01*
X297441D01*
X292520Y607677D02*
X297441D01*
X302854Y611221D02*
X305512D01*
X301279Y609646D02*
X302854Y611221D01*
X305512Y602520D02*
Y607874D01*
X305709Y527854D02*
Y531004D01*
X309055Y527854D02*
X321555D01*
X309055Y536811D02*
X321654D01*
X298031Y531595D02*
X303248Y536811D01*
X305709D01*
X292913Y531595D02*
X298031D01*
X305020Y518110D02*
Y520669D01*
X296654Y529035D02*
X305020Y520669D01*
X298327Y515354D02*
Y522736D01*
X294587Y526476D02*
X298327Y522736D01*
X292913Y526476D02*
X294587D01*
X311122Y514370D02*
X314862Y518110D01*
X299311Y514370D02*
X311122D01*
X298327Y515354D02*
X299311Y514370D01*
X292913Y529035D02*
X296654D01*
X284154D02*
X285433Y530315D01*
X270079Y542421D02*
Y545512D01*
X510138Y688976D02*
Y694390D01*
X507500Y697027D02*
X510138Y694390D01*
X501772Y697027D02*
X507500D01*
X489075Y596063D02*
X494783D01*
X495177Y596457D01*
X310236Y602461D02*
X310630Y602067D01*
X346299Y677008D02*
X347284D01*
X357028Y771496D02*
X357087Y771555D01*
X347284Y771496D02*
X357028D01*
X371063Y636614D02*
X378248D01*
X370079Y635630D02*
X371063Y636614D01*
X370079Y633514D02*
Y635630D01*
X488524Y593012D02*
Y595512D01*
X489075Y596063D01*
X381653Y630709D02*
Y633012D01*
X381152Y633514D02*
X381653Y633012D01*
X370079Y633514D02*
X381152D01*
X550098Y687106D02*
X555512D01*
X537008D02*
X542224D01*
X537008Y699055D02*
X542382D01*
X381653Y630709D02*
X381673Y630689D01*
X264567Y548976D02*
X264567Y548976D01*
X294882Y573622D02*
X298268D01*
X292618Y575886D02*
X294882Y573622D01*
X290945Y575886D02*
X292618D01*
X295669Y581890D02*
X298268D01*
X294783Y581004D02*
X295669Y581890D01*
X290945Y581004D02*
X294783D01*
X272933Y573622D02*
X275197D01*
X275492Y573327D01*
X279921D01*
X359606Y841732D02*
X368406D01*
X276535Y839764D02*
X279528D01*
X281496Y841732D01*
X285335D01*
X276673Y581004D02*
X279921D01*
X275689Y581988D02*
X276673Y581004D01*
X272933Y581988D02*
X275689D01*
X460925Y718996D02*
Y720866D01*
X458169Y723622D02*
X460925Y720866D01*
X458169Y723622D02*
Y726279D01*
X469193Y718996D02*
Y720669D01*
X466142Y723721D02*
X469193Y720669D01*
X461811Y723721D02*
X466142D01*
X461319Y724213D02*
X461811Y723721D01*
X461319Y724213D02*
Y728839D01*
X462303Y729823D01*
X464468D01*
X276772Y827854D02*
Y830945D01*
X406496Y556693D02*
Y560472D01*
X397874D02*
X401575D01*
X347638Y496654D02*
Y500000D01*
X279921Y575886D02*
X284154D01*
X285433Y575295D02*
Y577165D01*
Y575295D02*
X287402Y573327D01*
X290945D01*
X563976Y516634D02*
Y521063D01*
X561909Y523130D02*
X563976Y521063D01*
X557736Y523130D02*
X561909D01*
X550098D02*
X554272D01*
X499803Y600197D02*
X505020Y594980D01*
X491831Y598819D02*
X493209Y600197D01*
X499803D01*
D124*
X527067Y750591D02*
X534905Y742752D01*
X544760D02*
X549921Y747913D01*
X534905Y742752D02*
X544760D01*
X580335Y653031D02*
X583583D01*
X542047Y617087D02*
X546496D01*
X411811Y699055D02*
X414803D01*
X400295Y699016D02*
X403740D01*
X497900Y641076D02*
X498622Y641798D01*
X408130Y702697D02*
X412008D01*
X408701Y675984D02*
X408976Y676260D01*
X491890Y592913D02*
X497638D01*
X460295Y560138D02*
X470472D01*
X400000Y709646D02*
X400098Y709744D01*
X356988Y775000D02*
X357087Y775098D01*
X488425Y612756D02*
Y615512D01*
Y612756D02*
X489075Y612106D01*
X492664Y620354D02*
X498701D01*
X491890Y621129D02*
X492664Y620354D01*
X491890Y626116D02*
X497703D01*
X498150Y625669D01*
X491890Y631102D02*
X498462D01*
X498621Y630944D01*
X491923Y636122D02*
X497146D01*
X498622Y641732D02*
Y641798D01*
X521850Y522441D02*
X521949Y522342D01*
Y516634D02*
Y522342D01*
X229528Y671220D02*
X229842Y670905D01*
X439020Y702406D02*
X442126Y705512D01*
X422445Y702406D02*
X439020D01*
X422402Y702362D02*
X422445Y702406D01*
X422756Y708504D02*
X428543D01*
X422047Y707795D02*
X422756Y708504D01*
X422047Y702362D02*
Y707795D01*
X446850Y705512D02*
X450000Y702362D01*
X442126Y705512D02*
X446850D01*
X415531Y709961D02*
X418150D01*
X415413Y709842D02*
X415531Y709961D01*
X441732Y672795D02*
X447598D01*
X291653Y708819D02*
X300551D01*
X291575Y708898D02*
X291653Y708819D01*
X333386Y635118D02*
X356476D01*
X356594Y635000D01*
X349095Y643819D02*
X353740Y639173D01*
X333740Y643819D02*
X349095D01*
X356594Y635000D02*
X356713Y635118D01*
X362500Y629331D01*
X411811Y709685D02*
Y713287D01*
X459980Y563681D02*
X460039Y563740D01*
X403740Y709646D02*
X411772D01*
X504173Y752224D02*
Y755059D01*
Y752224D02*
X505807Y750591D01*
X326575Y804921D02*
Y809488D01*
X317047Y804961D02*
Y809528D01*
X411221Y799173D02*
Y803740D01*
X400748Y799213D02*
Y803780D01*
X291654Y756850D02*
X299252D01*
X291575Y756929D02*
X291654Y756850D01*
X299331Y776063D02*
Y780433D01*
X239882Y611221D02*
X245827Y617165D01*
X229528Y611221D02*
X239882D01*
X245827Y617165D02*
Y625276D01*
X219291Y640433D02*
Y642402D01*
X269587Y581890D02*
Y587220D01*
X208622Y653071D02*
X219291Y642402D01*
X208622Y653071D02*
Y702047D01*
X211221Y704646D01*
X238504D01*
X240098Y703051D01*
X317913D01*
X522933Y688209D02*
Y697224D01*
X516713Y681988D02*
X522933Y688209D01*
X505118Y681988D02*
X516713D01*
X507874Y707224D02*
X508051D01*
X501575D02*
X507874D01*
X513051Y712224D02*
X522933D01*
X508051Y707224D02*
X513051Y712224D01*
X234429Y532697D02*
X237953D01*
X277264Y594898D02*
X309039D01*
X269587Y587220D02*
X277264Y594898D01*
X309039D02*
X310433Y593504D01*
X259744Y599350D02*
X259902Y599508D01*
X264665D01*
X259724Y596535D02*
Y599035D01*
X259744Y599055D01*
X245827Y625276D02*
X248110Y627559D01*
X256594D01*
X229842Y670905D02*
X282480D01*
X382480Y553248D02*
X409154D01*
X380906Y554823D02*
X382480Y553248D01*
X370079Y563878D02*
X401516D01*
X380610Y607874D02*
X381653Y606831D01*
X370866Y607874D02*
X380610D01*
X370177Y607185D02*
X370866Y607874D01*
X229685Y735039D02*
X242480D01*
X245984Y738543D01*
X277953D01*
X280039Y740630D01*
X318110D01*
X240472Y743032D02*
X277087D01*
X278858Y744803D01*
X275492Y809842D02*
X306594D01*
X229685Y765039D02*
X230118Y764606D01*
X240472D01*
X256299Y774409D02*
Y780709D01*
X278858Y744803D02*
X389764D01*
X256614Y724882D02*
Y731083D01*
X256594Y731102D02*
X256614Y731083D01*
X513075Y657693D02*
X513976Y656791D01*
X491748Y657693D02*
X513075D01*
X488425Y654370D02*
X491748Y657693D01*
X495236Y654528D02*
X498917D01*
X491890Y651181D02*
X495236Y654528D01*
X262402Y822933D02*
X275492Y809842D01*
X464468Y726279D02*
X478642D01*
X505807Y750588D02*
X505809Y750591D01*
X510039D01*
X505807Y748524D02*
Y750588D01*
X503918Y746634D02*
X505807Y748524D01*
X501870Y746634D02*
X503918D01*
X485630Y746555D02*
X501870Y746634D01*
X521555Y750591D02*
X527067D01*
X396260Y709744D02*
Y716535D01*
Y709646D02*
Y709744D01*
X298130Y552461D02*
X299114Y553445D01*
X323870D01*
X323886Y553429D01*
X326508D01*
X328362Y555283D01*
Y555331D01*
X329921Y556890D01*
X332087D01*
X357087Y724902D02*
Y727953D01*
X283957Y835925D02*
X302461D01*
X483957Y568996D02*
X486221D01*
X483268Y568307D02*
X483957Y568996D01*
X486221D02*
X489961Y572736D01*
X475197Y568307D02*
X483268D01*
X488425Y585197D02*
X497874D01*
X500492Y585236D02*
X505118Y589862D01*
X497835Y585236D02*
X500492D01*
X497835D02*
X497874Y585197D01*
X492185Y603839D02*
X497441D01*
X491890Y603543D02*
X492185Y603839D01*
X492382Y608760D02*
X497244D01*
X491890Y608268D02*
X492382Y608760D01*
X495374Y615354D02*
X497835Y612894D01*
X498721D01*
X491890Y641076D02*
X497900D01*
X491890Y636089D02*
X491923Y636122D01*
X353740Y639173D02*
X370374D01*
X310630Y599114D02*
X316142D01*
X317913Y597342D01*
Y593602D02*
Y597342D01*
X317815Y593504D02*
X317864D01*
X310433D02*
X317815D01*
X317913Y593602D01*
X265551Y573622D02*
X269587D01*
X242028D02*
X243996Y571654D01*
X239469Y573622D02*
X242028D01*
X238583Y574508D02*
X239469Y573622D01*
X384941Y806004D02*
X389764Y810827D01*
X356791Y806004D02*
X384941D01*
X345866Y816929D02*
X356791Y806004D01*
X489961Y572736D02*
X493405D01*
X486122Y564665D02*
X487008Y565551D01*
X476575Y564665D02*
X486122D01*
X474114Y562205D02*
X476575Y564665D01*
X474114Y567224D02*
X475197Y568307D01*
X474114Y553839D02*
Y562205D01*
X474016Y567126D02*
X474114Y567224D01*
X477658Y832677D02*
Y842028D01*
X471654Y848032D02*
X477658Y842028D01*
X471654Y848032D02*
Y855512D01*
X454035Y831791D02*
Y843406D01*
X449713Y847728D02*
X454035Y843406D01*
X449713Y847728D02*
Y855512D01*
X499606Y831594D02*
Y842520D01*
X493701Y848425D02*
X499606Y842520D01*
X493701Y848425D02*
Y855512D01*
X264862Y609646D02*
X268602D01*
X259744Y602815D02*
Y615945D01*
X256594Y627559D02*
X256693Y627461D01*
Y618996D02*
Y627461D01*
Y618996D02*
X259744Y615945D01*
X381653Y621614D02*
Y624803D01*
X334173Y588898D02*
X342933D01*
X348130Y594095D01*
X378189D01*
X333563Y582972D02*
X375728D01*
X378189Y585433D01*
X259744Y602815D02*
X264311D01*
X332087Y556890D02*
X332185Y556988D01*
X332087Y548917D02*
Y553543D01*
Y548917D02*
X334055Y546949D01*
X340354D01*
X341831Y548425D01*
X301732Y573622D02*
X305020D01*
X327461Y536713D02*
X327559Y536811D01*
X327461Y527854D02*
Y536713D01*
Y520472D02*
Y527854D01*
X325098Y518110D02*
X327461Y520472D01*
X315748Y518110D02*
X325098D01*
X293504Y549016D02*
X293543Y548976D01*
X315591D01*
X290158Y550886D02*
X291732Y552461D01*
X298130D01*
X290158Y549016D02*
Y550886D01*
X270079Y548976D02*
X270118Y549016D01*
X290158D01*
X305020Y518110D02*
X307283D01*
X311417Y522244D01*
X315846D01*
X345866Y852461D02*
X348228Y854823D01*
X345866Y816929D02*
Y852461D01*
X348228Y854823D02*
X350394D01*
X355059D02*
X355118Y854882D01*
X350394Y854823D02*
X355059D01*
X271988Y853248D02*
X272047Y853307D01*
X267323Y853248D02*
X271988D01*
X263386D02*
X267323D01*
X262402Y852264D02*
X263386Y853248D01*
X262402Y822933D02*
Y852264D01*
X367323Y837008D02*
X384646D01*
X367126Y836811D02*
X367323Y837008D01*
X384646D02*
X387205Y839567D01*
X356142Y838031D02*
Y841732D01*
X272933Y835925D02*
X273071Y836063D01*
Y839764D01*
X302461Y835925D02*
X304134Y837598D01*
Y837697D01*
X499508Y826968D02*
X499606Y827067D01*
Y831594D01*
X477658Y832677D02*
X477854Y832480D01*
Y826968D02*
Y832480D01*
X454035Y831791D02*
X454232Y831594D01*
Y826968D02*
Y831594D01*
X477756Y823524D02*
X477854Y823622D01*
X470768Y823524D02*
X477756D01*
X229528Y661221D02*
X250197D01*
X229528Y651221D02*
X235787D01*
X242520Y644488D01*
X292717D01*
X229528Y641221D02*
X229803Y640945D01*
X258268D01*
X229528Y631220D02*
X232756Y634449D01*
X296457D01*
X257344Y662835D02*
X270413D01*
X257143Y662914D02*
X257344Y662835D01*
X256299Y679921D02*
X256398Y679823D01*
X256299Y679921D02*
Y686614D01*
X256299Y709055D02*
X256457Y708898D01*
X255945Y756929D02*
X270413D01*
X473327Y567224D02*
X474114D01*
X473228Y567126D02*
X473327Y567224D01*
X473228Y567126D02*
X474016D01*
X457776Y563681D02*
X459980D01*
X456398Y562303D02*
X457776Y563681D01*
X456398Y554823D02*
Y562303D01*
Y554823D02*
X459941Y551279D01*
X471555D02*
X474114Y553839D01*
X459941Y551279D02*
X471555D01*
X298150Y685157D02*
X299606Y686614D01*
X297874Y662835D02*
X298150Y663110D01*
X291575Y662835D02*
X297874D01*
X299606Y686614D02*
X303543D01*
X299606Y731102D02*
X303543D01*
X298031Y729528D02*
X299606Y731102D01*
X256457Y708898D02*
X270413D01*
X256299Y780709D02*
X256299Y780709D01*
X273760Y662835D02*
X285669D01*
X273760Y708898D02*
X285669D01*
X273760Y756929D02*
X285669D01*
X408425Y671220D02*
Y672795D01*
Y669685D02*
Y671220D01*
X436220Y672831D02*
X436255Y672795D01*
X441732D01*
X414331Y669685D02*
Y671260D01*
X414331Y672795D02*
X420315D01*
X408386Y672835D02*
X408425Y672795D01*
X391043Y672835D02*
X408386D01*
X389567Y671358D02*
X391043Y672835D01*
X408425Y671220D02*
X408425Y671220D01*
X467717Y496752D02*
X467815Y496850D01*
X484842D01*
X409154Y563937D02*
X410039Y563051D01*
X406496Y563937D02*
X409154D01*
X410039Y554134D02*
Y563051D01*
X409154Y553248D02*
X410039Y554134D01*
X379961Y532027D02*
X380020Y532087D01*
X379961Y516378D02*
Y532027D01*
X488425Y585197D02*
Y588386D01*
Y651181D02*
Y654370D01*
Y608268D02*
Y611457D01*
X489075Y612106D01*
X492126D01*
X381653Y642520D02*
X384705Y639468D01*
X385827D01*
X381653Y604331D02*
Y606831D01*
X418110Y702362D02*
X422047D01*
X396063Y716732D02*
X396260Y716535D01*
X389469Y716732D02*
X396063D01*
X408366D01*
X411811Y713287D01*
X411772Y709646D02*
X411811Y709685D01*
X488425Y603543D02*
Y608268D01*
X381653Y599213D02*
Y604331D01*
X501535Y702264D02*
X501575Y702224D01*
X491732Y702264D02*
X501535D01*
X491673Y702205D02*
X491732Y702264D01*
X486614Y702205D02*
X491673D01*
X414803Y699055D02*
X418110Y702362D01*
X264567Y548976D02*
X270079D01*
X254724Y548976D02*
X264567D01*
X446752Y823524D02*
X454134D01*
X491732Y705610D02*
X491831Y705709D01*
X494882D01*
X362500Y629331D02*
X371555D01*
X372933Y630709D01*
X378189D01*
Y624803D02*
Y630709D01*
X370374Y639173D02*
X373721Y642520D01*
X378189D01*
Y594095D02*
Y599213D01*
Y604331D01*
X301732Y581890D02*
X305965D01*
X317913Y570118D02*
Y574350D01*
X312402Y570118D02*
Y574350D01*
X298622Y599114D02*
X305453D01*
X305512Y599055D01*
X348031Y695472D02*
X348228Y695669D01*
X357087Y680413D02*
Y684646D01*
X347284Y739606D02*
X347342Y739665D01*
X357087Y775098D02*
Y779331D01*
X356988Y775000D02*
X357087Y774902D01*
X492815Y829429D02*
Y835630D01*
X470768Y829429D02*
Y834744D01*
X446752Y829429D02*
Y834744D01*
X459744Y702362D02*
X467323D01*
X460236Y560079D02*
X460295Y560138D01*
X460236Y556791D02*
Y560079D01*
X492677Y615354D02*
X495374D01*
X495965Y647736D02*
X498622D01*
X494291Y646063D02*
X495965Y647736D01*
X491890Y646063D02*
X494291D01*
X498032Y589370D02*
Y590551D01*
X497047Y588386D02*
X498032Y589370D01*
X491890Y588386D02*
X497047D01*
X498425Y593701D02*
X498819D01*
X497638Y592913D02*
X498425Y593701D01*
X491890Y592913D02*
X491988Y593012D01*
X400098Y709744D02*
Y713406D01*
X400000Y709646D02*
X400000Y709646D01*
X408425Y676260D02*
X408701Y675984D01*
X408425Y676260D02*
X408976D01*
X417598D02*
X418110Y676772D01*
X408976Y676260D02*
X414331D01*
X417598D01*
X447598Y672795D02*
X447638Y672835D01*
X243996Y577953D02*
Y584941D01*
D125*
X422047Y672799D02*
X436220Y672831D01*
X420315Y672795D02*
X422047Y672799D01*
X348228Y694783D02*
Y695669D01*
X447902Y673098D02*
X490189D01*
X447638Y672835D02*
X447902Y673098D01*
X285945Y780669D02*
X303898D01*
X303937Y780709D01*
X263189Y780709D02*
X263228Y780669D01*
X278858D01*
X347598Y739921D02*
X353661D01*
X347342Y739665D02*
X347598Y739921D01*
X490189Y673098D02*
X492224Y671063D01*
X299410Y499606D02*
X305433D01*
X348228Y694783D02*
X352362Y698917D01*
X514961Y808405D02*
X523583D01*
X538779Y793209D01*
Y785984D02*
Y793209D01*
X263878Y686614D02*
X263976Y686516D01*
X256299Y686614D02*
X263878D01*
X256299Y780709D02*
X263189D01*
X263779Y731102D02*
X264075Y731398D01*
X256594Y731102D02*
X263779D01*
X256299D02*
X256594D01*
X303937D02*
X321929D01*
X303543D02*
X303937D01*
Y686614D02*
X321929D01*
X303543D02*
X303937D01*
X321929D02*
X322480Y686063D01*
X347284D01*
X321929Y731102D02*
X322480Y730551D01*
X347284D01*
X322323Y780709D02*
X322480Y780551D01*
X347284D01*
X303937Y780709D02*
X322323D01*
X288583Y686614D02*
X288583Y686614D01*
X273622Y686614D02*
X288583D01*
X271260Y731102D02*
X288583D01*
X373819Y844587D02*
Y852854D01*
X290945Y844390D02*
X291634Y843701D01*
X290945Y844390D02*
Y853051D01*
X322126Y499705D02*
X328150D01*
X347284Y789606D02*
Y794921D01*
X490650Y516634D02*
X521949D01*
X514665Y498917D02*
X521949D01*
X505903D02*
X514665D01*
X490650D02*
X497142D01*
X505903D01*
X532677D02*
X540059D01*
X547275D01*
X554491D01*
X563976D01*
X532677Y516634D02*
X563976D01*
X505020Y594980D02*
X507480D01*
X559094Y592913D02*
X569095D01*
X507480Y594980D02*
X509390Y593071D01*
X558898D01*
D126*
X392386Y690516D02*
X407545D01*
X389469Y687598D02*
X392386Y690516D01*
X407777Y690748D02*
X496358D01*
X407545Y690516D02*
X407777Y690748D01*
X427461Y761221D02*
X493701D01*
X440059Y808268D02*
X493701D01*
X317913Y761221D02*
X427461D01*
X496358Y690748D02*
X505118Y681988D01*
X436909Y811417D02*
X440059Y808268D01*
X258366Y881496D02*
X420669D01*
X514961Y808405D02*
Y822047D01*
X525591Y832677D02*
X551575D01*
X514961Y822047D02*
X525591Y832677D01*
X306594Y809842D02*
Y814764D01*
X551575Y832677D02*
X559449Y824803D01*
Y819685D02*
Y824803D01*
X537795Y819685D02*
X551575Y805906D01*
X590945Y775984D02*
Y800000D01*
X585039Y805906D02*
X590945Y800000D01*
X551575Y805906D02*
X585039D01*
X249705Y799311D02*
X279528D01*
X514075Y604921D02*
X517717Y601279D01*
X557106D01*
X558898Y603071D01*
X559094Y602913D02*
X569095D01*
D127*
X361221Y531988D02*
X364961Y528248D01*
X336516Y531988D02*
X361221D01*
X364961Y516378D02*
Y528248D01*
D128*
X549921Y747913D02*
D03*
X539921D02*
D03*
X559094Y638819D02*
D03*
Y628819D02*
D03*
Y668819D02*
D03*
Y658819D02*
D03*
Y648819D02*
D03*
X506791Y558366D02*
D03*
X516791D02*
D03*
X559094Y602913D02*
D03*
Y592913D02*
D03*
Y562913D02*
D03*
Y582913D02*
D03*
Y572913D02*
D03*
Y552913D02*
D03*
Y542913D02*
D03*
Y532913D02*
D03*
X569095D02*
D03*
Y542913D02*
D03*
Y552913D02*
D03*
Y572913D02*
D03*
Y582913D02*
D03*
Y562913D02*
D03*
Y592913D02*
D03*
Y602913D02*
D03*
X533169Y638819D02*
D03*
Y648819D02*
D03*
Y658819D02*
D03*
X215158Y536850D02*
D03*
Y546850D02*
D03*
Y556850D02*
D03*
X537008Y699055D02*
D03*
Y709055D02*
D03*
X555512Y699055D02*
D03*
Y709055D02*
D03*
X334173Y618898D02*
D03*
Y628898D02*
D03*
Y588898D02*
D03*
Y598898D02*
D03*
Y608898D02*
D03*
X575866Y709055D02*
D03*
Y699055D02*
D03*
Y689055D02*
D03*
D129*
X229685Y825039D02*
D03*
X219685D02*
D03*
Y815039D02*
D03*
X229685D02*
D03*
Y805039D02*
D03*
X219685D02*
D03*
Y795039D02*
D03*
X229685D02*
D03*
Y785039D02*
D03*
X219685D02*
D03*
Y775039D02*
D03*
X229685D02*
D03*
Y765039D02*
D03*
X219685D02*
D03*
Y755039D02*
D03*
X229685D02*
D03*
Y745039D02*
D03*
X219685D02*
D03*
Y735039D02*
D03*
X229685D02*
D03*
X229528Y681220D02*
D03*
X219528D02*
D03*
Y671220D02*
D03*
X229528D02*
D03*
Y661221D02*
D03*
X219528D02*
D03*
Y651221D02*
D03*
X229528D02*
D03*
Y641221D02*
D03*
X219528D02*
D03*
Y631220D02*
D03*
X229528D02*
D03*
Y621220D02*
D03*
X219528D02*
D03*
Y611221D02*
D03*
X229528D02*
D03*
Y601221D02*
D03*
X219528D02*
D03*
Y591221D02*
D03*
X229528D02*
D03*
D130*
X559449Y819685D02*
D03*
X537795D02*
D03*
D131*
X582677Y868110D02*
D03*
X225197Y510236D02*
D03*
X583465Y509449D02*
D03*
X224410Y867717D02*
D03*
D132*
X518780Y778228D02*
D03*
X527067Y750591D02*
D03*
X518209Y754134D02*
D03*
X513386D02*
D03*
X541240Y643740D02*
D03*
X572638Y653031D02*
D03*
X583583D02*
D03*
X546496Y617087D02*
D03*
X505197Y613346D02*
D03*
X482282Y614487D02*
D03*
X498701Y620354D02*
D03*
X498150Y625669D02*
D03*
X498621Y630944D02*
D03*
X497146Y636122D02*
D03*
X498622Y641732D02*
D03*
X521850Y522441D02*
D03*
X452362Y677480D02*
D03*
X441535Y699488D02*
D03*
X418150Y709961D02*
D03*
X445827Y667323D02*
D03*
X401279Y683957D02*
D03*
X431358D02*
D03*
X289449Y677716D02*
D03*
X300551Y708819D02*
D03*
X286614Y627559D02*
D03*
X332716Y665984D02*
D03*
X333622Y670039D02*
D03*
X328819Y770866D02*
D03*
X332598Y768189D02*
D03*
X334173Y674685D02*
D03*
X330039Y752991D02*
D03*
X333424Y752164D02*
D03*
X334449Y748779D02*
D03*
X333386Y635118D02*
D03*
X333740Y643819D02*
D03*
X335709Y655000D02*
D03*
X437205Y654134D02*
D03*
X434920Y666140D02*
D03*
X430276Y668307D02*
D03*
X418740Y754213D02*
D03*
X326575Y804921D02*
D03*
X317047Y804961D02*
D03*
X335748Y809882D02*
D03*
X339606Y806850D02*
D03*
X336929Y798071D02*
D03*
X342284Y796220D02*
D03*
X340709Y801378D02*
D03*
X411221Y799173D02*
D03*
X400748Y799213D02*
D03*
X299252Y756850D02*
D03*
X299331Y776063D02*
D03*
X251260Y820551D02*
D03*
X367421Y674272D02*
D03*
X381811Y677618D02*
D03*
X324528Y642283D02*
D03*
X573091Y633287D02*
D03*
X585689Y626988D02*
D03*
X576496Y613189D02*
D03*
X342961Y557697D02*
D03*
X214904Y696969D02*
D03*
X210354Y606299D02*
D03*
X210630Y615590D02*
D03*
X258154Y570173D02*
D03*
X243347Y607756D02*
D03*
X240472Y616850D02*
D03*
X237854Y623600D02*
D03*
X317913Y703051D02*
D03*
X507874Y707224D02*
D03*
X240000Y714921D02*
D03*
Y727953D02*
D03*
X239291Y739370D02*
D03*
X236024Y730834D02*
D03*
X385512Y557480D02*
D03*
X387047Y542087D02*
D03*
X389409Y534488D02*
D03*
X241811Y540827D02*
D03*
X234429Y532697D02*
D03*
X264567Y542421D02*
D03*
X370980Y542441D02*
D03*
X364488Y539291D02*
D03*
X295039Y538071D02*
D03*
X278110Y543071D02*
D03*
X251732Y561887D02*
D03*
X259724Y596535D02*
D03*
X280039Y676457D02*
D03*
X282480Y670905D02*
D03*
X276535Y678661D02*
D03*
X281260Y767362D02*
D03*
X285984Y765472D02*
D03*
X329331Y561299D02*
D03*
X305669Y561732D02*
D03*
X357087Y767795D02*
D03*
X357165Y717992D02*
D03*
X353661Y677008D02*
D03*
X360512Y662520D02*
D03*
X358189Y659173D02*
D03*
X354350Y657579D02*
D03*
X348268Y663110D02*
D03*
X351476Y666063D02*
D03*
X364488Y662638D02*
D03*
X385315Y659134D02*
D03*
X390039Y658071D02*
D03*
X393425Y660512D02*
D03*
X401890Y653307D02*
D03*
X397441Y660906D02*
D03*
X398839Y634626D02*
D03*
X403443Y637559D02*
D03*
X386220Y633503D02*
D03*
X387736Y622815D02*
D03*
X388701Y582126D02*
D03*
X386614Y588937D02*
D03*
X383071Y560039D02*
D03*
X380906Y554823D02*
D03*
X385630Y594095D02*
D03*
X378445Y589961D02*
D03*
X387106Y618898D02*
D03*
X384134Y611693D02*
D03*
X386653Y604646D02*
D03*
X318110Y740630D02*
D03*
X276299Y749787D02*
D03*
X273110Y746496D02*
D03*
X276181Y577165D02*
D03*
X280118Y568661D02*
D03*
X274095Y567598D02*
D03*
X290984Y571102D02*
D03*
X361024Y556102D02*
D03*
X260709Y562165D02*
D03*
X236102Y715276D02*
D03*
X255276Y563779D02*
D03*
X269291Y811063D02*
D03*
X275098Y561654D02*
D03*
X240472Y764606D02*
D03*
Y743032D02*
D03*
X389764Y744803D02*
D03*
X353661Y739921D02*
D03*
X235906Y760039D02*
D03*
X256614Y724882D02*
D03*
X576221Y734764D02*
D03*
X574409Y731811D02*
D03*
X545768Y648819D02*
D03*
X550512Y673268D02*
D03*
X520393Y653070D02*
D03*
X523109Y662676D02*
D03*
X467362Y667362D02*
D03*
X462953Y668347D02*
D03*
X469370Y617638D02*
D03*
X469764Y621535D02*
D03*
X248858Y809764D02*
D03*
X248780Y815039D02*
D03*
X261732Y516378D02*
D03*
X378661Y550512D02*
D03*
X355681Y545079D02*
D03*
X358858Y550886D02*
D03*
X351476Y547441D02*
D03*
X349508Y612305D02*
D03*
X266929Y530807D02*
D03*
X281190Y513802D02*
D03*
X305020Y506398D02*
D03*
X489461Y717264D02*
D03*
X472933Y723032D02*
D03*
X439173Y723622D02*
D03*
X416831Y726968D02*
D03*
X505809Y750591D02*
D03*
X452264Y722342D02*
D03*
X454134Y729823D02*
D03*
X428937Y732382D02*
D03*
X404626Y726673D02*
D03*
X247342Y648327D02*
D03*
X243209Y650886D02*
D03*
X239961Y653839D02*
D03*
X212303Y701181D02*
D03*
X564075Y720276D02*
D03*
X566563Y725174D02*
D03*
X567843Y731040D02*
D03*
X545768Y669783D02*
D03*
X463189Y653445D02*
D03*
X462894Y615945D02*
D03*
X485630Y746555D02*
D03*
X587106Y734547D02*
D03*
X588189Y629724D02*
D03*
X591978Y739813D02*
D03*
X591929Y623917D02*
D03*
X596654Y743504D02*
D03*
Y619685D02*
D03*
X544587Y715650D02*
D03*
X528839Y701083D02*
D03*
X546161Y683563D02*
D03*
X526772D02*
D03*
X357087Y727953D02*
D03*
X550157Y699055D02*
D03*
X460099Y650138D02*
D03*
X462697Y607677D02*
D03*
X479035Y655118D02*
D03*
X469587Y611811D02*
D03*
X541240Y673425D02*
D03*
X472835Y661516D02*
D03*
X285925Y831496D02*
D03*
X283957Y835925D02*
D03*
X518209Y746555D02*
D03*
X513386D02*
D03*
X509449Y760630D02*
D03*
X513976Y765256D02*
D03*
X270768Y846260D02*
D03*
X329921Y580315D02*
D03*
X360138Y524311D02*
D03*
X370177D02*
D03*
X375000Y524213D02*
D03*
X497441Y603839D02*
D03*
X497244Y608760D02*
D03*
X498721Y612894D02*
D03*
X276772Y856496D02*
D03*
X361614Y857185D02*
D03*
X353248Y846653D02*
D03*
X362894Y831890D02*
D03*
X352362Y698917D02*
D03*
X317913Y593602D02*
D03*
X265551Y573622D02*
D03*
X238583Y574508D02*
D03*
X292028Y523130D02*
D03*
X507382Y808366D02*
D03*
X285925Y816535D02*
D03*
Y820276D02*
D03*
Y824016D02*
D03*
Y827756D02*
D03*
X361614Y643307D02*
D03*
X532776Y545866D02*
D03*
X487008Y535335D02*
D03*
X521358Y543110D02*
D03*
X525886Y539468D02*
D03*
X523228Y578051D02*
D03*
X520177Y588779D02*
D03*
X493405Y572736D02*
D03*
X478543Y571752D02*
D03*
X479232Y561122D02*
D03*
X482283Y583858D02*
D03*
X484842Y586319D02*
D03*
X478937Y557579D02*
D03*
X477756Y554232D02*
D03*
X551673Y573917D02*
D03*
X487008Y565551D02*
D03*
X503543Y770079D02*
D03*
X280118Y616339D02*
D03*
X327953Y620965D02*
D03*
X326279Y614272D02*
D03*
X328366Y598898D02*
D03*
X292520Y607677D02*
D03*
X264862Y609646D02*
D03*
X294094Y627953D02*
D03*
X399311Y647835D02*
D03*
X348327Y620079D02*
D03*
X381653Y621614D02*
D03*
X370177Y607185D02*
D03*
X333563Y582972D02*
D03*
X344291Y567323D02*
D03*
X341831Y548425D02*
D03*
X336516Y531988D02*
D03*
X305512Y573622D02*
D03*
X305709Y531004D02*
D03*
X298130Y552461D02*
D03*
X315748Y506693D02*
D03*
X315846Y522244D02*
D03*
X270079Y542421D02*
D03*
X356142Y838031D02*
D03*
X367126Y836811D02*
D03*
X272933Y835925D02*
D03*
X499606Y831594D02*
D03*
X484547Y808071D02*
D03*
X477658Y832677D02*
D03*
Y761811D02*
D03*
X454035Y831791D02*
D03*
X448228Y690846D02*
D03*
X299410Y499606D02*
D03*
X434547Y697441D02*
D03*
X478543Y690650D02*
D03*
X438681Y710728D02*
D03*
X250197Y661221D02*
D03*
X292717Y644488D02*
D03*
X258268Y640945D02*
D03*
X296457Y634449D02*
D03*
X257143Y662914D02*
D03*
X256398Y679823D02*
D03*
X256299Y709055D02*
D03*
X255945Y756929D02*
D03*
X288583Y874409D02*
D03*
X400295Y699016D02*
D03*
X438681Y665748D02*
D03*
X495177Y596457D02*
D03*
X386614Y496752D02*
D03*
X348721Y605118D02*
D03*
X478642Y547835D02*
D03*
X456201Y581791D02*
D03*
X460827Y581988D02*
D03*
X464862Y581890D02*
D03*
X473228Y567126D02*
D03*
X465354Y567224D02*
D03*
X484646Y596457D02*
D03*
X298150Y685157D02*
D03*
Y663110D02*
D03*
X298031Y729528D02*
D03*
X256102Y774508D02*
D03*
X345276Y577953D02*
D03*
X342520Y573228D02*
D03*
X424016Y567323D02*
D03*
X421654Y570079D02*
D03*
X441890Y581339D02*
D03*
X478740Y506299D02*
D03*
X391732Y510236D02*
D03*
X479345Y502151D02*
D03*
X388799Y507303D02*
D03*
X502756Y804331D02*
D03*
X488425Y585197D02*
D03*
X441890Y655118D02*
D03*
X441732Y669291D02*
D03*
X422047Y672835D02*
D03*
X414331Y669685D02*
D03*
X408425D02*
D03*
X414331Y655079D02*
D03*
X347638Y507579D02*
D03*
X350541Y509498D02*
D03*
X353150Y512205D02*
D03*
X359744Y646850D02*
D03*
X357283Y649213D02*
D03*
X354626Y651673D02*
D03*
X379961Y508228D02*
D03*
X374961Y508209D02*
D03*
X484842Y496850D02*
D03*
X370079Y563878D02*
D03*
X380020Y532087D02*
D03*
X505118Y589862D02*
D03*
X513976Y656791D02*
D03*
X492126Y612106D02*
D03*
X385827Y639468D02*
D03*
X370079Y633514D02*
D03*
X389567Y671358D02*
D03*
X422047Y702362D02*
D03*
X389469Y716732D02*
D03*
X550098Y687106D02*
D03*
X542224D02*
D03*
X542382Y699055D02*
D03*
X298268Y570217D02*
D03*
X315591Y548976D02*
D03*
X372047Y875197D02*
D03*
X364567Y859055D02*
D03*
X281102Y857480D02*
D03*
X272342Y534350D02*
D03*
X267913Y534350D02*
D03*
X325492Y623819D02*
D03*
X478642Y726279D02*
D03*
X494882Y705709D02*
D03*
X399016Y627854D02*
D03*
X399095Y640531D02*
D03*
X369291Y832087D02*
D03*
Y828347D02*
D03*
Y824606D02*
D03*
Y820866D02*
D03*
Y817126D02*
D03*
X371654Y814272D02*
D03*
X376083Y814173D02*
D03*
X293012Y814173D02*
D03*
X288583Y814272D02*
D03*
X373819Y852854D02*
D03*
X369882Y870965D02*
D03*
Y867126D02*
D03*
Y863287D02*
D03*
X369980Y859449D02*
D03*
Y855020D02*
D03*
X290945Y853051D02*
D03*
X286910Y855020D02*
D03*
Y859449D02*
D03*
X286811Y863287D02*
D03*
Y867126D02*
D03*
Y870965D02*
D03*
X276772Y827854D02*
D03*
X518898Y790158D02*
D03*
X510532Y788681D02*
D03*
X411417Y651575D02*
D03*
X406496Y556693D02*
D03*
X397874Y560472D02*
D03*
X437795Y582283D02*
D03*
X420236Y582126D02*
D03*
X347638Y496654D02*
D03*
X328150Y499705D02*
D03*
X305965Y581890D02*
D03*
X317913Y570118D02*
D03*
X312402D02*
D03*
X298622Y599114D02*
D03*
X357087Y684646D02*
D03*
Y779331D02*
D03*
X347284Y794921D02*
D03*
X492815Y835630D02*
D03*
X470768Y834744D02*
D03*
X446752D02*
D03*
X459744Y702362D02*
D03*
X398327Y595256D02*
D03*
Y601161D02*
D03*
X471673Y603130D02*
D03*
X460236Y556791D02*
D03*
X498622Y647736D02*
D03*
X452756Y580709D02*
D03*
X471260Y596457D02*
D03*
X408130Y702697D02*
D03*
X498032Y590551D02*
D03*
X498819Y593701D02*
D03*
X400098Y713406D02*
D03*
X533476Y872035D02*
D03*
X537020Y875185D02*
D03*
X541688Y872035D02*
D03*
X545419Y875185D02*
D03*
X557087Y765945D02*
D03*
Y757874D02*
D03*
X551968D02*
D03*
X554528Y761909D02*
D03*
X551968Y765945D02*
D03*
X554528Y769980D02*
D03*
X557087Y774016D02*
D03*
X551968D02*
D03*
X482185Y705669D02*
D03*
X401575Y581693D02*
D03*
X395472Y573819D02*
D03*
X397933Y567323D02*
D03*
X397146Y510138D02*
D03*
X505903Y498917D02*
D03*
X497142D02*
D03*
X514665D02*
D03*
X547275D02*
D03*
X554491D02*
D03*
X540059D02*
D03*
X550098Y523130D02*
D03*
X408366Y653543D02*
D03*
X418110Y676772D02*
D03*
X450492Y655118D02*
D03*
Y665945D02*
D03*
X496949Y650984D02*
D03*
X498917Y654528D02*
D03*
X528543Y643405D02*
D03*
X483366Y611122D02*
D03*
X537992Y633760D02*
D03*
X471260Y664862D02*
D03*
X492224Y671063D02*
D03*
X495374Y674606D02*
D03*
X537008Y679429D02*
D03*
X532480Y676673D02*
D03*
X528150Y673917D02*
D03*
X470866Y584646D02*
D03*
X477224Y581161D02*
D03*
X472835Y643504D02*
D03*
X325197Y556595D02*
D03*
X322539Y559646D02*
D03*
X243996Y584941D02*
D03*
D133*
X420866Y858957D02*
D03*
X427461Y761221D02*
D03*
X436909Y811417D02*
D03*
X420669Y881496D02*
D03*
X263189Y780709D02*
D03*
X264075Y731398D02*
D03*
X263976Y686516D02*
D03*
X258366Y881496D02*
D03*
X389764Y810827D02*
D03*
X514075Y604921D02*
D03*
X505020Y594980D02*
D03*
X505118Y681988D02*
D03*
X389469Y687598D02*
D03*
X493701Y761221D02*
D03*
X317913D02*
D03*
Y584547D02*
D03*
X306594Y590551D02*
D03*
Y809842D02*
D03*
X249705Y799311D02*
D03*
X279528D02*
D03*
D134*
X283268Y532480D02*
D03*
X287598D02*
D03*
X283268Y528150D02*
D03*
X287598D02*
D03*
M02*
