M48
;Layer_Color=9474304
;FILE_FORMAT=2:5
INCH,LZ
;TYPE=PLATED
T1F00S00C0.00787
T2F00S00C0.01575
T3F00S00C0.03937
T4F00S00C0.04331
T5F00S00C0.04724
T6F00S00C0.05118
T7F00S00C0.07087
T8F00S00C0.10000
T9F00S00C0.11811
T10F00S00C0.17717
%
T01
X0283268Y052815
X0287598
Y053248
X0283268
T02
X0479345Y0502151
X047874Y0506299
X0484842Y049685
X0525197Y0499409
X0532087
X0538976
X0529035Y0524213
X0514567Y0524016
X0515354Y0530709
X0520177Y0538189
X0519291Y0545768
X0515354Y0547933
X0501575Y0550886
X0497933Y0547835
X0503543Y0541339
X0498917Y0534547
X0507677Y0558071
X0507677Y0571654
X0501575Y0569783
X0493307Y0567224
X0487008Y0563681
X0479134Y0560236
Y0556693
X0478937Y055315
X0476378Y0550787
X0478642Y0547835
X0473228Y0567126
X0474902Y0570866
X0477559Y057874
X048189Y0579921
X0485039Y058189
X0488425Y0585197
X0486909Y0575984
X0484646Y0596457
X0495177
X0498819Y0593701
X0498032Y0590551
X0505118Y0589862
X0514075Y0590158
X0520472Y0588976
X0522441Y0586221
X0526083Y0584744
X0531693Y0567126
X0537303Y0570276
X054439Y0573327
X0549114Y0567913
X0545768Y054252
X0550098Y0535433
X0532087Y0552756
X0539961Y0616142
X0573819Y0616339
X0580709Y0615846
X0498819Y0614468
X0498524Y0619587
X0496949Y0624803
X0496654Y0608268
Y0603543
X0492126Y0612106
X0483071Y0612598
X0471673Y0609035
Y060313
X047126Y0596457
X0471673Y0620847
X0464862Y058189
X0460827Y0581988
X0456201Y0581791
X0452756Y0580709
X044189Y0581339
X0437795Y0582283
X0420236Y0582126
X0421654Y0570079
X0424016Y0567323
X0406496Y0556693
X0397874Y0560472
X0386221Y0567323
X0386614Y0573228
X038937Y0577953
X0398327Y0583445
Y0595256
Y0601161
X0385531Y0612992
X0380709Y0620669
X0370079Y0608858
X0351181Y0609055
X0348721Y0605118
X0348425Y0619291
X0333465Y0591437
X0333858Y0585433
X0334252Y0570472
X033937Y0567323
X034252Y0573228
X0345276Y0577953
X0317913Y0570118
X0315591Y0548976
Y0531732
X031565Y051437
X032815Y0499705
X0335433Y0494095
X0347638Y0496654
Y0507579
X0350541Y0509498
X035315Y0512205
X0359154Y0525295
X0369961Y0525079
X037441Y0527067
X038002Y0532087
X038565Y0536831
X0388583Y0539764
X0380906Y0554823
X0370079Y0563878
X0380807Y0589665
X0317913Y0598819
X0374961Y0508209
X0379961Y0508228
X0388799Y0507303
X0391732Y0510236
X0386614Y0496752
X0460236Y0556791
X0465354Y0567224
X0312402Y0570118
X0301732Y056939
X0298268Y0570217
X0290945Y0569095
X0269587Y056939
X0275492Y0577067
X0264567Y0595433
X0259449Y0595374
X0270571Y0606102
X0294094Y0613779
X03Y0617717
Y0608268
X0298622Y0599114
X0305965Y058189
X0298327Y0552559
X0293504Y0539173
X0289272Y052376
X0278878Y0534154
X0270079Y0542421
X0264567Y0542421
X0279528Y0504823
X029941Y0499606
X030502Y051437
X0294094Y0626378
X0296457Y0634449
X0292717Y0644488
X029815Y066311
Y0685157
X0298031Y0708898
Y0729528
X0298425Y0756929
Y0777953
X0256102Y0774508
X0255945Y0756929
X0256594Y0723228
X0256299Y0709055
X0256398Y0679823
X0257143Y0662914
X0250197Y0661221
X0246555Y0654035
X0249188Y0650197
X0254134Y0648524
X0258268Y0640945
X0277461Y0670965
X0219488Y0701673
X0217421Y070748
X0318012Y0714075
X0347244Y0715748
X0357087Y0729134
X0362598Y0741437
X0347342Y0745571
X033937Y077126
X0357087Y0779331
X0354232Y0694783
X0363779Y069813
X0357087Y0684646
X0351378Y0662106
X0348327Y0658858
X0354626Y0651673
X0357283Y0649213
X0359744Y064685
X0361614Y0643307
X0370079Y0633514
X0386221Y0633661
X0385827Y0639468
X0399095Y0640531
X0399016Y0627854
X0411417Y0651575
X0414331Y0655079
X0408425
Y0669685
X0414331
X0422047Y0672835
X0434744Y0665945
X0438681Y0665748
X0441732Y0669291
X0444587Y067626
X0448228Y0690846
X0434547Y0697441
X0422047Y0702362
X041998Y0709842
X040813Y0702697
X0400295Y0699016
X0400098Y0713406
X0389469Y0716732
X0389567Y0671358
X040435Y067626
X0437205Y0654134
X044189Y0655118
X0465354Y0668504
X0468504Y0666535
X0459744Y0702362
X0438681Y0710728
X0364469Y0658957
X0335827Y0655118
X034252Y0669685
X0329035Y0639173
X0329134Y0635039
X0471654Y0643307
X0498622Y0641732
Y0647736
X0497047Y0653445
X0496654Y0636089
X049813Y0630315
X0505413Y0632579
X0520472Y0648721
X0523228Y0658957
X0526181Y0663779
X0528937Y0667323
X0530217Y0670866
X0533661Y0673425
X053002Y0683563
X0542224Y0687106
X0546161Y0683563
X0550098Y0687106
X0550157Y0699055
X0542382
X0528839Y0701083
X0544587Y071565
X0561811Y0708661
Y068937
X0545768Y0675591
X0549311Y0643898
X0534449Y0645177
X0531988Y0653543
X0513976Y0656791
X0492224Y0669291
X0478543Y069065
X0486614Y0709154
X0491732Y0708858
X0496614Y0707224
X0513386Y0737402
X051811
X0527067Y0746654
X0505807
X0480413Y0746457
X0477658Y0761811
X0554528Y0761909
X0559646
X0557087Y0757874
X0551968
Y0765945
X0557087
X0562205
X0559646Y076998
X0554528
X0551968Y0774016
X0557087
X0562205
Y0757874
X0518898Y0790158
X0510532Y0788681
X0510236Y0808405
X0502756Y0804331
X0484547Y0808071
X0477658Y0832677
X0470768Y0834744
X0492815Y083563
X0499606Y0831594
X0501075Y0878453
X0497532Y0881602
X0492863Y0878453
X0489132Y0881602
X0484652Y0878453
X0480734Y0881602
X047644Y0878453
X0472335Y0881602
X0468229Y0878453
X0463936Y0881602
X0460017Y0878453
X0455537Y0881602
X0451806Y0878453
X0447138Y0881602
X0443595Y0878453
X0446752Y0834744
X0454035Y0831791
X0370472Y0832677
X0369291Y0829232
Y0825394
X0369193Y0821555
X036939Y0817717
X0371654Y0814272
X0376083Y0814173
X0359842Y0827953
X0356142Y0838031
X0367126Y0836811
X036998Y085502
Y0859449
X0369882Y0863287
Y0867126
Y0870965
X0372047Y0875197
X0364567Y0859055
X0359842Y0858661
X0373819Y0852854
X0352264Y0846457
X0347284Y0794921
X0362205Y0794095
X0293012Y0814173
X0288583Y0814272
X0286319Y0817717
X0286122Y0821555
X0286221Y0825394
Y0829232
X0287402Y0832677
X0283957Y0835925
X0272933
X0276772Y0827854
X0269291Y0844488
X0276772Y0856496
X0281102Y085748
X028691Y0859449
X0286811Y0863287
Y0867126
Y0870965
X0288583Y0874409
X028691Y085502
X0290945Y0853051
T03
X050502Y059498
X0514075Y0604921
X0317913Y0584547
X0306594Y0590551
X0263976Y0686516
X0264075Y0731398
X0263189Y0780709
X0317913Y0761221
X0389469Y0687598
X0505118Y0681988
X0493504Y0723327
X0493701Y0730709
X0493701Y0761221
X0498721Y0777165
X0426378Y0811614
X0389764Y0810827
X0420571Y0880512
X0258366Y0881496
X0240453Y0799311
X0279528
X0306594Y0809842
T04
X0558898Y0533071
X0568898
Y0543071
Y0553071
Y0563071
Y0573071
Y0583071
Y0593071
Y0603071
X0558898
Y0593071
Y0583071
Y0573071
Y0563071
Y0553071
Y0543071
X0333858Y0599213
Y0609213
Y0619213
X0233071Y055685
Y054685
Y053685
X0333858Y0629213
X0540945Y0638819
Y0648819
Y0658819
X0537008Y0699055
Y0709055
X0555512
Y0699055
T05
X0229528Y0591221
Y0601221
Y0611221
Y062122
Y063122
Y0641221
Y0651221
Y0661221
Y067122
Y068122
X0579764Y0686063
Y0696063
Y0706063
Y0716063
Y0726063
Y0676063
Y0666063
Y0656063
Y0646063
Y0636063
T06
X0219528Y0591221
Y0601221
Y0611221
Y062122
Y063122
Y0641221
Y0651221
Y0661221
Y067122
Y068122
X0589764Y0686063
Y0696063
Y0706063
Y0716063
Y0726063
Y0676063
Y0666063
Y0656063
Y0646063
Y0636063
T07
X0537795Y0819685
X0559449
T08
X0224528Y058122
Y0691221
X0584764Y0736063
Y0626063
T09
X0588189Y0819685
T10
X0583465Y0509449
X0225197Y0510236
X0582677Y086811
X022441Y0867717
M30
