G04 Layer_Color=32896*
%FSLAX25Y25*%
%MOIN*%
G70*
G01*
G75*
%ADD70C,0.00394*%
%ADD72C,0.00591*%
G36*
X371436Y718466D02*
X371549D01*
Y718352D01*
X371663D01*
Y718239D01*
X371776D01*
Y718126D01*
X371889D01*
Y718012D01*
X372003D01*
Y717899D01*
X372116D01*
Y717786D01*
X372229D01*
Y717673D01*
Y717559D01*
X372456D01*
Y717446D01*
Y717333D01*
X372909D01*
Y717220D01*
X373022D01*
Y717106D01*
X373135D01*
Y716993D01*
X373248D01*
Y716880D01*
X373362D01*
Y716767D01*
X373475D01*
Y716653D01*
X373588D01*
Y716540D01*
X373701D01*
Y716427D01*
X374041D01*
Y716314D01*
X374154D01*
Y716200D01*
X374268D01*
Y716087D01*
X374381D01*
Y715974D01*
X374494D01*
Y715861D01*
X374607D01*
Y715747D01*
Y715634D01*
X374834D01*
Y715521D01*
Y715408D01*
X375287D01*
Y715294D01*
X375400D01*
Y715181D01*
X375514D01*
Y715068D01*
X375627D01*
Y714954D01*
X375740D01*
Y714841D01*
X375853D01*
Y714728D01*
X375967D01*
Y714615D01*
X376080D01*
Y714501D01*
X376306D01*
Y714388D01*
Y714275D01*
X376759D01*
Y714162D01*
Y714048D01*
X376873D01*
Y713935D01*
X376986D01*
Y713822D01*
X377099D01*
Y713709D01*
X377212D01*
Y713595D01*
X377326D01*
Y713482D01*
X377439D01*
Y713369D01*
X377552D01*
Y713256D01*
X378005D01*
Y713142D01*
Y713029D01*
X378232D01*
Y712916D01*
Y712803D01*
X378458D01*
Y712689D01*
Y712576D01*
X378685D01*
Y712463D01*
Y712350D01*
X379138D01*
Y712236D01*
Y712123D01*
X379364D01*
Y712010D01*
Y711897D01*
X379591D01*
Y711783D01*
Y711670D01*
X379704D01*
Y711557D01*
X379817D01*
Y711443D01*
X379930D01*
Y711330D01*
X380157D01*
Y711217D01*
Y711104D01*
X380610D01*
Y710990D01*
Y710877D01*
X380837D01*
Y710764D01*
Y710651D01*
X381063D01*
Y710537D01*
Y710424D01*
X381290D01*
Y710311D01*
Y710198D01*
X381743D01*
Y710084D01*
Y709971D01*
X381969D01*
Y709858D01*
Y709745D01*
X382196D01*
Y709631D01*
X382309D01*
Y709518D01*
Y709405D01*
X382536D01*
Y709292D01*
Y709178D01*
X382762D01*
Y709065D01*
Y708952D01*
X383215D01*
Y708839D01*
Y708725D01*
X383442D01*
Y708612D01*
Y708499D01*
X383668D01*
Y708385D01*
Y708272D01*
X383895D01*
Y708159D01*
Y708046D01*
X384348D01*
Y707932D01*
X384461D01*
Y707819D01*
X384574D01*
Y707706D01*
X384687D01*
Y707593D01*
X384801D01*
Y707479D01*
X384914D01*
Y707366D01*
X385027D01*
Y707253D01*
X385140D01*
Y707140D01*
Y707026D01*
X385367D01*
Y706913D01*
Y706800D01*
X385820D01*
Y706686D01*
Y706573D01*
X386047D01*
Y706460D01*
Y706347D01*
X386273D01*
Y706234D01*
Y706120D01*
X386500D01*
Y706007D01*
X386613D01*
Y705894D01*
X386953D01*
Y705781D01*
X387066D01*
Y705667D01*
X387179D01*
Y705554D01*
X387292D01*
Y705441D01*
X387406D01*
Y705328D01*
X387519D01*
Y705214D01*
X387632D01*
Y705101D01*
X387745D01*
Y704988D01*
X387859D01*
Y704875D01*
X387972D01*
Y704761D01*
Y704648D01*
X388425D01*
Y704535D01*
X388538D01*
Y704421D01*
X388651D01*
Y704308D01*
X388765D01*
Y704195D01*
X388878D01*
Y704082D01*
X388991D01*
Y703968D01*
X389105D01*
Y703855D01*
X389218D01*
Y703742D01*
X389671D01*
Y703629D01*
Y703515D01*
X389897D01*
Y703402D01*
Y703289D01*
X390124D01*
Y703176D01*
Y703062D01*
X390350D01*
Y702949D01*
Y702836D01*
X390464D01*
Y702723D01*
X390803D01*
Y702609D01*
X390917D01*
Y702496D01*
X391030D01*
Y702383D01*
X391143D01*
Y702270D01*
X391256D01*
Y702156D01*
X391370D01*
Y702043D01*
X391596D01*
Y701930D01*
Y701817D01*
X391823D01*
Y701703D01*
Y701590D01*
X392276D01*
Y701477D01*
Y701363D01*
X392502D01*
Y701250D01*
Y701137D01*
X392729D01*
Y701024D01*
Y700910D01*
X392955D01*
Y700797D01*
Y700684D01*
X393069D01*
Y700571D01*
X393408D01*
Y700457D01*
X393522D01*
Y700344D01*
X393748D01*
Y700231D01*
Y700118D01*
X393975D01*
Y700004D01*
Y699891D01*
X394201D01*
Y699778D01*
Y699664D01*
X394428D01*
Y699551D01*
Y699438D01*
X394881D01*
Y699325D01*
Y699212D01*
X395107D01*
Y699098D01*
Y698985D01*
X395334D01*
Y698872D01*
Y698759D01*
X395560D01*
Y698645D01*
Y698532D01*
X396013D01*
Y698419D01*
X396127D01*
Y698306D01*
Y698192D01*
X396353D01*
Y698079D01*
Y697966D01*
X396580D01*
Y697852D01*
Y697739D01*
X396806D01*
Y697626D01*
Y697513D01*
X397259D01*
Y697399D01*
Y697286D01*
X397486D01*
Y697173D01*
Y697060D01*
X397712D01*
Y696946D01*
Y696833D01*
X397939D01*
Y696720D01*
X398052D01*
Y696607D01*
X398165D01*
Y696493D01*
X398278D01*
Y696380D01*
X398618D01*
Y696267D01*
X398731D01*
Y696154D01*
X398845D01*
Y696040D01*
X398958D01*
Y695927D01*
Y695814D01*
X399184D01*
Y695701D01*
Y695587D01*
X399411D01*
Y695474D01*
Y695361D01*
X399864D01*
Y695248D01*
Y695134D01*
X400091D01*
Y695021D01*
X400204D01*
Y694908D01*
X400317D01*
Y694794D01*
X400430D01*
Y694681D01*
X400544D01*
Y694568D01*
X400657D01*
Y694455D01*
X400997D01*
Y694341D01*
X401110D01*
Y694228D01*
X401223D01*
Y694115D01*
X401336D01*
Y694002D01*
X401450D01*
Y693888D01*
X401563D01*
Y693775D01*
X401676D01*
Y693662D01*
X401789D01*
Y693549D01*
Y693435D01*
X402016D01*
Y693322D01*
X402129D01*
Y693209D01*
X402469D01*
Y693096D01*
X402582D01*
Y692982D01*
X402696D01*
Y692869D01*
X402809D01*
Y692756D01*
X402922D01*
Y692642D01*
X403035D01*
Y692529D01*
X403149D01*
Y692416D01*
X403262D01*
Y692303D01*
X403715D01*
Y692190D01*
Y692076D01*
X403941D01*
Y691963D01*
Y691850D01*
X404168D01*
Y691737D01*
Y691623D01*
X404281D01*
Y691510D01*
X404394D01*
Y691397D01*
X404508D01*
Y691283D01*
X404621D01*
Y691170D01*
X404734D01*
Y691057D01*
X405187D01*
Y690944D01*
Y690830D01*
X405414D01*
Y690717D01*
Y690604D01*
X405640D01*
Y690491D01*
Y690377D01*
X405867D01*
Y690264D01*
Y690151D01*
X406320D01*
Y690038D01*
Y689924D01*
X406546D01*
Y689811D01*
Y689698D01*
X406773D01*
Y689584D01*
Y689471D01*
X406886D01*
Y689358D01*
X406999D01*
Y689245D01*
X407113D01*
Y689131D01*
X407339D01*
Y689018D01*
Y688905D01*
X407792D01*
Y688792D01*
Y688679D01*
X408019D01*
Y688565D01*
Y688452D01*
X408245D01*
Y688339D01*
Y688225D01*
X407566D01*
Y688112D01*
X407452D01*
Y687999D01*
X406773D01*
Y687886D01*
Y687772D01*
X406093D01*
Y687659D01*
Y687546D01*
X405414D01*
Y687433D01*
Y687319D01*
X404734D01*
Y687206D01*
X404621D01*
Y687093D01*
X404168D01*
Y686980D01*
Y686866D01*
X403488D01*
Y686753D01*
Y686640D01*
X402809D01*
Y686527D01*
Y686413D01*
X401903D01*
Y686300D01*
X401789D01*
Y686187D01*
Y686074D01*
X401110D01*
Y685960D01*
X400997D01*
Y685847D01*
X400657D01*
Y685734D01*
X400544D01*
Y685620D01*
X399864D01*
Y685507D01*
Y685394D01*
X399184D01*
Y685281D01*
Y685168D01*
X398392D01*
Y685054D01*
Y684941D01*
Y684828D01*
Y684715D01*
Y684601D01*
Y684488D01*
Y684375D01*
Y684261D01*
Y684148D01*
X398731D01*
Y684035D01*
Y683922D01*
X398958D01*
Y683808D01*
Y683695D01*
X399184D01*
Y683582D01*
Y683469D01*
X399411D01*
Y683355D01*
Y683242D01*
X399638D01*
Y683129D01*
Y683016D01*
X399864D01*
Y682902D01*
Y682789D01*
Y682676D01*
Y682562D01*
Y682449D01*
X400091D01*
Y682336D01*
X400204D01*
Y682223D01*
X400317D01*
Y682109D01*
X400430D01*
Y681996D01*
X400657D01*
Y681883D01*
Y681770D01*
X400883D01*
Y681657D01*
Y681543D01*
X401110D01*
Y681430D01*
Y681317D01*
X401336D01*
Y681203D01*
Y681090D01*
X401563D01*
Y680977D01*
Y680864D01*
X401789D01*
Y680750D01*
Y680637D01*
X402016D01*
Y680524D01*
Y680411D01*
X402129D01*
Y680297D01*
X402242D01*
Y680184D01*
X402356D01*
Y680071D01*
X402469D01*
Y679958D01*
X402582D01*
Y679844D01*
X402696D01*
Y679731D01*
X402809D01*
Y679618D01*
X403035D01*
Y679505D01*
Y679391D01*
X403262D01*
Y679278D01*
Y679165D01*
X403488D01*
Y679051D01*
Y678938D01*
X403375D01*
Y678825D01*
Y678712D01*
X403715D01*
Y678598D01*
Y678485D01*
X403941D01*
Y678372D01*
Y678259D01*
X404055D01*
Y678145D01*
X404168D01*
Y678032D01*
X404281D01*
Y677919D01*
X404394D01*
Y677806D01*
X404508D01*
Y677692D01*
X404621D01*
Y677579D01*
X404734D01*
Y677466D01*
X404847D01*
Y677353D01*
X404961D01*
Y677239D01*
X405074D01*
Y677126D01*
X405187D01*
Y677013D01*
X405300D01*
Y676900D01*
X405414D01*
Y676786D01*
X405640D01*
Y676673D01*
Y676560D01*
X405867D01*
Y676447D01*
Y676333D01*
X406093D01*
Y676220D01*
Y676107D01*
X406207D01*
Y675994D01*
X406320D01*
Y675880D01*
X406433D01*
Y675767D01*
X406546D01*
Y675654D01*
X406660D01*
Y675540D01*
X406773D01*
Y675427D01*
Y675314D01*
Y675201D01*
Y675087D01*
X406999D01*
Y674974D01*
X407113D01*
Y674861D01*
X407226D01*
Y674748D01*
X407339D01*
Y674635D01*
X407452D01*
Y674521D01*
X407566D01*
Y674408D01*
X407679D01*
Y674295D01*
X407792D01*
Y674181D01*
X407905D01*
Y674068D01*
X408019D01*
Y673955D01*
X408132D01*
Y673842D01*
X408245D01*
Y673728D01*
X408358D01*
Y673615D01*
X408472D01*
Y673502D01*
Y673389D01*
X408698D01*
Y673275D01*
Y673162D01*
X408925D01*
Y673049D01*
X409038D01*
Y672936D01*
X409151D01*
Y672822D01*
X409265D01*
Y672709D01*
X409378D01*
Y672596D01*
X409491D01*
Y672482D01*
X409604D01*
Y672369D01*
X409718D01*
Y672256D01*
X409831D01*
Y672143D01*
X409944D01*
Y672029D01*
X410057D01*
Y671916D01*
X410171D01*
Y671803D01*
X410057D01*
Y671690D01*
Y671576D01*
X410171D01*
Y671463D01*
X410397D01*
Y671350D01*
Y671237D01*
X410624D01*
Y671123D01*
Y671010D01*
X410850D01*
Y670897D01*
Y670784D01*
X411077D01*
Y670670D01*
Y670557D01*
X411303D01*
Y670444D01*
Y670331D01*
X411530D01*
Y670217D01*
X411643D01*
Y670104D01*
X411756D01*
Y669991D01*
X411869D01*
Y669878D01*
X411983D01*
Y669764D01*
X412096D01*
Y669651D01*
X412209D01*
Y669538D01*
X412322D01*
Y669424D01*
X412436D01*
Y669311D01*
X412549D01*
Y669198D01*
Y669085D01*
X412776D01*
Y668972D01*
Y668858D01*
X413002D01*
Y668745D01*
Y668632D01*
X413229D01*
Y668518D01*
Y668405D01*
X413455D01*
Y668292D01*
Y668179D01*
Y668065D01*
Y667952D01*
X413682D01*
Y667839D01*
Y667726D01*
X413908D01*
Y667612D01*
X414021D01*
Y667499D01*
X414135D01*
Y667386D01*
X414248D01*
Y667273D01*
X414361D01*
Y667159D01*
X414474D01*
Y667046D01*
Y666933D01*
X414701D01*
Y666820D01*
Y666706D01*
X414927D01*
Y666593D01*
Y666480D01*
X415154D01*
Y666367D01*
Y666253D01*
X415380D01*
Y666140D01*
Y666027D01*
X415607D01*
Y665914D01*
Y665800D01*
X415833D01*
Y665687D01*
Y665574D01*
X416060D01*
Y665460D01*
X416173D01*
Y665347D01*
X416287D01*
Y665234D01*
Y665121D01*
Y665007D01*
Y664894D01*
Y664781D01*
X416626D01*
Y664668D01*
Y664555D01*
X416853D01*
Y664441D01*
Y664328D01*
X417079D01*
Y664215D01*
Y664101D01*
X417306D01*
Y663988D01*
Y663875D01*
X417532D01*
Y663762D01*
Y663648D01*
X417759D01*
Y663535D01*
Y663422D01*
X417985D01*
Y663309D01*
Y663195D01*
X418212D01*
Y663082D01*
Y662969D01*
X418438D01*
Y662856D01*
X418552D01*
Y662742D01*
X418665D01*
Y662629D01*
X418778D01*
Y662516D01*
X418891D01*
Y662402D01*
X419005D01*
Y662289D01*
Y662176D01*
X419231D01*
Y662063D01*
Y661949D01*
X419458D01*
Y661836D01*
Y661723D01*
X419684D01*
Y661610D01*
Y661496D01*
X419458D01*
Y661610D01*
X419344D01*
Y661723D01*
X419231D01*
Y661836D01*
X419118D01*
Y661949D01*
X419005D01*
Y662063D01*
X418891D01*
Y662176D01*
Y662289D01*
X418665D01*
Y662402D01*
Y662516D01*
X418212D01*
Y662629D01*
Y662742D01*
X417985D01*
Y662856D01*
Y662969D01*
X417759D01*
Y663082D01*
Y663195D01*
X417306D01*
Y663309D01*
X417193D01*
Y663422D01*
X417079D01*
Y663535D01*
X416966D01*
Y663648D01*
X416853D01*
Y663762D01*
X416740D01*
Y663875D01*
X416626D01*
Y663988D01*
X416287D01*
Y664101D01*
X416173D01*
Y664215D01*
X416060D01*
Y664328D01*
Y664441D01*
X415833D01*
Y664555D01*
Y664668D01*
X415380D01*
Y664781D01*
X415267D01*
Y664894D01*
X415154D01*
Y665007D01*
X415041D01*
Y665121D01*
X414927D01*
Y665234D01*
X414814D01*
Y665347D01*
X414361D01*
Y665460D01*
Y665574D01*
X414135D01*
Y665687D01*
Y665800D01*
X413908D01*
Y665914D01*
Y666027D01*
X413455D01*
Y666140D01*
Y666253D01*
X413342D01*
Y666367D01*
X413229D01*
Y666480D01*
X413115D01*
Y666593D01*
X413002D01*
Y666706D01*
X412889D01*
Y666820D01*
X412436D01*
Y666933D01*
Y667046D01*
X412209D01*
Y667159D01*
Y667273D01*
X411983D01*
Y667386D01*
Y667499D01*
X411530D01*
Y667612D01*
Y667726D01*
X411303D01*
Y667839D01*
Y667952D01*
X411077D01*
Y668065D01*
Y668179D01*
X410624D01*
Y668292D01*
X410510D01*
Y668405D01*
X410397D01*
Y668518D01*
X410284D01*
Y668632D01*
Y668745D01*
X410057D01*
Y668858D01*
Y668972D01*
X409604D01*
Y669085D01*
Y669198D01*
X409378D01*
Y669311D01*
Y669424D01*
X409151D01*
Y669538D01*
Y669651D01*
X408698D01*
Y669764D01*
Y669878D01*
X408472D01*
Y669991D01*
X408358D01*
Y670104D01*
X408245D01*
Y670217D01*
X408132D01*
Y670331D01*
X407792D01*
Y670444D01*
X407679D01*
Y670557D01*
X407566D01*
Y670670D01*
X407452D01*
Y670784D01*
X407339D01*
Y670897D01*
X407226D01*
Y671010D01*
Y671123D01*
X406773D01*
Y671237D01*
Y671350D01*
X406546D01*
Y671463D01*
X406433D01*
Y671576D01*
X406320D01*
Y671690D01*
X406207D01*
Y671803D01*
X405867D01*
Y671916D01*
X405754D01*
Y672029D01*
X405640D01*
Y672143D01*
X405527D01*
Y672256D01*
X405300D01*
Y672369D01*
Y672482D01*
X404847D01*
Y672596D01*
Y672709D01*
X404621D01*
Y672822D01*
Y672936D01*
X404508D01*
Y673049D01*
X404394D01*
Y673162D01*
X404281D01*
Y673275D01*
X403941D01*
Y673389D01*
X403828D01*
Y673502D01*
X403602D01*
Y673615D01*
Y673728D01*
X403375D01*
Y673842D01*
Y673955D01*
X402922D01*
Y674068D01*
Y674181D01*
X402696D01*
Y674295D01*
Y674408D01*
X402469D01*
Y674521D01*
Y674635D01*
X402016D01*
Y674748D01*
Y674861D01*
X401789D01*
Y674974D01*
Y675087D01*
X401563D01*
Y675201D01*
X401450D01*
Y675314D01*
Y675427D01*
X400997D01*
Y675540D01*
Y675654D01*
X400770D01*
Y675767D01*
Y675880D01*
X400544D01*
Y675994D01*
Y676107D01*
X400091D01*
Y676220D01*
Y676333D01*
X399864D01*
Y676447D01*
Y676560D01*
X399638D01*
Y676673D01*
Y676786D01*
X399184D01*
Y676900D01*
X399071D01*
Y677013D01*
X398958D01*
Y677126D01*
X398845D01*
Y677239D01*
X398731D01*
Y677353D01*
X398618D01*
Y677466D01*
Y677579D01*
X398392D01*
Y677692D01*
Y677806D01*
X397939D01*
Y677919D01*
Y678032D01*
X397712D01*
Y678145D01*
Y678259D01*
X397259D01*
Y678372D01*
X397146D01*
Y678485D01*
X397032D01*
Y678598D01*
X396919D01*
Y678712D01*
X396806D01*
Y678825D01*
X396693D01*
Y678938D01*
X396240D01*
Y679051D01*
Y679165D01*
X396013D01*
Y679278D01*
Y679391D01*
X395787D01*
Y679505D01*
Y679618D01*
X395673D01*
Y679731D01*
X395560D01*
Y679844D01*
X395447D01*
Y679958D01*
X395107D01*
Y680071D01*
X394994D01*
Y680184D01*
X394881D01*
Y680297D01*
X394767D01*
Y680411D01*
X394654D01*
Y680524D01*
X394541D01*
Y680637D01*
X394088D01*
Y680750D01*
Y680864D01*
X393861D01*
Y680977D01*
Y681090D01*
X393635D01*
Y681203D01*
Y681317D01*
X393182D01*
Y681430D01*
Y681543D01*
X392955D01*
Y681657D01*
Y681770D01*
X392729D01*
Y681883D01*
Y681996D01*
X392616D01*
Y682109D01*
X392162D01*
Y682223D01*
Y682336D01*
X391936D01*
Y682449D01*
Y682562D01*
X391709D01*
Y682676D01*
Y682789D01*
X391256D01*
Y682902D01*
Y683016D01*
X391030D01*
Y683129D01*
Y683242D01*
X390803D01*
Y683355D01*
Y683469D01*
X390350D01*
Y683582D01*
X390237D01*
Y683695D01*
X390124D01*
Y683808D01*
X390011D01*
Y683922D01*
X389897D01*
Y684035D01*
X389784D01*
Y684148D01*
Y684261D01*
X389331D01*
Y684375D01*
Y684488D01*
X389105D01*
Y684601D01*
Y684715D01*
X388878D01*
Y684828D01*
Y684941D01*
X388425D01*
Y685054D01*
Y685168D01*
X388198D01*
Y685281D01*
X388085D01*
Y685394D01*
X387972D01*
Y685507D01*
X387859D01*
Y685620D01*
X387519D01*
Y685734D01*
X387406D01*
Y685847D01*
X387292D01*
Y685960D01*
X387179D01*
Y686074D01*
X387066D01*
Y686187D01*
X386953D01*
Y686300D01*
X386839D01*
Y686413D01*
X386500D01*
Y686527D01*
X386386D01*
Y686640D01*
X386273D01*
Y686753D01*
X386160D01*
Y686866D01*
X386047D01*
Y686980D01*
X385933D01*
Y687093D01*
X385593D01*
Y687206D01*
X385480D01*
Y687319D01*
X385367D01*
Y687433D01*
X385254D01*
Y687546D01*
X385027D01*
Y687659D01*
Y687772D01*
X384574D01*
Y687886D01*
Y687999D01*
X384348D01*
Y688112D01*
Y688225D01*
X384121D01*
Y688339D01*
Y688452D01*
X383895D01*
Y688565D01*
X383668D01*
Y688679D01*
X383555D01*
Y688792D01*
X383442D01*
Y688905D01*
X383328D01*
Y689018D01*
X383102D01*
Y689131D01*
Y689245D01*
X382649D01*
Y689358D01*
Y689471D01*
X382422D01*
Y689584D01*
Y689698D01*
X382196D01*
Y689811D01*
Y689924D01*
X381743D01*
Y690038D01*
Y690151D01*
X381516D01*
Y690264D01*
Y690377D01*
X381290D01*
Y690491D01*
Y690604D01*
X380837D01*
Y690717D01*
X380723D01*
Y690830D01*
Y690944D01*
X380497D01*
Y691057D01*
Y691170D01*
X380270D01*
Y691283D01*
Y691397D01*
X380044D01*
Y691510D01*
Y691623D01*
Y691737D01*
X380157D01*
Y691850D01*
X380950D01*
Y691963D01*
X381063D01*
Y692076D01*
X381743D01*
Y692190D01*
Y692303D01*
X382649D01*
Y692416D01*
Y692529D01*
X383555D01*
Y692642D01*
X383668D01*
Y692756D01*
X384348D01*
Y692869D01*
Y692982D01*
X385254D01*
Y693096D01*
Y693209D01*
X386160D01*
Y693322D01*
X386273D01*
Y693435D01*
X387179D01*
Y693549D01*
Y693662D01*
X388085D01*
Y693775D01*
X388198D01*
Y693888D01*
X388765D01*
Y694002D01*
X388878D01*
Y694115D01*
Y694228D01*
X389784D01*
Y694341D01*
X389897D01*
Y694455D01*
X390803D01*
Y694568D01*
Y694681D01*
X391709D01*
Y694794D01*
Y694908D01*
X392049D01*
Y695021D01*
Y695134D01*
Y695248D01*
Y695361D01*
Y695474D01*
X391709D01*
Y695587D01*
Y695701D01*
X391483D01*
Y695814D01*
Y695927D01*
X391256D01*
Y696040D01*
Y696154D01*
X391030D01*
Y696267D01*
Y696380D01*
X390803D01*
Y696493D01*
Y696607D01*
X390577D01*
Y696720D01*
Y696833D01*
Y696946D01*
Y697060D01*
X390350D01*
Y697173D01*
X390237D01*
Y697286D01*
X390124D01*
Y697399D01*
X390011D01*
Y697513D01*
Y697626D01*
X389784D01*
Y697739D01*
Y697852D01*
X389558D01*
Y697966D01*
Y698079D01*
X389331D01*
Y698192D01*
Y698306D01*
X389105D01*
Y698419D01*
Y698532D01*
X388878D01*
Y698645D01*
Y698759D01*
X388651D01*
Y698872D01*
Y698985D01*
X388425D01*
Y699098D01*
Y699212D01*
Y699325D01*
Y699438D01*
X388198D01*
Y699551D01*
Y699664D01*
X388085D01*
Y699778D01*
X387859D01*
Y699891D01*
Y700004D01*
X387632D01*
Y700118D01*
Y700231D01*
X387406D01*
Y700344D01*
Y700457D01*
X387179D01*
Y700571D01*
Y700684D01*
X386953D01*
Y700797D01*
Y700910D01*
X386726D01*
Y701024D01*
Y701137D01*
X386500D01*
Y701250D01*
Y701363D01*
Y701477D01*
Y701590D01*
X386273D01*
Y701703D01*
Y701817D01*
X386047D01*
Y701930D01*
Y702043D01*
X385933D01*
Y702156D01*
X385820D01*
Y702270D01*
X385707D01*
Y702383D01*
X385480D01*
Y702496D01*
Y702609D01*
X385254D01*
Y702723D01*
Y702836D01*
X385027D01*
Y702949D01*
Y703062D01*
X384801D01*
Y703176D01*
Y703289D01*
X384574D01*
Y703402D01*
Y703515D01*
X384348D01*
Y703629D01*
Y703742D01*
Y703855D01*
Y703968D01*
X384121D01*
Y704082D01*
Y704195D01*
X384008D01*
Y704308D01*
X383895D01*
Y704421D01*
X383781D01*
Y704535D01*
X383668D01*
Y704648D01*
X383555D01*
Y704761D01*
X383442D01*
Y704875D01*
X383328D01*
Y704988D01*
X383215D01*
Y705101D01*
X383102D01*
Y705214D01*
X382875D01*
Y705328D01*
Y705441D01*
X382649D01*
Y705554D01*
Y705667D01*
X382422D01*
Y705781D01*
Y705894D01*
X382536D01*
Y706007D01*
Y706120D01*
X382196D01*
Y706234D01*
Y706347D01*
X382083D01*
Y706460D01*
X381969D01*
Y706573D01*
X381856D01*
Y706686D01*
X381743D01*
Y706800D01*
X381629D01*
Y706913D01*
X381516D01*
Y707026D01*
X381403D01*
Y707140D01*
X381290D01*
Y707253D01*
X381176D01*
Y707366D01*
X381063D01*
Y707479D01*
X380950D01*
Y707593D01*
X380837D01*
Y707706D01*
X380723D01*
Y707819D01*
X380610D01*
Y707932D01*
X380497D01*
Y708046D01*
X380384D01*
Y708159D01*
X380270D01*
Y708272D01*
X380384D01*
Y708385D01*
Y708499D01*
X380157D01*
Y708612D01*
X380044D01*
Y708725D01*
X379930D01*
Y708839D01*
X379817D01*
Y708952D01*
Y709065D01*
X379591D01*
Y709178D01*
Y709292D01*
X379364D01*
Y709405D01*
Y709518D01*
X379138D01*
Y709631D01*
X379025D01*
Y709745D01*
X378911D01*
Y709858D01*
X378798D01*
Y709971D01*
X378685D01*
Y710084D01*
X378571D01*
Y710198D01*
X378458D01*
Y710311D01*
X378345D01*
Y710424D01*
X378232D01*
Y710537D01*
X378118D01*
Y710651D01*
X378232D01*
Y710764D01*
Y710877D01*
X378118D01*
Y710990D01*
X377892D01*
Y711104D01*
Y711217D01*
X377665D01*
Y711330D01*
Y711443D01*
X377439D01*
Y711557D01*
Y711670D01*
X377212D01*
Y711783D01*
Y711897D01*
X376986D01*
Y712010D01*
Y712123D01*
X376759D01*
Y712236D01*
X376646D01*
Y712350D01*
X376533D01*
Y712463D01*
Y712576D01*
Y712689D01*
Y712803D01*
X376306D01*
Y712916D01*
X376193D01*
Y713029D01*
X376080D01*
Y713142D01*
X375967D01*
Y713256D01*
Y713369D01*
X375740D01*
Y713482D01*
Y713595D01*
X375514D01*
Y713709D01*
Y713822D01*
X375287D01*
Y713935D01*
Y714048D01*
X375060D01*
Y714162D01*
Y714275D01*
X374834D01*
Y714388D01*
Y714501D01*
X374607D01*
Y714615D01*
Y714728D01*
X374381D01*
Y714841D01*
X374268D01*
Y714954D01*
X374154D01*
Y715068D01*
Y715181D01*
Y715294D01*
Y715408D01*
Y715521D01*
X373815D01*
Y715634D01*
Y715747D01*
X373588D01*
Y715861D01*
Y715974D01*
X373362D01*
Y716087D01*
Y716200D01*
X373135D01*
Y716314D01*
Y716427D01*
X372909D01*
Y716540D01*
Y716653D01*
X372682D01*
Y716767D01*
Y716880D01*
X372456D01*
Y716993D01*
Y717106D01*
Y717220D01*
Y717333D01*
X372229D01*
Y717446D01*
Y717559D01*
X372003D01*
Y717673D01*
X371889D01*
Y717786D01*
Y717899D01*
X371663D01*
Y718012D01*
Y718126D01*
X371436D01*
Y718239D01*
Y718352D01*
X371210D01*
Y718466D01*
Y718579D01*
X371436D01*
Y718466D01*
D02*
G37*
G36*
X375400Y707140D02*
Y707026D01*
X375627D01*
Y706913D01*
Y706800D01*
X375853D01*
Y706686D01*
X375740D01*
Y706573D01*
X375627D01*
Y706460D01*
X375400D01*
Y706347D01*
X375287D01*
Y706234D01*
Y706120D01*
Y706007D01*
Y705894D01*
X375060D01*
Y705781D01*
Y705667D01*
X374834D01*
Y705554D01*
Y705441D01*
X374607D01*
Y705328D01*
Y705214D01*
Y705101D01*
Y704988D01*
X374381D01*
Y704875D01*
Y704761D01*
X374154D01*
Y704648D01*
X374041D01*
Y704535D01*
X374154D01*
Y704421D01*
Y704308D01*
X374041D01*
Y704195D01*
X373928D01*
Y704082D01*
X373815D01*
Y703968D01*
X373588D01*
Y703855D01*
Y703742D01*
Y703629D01*
Y703515D01*
X373475D01*
Y703402D01*
X373362D01*
Y703289D01*
X373135D01*
Y703176D01*
Y703062D01*
Y702949D01*
Y702836D01*
X372909D01*
Y702723D01*
Y702609D01*
Y702496D01*
Y702383D01*
X372682D01*
Y702270D01*
Y702156D01*
Y702043D01*
Y701930D01*
Y701817D01*
X372456D01*
Y701703D01*
Y701590D01*
Y701477D01*
Y701363D01*
X372229D01*
Y701250D01*
Y701137D01*
Y701024D01*
Y700910D01*
X372003D01*
Y700797D01*
Y700684D01*
Y700571D01*
Y700457D01*
X371663D01*
Y700344D01*
Y700231D01*
Y700118D01*
Y700004D01*
Y699891D01*
X371776D01*
Y699778D01*
X371549D01*
Y699664D01*
X371436D01*
Y699551D01*
Y699438D01*
X371549D01*
Y699325D01*
X371436D01*
Y699212D01*
X371210D01*
Y699098D01*
Y698985D01*
Y698872D01*
Y698759D01*
Y698645D01*
Y698532D01*
X370983D01*
Y698419D01*
Y698306D01*
Y698192D01*
Y698079D01*
Y697966D01*
Y697852D01*
Y697739D01*
Y697626D01*
X370757D01*
Y697513D01*
Y697399D01*
Y697286D01*
Y697173D01*
Y697060D01*
Y696946D01*
Y696833D01*
X370530D01*
Y696720D01*
Y696607D01*
Y696493D01*
Y696380D01*
Y696267D01*
Y696154D01*
Y696040D01*
Y695927D01*
X370304D01*
Y695814D01*
Y695701D01*
Y695587D01*
Y695474D01*
Y695361D01*
Y695248D01*
Y695134D01*
Y695021D01*
Y694908D01*
Y694794D01*
Y694681D01*
Y694568D01*
Y694455D01*
X370077D01*
Y694341D01*
Y694228D01*
Y694115D01*
Y694002D01*
Y693888D01*
Y693775D01*
Y693662D01*
Y693549D01*
Y693435D01*
Y693322D01*
Y693209D01*
Y693096D01*
Y692982D01*
Y692869D01*
Y692756D01*
Y692642D01*
Y692529D01*
Y692416D01*
Y692303D01*
Y692190D01*
Y692076D01*
X369851D01*
Y691963D01*
Y691850D01*
Y691737D01*
Y691623D01*
Y691510D01*
Y691397D01*
Y691283D01*
Y691170D01*
Y691057D01*
Y690944D01*
Y690830D01*
Y690717D01*
Y690604D01*
Y690491D01*
Y690377D01*
Y690264D01*
Y690151D01*
Y690038D01*
Y689924D01*
Y689811D01*
Y689698D01*
Y689584D01*
Y689471D01*
Y689358D01*
Y689245D01*
Y689131D01*
X370077D01*
Y689018D01*
Y688905D01*
Y688792D01*
Y688679D01*
Y688565D01*
Y688452D01*
Y688339D01*
Y688225D01*
Y688112D01*
Y687999D01*
Y687886D01*
Y687772D01*
Y687659D01*
Y687546D01*
Y687433D01*
Y687319D01*
Y687206D01*
Y687093D01*
Y686980D01*
Y686866D01*
Y686753D01*
X370304D01*
Y686640D01*
Y686527D01*
Y686413D01*
Y686300D01*
Y686187D01*
Y686074D01*
Y685960D01*
Y685847D01*
Y685734D01*
Y685620D01*
Y685507D01*
Y685394D01*
X370530D01*
Y685281D01*
Y685168D01*
Y685054D01*
Y684941D01*
Y684828D01*
Y684715D01*
Y684601D01*
Y684488D01*
Y684375D01*
X370757D01*
Y684261D01*
Y684148D01*
Y684035D01*
Y683922D01*
Y683808D01*
Y683695D01*
Y683582D01*
Y683469D01*
X370983D01*
Y683355D01*
Y683242D01*
Y683129D01*
Y683016D01*
Y682902D01*
Y682789D01*
X371096D01*
Y682676D01*
X371210D01*
Y682562D01*
Y682449D01*
Y682336D01*
Y682223D01*
Y682109D01*
Y681996D01*
X371549D01*
Y681883D01*
X371436D01*
Y681770D01*
Y681657D01*
Y681543D01*
X371776D01*
Y681430D01*
Y681317D01*
X371663D01*
Y681203D01*
Y681090D01*
Y680977D01*
Y680864D01*
X372003D01*
Y680750D01*
Y680637D01*
Y680524D01*
Y680411D01*
Y680297D01*
X372229D01*
Y680184D01*
Y680071D01*
Y679958D01*
Y679844D01*
X372456D01*
Y679731D01*
Y679618D01*
Y679505D01*
Y679391D01*
X372682D01*
Y679278D01*
Y679165D01*
Y679051D01*
Y678938D01*
X372909D01*
Y678825D01*
Y678712D01*
Y678598D01*
Y678485D01*
X373135D01*
Y678372D01*
Y678259D01*
Y678145D01*
Y678032D01*
Y677919D01*
X373475D01*
Y677806D01*
Y677692D01*
X373588D01*
Y677579D01*
Y677466D01*
Y677353D01*
Y677239D01*
X373928D01*
Y677126D01*
Y677013D01*
X374154D01*
Y676900D01*
Y676786D01*
X374041D01*
Y676673D01*
Y676560D01*
X374381D01*
Y676447D01*
Y676333D01*
X374607D01*
Y676220D01*
Y676107D01*
Y675994D01*
Y675880D01*
Y675767D01*
X374834D01*
Y675654D01*
X374947D01*
Y675540D01*
X375060D01*
Y675427D01*
X375174D01*
Y675314D01*
X375287D01*
Y675201D01*
X375400D01*
Y675087D01*
X375514D01*
Y674974D01*
Y674861D01*
Y674748D01*
Y674635D01*
X375740D01*
Y674521D01*
X375853D01*
Y674408D01*
X375967D01*
Y674295D01*
X376080D01*
Y674181D01*
X376193D01*
Y674068D01*
X376306D01*
Y673955D01*
X376419D01*
Y673842D01*
X376533D01*
Y673728D01*
X376646D01*
Y673615D01*
X376759D01*
Y673502D01*
X376873D01*
Y673389D01*
X376986D01*
Y673275D01*
Y673162D01*
X377212D01*
Y673049D01*
X377326D01*
Y672936D01*
X377439D01*
Y672822D01*
X377552D01*
Y672709D01*
X377665D01*
Y672596D01*
X377779D01*
Y672482D01*
X377892D01*
Y672369D01*
X378005D01*
Y672256D01*
X378118D01*
Y672143D01*
X378232D01*
Y672029D01*
X378345D01*
Y671916D01*
X378458D01*
Y671803D01*
X378571D01*
Y671690D01*
X378685D01*
Y671576D01*
X378798D01*
Y671463D01*
X379138D01*
Y671350D01*
X379251D01*
Y671237D01*
X379364D01*
Y671123D01*
X379478D01*
Y671010D01*
X379591D01*
Y670897D01*
X379704D01*
Y670784D01*
X379817D01*
Y670670D01*
X379930D01*
Y670557D01*
X380384D01*
Y670444D01*
Y670331D01*
X380610D01*
Y670217D01*
Y670104D01*
X381063D01*
Y669991D01*
Y669878D01*
X381290D01*
Y669764D01*
Y669651D01*
X381743D01*
Y669538D01*
Y669424D01*
X381969D01*
Y669311D01*
X382309D01*
Y669198D01*
Y669085D01*
X382536D01*
Y668972D01*
Y668858D01*
X382989D01*
Y668745D01*
Y668632D01*
X383442D01*
Y668518D01*
Y668405D01*
X383895D01*
Y668292D01*
Y668179D01*
X384348D01*
Y668065D01*
X384461D01*
Y667952D01*
X385140D01*
Y667839D01*
Y667726D01*
X385593D01*
Y667612D01*
Y667499D01*
X386273D01*
Y667386D01*
Y667273D01*
X386953D01*
Y667159D01*
X387066D01*
Y667046D01*
Y666933D01*
X387745D01*
Y666820D01*
Y666706D01*
X388651D01*
Y666593D01*
X388765D01*
Y666480D01*
X389897D01*
Y666367D01*
Y666253D01*
X391256D01*
Y666140D01*
X391370D01*
Y666027D01*
X397939D01*
Y666140D01*
Y666253D01*
X399298D01*
Y666367D01*
X399411D01*
Y666480D01*
X400544D01*
Y666593D01*
Y666706D01*
X401223D01*
Y666820D01*
Y666933D01*
X401903D01*
Y667046D01*
X402016D01*
Y667159D01*
Y667273D01*
X402696D01*
Y667386D01*
Y667499D01*
X403375D01*
Y667612D01*
X403488D01*
Y667726D01*
X403941D01*
Y667612D01*
Y667499D01*
X404168D01*
Y667386D01*
Y667273D01*
Y667159D01*
Y667046D01*
X403941D01*
Y666933D01*
Y666820D01*
X403262D01*
Y666706D01*
Y666593D01*
X402582D01*
Y666480D01*
X402469D01*
Y666367D01*
X401903D01*
Y666253D01*
X401789D01*
Y666140D01*
Y666027D01*
X401110D01*
Y665914D01*
X400997D01*
Y665800D01*
X399864D01*
Y665687D01*
Y665574D01*
X398731D01*
Y665460D01*
Y665347D01*
X396806D01*
Y665234D01*
Y665121D01*
X392502D01*
Y665234D01*
X392389D01*
Y665347D01*
X390577D01*
Y665460D01*
Y665574D01*
X389105D01*
Y665687D01*
Y665800D01*
X388198D01*
Y665914D01*
Y666027D01*
X387519D01*
Y666140D01*
X387406D01*
Y666253D01*
Y666367D01*
X386500D01*
Y666480D01*
X386386D01*
Y666593D01*
X386047D01*
Y666706D01*
X385933D01*
Y666820D01*
X385254D01*
Y666933D01*
Y667046D01*
X384574D01*
Y667159D01*
Y667273D01*
X384121D01*
Y667386D01*
Y667499D01*
X383668D01*
Y667612D01*
Y667726D01*
X383215D01*
Y667839D01*
X383102D01*
Y667952D01*
X382762D01*
Y668065D01*
X382649D01*
Y668179D01*
X382196D01*
Y668292D01*
Y668405D01*
X382083D01*
Y668518D01*
X381743D01*
Y668632D01*
X381629D01*
Y668745D01*
X381516D01*
Y668858D01*
X381403D01*
Y668972D01*
X381063D01*
Y669085D01*
X380950D01*
Y669198D01*
X380497D01*
Y669311D01*
Y669424D01*
X380270D01*
Y669538D01*
Y669651D01*
X379817D01*
Y669764D01*
Y669878D01*
X379591D01*
Y669991D01*
Y670104D01*
X379364D01*
Y670217D01*
Y670331D01*
X378911D01*
Y670444D01*
X378798D01*
Y670557D01*
X378685D01*
Y670670D01*
X378571D01*
Y670784D01*
Y670897D01*
X378345D01*
Y671010D01*
Y671123D01*
X378118D01*
Y671237D01*
Y671350D01*
X377892D01*
Y671463D01*
Y671576D01*
X377439D01*
Y671690D01*
Y671803D01*
X377212D01*
Y671916D01*
Y672029D01*
X376986D01*
Y672143D01*
Y672256D01*
X376759D01*
Y672369D01*
X376646D01*
Y672482D01*
X376533D01*
Y672596D01*
X376419D01*
Y672709D01*
X376306D01*
Y672822D01*
X376193D01*
Y672936D01*
Y673049D01*
X375967D01*
Y673162D01*
Y673275D01*
X375740D01*
Y673389D01*
Y673502D01*
X375514D01*
Y673615D01*
Y673728D01*
X375627D01*
Y673842D01*
Y673955D01*
X375287D01*
Y674068D01*
Y674181D01*
X375060D01*
Y674295D01*
Y674408D01*
X374834D01*
Y674521D01*
Y674635D01*
X374607D01*
Y674748D01*
Y674861D01*
X374381D01*
Y674974D01*
Y675087D01*
Y675201D01*
Y675314D01*
Y675427D01*
X374041D01*
Y675540D01*
Y675654D01*
X373815D01*
Y675767D01*
Y675880D01*
X373588D01*
Y675994D01*
X373701D01*
Y676107D01*
Y676220D01*
Y676333D01*
X373362D01*
Y676447D01*
Y676560D01*
X373135D01*
Y676673D01*
Y676786D01*
Y676900D01*
Y677013D01*
X372909D01*
Y677126D01*
Y677239D01*
X372682D01*
Y677353D01*
Y677466D01*
Y677579D01*
Y677692D01*
Y677806D01*
X372456D01*
Y677919D01*
Y678032D01*
Y678145D01*
Y678259D01*
X372229D01*
Y678372D01*
Y678485D01*
Y678598D01*
Y678712D01*
X372003D01*
Y678825D01*
Y678938D01*
Y679051D01*
Y679165D01*
X371776D01*
Y679278D01*
Y679391D01*
Y679505D01*
Y679618D01*
X371663D01*
Y679731D01*
X371549D01*
Y679844D01*
Y679958D01*
Y680071D01*
Y680184D01*
X371210D01*
Y680297D01*
X371323D01*
Y680411D01*
Y680524D01*
Y680637D01*
X370983D01*
Y680750D01*
Y680864D01*
X371096D01*
Y680977D01*
Y681090D01*
X370757D01*
Y681203D01*
Y681317D01*
Y681430D01*
Y681543D01*
Y681657D01*
Y681770D01*
Y681883D01*
X370530D01*
Y681996D01*
Y682109D01*
Y682223D01*
Y682336D01*
Y682449D01*
Y682562D01*
X370304D01*
Y682676D01*
Y682789D01*
Y682902D01*
Y683016D01*
Y683129D01*
Y683242D01*
X370077D01*
Y683355D01*
Y683469D01*
Y683582D01*
Y683695D01*
Y683808D01*
Y683922D01*
X369851D01*
Y684035D01*
Y684148D01*
Y684261D01*
Y684375D01*
Y684488D01*
Y684601D01*
Y684715D01*
Y684828D01*
Y684941D01*
X369624D01*
Y685054D01*
Y685168D01*
Y685281D01*
Y685394D01*
Y685507D01*
Y685620D01*
Y685734D01*
Y685847D01*
Y685960D01*
Y686074D01*
X369397D01*
Y686187D01*
Y686300D01*
Y686413D01*
Y686527D01*
Y686640D01*
Y686753D01*
Y686866D01*
Y686980D01*
Y687093D01*
Y687206D01*
Y687319D01*
Y687433D01*
Y687546D01*
Y687659D01*
Y687772D01*
X369171D01*
Y687886D01*
Y687999D01*
Y688112D01*
Y688225D01*
Y688339D01*
Y688452D01*
Y688565D01*
Y688679D01*
Y688792D01*
Y688905D01*
Y689018D01*
Y689131D01*
Y689245D01*
Y689358D01*
Y689471D01*
Y689584D01*
Y689698D01*
Y689811D01*
Y689924D01*
Y690038D01*
Y690151D01*
Y690264D01*
Y690377D01*
Y690491D01*
Y690604D01*
Y690717D01*
Y690830D01*
Y690944D01*
Y691057D01*
Y691170D01*
Y691283D01*
Y691397D01*
Y691510D01*
Y691623D01*
Y691737D01*
Y691850D01*
Y691963D01*
Y692076D01*
Y692190D01*
Y692303D01*
Y692416D01*
Y692529D01*
Y692642D01*
Y692756D01*
Y692869D01*
Y692982D01*
Y693096D01*
Y693209D01*
Y693322D01*
X369058D01*
Y693435D01*
X369397D01*
Y693549D01*
Y693662D01*
Y693775D01*
Y693888D01*
Y694002D01*
Y694115D01*
Y694228D01*
Y694341D01*
Y694455D01*
Y694568D01*
Y694681D01*
Y694794D01*
Y694908D01*
Y695021D01*
Y695134D01*
X369624D01*
Y695248D01*
Y695361D01*
Y695474D01*
Y695587D01*
Y695701D01*
Y695814D01*
Y695927D01*
Y696040D01*
Y696154D01*
Y696267D01*
Y696380D01*
X369851D01*
Y696493D01*
Y696607D01*
Y696720D01*
Y696833D01*
Y696946D01*
Y697060D01*
Y697173D01*
Y697286D01*
X370077D01*
Y697399D01*
Y697513D01*
Y697626D01*
Y697739D01*
Y697852D01*
Y697966D01*
X370304D01*
Y698079D01*
Y698192D01*
Y698306D01*
Y698419D01*
Y698532D01*
Y698645D01*
Y698759D01*
X370530D01*
Y698872D01*
Y698985D01*
Y699098D01*
Y699212D01*
Y699325D01*
Y699438D01*
X370757D01*
Y699551D01*
Y699664D01*
Y699778D01*
Y699891D01*
Y700004D01*
Y700118D01*
X370983D01*
Y700231D01*
X371096D01*
Y700344D01*
X370983D01*
Y700457D01*
Y700571D01*
X371210D01*
Y700684D01*
X371323D01*
Y700797D01*
Y700910D01*
X371210D01*
Y701024D01*
X371323D01*
Y701137D01*
X371549D01*
Y701250D01*
Y701363D01*
Y701477D01*
Y701590D01*
X371776D01*
Y701703D01*
Y701817D01*
Y701930D01*
Y702043D01*
X372003D01*
Y702156D01*
Y702270D01*
Y702383D01*
Y702496D01*
X372229D01*
Y702609D01*
Y702723D01*
Y702836D01*
Y702949D01*
Y703062D01*
X372456D01*
Y703176D01*
Y703289D01*
Y703402D01*
Y703515D01*
X372682D01*
Y703629D01*
Y703742D01*
X372909D01*
Y703855D01*
Y703968D01*
Y704082D01*
Y704195D01*
X373135D01*
Y704308D01*
X373248D01*
Y704421D01*
X373135D01*
Y704535D01*
Y704648D01*
X373362D01*
Y704761D01*
Y704875D01*
X373588D01*
Y704988D01*
X373701D01*
Y705101D01*
Y705214D01*
X373588D01*
Y705328D01*
X373701D01*
Y705441D01*
X373815D01*
Y705554D01*
X373928D01*
Y705667D01*
X374041D01*
Y705781D01*
X374154D01*
Y705894D01*
X374381D01*
Y706007D01*
Y706120D01*
Y706234D01*
Y706347D01*
X374494D01*
Y706460D01*
X374607D01*
Y706573D01*
X374721D01*
Y706686D01*
X374834D01*
Y706800D01*
X375060D01*
Y706913D01*
Y707026D01*
X375174D01*
Y707140D01*
X375287D01*
Y707253D01*
X375400D01*
Y707140D01*
D02*
G37*
G36*
X397032Y715974D02*
Y715861D01*
X398731D01*
Y715747D01*
Y715634D01*
X399864D01*
Y715521D01*
X399977D01*
Y715408D01*
X401110D01*
Y715294D01*
Y715181D01*
X401789D01*
Y715068D01*
Y714954D01*
X402469D01*
Y714841D01*
X402582D01*
Y714728D01*
X403149D01*
Y714615D01*
X403262D01*
Y714501D01*
X403941D01*
Y714388D01*
Y714275D01*
X404394D01*
Y714162D01*
Y714048D01*
X404508D01*
Y713935D01*
X404961D01*
Y713822D01*
Y713709D01*
X405640D01*
Y713595D01*
Y713482D01*
X406093D01*
Y713369D01*
Y713256D01*
X406546D01*
Y713142D01*
Y713029D01*
X406773D01*
Y712916D01*
Y712803D01*
X407226D01*
Y712689D01*
X407339D01*
Y712576D01*
X407792D01*
Y712463D01*
Y712350D01*
X408245D01*
Y712236D01*
Y712123D01*
X408472D01*
Y712010D01*
Y711897D01*
X408698D01*
Y711783D01*
X408925D01*
Y711670D01*
X409038D01*
Y711557D01*
X409151D01*
Y711443D01*
X409265D01*
Y711330D01*
X409718D01*
Y711217D01*
Y711104D01*
X409944D01*
Y710990D01*
Y710877D01*
X410171D01*
Y710764D01*
Y710651D01*
X410397D01*
Y710537D01*
Y710424D01*
X410850D01*
Y710311D01*
Y710198D01*
X411077D01*
Y710084D01*
Y709971D01*
X411303D01*
Y709858D01*
Y709745D01*
X411530D01*
Y709631D01*
Y709518D01*
X411643D01*
Y709405D01*
X411869D01*
Y709292D01*
Y709178D01*
X412096D01*
Y709065D01*
Y708952D01*
X412322D01*
Y708839D01*
Y708725D01*
X412549D01*
Y708612D01*
Y708499D01*
X412776D01*
Y708385D01*
Y708272D01*
X413002D01*
Y708159D01*
Y708046D01*
X413229D01*
Y707932D01*
Y707819D01*
X413455D01*
Y707706D01*
Y707593D01*
X413682D01*
Y707479D01*
Y707366D01*
X413795D01*
Y707253D01*
X413908D01*
Y707140D01*
X414021D01*
Y707026D01*
X414248D01*
Y706913D01*
Y706800D01*
X414361D01*
Y706686D01*
Y706573D01*
Y706460D01*
Y706347D01*
X414701D01*
Y706234D01*
Y706120D01*
X414927D01*
Y706007D01*
Y705894D01*
X415154D01*
Y705781D01*
Y705667D01*
Y705554D01*
Y705441D01*
X415380D01*
Y705328D01*
Y705214D01*
X415607D01*
Y705101D01*
Y704988D01*
X415720D01*
Y704875D01*
X415833D01*
Y704761D01*
Y704648D01*
Y704535D01*
Y704421D01*
X416060D01*
Y704308D01*
Y704195D01*
Y704082D01*
Y703968D01*
X416287D01*
Y703855D01*
X416400D01*
Y703742D01*
X416513D01*
Y703629D01*
Y703515D01*
Y703402D01*
Y703289D01*
X416740D01*
Y703176D01*
Y703062D01*
Y702949D01*
Y702836D01*
X416853D01*
Y702723D01*
X417079D01*
Y702609D01*
X416966D01*
Y702496D01*
Y702383D01*
Y702270D01*
X417306D01*
Y702156D01*
Y702043D01*
X417532D01*
Y701930D01*
Y701817D01*
Y701703D01*
Y701590D01*
X417759D01*
Y701477D01*
Y701363D01*
Y701250D01*
Y701137D01*
Y701024D01*
Y700910D01*
X417985D01*
Y700797D01*
Y700684D01*
Y700571D01*
Y700457D01*
Y700344D01*
X418212D01*
Y700231D01*
Y700118D01*
Y700004D01*
Y699891D01*
Y699778D01*
Y699664D01*
X418438D01*
Y699551D01*
Y699438D01*
Y699325D01*
Y699212D01*
X418665D01*
Y699098D01*
Y698985D01*
Y698872D01*
Y698759D01*
Y698645D01*
Y698532D01*
X418891D01*
Y698419D01*
Y698306D01*
Y698192D01*
Y698079D01*
Y697966D01*
Y697852D01*
Y697739D01*
X419231D01*
Y697626D01*
X419118D01*
Y697513D01*
Y697399D01*
Y697286D01*
Y697173D01*
Y697060D01*
Y696946D01*
Y696833D01*
X419458D01*
Y696720D01*
Y696607D01*
X419344D01*
Y696493D01*
Y696380D01*
Y696267D01*
Y696154D01*
Y696040D01*
Y695927D01*
X419458D01*
Y695814D01*
X419684D01*
Y695701D01*
Y695587D01*
X419571D01*
Y695474D01*
Y695361D01*
Y695248D01*
Y695134D01*
Y695021D01*
Y694908D01*
Y694794D01*
Y694681D01*
Y694568D01*
X419684D01*
Y694455D01*
X419911D01*
Y694341D01*
Y694228D01*
Y694115D01*
Y694002D01*
Y693888D01*
Y693775D01*
Y693662D01*
Y693549D01*
Y693435D01*
Y693322D01*
Y693209D01*
Y693096D01*
Y692982D01*
X420251D01*
Y692869D01*
Y692756D01*
Y692642D01*
Y692529D01*
Y692416D01*
Y692303D01*
Y692190D01*
Y692076D01*
Y691963D01*
Y691850D01*
Y691737D01*
Y691623D01*
Y691510D01*
Y691397D01*
Y691283D01*
Y691170D01*
Y691057D01*
Y690944D01*
Y690830D01*
Y690717D01*
Y690604D01*
Y690491D01*
Y690377D01*
Y690264D01*
Y690151D01*
Y690038D01*
Y689924D01*
Y689811D01*
Y689698D01*
Y689584D01*
Y689471D01*
Y689358D01*
Y689245D01*
Y689131D01*
Y689018D01*
Y688905D01*
Y688792D01*
Y688679D01*
Y688565D01*
Y688452D01*
Y688339D01*
Y688225D01*
X419911D01*
Y688112D01*
Y687999D01*
Y687886D01*
Y687772D01*
Y687659D01*
Y687546D01*
Y687433D01*
Y687319D01*
Y687206D01*
Y687093D01*
Y686980D01*
Y686866D01*
X419684D01*
Y686753D01*
Y686640D01*
X419571D01*
Y686527D01*
Y686413D01*
Y686300D01*
Y686187D01*
Y686074D01*
Y685960D01*
Y685847D01*
Y685734D01*
X419684D01*
Y685620D01*
Y685507D01*
Y685394D01*
X419344D01*
Y685281D01*
Y685168D01*
Y685054D01*
Y684941D01*
Y684828D01*
Y684715D01*
Y684601D01*
X419458D01*
Y684488D01*
X419118D01*
Y684375D01*
Y684261D01*
Y684148D01*
Y684035D01*
Y683922D01*
Y683808D01*
Y683695D01*
X419231D01*
Y683582D01*
X419118D01*
Y683469D01*
X418891D01*
Y683355D01*
Y683242D01*
Y683129D01*
Y683016D01*
Y682902D01*
Y682789D01*
X418665D01*
Y682676D01*
Y682562D01*
Y682449D01*
Y682336D01*
Y682223D01*
Y682109D01*
X418438D01*
Y681996D01*
Y681883D01*
Y681770D01*
Y681657D01*
Y681543D01*
X418212D01*
Y681430D01*
Y681317D01*
Y681203D01*
Y681090D01*
Y680977D01*
Y680864D01*
X417985D01*
Y680750D01*
Y680637D01*
Y680524D01*
Y680411D01*
X417759D01*
Y680297D01*
Y680184D01*
Y680071D01*
Y679958D01*
X417532D01*
Y679844D01*
Y679731D01*
Y679618D01*
Y679505D01*
Y679391D01*
Y679278D01*
Y679165D01*
X417306D01*
Y679051D01*
Y678938D01*
X416966D01*
Y678825D01*
Y678712D01*
X417079D01*
Y678598D01*
Y678485D01*
X416740D01*
Y678372D01*
Y678259D01*
Y678145D01*
Y678032D01*
X416513D01*
Y677919D01*
Y677806D01*
Y677692D01*
Y677579D01*
X416287D01*
Y677466D01*
Y677353D01*
Y677239D01*
Y677126D01*
Y677013D01*
X416173D01*
Y676900D01*
X416060D01*
Y676786D01*
X415833D01*
Y676673D01*
Y676560D01*
Y676447D01*
Y676333D01*
X415607D01*
Y676220D01*
Y676107D01*
X415380D01*
Y675994D01*
Y675880D01*
X415154D01*
Y675767D01*
X415041D01*
Y675654D01*
X415154D01*
Y675540D01*
Y675427D01*
X414927D01*
Y675314D01*
Y675201D01*
X414814D01*
Y675087D01*
X414701D01*
Y674974D01*
X414588D01*
Y674861D01*
X414361D01*
Y674748D01*
Y674635D01*
Y674521D01*
Y674408D01*
X414135D01*
Y674521D01*
Y674635D01*
X413908D01*
Y674748D01*
Y674861D01*
X413682D01*
Y674974D01*
Y675087D01*
X413908D01*
Y675201D01*
Y675314D01*
X414248D01*
Y675427D01*
Y675540D01*
X414135D01*
Y675654D01*
Y675767D01*
X414361D01*
Y675880D01*
Y675994D01*
X414474D01*
Y676107D01*
X414588D01*
Y676220D01*
X414701D01*
Y676333D01*
X414927D01*
Y676447D01*
Y676560D01*
Y676673D01*
Y676786D01*
X415041D01*
Y676900D01*
X415154D01*
Y677013D01*
X415380D01*
Y677126D01*
Y677239D01*
Y677353D01*
Y677466D01*
X415494D01*
Y677579D01*
X415607D01*
Y677692D01*
X415833D01*
Y677806D01*
Y677919D01*
Y678032D01*
Y678145D01*
X416060D01*
Y678259D01*
Y678372D01*
Y678485D01*
Y678598D01*
Y678712D01*
X416287D01*
Y678825D01*
Y678938D01*
Y679051D01*
Y679165D01*
X416626D01*
Y679278D01*
Y679391D01*
X416513D01*
Y679505D01*
Y679618D01*
X416853D01*
Y679731D01*
Y679844D01*
Y679958D01*
X416740D01*
Y680071D01*
X417079D01*
Y680184D01*
Y680297D01*
Y680411D01*
Y680524D01*
X417193D01*
Y680637D01*
X417306D01*
Y680750D01*
Y680864D01*
Y680977D01*
Y681090D01*
X417532D01*
Y681203D01*
Y681317D01*
Y681430D01*
Y681543D01*
Y681657D01*
Y681770D01*
X417759D01*
Y681883D01*
Y681996D01*
Y682109D01*
Y682223D01*
Y682336D01*
Y682449D01*
X417985D01*
Y682562D01*
Y682676D01*
Y682789D01*
Y682902D01*
Y683016D01*
X418212D01*
Y683129D01*
Y683242D01*
Y683355D01*
Y683469D01*
Y683582D01*
Y683695D01*
Y683808D01*
Y683922D01*
X418438D01*
Y684035D01*
Y684148D01*
Y684261D01*
Y684375D01*
Y684488D01*
Y684601D01*
Y684715D01*
Y684828D01*
X418665D01*
Y684941D01*
X418778D01*
Y685054D01*
Y685168D01*
Y685281D01*
Y685394D01*
Y685507D01*
Y685620D01*
Y685734D01*
Y685847D01*
X418665D01*
Y685960D01*
Y686074D01*
X419005D01*
Y686187D01*
Y686300D01*
Y686413D01*
Y686527D01*
Y686640D01*
Y686753D01*
Y686866D01*
Y686980D01*
Y687093D01*
Y687206D01*
Y687319D01*
X418891D01*
Y687433D01*
X419005D01*
Y687546D01*
X419231D01*
Y687659D01*
Y687772D01*
Y687886D01*
Y687999D01*
Y688112D01*
Y688225D01*
Y688339D01*
Y688452D01*
Y688565D01*
Y688679D01*
Y688792D01*
Y688905D01*
Y689018D01*
Y689131D01*
Y689245D01*
Y689358D01*
Y689471D01*
Y689584D01*
Y689698D01*
Y689811D01*
Y689924D01*
Y690038D01*
Y690151D01*
Y690264D01*
Y690377D01*
Y690491D01*
Y690604D01*
Y690717D01*
Y690830D01*
Y690944D01*
Y691057D01*
Y691170D01*
Y691283D01*
Y691397D01*
Y691510D01*
Y691623D01*
Y691737D01*
Y691850D01*
Y691963D01*
Y692076D01*
Y692190D01*
Y692303D01*
Y692416D01*
Y692529D01*
Y692642D01*
Y692756D01*
Y692869D01*
Y692982D01*
Y693096D01*
Y693209D01*
Y693322D01*
Y693435D01*
Y693549D01*
Y693662D01*
Y693775D01*
Y693888D01*
Y694002D01*
X418891D01*
Y694115D01*
X419005D01*
Y694228D01*
Y694341D01*
Y694455D01*
Y694568D01*
Y694681D01*
Y694794D01*
Y694908D01*
Y695021D01*
Y695134D01*
X418891D01*
Y695248D01*
X418665D01*
Y695361D01*
Y695474D01*
X418778D01*
Y695587D01*
Y695701D01*
Y695814D01*
Y695927D01*
Y696040D01*
Y696154D01*
Y696267D01*
Y696380D01*
X418438D01*
Y696493D01*
Y696607D01*
Y696720D01*
Y696833D01*
Y696946D01*
Y697060D01*
Y697173D01*
Y697286D01*
Y697399D01*
Y697513D01*
Y697626D01*
X418212D01*
Y697739D01*
Y697852D01*
Y697966D01*
Y698079D01*
Y698192D01*
Y698306D01*
X417985D01*
Y698419D01*
Y698532D01*
Y698645D01*
Y698759D01*
X417759D01*
Y698872D01*
Y698985D01*
Y699098D01*
Y699212D01*
Y699325D01*
Y699438D01*
X417532D01*
Y699551D01*
Y699664D01*
Y699778D01*
Y699891D01*
Y700004D01*
Y700118D01*
Y700231D01*
X417306D01*
Y700344D01*
Y700457D01*
Y700571D01*
Y700684D01*
X417079D01*
Y700797D01*
Y700910D01*
Y701024D01*
Y701137D01*
X416853D01*
Y701250D01*
Y701363D01*
Y701477D01*
Y701590D01*
X416626D01*
Y701703D01*
X416513D01*
Y701817D01*
X416626D01*
Y701930D01*
Y702043D01*
X416513D01*
Y702156D01*
X416287D01*
Y702270D01*
Y702383D01*
X416400D01*
Y702496D01*
X416287D01*
Y702609D01*
X416060D01*
Y702723D01*
Y702836D01*
Y702949D01*
Y703062D01*
X415833D01*
Y703176D01*
Y703289D01*
Y703402D01*
Y703515D01*
X415607D01*
Y703629D01*
Y703742D01*
X415380D01*
Y703855D01*
Y703968D01*
Y704082D01*
Y704195D01*
Y704308D01*
X415041D01*
Y704421D01*
Y704535D01*
X414927D01*
Y704648D01*
Y704761D01*
Y704875D01*
Y704988D01*
X414588D01*
Y705101D01*
Y705214D01*
X414361D01*
Y705328D01*
Y705441D01*
X414135D01*
Y705554D01*
Y705667D01*
X414248D01*
Y705781D01*
Y705894D01*
X413908D01*
Y706007D01*
Y706120D01*
X413682D01*
Y706234D01*
Y706347D01*
X413568D01*
Y706460D01*
X413455D01*
Y706573D01*
X413342D01*
Y706686D01*
X413229D01*
Y706800D01*
Y706913D01*
Y707026D01*
Y707140D01*
X413002D01*
Y707253D01*
X412889D01*
Y707366D01*
X412776D01*
Y707479D01*
X412662D01*
Y707593D01*
X412549D01*
Y707706D01*
X412436D01*
Y707819D01*
X412209D01*
Y707932D01*
Y708046D01*
X411983D01*
Y708159D01*
Y708272D01*
X411756D01*
Y708385D01*
Y708499D01*
X411530D01*
Y708612D01*
Y708725D01*
X411416D01*
Y708839D01*
X411303D01*
Y708952D01*
X411190D01*
Y709065D01*
X411077D01*
Y709178D01*
X410963D01*
Y709292D01*
X410624D01*
Y709405D01*
X410510D01*
Y709518D01*
X410397D01*
Y709631D01*
X410284D01*
Y709745D01*
X410057D01*
Y709858D01*
Y709971D01*
X409831D01*
Y710084D01*
Y710198D01*
X409604D01*
Y710311D01*
Y710424D01*
X409151D01*
Y710537D01*
Y710651D01*
X408925D01*
Y710764D01*
Y710877D01*
X408811D01*
Y710990D01*
X408472D01*
Y711104D01*
X408358D01*
Y711217D01*
X408132D01*
Y711330D01*
Y711443D01*
X407679D01*
Y711557D01*
Y711670D01*
X407452D01*
Y711783D01*
Y711897D01*
X406999D01*
Y712010D01*
Y712123D01*
X406546D01*
Y712236D01*
Y712350D01*
X406093D01*
Y712463D01*
X405980D01*
Y712576D01*
X405867D01*
Y712689D01*
X405754D01*
Y712803D01*
X405074D01*
Y712916D01*
Y713029D01*
X404961D01*
Y713142D01*
X404621D01*
Y713256D01*
X404508D01*
Y713369D01*
X404168D01*
Y713482D01*
X404055D01*
Y713595D01*
X403375D01*
Y713709D01*
Y713822D01*
X402922D01*
Y713935D01*
Y714048D01*
X402242D01*
Y714162D01*
Y714275D01*
X401336D01*
Y714388D01*
X401223D01*
Y714501D01*
X400544D01*
Y714615D01*
Y714728D01*
X399411D01*
Y714841D01*
X399298D01*
Y714954D01*
X397939D01*
Y715068D01*
Y715181D01*
X391370D01*
Y715068D01*
X391256D01*
Y714954D01*
X389897D01*
Y714841D01*
Y714728D01*
X388651D01*
Y714615D01*
Y714501D01*
X387745D01*
Y714388D01*
Y714275D01*
X387066D01*
Y714162D01*
X386953D01*
Y714048D01*
X386386D01*
Y713935D01*
X386273D01*
Y713822D01*
X385820D01*
Y713935D01*
X385707D01*
Y714048D01*
X385593D01*
Y714162D01*
Y714275D01*
Y714388D01*
Y714501D01*
X386047D01*
Y714615D01*
Y714728D01*
X386500D01*
Y714841D01*
Y714954D01*
X387179D01*
Y715068D01*
Y715181D01*
X388085D01*
Y715294D01*
X388198D01*
Y715408D01*
X389331D01*
Y715521D01*
Y715634D01*
X390464D01*
Y715747D01*
X390577D01*
Y715861D01*
X391936D01*
Y715974D01*
Y716087D01*
X397032D01*
Y715974D01*
D02*
G37*
D70*
X569783Y634842D02*
Y647933D01*
Y631693D02*
Y634842D01*
X518110Y732579D02*
X521949Y728740D01*
X518110Y732579D02*
Y816831D01*
X569783Y724803D02*
Y725197D01*
X566339Y728642D02*
X569783Y725197D01*
X521949Y728740D02*
X566240D01*
X569783Y725197D01*
Y647933D02*
Y725197D01*
X257087Y642729D02*
Y639974D01*
Y641352D01*
X255250D01*
Y642729D01*
Y639974D01*
X252495Y642729D02*
X254332D01*
Y639974D01*
X252495D01*
X254332Y641352D02*
X253413D01*
X251577Y642729D02*
X249740D01*
X250658D01*
Y639974D01*
X248821D02*
X247903D01*
X248362D01*
Y642729D01*
X248821Y642270D01*
X246526Y639515D02*
X244689D01*
X241934Y639974D02*
X243771D01*
X241934Y641811D01*
Y642270D01*
X242393Y642729D01*
X243312D01*
X243771Y642270D01*
X241016D02*
X240557Y642729D01*
X239638D01*
X239179Y642270D01*
Y640433D01*
X239638Y639974D01*
X240557D01*
X241016Y640433D01*
Y642270D01*
D72*
X467520Y806145D02*
X464896D01*
X466208Y807457D02*
Y804834D01*
X460960Y808113D02*
X463584D01*
Y806145D01*
X462272Y806801D01*
X461616D01*
X460960Y806145D01*
Y804834D01*
X461616Y804178D01*
X462928D01*
X463584Y804834D01*
X459648Y808113D02*
Y805490D01*
X458336Y804178D01*
X457024Y805490D01*
Y808113D01*
X464896Y772855D02*
X465552Y773511D01*
X466864D01*
X467520Y772855D01*
Y770231D01*
X466864Y769575D01*
X465552D01*
X464896Y770231D01*
X463584Y769575D02*
Y772199D01*
X462272Y773511D01*
X460960Y772199D01*
Y769575D01*
Y771543D01*
X463584D01*
X459648Y769575D02*
Y773511D01*
X457024Y769575D01*
Y773511D01*
X455713Y768920D02*
X453089D01*
X451777Y773511D02*
Y769575D01*
X449153D01*
X275168Y623090D02*
Y619154D01*
X273200D01*
X272544Y619810D01*
Y622434D01*
X273200Y623090D01*
X275168D01*
X271232Y619154D02*
Y621778D01*
X269920Y623090D01*
X268608Y621778D01*
Y619154D01*
Y621122D01*
X271232D01*
X264672Y622434D02*
X265328Y623090D01*
X266640D01*
X267296Y622434D01*
Y619810D01*
X266640Y619154D01*
X265328D01*
X264672Y619810D01*
X254266Y672532D02*
X254922Y673188D01*
X256234D01*
X256890Y672532D01*
Y669909D01*
X256234Y669253D01*
X254922D01*
X254266Y669909D01*
Y671220D01*
X255578D01*
X252954Y669253D02*
Y673188D01*
X250330Y669253D01*
Y673188D01*
X249018D02*
Y669253D01*
X247050D01*
X246394Y669909D01*
Y672532D01*
X247050Y673188D01*
X249018D01*
X514698Y769575D02*
Y773511D01*
X513386Y772199D01*
X512075Y773511D01*
Y769575D01*
X510763Y773511D02*
X509451D01*
X510107D01*
Y769575D01*
X510763D01*
X509451D01*
X507483Y773511D02*
Y769575D01*
X505515D01*
X504859Y770231D01*
Y770887D01*
X505515Y771543D01*
X507483D01*
X505515D01*
X504859Y772199D01*
Y772855D01*
X505515Y773511D01*
X507483D01*
X500923Y772855D02*
X501579Y773511D01*
X502891D01*
X503547Y772855D01*
Y772199D01*
X502891Y771543D01*
X501579D01*
X500923Y770887D01*
Y770231D01*
X501579Y769575D01*
X502891D01*
X503547Y770231D01*
X499611Y769575D02*
Y773511D01*
X497644D01*
X496988Y772855D01*
Y771543D01*
X497644Y770887D01*
X499611D01*
X495676Y773511D02*
X494364D01*
X495020D01*
Y769575D01*
X495676D01*
X494364D01*
X492396Y772855D02*
X491740Y773511D01*
X490428D01*
X489772Y772855D01*
Y772199D01*
X490428Y771543D01*
X491084D01*
X490428D01*
X489772Y770887D01*
Y770231D01*
X490428Y769575D01*
X491740D01*
X492396Y770231D01*
X488460Y768920D02*
X485836D01*
X484524Y769575D02*
Y773511D01*
X483213Y772199D01*
X481901Y773511D01*
Y769575D01*
X478621Y773511D02*
X479933D01*
X480589Y772855D01*
Y770231D01*
X479933Y769575D01*
X478621D01*
X477965Y770231D01*
Y772855D01*
X478621Y773511D01*
X474029Y772855D02*
X474685Y773511D01*
X475997D01*
X476653Y772855D01*
Y772199D01*
X475997Y771543D01*
X474685D01*
X474029Y770887D01*
Y770231D01*
X474685Y769575D01*
X475997D01*
X476653Y770231D01*
X472717Y773511D02*
X471405D01*
X472061D01*
Y769575D01*
X472717D01*
X471405D01*
X286319Y609482D02*
Y612106D01*
X285007Y613418D01*
X283695Y612106D01*
Y609482D01*
Y611450D01*
X286319D01*
X282383Y613418D02*
Y609482D01*
X280415D01*
X279759Y610138D01*
Y612762D01*
X280415Y613418D01*
X282383D01*
X278447Y609482D02*
X277135D01*
X277792D01*
Y613418D01*
X278447Y612762D01*
X275168Y608826D02*
X272544D01*
X271232Y609482D02*
X269920D01*
X270576D01*
Y613418D01*
X271232Y612762D01*
X267952Y610138D02*
X267296Y609482D01*
X265984D01*
X265328Y610138D01*
Y612762D01*
X265984Y613418D01*
X267296D01*
X267952Y612762D01*
Y612106D01*
X267296Y611450D01*
X265328D01*
X479277Y816272D02*
X479933Y816928D01*
X481245D01*
X481901Y816272D01*
Y813648D01*
X481245Y812992D01*
X479933D01*
X479277Y813648D01*
Y814960D01*
X480589D01*
X477965Y812992D02*
Y816928D01*
X475341Y812992D01*
Y816928D01*
X474029D02*
Y812992D01*
X472061D01*
X471405Y813648D01*
Y816272D01*
X472061Y816928D01*
X474029D01*
X275168Y673227D02*
Y669291D01*
Y670603D01*
X272544Y673227D01*
X274512Y671259D01*
X272544Y669291D01*
X271232D02*
X269920D01*
X270576D01*
Y673227D01*
X271232Y672571D01*
X267952Y671259D02*
X265328D01*
X286319Y589482D02*
Y592106D01*
X285007Y593418D01*
X283695Y592106D01*
Y589482D01*
Y591450D01*
X286319D01*
X282383Y593418D02*
Y589482D01*
X280415D01*
X279759Y590138D01*
Y592762D01*
X280415Y593418D01*
X282383D01*
X278447Y589482D02*
X277135D01*
X277792D01*
Y593418D01*
X278447Y592762D01*
X275168Y588826D02*
X272544D01*
X268608Y589482D02*
X271232D01*
X268608Y592106D01*
Y592762D01*
X269264Y593418D01*
X270576D01*
X271232Y592762D01*
X267296Y589482D02*
X265984D01*
X266640D01*
Y593418D01*
X267296Y592762D01*
X479277Y798643D02*
X479933Y799299D01*
X481245D01*
X481901Y798643D01*
Y796019D01*
X481245Y795363D01*
X479933D01*
X479277Y796019D01*
Y797331D01*
X480589D01*
X477965Y795363D02*
Y799299D01*
X475341Y795363D01*
Y799299D01*
X474029D02*
Y795363D01*
X472061D01*
X471405Y796019D01*
Y798643D01*
X472061Y799299D01*
X474029D01*
X254266Y622860D02*
X254922Y623516D01*
X256234D01*
X256890Y622860D01*
Y620236D01*
X256234Y619581D01*
X254922D01*
X254266Y620236D01*
X252954Y619581D02*
Y622204D01*
X251642Y623516D01*
X250330Y622204D01*
Y619581D01*
Y621548D01*
X252954D01*
X249018Y619581D02*
Y623516D01*
X246394Y619581D01*
Y623516D01*
X245082Y618925D02*
X242459D01*
X241147Y623516D02*
Y619581D01*
Y621548D01*
X238523D01*
Y623516D01*
Y619581D01*
X256890Y613188D02*
X254266D01*
X255578D01*
Y609253D01*
X252954Y613188D02*
X250330Y609253D01*
Y613188D02*
X252954Y609253D01*
X254266Y632860D02*
X254922Y633516D01*
X256234D01*
X256890Y632860D01*
Y630236D01*
X256234Y629581D01*
X254922D01*
X254266Y630236D01*
X252954Y629581D02*
Y632204D01*
X251642Y633516D01*
X250330Y632204D01*
Y629581D01*
Y631548D01*
X252954D01*
X249018Y629581D02*
Y633516D01*
X246394Y629581D01*
Y633516D01*
X245082Y628925D02*
X242459D01*
X241147Y633516D02*
Y629581D01*
X238523D01*
X467520Y788516D02*
X464896D01*
X466208Y789828D02*
Y787205D01*
X463584Y786549D02*
X462272D01*
X462928D01*
Y790484D01*
X463584Y789828D01*
X457680Y786549D02*
X460304D01*
X457680Y789172D01*
Y789828D01*
X458336Y790484D01*
X459648D01*
X460304Y789828D01*
X456368Y790484D02*
Y787860D01*
X455056Y786549D01*
X453745Y787860D01*
Y790484D01*
X256890Y599253D02*
Y603188D01*
X254922D01*
X254266Y602532D01*
Y601221D01*
X254922Y600564D01*
X256890D01*
X255578D02*
X254266Y599253D01*
X252954Y603188D02*
X250330Y599253D01*
Y603188D02*
X252954Y599253D01*
X246260Y572084D02*
Y568148D01*
X244292D01*
X243636Y568804D01*
Y569460D01*
X244292Y570116D01*
X246260D01*
X244292D01*
X243636Y570772D01*
Y571428D01*
X244292Y572084D01*
X246260D01*
X242324Y568148D02*
Y572084D01*
X241012Y570772D01*
X239700Y572084D01*
Y568148D01*
X235765Y571428D02*
X236420Y572084D01*
X237732D01*
X238388Y571428D01*
Y570772D01*
X237732Y570116D01*
X236420D01*
X235765Y569460D01*
Y568804D01*
X236420Y568148D01*
X237732D01*
X238388Y568804D01*
X246260Y565944D02*
Y562664D01*
X245604Y562008D01*
X244292D01*
X243636Y562664D01*
Y565944D01*
X242324Y562008D02*
Y564632D01*
X241012Y565944D01*
X239700Y564632D01*
Y562008D01*
Y563976D01*
X242324D01*
X238388Y562008D02*
Y565944D01*
X236420D01*
X235765Y565288D01*
Y563976D01*
X236420Y563320D01*
X238388D01*
X237076D02*
X235765Y562008D01*
X234453Y565944D02*
X231829D01*
X233141D01*
Y562008D01*
X489116Y734317D02*
Y736941D01*
X487804Y738253D01*
X486492Y736941D01*
Y734317D01*
Y736285D01*
X489116D01*
X485180Y738253D02*
Y734317D01*
X483213D01*
X482556Y734973D01*
Y737597D01*
X483213Y738253D01*
X485180D01*
X481245Y734317D02*
X479933D01*
X480589D01*
Y738253D01*
X481245Y737597D01*
X477965Y733661D02*
X475341D01*
X474029Y737597D02*
X473373Y738253D01*
X472061D01*
X471405Y737597D01*
Y734973D01*
X472061Y734317D01*
X473373D01*
X474029Y734973D01*
Y737597D01*
X464896Y763450D02*
X465552Y764106D01*
X466864D01*
X467520Y763450D01*
Y762794D01*
X466864Y762138D01*
X465552D01*
X464896Y761482D01*
Y760826D01*
X465552Y760170D01*
X466864D01*
X467520Y760826D01*
X460960Y763450D02*
X461616Y764106D01*
X462928D01*
X463584Y763450D01*
Y760826D01*
X462928Y760170D01*
X461616D01*
X460960Y760826D01*
X459648Y764106D02*
Y760170D01*
X457024D01*
X286319Y599482D02*
Y602106D01*
X285007Y603418D01*
X283695Y602106D01*
Y599482D01*
Y601450D01*
X286319D01*
X282383Y603418D02*
Y599482D01*
X280415D01*
X279759Y600138D01*
Y602762D01*
X280415Y603418D01*
X282383D01*
X278447Y599482D02*
X277135D01*
X277792D01*
Y603418D01*
X278447Y602762D01*
X275168Y598826D02*
X272544D01*
X268608Y599482D02*
X271232D01*
X268608Y602106D01*
Y602762D01*
X269264Y603418D01*
X270576D01*
X271232Y602762D01*
X267296D02*
X266640Y603418D01*
X265328D01*
X264672Y602762D01*
Y600138D01*
X265328Y599482D01*
X266640D01*
X267296Y600138D01*
Y602762D01*
X486648Y746292D02*
X487304Y746947D01*
X488616D01*
X489272Y746292D01*
Y743668D01*
X488616Y743012D01*
X487304D01*
X486648Y743668D01*
Y744980D01*
X487960D01*
X485336Y746947D02*
X484024D01*
X484680D01*
Y743012D01*
X485336D01*
X484024D01*
X480088Y746947D02*
X481400D01*
X482056Y746292D01*
Y743668D01*
X481400Y743012D01*
X480088D01*
X479432Y743668D01*
Y746292D01*
X480088Y746947D01*
X478120Y743012D02*
Y745636D01*
X476809Y746947D01*
X475497Y745636D01*
Y743012D01*
Y744980D01*
X478120D01*
X471561Y743012D02*
X474185D01*
X471561Y745636D01*
Y746292D01*
X472217Y746947D01*
X473529D01*
X474185Y746292D01*
X464896Y781670D02*
X465552Y782326D01*
X466864D01*
X467520Y781670D01*
Y779046D01*
X466864Y778390D01*
X465552D01*
X464896Y779046D01*
X463584Y778390D02*
Y781014D01*
X462272Y782326D01*
X460960Y781014D01*
Y778390D01*
Y780358D01*
X463584D01*
X459648Y778390D02*
Y782326D01*
X457024Y778390D01*
Y782326D01*
X455713Y777734D02*
X453089D01*
X451777Y782326D02*
Y778390D01*
Y780358D01*
X449153D01*
Y782326D01*
Y778390D01*
X532477Y670865D02*
X531165D01*
X531821D01*
Y666929D01*
X532477D01*
X531165D01*
X526574D02*
X529197D01*
X526574Y669553D01*
Y670209D01*
X527229Y670865D01*
X528541D01*
X529197Y670209D01*
X522638D02*
X523294Y670865D01*
X524606D01*
X525262Y670209D01*
Y667585D01*
X524606Y666929D01*
X523294D01*
X522638Y667585D01*
X464896Y754570D02*
X465552Y755226D01*
X466864D01*
X467520Y754570D01*
Y753914D01*
X466864Y753258D01*
X465552D01*
X464896Y752602D01*
Y751946D01*
X465552Y751290D01*
X466864D01*
X467520Y751946D01*
X463584Y755226D02*
Y751290D01*
X461616D01*
X460960Y751946D01*
Y754570D01*
X461616Y755226D01*
X463584D01*
X459648Y751290D02*
Y753914D01*
X458336Y755226D01*
X457024Y753914D01*
Y751290D01*
Y753258D01*
X459648D01*
X467520Y734317D02*
Y736941D01*
X466208Y738253D01*
X464896Y736941D01*
Y734317D01*
Y736285D01*
X467520D01*
X463584Y738253D02*
Y734317D01*
X461616D01*
X460960Y734973D01*
Y737597D01*
X461616Y738253D01*
X463584D01*
X459648Y734317D02*
X458336D01*
X458992D01*
Y738253D01*
X459648Y737597D01*
X456368Y733661D02*
X453745D01*
X452433Y738253D02*
X449809D01*
Y737597D01*
X452433Y734973D01*
Y734317D01*
X464896Y798643D02*
X465552Y799299D01*
X466864D01*
X467520Y798643D01*
Y796019D01*
X466864Y795363D01*
X465552D01*
X464896Y796019D01*
Y797331D01*
X466208D01*
X463584Y795363D02*
Y799299D01*
X460960Y795363D01*
Y799299D01*
X459648D02*
Y795363D01*
X457680D01*
X457024Y796019D01*
Y798643D01*
X457680Y799299D01*
X459648D01*
X256890Y661221D02*
X254266D01*
X255578Y662532D02*
Y659909D01*
X250330Y663188D02*
X252954D01*
Y661221D01*
X251642Y661876D01*
X250986D01*
X250330Y661221D01*
Y659909D01*
X250986Y659253D01*
X252298D01*
X252954Y659909D01*
X249018Y663188D02*
Y660565D01*
X247706Y659253D01*
X246394Y660565D01*
Y663188D01*
X275168Y653090D02*
Y649154D01*
Y650466D01*
X272544Y653090D01*
X274512Y651122D01*
X272544Y649154D01*
X268608D02*
X271232D01*
X268608Y651778D01*
Y652434D01*
X269264Y653090D01*
X270576D01*
X271232Y652434D01*
X267296Y651122D02*
X264672D01*
X464896Y816272D02*
X465552Y816928D01*
X466864D01*
X467520Y816272D01*
Y813648D01*
X466864Y812992D01*
X465552D01*
X464896Y813648D01*
Y814960D01*
X466208D01*
X463584Y812992D02*
Y816928D01*
X460960Y812992D01*
Y816928D01*
X459648D02*
Y812992D01*
X457680D01*
X457024Y813648D01*
Y816272D01*
X457680Y816928D01*
X459648D01*
X512075Y760170D02*
Y764106D01*
X510763Y762794D01*
X509451Y764106D01*
Y760170D01*
X508139Y764106D02*
X506827D01*
X507483D01*
Y760170D01*
X508139D01*
X506827D01*
X504859Y764106D02*
Y760170D01*
X502891D01*
X502235Y760826D01*
Y761482D01*
X502891Y762138D01*
X504859D01*
X502891D01*
X502235Y762794D01*
Y763450D01*
X502891Y764106D01*
X504859D01*
X498300Y763450D02*
X498955Y764106D01*
X500267D01*
X500923Y763450D01*
Y762794D01*
X500267Y762138D01*
X498955D01*
X498300Y761482D01*
Y760826D01*
X498955Y760170D01*
X500267D01*
X500923Y760826D01*
X496988Y760170D02*
Y764106D01*
X495020D01*
X494364Y763450D01*
Y762138D01*
X495020Y761482D01*
X496988D01*
X493052Y764106D02*
X491740D01*
X492396D01*
Y760170D01*
X493052D01*
X491740D01*
X489772Y763450D02*
X489116Y764106D01*
X487804D01*
X487148Y763450D01*
Y762794D01*
X487804Y762138D01*
X488460D01*
X487804D01*
X487148Y761482D01*
Y760826D01*
X487804Y760170D01*
X489116D01*
X489772Y760826D01*
X485836Y759514D02*
X483213D01*
X479277Y763450D02*
X479933Y764106D01*
X481245D01*
X481901Y763450D01*
Y762794D01*
X481245Y762138D01*
X479933D01*
X479277Y761482D01*
Y760826D01*
X479933Y760170D01*
X481245D01*
X481901Y760826D01*
X475341Y763450D02*
X475997Y764106D01*
X477309D01*
X477965Y763450D01*
Y760826D01*
X477309Y760170D01*
X475997D01*
X475341Y760826D01*
X474029Y764106D02*
Y760170D01*
Y761482D01*
X471405Y764106D01*
X473373Y762138D01*
X471405Y760170D01*
X481901Y806145D02*
X479277D01*
X480589Y807457D02*
Y804834D01*
X475341Y808113D02*
X477965D01*
Y806145D01*
X476653Y806801D01*
X475997D01*
X475341Y806145D01*
Y804834D01*
X475997Y804178D01*
X477309D01*
X477965Y804834D01*
X474029Y808113D02*
Y805490D01*
X472717Y804178D01*
X471405Y805490D01*
Y808113D01*
X254266Y592532D02*
X254922Y593188D01*
X256234D01*
X256890Y592532D01*
Y589909D01*
X256234Y589253D01*
X254922D01*
X254266Y589909D01*
Y591221D01*
X255578D01*
X252954Y589253D02*
Y593188D01*
X250330Y589253D01*
Y593188D01*
X249018D02*
Y589253D01*
X247050D01*
X246394Y589909D01*
Y592532D01*
X247050Y593188D01*
X249018D01*
X515354Y778390D02*
Y782326D01*
X514042Y781014D01*
X512731Y782326D01*
Y778390D01*
X511419Y782326D02*
X510107D01*
X510763D01*
Y778390D01*
X511419D01*
X510107D01*
X508139Y782326D02*
Y778390D01*
X506171D01*
X505515Y779046D01*
Y779702D01*
X506171Y780358D01*
X508139D01*
X506171D01*
X505515Y781014D01*
Y781670D01*
X506171Y782326D01*
X508139D01*
X501579Y781670D02*
X502235Y782326D01*
X503547D01*
X504203Y781670D01*
Y781014D01*
X503547Y780358D01*
X502235D01*
X501579Y779702D01*
Y779046D01*
X502235Y778390D01*
X503547D01*
X504203Y779046D01*
X500267Y778390D02*
Y782326D01*
X498300D01*
X497644Y781670D01*
Y780358D01*
X498300Y779702D01*
X500267D01*
X496332Y782326D02*
X495020D01*
X495676D01*
Y778390D01*
X496332D01*
X495020D01*
X493052Y781670D02*
X492396Y782326D01*
X491084D01*
X490428Y781670D01*
Y781014D01*
X491084Y780358D01*
X491740D01*
X491084D01*
X490428Y779702D01*
Y779046D01*
X491084Y778390D01*
X492396D01*
X493052Y779046D01*
X489116Y777734D02*
X486492D01*
X485180Y778390D02*
Y782326D01*
X483868Y781014D01*
X482556Y782326D01*
Y778390D01*
X481245Y782326D02*
X479933D01*
X480589D01*
Y778390D01*
X481245D01*
X479933D01*
X475341Y781670D02*
X475997Y782326D01*
X477309D01*
X477965Y781670D01*
Y781014D01*
X477309Y780358D01*
X475997D01*
X475341Y779702D01*
Y779046D01*
X475997Y778390D01*
X477309D01*
X477965Y779046D01*
X472061Y782326D02*
X473373D01*
X474029Y781670D01*
Y779046D01*
X473373Y778390D01*
X472061D01*
X471405Y779046D01*
Y781670D01*
X472061Y782326D01*
X511909Y751290D02*
Y755226D01*
X510598Y753914D01*
X509286Y755226D01*
Y751290D01*
X507974Y755226D02*
X506662D01*
X507318D01*
Y751290D01*
X507974D01*
X506662D01*
X504694Y755226D02*
Y751290D01*
X502726D01*
X502070Y751946D01*
Y752602D01*
X502726Y753258D01*
X504694D01*
X502726D01*
X502070Y753914D01*
Y754570D01*
X502726Y755226D01*
X504694D01*
X498134Y754570D02*
X498790Y755226D01*
X500102D01*
X500758Y754570D01*
Y753914D01*
X500102Y753258D01*
X498790D01*
X498134Y752602D01*
Y751946D01*
X498790Y751290D01*
X500102D01*
X500758Y751946D01*
X496823Y751290D02*
Y755226D01*
X494855D01*
X494199Y754570D01*
Y753258D01*
X494855Y752602D01*
X496823D01*
X492887Y755226D02*
X491575D01*
X492231D01*
Y751290D01*
X492887D01*
X491575D01*
X489607Y754570D02*
X488951Y755226D01*
X487639D01*
X486983Y754570D01*
Y753914D01*
X487639Y753258D01*
X488295D01*
X487639D01*
X486983Y752602D01*
Y751946D01*
X487639Y751290D01*
X488951D01*
X489607Y751946D01*
X485671Y750634D02*
X483047D01*
X479112Y754570D02*
X479768Y755226D01*
X481079D01*
X481736Y754570D01*
Y751946D01*
X481079Y751290D01*
X479768D01*
X479112Y751946D01*
X475176Y754570D02*
X475832Y755226D01*
X477144D01*
X477800Y754570D01*
Y753914D01*
X477144Y753258D01*
X475832D01*
X475176Y752602D01*
Y751946D01*
X475832Y751290D01*
X477144D01*
X477800Y751946D01*
X473864Y754570D02*
X473208Y755226D01*
X471896D01*
X471240Y754570D01*
Y751946D01*
X471896Y751290D01*
X473208D01*
X473864Y751946D01*
Y754570D01*
X275168Y663090D02*
Y659154D01*
Y660466D01*
X272544Y663090D01*
X274512Y661122D01*
X272544Y659154D01*
X268608D02*
X271232D01*
X268608Y661778D01*
Y662434D01*
X269264Y663090D01*
X270576D01*
X271232Y662434D01*
X267296Y661122D02*
X264672D01*
X265984Y662434D02*
Y659810D01*
X275168Y683090D02*
Y679154D01*
Y680466D01*
X272544Y683090D01*
X274512Y681122D01*
X272544Y679154D01*
X271232D02*
X269920D01*
X270576D01*
Y683090D01*
X271232Y682434D01*
X267952Y681122D02*
X265328D01*
X266640Y682434D02*
Y679810D01*
X467520Y743132D02*
Y745756D01*
X466208Y747068D01*
X464896Y745756D01*
Y743132D01*
Y745100D01*
X467520D01*
X463584Y747068D02*
Y743132D01*
X461616D01*
X460960Y743788D01*
Y746412D01*
X461616Y747068D01*
X463584D01*
X459648Y743132D02*
X458336D01*
X458992D01*
Y747068D01*
X459648Y746412D01*
X456368Y742476D02*
X453745D01*
X452433Y743132D02*
X451121D01*
X451777D01*
Y747068D01*
X452433Y746412D01*
X449153D02*
X448497Y747068D01*
X447185D01*
X446529Y746412D01*
Y745756D01*
X447185Y745100D01*
X446529Y744444D01*
Y743788D01*
X447185Y743132D01*
X448497D01*
X449153Y743788D01*
Y744444D01*
X448497Y745100D01*
X449153Y745756D01*
Y746412D01*
X448497Y745100D02*
X447185D01*
X275168Y643090D02*
Y639154D01*
Y640466D01*
X272544Y643090D01*
X274512Y641122D01*
X272544Y639154D01*
X271232Y642434D02*
X270576Y643090D01*
X269264D01*
X268608Y642434D01*
Y641778D01*
X269264Y641122D01*
X269920D01*
X269264D01*
X268608Y640466D01*
Y639810D01*
X269264Y639154D01*
X270576D01*
X271232Y639810D01*
X267296Y641122D02*
X264672D01*
X265984Y642434D02*
Y639810D01*
X275168Y633090D02*
Y629154D01*
Y630466D01*
X272544Y633090D01*
X274512Y631122D01*
X272544Y629154D01*
X271232Y632434D02*
X270576Y633090D01*
X269264D01*
X268608Y632434D01*
Y631778D01*
X269264Y631122D01*
X269920D01*
X269264D01*
X268608Y630466D01*
Y629810D01*
X269264Y629154D01*
X270576D01*
X271232Y629810D01*
X267296Y631122D02*
X264672D01*
X254266Y652532D02*
X254922Y653188D01*
X256234D01*
X256890Y652532D01*
Y649909D01*
X256234Y649253D01*
X254922D01*
X254266Y649909D01*
Y651221D01*
X255578D01*
X252954Y649253D02*
Y653188D01*
X250330Y649253D01*
Y653188D01*
X249018D02*
Y649253D01*
X247050D01*
X246394Y649909D01*
Y652532D01*
X247050Y653188D01*
X249018D01*
X485180Y788516D02*
X482556D01*
X483868Y789828D02*
Y787205D01*
X481245Y786549D02*
X479933D01*
X480589D01*
Y790484D01*
X481245Y789828D01*
X475341Y786549D02*
X477965D01*
X475341Y789172D01*
Y789828D01*
X475997Y790484D01*
X477309D01*
X477965Y789828D01*
X474029Y790484D02*
Y787860D01*
X472717Y786549D01*
X471405Y787860D01*
Y790484D01*
X256890Y681220D02*
X254266D01*
X255578Y682532D02*
Y679909D01*
X252954Y679253D02*
X251642D01*
X252298D01*
Y683188D01*
X252954Y682532D01*
X247050Y679253D02*
X249674D01*
X247050Y681876D01*
Y682532D01*
X247706Y683188D01*
X249018D01*
X249674Y682532D01*
X245739Y683188D02*
Y680564D01*
X244427Y679253D01*
X243115Y680564D01*
Y683188D01*
X238518Y730740D02*
X239174Y731396D01*
X240486D01*
X241142Y730740D01*
Y728117D01*
X240486Y727461D01*
X239174D01*
X238518Y728117D01*
X237206Y727461D02*
Y730085D01*
X235894Y731396D01*
X234582Y730085D01*
Y727461D01*
Y729428D01*
X237206D01*
X233270Y727461D02*
Y731396D01*
X230646Y727461D01*
Y731396D01*
X229334Y726805D02*
X226711D01*
X225399Y731396D02*
Y727461D01*
X222775D01*
X238518Y740780D02*
X239174Y741436D01*
X240486D01*
X241142Y740780D01*
Y738156D01*
X240486Y737500D01*
X239174D01*
X238518Y738156D01*
X237206Y737500D02*
Y740124D01*
X235894Y741436D01*
X234582Y740124D01*
Y737500D01*
Y739468D01*
X237206D01*
X233270Y737500D02*
Y741436D01*
X230646Y737500D01*
Y741436D01*
X229334Y736844D02*
X226711D01*
X225399Y741436D02*
Y737500D01*
Y739468D01*
X222775D01*
Y741436D01*
Y737500D01*
X230646Y750426D02*
X231302Y751082D01*
X232614D01*
X233270Y750426D01*
Y747802D01*
X232614Y747146D01*
X231302D01*
X230646Y747802D01*
Y749114D01*
X231958D01*
X229334Y747146D02*
Y751082D01*
X226711Y747146D01*
Y751082D01*
X225399D02*
Y747146D01*
X223431D01*
X222775Y747802D01*
Y750426D01*
X223431Y751082D01*
X225399D01*
X218341Y759579D02*
X218997Y760235D01*
X220309D01*
X220965Y759579D01*
Y756955D01*
X220309Y756299D01*
X218997D01*
X218341Y756955D01*
X217029Y756299D02*
Y758923D01*
X215717Y760235D01*
X214405Y758923D01*
Y756299D01*
Y758267D01*
X217029D01*
X213093Y756299D02*
Y760235D01*
X210469Y756299D01*
Y760235D01*
X231004Y554882D02*
Y558818D01*
X229036D01*
X228380Y558162D01*
Y556850D01*
X229036Y556194D01*
X231004D01*
X229692D02*
X228380Y554882D01*
X227068Y558818D02*
X224444Y554882D01*
Y558818D02*
X227068Y554882D01*
X231004Y548818D02*
X228380D01*
X229692D01*
Y544882D01*
X227068Y548818D02*
X224444Y544882D01*
Y548818D02*
X227068Y544882D01*
X232316Y538162D02*
X232972Y538818D01*
X234284D01*
X234940Y538162D01*
Y535538D01*
X234284Y534882D01*
X232972D01*
X232316Y535538D01*
Y536850D01*
X233628D01*
X231004Y534882D02*
Y538818D01*
X228380Y534882D01*
Y538818D01*
X227068D02*
Y534882D01*
X225100D01*
X224444Y535538D01*
Y538162D01*
X225100Y538818D01*
X227068D01*
X586873Y603051D02*
X584249D01*
X585561Y604362D02*
Y601739D01*
X580314Y605018D02*
X582937D01*
Y603051D01*
X581626Y603707D01*
X580970D01*
X580314Y603051D01*
Y601739D01*
X580970Y601083D01*
X582282D01*
X582937Y601739D01*
X579002Y605018D02*
Y602395D01*
X577690Y601083D01*
X576378Y602395D01*
Y605018D01*
X590809Y593110D02*
X588185D01*
X589497Y594421D02*
Y591798D01*
X586873Y594421D02*
X586217Y595078D01*
X584905D01*
X584249Y594421D01*
Y593765D01*
X584905Y593110D01*
X585561D01*
X584905D01*
X584249Y592454D01*
Y591798D01*
X584905Y591142D01*
X586217D01*
X586873Y591798D01*
X582937Y595078D02*
Y592454D01*
X581626Y591142D01*
X580314Y592454D01*
Y595078D01*
X579002Y594421D02*
X578346Y595078D01*
X577034D01*
X576378Y594421D01*
Y593765D01*
X577034Y593110D01*
X577690D01*
X577034D01*
X576378Y592454D01*
Y591798D01*
X577034Y591142D01*
X578346D01*
X579002Y591798D01*
X598025Y585406D02*
Y581470D01*
Y583438D01*
X595401D01*
Y585406D01*
Y581470D01*
X591465Y585406D02*
X594089D01*
Y581470D01*
X591465D01*
X594089Y583438D02*
X592777D01*
X590153Y585406D02*
X587529D01*
X588841D01*
Y581470D01*
X586217D02*
X584905D01*
X585561D01*
Y585406D01*
X586217Y584750D01*
X582937Y580814D02*
X580314D01*
X577034Y581470D02*
Y585406D01*
X579002Y583438D01*
X576378D01*
X598025Y575406D02*
Y571470D01*
Y573438D01*
X595401D01*
Y575406D01*
Y571470D01*
X591465Y575406D02*
X594089D01*
Y571470D01*
X591465D01*
X594089Y573438D02*
X592777D01*
X590153Y575406D02*
X587529D01*
X588841D01*
Y571470D01*
X586217D02*
X584905D01*
X585561D01*
Y575406D01*
X586217Y574750D01*
X582937Y570814D02*
X580314D01*
X579002Y575406D02*
X576378D01*
Y574750D01*
X579002Y572126D01*
Y571470D01*
X584249Y564422D02*
X584905Y565078D01*
X586217D01*
X586873Y564422D01*
Y561798D01*
X586217Y561142D01*
X584905D01*
X584249Y561798D01*
Y563110D01*
X585561D01*
X582937Y561142D02*
Y565078D01*
X580314Y561142D01*
Y565078D01*
X579002D02*
Y561142D01*
X577034D01*
X576378Y561798D01*
Y564422D01*
X577034Y565078D01*
X579002D01*
X584249Y554422D02*
X584905Y555078D01*
X586217D01*
X586873Y554422D01*
Y551798D01*
X586217Y551142D01*
X584905D01*
X584249Y551798D01*
Y553110D01*
X585561D01*
X582937Y551142D02*
Y555078D01*
X580314Y551142D01*
Y555078D01*
X579002D02*
Y551142D01*
X577034D01*
X576378Y551798D01*
Y554422D01*
X577034Y555078D01*
X579002D01*
X584249Y544323D02*
X584905Y544979D01*
X586217D01*
X586873Y544323D01*
Y541699D01*
X586217Y541043D01*
X584905D01*
X584249Y541699D01*
Y543011D01*
X585561D01*
X582937Y541043D02*
Y544979D01*
X580314Y541043D01*
Y544979D01*
X579002D02*
Y541043D01*
X577034D01*
X576378Y541699D01*
Y544323D01*
X577034Y544979D01*
X579002D01*
X584249Y534382D02*
X584905Y535038D01*
X586217D01*
X586873Y534382D01*
Y531758D01*
X586217Y531102D01*
X584905D01*
X584249Y531758D01*
Y533070D01*
X585561D01*
X582937Y531102D02*
Y535038D01*
X580314Y531102D01*
Y535038D01*
X579002D02*
Y531102D01*
X577034D01*
X576378Y531758D01*
Y534382D01*
X577034Y535038D01*
X579002D01*
X551637Y603110D02*
X549013D01*
X550325Y604422D02*
Y601798D01*
X545078Y605078D02*
X547701D01*
Y603110D01*
X546389Y603766D01*
X545733D01*
X545078Y603110D01*
Y601798D01*
X545733Y601142D01*
X547045D01*
X547701Y601798D01*
X543765Y605078D02*
Y602454D01*
X542454Y601142D01*
X541142Y602454D01*
Y605078D01*
X551637Y593110D02*
X549013D01*
X550325Y594422D02*
Y591798D01*
X547701Y594422D02*
X547045Y595078D01*
X545733D01*
X545078Y594422D01*
Y593766D01*
X545733Y593110D01*
X546389D01*
X545733D01*
X545078Y592454D01*
Y591798D01*
X545733Y591142D01*
X547045D01*
X547701Y591798D01*
X543765Y595078D02*
Y592454D01*
X542454Y591142D01*
X541142Y592454D01*
Y595078D01*
X539830Y594422D02*
X539174Y595078D01*
X537862D01*
X537206Y594422D01*
Y593766D01*
X537862Y593110D01*
X538518D01*
X537862D01*
X537206Y592454D01*
Y591798D01*
X537862Y591142D01*
X539174D01*
X539830Y591798D01*
X551637Y585629D02*
Y581693D01*
Y583661D01*
X549013D01*
Y585629D01*
Y581693D01*
X545078Y585629D02*
X547701D01*
Y581693D01*
X545078D01*
X547701Y583661D02*
X546389D01*
X543765Y585629D02*
X541142D01*
X542454D01*
Y581693D01*
X539830D02*
X538518D01*
X539174D01*
Y585629D01*
X539830Y584973D01*
X536550Y581037D02*
X533926D01*
X532614Y582349D02*
X531958Y581693D01*
X530646D01*
X529990Y582349D01*
Y584973D01*
X530646Y585629D01*
X531958D01*
X532614Y584973D01*
Y584317D01*
X531958Y583661D01*
X529990D01*
X551637Y575406D02*
Y571470D01*
Y573438D01*
X549013D01*
Y575406D01*
Y571470D01*
X545078Y575406D02*
X547701D01*
Y571470D01*
X545078D01*
X547701Y573438D02*
X546389D01*
X543765Y575406D02*
X541142D01*
X542454D01*
Y571470D01*
X539830D02*
X538518D01*
X539174D01*
Y575406D01*
X539830Y574750D01*
X536550Y570814D02*
X533926D01*
X529990Y571470D02*
X532614D01*
X529990Y574094D01*
Y574750D01*
X530646Y575406D01*
X531958D01*
X532614Y574750D01*
X526055Y575406D02*
X528679D01*
Y573438D01*
X527367Y574094D01*
X526711D01*
X526055Y573438D01*
Y572126D01*
X526711Y571470D01*
X528023D01*
X528679Y572126D01*
X551637Y565550D02*
Y561614D01*
Y563582D01*
X549013D01*
Y565550D01*
Y561614D01*
X545078Y565550D02*
X547701D01*
Y561614D01*
X545078D01*
X547701Y563582D02*
X546389D01*
X543765Y565550D02*
X541142D01*
X542454D01*
Y561614D01*
X539830D02*
X538518D01*
X539174D01*
Y565550D01*
X539830Y564894D01*
X536550Y560958D02*
X533926D01*
X529990Y565550D02*
X532614D01*
Y563582D01*
X531302Y564238D01*
X530646D01*
X529990Y563582D01*
Y562270D01*
X530646Y561614D01*
X531958D01*
X532614Y562270D01*
X549013Y554855D02*
X549669Y555511D01*
X550981D01*
X551637Y554855D01*
Y552231D01*
X550981Y551575D01*
X549669D01*
X549013Y552231D01*
Y553543D01*
X550325D01*
X547701Y551575D02*
Y555511D01*
X545078Y551575D01*
Y555511D01*
X543765D02*
Y551575D01*
X541798D01*
X541142Y552231D01*
Y554855D01*
X541798Y555511D01*
X543765D01*
X549013Y544619D02*
X549669Y545275D01*
X550981D01*
X551637Y544619D01*
Y541995D01*
X550981Y541339D01*
X549669D01*
X549013Y541995D01*
Y543307D01*
X550325D01*
X547701Y541339D02*
Y545275D01*
X545078Y541339D01*
Y545275D01*
X543765D02*
Y541339D01*
X541798D01*
X541142Y541995D01*
Y544619D01*
X541798Y545275D01*
X543765D01*
X549013Y534619D02*
X549669Y535275D01*
X550981D01*
X551637Y534619D01*
Y531995D01*
X550981Y531339D01*
X549669D01*
X549013Y531995D01*
Y533307D01*
X550325D01*
X547701Y531339D02*
Y535275D01*
X545078Y531339D01*
Y535275D01*
X543765D02*
Y531339D01*
X541798D01*
X541142Y531995D01*
Y534619D01*
X541798Y535275D01*
X543765D01*
X567421Y677362D02*
Y681298D01*
X566109Y679986D01*
X564797Y681298D01*
Y677362D01*
X563485Y681298D02*
X562174D01*
X562830D01*
Y677362D01*
X563485D01*
X562174D01*
X560206Y681298D02*
Y677362D01*
X558238D01*
X557582Y678018D01*
Y678674D01*
X558238Y679330D01*
X560206D01*
X558238D01*
X557582Y679986D01*
Y680642D01*
X558238Y681298D01*
X560206D01*
X553646Y680642D02*
X554302Y681298D01*
X555614D01*
X556270Y680642D01*
Y679986D01*
X555614Y679330D01*
X554302D01*
X553646Y678674D01*
Y678018D01*
X554302Y677362D01*
X555614D01*
X556270Y678018D01*
X552334Y677362D02*
Y681298D01*
X550366D01*
X549710Y680642D01*
Y679330D01*
X550366Y678674D01*
X552334D01*
X548398Y681298D02*
X547087D01*
X547743D01*
Y677362D01*
X548398D01*
X547087D01*
X545119Y680642D02*
X544463Y681298D01*
X543151D01*
X542495Y680642D01*
Y679986D01*
X543151Y679330D01*
X543807D01*
X543151D01*
X542495Y678674D01*
Y678018D01*
X543151Y677362D01*
X544463D01*
X545119Y678018D01*
X552653Y667028D02*
Y670963D01*
X551341Y669651D01*
X550029Y670963D01*
Y667028D01*
X548717Y670963D02*
X547405D01*
X548061D01*
Y667028D01*
X548717D01*
X547405D01*
X542814Y670307D02*
X543470Y670963D01*
X544781D01*
X545437Y670307D01*
Y669651D01*
X544781Y668995D01*
X543470D01*
X542814Y668339D01*
Y667684D01*
X543470Y667028D01*
X544781D01*
X545437Y667684D01*
X539534Y670963D02*
X540846D01*
X541502Y670307D01*
Y667684D01*
X540846Y667028D01*
X539534D01*
X538878Y667684D01*
Y670307D01*
X539534Y670963D01*
X552653Y656989D02*
Y660925D01*
X551341Y659613D01*
X550029Y660925D01*
Y656989D01*
X546749Y660925D02*
X548061D01*
X548717Y660269D01*
Y657645D01*
X548061Y656989D01*
X546749D01*
X546094Y657645D01*
Y660269D01*
X546749Y660925D01*
X542158Y660269D02*
X542814Y660925D01*
X544126D01*
X544781Y660269D01*
Y659613D01*
X544126Y658957D01*
X542814D01*
X542158Y658301D01*
Y657645D01*
X542814Y656989D01*
X544126D01*
X544781Y657645D01*
X540846Y660925D02*
X539534D01*
X540190D01*
Y656989D01*
X540846D01*
X539534D01*
X550029Y650269D02*
X550685Y650925D01*
X551997D01*
X552653Y650269D01*
Y649613D01*
X551997Y648957D01*
X550685D01*
X550029Y648301D01*
Y647645D01*
X550685Y646989D01*
X551997D01*
X552653Y647645D01*
X546094Y650269D02*
X546749Y650925D01*
X548061D01*
X548717Y650269D01*
Y647645D01*
X548061Y646989D01*
X546749D01*
X546094Y647645D01*
X544781Y650925D02*
Y646989D01*
Y648301D01*
X542158Y650925D01*
X544126Y648957D01*
X542158Y646989D01*
X550029Y640288D02*
X550685Y640944D01*
X551997D01*
X552653Y640288D01*
Y637664D01*
X551997Y637008D01*
X550685D01*
X550029Y637664D01*
X546094Y640288D02*
X546749Y640944D01*
X548061D01*
X548717Y640288D01*
Y639632D01*
X548061Y638976D01*
X546749D01*
X546094Y638320D01*
Y637664D01*
X546749Y637008D01*
X548061D01*
X548717Y637664D01*
X523226Y640131D02*
X523882Y640787D01*
X525194D01*
X525850Y640131D01*
Y637507D01*
X525194Y636851D01*
X523882D01*
X523226Y637507D01*
Y638819D01*
X524538D01*
X521914Y636851D02*
Y640787D01*
X519290Y636851D01*
Y640787D01*
X517978D02*
Y636851D01*
X516010D01*
X515354Y637507D01*
Y640131D01*
X516010Y640787D01*
X517978D01*
X523226Y650131D02*
X523882Y650787D01*
X525194D01*
X525850Y650131D01*
Y649475D01*
X525194Y648819D01*
X523882D01*
X523226Y648163D01*
Y647507D01*
X523882Y646851D01*
X525194D01*
X525850Y647507D01*
X521914Y650787D02*
Y646851D01*
X519946D01*
X519290Y647507D01*
Y650131D01*
X519946Y650787D01*
X521914D01*
X517978Y646851D02*
Y649475D01*
X516666Y650787D01*
X515354Y649475D01*
Y646851D01*
Y648819D01*
X517978D01*
X523226Y660131D02*
X523882Y660787D01*
X525194D01*
X525850Y660131D01*
Y659475D01*
X525194Y658819D01*
X523882D01*
X523226Y658163D01*
Y657507D01*
X523882Y656851D01*
X525194D01*
X525850Y657507D01*
X519290Y660131D02*
X519946Y660787D01*
X521258D01*
X521914Y660131D01*
Y657507D01*
X521258Y656851D01*
X519946D01*
X519290Y657507D01*
X517978Y660787D02*
Y656851D01*
X515354D01*
X347146Y636811D02*
Y640747D01*
X345834Y639435D01*
X344522Y640747D01*
Y636811D01*
X343210Y640747D02*
X341898D01*
X342554D01*
Y636811D01*
X343210D01*
X341898D01*
X339930Y640747D02*
Y636811D01*
X337962D01*
X337306Y637467D01*
Y638123D01*
X337962Y638779D01*
X339930D01*
X337962D01*
X337306Y639435D01*
Y640091D01*
X337962Y640747D01*
X339930D01*
X333371Y640091D02*
X334027Y640747D01*
X335338D01*
X335994Y640091D01*
Y639435D01*
X335338Y638779D01*
X334027D01*
X333371Y638123D01*
Y637467D01*
X334027Y636811D01*
X335338D01*
X335994Y637467D01*
X332059Y636811D02*
Y640747D01*
X330091D01*
X329435Y640091D01*
Y638779D01*
X330091Y638123D01*
X332059D01*
X328123Y640747D02*
X326811D01*
X327467D01*
Y636811D01*
X328123D01*
X326811D01*
X324843D02*
X323531D01*
X324187D01*
Y640747D01*
X324843Y640091D01*
X345668Y630210D02*
X346324Y630865D01*
X347636D01*
X348292Y630210D01*
Y627586D01*
X347636Y626930D01*
X346324D01*
X345668Y627586D01*
X341732Y630210D02*
X342388Y630865D01*
X343700D01*
X344356Y630210D01*
Y629554D01*
X343700Y628898D01*
X342388D01*
X341732Y628242D01*
Y627586D01*
X342388Y626930D01*
X343700D01*
X344356Y627586D01*
X349604Y620210D02*
X350260Y620865D01*
X351572D01*
X352228Y620210D01*
Y617586D01*
X351572Y616930D01*
X350260D01*
X349604Y617586D01*
X348292Y620865D02*
Y616930D01*
X345668D01*
X344356Y620865D02*
Y616930D01*
Y618242D01*
X341732Y620865D01*
X343700Y618898D01*
X341732Y616930D01*
X354851Y606930D02*
Y610865D01*
X353539Y609554D01*
X352228Y610865D01*
Y606930D01*
X348948Y610865D02*
X350260D01*
X350916Y610210D01*
Y607586D01*
X350260Y606930D01*
X348948D01*
X348292Y607586D01*
Y610210D01*
X348948Y610865D01*
X344356Y610210D02*
X345012Y610865D01*
X346324D01*
X346980Y610210D01*
Y609554D01*
X346324Y608898D01*
X345012D01*
X344356Y608242D01*
Y607586D01*
X345012Y606930D01*
X346324D01*
X346980Y607586D01*
X343044Y610865D02*
X341732D01*
X342388D01*
Y606930D01*
X343044D01*
X341732D01*
X355507Y596930D02*
Y600866D01*
X354195Y599554D01*
X352884Y600866D01*
Y596930D01*
X351572Y600866D02*
X350260D01*
X350916D01*
Y596930D01*
X351572D01*
X350260D01*
X345668Y600210D02*
X346324Y600866D01*
X347636D01*
X348292Y600210D01*
Y599554D01*
X347636Y598898D01*
X346324D01*
X345668Y598242D01*
Y597586D01*
X346324Y596930D01*
X347636D01*
X348292Y597586D01*
X342388Y600866D02*
X343700D01*
X344356Y600210D01*
Y597586D01*
X343700Y596930D01*
X342388D01*
X341732Y597586D01*
Y600210D01*
X342388Y600866D01*
X349604Y590288D02*
X350260Y590944D01*
X351572D01*
X352228Y590288D01*
Y587664D01*
X351572Y587008D01*
X350260D01*
X349604Y587664D01*
Y588976D01*
X350916D01*
X348292Y587008D02*
Y590944D01*
X345668Y587008D01*
Y590944D01*
X344356D02*
Y587008D01*
X342388D01*
X341732Y587664D01*
Y590288D01*
X342388Y590944D01*
X344356D01*
M02*
