G04*
G04 #@! TF.GenerationSoftware,Altium Limited,Altium Designer,18.1.7 (191)*
G04*
G04 Layer_Color=16711935*
%FSLAX25Y25*%
%MOIN*%
G70*
G01*
G75*
%ADD116C,0.07099*%
%ADD117C,0.00800*%
%ADD118C,0.08280*%
%ADD119C,0.09461*%
%ADD120C,0.28359*%
%ADD121C,0.03162*%
%ADD122C,0.02769*%
D116*
X549921Y747913D02*
D03*
X539921D02*
D03*
X559094Y638819D02*
D03*
Y628819D02*
D03*
Y668819D02*
D03*
Y658819D02*
D03*
Y648819D02*
D03*
X506791Y558366D02*
D03*
X516791D02*
D03*
X559094Y602913D02*
D03*
Y592913D02*
D03*
Y562913D02*
D03*
Y582913D02*
D03*
Y572913D02*
D03*
Y552913D02*
D03*
Y542913D02*
D03*
Y532913D02*
D03*
X569095D02*
D03*
Y542913D02*
D03*
Y552913D02*
D03*
Y572913D02*
D03*
Y582913D02*
D03*
Y562913D02*
D03*
Y592913D02*
D03*
Y602913D02*
D03*
X533169Y638819D02*
D03*
Y648819D02*
D03*
Y658819D02*
D03*
X215158Y536850D02*
D03*
Y546850D02*
D03*
Y556850D02*
D03*
X537008Y699055D02*
D03*
Y709055D02*
D03*
X555512Y699055D02*
D03*
Y709055D02*
D03*
X334173Y618898D02*
D03*
Y628898D02*
D03*
Y588898D02*
D03*
Y598898D02*
D03*
Y608898D02*
D03*
X575866Y709055D02*
D03*
Y699055D02*
D03*
Y689055D02*
D03*
D117*
X224685Y835039D02*
D03*
Y725039D02*
D03*
X224528Y691221D02*
D03*
Y581220D02*
D03*
X588189Y819685D02*
D03*
D118*
X229685Y825039D02*
D03*
X219685D02*
D03*
Y815039D02*
D03*
X229685D02*
D03*
Y805039D02*
D03*
X219685D02*
D03*
Y795039D02*
D03*
X229685D02*
D03*
Y785039D02*
D03*
X219685D02*
D03*
Y775039D02*
D03*
X229685D02*
D03*
Y765039D02*
D03*
X219685D02*
D03*
Y755039D02*
D03*
X229685D02*
D03*
Y745039D02*
D03*
X219685D02*
D03*
Y735039D02*
D03*
X229685D02*
D03*
X229528Y681220D02*
D03*
X219528D02*
D03*
Y671220D02*
D03*
X229528D02*
D03*
Y661221D02*
D03*
X219528D02*
D03*
Y651221D02*
D03*
X229528D02*
D03*
Y641221D02*
D03*
X219528D02*
D03*
Y631220D02*
D03*
X229528D02*
D03*
Y621220D02*
D03*
X219528D02*
D03*
Y611221D02*
D03*
X229528D02*
D03*
Y601221D02*
D03*
X219528D02*
D03*
Y591221D02*
D03*
X229528D02*
D03*
D119*
X559449Y819685D02*
D03*
X537795D02*
D03*
D120*
X582677Y868110D02*
D03*
X225197Y510236D02*
D03*
X583465Y509449D02*
D03*
X224410Y867717D02*
D03*
D121*
X431358Y683957D02*
D03*
X214904Y696969D02*
D03*
X489461Y717264D02*
D03*
X439173Y723622D02*
D03*
X416831Y726968D02*
D03*
X452264Y722342D02*
D03*
X454134Y729823D02*
D03*
X428937Y732382D02*
D03*
X212303Y701181D02*
D03*
X564075Y720276D02*
D03*
X566563Y725174D02*
D03*
X567843Y731040D02*
D03*
X587106Y734547D02*
D03*
X588189Y629724D02*
D03*
X591978Y739813D02*
D03*
X591929Y623917D02*
D03*
X596654Y743504D02*
D03*
Y619685D02*
D03*
X509449Y760630D02*
D03*
X513976Y765256D02*
D03*
D122*
X283268Y532480D02*
D03*
X287598D02*
D03*
X283268Y528150D02*
D03*
X287598D02*
D03*
M02*
