G04 Layer_Color=32896*
%FSLAX25Y25*%
%MOIN*%
G70*
G01*
G75*
%ADD68C,0.00394*%
%ADD70C,0.00591*%
D68*
X594488Y631595D02*
Y640748D01*
X584646Y631595D02*
X594488D01*
X584646Y640748D02*
X594488D01*
X584646Y631595D02*
Y640748D01*
Y631595D02*
Y640748D01*
X575000Y631595D02*
X584646D01*
X575000Y640748D02*
X584646D01*
X575000Y631595D02*
Y640748D01*
X594488Y641535D02*
Y650689D01*
X584646Y641535D02*
X594488D01*
X584646Y650689D02*
X594488D01*
X584646Y641535D02*
Y650689D01*
X575000Y641535D02*
Y650689D01*
X584646D01*
X575000Y641535D02*
X584646D01*
Y650689D01*
X575000Y660630D02*
X584646D01*
Y651476D02*
Y660630D01*
X575000Y651476D02*
Y660630D01*
Y651476D02*
X584646D01*
X575000Y670571D02*
X584646D01*
Y661417D02*
Y670571D01*
X575000Y661417D02*
Y670571D01*
Y661417D02*
X584646D01*
X575000Y671358D02*
Y680512D01*
X584646D01*
X575000Y671358D02*
X584646D01*
Y680512D01*
Y681398D02*
Y690551D01*
X575000Y681398D02*
X584646D01*
X575000Y690551D02*
X584646D01*
X575000Y681398D02*
Y690551D01*
X594488Y691339D02*
Y700492D01*
X575000Y691339D02*
X594488D01*
X575000Y700492D02*
X594488D01*
X575000Y691339D02*
Y700492D01*
X594488Y701378D02*
Y710532D01*
X575000Y701378D02*
X594488D01*
X575000Y710532D02*
X594488D01*
X575000Y701378D02*
Y710532D01*
X594488Y711417D02*
Y720669D01*
X575000Y711417D02*
X594488D01*
X575000Y720669D02*
X594488D01*
X575000Y711417D02*
Y720669D01*
Y721555D02*
Y730709D01*
X594488D01*
X575000Y721555D02*
X594488D01*
Y730709D01*
X565158Y616634D02*
Y627067D01*
X572933Y634842D01*
Y647933D01*
D70*
X562303Y616502D02*
Y619126D01*
X560991Y620438D01*
X559679Y619126D01*
Y616502D01*
Y618470D01*
X562303D01*
X558367Y620438D02*
Y616502D01*
X556399D01*
X555744Y617158D01*
Y619782D01*
X556399Y620438D01*
X558367D01*
X554432Y616502D02*
X553120D01*
X553776D01*
Y620438D01*
X554432Y619782D01*
X551152Y615846D02*
X548528D01*
X547216Y619782D02*
X546560Y620438D01*
X545248D01*
X544592Y619782D01*
Y617158D01*
X545248Y616502D01*
X546560D01*
X547216Y617158D01*
Y619782D01*
X270669Y643896D02*
Y639961D01*
Y641272D01*
X268045Y643896D01*
X270013Y641928D01*
X268045Y639961D01*
X266734Y643240D02*
X266078Y643896D01*
X264766D01*
X264110Y643240D01*
Y642584D01*
X264766Y641928D01*
X265422D01*
X264766D01*
X264110Y641272D01*
Y640617D01*
X264766Y639961D01*
X266078D01*
X266734Y640617D01*
X262798Y641928D02*
X260174D01*
X261486Y643240D02*
Y640617D01*
X571490Y677656D02*
X572146Y678312D01*
X573458D01*
X574114Y677656D01*
Y675032D01*
X573458Y674376D01*
X572146D01*
X571490Y675032D01*
X570178Y674376D02*
Y677000D01*
X568866Y678312D01*
X567555Y677000D01*
Y674376D01*
Y676344D01*
X570178D01*
X566243Y674376D02*
Y678312D01*
X563619Y674376D01*
Y678312D01*
X562307Y673721D02*
X559683D01*
X558371Y678312D02*
Y674376D01*
X555747D01*
X252854Y680511D02*
X250231D01*
X251542Y681823D02*
Y679199D01*
X248919Y678543D02*
X247607D01*
X248263D01*
Y682479D01*
X248919Y681823D01*
X243015Y678543D02*
X245639D01*
X243015Y681167D01*
Y681823D01*
X243671Y682479D01*
X244983D01*
X245639Y681823D01*
X241703Y682479D02*
Y679855D01*
X240391Y678543D01*
X239079Y679855D01*
Y682479D01*
X571490Y707512D02*
X572146Y708168D01*
X573458D01*
X574114Y707512D01*
Y704888D01*
X573458Y704232D01*
X572146D01*
X571490Y704888D01*
Y706200D01*
X572802D01*
X570178Y704232D02*
Y708168D01*
X567555Y704232D01*
Y708168D01*
X566243D02*
Y704232D01*
X564275D01*
X563619Y704888D01*
Y707512D01*
X564275Y708168D01*
X566243D01*
X271457Y663778D02*
Y659842D01*
Y661154D01*
X268833Y663778D01*
X270801Y661810D01*
X268833Y659842D01*
X264897D02*
X267521D01*
X264897Y662466D01*
Y663122D01*
X265553Y663778D01*
X266865D01*
X267521Y663122D01*
X263585Y661810D02*
X260961D01*
X262273Y663122D02*
Y660499D01*
X571490Y687400D02*
X572146Y688056D01*
X573458D01*
X574114Y687400D01*
Y684776D01*
X573458Y684121D01*
X572146D01*
X571490Y684776D01*
X570178Y684121D02*
Y686744D01*
X568866Y688056D01*
X567555Y686744D01*
Y684121D01*
Y686088D01*
X570178D01*
X566243Y684121D02*
Y688056D01*
X563619Y684121D01*
Y688056D01*
X562307Y683465D02*
X559683D01*
X558371Y688056D02*
Y684121D01*
Y686088D01*
X555747D01*
Y688056D01*
Y684121D01*
X253971Y621849D02*
X254627Y622505D01*
X255939D01*
X256594Y621849D01*
Y619225D01*
X255939Y618569D01*
X254627D01*
X253971Y619225D01*
X252659Y618569D02*
Y621193D01*
X251347Y622505D01*
X250035Y621193D01*
Y618569D01*
Y620537D01*
X252659D01*
X248723Y618569D02*
Y622505D01*
X246099Y618569D01*
Y622505D01*
X244787Y617913D02*
X242163D01*
X240851Y622505D02*
Y618569D01*
Y620537D01*
X238228D01*
Y622505D01*
Y618569D01*
X249935Y594421D02*
X250591Y595078D01*
X251903D01*
X252559Y594421D01*
Y591798D01*
X251903Y591142D01*
X250591D01*
X249935Y591798D01*
Y593110D01*
X251247D01*
X248623Y591142D02*
Y595078D01*
X246000Y591142D01*
Y595078D01*
X244688D02*
Y591142D01*
X242720D01*
X242064Y591798D01*
Y594421D01*
X242720Y595078D01*
X244688D01*
X267913Y653739D02*
Y649803D01*
Y651115D01*
X265290Y653739D01*
X267257Y651771D01*
X265290Y649803D01*
X261354D02*
X263978D01*
X261354Y652427D01*
Y653083D01*
X262010Y653739D01*
X263322D01*
X263978Y653083D01*
X260042Y651771D02*
X257418D01*
X571490Y727394D02*
X572146Y728050D01*
X573458D01*
X574114Y727394D01*
Y724770D01*
X573458Y724114D01*
X572146D01*
X571490Y724770D01*
Y726082D01*
X572802D01*
X570178Y724114D02*
Y728050D01*
X567555Y724114D01*
Y728050D01*
X566243D02*
Y724114D01*
X564275D01*
X563619Y724770D01*
Y727394D01*
X564275Y728050D01*
X566243D01*
X281004Y601935D02*
Y604559D01*
X279692Y605871D01*
X278380Y604559D01*
Y601935D01*
Y603903D01*
X281004D01*
X277068Y605871D02*
Y601935D01*
X275100D01*
X274444Y602591D01*
Y605215D01*
X275100Y605871D01*
X277068D01*
X273132Y601935D02*
X271821D01*
X272477D01*
Y605871D01*
X273132Y605215D01*
X269853Y601279D02*
X267229D01*
X263293Y601935D02*
X265917D01*
X263293Y604559D01*
Y605215D01*
X263949Y605871D01*
X265261D01*
X265917Y605215D01*
X261981D02*
X261325Y605871D01*
X260013D01*
X259357Y605215D01*
Y602591D01*
X260013Y601935D01*
X261325D01*
X261981Y602591D01*
Y605215D01*
X245703Y674441D02*
X246359Y675097D01*
X247671D01*
X248327Y674441D01*
Y671817D01*
X247671Y671161D01*
X246359D01*
X245703Y671817D01*
Y673129D01*
X247015D01*
X244391Y671161D02*
Y675097D01*
X241767Y671161D01*
Y675097D01*
X240455D02*
Y671161D01*
X238487D01*
X237831Y671817D01*
Y674441D01*
X238487Y675097D01*
X240455D01*
X245408Y652689D02*
X246064Y653345D01*
X247376D01*
X248031Y652689D01*
Y650065D01*
X247376Y649409D01*
X246064D01*
X245408Y650065D01*
Y651377D01*
X246720D01*
X244096Y649409D02*
Y653345D01*
X241472Y649409D01*
Y653345D01*
X240160D02*
Y649409D01*
X238192D01*
X237536Y650065D01*
Y652689D01*
X238192Y653345D01*
X240160D01*
X571490Y667551D02*
X572146Y668207D01*
X573458D01*
X574114Y667551D01*
Y666895D01*
X573458Y666240D01*
X572146D01*
X571490Y665584D01*
Y664928D01*
X572146Y664272D01*
X573458D01*
X574114Y664928D01*
X567555Y667551D02*
X568211Y668207D01*
X569522D01*
X570178Y667551D01*
Y664928D01*
X569522Y664272D01*
X568211D01*
X567555Y664928D01*
X566243Y668207D02*
Y664272D01*
X563619D01*
X571490Y657709D02*
X572146Y658365D01*
X573458D01*
X574114Y657709D01*
Y657053D01*
X573458Y656397D01*
X572146D01*
X571490Y655741D01*
Y655085D01*
X572146Y654429D01*
X573458D01*
X574114Y655085D01*
X570178Y658365D02*
Y654429D01*
X568211D01*
X567555Y655085D01*
Y657709D01*
X568211Y658365D01*
X570178D01*
X566243Y654429D02*
Y657053D01*
X564931Y658365D01*
X563619Y657053D01*
Y654429D01*
Y656397D01*
X566243D01*
X562303Y623294D02*
Y625918D01*
X560991Y627229D01*
X559679Y625918D01*
Y623294D01*
Y625262D01*
X562303D01*
X558367Y627229D02*
Y623294D01*
X556399D01*
X555744Y623950D01*
Y626574D01*
X556399Y627229D01*
X558367D01*
X554432Y623294D02*
X553120D01*
X553776D01*
Y627229D01*
X554432Y626574D01*
X551152Y622638D02*
X548528D01*
X547216Y627229D02*
X544592D01*
Y626574D01*
X547216Y623950D01*
Y623294D01*
X271260Y622932D02*
Y618996D01*
X269292D01*
X268636Y619652D01*
Y622276D01*
X269292Y622932D01*
X271260D01*
X267324Y618996D02*
Y621620D01*
X266012Y622932D01*
X264700Y621620D01*
Y618996D01*
Y620964D01*
X267324D01*
X260765Y622276D02*
X261420Y622932D01*
X262732D01*
X263388Y622276D01*
Y619652D01*
X262732Y618996D01*
X261420D01*
X260765Y619652D01*
X251575Y613975D02*
X248951D01*
X250263D01*
Y610039D01*
X247639Y613975D02*
X245015Y610039D01*
Y613975D02*
X247639Y610039D01*
X281201Y610400D02*
Y613024D01*
X279889Y614336D01*
X278577Y613024D01*
Y610400D01*
Y612368D01*
X281201D01*
X277265Y614336D02*
Y610400D01*
X275297D01*
X274641Y611056D01*
Y613680D01*
X275297Y614336D01*
X277265D01*
X273329Y610400D02*
X272017D01*
X272673D01*
Y614336D01*
X273329Y613680D01*
X270050Y609744D02*
X267426D01*
X266114Y610400D02*
X264802D01*
X265458D01*
Y614336D01*
X266114Y613680D01*
X262834Y611056D02*
X262178Y610400D01*
X260866D01*
X260210Y611056D01*
Y613680D01*
X260866Y614336D01*
X262178D01*
X262834Y613680D01*
Y613024D01*
X262178Y612368D01*
X260210D01*
X282677Y591502D02*
Y594126D01*
X281365Y595438D01*
X280053Y594126D01*
Y591502D01*
Y593470D01*
X282677D01*
X278741Y595438D02*
Y591502D01*
X276774D01*
X276118Y592158D01*
Y594782D01*
X276774Y595438D01*
X278741D01*
X274806Y591502D02*
X273494D01*
X274150D01*
Y595438D01*
X274806Y594782D01*
X271526Y590846D02*
X268902D01*
X264966Y591502D02*
X267590D01*
X264966Y594126D01*
Y594782D01*
X265622Y595438D01*
X266934D01*
X267590Y594782D01*
X263654Y591502D02*
X262343D01*
X262999D01*
Y595438D01*
X263654Y594782D01*
X574114Y696259D02*
X571490D01*
X572802Y697571D02*
Y694947D01*
X570178Y694291D02*
X568866D01*
X569522D01*
Y698227D01*
X570178Y697571D01*
X564275Y694291D02*
X566899D01*
X564275Y696915D01*
Y697571D01*
X564931Y698227D01*
X566243D01*
X566899Y697571D01*
X562963Y698227D02*
Y695603D01*
X561651Y694291D01*
X560339Y695603D01*
Y698227D01*
X254266Y633759D02*
X254922Y634414D01*
X256234D01*
X256890Y633759D01*
Y631135D01*
X256234Y630479D01*
X254922D01*
X254266Y631135D01*
X252954Y630479D02*
Y633103D01*
X251642Y634414D01*
X250330Y633103D01*
Y630479D01*
Y632447D01*
X252954D01*
X249018Y630479D02*
Y634414D01*
X246394Y630479D01*
Y634414D01*
X245082Y629823D02*
X242459D01*
X241147Y634414D02*
Y630479D01*
X238523D01*
X270965Y681987D02*
Y678051D01*
Y679363D01*
X268341Y681987D01*
X270309Y680019D01*
X268341Y678051D01*
X267029D02*
X265717D01*
X266373D01*
Y681987D01*
X267029Y681331D01*
X263749Y680019D02*
X261125D01*
X262437Y681331D02*
Y678707D01*
X574114Y716436D02*
X571490D01*
X572802Y717748D02*
Y715124D01*
X567555Y718404D02*
X570178D01*
Y716436D01*
X568866Y717092D01*
X568211D01*
X567555Y716436D01*
Y715124D01*
X568211Y714468D01*
X569522D01*
X570178Y715124D01*
X566243Y718404D02*
Y715780D01*
X564931Y714468D01*
X563619Y715780D01*
Y718404D01*
X538779Y623294D02*
Y625918D01*
X537468Y627229D01*
X536156Y625918D01*
Y623294D01*
Y625262D01*
X538779D01*
X534844Y627229D02*
Y623294D01*
X532876D01*
X532220Y623950D01*
Y626574D01*
X532876Y627229D01*
X534844D01*
X530908Y623294D02*
X529596D01*
X530252D01*
Y627229D01*
X530908Y626574D01*
X527628Y622638D02*
X525004D01*
X523693Y623294D02*
X522381D01*
X523037D01*
Y627229D01*
X523693Y626574D01*
X520413D02*
X519757Y627229D01*
X518445D01*
X517789Y626574D01*
Y625918D01*
X518445Y625262D01*
X517789Y624606D01*
Y623950D01*
X518445Y623294D01*
X519757D01*
X520413Y623950D01*
Y624606D01*
X519757Y625262D01*
X520413Y625918D01*
Y626574D01*
X519757Y625262D02*
X518445D01*
X252362Y601575D02*
Y605511D01*
X250394D01*
X249738Y604855D01*
Y603543D01*
X250394Y602887D01*
X252362D01*
X251050D02*
X249738Y601575D01*
X248427Y605511D02*
X245803Y601575D01*
Y605511D02*
X248427Y601575D01*
X536156Y619717D02*
X536812Y620373D01*
X538124D01*
X538779Y619717D01*
Y617093D01*
X538124Y616437D01*
X536812D01*
X536156Y617093D01*
Y618405D01*
X537468D01*
X534844Y620373D02*
X533532D01*
X534188D01*
Y616437D01*
X534844D01*
X533532D01*
X529596Y620373D02*
X530908D01*
X531564Y619717D01*
Y617093D01*
X530908Y616437D01*
X529596D01*
X528940Y617093D01*
Y619717D01*
X529596Y620373D01*
X527628Y616437D02*
Y619061D01*
X526316Y620373D01*
X525004Y619061D01*
Y616437D01*
Y618405D01*
X527628D01*
X521069Y616437D02*
X523693D01*
X521069Y619061D01*
Y619717D01*
X521725Y620373D01*
X523037D01*
X523693Y619717D01*
X270866Y674802D02*
Y670866D01*
Y672178D01*
X268242Y674802D01*
X270210Y672834D01*
X268242Y670866D01*
X266930D02*
X265618D01*
X266274D01*
Y674802D01*
X266930Y674146D01*
X263651Y672834D02*
X261027D01*
X249311Y662401D02*
X246687D01*
X247999Y663713D02*
Y661089D01*
X242752Y664369D02*
X245375D01*
Y662401D01*
X244063Y663057D01*
X243407D01*
X242752Y662401D01*
Y661089D01*
X243407Y660433D01*
X244719D01*
X245375Y661089D01*
X241440Y664369D02*
Y661745D01*
X240128Y660433D01*
X238816Y661745D01*
Y664369D01*
X268799Y633955D02*
Y630020D01*
Y631332D01*
X266175Y633955D01*
X268143Y631987D01*
X266175Y630020D01*
X264863Y633299D02*
X264208Y633955D01*
X262896D01*
X262240Y633299D01*
Y632644D01*
X262896Y631987D01*
X263552D01*
X262896D01*
X262240Y631332D01*
Y630676D01*
X262896Y630020D01*
X264208D01*
X264863Y630676D01*
X260928Y631987D02*
X258304D01*
M02*
