M48
;Layer_Color=9474304
;FILE_FORMAT=2:5
INCH,LZ
;TYPE=PLATED
T1F00S00C0.00787
T2F00S00C0.01575
T3F00S00C0.03937
T4F00S00C0.04331
T5F00S00C0.04724
T6F00S00C0.05118
T7F00S00C0.07087
T8F00S00C0.10000
T9F00S00C0.11811
T10F00S00C0.17717
%
T01
X0283268Y052815
Y053248
X0287598
Y052815
T02
X0479345Y0502151
X047874Y0506299
X0484842Y049685
X0497142Y0498917
X0505903
X0514665
X0540059
X0547275
X0554491
X0550098Y052313
X0529035Y0524213
X0525886Y0539468
X0521358Y054311
X0532776Y0545866
X0523228Y0578051
X0520177Y0588779
X0505118Y0589862
X0498032Y0590551
X0498819Y0593701
X0495177Y0596457
X0497441Y0603839
X0497244Y060876
X0498721Y0612894
X0498524Y0619587
X0496949Y0624803
X0492126Y0612106
X0483366Y0611122
X0482579Y061624
X0469291Y0617815
X0469587Y0611811
X0471673Y060313
X047126Y0596457
X0470866Y0584646
X0477224Y0581161
X0482283Y0583858
X0484842Y0586319
X0488425Y0585197
X0484646Y0596457
X0478543Y0571752
X0473228Y0567126
X0479232Y0561122
X0478937Y0557579
X0477756Y0554232
X0478642Y0547835
X0487008Y0535335
Y0565551
X0493405Y0572736
X0551673Y0573917
X0556102Y0613091
X0568996Y0616437
X0573524Y0613386
X058002Y0612894
X0585728Y0609252
X059065Y0615453
X0589665Y0619587
X0591831Y0604134
X0595571Y0600098
X0597835Y0609055
X0539961Y0616142
X0595571Y0524114
X0460236Y0556791
X0465354Y0567224
X0464862Y058189
X0460827Y0581988
X0456201Y0581791
X0452756Y0580709
X044189Y0581339
X0437795Y0582283
X0420236Y0582126
X0421654Y0570079
X0424016Y0567323
X0397933
X0397874Y0560472
X0406496Y0556693
X0380906Y0554823
X0383858Y0540059
X0387205Y0536221
X038002Y0532087
X0375Y0524213
X0370177Y0524311
X0360138
X035315Y0512205
X0350541Y0509498
X0347638Y0507579
Y0496654
X0335433Y0494095
X032815Y0499705
X0315748Y0506693
X0315846Y0522244
X0315591Y0548976
X0325197Y0556595
X0322539Y0559646
X0329429Y0562992
X0329921Y0580315
X0333563Y0582972
X0345276Y0577953
X034252Y0573228
X0344291Y0567323
X0341831Y0548425
X0336713Y0550295
X0336516Y0531988
X0317913Y0570118
Y0593602
X0328366Y0598898
X0326279Y0614272
X0327953Y0620965
X0325492Y0623819
X0348327Y0620079
X0351279Y0612992
X0348721Y0605118
X0370177Y0607185
X0385728Y060689
X0382776Y0613878
X0381653Y0621614
X0378445Y0589961
X0386319Y0582382
X0401575Y0581693
X0395472Y0573819
X0398327Y0595256
Y0601161
X0370079Y0563878
X0374961Y0508209
X0379961Y0508228
X0388799Y0507303
X0391732Y0510236
X0397146Y0510138
X0386614Y0496752
X0462697Y0607677
X0462894Y0615945
X029252Y0607677
X0298622Y0599114
X0305965Y058189
X0305512Y0573622
X0305709Y0564272
X0312402Y0570118
X0298268Y0570217
X0290945Y0569095
X0275492Y0577067
X0265551Y0573622
X0260728Y0566634
X0264567Y0542421
X0270079Y0542421
X0275098Y0543405
X0272342Y053435
X0267913Y053435
X0262697Y0525
X0279528Y0513484
X0292028Y052313
X029439Y0539665
X029813Y0552461
X0305709Y0531004
X030502Y0506398
X029941Y0499606
X0264567Y0595433
X0259744Y0595374
X0264862Y0609646
X0280118Y0616339
X0243996Y0584941
X0238583Y0574508
X0258268Y0640945
X0254134Y0648524
X0249188Y0650197
X0246555Y0654035
X0250197Y0661221
X0257143Y0662914
X0256398Y0679823
X0256299Y0709055
X0256594Y0723228
X0255945Y0756929
X0256102Y0774508
X0298425Y0777953
Y0756929
X0298031Y0729528
Y0708898
X029815Y0685157
Y066311
X0292717Y0644488
X0296457Y0634449
X0294094Y0627953
X0279823Y0673327
X034252Y0669685
X0351378Y0662106
X0348327Y0658858
X0354626Y0651673
X0357283Y0649213
X0359744Y064685
X0361614Y0643307
X0370079Y0633514
X0386221Y0633661
X0385827Y0639468
X0399095Y0640531
X040187Y0637697
X0399016Y0627854
X0399311Y0647835
X0397539Y0659154
X0393799Y0657677
X0389567Y0671358
X0408425Y0669685
X0414331
X0422047Y0672835
X041811Y0676772
X0401279Y0683957
X0400295Y0699016
X040813Y0702697
X0422047Y0702362
X041998Y0709842
X0416535Y0721555
X0400098Y0713406
X0389469Y0716732
X0347244Y0715748
X0352362Y0698917
X03625Y0699213
X0357087Y0684646
X0364469Y0658957
X0335827Y0655118
X0329134Y0643504
Y0635039
X0318012Y0714075
X0357087Y0727953
X0362598Y0741437
X0347342Y0745571
X033937Y077126
X0357087Y0779331
X0438681Y0710728
X0434547Y0697441
X0448228Y0690846
X0444587Y067626
X0441732Y0669291
X0438681Y0665748
X0434744Y0665945
X0437205Y0654134
X044189Y0655118
X0450492
Y0665945
X0465354Y0668504
X0464075Y0683071
X0459744Y0702362
X045561Y0717126
X0464272
X0463189Y0653445
X0460099Y0650138
X0411417Y0651575
X0408366Y0653543
X0414331Y0655079
X0479035Y0655118
X0472835Y0661516
X047126Y0664862
X0472835Y0643504
X0498622Y0641732
Y0647736
X0496949Y0650984
X0498917Y0654528
X0513976Y0656791
X0520472Y0653051
X0523228Y0662795
X052815Y0673917
X053248Y0676673
X0537008Y0679429
X054124Y0673425
X0545768Y0669783
X0551279Y0663976
X0550098Y0687106
X0546161Y0683563
X0542224Y0687106
X0542382Y0699055
X0550157
X0544587Y071565
X0560728Y071437
X0565118Y0686063
X0526772Y0683563
X0528839Y0701083
X0507874Y0707224
X0494882Y0705709
X0482185Y0705669
X0478543Y069065
X0472539Y0717126
X0478642Y0726279
X0480413Y0746457
X0477658Y0761811
X0503543Y0770079
X0518898Y0778937
X0551968Y0774016
X0557087
X0554528Y076998
X0551968Y0765945
X0557087
X0554528Y0761909
X0551968Y0757874
X0557087
X0527067Y0746654
X051811Y0737402
X0513386
X0505807Y0746654
X0495374Y0674606
X0492224Y0671063
X0497146Y0636122
X049813Y0630315
X0505413Y0632579
X0537992Y063376
X054124Y0638976
X0528543Y0643405
X0565158Y0631201
X0518898Y0790158
X0510532Y0788681
X0507382Y0808366
X0502756Y0804331
X0484547Y0808071
X0477658Y0832677
X0470768Y0834744
X0492815Y083563
X0499606Y0831594
X0501075Y0878453
X0497532Y0881602
X0492863Y0878453
X0489132Y0881602
X0484652Y0878453
X0480734Y0881602
X047644Y0878453
X0472335Y0881602
X0468229Y0878453
X0463936Y0881602
X0460017Y0878453
X0455537Y0881602
X0451806Y0878453
X0447138Y0881602
X0443595Y0878453
X0446752Y0834744
X0454035Y0831791
X0369291Y0832087
Y0828347
Y0824606
Y0820866
Y0817126
X0371654Y0814272
X0376083Y0814173
X0362894Y083189
X0367126Y0836811
X0356142Y0838031
X0353248Y0846653
X0361614Y0857185
X0364567Y0859055
X036998Y0859449
X0369882Y0863287
Y0867126
Y0870965
X0372047Y0875197
X036998Y085502
X0373819Y0852854
X0362205Y0794095
X0347284Y0794921
X0293012Y0814173
X0288583Y0814272
X0285925Y0816535
Y0820276
Y0824016
Y0827756
Y0831496
X0283957Y0835925
X0272933
X0276772Y0827854
X0270768Y084626
X0276772Y0856496
X0281102Y085748
X028691Y0859449
X0286811Y0863287
Y0867126
Y0870965
X0288583Y0874409
X028691Y085502
X0290945Y0853051
T03
X050502Y059498
X0514075Y0604921
X0317913Y0584547
X0306594Y0590551
X0263976Y0686516
X0264075Y0731398
X0263189Y0780709
X0317913Y0761221
X0427461
X0389469Y0687598
X0505118Y0681988
X0493701Y0730709
X0493701Y0761221
X0436909Y0811417
X0389764Y0810827
X0420866Y0858957
X0420669Y0881496
X0258366
X0240453Y0799311
X0279528
X0306594Y0809842
T04
X0506791Y0558366
X0516791
X0559094Y0562913
Y0572913
Y0582913
Y0592913
Y0602913
X0569095
Y0592913
Y0582913
Y0572913
Y0562913
Y0552913
X0559094
Y0542913
Y0532913
X0569095
Y0542913
X0334173Y0588898
Y0598898
Y0608898
Y0618898
X0215158Y055685
Y054685
Y053685
Y0729114
Y0739114
Y0749114
X0334173Y0628898
X0533169Y0638819
Y0648819
Y0658819
X0559094
Y0668819
Y0648819
Y0638819
X0555512Y0699055
Y0709055
X0537008
Y0699055
T05
X0229528Y0591221
Y0601221
Y0611221
Y062122
Y063122
Y0641221
Y0651221
Y0661221
Y067122
Y068122
X0576319Y0686024
Y0676024
Y0666024
Y0656024
Y0646024
Y0636024
Y0696024
Y0706024
Y0716024
Y0726024
T06
X0219528Y0591221
Y0601221
Y0611221
Y062122
Y063122
Y0641221
Y0651221
Y0661221
Y067122
Y068122
X0586319Y0686024
Y0676024
Y0666024
Y0656024
Y0646024
Y0636024
Y0696024
Y0706024
Y0716024
Y0726024
T07
X0537795Y0819685
X0559449
T08
X0224528Y058122
Y0691221
X0581319Y0736024
Y0626024
T09
X0588189Y0819685
T10
X0583465Y0509449
X0225197Y0510236
X0582677Y086811
X022441Y0867717
M30
