G04*
G04 #@! TF.GenerationSoftware,Altium Limited,Altium Designer,18.1.7 (191)*
G04*
G04 Layer_Color=8388736*
%FSLAX25Y25*%
%MOIN*%
G70*
G01*
G75*
%ADD68R,0.03162X0.02965*%
%ADD69R,0.04934X0.03162*%
%ADD70R,0.06115X0.05524*%
%ADD71R,0.04737X0.06115*%
%ADD72R,0.02965X0.03162*%
%ADD73R,0.05800X0.09265*%
%ADD74O,0.06509X0.03162*%
%ADD75R,0.01181X0.02264*%
%ADD76R,0.02375X0.06115*%
%ADD77R,0.09068X0.07099*%
%ADD78R,0.07887X0.08280*%
%ADD79R,0.08280X0.08280*%
%ADD80R,0.02375X0.06135*%
%ADD81R,0.01181X0.02480*%
%ADD82R,0.04540X0.03359*%
%ADD83R,0.03162X0.04934*%
%ADD84R,0.04737X0.03162*%
%ADD85R,0.03950X0.03950*%
%ADD86R,0.03950X0.03950*%
%ADD87R,0.05918X0.04343*%
%ADD88O,0.06509X0.01981*%
%ADD89O,0.01981X0.06509*%
%ADD90R,0.03241X0.03398*%
%ADD91R,0.05524X0.06115*%
%ADD92O,0.06312X0.02178*%
%ADD93R,0.08674X0.15761*%
%ADD94R,0.08674X0.06706*%
%ADD95R,0.02965X0.01784*%
%ADD96R,0.07099X0.10249*%
%ADD97R,0.23241X0.07099*%
%ADD98R,0.03398X0.03241*%
%ADD99R,0.15367X0.08674*%
%ADD100R,0.09068X0.07887*%
%ADD101R,0.05800X0.07965*%
%ADD102R,0.07965X0.05800*%
%ADD103R,0.06902X0.05918*%
%ADD104O,0.01981X0.06115*%
%ADD105R,0.07099X0.14580*%
%ADD106R,0.11430X0.39383*%
%ADD107R,0.17139X0.04934*%
%ADD108R,0.22847X0.09068*%
%ADD109R,0.03800X0.11800*%
%ADD110R,0.03950X0.02965*%
%ADD111R,0.03162X0.01981*%
%ADD112R,0.06666X0.10249*%
%ADD113R,0.04147X0.01981*%
%ADD114R,0.01981X0.04147*%
%ADD115R,0.08989X0.08989*%
%ADD116C,0.07099*%
%ADD117C,0.00800*%
%ADD118C,0.08280*%
%ADD119C,0.09461*%
%ADD120C,0.28359*%
%ADD121C,0.03162*%
%ADD122C,0.02769*%
D68*
X580335Y653031D02*
D03*
X576988D02*
D03*
X305709Y536811D02*
D03*
X309055D02*
D03*
X305709Y527854D02*
D03*
X309055D02*
D03*
X293504Y549016D02*
D03*
X290158D02*
D03*
X472539Y718996D02*
D03*
X469193D02*
D03*
X455610D02*
D03*
X452264D02*
D03*
X296949Y875591D02*
D03*
X293602D02*
D03*
X380020Y875197D02*
D03*
X376673D02*
D03*
X448524Y496654D02*
D03*
X451870D02*
D03*
X269587Y573622D02*
D03*
X272933D02*
D03*
X269587Y581988D02*
D03*
X272933D02*
D03*
X381594Y636614D02*
D03*
X378248D02*
D03*
X488484Y598819D02*
D03*
X491831D02*
D03*
X460925Y718996D02*
D03*
X464272D02*
D03*
X273760Y662835D02*
D03*
X270413D02*
D03*
X273760Y708898D02*
D03*
X270413D02*
D03*
X273760Y756929D02*
D03*
X270413D02*
D03*
X513386Y750591D02*
D03*
X510039D02*
D03*
X518209D02*
D03*
X521555D02*
D03*
X510138Y718504D02*
D03*
X513484D02*
D03*
X510138Y688976D02*
D03*
X513484D02*
D03*
D69*
X542047Y617087D02*
D03*
Y609606D02*
D03*
X531417D02*
D03*
Y613346D02*
D03*
Y617087D02*
D03*
D70*
X326575Y809488D02*
D03*
Y815787D02*
D03*
X317047Y809528D02*
D03*
Y815827D02*
D03*
X411221Y803740D02*
D03*
Y810039D02*
D03*
X400748Y803780D02*
D03*
Y810079D02*
D03*
X243996Y571654D02*
D03*
Y577953D02*
D03*
D71*
X285945Y780669D02*
D03*
X278858D02*
D03*
D72*
X251260Y823445D02*
D03*
Y826791D02*
D03*
X245787Y826673D02*
D03*
Y823327D02*
D03*
X378445Y677618D02*
D03*
Y674272D02*
D03*
X370787D02*
D03*
Y677618D02*
D03*
X324528Y645650D02*
D03*
Y648996D02*
D03*
X576496Y616555D02*
D03*
Y619902D02*
D03*
X582323Y626988D02*
D03*
Y623642D02*
D03*
X576457Y633287D02*
D03*
Y629941D02*
D03*
X346063Y557697D02*
D03*
Y561043D02*
D03*
X351024Y560571D02*
D03*
Y563917D02*
D03*
X499606Y542913D02*
D03*
Y539567D02*
D03*
X305512Y611221D02*
D03*
Y607874D02*
D03*
X273425Y612992D02*
D03*
Y609646D02*
D03*
X268602D02*
D03*
Y612992D02*
D03*
X264665Y602854D02*
D03*
Y599508D02*
D03*
X332087Y553543D02*
D03*
Y556890D02*
D03*
X310236Y599213D02*
D03*
Y602559D02*
D03*
X276772Y849902D02*
D03*
Y853248D02*
D03*
X267323D02*
D03*
Y849902D02*
D03*
X359842Y851476D02*
D03*
Y854823D02*
D03*
X350394D02*
D03*
Y851476D02*
D03*
X242913Y536043D02*
D03*
Y532697D02*
D03*
X470472Y563484D02*
D03*
Y560138D02*
D03*
X454232Y823622D02*
D03*
Y826968D02*
D03*
X477854Y823622D02*
D03*
Y826968D02*
D03*
X499508Y823622D02*
D03*
Y826968D02*
D03*
X347638Y500000D02*
D03*
Y503346D02*
D03*
X357087Y680413D02*
D03*
Y677067D02*
D03*
Y724902D02*
D03*
Y721555D02*
D03*
Y774902D02*
D03*
Y771555D02*
D03*
X237953Y532697D02*
D03*
Y536043D02*
D03*
X504173Y758405D02*
D03*
Y755059D02*
D03*
X491732Y702264D02*
D03*
Y705610D02*
D03*
X537008Y683760D02*
D03*
Y687106D02*
D03*
X555512Y683760D02*
D03*
Y687106D02*
D03*
D73*
X303937Y731102D02*
D03*
X288976D02*
D03*
X256299D02*
D03*
X271260D02*
D03*
X288976Y686614D02*
D03*
X303937D02*
D03*
X271260Y686614D02*
D03*
X256299D02*
D03*
D74*
X522933Y697224D02*
D03*
Y702224D02*
D03*
Y707224D02*
D03*
Y712224D02*
D03*
X501476Y697224D02*
D03*
Y702224D02*
D03*
Y707224D02*
D03*
Y712224D02*
D03*
D75*
X267323Y523504D02*
D03*
Y520453D02*
D03*
X265354D02*
D03*
X263386D02*
D03*
X261417D02*
D03*
X259449D02*
D03*
Y523504D02*
D03*
X261417D02*
D03*
X263386D02*
D03*
X265354D02*
D03*
D76*
X269291Y509350D02*
D03*
X279528D02*
D03*
X276969D02*
D03*
X274410D02*
D03*
D77*
X262205Y508858D02*
D03*
X286614Y508858D02*
D03*
D78*
X259449Y498819D02*
D03*
X289370Y498819D02*
D03*
D79*
X269685Y498819D02*
D03*
X279134D02*
D03*
D80*
X271850Y509350D02*
D03*
D81*
X373327Y550886D02*
D03*
X372342Y547618D02*
D03*
X371358Y550886D02*
D03*
X369390D02*
D03*
X367421D02*
D03*
X370374Y547618D02*
D03*
X368406D02*
D03*
D82*
X485433Y724469D02*
D03*
Y717264D02*
D03*
X494685Y720866D02*
D03*
X435138Y730834D02*
D03*
Y723630D02*
D03*
X444390Y727232D02*
D03*
X416831Y730965D02*
D03*
Y723760D02*
D03*
X426083Y727362D02*
D03*
D83*
X403740Y698917D02*
D03*
X396260D02*
D03*
Y709744D02*
D03*
X400000D02*
D03*
X403740D02*
D03*
D84*
X505905Y539468D02*
D03*
Y546949D02*
D03*
X516732D02*
D03*
Y543209D02*
D03*
Y539468D02*
D03*
D85*
X285669Y756929D02*
D03*
X291575D02*
D03*
Y708898D02*
D03*
X285669D02*
D03*
Y662835D02*
D03*
X291575D02*
D03*
X461811Y496752D02*
D03*
X467717D02*
D03*
X327559Y536811D02*
D03*
X321654D02*
D03*
X321555Y527854D02*
D03*
X327461D02*
D03*
D86*
X492815Y823524D02*
D03*
Y829429D02*
D03*
X470768D02*
D03*
Y823524D02*
D03*
X446752D02*
D03*
Y829429D02*
D03*
D87*
X315748Y510630D02*
D03*
Y518110D02*
D03*
X305020Y510630D02*
D03*
Y518110D02*
D03*
D88*
X392776Y583445D02*
D03*
Y585413D02*
D03*
Y587382D02*
D03*
Y589350D02*
D03*
Y591319D02*
D03*
Y593287D02*
D03*
Y595256D02*
D03*
Y597224D02*
D03*
Y599193D02*
D03*
Y601161D02*
D03*
Y603130D02*
D03*
Y605098D02*
D03*
Y607067D02*
D03*
Y609035D02*
D03*
Y611004D02*
D03*
Y612972D02*
D03*
Y614941D02*
D03*
Y616909D02*
D03*
Y618878D02*
D03*
Y620847D02*
D03*
Y622815D02*
D03*
Y624783D02*
D03*
Y626752D02*
D03*
Y628721D02*
D03*
Y630689D02*
D03*
Y632657D02*
D03*
Y634626D02*
D03*
Y636594D02*
D03*
Y638563D02*
D03*
Y640531D02*
D03*
Y642500D02*
D03*
Y644468D02*
D03*
Y646437D02*
D03*
Y648406D02*
D03*
Y650374D02*
D03*
Y652343D02*
D03*
X477224D02*
D03*
Y650374D02*
D03*
Y648406D02*
D03*
Y646437D02*
D03*
Y644468D02*
D03*
Y642500D02*
D03*
Y640531D02*
D03*
Y638563D02*
D03*
Y636594D02*
D03*
Y634626D02*
D03*
Y632657D02*
D03*
Y630689D02*
D03*
Y628721D02*
D03*
Y626752D02*
D03*
Y624783D02*
D03*
Y622815D02*
D03*
Y620847D02*
D03*
Y618878D02*
D03*
Y616909D02*
D03*
Y614941D02*
D03*
Y612972D02*
D03*
Y611004D02*
D03*
Y609035D02*
D03*
Y607067D02*
D03*
Y605098D02*
D03*
Y603130D02*
D03*
Y601161D02*
D03*
Y599193D02*
D03*
Y597224D02*
D03*
Y595256D02*
D03*
Y593287D02*
D03*
Y591319D02*
D03*
Y589350D02*
D03*
Y587382D02*
D03*
Y585413D02*
D03*
Y583445D02*
D03*
D89*
X400551Y660118D02*
D03*
X402520D02*
D03*
X404488D02*
D03*
X406457D02*
D03*
X408425D02*
D03*
X410394D02*
D03*
X412362D02*
D03*
X414331D02*
D03*
X416299D02*
D03*
X418268D02*
D03*
X420236D02*
D03*
X422205D02*
D03*
X424173D02*
D03*
X426142D02*
D03*
X428110D02*
D03*
X430079D02*
D03*
X432047D02*
D03*
X434016D02*
D03*
X435984D02*
D03*
X437953D02*
D03*
X439921D02*
D03*
X441890D02*
D03*
X443858D02*
D03*
X445827D02*
D03*
X447795D02*
D03*
X449764D02*
D03*
X451732D02*
D03*
X453701D02*
D03*
X455669D02*
D03*
X457638D02*
D03*
X459606D02*
D03*
X461575D02*
D03*
X463543D02*
D03*
X465512D02*
D03*
X467480D02*
D03*
X469449D02*
D03*
Y575669D02*
D03*
X467480D02*
D03*
X465512D02*
D03*
X463543D02*
D03*
X461575D02*
D03*
X459606D02*
D03*
X457638D02*
D03*
X455669D02*
D03*
X453701D02*
D03*
X451732D02*
D03*
X449764D02*
D03*
X447795D02*
D03*
X445827D02*
D03*
X443858D02*
D03*
X441890D02*
D03*
X439921D02*
D03*
X437953D02*
D03*
X435984D02*
D03*
X434016D02*
D03*
X432047D02*
D03*
X430079D02*
D03*
X428110D02*
D03*
X426142D02*
D03*
X424173D02*
D03*
X422205D02*
D03*
X420236D02*
D03*
X418268D02*
D03*
X416299D02*
D03*
X414331D02*
D03*
X412362D02*
D03*
X410394D02*
D03*
X408425D02*
D03*
X406457D02*
D03*
X404488D02*
D03*
X402520D02*
D03*
X400551D02*
D03*
D90*
X401575Y563937D02*
D03*
Y560472D02*
D03*
X272047Y853307D02*
D03*
Y849842D02*
D03*
X276772Y834410D02*
D03*
Y830945D02*
D03*
X355118Y854882D02*
D03*
Y851417D02*
D03*
X359842Y836378D02*
D03*
Y832913D02*
D03*
X465354Y560079D02*
D03*
Y563543D02*
D03*
X312402Y574350D02*
D03*
Y577815D02*
D03*
X317913D02*
D03*
Y574350D02*
D03*
X518898Y786378D02*
D03*
Y782913D02*
D03*
X406496Y560472D02*
D03*
Y563937D02*
D03*
X441732Y676260D02*
D03*
Y672795D02*
D03*
X414331Y676260D02*
D03*
Y672795D02*
D03*
X411909Y702716D02*
D03*
Y699252D02*
D03*
X264567Y545512D02*
D03*
Y548976D02*
D03*
X460236Y560079D02*
D03*
Y563543D02*
D03*
X408425Y676260D02*
D03*
Y672795D02*
D03*
X270079Y548976D02*
D03*
Y545512D02*
D03*
X305512Y599055D02*
D03*
Y602520D02*
D03*
X486614Y705669D02*
D03*
Y702205D02*
D03*
X259744Y599350D02*
D03*
Y602815D02*
D03*
D91*
X375197Y868110D02*
D03*
X381496D02*
D03*
X292126Y828740D02*
D03*
X298425D02*
D03*
X292126Y819291D02*
D03*
X298425D02*
D03*
X292126Y868110D02*
D03*
X298425D02*
D03*
X292126Y858661D02*
D03*
X298425D02*
D03*
X375197Y828740D02*
D03*
X381496D02*
D03*
X375197Y819291D02*
D03*
X381496D02*
D03*
X375197Y858661D02*
D03*
X381496D02*
D03*
D92*
X297441Y605709D02*
D03*
Y607677D02*
D03*
Y609646D02*
D03*
Y611614D02*
D03*
Y613583D02*
D03*
X280118Y605709D02*
D03*
Y607677D02*
D03*
Y609646D02*
D03*
Y611614D02*
D03*
Y613583D02*
D03*
D93*
X322480Y686063D02*
D03*
Y730551D02*
D03*
Y780551D02*
D03*
D94*
X347284Y695118D02*
D03*
Y686063D02*
D03*
Y677008D02*
D03*
Y739606D02*
D03*
Y730551D02*
D03*
Y721496D02*
D03*
Y789606D02*
D03*
Y780551D02*
D03*
Y771496D02*
D03*
D95*
X285335Y847638D02*
D03*
Y845669D02*
D03*
Y843701D02*
D03*
Y841732D02*
D03*
Y839764D02*
D03*
X298130D02*
D03*
Y841732D02*
D03*
Y843701D02*
D03*
Y845669D02*
D03*
Y847638D02*
D03*
X381201D02*
D03*
Y845669D02*
D03*
Y843701D02*
D03*
Y841732D02*
D03*
Y839764D02*
D03*
X368406D02*
D03*
Y841732D02*
D03*
Y843701D02*
D03*
Y845669D02*
D03*
Y847638D02*
D03*
D96*
X291634Y843701D02*
D03*
X374705D02*
D03*
D97*
X319921Y845197D02*
D03*
Y826693D02*
D03*
X403150Y842717D02*
D03*
Y824213D02*
D03*
D98*
X276535Y844488D02*
D03*
X273071D02*
D03*
X276535Y839764D02*
D03*
X273071D02*
D03*
X359606Y846457D02*
D03*
X356142D02*
D03*
X359606Y841732D02*
D03*
X356142D02*
D03*
X491988Y593012D02*
D03*
X488524D02*
D03*
X491890Y603543D02*
D03*
X488425D02*
D03*
X415413Y709842D02*
D03*
X411949D02*
D03*
X491890Y636089D02*
D03*
X488425D02*
D03*
X378189Y585433D02*
D03*
X381653D02*
D03*
X378189Y594095D02*
D03*
X381653D02*
D03*
X378189Y642520D02*
D03*
X381653D02*
D03*
X378189Y624803D02*
D03*
X381653D02*
D03*
X491890Y615512D02*
D03*
X488425D02*
D03*
X491890Y608268D02*
D03*
X488425D02*
D03*
X378189Y599213D02*
D03*
X381653D02*
D03*
X491890Y588386D02*
D03*
X488425D02*
D03*
X378189Y604331D02*
D03*
X381653D02*
D03*
X378189Y630709D02*
D03*
X381653D02*
D03*
X491890Y651181D02*
D03*
X488425D02*
D03*
X529291Y545866D02*
D03*
X525827D02*
D03*
X298268Y581890D02*
D03*
X301732D02*
D03*
X301732Y573622D02*
D03*
X298268D02*
D03*
X491890Y621129D02*
D03*
X488425D02*
D03*
X491890Y641076D02*
D03*
X488425D02*
D03*
X491890Y626116D02*
D03*
X488425D02*
D03*
X491890Y646063D02*
D03*
X488425D02*
D03*
X423465Y554724D02*
D03*
X426929D02*
D03*
X448583D02*
D03*
X445118D02*
D03*
X491890Y631102D02*
D03*
X488425D02*
D03*
X554272Y523130D02*
D03*
X557736D02*
D03*
D99*
X539776Y864122D02*
D03*
X256594Y627559D02*
D03*
X471654Y855512D02*
D03*
X493701D02*
D03*
X428543Y708504D02*
D03*
X449713Y855512D02*
D03*
D100*
X450000Y702362D02*
D03*
X467323D02*
D03*
D101*
X322126Y499705D02*
D03*
X305433D02*
D03*
D102*
X254724Y548976D02*
D03*
Y532283D02*
D03*
D103*
X521949Y498917D02*
D03*
X490650D02*
D03*
X521949Y516634D02*
D03*
X490650D02*
D03*
X532677D02*
D03*
X563976D02*
D03*
X532677Y498917D02*
D03*
X563976D02*
D03*
D104*
X511417Y782776D02*
D03*
X509449D02*
D03*
X507480D02*
D03*
X505512D02*
D03*
X503543D02*
D03*
X511417Y765256D02*
D03*
X509449D02*
D03*
X507480D02*
D03*
X505512D02*
D03*
X503543D02*
D03*
D105*
X514961Y808268D02*
D03*
X493701D02*
D03*
D106*
X590945Y775984D02*
D03*
D107*
X538779Y765984D02*
D03*
Y785984D02*
D03*
D108*
X416732Y531102D02*
D03*
X454134D02*
D03*
D109*
X379961Y500394D02*
D03*
X374961D02*
D03*
X369961D02*
D03*
X364961D02*
D03*
X359961D02*
D03*
Y516378D02*
D03*
X364961D02*
D03*
X369961D02*
D03*
X374961D02*
D03*
X379961D02*
D03*
D110*
X458169Y729823D02*
D03*
X464468D02*
D03*
X458169Y726279D02*
D03*
X464468D02*
D03*
D111*
X279921Y581004D02*
D03*
Y578445D02*
D03*
Y575886D02*
D03*
Y573327D02*
D03*
X290945Y581004D02*
D03*
Y578445D02*
D03*
Y575886D02*
D03*
Y573327D02*
D03*
D112*
X285433Y577165D02*
D03*
D113*
X277953Y534154D02*
D03*
Y531595D02*
D03*
Y529035D02*
D03*
Y526476D02*
D03*
X292913D02*
D03*
Y529035D02*
D03*
Y531595D02*
D03*
Y534154D02*
D03*
D114*
X281594Y522835D02*
D03*
X284154D02*
D03*
X286713D02*
D03*
X289272D02*
D03*
Y537795D02*
D03*
X286713D02*
D03*
X284154D02*
D03*
X281594D02*
D03*
D115*
X285433Y530315D02*
D03*
D116*
X549921Y747913D02*
D03*
X539921D02*
D03*
X559094Y638819D02*
D03*
Y628819D02*
D03*
Y668819D02*
D03*
Y658819D02*
D03*
Y648819D02*
D03*
X506791Y558366D02*
D03*
X516791D02*
D03*
X559094Y602913D02*
D03*
Y592913D02*
D03*
Y562913D02*
D03*
Y582913D02*
D03*
Y572913D02*
D03*
Y552913D02*
D03*
Y542913D02*
D03*
Y532913D02*
D03*
X569095D02*
D03*
Y542913D02*
D03*
Y552913D02*
D03*
Y572913D02*
D03*
Y582913D02*
D03*
Y562913D02*
D03*
Y592913D02*
D03*
Y602913D02*
D03*
X533169Y638819D02*
D03*
Y648819D02*
D03*
Y658819D02*
D03*
X215158Y536850D02*
D03*
Y546850D02*
D03*
Y556850D02*
D03*
X537008Y699055D02*
D03*
Y709055D02*
D03*
X555512Y699055D02*
D03*
Y709055D02*
D03*
X334173Y618898D02*
D03*
Y628898D02*
D03*
Y588898D02*
D03*
Y598898D02*
D03*
Y608898D02*
D03*
X575866Y709055D02*
D03*
Y699055D02*
D03*
Y689055D02*
D03*
D117*
X224685Y835039D02*
D03*
Y725039D02*
D03*
X224528Y691221D02*
D03*
Y581220D02*
D03*
X588189Y819685D02*
D03*
D118*
X229685Y825039D02*
D03*
X219685D02*
D03*
Y815039D02*
D03*
X229685D02*
D03*
Y805039D02*
D03*
X219685D02*
D03*
Y795039D02*
D03*
X229685D02*
D03*
Y785039D02*
D03*
X219685D02*
D03*
Y775039D02*
D03*
X229685D02*
D03*
Y765039D02*
D03*
X219685D02*
D03*
Y755039D02*
D03*
X229685D02*
D03*
Y745039D02*
D03*
X219685D02*
D03*
Y735039D02*
D03*
X229685D02*
D03*
X229528Y681220D02*
D03*
X219528D02*
D03*
Y671220D02*
D03*
X229528D02*
D03*
Y661221D02*
D03*
X219528D02*
D03*
Y651221D02*
D03*
X229528D02*
D03*
Y641221D02*
D03*
X219528D02*
D03*
Y631220D02*
D03*
X229528D02*
D03*
Y621220D02*
D03*
X219528D02*
D03*
Y611221D02*
D03*
X229528D02*
D03*
Y601221D02*
D03*
X219528D02*
D03*
Y591221D02*
D03*
X229528D02*
D03*
D119*
X559449Y819685D02*
D03*
X537795D02*
D03*
D120*
X582677Y868110D02*
D03*
X225197Y510236D02*
D03*
X583465Y509449D02*
D03*
X224410Y867717D02*
D03*
D121*
X431358Y683957D02*
D03*
X214904Y696969D02*
D03*
X489461Y717264D02*
D03*
X439173Y723622D02*
D03*
X416831Y726968D02*
D03*
X452264Y722342D02*
D03*
X454134Y729823D02*
D03*
X428937Y732382D02*
D03*
X212303Y701181D02*
D03*
X564075Y720276D02*
D03*
X566563Y725174D02*
D03*
X567843Y731040D02*
D03*
X587106Y734547D02*
D03*
X588189Y629724D02*
D03*
X591978Y739813D02*
D03*
X591929Y623917D02*
D03*
X596654Y743504D02*
D03*
Y619685D02*
D03*
X509449Y760630D02*
D03*
X513976Y765256D02*
D03*
D122*
X283268Y532480D02*
D03*
X287598D02*
D03*
X283268Y528150D02*
D03*
X287598D02*
D03*
M02*
