G04 Layer_Physical_Order=2*
G04 Layer_Color=16711680*
%FSLAX25Y25*%
%MOIN*%
G70*
G01*
G75*
%ADD10C,0.00787*%
%ADD54C,0.01968*%
%ADD56C,0.03937*%
%ADD57C,0.01181*%
%ADD58C,0.01000*%
%ADD59C,0.07874*%
%ADD61C,0.02756*%
%ADD62C,0.06299*%
%ADD63C,0.07480*%
%ADD64C,0.08661*%
%ADD65C,0.27559*%
%ADD66C,0.02362*%
%ADD67C,0.04724*%
%ADD68C,0.01968*%
G36*
X592917Y885443D02*
X594737Y884689D01*
X596375Y883594D01*
X597767Y882201D01*
X598862Y880564D01*
X599616Y878744D01*
X600000Y876812D01*
Y875827D01*
X600000Y610640D01*
X599500Y610489D01*
X599407Y610628D01*
X598686Y611110D01*
X597835Y611279D01*
X597213Y611155D01*
X596884Y611562D01*
X596992Y612106D01*
Y662992D01*
X596884Y663536D01*
X596576Y663997D01*
X593544Y667028D01*
X593083Y667336D01*
X592539Y667445D01*
X590861D01*
X590459Y668414D01*
X589700Y669404D01*
X588709Y670164D01*
X587556Y670642D01*
X586571Y670772D01*
Y671276D01*
X587556Y671406D01*
X588709Y671883D01*
X589700Y672643D01*
X590459Y673633D01*
X590937Y674786D01*
X591100Y676024D01*
X590937Y677261D01*
X590459Y678414D01*
X589700Y679404D01*
X588709Y680164D01*
X587556Y680642D01*
X586571Y680771D01*
Y681276D01*
X587556Y681405D01*
X588709Y681883D01*
X589700Y682643D01*
X590459Y683633D01*
X590937Y684786D01*
X591100Y686024D01*
X590937Y687261D01*
X590459Y688414D01*
X589700Y689404D01*
X588709Y690164D01*
X587556Y690642D01*
X587176Y690692D01*
Y691196D01*
X587608Y691253D01*
X588809Y691750D01*
X589840Y692542D01*
X590631Y693573D01*
X591129Y694774D01*
X591298Y696063D01*
X591129Y697352D01*
X590631Y698553D01*
X589840Y699584D01*
X588809Y700376D01*
X587608Y700873D01*
X587475Y700890D01*
Y701395D01*
X587556Y701405D01*
X588709Y701883D01*
X589700Y702643D01*
X590459Y703633D01*
X590937Y704786D01*
X591034Y705524D01*
X586319D01*
Y706524D01*
X591034D01*
X590937Y707261D01*
X590459Y708414D01*
X589700Y709404D01*
X588709Y710164D01*
X587556Y710642D01*
X586571Y710772D01*
Y711276D01*
X587556Y711406D01*
X588709Y711883D01*
X589700Y712643D01*
X590459Y713633D01*
X590937Y714786D01*
X591100Y716024D01*
X590937Y717261D01*
X590459Y718414D01*
X589700Y719404D01*
X588709Y720164D01*
X587556Y720642D01*
X586571Y720772D01*
Y721276D01*
X587556Y721406D01*
X588709Y721883D01*
X589700Y722643D01*
X590459Y723633D01*
X590937Y724786D01*
X591034Y725524D01*
X586319D01*
Y726024D01*
X585819D01*
Y730739D01*
X585081Y730642D01*
X584893Y730563D01*
X584668Y731011D01*
X585582Y731761D01*
X586332Y732674D01*
X586889Y733716D01*
X587232Y734847D01*
X587348Y736024D01*
X587232Y737200D01*
X586889Y738331D01*
X586332Y739373D01*
X585582Y740287D01*
X584668Y741037D01*
X583626Y741594D01*
X582495Y741937D01*
X581319Y742053D01*
X580143Y741937D01*
X579012Y741594D01*
X577969Y741037D01*
X577056Y740287D01*
X576306Y739373D01*
X575749Y738331D01*
X575406Y737200D01*
X575290Y736024D01*
X575406Y734847D01*
X575749Y733716D01*
X576306Y732674D01*
X577056Y731761D01*
X577969Y731011D01*
X577745Y730563D01*
X577556Y730642D01*
X576819Y730739D01*
Y726024D01*
X575819D01*
Y730739D01*
X575081Y730642D01*
X573928Y730164D01*
X572999Y729451D01*
X572499Y729568D01*
Y805709D01*
X572330Y806997D01*
X571832Y808199D01*
X571041Y809230D01*
X571041Y809230D01*
X564428Y815842D01*
Y817777D01*
X564642Y818293D01*
X564825Y819685D01*
X564642Y821077D01*
X564105Y822373D01*
X563251Y823487D01*
X562137Y824341D01*
X560840Y824879D01*
X559449Y825062D01*
X558057Y824879D01*
X556761Y824341D01*
X555647Y823487D01*
X554792Y822373D01*
X554255Y821077D01*
X554072Y819685D01*
X554255Y818293D01*
X554469Y817777D01*
Y813780D01*
X554469Y813780D01*
X554639Y812491D01*
X555136Y811290D01*
X555928Y810258D01*
X562540Y803646D01*
Y716384D01*
X562040Y716117D01*
X561579Y716425D01*
X560728Y716594D01*
X559877Y716425D01*
X559156Y715943D01*
X558674Y715221D01*
X558504Y714370D01*
X558674Y713519D01*
X559107Y712871D01*
Y711965D01*
X558633Y711804D01*
X558471Y712015D01*
X557605Y712680D01*
X556595Y713098D01*
X555512Y713240D01*
X554428Y713098D01*
X553419Y712680D01*
X552552Y712015D01*
X551887Y711148D01*
X551469Y710138D01*
X551326Y709055D01*
X551469Y707972D01*
X551887Y706962D01*
X552552Y706096D01*
X553419Y705430D01*
X554428Y705012D01*
X555512Y704870D01*
X556595Y705012D01*
X557605Y705430D01*
X558471Y706096D01*
X558633Y706307D01*
X559107Y706146D01*
Y701965D01*
X558633Y701804D01*
X558471Y702015D01*
X557605Y702680D01*
X556595Y703098D01*
X555512Y703240D01*
X554428Y703098D01*
X553419Y702680D01*
X552552Y702015D01*
X551887Y701148D01*
X551835Y701022D01*
X551357Y700877D01*
X551009Y701110D01*
X550157Y701279D01*
X549306Y701110D01*
X548585Y700628D01*
X548283Y700176D01*
X547783Y700327D01*
Y714075D01*
X547660Y714695D01*
X547308Y715222D01*
X546793Y715736D01*
X546641Y716501D01*
X546159Y717222D01*
X545438Y717704D01*
X544587Y717873D01*
X543736Y717704D01*
X543014Y717222D01*
X542532Y716501D01*
X542363Y715650D01*
X542532Y714799D01*
X543014Y714077D01*
X543736Y713595D01*
X544500Y713443D01*
X544540Y713403D01*
Y700652D01*
X544040Y700500D01*
X543954Y700628D01*
X543233Y701110D01*
X542382Y701279D01*
X541531Y701110D01*
X541167Y700867D01*
X540689Y701012D01*
X540632Y701148D01*
X539967Y702015D01*
X539101Y702680D01*
X538091Y703098D01*
X537008Y703240D01*
X535925Y703098D01*
X534915Y702680D01*
X534048Y702015D01*
X533383Y701148D01*
X532965Y700138D01*
X532823Y699055D01*
X532965Y697972D01*
X533383Y696962D01*
X534048Y696096D01*
X534915Y695430D01*
X535925Y695012D01*
X537008Y694870D01*
X538091Y695012D01*
X539101Y695430D01*
X539967Y696096D01*
X540129Y696307D01*
X540603Y696146D01*
Y688605D01*
X540170Y687957D01*
X540001Y687106D01*
X540170Y686255D01*
X540652Y685534D01*
X541373Y685052D01*
X542224Y684882D01*
X543075Y685052D01*
X543797Y685534D01*
X544040Y685897D01*
X544540Y685745D01*
Y685062D01*
X544107Y684414D01*
X543938Y683563D01*
X544107Y682712D01*
X544589Y681990D01*
X545310Y681508D01*
X546161Y681339D01*
X547012Y681508D01*
X547734Y681990D01*
X548216Y682712D01*
X548385Y683563D01*
X548216Y684414D01*
X547783Y685062D01*
Y685745D01*
X548283Y685897D01*
X548526Y685534D01*
X549247Y685052D01*
X550098Y684882D01*
X550949Y685052D01*
X551671Y685534D01*
X552153Y686255D01*
X552322Y687106D01*
X552153Y687957D01*
X551720Y688605D01*
Y696359D01*
X552220Y696528D01*
X552552Y696096D01*
X553419Y695430D01*
X554428Y695012D01*
X555512Y694870D01*
X556595Y695012D01*
X557605Y695430D01*
X558471Y696096D01*
X558633Y696307D01*
X559107Y696146D01*
Y690453D01*
X559230Y689832D01*
X559582Y689306D01*
X562912Y685976D01*
X563064Y685212D01*
X563546Y684490D01*
X564267Y684008D01*
X565118Y683839D01*
X565969Y684008D01*
X566691Y684490D01*
X567173Y685212D01*
X567342Y686063D01*
X567173Y686914D01*
X566691Y687636D01*
X565969Y688118D01*
X565205Y688270D01*
X562350Y691124D01*
Y696698D01*
X562850Y696798D01*
X563207Y695935D01*
X563999Y694904D01*
X566361Y692542D01*
X566361Y692542D01*
X567392Y691750D01*
X568593Y691253D01*
X569882Y691083D01*
X569882Y691083D01*
X574841D01*
X574940Y690583D01*
X573928Y690164D01*
X572938Y689404D01*
X572178Y688414D01*
X571701Y687261D01*
X571538Y686024D01*
X571701Y684786D01*
X572178Y683633D01*
X572938Y682643D01*
X573928Y681883D01*
X575081Y681405D01*
X576067Y681276D01*
Y680771D01*
X575081Y680642D01*
X573928Y680164D01*
X572938Y679404D01*
X572178Y678414D01*
X571701Y677261D01*
X571538Y676024D01*
X571701Y674786D01*
X572178Y673633D01*
X572938Y672643D01*
X573928Y671883D01*
X575081Y671406D01*
X576067Y671276D01*
Y670772D01*
X575081Y670642D01*
X573928Y670164D01*
X572938Y669404D01*
X572178Y668414D01*
X571701Y667261D01*
X571538Y666024D01*
X571701Y664786D01*
X572178Y663633D01*
X572938Y662643D01*
X573928Y661883D01*
X575081Y661406D01*
X576067Y661276D01*
Y660772D01*
X575081Y660642D01*
X573928Y660164D01*
X572938Y659404D01*
X572761Y659173D01*
X572287Y659334D01*
Y662106D01*
X572179Y662650D01*
X571871Y663111D01*
X565158Y669824D01*
X564697Y670132D01*
X564153Y670240D01*
X562997D01*
X562719Y670912D01*
X562054Y671778D01*
X561187Y672444D01*
X560178Y672862D01*
X559094Y673004D01*
X558011Y672862D01*
X557002Y672444D01*
X556135Y671778D01*
X555470Y670912D01*
X555052Y669902D01*
X554909Y668819D01*
X555052Y667736D01*
X555470Y666726D01*
X556135Y665859D01*
X557002Y665194D01*
X558011Y664776D01*
X559094Y664634D01*
X560178Y664776D01*
X561187Y665194D01*
X562054Y665859D01*
X562719Y666726D01*
X562997Y667398D01*
X563565D01*
X569445Y661518D01*
Y618966D01*
X569059Y618648D01*
X568996Y618661D01*
X568145Y618492D01*
X567424Y618010D01*
X566941Y617288D01*
X566772Y616437D01*
X566941Y615586D01*
X567424Y614864D01*
X568145Y614383D01*
X568996Y614213D01*
X569847Y614383D01*
X570569Y614864D01*
X571051Y615586D01*
X571175Y616213D01*
X571603Y616640D01*
X572103Y616433D01*
Y615060D01*
X571951Y614958D01*
X571469Y614237D01*
X571300Y613386D01*
X571469Y612535D01*
X571721Y612157D01*
X571454Y611657D01*
X565352D01*
X563232Y613778D01*
Y632778D01*
X565276Y634822D01*
X565585Y635283D01*
X565693Y635827D01*
Y657874D01*
X565585Y658418D01*
X565276Y658879D01*
X564332Y659824D01*
X563871Y660132D01*
X563327Y660240D01*
X562997D01*
X562719Y660912D01*
X562054Y661778D01*
X561187Y662444D01*
X560178Y662862D01*
X559094Y663004D01*
X558011Y662862D01*
X557002Y662444D01*
X556135Y661778D01*
X556084Y661713D01*
X555586Y661680D01*
X553468Y663798D01*
X553503Y663976D01*
X553334Y664827D01*
X552852Y665549D01*
X552131Y666031D01*
X551279Y666200D01*
X550428Y666031D01*
X549707Y665549D01*
X549225Y664827D01*
X549056Y663976D01*
X549225Y663125D01*
X549707Y662404D01*
X550428Y661922D01*
X551279Y661753D01*
X551458Y661788D01*
X554982Y658264D01*
X555052Y657736D01*
X555470Y656726D01*
X556135Y655859D01*
X557002Y655194D01*
X558011Y654776D01*
X559094Y654634D01*
X560178Y654776D01*
X561187Y655194D01*
X562054Y655859D01*
X562351Y656246D01*
X562851Y656076D01*
Y651562D01*
X562351Y651392D01*
X562054Y651778D01*
X561187Y652444D01*
X560178Y652862D01*
X559094Y653004D01*
X558011Y652862D01*
X557002Y652444D01*
X556135Y651778D01*
X555470Y650912D01*
X555192Y650240D01*
X550687D01*
X547189Y653738D01*
Y668110D01*
X547340Y668211D01*
X547822Y668932D01*
X547992Y669783D01*
X547822Y670635D01*
X547340Y671356D01*
X546619Y671838D01*
X545768Y672007D01*
X544917Y671838D01*
X544195Y671356D01*
X543713Y670635D01*
X543544Y669783D01*
X543713Y668932D01*
X544195Y668211D01*
X544347Y668110D01*
Y653150D01*
X544455Y652606D01*
X544763Y652145D01*
X549094Y647814D01*
X549555Y647506D01*
X550098Y647398D01*
X554957D01*
X555164Y646898D01*
X552381Y644115D01*
X552073Y643654D01*
X551965Y643110D01*
Y616474D01*
X551554Y616064D01*
X551246Y615603D01*
X551138Y615059D01*
Y611122D01*
X551246Y610578D01*
X551554Y610117D01*
X554901Y606771D01*
X555362Y606463D01*
X555905Y606355D01*
X555985D01*
X556094Y606034D01*
X556121Y605855D01*
X555470Y605006D01*
X555052Y603997D01*
X554909Y602913D01*
X555052Y601830D01*
X555470Y600821D01*
X556135Y599954D01*
X557002Y599289D01*
X558011Y598871D01*
X559094Y598728D01*
X560178Y598871D01*
X561187Y599289D01*
X562054Y599954D01*
X562719Y600821D01*
X563137Y601830D01*
X563280Y602913D01*
X563137Y603997D01*
X562719Y605006D01*
X562068Y605855D01*
X562095Y606034D01*
X562204Y606355D01*
X565985D01*
X566094Y606034D01*
X566121Y605855D01*
X565470Y605006D01*
X565052Y603997D01*
X564909Y602913D01*
X565052Y601830D01*
X565470Y600821D01*
X566135Y599954D01*
X567002Y599289D01*
X568011Y598871D01*
X569095Y598728D01*
X570178Y598871D01*
X571187Y599289D01*
X572054Y599954D01*
X572719Y600821D01*
X573137Y601830D01*
X573280Y602913D01*
X573137Y603997D01*
X572719Y605006D01*
X572068Y605855D01*
X572095Y606034D01*
X572204Y606355D01*
X582778D01*
X583641Y605491D01*
X584102Y605183D01*
X584646Y605075D01*
X589284D01*
X589695Y604575D01*
X589607Y604134D01*
X589776Y603283D01*
X590258Y602561D01*
X590980Y602079D01*
X591831Y601910D01*
X592682Y602079D01*
X593403Y602561D01*
X593673Y602965D01*
X593918Y603129D01*
X597656Y606867D01*
X597835Y606831D01*
X598686Y607001D01*
X599407Y607483D01*
X599500Y607622D01*
X600000Y607470D01*
X600000Y503608D01*
X600000Y503608D01*
X600000Y502652D01*
X599689Y500765D01*
X599077Y498953D01*
X598178Y497265D01*
X597017Y495746D01*
X595625Y494435D01*
X594038Y493367D01*
X592299Y492571D01*
X591376Y492320D01*
X384845Y492320D01*
X384654Y492782D01*
X386436Y494564D01*
X386614Y494528D01*
X387465Y494697D01*
X388187Y495180D01*
X388669Y495901D01*
X388838Y496752D01*
X388669Y497603D01*
X388187Y498324D01*
X387465Y498806D01*
X386614Y498976D01*
X385763Y498806D01*
X385042Y498324D01*
X384560Y497603D01*
X384390Y496752D01*
X384426Y496573D01*
X382285Y494433D01*
X342321D01*
X342071Y494683D01*
Y505850D01*
X342224Y506004D01*
X346069D01*
X346787Y505524D01*
X347638Y505355D01*
X348489Y505524D01*
X349210Y506006D01*
X349692Y506728D01*
X349829Y507416D01*
X350541Y507274D01*
X351392Y507444D01*
X352114Y507926D01*
X352596Y508647D01*
X352765Y509498D01*
X352737Y509639D01*
X353091Y509993D01*
X353150Y509981D01*
X354001Y510150D01*
X354722Y510632D01*
X355204Y511354D01*
X355373Y512205D01*
X355204Y513056D01*
X354722Y513777D01*
X354571Y513878D01*
Y530907D01*
X359693Y536030D01*
X360193Y535823D01*
Y530905D01*
X360301Y530362D01*
X360609Y529901D01*
X362457Y528053D01*
Y513189D01*
X362565Y512645D01*
X362873Y512184D01*
X364645Y510413D01*
X365106Y510105D01*
X365650Y509996D01*
X371163D01*
X372772Y508387D01*
X372737Y508209D01*
X372906Y507358D01*
X373388Y506636D01*
X374110Y506154D01*
X374961Y505985D01*
X375812Y506154D01*
X376533Y506636D01*
X377015Y507358D01*
X377118Y507876D01*
X377130Y507897D01*
X377671Y508129D01*
X377769Y508064D01*
X377906Y507377D01*
X378388Y506656D01*
X379110Y506174D01*
X379961Y506004D01*
X380812Y506174D01*
X381533Y506656D01*
X382015Y507377D01*
X382185Y508228D01*
X382015Y509079D01*
X381533Y509801D01*
X380812Y510283D01*
X379961Y510452D01*
X379782Y510417D01*
X375513Y514686D01*
X375052Y514994D01*
X374508Y515102D01*
X368108D01*
X368055Y515156D01*
Y529921D01*
X367947Y530465D01*
X367639Y530926D01*
X365890Y532675D01*
Y538501D01*
X366363Y538662D01*
X366558Y538408D01*
X376400Y528566D01*
X377432Y527774D01*
X378632Y527277D01*
X379921Y527107D01*
X379921Y527107D01*
X380020D01*
X381309Y527277D01*
X382509Y527774D01*
X383541Y528566D01*
X384332Y529597D01*
X384830Y530798D01*
X384999Y532087D01*
X384830Y533375D01*
X384332Y534576D01*
X383541Y535608D01*
X383118Y535932D01*
X375058Y543992D01*
Y555888D01*
X375558Y556050D01*
X375934Y555560D01*
X378788Y552706D01*
X379408Y552230D01*
X380131Y551931D01*
X380906Y551829D01*
X381680Y551931D01*
X382403Y552230D01*
X383023Y552706D01*
X383499Y553326D01*
X383798Y554048D01*
X383900Y554823D01*
X383798Y555598D01*
X383499Y556320D01*
X383023Y556940D01*
X381045Y558917D01*
Y611810D01*
X381545Y612077D01*
X381925Y611823D01*
X382776Y611654D01*
X383627Y611823D01*
X384348Y612305D01*
X384830Y613027D01*
X384999Y613878D01*
X384964Y614057D01*
X387225Y616318D01*
X387533Y616779D01*
X387642Y617323D01*
Y631988D01*
X387793Y632089D01*
X388275Y632810D01*
X388444Y633661D01*
X388275Y634512D01*
X387793Y635234D01*
X387071Y635716D01*
X386221Y635885D01*
X385369Y635716D01*
X385148Y635568D01*
X384648Y635835D01*
Y636474D01*
X385827D01*
X386602Y636576D01*
X387324Y636875D01*
X387944Y637351D01*
X388420Y637971D01*
X388719Y638694D01*
X388821Y639468D01*
X388719Y640243D01*
X388420Y640966D01*
X387944Y641586D01*
X387324Y642062D01*
X386602Y642361D01*
X385827Y642463D01*
X383703D01*
Y650138D01*
X391095Y657530D01*
X391637Y657365D01*
X391745Y656826D01*
X392227Y656105D01*
X392948Y655623D01*
X393799Y655453D01*
X393978Y655489D01*
X394665Y654802D01*
X395126Y654494D01*
X395669Y654386D01*
X401181D01*
X401725Y654494D01*
X402186Y654802D01*
X405434Y658050D01*
X405742Y658511D01*
X405850Y659055D01*
Y668888D01*
X406350Y668937D01*
X406371Y668834D01*
X406837Y668136D01*
Y655145D01*
X406794Y655116D01*
X406312Y654394D01*
X406142Y653543D01*
X406312Y652692D01*
X406794Y651971D01*
X407515Y651489D01*
X408366Y651320D01*
X409217Y651489D01*
X409939Y651971D01*
X410421Y652692D01*
X410590Y653543D01*
X410421Y654394D01*
X409939Y655116D01*
X409896Y655145D01*
Y668044D01*
X409998Y668113D01*
X410480Y668834D01*
X410649Y669685D01*
X410480Y670536D01*
X409998Y671257D01*
X409276Y671740D01*
X408425Y671909D01*
X407574Y671740D01*
X407136Y671447D01*
X406817Y671835D01*
X409962Y674979D01*
X410269Y675441D01*
X410378Y675984D01*
Y686321D01*
X414194Y690137D01*
X414502Y690598D01*
X414610Y691142D01*
Y717620D01*
X416357Y719367D01*
X416535Y719331D01*
X417386Y719501D01*
X418108Y719983D01*
X418590Y720704D01*
X418759Y721555D01*
X418590Y722406D01*
X418108Y723128D01*
X417386Y723610D01*
X416535Y723779D01*
X415684Y723610D01*
X414963Y723128D01*
X414481Y722406D01*
X414312Y721555D01*
X414347Y721376D01*
X412184Y719213D01*
X411876Y718752D01*
X411768Y718209D01*
Y691730D01*
X407952Y687914D01*
X407644Y687453D01*
X407536Y686909D01*
Y676573D01*
X403424Y672462D01*
X403200Y672127D01*
X402701Y672278D01*
Y682283D01*
X402852Y682384D01*
X403334Y683106D01*
X403503Y683957D01*
X403334Y684808D01*
X402852Y685529D01*
X402131Y686011D01*
X401279Y686180D01*
X400428Y686011D01*
X400285Y685916D01*
X399845Y686151D01*
Y692224D01*
X399829Y692342D01*
X401726Y694239D01*
X402164Y694895D01*
X402318Y695669D01*
Y698118D01*
X402350Y698165D01*
X402519Y699016D01*
X402350Y699867D01*
X401868Y700588D01*
X401146Y701070D01*
X400295Y701240D01*
X399444Y701070D01*
X398723Y700588D01*
X398241Y699867D01*
X398071Y699016D01*
X398241Y698165D01*
X398272Y698118D01*
Y696507D01*
X396968Y695203D01*
X396850Y695219D01*
X396076Y695117D01*
X395353Y694817D01*
X395046Y694582D01*
X394547Y694829D01*
Y809941D01*
X394377Y811230D01*
X393879Y812431D01*
X393088Y813462D01*
X392057Y814253D01*
X390856Y814751D01*
X389567Y814921D01*
X388278Y814751D01*
X387077Y814253D01*
X386046Y813462D01*
X385255Y812431D01*
X384757Y811230D01*
X384587Y809941D01*
Y673421D01*
X366558Y655391D01*
X366363Y655137D01*
X365890Y655298D01*
Y657283D01*
X366041Y657384D01*
X366523Y658106D01*
X366692Y658957D01*
X366523Y659808D01*
X366041Y660529D01*
X365319Y661011D01*
X364469Y661180D01*
X363617Y661011D01*
X362896Y660529D01*
X362414Y659808D01*
X362245Y658957D01*
X362414Y658106D01*
X362896Y657384D01*
X363048Y657283D01*
Y645503D01*
X362607Y645267D01*
X362465Y645362D01*
X362032Y645448D01*
X361799Y645999D01*
X361968Y646850D01*
X361799Y647701D01*
X361317Y648423D01*
X360595Y648905D01*
X359744Y649074D01*
X359455Y649475D01*
X359338Y650064D01*
X358856Y650785D01*
X358135Y651267D01*
X357283Y651436D01*
X357273Y651434D01*
X356814Y651853D01*
X356680Y652524D01*
X356199Y653246D01*
X355477Y653728D01*
X354626Y653897D01*
X353775Y653728D01*
X353299Y653410D01*
X352799Y653677D01*
Y660433D01*
X352950Y660534D01*
X353432Y661255D01*
X353602Y662106D01*
X353432Y662957D01*
X352950Y663679D01*
X352229Y664161D01*
X351378Y664330D01*
X350527Y664161D01*
X349805Y663679D01*
X349323Y662957D01*
X349154Y662106D01*
X349297Y661389D01*
X349048Y661059D01*
X348916Y660965D01*
X348327Y661082D01*
X347476Y660913D01*
X347246Y660759D01*
X346805Y660995D01*
Y713146D01*
X347193Y713534D01*
X347244Y713524D01*
X348095Y713694D01*
X348817Y714176D01*
X349299Y714897D01*
X349468Y715748D01*
X349299Y716599D01*
X348817Y717320D01*
X348095Y717803D01*
X347244Y717972D01*
X346393Y717803D01*
X345672Y717320D01*
X345189Y716599D01*
X345020Y715748D01*
X345030Y715697D01*
X344194Y714861D01*
X343863Y714365D01*
X343746Y713779D01*
Y672044D01*
X343246Y671764D01*
X342520Y671909D01*
X341669Y671740D01*
X341291Y671487D01*
X340791Y671755D01*
Y769586D01*
X340943Y769687D01*
X341425Y770409D01*
X341594Y771260D01*
X341425Y772111D01*
X340943Y772832D01*
X340221Y773314D01*
X339370Y773484D01*
X338519Y773314D01*
X337798Y772832D01*
X337316Y772111D01*
X337146Y771260D01*
X337316Y770409D01*
X337798Y769687D01*
X337949Y769586D01*
Y656768D01*
X337449Y656616D01*
X337399Y656691D01*
X336678Y657173D01*
X335827Y657342D01*
X334976Y657173D01*
X334254Y656691D01*
X333772Y655969D01*
X333603Y655118D01*
X333639Y654939D01*
X332854Y654154D01*
X332545Y653693D01*
X332437Y653150D01*
Y632670D01*
X332081Y632522D01*
X331214Y631857D01*
X330549Y630990D01*
X330130Y629981D01*
X329988Y628898D01*
X330130Y627814D01*
X330549Y626805D01*
X331214Y625938D01*
X332081Y625273D01*
X333090Y624855D01*
X334173Y624712D01*
X335257Y624855D01*
X336266Y625273D01*
X337133Y625938D01*
X337449Y626350D01*
X337949Y626181D01*
Y621615D01*
X337449Y621445D01*
X337133Y621857D01*
X336266Y622522D01*
X335257Y622940D01*
X334173Y623083D01*
X333090Y622940D01*
X332081Y622522D01*
X331214Y621857D01*
X330654Y621128D01*
X330159Y621202D01*
X330126Y621221D01*
X330007Y621816D01*
X329525Y622537D01*
X328804Y623019D01*
X328095Y623160D01*
X327673Y623600D01*
X327716Y623819D01*
X327547Y624670D01*
X327065Y625391D01*
X326343Y625873D01*
X325492Y626043D01*
X324641Y625873D01*
X323920Y625391D01*
X323438Y624670D01*
X323393Y624446D01*
X322893Y624495D01*
Y761221D01*
X322723Y762509D01*
X322226Y763710D01*
X321434Y764742D01*
X320403Y765533D01*
X319202Y766030D01*
X317913Y766200D01*
X316625Y766030D01*
X315424Y765533D01*
X314421Y764764D01*
X311574D01*
Y809842D01*
X311404Y811131D01*
X310907Y812332D01*
X310116Y813364D01*
X309084Y814155D01*
X307883Y814652D01*
X306594Y814822D01*
X305306Y814652D01*
X304105Y814155D01*
X303073Y813364D01*
X302282Y812332D01*
X301785Y811131D01*
X301615Y809842D01*
Y590551D01*
X301785Y589262D01*
X302282Y588061D01*
X303073Y587030D01*
X304105Y586239D01*
X305306Y585741D01*
X306594Y585572D01*
X307883Y585741D01*
X309084Y586239D01*
X310116Y587030D01*
X310398Y587397D01*
X310896Y587430D01*
X312934Y585393D01*
Y584547D01*
X313104Y583258D01*
X313601Y582057D01*
X314392Y581026D01*
X315424Y580235D01*
X316625Y579737D01*
X317913Y579568D01*
X319202Y579737D01*
X320403Y580235D01*
X321209Y580853D01*
X321709Y580606D01*
Y561704D01*
X321688Y561700D01*
X320967Y561218D01*
X320485Y560497D01*
X320316Y559646D01*
X320485Y558795D01*
X320967Y558073D01*
X321688Y557591D01*
X322539Y557422D01*
X322631Y557440D01*
X323057Y557015D01*
X322973Y556595D01*
X323142Y555744D01*
X323624Y555022D01*
X324346Y554540D01*
X325197Y554371D01*
X326048Y554540D01*
X326769Y555022D01*
X327251Y555744D01*
X327421Y556595D01*
X327251Y557445D01*
X326769Y558167D01*
X326618Y558268D01*
Y596841D01*
X327118Y597109D01*
X327515Y596843D01*
X328366Y596674D01*
X329217Y596843D01*
X329824Y597248D01*
X330268Y597192D01*
X330412Y597134D01*
X330549Y596805D01*
X331214Y595938D01*
X332081Y595273D01*
X333090Y594855D01*
X334173Y594712D01*
X335257Y594855D01*
X336266Y595273D01*
X337133Y595938D01*
X337449Y596350D01*
X337949Y596181D01*
Y591615D01*
X337449Y591445D01*
X337133Y591857D01*
X336266Y592522D01*
X335257Y592940D01*
X334673Y593017D01*
Y588898D01*
Y584778D01*
X335257Y584855D01*
X336266Y585273D01*
X337133Y585938D01*
X337449Y586350D01*
X337949Y586181D01*
Y569291D01*
X338057Y568748D01*
X338365Y568287D01*
X340334Y566318D01*
X340795Y566010D01*
X341339Y565902D01*
X342618D01*
X342719Y565750D01*
X343440Y565268D01*
X344291Y565099D01*
X345142Y565268D01*
X345864Y565750D01*
X346346Y566472D01*
X346515Y567323D01*
X346346Y568174D01*
X345864Y568895D01*
X345142Y569377D01*
X344291Y569547D01*
X343440Y569377D01*
X342719Y568895D01*
X342618Y568744D01*
X341927D01*
X340791Y569880D01*
Y571159D01*
X341291Y571426D01*
X341669Y571174D01*
X342520Y571004D01*
X343371Y571174D01*
X344092Y571656D01*
X344574Y572377D01*
X344743Y573228D01*
X344574Y574079D01*
X344092Y574801D01*
X343941Y574902D01*
Y575633D01*
X344351Y575907D01*
X344441Y575895D01*
X345276Y575729D01*
X346127Y575898D01*
X346799Y576348D01*
X347300Y576224D01*
Y541337D01*
X339645Y533682D01*
X339440Y533376D01*
X338940Y533528D01*
Y542106D01*
X343545Y546711D01*
X344071Y547497D01*
X344255Y548425D01*
X344071Y549353D01*
X343545Y550140D01*
X342758Y550665D01*
X341831Y550850D01*
X340903Y550665D01*
X340116Y550140D01*
X339396Y549419D01*
X339275Y549433D01*
X338874Y549981D01*
X338936Y550295D01*
X338767Y551146D01*
X338285Y551868D01*
X337564Y552350D01*
X336713Y552519D01*
X335862Y552350D01*
X335140Y551868D01*
X334658Y551146D01*
X334489Y550295D01*
X334658Y549444D01*
X334887Y549101D01*
X331377Y545591D01*
X331069Y545130D01*
X330961Y544587D01*
Y496358D01*
X331069Y495815D01*
X331377Y495354D01*
X333352Y493379D01*
X333379Y493244D01*
X333661Y492820D01*
X333394Y492320D01*
X216929Y492320D01*
X216929Y492320D01*
X215932Y492299D01*
X213969Y492646D01*
X212111Y493370D01*
X210430Y494442D01*
X208991Y495822D01*
X207848Y497456D01*
X207046Y499281D01*
X206616Y501228D01*
X206594Y502224D01*
Y548032D01*
X208922D01*
X209133Y547716D01*
X211003Y545846D01*
X211114Y545771D01*
X211115Y545767D01*
X211533Y544758D01*
X212198Y543891D01*
X213065Y543226D01*
X214074Y542808D01*
X215158Y542665D01*
X216241Y542808D01*
X217250Y543226D01*
X218117Y543891D01*
X218782Y544758D01*
X219200Y545767D01*
X219343Y546850D01*
X219200Y547934D01*
X218782Y548943D01*
X218117Y549810D01*
X217250Y550475D01*
X216241Y550893D01*
X215158Y551036D01*
X214074Y550893D01*
X213065Y550475D01*
X212198Y549810D01*
X212059Y549629D01*
X211559Y549798D01*
Y553946D01*
X212032Y554107D01*
X212198Y553891D01*
X213065Y553226D01*
X214074Y552808D01*
X215158Y552665D01*
X216241Y552808D01*
X217250Y553226D01*
X218117Y553891D01*
X218782Y554758D01*
X219200Y555767D01*
X219343Y556850D01*
X219200Y557934D01*
X218782Y558943D01*
X218117Y559810D01*
X217250Y560475D01*
X216241Y560893D01*
X215158Y561036D01*
X214421Y560939D01*
X213921Y561338D01*
Y593604D01*
X217321Y597004D01*
X218290Y596602D01*
X219275Y596473D01*
Y595968D01*
X218290Y595839D01*
X217137Y595361D01*
X216147Y594601D01*
X215387Y593611D01*
X214909Y592458D01*
X214812Y591720D01*
X219528D01*
Y591221D01*
X220028D01*
Y586505D01*
X220765Y586602D01*
X220954Y586681D01*
X221178Y586233D01*
X220264Y585484D01*
X219515Y584570D01*
X218957Y583528D01*
X218614Y582397D01*
X218498Y581220D01*
X218614Y580044D01*
X218957Y578913D01*
X219515Y577871D01*
X220264Y576957D01*
X221178Y576207D01*
X222220Y575650D01*
X223351Y575307D01*
X224528Y575191D01*
X225704Y575307D01*
X226835Y575650D01*
X227877Y576207D01*
X228791Y576957D01*
X229540Y577871D01*
X230098Y578913D01*
X230441Y580044D01*
X230557Y581220D01*
X230441Y582397D01*
X230098Y583528D01*
X229540Y584570D01*
X228791Y585484D01*
X227877Y586233D01*
X228101Y586681D01*
X228290Y586602D01*
X229528Y586439D01*
X230765Y586602D01*
X231494Y586904D01*
X234888Y583510D01*
X235545Y583072D01*
X236319Y582918D01*
X243098D01*
X243145Y582886D01*
X243996Y582717D01*
X244847Y582886D01*
X245569Y583368D01*
X246051Y584090D01*
X246220Y584941D01*
X246051Y585792D01*
X245569Y586513D01*
X245417Y586615D01*
Y587795D01*
X245309Y588339D01*
X245001Y588800D01*
X244728Y589073D01*
Y606826D01*
Y637600D01*
X253545Y646417D01*
X254134Y646300D01*
X254985Y646469D01*
X255706Y646951D01*
X255745Y647008D01*
X256245Y646857D01*
Y641843D01*
X256213Y641796D01*
X256044Y640945D01*
X256213Y640094D01*
X256695Y639372D01*
X257417Y638890D01*
X258268Y638721D01*
X259119Y638890D01*
X259840Y639372D01*
X260322Y640094D01*
X260492Y640945D01*
X260322Y641796D01*
X260291Y641843D01*
Y661789D01*
X260137Y662563D01*
X259698Y663220D01*
X259209Y663709D01*
X259198Y663764D01*
X258716Y664486D01*
X258618Y664552D01*
Y679803D01*
X258622Y679823D01*
X258618Y679842D01*
Y679921D01*
X258464Y680695D01*
X258025Y681352D01*
X257978Y681383D01*
X257970Y681395D01*
X257249Y681877D01*
X256398Y682047D01*
X255547Y681877D01*
X254825Y681395D01*
X254343Y680674D01*
X254174Y679823D01*
X254343Y678972D01*
X254571Y678630D01*
Y663462D01*
X254725Y662688D01*
X255066Y662179D01*
X255089Y662063D01*
X255571Y661341D01*
X256245Y660891D01*
Y650190D01*
X255745Y650039D01*
X255706Y650096D01*
X254985Y650578D01*
X254134Y650747D01*
X253283Y650578D01*
X252561Y650096D01*
X252079Y649375D01*
X251979Y648871D01*
X251107Y647998D01*
X250933Y648024D01*
X250653Y648404D01*
X250677Y648568D01*
X250760Y648624D01*
X251242Y649346D01*
X251412Y650197D01*
X251242Y651048D01*
X250760Y651769D01*
X250039Y652251D01*
X249188Y652421D01*
X248626Y652309D01*
X248325Y652759D01*
X248610Y653184D01*
X248779Y654035D01*
X248610Y654886D01*
X248128Y655608D01*
X247406Y656090D01*
X246555Y656259D01*
X245704Y656090D01*
X244983Y655608D01*
X244501Y654886D01*
X244331Y654035D01*
X244367Y653857D01*
X236692Y646182D01*
X236384Y645721D01*
X236276Y645177D01*
Y619978D01*
X231734Y615437D01*
X230765Y615839D01*
X229780Y615968D01*
Y616473D01*
X230765Y616602D01*
X231918Y617080D01*
X232908Y617840D01*
X233668Y618830D01*
X234146Y619983D01*
X234309Y621220D01*
X234146Y622458D01*
X233668Y623611D01*
X232908Y624601D01*
X231918Y625361D01*
X230765Y625839D01*
X229780Y625968D01*
Y626473D01*
X230765Y626602D01*
X231918Y627080D01*
X232908Y627840D01*
X233668Y628830D01*
X234146Y629983D01*
X234309Y631220D01*
X234146Y632458D01*
X233668Y633611D01*
X232908Y634601D01*
X231918Y635361D01*
X230765Y635839D01*
X229780Y635968D01*
Y636473D01*
X230765Y636602D01*
X231918Y637080D01*
X232908Y637840D01*
X233668Y638830D01*
X234146Y639983D01*
X234309Y641221D01*
X234146Y642458D01*
X233668Y643611D01*
X232908Y644601D01*
X231918Y645361D01*
X230765Y645839D01*
X229780Y645968D01*
Y646473D01*
X230765Y646602D01*
X231918Y647080D01*
X232908Y647840D01*
X233668Y648830D01*
X234146Y649983D01*
X234309Y651221D01*
X234146Y652458D01*
X233668Y653611D01*
X232908Y654601D01*
X231918Y655361D01*
X230765Y655839D01*
X229780Y655968D01*
Y656473D01*
X230765Y656602D01*
X231918Y657080D01*
X232908Y657840D01*
X233668Y658830D01*
X234146Y659983D01*
X234309Y661221D01*
X234146Y662458D01*
X233668Y663611D01*
X232908Y664601D01*
X231918Y665361D01*
X230765Y665839D01*
X229780Y665968D01*
Y666473D01*
X230765Y666602D01*
X231918Y667080D01*
X232908Y667840D01*
X233668Y668830D01*
X234146Y669983D01*
X234309Y671220D01*
X234146Y672458D01*
X233668Y673611D01*
X232908Y674601D01*
X231918Y675361D01*
X230765Y675839D01*
X229780Y675968D01*
Y676473D01*
X230765Y676602D01*
X231918Y677080D01*
X232908Y677840D01*
X233668Y678830D01*
X233820Y679197D01*
X236240D01*
X237014Y679351D01*
X237671Y679790D01*
X244147Y686266D01*
X244586Y686923D01*
X244740Y687697D01*
Y742863D01*
X256740Y754864D01*
X256796Y754875D01*
X257517Y755357D01*
X257999Y756078D01*
X258103Y756599D01*
X258603Y756550D01*
Y724980D01*
X258103Y724844D01*
X257446Y725283D01*
X256594Y725452D01*
X255744Y725283D01*
X255022Y724801D01*
X254540Y724079D01*
X254371Y723228D01*
X254540Y722377D01*
X254571Y722330D01*
Y710395D01*
X254245Y709906D01*
X254075Y709055D01*
X254245Y708204D01*
X254276Y708157D01*
Y702511D01*
X250144Y698379D01*
X249706Y697723D01*
X249552Y696949D01*
Y663436D01*
X249401Y663286D01*
X249346Y663275D01*
X248624Y662793D01*
X248142Y662072D01*
X247973Y661221D01*
X247994Y661112D01*
X247977Y661024D01*
X248131Y660249D01*
X248569Y659593D01*
X249226Y659155D01*
X250000Y659000D01*
X250089Y659018D01*
X250197Y658997D01*
X251048Y659166D01*
X251769Y659648D01*
X252251Y660369D01*
X252262Y660425D01*
X253005Y661168D01*
X253444Y661824D01*
X253598Y662598D01*
Y696111D01*
X257730Y700243D01*
X258103Y700801D01*
X258603Y700717D01*
Y685433D01*
X258773Y684144D01*
X259270Y682943D01*
X260062Y681912D01*
X261093Y681121D01*
X262294Y680623D01*
X263583Y680453D01*
X264872Y680623D01*
X266073Y681121D01*
X267104Y681912D01*
X267895Y682943D01*
X268393Y684144D01*
X268562Y685433D01*
Y796161D01*
X268562Y796161D01*
X268393Y797450D01*
X267895Y798651D01*
X267104Y799683D01*
X267104Y799683D01*
X263346Y803441D01*
Y881496D01*
X263176Y882785D01*
X262679Y883986D01*
X261887Y885017D01*
X261484Y885327D01*
X261654Y885827D01*
X417382Y885827D01*
X417552Y885327D01*
X417148Y885017D01*
X416357Y883986D01*
X415859Y882785D01*
X415690Y881496D01*
X415859Y880207D01*
X416357Y879006D01*
X417148Y877975D01*
X418180Y877184D01*
X419381Y876686D01*
X420669Y876517D01*
X426874D01*
X431930Y871461D01*
Y855469D01*
X431430Y855299D01*
X430982Y855883D01*
X430982Y855883D01*
X424387Y862478D01*
X423356Y863269D01*
X422155Y863767D01*
X420866Y863936D01*
X419577Y863767D01*
X418376Y863269D01*
X417345Y862478D01*
X416554Y861446D01*
X416056Y860246D01*
X415886Y858957D01*
X416056Y857668D01*
X416554Y856467D01*
X417345Y855436D01*
X422481Y850300D01*
Y761221D01*
X422651Y759932D01*
X423148Y758731D01*
X423940Y757699D01*
X424971Y756908D01*
X426172Y756411D01*
X427461Y756241D01*
X428749Y756411D01*
X429950Y756908D01*
X430982Y757699D01*
X431773Y758731D01*
X432271Y759932D01*
X432440Y761221D01*
Y808310D01*
X432940Y808480D01*
X433388Y807896D01*
X434420Y807105D01*
X435621Y806607D01*
X436909Y806438D01*
X438198Y806607D01*
X439399Y807105D01*
X440431Y807896D01*
X441222Y808928D01*
X441719Y810128D01*
X441889Y811417D01*
Y873524D01*
X441719Y874812D01*
X441222Y876013D01*
X440431Y877045D01*
X440430Y877045D01*
X432458Y885017D01*
X432055Y885327D01*
X432224Y885827D01*
X590000Y885827D01*
X590985D01*
X592917Y885443D01*
D02*
G37*
G36*
X217464Y885827D02*
X255079Y885827D01*
X255248Y885327D01*
X254845Y885017D01*
X254054Y883986D01*
X253556Y882785D01*
X253386Y881496D01*
Y801378D01*
X253386Y801378D01*
X253556Y800089D01*
X254054Y798888D01*
X254845Y797857D01*
X258603Y794099D01*
Y775523D01*
X258463Y775471D01*
X258103Y775440D01*
X257675Y776080D01*
X256953Y776562D01*
X256102Y776732D01*
X255251Y776562D01*
X254530Y776080D01*
X254048Y775359D01*
X253878Y774508D01*
X254048Y773657D01*
X254079Y773610D01*
Y758063D01*
X253890Y757780D01*
X253879Y757725D01*
X241286Y745131D01*
X240847Y744475D01*
X240693Y743701D01*
Y688535D01*
X235402Y683244D01*
X233820D01*
X233668Y683611D01*
X232908Y684601D01*
X231918Y685361D01*
X230765Y685839D01*
X229528Y686001D01*
X228290Y685839D01*
X228101Y685760D01*
X227877Y686207D01*
X228791Y686957D01*
X229540Y687871D01*
X230098Y688913D01*
X230441Y690044D01*
X230557Y691221D01*
X230441Y692397D01*
X230098Y693528D01*
X229540Y694570D01*
X228791Y695484D01*
X227877Y696233D01*
X226835Y696791D01*
X225704Y697134D01*
X224528Y697250D01*
X223351Y697134D01*
X222220Y696791D01*
X221178Y696233D01*
X220264Y695484D01*
X219515Y694570D01*
X218957Y693528D01*
X218614Y692397D01*
X218498Y691221D01*
X218614Y690044D01*
X218957Y688913D01*
X219515Y687871D01*
X220264Y686957D01*
X221178Y686207D01*
X220954Y685760D01*
X220765Y685839D01*
X219528Y686001D01*
X218290Y685839D01*
X217137Y685361D01*
X216147Y684601D01*
X215387Y683611D01*
X214909Y682458D01*
X214746Y681220D01*
X214909Y679983D01*
X215387Y678830D01*
X216147Y677840D01*
X217137Y677080D01*
X218290Y676602D01*
X219275Y676473D01*
Y675968D01*
X218290Y675839D01*
X217137Y675361D01*
X216147Y674601D01*
X215387Y673611D01*
X214909Y672458D01*
X214812Y671721D01*
X219528D01*
Y670720D01*
X214812D01*
X214909Y669983D01*
X215387Y668830D01*
X216147Y667840D01*
X217137Y667080D01*
X218290Y666602D01*
X219275Y666473D01*
Y665968D01*
X218290Y665839D01*
X217137Y665361D01*
X216147Y664601D01*
X215387Y663611D01*
X214909Y662458D01*
X214746Y661221D01*
X214909Y659983D01*
X215387Y658830D01*
X216147Y657840D01*
X217137Y657080D01*
X218290Y656602D01*
X219275Y656473D01*
Y655968D01*
X218290Y655839D01*
X217137Y655361D01*
X216147Y654601D01*
X215387Y653611D01*
X214909Y652458D01*
X214812Y651721D01*
X219528D01*
Y650721D01*
X214812D01*
X214909Y649983D01*
X215387Y648830D01*
X216147Y647840D01*
X217137Y647080D01*
X218290Y646602D01*
X219275Y646473D01*
Y645968D01*
X218290Y645839D01*
X217137Y645361D01*
X216147Y644601D01*
X215387Y643611D01*
X214909Y642458D01*
X214746Y641221D01*
X214909Y639983D01*
X215387Y638830D01*
X216147Y637840D01*
X217137Y637080D01*
X218290Y636602D01*
X219275Y636473D01*
Y635968D01*
X218290Y635839D01*
X217521Y635520D01*
X213138Y639904D01*
Y724801D01*
X213603Y725267D01*
X214074Y725071D01*
X215158Y724929D01*
X216241Y725071D01*
X217250Y725490D01*
X218117Y726155D01*
X218782Y727022D01*
X219200Y728031D01*
X219343Y729114D01*
X219200Y730197D01*
X218782Y731207D01*
X218117Y732074D01*
X217250Y732739D01*
X216241Y733157D01*
X215158Y733300D01*
X214074Y733157D01*
X213065Y732739D01*
X212198Y732074D01*
X211533Y731207D01*
X211115Y730197D01*
X210972Y729114D01*
X211115Y728031D01*
X211310Y727560D01*
X210369Y726619D01*
X210291Y726502D01*
X209791Y726654D01*
Y731454D01*
X213603Y735266D01*
X214074Y735071D01*
X215158Y734929D01*
X216241Y735071D01*
X217250Y735490D01*
X218117Y736155D01*
X218782Y737021D01*
X219200Y738031D01*
X219343Y739114D01*
X219200Y740197D01*
X218782Y741207D01*
X218117Y742074D01*
X217250Y742739D01*
X216241Y743157D01*
X215158Y743300D01*
X214074Y743157D01*
X213065Y742739D01*
X212198Y742074D01*
X211533Y741207D01*
X211115Y740197D01*
X210972Y739114D01*
X211115Y738031D01*
X211310Y737560D01*
X207095Y733345D01*
X206807Y733403D01*
X206594Y733532D01*
Y877328D01*
X206594Y877328D01*
X206594Y877328D01*
X206819Y878232D01*
X207561Y879940D01*
X208574Y881503D01*
X209832Y882876D01*
X211299Y884023D01*
X212935Y884913D01*
X214696Y885519D01*
X216533Y885827D01*
X217464Y885827D01*
D02*
G37*
%LPC*%
G36*
X558595Y547033D02*
X558011Y546956D01*
X557002Y546538D01*
X556135Y545873D01*
X555470Y545006D01*
X555052Y543997D01*
X554975Y543413D01*
X558595D01*
Y547033D01*
D02*
G37*
G36*
X568595Y552413D02*
X564975D01*
X565052Y551830D01*
X565470Y550821D01*
X566135Y549954D01*
X567002Y549289D01*
X568011Y548871D01*
X568595Y548794D01*
Y552413D01*
D02*
G37*
G36*
X558595Y557033D02*
X558011Y556956D01*
X557002Y556538D01*
X556135Y555873D01*
X555470Y555006D01*
X555052Y553997D01*
X554975Y553413D01*
X558595D01*
Y557033D01*
D02*
G37*
G36*
X559594Y557033D02*
Y553413D01*
X563214D01*
X563137Y553997D01*
X562719Y555006D01*
X562054Y555873D01*
X561187Y556538D01*
X560178Y556956D01*
X559594Y557033D01*
D02*
G37*
G36*
X568595Y557033D02*
X568011Y556956D01*
X567002Y556538D01*
X566135Y555873D01*
X565470Y555006D01*
X565052Y553997D01*
X564975Y553413D01*
X568595D01*
Y557033D01*
D02*
G37*
G36*
X558595Y552413D02*
X554975D01*
X555052Y551830D01*
X555470Y550821D01*
X556135Y549954D01*
X557002Y549289D01*
X558011Y548871D01*
X558595Y548794D01*
Y552413D01*
D02*
G37*
G36*
X569594Y547033D02*
Y543413D01*
X573214D01*
X573137Y543997D01*
X572719Y545006D01*
X572054Y545873D01*
X571187Y546538D01*
X570178Y546956D01*
X569594Y547033D01*
D02*
G37*
G36*
X559594D02*
Y543413D01*
X563214D01*
X563137Y543997D01*
X562719Y545006D01*
X562054Y545873D01*
X561187Y546538D01*
X560178Y546956D01*
X559594Y547033D01*
D02*
G37*
G36*
X563214Y552413D02*
X559594D01*
Y548794D01*
X560178Y548871D01*
X561187Y549289D01*
X562054Y549954D01*
X562719Y550821D01*
X563137Y551830D01*
X563214Y552413D01*
D02*
G37*
G36*
X568595Y547033D02*
X568011Y546956D01*
X567002Y546538D01*
X566135Y545873D01*
X565470Y545006D01*
X565052Y543997D01*
X564975Y543413D01*
X568595D01*
Y547033D01*
D02*
G37*
G36*
X573214Y552413D02*
X569594D01*
Y548794D01*
X570178Y548871D01*
X571187Y549289D01*
X572054Y549954D01*
X572719Y550821D01*
X573137Y551830D01*
X573214Y552413D01*
D02*
G37*
G36*
X569594Y557033D02*
Y553413D01*
X573214D01*
X573137Y553997D01*
X572719Y555006D01*
X572054Y555873D01*
X571187Y556538D01*
X570178Y556956D01*
X569594Y557033D01*
D02*
G37*
G36*
X507291Y562486D02*
Y558866D01*
X510911D01*
X510834Y559449D01*
X510416Y560459D01*
X509751Y561326D01*
X508884Y561991D01*
X507875Y562409D01*
X507291Y562486D01*
D02*
G37*
G36*
X506291Y562486D02*
X505708Y562409D01*
X504699Y561991D01*
X503832Y561326D01*
X503167Y560459D01*
X502748Y559449D01*
X502672Y558866D01*
X506291D01*
Y562486D01*
D02*
G37*
G36*
X568595Y562413D02*
X564975D01*
X565052Y561830D01*
X565470Y560821D01*
X566135Y559954D01*
X567002Y559289D01*
X568011Y558871D01*
X568595Y558794D01*
Y562413D01*
D02*
G37*
G36*
X569594Y567033D02*
Y563413D01*
X573214D01*
X573137Y563997D01*
X572719Y565006D01*
X572054Y565873D01*
X571187Y566538D01*
X570178Y566956D01*
X569594Y567033D01*
D02*
G37*
G36*
X568595Y567033D02*
X568011Y566956D01*
X567002Y566538D01*
X566135Y565873D01*
X565470Y565006D01*
X565052Y563997D01*
X564975Y563413D01*
X568595D01*
Y567033D01*
D02*
G37*
G36*
X329921Y582539D02*
X329070Y582370D01*
X328349Y581887D01*
X327867Y581166D01*
X327697Y580315D01*
X327867Y579464D01*
X328008Y579252D01*
Y564666D01*
X327857Y564565D01*
X327375Y563843D01*
X327205Y562992D01*
X327375Y562141D01*
X327857Y561420D01*
X328578Y560938D01*
X329429Y560768D01*
X330280Y560938D01*
X331002Y561420D01*
X331484Y562141D01*
X331653Y562992D01*
X331484Y563843D01*
X331002Y564565D01*
X330850Y564666D01*
Y578312D01*
X331494Y578743D01*
X331976Y579464D01*
X332145Y580315D01*
X331976Y581166D01*
X331494Y581887D01*
X330772Y582370D01*
X329921Y582539D01*
D02*
G37*
G36*
X510911Y557866D02*
X507291D01*
Y554247D01*
X507875Y554323D01*
X508884Y554741D01*
X509751Y555407D01*
X510416Y556273D01*
X510834Y557283D01*
X510911Y557866D01*
D02*
G37*
G36*
X506291D02*
X502672D01*
X502748Y557283D01*
X503167Y556273D01*
X503832Y555407D01*
X504699Y554741D01*
X505708Y554323D01*
X506291Y554247D01*
Y557866D01*
D02*
G37*
G36*
X516791Y562552D02*
X515708Y562409D01*
X514699Y561991D01*
X513832Y561326D01*
X513167Y560459D01*
X512748Y559449D01*
X512606Y558366D01*
X512748Y557283D01*
X513167Y556273D01*
X513832Y555407D01*
X514699Y554741D01*
X515708Y554323D01*
X516791Y554181D01*
X517875Y554323D01*
X518884Y554741D01*
X519751Y555407D01*
X520416Y556273D01*
X520834Y557283D01*
X520977Y558366D01*
X520834Y559449D01*
X520416Y560459D01*
X519751Y561326D01*
X518884Y561991D01*
X517875Y562409D01*
X516791Y562552D01*
D02*
G37*
G36*
X573214Y562413D02*
X569594D01*
Y558794D01*
X570178Y558871D01*
X571187Y559289D01*
X572054Y559954D01*
X572719Y560821D01*
X573137Y561830D01*
X573214Y562413D01*
D02*
G37*
G36*
X559094Y567099D02*
X558011Y566956D01*
X557002Y566538D01*
X556135Y565873D01*
X555470Y565006D01*
X555052Y563997D01*
X554909Y562913D01*
X555052Y561830D01*
X555470Y560821D01*
X556135Y559954D01*
X557002Y559289D01*
X558011Y558871D01*
X559094Y558728D01*
X560178Y558871D01*
X561187Y559289D01*
X562054Y559954D01*
X562719Y560821D01*
X563137Y561830D01*
X563280Y562913D01*
X563137Y563997D01*
X562719Y565006D01*
X562054Y565873D01*
X561187Y566538D01*
X560178Y566956D01*
X559094Y567099D01*
D02*
G37*
G36*
X298268Y572440D02*
X297417Y572271D01*
X296695Y571789D01*
X296213Y571068D01*
X296044Y570217D01*
X296107Y569900D01*
Y558338D01*
X262350Y558338D01*
Y565135D01*
X262783Y565783D01*
X262952Y566634D01*
X262783Y567485D01*
X262301Y568206D01*
X261579Y568688D01*
X260728Y568858D01*
X259877Y568688D01*
X259156Y568206D01*
X258674Y567485D01*
X258505Y566634D01*
X258674Y565783D01*
X259107Y565135D01*
Y558338D01*
X249184Y558338D01*
X248794Y558261D01*
X248463Y558040D01*
X244140Y553717D01*
X244140Y553716D01*
X244140Y553716D01*
X244025Y553544D01*
X243919Y553386D01*
X243919Y553386D01*
X243919Y553385D01*
X243879Y553187D01*
X243841Y552996D01*
X243842Y552995D01*
X243841Y552995D01*
X243882Y499586D01*
X243921Y499392D01*
X243959Y499197D01*
X243960Y499196D01*
X243960Y499196D01*
X244072Y499028D01*
X244180Y498866D01*
X244181Y498865D01*
X244181Y498865D01*
X244181Y498865D01*
X247866Y495181D01*
X248197Y494959D01*
X248587Y494882D01*
X318736Y494882D01*
X319126Y494959D01*
X319457Y495181D01*
X323949Y499673D01*
X324170Y500003D01*
X324248Y500394D01*
X324248Y552067D01*
X324170Y552457D01*
X323949Y552788D01*
X318697Y558040D01*
X318367Y558261D01*
X317976Y558338D01*
X307330Y558338D01*
Y562773D01*
X307763Y563421D01*
X307932Y564272D01*
X307763Y565123D01*
X307281Y565844D01*
X306560Y566326D01*
X305709Y566496D01*
X304858Y566326D01*
X304136Y565844D01*
X303654Y565123D01*
X303485Y564272D01*
X303654Y563421D01*
X304087Y562773D01*
Y558338D01*
X300153D01*
Y569112D01*
X300322Y569366D01*
X300492Y570217D01*
X300322Y571068D01*
X299840Y571789D01*
X299119Y572271D01*
X298268Y572440D01*
D02*
G37*
G36*
X568595Y542413D02*
X564975D01*
X565052Y541830D01*
X565470Y540821D01*
X566135Y539954D01*
X567002Y539289D01*
X568011Y538871D01*
X568595Y538794D01*
Y542413D01*
D02*
G37*
G36*
X595571Y602322D02*
X594720Y602153D01*
X593998Y601671D01*
X593516Y600949D01*
X593347Y600098D01*
X593516Y599247D01*
X593998Y598526D01*
X594150Y598425D01*
Y525788D01*
X593998Y525687D01*
X593516Y524965D01*
X593347Y524114D01*
X593516Y523263D01*
X593998Y522542D01*
X594720Y522060D01*
X595571Y521890D01*
X596422Y522060D01*
X597143Y522542D01*
X597625Y523263D01*
X597795Y524114D01*
X597625Y524965D01*
X597143Y525687D01*
X596992Y525788D01*
Y598425D01*
X597143Y598526D01*
X597625Y599247D01*
X597795Y600098D01*
X597625Y600949D01*
X597143Y601671D01*
X596422Y602153D01*
X595571Y602322D01*
D02*
G37*
G36*
X225697Y525022D02*
Y510736D01*
X239983D01*
X239840Y512555D01*
X239297Y514817D01*
X238406Y516967D01*
X237191Y518950D01*
X235680Y520719D01*
X233911Y522230D01*
X231927Y523446D01*
X229778Y524336D01*
X227516Y524879D01*
X225697Y525022D01*
D02*
G37*
G36*
X224697D02*
X222878Y524879D01*
X220616Y524336D01*
X218466Y523446D01*
X216483Y522230D01*
X214714Y520719D01*
X213203Y518950D01*
X211987Y516967D01*
X211097Y514817D01*
X210554Y512555D01*
X210411Y510736D01*
X224697D01*
Y525022D01*
D02*
G37*
G36*
X558595Y532413D02*
X554975D01*
X555052Y531830D01*
X555470Y530821D01*
X556135Y529954D01*
X557002Y529289D01*
X558011Y528871D01*
X558595Y528794D01*
Y532413D01*
D02*
G37*
G36*
X573214D02*
X569594D01*
Y528794D01*
X570178Y528871D01*
X571187Y529289D01*
X572054Y529954D01*
X572719Y530821D01*
X573137Y531830D01*
X573214Y532413D01*
D02*
G37*
G36*
X563214D02*
X559594D01*
Y528794D01*
X560178Y528871D01*
X561187Y529289D01*
X562054Y529954D01*
X562719Y530821D01*
X563137Y531830D01*
X563214Y532413D01*
D02*
G37*
G36*
X224697Y509736D02*
X210411D01*
X210554Y507917D01*
X211097Y505655D01*
X211987Y503506D01*
X213203Y501522D01*
X214714Y499753D01*
X216483Y498242D01*
X218466Y497027D01*
X220616Y496137D01*
X222878Y495594D01*
X224697Y495450D01*
Y509736D01*
D02*
G37*
G36*
X598250Y508949D02*
X583965D01*
Y494663D01*
X585784Y494806D01*
X588046Y495349D01*
X590195Y496239D01*
X592179Y497455D01*
X593948Y498966D01*
X595458Y500735D01*
X596674Y502718D01*
X597564Y504868D01*
X598107Y507130D01*
X598250Y508949D01*
D02*
G37*
G36*
X582965D02*
X568679D01*
X568822Y507130D01*
X569365Y504868D01*
X570255Y502718D01*
X571471Y500735D01*
X572982Y498966D01*
X574751Y497455D01*
X576734Y496239D01*
X578883Y495349D01*
X581145Y494806D01*
X582965Y494663D01*
Y508949D01*
D02*
G37*
G36*
X583965Y524235D02*
Y509949D01*
X598250D01*
X598107Y511768D01*
X597564Y514030D01*
X596674Y516179D01*
X595458Y518163D01*
X593948Y519932D01*
X592179Y521443D01*
X590195Y522658D01*
X588046Y523548D01*
X585784Y524091D01*
X583965Y524235D01*
D02*
G37*
G36*
X582965D02*
X581145Y524091D01*
X578883Y523548D01*
X576734Y522658D01*
X574751Y521443D01*
X572982Y519932D01*
X571471Y518163D01*
X570255Y516179D01*
X569365Y514030D01*
X568822Y511768D01*
X568679Y509949D01*
X582965D01*
Y524235D01*
D02*
G37*
G36*
X239983Y509736D02*
X225697D01*
Y495450D01*
X227516Y495594D01*
X229778Y496137D01*
X231927Y497027D01*
X233911Y498242D01*
X235680Y499753D01*
X237191Y501522D01*
X238406Y503506D01*
X239297Y505655D01*
X239840Y507917D01*
X239983Y509736D01*
D02*
G37*
G36*
X215657Y540970D02*
Y537350D01*
X219277D01*
X219200Y537934D01*
X218782Y538943D01*
X218117Y539810D01*
X217250Y540475D01*
X216241Y540893D01*
X215657Y540970D01*
D02*
G37*
G36*
X214657Y540970D02*
X214074Y540893D01*
X213065Y540475D01*
X212198Y539810D01*
X211533Y538943D01*
X211115Y537934D01*
X211038Y537350D01*
X214657D01*
Y540970D01*
D02*
G37*
G36*
X569594Y537033D02*
Y533413D01*
X573214D01*
X573137Y533997D01*
X572719Y535006D01*
X572054Y535873D01*
X571187Y536538D01*
X570178Y536956D01*
X569594Y537033D01*
D02*
G37*
G36*
X558595Y542413D02*
X554975D01*
X555052Y541830D01*
X555470Y540821D01*
X556135Y539954D01*
X557002Y539289D01*
X558011Y538871D01*
X558595Y538794D01*
Y542413D01*
D02*
G37*
G36*
X573214D02*
X569594D01*
Y538794D01*
X570178Y538871D01*
X571187Y539289D01*
X572054Y539954D01*
X572719Y540821D01*
X573137Y541830D01*
X573214Y542413D01*
D02*
G37*
G36*
X563214D02*
X559594D01*
Y538794D01*
X560178Y538871D01*
X561187Y539289D01*
X562054Y539954D01*
X562719Y540821D01*
X563137Y541830D01*
X563214Y542413D01*
D02*
G37*
G36*
X214657Y536350D02*
X211038D01*
X211115Y535767D01*
X211533Y534758D01*
X212198Y533891D01*
X213065Y533226D01*
X214074Y532808D01*
X214657Y532731D01*
Y536350D01*
D02*
G37*
G36*
X219277D02*
X215657D01*
Y532731D01*
X216241Y532808D01*
X217250Y533226D01*
X218117Y533891D01*
X218782Y534758D01*
X219200Y535767D01*
X219277Y536350D01*
D02*
G37*
G36*
X568595Y532413D02*
X564975D01*
X565052Y531830D01*
X565470Y530821D01*
X566135Y529954D01*
X567002Y529289D01*
X568011Y528871D01*
X568595Y528794D01*
Y532413D01*
D02*
G37*
G36*
X559594Y537033D02*
Y533413D01*
X563214D01*
X563137Y533997D01*
X562719Y535006D01*
X562054Y535873D01*
X561187Y536538D01*
X560178Y536956D01*
X559594Y537033D01*
D02*
G37*
G36*
X568595Y537033D02*
X568011Y536956D01*
X567002Y536538D01*
X566135Y535873D01*
X565470Y535006D01*
X565052Y533997D01*
X564975Y533413D01*
X568595D01*
Y537033D01*
D02*
G37*
G36*
X558595D02*
X558011Y536956D01*
X557002Y536538D01*
X556135Y535873D01*
X555470Y535006D01*
X555052Y533997D01*
X554975Y533413D01*
X558595D01*
Y537033D01*
D02*
G37*
G36*
X559094Y587099D02*
X558011Y586956D01*
X557002Y586538D01*
X556135Y585873D01*
X555470Y585006D01*
X555052Y583997D01*
X554909Y582913D01*
X555052Y581830D01*
X555470Y580821D01*
X556135Y579954D01*
X556355Y579785D01*
X556185Y579285D01*
X555413D01*
X554828Y579169D01*
X554332Y578837D01*
X551626Y576132D01*
X550822Y575972D01*
X550101Y575490D01*
X549619Y574768D01*
X549449Y573917D01*
X549619Y573066D01*
X550101Y572345D01*
X550822Y571863D01*
X551673Y571694D01*
X552524Y571863D01*
X553246Y572345D01*
X553728Y573066D01*
X553897Y573917D01*
X553871Y574050D01*
X555001Y575180D01*
X555425Y574897D01*
X555052Y573997D01*
X554909Y572913D01*
X555052Y571830D01*
X555470Y570821D01*
X556135Y569954D01*
X557002Y569289D01*
X558011Y568871D01*
X559094Y568728D01*
X560178Y568871D01*
X561187Y569289D01*
X562054Y569954D01*
X562719Y570821D01*
X563137Y571830D01*
X563280Y572913D01*
X563137Y573997D01*
X562719Y575006D01*
X562166Y575727D01*
X562365Y576227D01*
X563619D01*
X565285Y574560D01*
X565052Y573997D01*
X564909Y572913D01*
X565052Y571830D01*
X565470Y570821D01*
X566135Y569954D01*
X567002Y569289D01*
X568011Y568871D01*
X569095Y568728D01*
X570178Y568871D01*
X571187Y569289D01*
X572054Y569954D01*
X572719Y570821D01*
X573137Y571830D01*
X573280Y572913D01*
X573137Y573997D01*
X572719Y575006D01*
X572054Y575873D01*
X571187Y576538D01*
X570178Y576956D01*
X569095Y577099D01*
X568011Y576956D01*
X567448Y576723D01*
X565333Y578837D01*
X564837Y579169D01*
X564252Y579285D01*
X562004D01*
X561834Y579785D01*
X562054Y579954D01*
X562719Y580821D01*
X563137Y581830D01*
X563280Y582913D01*
X563137Y583997D01*
X562719Y585006D01*
X562054Y585873D01*
X561187Y586538D01*
X560178Y586956D01*
X559094Y587099D01*
D02*
G37*
G36*
X507382Y810590D02*
X506531Y810421D01*
X505809Y809939D01*
X505327Y809217D01*
X505252Y808836D01*
X502935Y806519D01*
X502756Y806555D01*
X501905Y806385D01*
X501183Y805903D01*
X500701Y805182D01*
X500532Y804331D01*
X500701Y803480D01*
X501183Y802758D01*
X501905Y802276D01*
X502756Y802107D01*
X503607Y802276D01*
X504328Y802758D01*
X504810Y803480D01*
X504980Y804331D01*
X504944Y804509D01*
X506711Y806276D01*
X507382Y806142D01*
X508233Y806312D01*
X508954Y806794D01*
X509436Y807515D01*
X509606Y808366D01*
X509436Y809217D01*
X508954Y809939D01*
X508233Y810421D01*
X507382Y810590D01*
D02*
G37*
G36*
X477658Y834901D02*
X476806Y834732D01*
X476085Y834250D01*
X475603Y833528D01*
X475434Y832677D01*
X475603Y831826D01*
X475634Y831779D01*
Y762709D01*
X475603Y762662D01*
X475434Y761811D01*
X475603Y760960D01*
X476085Y760239D01*
X476806Y759757D01*
X477658Y759587D01*
X478509Y759757D01*
X479230Y760239D01*
X479712Y760960D01*
X479881Y761811D01*
X479712Y762662D01*
X479681Y762709D01*
Y831779D01*
X479712Y831826D01*
X479881Y832677D01*
X479712Y833528D01*
X479230Y834250D01*
X478509Y834732D01*
X477658Y834901D01*
D02*
G37*
G36*
X499606Y833818D02*
X498755Y833649D01*
X498708Y833618D01*
X488976D01*
X488202Y833464D01*
X487546Y833025D01*
X483117Y828596D01*
X482678Y827940D01*
X482524Y827165D01*
Y808969D01*
X482493Y808922D01*
X482323Y808071D01*
X482493Y807220D01*
X482975Y806498D01*
X483696Y806016D01*
X484547Y805847D01*
X485398Y806016D01*
X486120Y806498D01*
X486602Y807220D01*
X486771Y808071D01*
X486602Y808922D01*
X486570Y808969D01*
Y826327D01*
X489814Y829571D01*
X498708D01*
X498755Y829540D01*
X499606Y829371D01*
X500457Y829540D01*
X501179Y830022D01*
X501661Y830744D01*
X501830Y831594D01*
X501661Y832446D01*
X501179Y833167D01*
X500457Y833649D01*
X499606Y833818D01*
D02*
G37*
G36*
X537795Y825062D02*
X536404Y824879D01*
X535107Y824341D01*
X533993Y823487D01*
X533139Y822373D01*
X532602Y821077D01*
X532419Y819685D01*
X532602Y818293D01*
X533139Y816997D01*
X533993Y815883D01*
X535107Y815029D01*
X536404Y814491D01*
X537795Y814308D01*
X539187Y814491D01*
X540484Y815029D01*
X541597Y815883D01*
X542452Y816997D01*
X542989Y818293D01*
X543172Y819685D01*
X542989Y821077D01*
X542452Y822373D01*
X541597Y823487D01*
X540484Y824341D01*
X539187Y824879D01*
X537795Y825062D01*
D02*
G37*
G36*
X588189Y826624D02*
X586835Y826491D01*
X585534Y826096D01*
X584334Y825455D01*
X583282Y824592D01*
X582419Y823540D01*
X581778Y822340D01*
X581383Y821039D01*
X581250Y819685D01*
X581383Y818331D01*
X581778Y817030D01*
X582419Y815830D01*
X583282Y814779D01*
X584334Y813916D01*
X585534Y813274D01*
X586835Y812879D01*
X588189Y812746D01*
X589543Y812879D01*
X590844Y813274D01*
X592044Y813916D01*
X593095Y814779D01*
X593959Y815830D01*
X594600Y817030D01*
X594995Y818331D01*
X595128Y819685D01*
X594995Y821039D01*
X594600Y822340D01*
X593959Y823540D01*
X593095Y824592D01*
X592044Y825455D01*
X590844Y826096D01*
X589543Y826491D01*
X588189Y826624D01*
D02*
G37*
G36*
X586819Y730739D02*
Y726524D01*
X591034D01*
X590937Y727261D01*
X590459Y728414D01*
X589700Y729404D01*
X588709Y730164D01*
X587556Y730642D01*
X586819Y730739D01*
D02*
G37*
G36*
X455610Y719350D02*
X454759Y719180D01*
X454038Y718699D01*
X453556Y717977D01*
X453386Y717126D01*
X453556Y716275D01*
X454038Y715554D01*
X454759Y715071D01*
X455610Y714902D01*
X456461Y715071D01*
X457183Y715554D01*
X457665Y716275D01*
X457834Y717126D01*
X457665Y717977D01*
X457183Y718699D01*
X456461Y719180D01*
X455610Y719350D01*
D02*
G37*
G36*
X518898Y781161D02*
X518047Y780992D01*
X517325Y780510D01*
X516843Y779788D01*
X516674Y778937D01*
X516843Y778086D01*
X516875Y778039D01*
Y758268D01*
X517029Y757493D01*
X517467Y756837D01*
X525044Y749260D01*
Y748677D01*
X506705D01*
X506658Y748708D01*
X505807Y748877D01*
X504956Y748708D01*
X504235Y748226D01*
X503753Y747505D01*
X503583Y746654D01*
X503753Y745802D01*
X504235Y745081D01*
X504956Y744599D01*
X505807Y744430D01*
X506658Y744599D01*
X506705Y744630D01*
X526169D01*
X526216Y744599D01*
X527067Y744430D01*
X527918Y744599D01*
X528639Y745081D01*
X529121Y745802D01*
X529291Y746654D01*
X529121Y747505D01*
X529090Y747552D01*
Y750098D01*
X528936Y750873D01*
X528498Y751529D01*
X520921Y759106D01*
Y778039D01*
X520952Y778086D01*
X521122Y778937D01*
X520952Y779788D01*
X520470Y780510D01*
X519749Y780992D01*
X518898Y781161D01*
D02*
G37*
G36*
X582177Y882896D02*
X580358Y882753D01*
X578096Y882210D01*
X575947Y881320D01*
X573963Y880104D01*
X572194Y878593D01*
X570683Y876824D01*
X569468Y874841D01*
X568577Y872692D01*
X568035Y870429D01*
X567891Y868610D01*
X582177D01*
Y882896D01*
D02*
G37*
G36*
X372047Y877421D02*
X371196Y877251D01*
X370475Y876769D01*
X370446Y876726D01*
X366535D01*
X365950Y876610D01*
X365454Y876278D01*
X363486Y874310D01*
X363154Y873814D01*
X363037Y873228D01*
Y860656D01*
X362994Y860628D01*
X362512Y859906D01*
X362343Y859055D01*
X362512Y858204D01*
X362994Y857483D01*
X363716Y857001D01*
X364567Y856831D01*
X365418Y857001D01*
X366139Y857483D01*
X366621Y858204D01*
X366791Y859055D01*
X366621Y859906D01*
X366139Y860628D01*
X366096Y860656D01*
Y872595D01*
X367169Y873668D01*
X370446D01*
X370475Y873624D01*
X371196Y873142D01*
X372047Y872973D01*
X372898Y873142D01*
X373620Y873624D01*
X374102Y874346D01*
X374271Y875197D01*
X374102Y876048D01*
X373620Y876769D01*
X372898Y877251D01*
X372047Y877421D01*
D02*
G37*
G36*
X288583Y876633D02*
X287732Y876464D01*
X287010Y875982D01*
X286981Y875939D01*
X282677D01*
X282092Y875822D01*
X281596Y875491D01*
X280021Y873916D01*
X279689Y873420D01*
X279573Y872835D01*
Y859082D01*
X279530Y859053D01*
X279048Y858331D01*
X278878Y857480D01*
X279048Y856629D01*
X279530Y855908D01*
X280251Y855426D01*
X281102Y855256D01*
X281953Y855426D01*
X282675Y855908D01*
X283157Y856629D01*
X283326Y857480D01*
X283157Y858331D01*
X282675Y859053D01*
X282632Y859082D01*
Y872201D01*
X283311Y872880D01*
X286981D01*
X287010Y872837D01*
X287732Y872355D01*
X288583Y872186D01*
X289434Y872355D01*
X290155Y872837D01*
X290637Y873558D01*
X290807Y874409D01*
X290637Y875261D01*
X290155Y875982D01*
X289434Y876464D01*
X288583Y876633D01*
D02*
G37*
G36*
X583177Y882896D02*
Y868610D01*
X597463D01*
X597320Y870429D01*
X596777Y872692D01*
X595887Y874841D01*
X594671Y876824D01*
X593160Y878593D01*
X591391Y880104D01*
X589408Y881320D01*
X587258Y882210D01*
X584996Y882753D01*
X583177Y882896D01*
D02*
G37*
G36*
X283957Y838149D02*
X283106Y837980D01*
X283059Y837948D01*
X273831D01*
X273784Y837980D01*
X272933Y838149D01*
X272082Y837980D01*
X271361Y837498D01*
X270879Y836776D01*
X270709Y835925D01*
X270879Y835074D01*
X271361Y834353D01*
X272082Y833871D01*
X272933Y833701D01*
X273784Y833871D01*
X273831Y833902D01*
X283059D01*
X283106Y833871D01*
X283957Y833701D01*
X284808Y833871D01*
X285529Y834353D01*
X286011Y835074D01*
X286180Y835925D01*
X286011Y836776D01*
X285529Y837498D01*
X284808Y837980D01*
X283957Y838149D01*
D02*
G37*
G36*
X356142Y840255D02*
X355291Y840086D01*
X354569Y839604D01*
X354087Y838883D01*
X353918Y838031D01*
X354087Y837181D01*
X354569Y836459D01*
X354594Y836442D01*
X355656Y835380D01*
X356312Y834942D01*
X357087Y834788D01*
X366228D01*
X366275Y834756D01*
X367126Y834587D01*
X367977Y834756D01*
X368699Y835238D01*
X369180Y835960D01*
X369350Y836811D01*
X369180Y837662D01*
X368699Y838383D01*
X367977Y838866D01*
X367126Y839035D01*
X366275Y838866D01*
X366228Y838834D01*
X358206D01*
X358196Y838883D01*
X357714Y839604D01*
X356993Y840086D01*
X356142Y840255D01*
D02*
G37*
G36*
X597463Y867610D02*
X583177D01*
Y853324D01*
X584996Y853467D01*
X587258Y854011D01*
X589408Y854901D01*
X591391Y856116D01*
X593160Y857627D01*
X594671Y859396D01*
X595887Y861380D01*
X596777Y863529D01*
X597320Y865791D01*
X597463Y867610D01*
D02*
G37*
G36*
X582177D02*
X567891D01*
X568035Y865791D01*
X568577Y863529D01*
X569468Y861380D01*
X570683Y859396D01*
X572194Y857627D01*
X573963Y856116D01*
X575947Y854901D01*
X578096Y854011D01*
X580358Y853467D01*
X582177Y853324D01*
Y867610D01*
D02*
G37*
G36*
X537008Y713240D02*
X535925Y713098D01*
X534915Y712680D01*
X534048Y712015D01*
X533383Y711148D01*
X532965Y710138D01*
X532823Y709055D01*
X532965Y707972D01*
X533383Y706962D01*
X534048Y706096D01*
X534915Y705430D01*
X535925Y705012D01*
X537008Y704870D01*
X538091Y705012D01*
X539101Y705430D01*
X539967Y706096D01*
X540632Y706962D01*
X541051Y707972D01*
X541193Y709055D01*
X541051Y710138D01*
X540632Y711148D01*
X539967Y712015D01*
X539101Y712680D01*
X538091Y713098D01*
X537008Y713240D01*
D02*
G37*
G36*
X298150Y687381D02*
X297299Y687212D01*
X296577Y686730D01*
X296095Y686009D01*
X295926Y685157D01*
X296095Y684306D01*
X296127Y684259D01*
Y664008D01*
X296095Y663961D01*
X295926Y663110D01*
X296095Y662259D01*
X296127Y662212D01*
Y636980D01*
X295661Y636514D01*
X295606Y636503D01*
X294884Y636021D01*
X294402Y635300D01*
X294233Y634449D01*
X294402Y633598D01*
X294884Y632876D01*
X295606Y632394D01*
X296457Y632225D01*
X297308Y632394D01*
X298029Y632876D01*
X298511Y633598D01*
X298522Y633653D01*
X299580Y634711D01*
X300019Y635367D01*
X300173Y636142D01*
Y662212D01*
X300204Y662259D01*
X300374Y663110D01*
X300204Y663961D01*
X300173Y664008D01*
Y684259D01*
X300204Y684306D01*
X300374Y685157D01*
X300204Y686009D01*
X299722Y686730D01*
X299001Y687212D01*
X298150Y687381D01*
D02*
G37*
G36*
X294094Y630177D02*
X293244Y630007D01*
X292522Y629525D01*
X292040Y628804D01*
X291888Y628040D01*
X291373Y627525D01*
X291021Y626999D01*
X290898Y626378D01*
Y609176D01*
X290465Y608528D01*
X290296Y607677D01*
X290465Y606826D01*
X290947Y606105D01*
X291669Y605623D01*
X292520Y605453D01*
X293371Y605623D01*
X294092Y606105D01*
X294574Y606826D01*
X294743Y607677D01*
X294574Y608528D01*
X294141Y609176D01*
Y625706D01*
X294181Y625746D01*
X294946Y625898D01*
X295667Y626380D01*
X296149Y627102D01*
X296318Y627953D01*
X296149Y628804D01*
X295667Y629525D01*
X294946Y630007D01*
X294094Y630177D01*
D02*
G37*
G36*
X333673Y593017D02*
X333090Y592940D01*
X332081Y592522D01*
X331214Y591857D01*
X330549Y590990D01*
X330130Y589981D01*
X330054Y589398D01*
X333673D01*
Y593017D01*
D02*
G37*
G36*
X399311Y650059D02*
X398460Y649889D01*
X397739Y649407D01*
X397607Y649210D01*
X397291Y649148D01*
X396830Y648840D01*
X394468Y646477D01*
X394160Y646016D01*
X394051Y645472D01*
Y613876D01*
X388486Y608311D01*
X387402D01*
X387301Y608462D01*
X386579Y608944D01*
X385728Y609114D01*
X384877Y608944D01*
X384156Y608462D01*
X383674Y607741D01*
X383505Y606890D01*
X383674Y606039D01*
X384156Y605317D01*
X384877Y604835D01*
X385728Y604666D01*
X386579Y604835D01*
X387301Y605317D01*
X387402Y605469D01*
X389075D01*
X389619Y605577D01*
X390080Y605885D01*
X396477Y612283D01*
X396785Y612744D01*
X396893Y613287D01*
Y644884D01*
X398058Y646049D01*
X398460Y645780D01*
X399311Y645611D01*
X400162Y645780D01*
X400883Y646262D01*
X401366Y646984D01*
X401535Y647835D01*
X401366Y648686D01*
X400883Y649407D01*
X400162Y649889D01*
X399311Y650059D01*
D02*
G37*
G36*
X298031Y731751D02*
X297181Y731582D01*
X296459Y731100D01*
X295977Y730379D01*
X295808Y729528D01*
X295977Y728677D01*
X296008Y728629D01*
Y709796D01*
X295977Y709749D01*
X295808Y708898D01*
X295977Y708047D01*
X296008Y708000D01*
Y702019D01*
X291286Y697297D01*
X290847Y696640D01*
X290693Y695866D01*
Y645386D01*
X290662Y645339D01*
X290493Y644488D01*
X290662Y643637D01*
X291144Y642916D01*
X291865Y642434D01*
X292717Y642264D01*
X293568Y642434D01*
X294289Y642916D01*
X294771Y643637D01*
X294940Y644488D01*
X294771Y645339D01*
X294740Y645386D01*
Y695028D01*
X299462Y699751D01*
X299901Y700407D01*
X300055Y701181D01*
Y708000D01*
X300086Y708047D01*
X300255Y708898D01*
X300086Y709749D01*
X300055Y709796D01*
Y728629D01*
X300086Y728677D01*
X300255Y729528D01*
X300086Y730379D01*
X299604Y731100D01*
X298883Y731582D01*
X298031Y731751D01*
D02*
G37*
G36*
X532669Y638319D02*
X529050D01*
X529127Y637736D01*
X529545Y636726D01*
X530210Y635859D01*
X531077Y635194D01*
X532086Y634776D01*
X532669Y634699D01*
Y638319D01*
D02*
G37*
G36*
X333673Y588398D02*
X330054D01*
X330130Y587814D01*
X330549Y586805D01*
X331214Y585938D01*
X332081Y585273D01*
X333090Y584855D01*
X333673Y584778D01*
Y588398D01*
D02*
G37*
G36*
X401870Y639921D02*
X401019Y639751D01*
X400298Y639269D01*
X399816Y638548D01*
X399646Y637697D01*
X399816Y636846D01*
X400298Y636124D01*
X400449Y636023D01*
Y588384D01*
X396535Y584469D01*
X396227Y584008D01*
X396118Y583465D01*
Y581789D01*
X390629Y576300D01*
X390321Y575839D01*
X390213Y575295D01*
Y540850D01*
X389713Y540643D01*
X389292Y541064D01*
X388831Y541372D01*
X388287Y541480D01*
X385532D01*
X385431Y541632D01*
X384709Y542114D01*
X383858Y542283D01*
X383007Y542114D01*
X382286Y541632D01*
X381804Y540910D01*
X381634Y540059D01*
X381804Y539208D01*
X382286Y538487D01*
X383007Y538004D01*
X383858Y537835D01*
X384709Y538004D01*
X385431Y538487D01*
X385532Y538638D01*
X385997D01*
X386149Y538138D01*
X385632Y537793D01*
X385150Y537072D01*
X384981Y536221D01*
X385150Y535369D01*
X385632Y534648D01*
X386354Y534166D01*
X387205Y533997D01*
X387378Y533854D01*
Y508977D01*
X387227Y508876D01*
X386745Y508154D01*
X386576Y507303D01*
X386745Y506452D01*
X387227Y505731D01*
X387948Y505249D01*
X388799Y505079D01*
X389650Y505249D01*
X390372Y505731D01*
X390854Y506452D01*
X391023Y507303D01*
X390953Y507658D01*
X391378Y508083D01*
X391732Y508012D01*
X392583Y508182D01*
X393305Y508664D01*
X393787Y509385D01*
X393956Y510236D01*
X393839Y510826D01*
X394300Y511073D01*
X394974Y510399D01*
X394922Y510138D01*
X395091Y509287D01*
X395573Y508565D01*
X396295Y508083D01*
X397146Y507914D01*
X397997Y508083D01*
X398718Y508565D01*
X399200Y509287D01*
X399370Y510138D01*
X399200Y510989D01*
X398718Y511710D01*
X397997Y512192D01*
X397146Y512362D01*
X397049Y512342D01*
X396008Y513384D01*
Y537598D01*
X395899Y538142D01*
X395591Y538603D01*
X393055Y541140D01*
Y572611D01*
X393555Y572763D01*
X393900Y572246D01*
X394621Y571764D01*
X395472Y571595D01*
X395651Y571631D01*
X397393Y569889D01*
X397248Y569410D01*
X397082Y569377D01*
X396361Y568895D01*
X395879Y568174D01*
X395709Y567323D01*
X395879Y566472D01*
X396361Y565750D01*
X397082Y565268D01*
X397933Y565099D01*
X398784Y565268D01*
X399506Y565750D01*
X399607Y565902D01*
X414764D01*
Y561368D01*
X407972Y554577D01*
X407972D01*
X408016Y554472D01*
X397392Y543848D01*
Y521408D01*
X399754Y519045D01*
X468258D01*
X471408Y522195D01*
Y542274D01*
X464321Y549360D01*
X454478D01*
Y549754D01*
X452116Y552116D01*
X452116Y566683D01*
X441106Y577693D01*
X441110Y578396D01*
X441839Y579125D01*
X441890Y579115D01*
X442741Y579284D01*
X443462Y579766D01*
X443944Y580488D01*
X444114Y581339D01*
X443944Y582190D01*
X443462Y582911D01*
X442741Y583393D01*
X441890Y583562D01*
X441039Y583393D01*
X440317Y582911D01*
X439835Y582190D01*
X439666Y581339D01*
X439676Y581288D01*
X439052Y580663D01*
X438136D01*
X436762Y582037D01*
X432431D01*
X431057Y580663D01*
X405752D01*
X403641Y582774D01*
X403342Y582974D01*
X403147Y583265D01*
X402426Y583747D01*
X401575Y583917D01*
X400724Y583747D01*
X400243Y583426D01*
X400167Y583375D01*
X399850Y583762D01*
X399859Y583775D01*
X402875Y586791D01*
X403183Y587252D01*
X403291Y587795D01*
Y636023D01*
X403443Y636124D01*
X403925Y636846D01*
X404094Y637697D01*
X403925Y638548D01*
X403443Y639269D01*
X402721Y639751D01*
X401870Y639921D01*
D02*
G37*
G36*
X569095Y587099D02*
X568011Y586956D01*
X567002Y586538D01*
X566135Y585873D01*
X565470Y585006D01*
X565052Y583997D01*
X564909Y582913D01*
X565052Y581830D01*
X565470Y580821D01*
X566135Y579954D01*
X567002Y579289D01*
X568011Y578871D01*
X569095Y578728D01*
X570178Y578871D01*
X571187Y579289D01*
X572054Y579954D01*
X572719Y580821D01*
X573137Y581830D01*
X573280Y582913D01*
X573137Y583997D01*
X572719Y585006D01*
X572054Y585873D01*
X571187Y586538D01*
X570178Y586956D01*
X569095Y587099D01*
D02*
G37*
G36*
Y597099D02*
X568011Y596956D01*
X567002Y596538D01*
X566135Y595873D01*
X565470Y595006D01*
X565052Y593997D01*
X564909Y592913D01*
X565052Y591830D01*
X565470Y590821D01*
X566135Y589954D01*
X567002Y589289D01*
X568011Y588871D01*
X569095Y588728D01*
X570178Y588871D01*
X571187Y589289D01*
X572054Y589954D01*
X572719Y590821D01*
X573137Y591830D01*
X573280Y592913D01*
X573137Y593997D01*
X572719Y595006D01*
X572054Y595873D01*
X571187Y596538D01*
X570178Y596956D01*
X569095Y597099D01*
D02*
G37*
G36*
X559094D02*
X558011Y596956D01*
X557002Y596538D01*
X556135Y595873D01*
X555470Y595006D01*
X555052Y593997D01*
X554909Y592913D01*
X555052Y591830D01*
X555470Y590821D01*
X556135Y589954D01*
X557002Y589289D01*
X558011Y588871D01*
X559094Y588728D01*
X560178Y588871D01*
X561187Y589289D01*
X562054Y589954D01*
X562719Y590821D01*
X563137Y591830D01*
X563280Y592913D01*
X563137Y593997D01*
X562719Y595006D01*
X562054Y595873D01*
X561187Y596538D01*
X560178Y596956D01*
X559094Y597099D01*
D02*
G37*
G36*
X219028Y590721D02*
X214812D01*
X214909Y589983D01*
X215387Y588830D01*
X216147Y587840D01*
X217137Y587080D01*
X218290Y586602D01*
X219028Y586505D01*
Y590721D01*
D02*
G37*
G36*
X493701Y766200D02*
X492412Y766030D01*
X491211Y765533D01*
X490180Y764742D01*
X489983Y764545D01*
X489191Y763513D01*
X488694Y762312D01*
X488524Y761024D01*
X488524Y761024D01*
Y723327D01*
X488694Y722038D01*
X489191Y720837D01*
X489983Y719806D01*
X491014Y719014D01*
X491481Y718821D01*
Y710827D01*
X491635Y710052D01*
X492073Y709396D01*
X492859Y708611D01*
Y706607D01*
X492827Y706560D01*
X492658Y705709D01*
X492827Y704858D01*
X493309Y704136D01*
X494031Y703654D01*
X494882Y703485D01*
X495733Y703654D01*
X496454Y704136D01*
X496936Y704858D01*
X497106Y705709D01*
X496936Y706560D01*
X496905Y706607D01*
Y709449D01*
X496751Y710223D01*
X496312Y710879D01*
X495527Y711665D01*
Y718347D01*
X499807D01*
X509095Y709059D01*
Y685664D01*
X508946Y685614D01*
X508595Y685543D01*
X507608Y686301D01*
X506407Y686798D01*
X505118Y686968D01*
X503829Y686798D01*
X502628Y686301D01*
X501597Y685509D01*
X500806Y684478D01*
X500308Y683277D01*
X500139Y681988D01*
Y589862D01*
X500308Y588573D01*
X500806Y587372D01*
X501597Y586341D01*
X502628Y585550D01*
X503829Y585052D01*
X505118Y584883D01*
X506407Y585052D01*
X507608Y585550D01*
X508639Y586341D01*
X509431Y587372D01*
X509928Y588573D01*
X510098Y589862D01*
Y601245D01*
X510247Y601296D01*
X510598Y601366D01*
X511585Y600609D01*
X512786Y600111D01*
X514075Y599942D01*
X515364Y600111D01*
X516565Y600609D01*
X517596Y601400D01*
X518148Y602119D01*
X518648Y601950D01*
Y590381D01*
X518605Y590352D01*
X518123Y589631D01*
X517953Y588779D01*
X518123Y587928D01*
X518605Y587207D01*
X519326Y586725D01*
X520177Y586556D01*
X521028Y586725D01*
X521258Y586878D01*
X521699Y586643D01*
Y579653D01*
X521656Y579624D01*
X521174Y578902D01*
X521004Y578051D01*
X521174Y577200D01*
X521656Y576479D01*
X522377Y575997D01*
X523228Y575827D01*
X523965Y575974D01*
X524465Y575699D01*
Y548327D01*
X524484Y548228D01*
X524465Y548130D01*
Y541142D01*
X524313Y541041D01*
X523831Y540319D01*
X523662Y539468D01*
X523831Y538618D01*
X524313Y537896D01*
X524465Y537795D01*
Y527362D01*
X524573Y526818D01*
X524881Y526357D01*
X526847Y524391D01*
X526812Y524213D01*
X526981Y523362D01*
X527463Y522640D01*
X528184Y522158D01*
X529035Y521989D01*
X529886Y522158D01*
X530608Y522640D01*
X531090Y523362D01*
X531259Y524213D01*
X531090Y525064D01*
X530608Y525785D01*
X529886Y526267D01*
X529035Y526436D01*
X528857Y526401D01*
X527307Y527951D01*
Y537795D01*
X527458Y537896D01*
X527940Y538618D01*
X528110Y539468D01*
X527940Y540319D01*
X527458Y541041D01*
X527307Y541142D01*
Y548130D01*
X527287Y548228D01*
X527307Y548327D01*
Y641053D01*
X527807Y641328D01*
X528543Y641182D01*
X529226Y641317D01*
X529491Y640980D01*
X529536Y640890D01*
X529127Y639902D01*
X529050Y639319D01*
X533169D01*
Y638819D01*
X533669D01*
Y634699D01*
X534253Y634776D01*
X535262Y635194D01*
X535749Y635568D01*
X535885Y635580D01*
X536328Y635382D01*
X536356Y635238D01*
X535938Y634611D01*
X535768Y633760D01*
X535938Y632909D01*
X536420Y632187D01*
X537141Y631705D01*
X537992Y631536D01*
X538843Y631705D01*
X539565Y632187D01*
X540047Y632909D01*
X540216Y633760D01*
X540047Y634611D01*
X539565Y635332D01*
X539413Y635434D01*
Y636973D01*
X539913Y637240D01*
X540389Y636922D01*
X541240Y636753D01*
X542091Y636922D01*
X542813Y637404D01*
X543295Y638125D01*
X543464Y638976D01*
X543295Y639827D01*
X542813Y640549D01*
X542661Y640650D01*
Y671751D01*
X542813Y671853D01*
X543295Y672574D01*
X543464Y673425D01*
X543295Y674276D01*
X542813Y674998D01*
X542091Y675480D01*
X541240Y675649D01*
X540389Y675480D01*
X539913Y675162D01*
X539413Y675429D01*
Y678445D01*
X539305Y678989D01*
X539181Y679174D01*
X539232Y679429D01*
X539062Y680280D01*
X538580Y681002D01*
X537859Y681484D01*
X537008Y681653D01*
X536157Y681484D01*
X535435Y681002D01*
X534953Y680280D01*
X534784Y679429D01*
X534953Y678578D01*
X535435Y677857D01*
X536157Y677375D01*
X536571Y677292D01*
Y661936D01*
X536071Y661823D01*
X535262Y662444D01*
X534253Y662862D01*
X533169Y663004D01*
X532086Y662862D01*
X531629Y662673D01*
X531346Y663097D01*
X533879Y665629D01*
X534187Y666090D01*
X534295Y666634D01*
Y675463D01*
X534535Y675822D01*
X534704Y676673D01*
X534535Y677524D01*
X534053Y678246D01*
X533331Y678728D01*
X532480Y678897D01*
X531629Y678728D01*
X530908Y678246D01*
X530426Y677524D01*
X530257Y676673D01*
X530426Y675822D01*
X530908Y675101D01*
X531453Y674736D01*
Y667222D01*
X527807Y663576D01*
X527307Y663783D01*
Y664667D01*
X529154Y666515D01*
X529462Y666976D01*
X529571Y667520D01*
Y672244D01*
X529722Y672345D01*
X530204Y673066D01*
X530373Y673917D01*
X530204Y674768D01*
X529722Y675490D01*
X529001Y675972D01*
X528150Y676141D01*
X527299Y675972D01*
X526577Y675490D01*
X526095Y674768D01*
X525926Y673917D01*
X526095Y673066D01*
X526577Y672345D01*
X526729Y672244D01*
Y668108D01*
X525258Y666637D01*
X524758Y666845D01*
Y681820D01*
X525258Y681951D01*
X525921Y681508D01*
X526772Y681339D01*
X527623Y681508D01*
X528344Y681990D01*
X528826Y682712D01*
X528996Y683563D01*
X528826Y684414D01*
X528393Y685062D01*
Y698344D01*
X528926Y698876D01*
X529690Y699028D01*
X530411Y699510D01*
X530893Y700232D01*
X531062Y701083D01*
X530893Y701934D01*
X530411Y702655D01*
X529690Y703137D01*
X528839Y703306D01*
X527988Y703137D01*
X527266Y702655D01*
X526784Y701934D01*
X526632Y701170D01*
X525625Y700163D01*
X525273Y699636D01*
X525258Y699558D01*
X524758Y699607D01*
Y727913D01*
X524641Y728499D01*
X524310Y728995D01*
X519640Y733665D01*
Y735800D01*
X519683Y735829D01*
X520165Y736551D01*
X520334Y737402D01*
X520165Y738253D01*
X519683Y738974D01*
X518961Y739456D01*
X518110Y739625D01*
X517259Y739456D01*
X516538Y738974D01*
X516056Y738253D01*
X516003Y737987D01*
X515493D01*
X515440Y738253D01*
X514958Y738974D01*
X514237Y739456D01*
X513386Y739625D01*
X512535Y739456D01*
X511813Y738974D01*
X511331Y738253D01*
X511162Y737402D01*
X511331Y736551D01*
X511813Y735829D01*
X511856Y735800D01*
Y733858D01*
X511973Y733273D01*
X512304Y732777D01*
X518943Y726138D01*
Y713577D01*
X518443Y713477D01*
X518387Y713612D01*
X517596Y714643D01*
X505391Y726848D01*
X504360Y727639D01*
X503159Y728137D01*
X501870Y728306D01*
X501870Y728306D01*
X498484D01*
Y759866D01*
X498511Y759932D01*
X498680Y761221D01*
X498511Y762509D01*
X498013Y763710D01*
X497222Y764742D01*
X496191Y765533D01*
X494990Y766030D01*
X493701Y766200D01*
D02*
G37*
G36*
X464272Y719350D02*
X463421Y719180D01*
X462699Y718699D01*
X462217Y717977D01*
X462048Y717126D01*
X462217Y716275D01*
X462654Y715621D01*
Y684745D01*
X462502Y684643D01*
X462020Y683922D01*
X461851Y683071D01*
X462020Y682220D01*
X462502Y681498D01*
X463224Y681016D01*
X464075Y680847D01*
X464926Y681016D01*
X465647Y681498D01*
X466129Y682220D01*
X466299Y683071D01*
X466129Y683922D01*
X465647Y684643D01*
X465496Y684745D01*
Y715321D01*
X465844Y715554D01*
X466326Y716275D01*
X466496Y717126D01*
X466326Y717977D01*
X465844Y718699D01*
X465123Y719180D01*
X464272Y719350D01*
D02*
G37*
G36*
X495374Y676830D02*
X494523Y676661D01*
X493801Y676179D01*
X493320Y675457D01*
X493150Y674606D01*
X493196Y674375D01*
X492764Y673986D01*
X492224Y674057D01*
X491449Y673955D01*
X490727Y673656D01*
X490107Y673180D01*
X489631Y672560D01*
X489332Y671838D01*
X489230Y671063D01*
Y599803D01*
X489332Y599028D01*
X489631Y598306D01*
X490107Y597686D01*
X491140Y596654D01*
X491091Y596605D01*
X490616Y595985D01*
X490317Y595263D01*
X490214Y594488D01*
Y587226D01*
X489714Y586959D01*
X489276Y587251D01*
X488425Y587421D01*
X487574Y587251D01*
X487240Y587028D01*
X486897Y587170D01*
X486415Y587891D01*
X485694Y588373D01*
X484842Y588543D01*
X483991Y588373D01*
X483270Y587891D01*
X482788Y587170D01*
X482658Y586517D01*
X482283Y586082D01*
X481432Y585913D01*
X480711Y585431D01*
X480229Y584709D01*
X480060Y583858D01*
X480175Y583276D01*
X479828Y582776D01*
X478735D01*
X478075Y583216D01*
X477224Y583385D01*
X476373Y583216D01*
X475714Y582776D01*
X473577D01*
Y583858D01*
X473460Y584444D01*
X473129Y584940D01*
X473007Y585061D01*
X472921Y585497D01*
X472439Y586218D01*
X471717Y586700D01*
X470866Y586869D01*
X470015Y586700D01*
X469294Y586218D01*
X468812Y585497D01*
X468642Y584646D01*
X468812Y583795D01*
X469158Y583276D01*
X468907Y582776D01*
X466893D01*
X466435Y583462D01*
X465713Y583944D01*
X464862Y584114D01*
X464011Y583944D01*
X463290Y583462D01*
X463127Y583219D01*
X462627D01*
X462399Y583561D01*
X461678Y584043D01*
X460827Y584212D01*
X459976Y584043D01*
X459254Y583561D01*
X458772Y582839D01*
X458760Y582776D01*
X458166D01*
X457773Y583364D01*
X457052Y583846D01*
X456201Y584015D01*
X455350Y583846D01*
X454628Y583364D01*
X454146Y582642D01*
X453977Y581791D01*
X454146Y580940D01*
X454628Y580219D01*
X454780Y580118D01*
Y563583D01*
X454888Y563039D01*
X455196Y562578D01*
X459035Y558739D01*
X459496Y558431D01*
X460039Y558323D01*
X468211D01*
X469051Y557482D01*
Y552461D01*
X469160Y551917D01*
X469468Y551456D01*
X474094Y546830D01*
X474555Y546522D01*
X475098Y546414D01*
X476968D01*
X477069Y546262D01*
X477791Y545780D01*
X478642Y545611D01*
X479493Y545780D01*
X480214Y546262D01*
X480559Y546779D01*
X481059Y546627D01*
Y508660D01*
X480288Y507888D01*
X479591Y508354D01*
X478740Y508523D01*
X477889Y508354D01*
X477168Y507872D01*
X476686Y507150D01*
X476516Y506299D01*
X476686Y505448D01*
X477168Y504727D01*
X477770Y504324D01*
X477856Y503780D01*
X477772Y503724D01*
X477290Y503002D01*
X477121Y502151D01*
X477290Y501300D01*
X477772Y500579D01*
X478494Y500097D01*
X479345Y499928D01*
X480196Y500097D01*
X480917Y500579D01*
X481399Y501300D01*
X481568Y502151D01*
X481533Y502330D01*
X484523Y505320D01*
X484985Y505128D01*
Y499854D01*
X484047Y498916D01*
X483991Y498905D01*
X483270Y498423D01*
X482788Y497701D01*
X482619Y496850D01*
X482788Y495999D01*
X483270Y495278D01*
X483991Y494796D01*
X484842Y494627D01*
X485694Y494796D01*
X486415Y495278D01*
X486897Y495999D01*
X486908Y496055D01*
X488438Y497585D01*
X488877Y498242D01*
X489031Y499016D01*
Y534437D01*
X489062Y534484D01*
X489232Y535335D01*
X489062Y536186D01*
X489031Y536233D01*
Y549858D01*
X490354Y551181D01*
Y570955D01*
X490854Y571125D01*
X491091Y570816D01*
X491288Y570619D01*
X491908Y570143D01*
X492631Y569844D01*
X493405Y569742D01*
X494180Y569844D01*
X494903Y570143D01*
X495523Y570619D01*
X495998Y571239D01*
X496298Y571961D01*
X496400Y572736D01*
X496298Y573511D01*
X496203Y573740D01*
Y588583D01*
Y593248D01*
X497294Y594340D01*
X497770Y594960D01*
X497894Y595259D01*
D01*
X498069Y595682D01*
X498171Y596457D01*
Y596850D01*
X498069Y597625D01*
X497894Y598048D01*
X497770Y598348D01*
X497294Y598968D01*
X495219Y601043D01*
Y648916D01*
X495718Y649183D01*
X496098Y648930D01*
X496949Y648760D01*
X497800Y648930D01*
X498521Y649412D01*
X499003Y650133D01*
X499173Y650984D01*
X499003Y651835D01*
X498521Y652557D01*
X497800Y653039D01*
X497394Y653120D01*
X497189Y653325D01*
Y673396D01*
X497429Y673755D01*
X497598Y674606D01*
X497429Y675457D01*
X496946Y676179D01*
X496225Y676661D01*
X495374Y676830D01*
D02*
G37*
G36*
X438681Y712952D02*
X437830Y712783D01*
X437109Y712301D01*
X436627Y711579D01*
X436457Y710728D01*
X436627Y709877D01*
X437109Y709156D01*
X437152Y709127D01*
Y698090D01*
X436652Y698041D01*
X436602Y698292D01*
X436120Y699013D01*
X435398Y699496D01*
X434547Y699665D01*
X433696Y699496D01*
X432975Y699013D01*
X432493Y698292D01*
X432323Y697441D01*
X432493Y696590D01*
X432975Y695868D01*
X433018Y695840D01*
Y667287D01*
X432690Y666796D01*
X432520Y665945D01*
X432690Y665094D01*
X433172Y664372D01*
X433893Y663890D01*
X434744Y663721D01*
X435595Y663890D01*
X436317Y664372D01*
X436397Y664493D01*
X436897D01*
X437109Y664176D01*
X437830Y663694D01*
X438681Y663524D01*
X439532Y663694D01*
X439860Y663913D01*
X440360Y663646D01*
Y656719D01*
X440317Y656691D01*
X439835Y655969D01*
X439666Y655118D01*
X439835Y654267D01*
X440317Y653546D01*
X441039Y653064D01*
X441890Y652894D01*
X442741Y653064D01*
X443462Y653546D01*
X443944Y654267D01*
X444114Y655118D01*
X443944Y655969D01*
X443462Y656691D01*
X443419Y656719D01*
Y667890D01*
X443787Y668440D01*
X443956Y669291D01*
X443787Y670142D01*
X443305Y670864D01*
X442583Y671346D01*
X441732Y671515D01*
X440881Y671346D01*
X440652Y671192D01*
X440210Y671428D01*
Y709127D01*
X440254Y709156D01*
X440736Y709877D01*
X440905Y710728D01*
X440736Y711579D01*
X440254Y712301D01*
X439532Y712783D01*
X438681Y712952D01*
D02*
G37*
G36*
X454035Y834015D02*
X453184Y833846D01*
X452463Y833364D01*
X451981Y832642D01*
X451970Y832587D01*
X446798Y827415D01*
X446359Y826758D01*
X446205Y825984D01*
Y691745D01*
X446174Y691698D01*
X446004Y690846D01*
X446174Y689995D01*
X446656Y689274D01*
X447377Y688792D01*
X448228Y688623D01*
X449079Y688792D01*
X449801Y689274D01*
X450283Y689995D01*
X450452Y690846D01*
X450283Y691698D01*
X450251Y691745D01*
Y825146D01*
X454831Y829726D01*
X454886Y829737D01*
X455608Y830219D01*
X456090Y830940D01*
X456259Y831791D01*
X456090Y832642D01*
X455608Y833364D01*
X454886Y833846D01*
X454035Y834015D01*
D02*
G37*
G36*
X480413Y748680D02*
X479562Y748511D01*
X478841Y748029D01*
X478468Y747470D01*
X477113Y746116D01*
X476674Y745459D01*
X476520Y744685D01*
Y726794D01*
X476418Y726279D01*
X476520Y725765D01*
Y691548D01*
X476489Y691501D01*
X476320Y690650D01*
X476489Y689799D01*
X476971Y689077D01*
X477692Y688595D01*
X478543Y688426D01*
X479394Y688595D01*
X480116Y689077D01*
X480598Y689799D01*
X480767Y690650D01*
X480598Y691501D01*
X480566Y691548D01*
Y725234D01*
X480696Y725428D01*
X480866Y726279D01*
X480696Y727131D01*
X480566Y727325D01*
Y743847D01*
X481086Y744367D01*
X481264Y744402D01*
X481986Y744884D01*
X482468Y745606D01*
X482637Y746457D01*
X482468Y747308D01*
X481986Y748029D01*
X481264Y748511D01*
X480413Y748680D01*
D02*
G37*
G36*
X472539Y719350D02*
X471688Y719180D01*
X470967Y718699D01*
X470485Y717977D01*
X470316Y717126D01*
X470351Y716947D01*
X470255Y716851D01*
X469947Y716390D01*
X469839Y715846D01*
Y666536D01*
X469687Y666435D01*
X469205Y665713D01*
X469036Y664862D01*
X469205Y664011D01*
X469687Y663290D01*
X470409Y662808D01*
X470519Y662786D01*
X470753Y662229D01*
X470611Y661516D01*
X470780Y660665D01*
X471262Y659943D01*
X471414Y659842D01*
Y659152D01*
X468222Y655960D01*
X467760Y656151D01*
Y664370D01*
X467651Y664914D01*
X467343Y665375D01*
X466775Y665943D01*
Y666830D01*
X466927Y666931D01*
X467409Y667653D01*
X467578Y668504D01*
X467409Y669355D01*
X466927Y670076D01*
X466205Y670559D01*
X465354Y670728D01*
X464503Y670559D01*
X463782Y670076D01*
X463300Y669355D01*
X463131Y668504D01*
X463300Y667653D01*
X463782Y666931D01*
X463933Y666830D01*
Y665354D01*
X464042Y664811D01*
X464350Y664350D01*
X464918Y663781D01*
Y655514D01*
X464418Y655247D01*
X464040Y655499D01*
X463189Y655669D01*
X462338Y655499D01*
X461617Y655017D01*
X461134Y654296D01*
X460965Y653445D01*
X461128Y652629D01*
X461011Y652466D01*
X460779Y652226D01*
X460099Y652362D01*
X459247Y652192D01*
X458526Y651710D01*
X458044Y650989D01*
X457875Y650138D01*
X458044Y649287D01*
X458526Y648565D01*
X459247Y648083D01*
X459799Y647973D01*
Y620175D01*
X458936Y619312D01*
X458628Y618851D01*
X458520Y618307D01*
Y610433D01*
X458628Y609889D01*
X458936Y609428D01*
X460509Y607856D01*
X460473Y607677D01*
X460642Y606826D01*
X461124Y606105D01*
X461846Y605623D01*
X462697Y605453D01*
X463548Y605623D01*
X464269Y606105D01*
X464418Y606326D01*
X464918Y606175D01*
Y601772D01*
X465026Y601228D01*
X465334Y600767D01*
X467105Y598995D01*
X467566Y598687D01*
X468110Y598579D01*
X475789D01*
X478917Y595452D01*
X479378Y595144D01*
X479921Y595036D01*
X482972D01*
X483073Y594884D01*
X483795Y594402D01*
X484646Y594233D01*
X485497Y594402D01*
X486218Y594884D01*
X486700Y595606D01*
X486869Y596457D01*
X486700Y597308D01*
X486218Y598029D01*
X485497Y598511D01*
X484646Y598680D01*
X483795Y598511D01*
X483073Y598029D01*
X482972Y597878D01*
X480510D01*
X477383Y601005D01*
X476922Y601313D01*
X476378Y601421D01*
X468699D01*
X467760Y602360D01*
Y609807D01*
X468260Y610075D01*
X468736Y609757D01*
X469587Y609587D01*
X470438Y609757D01*
X471159Y610239D01*
X471641Y610960D01*
X471810Y611811D01*
X471775Y611990D01*
X475021Y615235D01*
X475329Y615696D01*
X475437Y616240D01*
Y623228D01*
X475329Y623772D01*
X475021Y624233D01*
X471205Y628049D01*
Y650593D01*
X474309Y653697D01*
X477362D01*
X477463Y653546D01*
X478184Y653064D01*
X479035Y652894D01*
X479886Y653064D01*
X480608Y653546D01*
X481090Y654267D01*
X481259Y655118D01*
X481090Y655969D01*
X480608Y656691D01*
X479886Y657173D01*
X479035Y657342D01*
X478184Y657173D01*
X477463Y656691D01*
X477362Y656539D01*
X473721D01*
X473480Y656491D01*
X473233Y656952D01*
X473840Y657558D01*
X474148Y658019D01*
X474256Y658563D01*
Y659842D01*
X474407Y659943D01*
X474889Y660665D01*
X475059Y661516D01*
X474889Y662367D01*
X474407Y663088D01*
X473686Y663570D01*
X473576Y663592D01*
X473342Y664149D01*
X473484Y664862D01*
X473314Y665713D01*
X472832Y666435D01*
X472681Y666536D01*
Y714930D01*
X473390Y715071D01*
X474112Y715554D01*
X474594Y716275D01*
X474763Y717126D01*
X474594Y717977D01*
X474112Y718699D01*
X473390Y719180D01*
X472539Y719350D01*
D02*
G37*
G36*
X422047Y704787D02*
X421119Y704602D01*
X420333Y704077D01*
X419807Y703290D01*
X419623Y702362D01*
Y672835D01*
X419807Y671907D01*
X420333Y671120D01*
X421119Y670595D01*
X422047Y670410D01*
X422975Y670595D01*
X423762Y671120D01*
X424287Y671907D01*
X424472Y672835D01*
Y702362D01*
X424287Y703290D01*
X423762Y704077D01*
X422975Y704602D01*
X422047Y704787D01*
D02*
G37*
G36*
X414331Y671909D02*
X413480Y671740D01*
X412758Y671257D01*
X412276Y670536D01*
X412107Y669685D01*
X412276Y668834D01*
X412758Y668113D01*
X412801Y668084D01*
Y656680D01*
X412758Y656651D01*
X412276Y655930D01*
X412107Y655079D01*
X412276Y654228D01*
X412758Y653506D01*
X413480Y653024D01*
X414331Y652855D01*
X415182Y653024D01*
X415903Y653506D01*
X416385Y654228D01*
X416555Y655079D01*
X416385Y655930D01*
X415903Y656651D01*
X415860Y656680D01*
Y668084D01*
X415903Y668113D01*
X416385Y668834D01*
X416555Y669685D01*
X416385Y670536D01*
X415903Y671257D01*
X415182Y671740D01*
X414331Y671909D01*
D02*
G37*
G36*
X450492Y668169D02*
X449641Y667999D01*
X448920Y667517D01*
X448438Y666796D01*
X448268Y665945D01*
X448438Y665094D01*
X448920Y664372D01*
X449071Y664271D01*
Y656792D01*
X448920Y656691D01*
X448438Y655969D01*
X448268Y655118D01*
X448438Y654267D01*
X448920Y653546D01*
X449641Y653064D01*
X450492Y652894D01*
X451343Y653064D01*
X452065Y653546D01*
X452547Y654267D01*
X452716Y655118D01*
X452547Y655969D01*
X452065Y656691D01*
X451913Y656792D01*
Y664271D01*
X452065Y664372D01*
X452547Y665094D01*
X452716Y665945D01*
X452547Y666796D01*
X452065Y667517D01*
X451343Y667999D01*
X450492Y668169D01*
D02*
G37*
G36*
X298425Y780177D02*
X297574Y780007D01*
X296853Y779525D01*
X296371Y778804D01*
X296201Y777953D01*
X296371Y777102D01*
X296402Y777055D01*
Y757827D01*
X296371Y757780D01*
X296201Y756929D01*
X296371Y756078D01*
X296402Y756031D01*
Y754184D01*
X278491Y736273D01*
X278052Y735617D01*
X277898Y734842D01*
Y674372D01*
X277768Y674178D01*
X277599Y673327D01*
X277768Y672476D01*
X278250Y671754D01*
X278972Y671272D01*
X279823Y671103D01*
X280674Y671272D01*
X281395Y671754D01*
X281877Y672476D01*
X282047Y673327D01*
X281944Y673841D01*
Y734004D01*
X299856Y751916D01*
X300294Y752572D01*
X300448Y753346D01*
Y756031D01*
X300480Y756078D01*
X300649Y756929D01*
X300480Y757780D01*
X300448Y757827D01*
Y777055D01*
X300480Y777102D01*
X300649Y777953D01*
X300480Y778804D01*
X299998Y779525D01*
X299276Y780007D01*
X298425Y780177D01*
D02*
G37*
%LPD*%
G36*
X323228Y552067D02*
X323228Y500394D01*
X318736Y495901D01*
X248587Y495901D01*
X244901Y499587D01*
X244861Y552996D01*
X249184Y557319D01*
X259107Y557319D01*
Y526968D01*
X259230Y526348D01*
X259582Y525822D01*
X260490Y524913D01*
X260642Y524149D01*
X261124Y523427D01*
X261846Y522945D01*
X262697Y522776D01*
X263548Y522945D01*
X264269Y523427D01*
X264751Y524149D01*
X264921Y525000D01*
X264751Y525851D01*
X264269Y526573D01*
X263548Y527055D01*
X262784Y527207D01*
X262350Y527640D01*
Y557319D01*
X296107Y557319D01*
Y553359D01*
X296075Y553312D01*
X295906Y552461D01*
X296075Y551610D01*
X296557Y550888D01*
X297279Y550406D01*
X298130Y550237D01*
X298981Y550406D01*
X299702Y550888D01*
X300184Y551610D01*
X300354Y552461D01*
X300184Y553312D01*
X300153Y553359D01*
Y557319D01*
X304087D01*
Y532503D01*
X303654Y531855D01*
X303485Y531004D01*
X303654Y530153D01*
X304136Y529431D01*
X304858Y528949D01*
X305709Y528780D01*
X306560Y528949D01*
X307281Y529431D01*
X307763Y530153D01*
X307932Y531004D01*
X307763Y531855D01*
X307330Y532503D01*
Y557319D01*
X317976Y557319D01*
X323228Y552067D01*
D02*
G37*
%LPC*%
G36*
X275098Y545629D02*
X274247Y545460D01*
X273526Y544978D01*
X273044Y544256D01*
X272875Y543405D01*
X273044Y542555D01*
X273470Y541917D01*
X268092Y536539D01*
X267913Y536574D01*
X267062Y536405D01*
X266341Y535923D01*
X265859Y535201D01*
X265690Y534350D01*
X265859Y533499D01*
X266341Y532778D01*
X267062Y532296D01*
X267913Y532127D01*
X268764Y532296D01*
X269486Y532778D01*
X269850Y533323D01*
X269855Y533325D01*
X270400Y533325D01*
X270406Y533323D01*
X270770Y532778D01*
X271492Y532296D01*
X272342Y532127D01*
X273194Y532296D01*
X273915Y532778D01*
X274397Y533499D01*
X274400Y533516D01*
X287911D01*
X290406Y531021D01*
Y524629D01*
X289973Y523981D01*
X289804Y523130D01*
X289973Y522279D01*
X290455Y521557D01*
X291177Y521075D01*
X292028Y520906D01*
X292879Y521075D01*
X293600Y521557D01*
X294082Y522279D01*
X294251Y523130D01*
X294082Y523981D01*
X293649Y524629D01*
Y531693D01*
X293526Y532313D01*
X293174Y532840D01*
X289729Y536284D01*
X289203Y536636D01*
X288583Y536760D01*
X273130D01*
X273017Y536737D01*
X272770Y537198D01*
X276103Y540531D01*
X276411Y540992D01*
X276519Y541535D01*
Y541732D01*
X276671Y541833D01*
X277153Y542555D01*
X277322Y543405D01*
X277153Y544256D01*
X276671Y544978D01*
X275949Y545460D01*
X275098Y545629D01*
D02*
G37*
G36*
X315591Y551200D02*
X314739Y551031D01*
X314018Y550549D01*
X313536Y549827D01*
X313367Y548976D01*
X313536Y548125D01*
X313823Y547695D01*
Y523142D01*
X313792Y523095D01*
X313623Y522244D01*
X313792Y521393D01*
X314274Y520672D01*
X314995Y520190D01*
X315846Y520020D01*
X316698Y520190D01*
X317419Y520672D01*
X317901Y521393D01*
X318070Y522244D01*
X317901Y523095D01*
X317870Y523142D01*
Y548721D01*
X317716Y549495D01*
X317709Y549504D01*
X317645Y549827D01*
X317163Y550549D01*
X316442Y551031D01*
X315591Y551200D01*
D02*
G37*
%LPD*%
G36*
X399453Y581182D02*
X399520Y580842D01*
X400002Y580120D01*
X400724Y579638D01*
X401575Y579469D01*
X402426Y579638D01*
X402441Y579648D01*
X404037Y578052D01*
X404533Y577721D01*
X405118Y577604D01*
X427345D01*
X427536Y577142D01*
X423770Y573376D01*
X414764D01*
Y571500D01*
X399801D01*
X397661Y573640D01*
X397696Y573819D01*
X397527Y574670D01*
X397045Y575391D01*
X396323Y575873D01*
X395472Y576043D01*
X395005Y575950D01*
X394759Y576411D01*
X398544Y580196D01*
X398852Y580657D01*
X398960Y581201D01*
X399453Y581182D01*
D02*
G37*
%LPC*%
G36*
X215657Y753234D02*
Y749614D01*
X219277D01*
X219200Y750197D01*
X218782Y751207D01*
X218117Y752074D01*
X217250Y752739D01*
X216241Y753157D01*
X215657Y753234D01*
D02*
G37*
G36*
X219277Y748614D02*
X215657D01*
Y744995D01*
X216241Y745071D01*
X217250Y745490D01*
X218117Y746155D01*
X218782Y747021D01*
X219200Y748031D01*
X219277Y748614D01*
D02*
G37*
G36*
X214657Y753234D02*
X214074Y753157D01*
X213065Y752739D01*
X212198Y752074D01*
X211533Y751207D01*
X211115Y750197D01*
X211038Y749614D01*
X214657D01*
Y753234D01*
D02*
G37*
G36*
Y748614D02*
X211038D01*
X211115Y748031D01*
X211533Y747021D01*
X212198Y746155D01*
X213065Y745490D01*
X214074Y745071D01*
X214657Y744995D01*
Y748614D01*
D02*
G37*
G36*
X224909Y882502D02*
Y868217D01*
X239195D01*
X239052Y870036D01*
X238509Y872298D01*
X237619Y874447D01*
X236403Y876431D01*
X234893Y878200D01*
X233123Y879710D01*
X231140Y880926D01*
X228991Y881816D01*
X226729Y882359D01*
X224909Y882502D01*
D02*
G37*
G36*
X223909D02*
X222090Y882359D01*
X219828Y881816D01*
X217679Y880926D01*
X215695Y879710D01*
X213926Y878200D01*
X212416Y876431D01*
X211200Y874447D01*
X210310Y872298D01*
X209767Y870036D01*
X209624Y868217D01*
X223909D01*
Y882502D01*
D02*
G37*
G36*
Y867216D02*
X209624D01*
X209767Y865397D01*
X210310Y863135D01*
X211200Y860986D01*
X212416Y859002D01*
X213926Y857234D01*
X215695Y855723D01*
X217679Y854507D01*
X219828Y853617D01*
X222090Y853074D01*
X223909Y852931D01*
Y867216D01*
D02*
G37*
G36*
X239195D02*
X224909D01*
Y852931D01*
X226729Y853074D01*
X228991Y853617D01*
X231140Y854507D01*
X233123Y855723D01*
X234893Y857234D01*
X236403Y859002D01*
X237619Y860986D01*
X238509Y863135D01*
X239052Y865397D01*
X239195Y867216D01*
D02*
G37*
%LPD*%
D10*
X329429Y563583D02*
X330020Y562992D01*
X329429Y563583D02*
Y579823D01*
X329921Y580315D01*
X336713Y548917D02*
Y550295D01*
X506870Y808366D02*
X507382D01*
X506831Y808405D02*
X506870Y808366D01*
X361614Y530905D02*
Y643307D01*
X573524Y633228D02*
X576319Y636024D01*
X573524Y613386D02*
Y633228D01*
X588287Y622441D02*
Y634055D01*
X586319Y636024D02*
X588287Y634055D01*
X525886Y539468D02*
Y548130D01*
Y527362D02*
Y539468D01*
X472441Y558858D02*
X477756Y553543D01*
X471949Y564272D02*
X478937Y557283D01*
X477224Y573071D02*
X478543Y571752D01*
X477224Y573071D02*
Y581161D01*
X463189Y615650D02*
Y653445D01*
X351378Y612205D02*
Y662106D01*
X484350Y577658D02*
X485433Y578740D01*
Y585728D01*
X484842Y586319D02*
X485433Y585728D01*
X482480Y508071D02*
Y583661D01*
X482283Y583858D02*
X482480Y583661D01*
X463386Y564272D02*
X471949D01*
X472441Y558858D02*
Y559744D01*
X478937Y557283D02*
Y557579D01*
X477756Y553543D02*
Y554232D01*
X327953Y617717D02*
Y620965D01*
Y617717D02*
X329921Y615748D01*
Y612697D02*
Y615748D01*
X328366Y611142D02*
X329921Y612697D01*
X328366Y598898D02*
Y611142D01*
X325197Y613189D02*
X326279Y614272D01*
X325197Y556595D02*
Y613189D01*
X328366Y598898D02*
X334173D01*
X323130Y621457D02*
X325492Y623819D01*
X323130Y560236D02*
Y621457D01*
X322539Y559646D02*
X323130Y560236D01*
X385728Y606890D02*
X389075D01*
X395472Y613287D01*
X382776Y613878D02*
X386221Y617323D01*
Y633661D01*
X395472Y613287D02*
Y645472D01*
X397835Y647835D01*
X399311D01*
X348327Y620079D02*
Y658858D01*
X332382Y544587D02*
X336713Y548917D01*
X332382Y496358D02*
Y544587D01*
X339370Y569291D02*
Y771260D01*
Y569291D02*
X341339Y567323D01*
X344291D01*
X329429Y562992D02*
X330020D01*
X332382Y496358D02*
X334646Y494095D01*
X253642Y648524D02*
X254134D01*
X229528Y601221D02*
X235472D01*
X240059Y605807D01*
X229528Y611221D02*
X237697Y619390D01*
Y645177D01*
X246555Y654035D01*
X382874Y493012D02*
X386614Y496752D01*
X341732Y493012D02*
X382874D01*
X340650Y494095D02*
X341732Y493012D01*
X340650Y494095D02*
Y532677D01*
X348721Y540748D01*
Y605118D01*
X475098Y547835D02*
X478642D01*
X470472Y552461D02*
X475098Y547835D01*
X470472Y552461D02*
Y558071D01*
X468799Y559744D02*
X470472Y558071D01*
X460039Y559744D02*
X468799D01*
X470768Y561417D02*
X472441Y559744D01*
X462500Y561417D02*
X470768D01*
X459744Y564173D02*
X462500Y561417D01*
X459744Y564173D02*
Y572146D01*
X456201Y563583D02*
X460039Y559744D01*
X456201Y563583D02*
Y581791D01*
X459744Y572146D02*
X460827Y573228D01*
Y581988D01*
X462303Y565354D02*
X463386Y564272D01*
X462303Y565354D02*
Y571063D01*
X464862Y573622D01*
Y581890D01*
X465354Y665354D02*
Y668504D01*
X468110Y600000D02*
X476378D01*
X479921Y596457D01*
X484646D01*
X334646Y494095D02*
X335433D01*
X342520Y573228D02*
Y669685D01*
X391732Y510236D02*
Y536614D01*
X478740Y506299D02*
X480709D01*
X502756Y804331D02*
X506831Y808405D01*
X333858Y629213D02*
Y653150D01*
X335827Y655118D01*
X365650Y511417D02*
X371752D01*
X363878Y513189D02*
X365650Y511417D01*
X363878Y513189D02*
Y528642D01*
X361614Y530905D02*
X363878Y528642D01*
X367520Y513681D02*
X374508D01*
X366634Y514567D02*
X367520Y513681D01*
X366634Y514567D02*
Y529921D01*
X364469Y532087D02*
X366634Y529921D01*
X364469Y532087D02*
Y658957D01*
X354035Y540846D02*
Y651083D01*
X347638Y534449D02*
X354035Y540846D01*
X347638Y507579D02*
Y534449D01*
X358957Y537303D02*
Y646063D01*
X353150Y531496D02*
X358957Y537303D01*
X353150Y512205D02*
Y531496D01*
X347638Y507579D02*
X347638Y507579D01*
X350541Y533218D02*
X356693Y539370D01*
X350541Y509498D02*
Y533218D01*
X354035Y651083D02*
X354626Y651673D01*
X358957Y646063D02*
X359744Y646850D01*
X356693Y648622D02*
X357283Y649213D01*
X356693Y539370D02*
Y648622D01*
X374508Y513681D02*
X379961Y508228D01*
X371752Y511417D02*
X374961Y508209D01*
X550098Y698996D02*
X550157Y699055D01*
X542224Y698898D02*
X542382Y699055D01*
X388287Y540059D02*
X391732Y536614D01*
X383858Y540059D02*
X388287D01*
X387205Y536221D02*
X388799Y534626D01*
Y507303D02*
Y534626D01*
X267913Y534350D02*
X275098Y541535D01*
Y543405D01*
X210138Y548721D02*
Y606890D01*
X214469Y611221D01*
X219528D01*
X212500Y559508D02*
Y594193D01*
X219528Y601221D01*
X401870Y587795D02*
Y637697D01*
X397539Y583465D02*
X401870Y587795D01*
X397539Y581201D02*
Y583465D01*
X391634Y575295D02*
X397539Y581201D01*
X395472Y573819D02*
X399213Y570079D01*
X421654D01*
X397933Y567323D02*
X424016D01*
X391634Y540551D02*
Y575295D01*
Y540551D02*
X394587Y537598D01*
Y512795D02*
Y537598D01*
Y512795D02*
X397146Y510236D01*
X210138Y548721D02*
X212008Y546850D01*
X215158D01*
X212500Y559508D02*
X215158Y556850D01*
X397539Y659154D02*
X401279Y662894D01*
X393799Y657677D02*
X395669Y655807D01*
X401181D01*
X404429Y659055D01*
Y671457D01*
X408957Y675984D01*
Y686909D01*
X413189Y691142D01*
X401279Y662894D02*
Y683957D01*
X464075Y683071D02*
Y716929D01*
X464272Y717126D01*
X525886Y548327D02*
Y665256D01*
Y527362D02*
X529035Y524213D01*
X450492Y655118D02*
Y665945D01*
X496949Y650984D02*
Y651555D01*
X495768Y652736D02*
X496949Y651555D01*
X528543Y662303D02*
X532874Y666634D01*
Y676279D01*
X528543Y643405D02*
Y662303D01*
X469587Y611811D02*
X474016Y616240D01*
Y623228D01*
X459941Y610433D02*
X462697Y607677D01*
X459941Y610433D02*
Y618307D01*
X461221Y619587D01*
X551279Y663976D02*
X556437Y658819D01*
X559094D01*
X460099Y650138D02*
X461221Y649016D01*
X459799Y650138D02*
X460099D01*
X461221Y619587D02*
Y649016D01*
X525886Y665256D02*
X528150Y667520D01*
X471260Y715846D02*
X472539Y717126D01*
X471260Y664862D02*
Y715846D01*
X472835Y658563D02*
Y661516D01*
X495768Y652736D02*
Y674213D01*
X495374Y674606D02*
X495768Y674213D01*
X537008Y679429D02*
X537992Y678445D01*
Y633760D02*
Y678445D01*
X532480Y676673D02*
X532874Y676279D01*
X528150Y667520D02*
Y673917D01*
X545768Y653150D02*
Y669783D01*
Y653150D02*
X550098Y648819D01*
X559094D01*
X541240Y638976D02*
Y673425D01*
X591732Y620965D02*
Y640610D01*
X586319Y646024D02*
X591732Y640610D01*
X593701Y614272D02*
Y653423D01*
X591100Y656024D02*
X593701Y653423D01*
X586319Y656024D02*
X591100D01*
X595571Y524114D02*
Y600098D01*
X556102Y613091D02*
X559094Y616083D01*
Y638819D01*
X553386Y643110D02*
X559094Y648819D01*
X553386Y615886D02*
Y643110D01*
X592539Y666024D02*
X595571Y662992D01*
X586319Y666024D02*
X592539D01*
X559094Y658819D02*
X563327D01*
X564272Y657874D01*
Y635827D02*
Y657874D01*
X561811Y633366D02*
X564272Y635827D01*
X561811Y613189D02*
Y633366D01*
X590354Y619587D02*
X591732Y620965D01*
X589665Y619587D02*
X590354D01*
X559094Y668819D02*
X564153D01*
X570866Y662106D01*
X592913Y604134D02*
X597835Y609055D01*
X595571Y612106D02*
Y662992D01*
X552559Y615059D02*
X553386Y615886D01*
X552559Y611122D02*
Y615059D01*
Y611122D02*
X555905Y607776D01*
X589961Y606496D02*
X595571Y612106D01*
X588681Y609252D02*
X593701Y614272D01*
X555905Y607776D02*
X583366D01*
X584646Y606496D01*
X589961D01*
X570866Y617913D02*
Y662106D01*
X569390Y616437D02*
X570866Y617913D01*
X568996Y616437D02*
X569390D01*
X585728Y609252D02*
X588681D01*
X561811Y613189D02*
X564764Y610236D01*
X581791D01*
X587008Y615453D01*
X590650D01*
X585236Y617421D02*
Y619390D01*
X580709Y612894D02*
X585236Y617421D01*
X580020Y612894D02*
X580709D01*
X585236Y619390D02*
X588287Y622441D01*
X591831Y604134D02*
X592913D01*
X480709Y506299D02*
X482480Y508071D01*
X479345Y502151D02*
X484350Y507157D01*
Y577658D01*
X413189Y691142D02*
Y718209D01*
X416535Y721555D01*
X466339Y601772D02*
X468110Y600000D01*
X466339Y601772D02*
Y664370D01*
X465354Y665354D02*
X466339Y664370D01*
X468110Y618996D02*
X469291Y617815D01*
X468110Y618996D02*
Y653839D01*
X472835Y658563D01*
X462894Y615945D02*
X463189Y615650D01*
X469783Y651181D02*
X473721Y655118D01*
X479035D01*
X469783Y627461D02*
Y651181D01*
Y627461D02*
X474016Y623228D01*
X243307Y638189D02*
X253642Y648524D01*
X243996Y584941D02*
Y587795D01*
X243307Y588484D02*
X243996Y587795D01*
X243307Y588484D02*
Y638189D01*
X240059Y605807D02*
Y639468D01*
X249188Y648597D01*
Y650197D01*
D54*
X279823Y673327D02*
X279921Y673425D01*
Y734842D01*
X478543Y690650D02*
Y744685D01*
X487008Y535335D02*
Y565551D01*
Y499016D02*
Y535335D01*
Y565551D02*
Y576083D01*
X488425Y577500D01*
X256594Y663462D02*
Y679921D01*
X518898Y758268D02*
X527067Y750098D01*
X518898Y758268D02*
Y778937D01*
X527067Y746654D02*
Y750098D01*
X356004Y837894D02*
X357087Y836811D01*
X298130Y569961D02*
X298327Y570157D01*
X298130Y552461D02*
Y569961D01*
X315846Y522244D02*
Y548721D01*
X315591Y548976D02*
X315846Y548721D01*
X357087Y836811D02*
X367126D01*
X272933Y835925D02*
X283957D01*
X219528Y681220D02*
X229528D01*
X488976Y831594D02*
X499606D01*
X484547Y827165D02*
X488976Y831594D01*
X484547Y808071D02*
Y827165D01*
X477658Y761811D02*
Y832677D01*
X448228Y825984D02*
X454035Y831791D01*
X448228Y690846D02*
Y825984D01*
X505807Y746654D02*
X527067D01*
X478543Y744685D02*
X480020Y746161D01*
X279921Y734842D02*
X298425Y753346D01*
Y756929D01*
X229528Y681220D02*
X236240D01*
X242717Y687697D01*
Y743701D01*
X255945Y756929D01*
X250197Y661221D02*
X251575Y662598D01*
X250000Y661024D02*
X250197Y661221D01*
X251575Y662598D02*
Y696949D01*
X256299Y701673D01*
Y709055D01*
X292717Y644488D02*
Y695866D01*
X298031Y701181D01*
Y708898D01*
X258268Y640945D02*
Y661789D01*
X257143Y662914D02*
X258268Y661789D01*
X296457Y634449D02*
X298150Y636142D01*
Y663110D01*
X256594Y663462D02*
X257143Y662914D01*
X256594Y709350D02*
Y723228D01*
X256299Y709055D02*
X256594Y709350D01*
X256102Y757382D02*
Y774508D01*
X400295Y695669D02*
Y699016D01*
X465453Y567126D02*
X473228D01*
X465354Y567224D02*
X465453Y567126D01*
X298150Y663110D02*
Y685157D01*
X298031Y708898D02*
Y729528D01*
X298425Y756929D02*
Y777953D01*
X484842Y496850D02*
X487008Y499016D01*
X488425Y577500D02*
Y585197D01*
X298268Y570217D02*
X298327Y570157D01*
X494882Y705709D02*
Y709449D01*
X396850Y692224D02*
X400295Y695669D01*
X493504Y710827D02*
X494882Y709449D01*
X493504Y710827D02*
Y723327D01*
X229528Y591221D02*
X230039D01*
X236319Y584941D01*
X243996D01*
D56*
X493209Y572933D02*
Y594488D01*
Y572933D02*
X493405Y572736D01*
X493209Y594488D02*
X495177Y596457D01*
X378051Y557677D02*
Y618012D01*
X492224Y599803D02*
Y671063D01*
X381653Y621614D02*
Y638524D01*
X380709Y639468D02*
X381653Y638524D01*
X378051Y618012D02*
X381653Y621614D01*
X378051Y557677D02*
X380906Y554823D01*
X380709Y639468D02*
Y651378D01*
X495177Y596457D02*
Y596850D01*
X380709Y639468D02*
X385827D01*
X380709Y651378D02*
X396850Y667520D01*
Y692224D01*
X492224Y599803D02*
X495177Y596850D01*
D57*
X560728Y690453D02*
X565118Y686063D01*
X526772Y699016D02*
X528839Y701083D01*
X526772Y683563D02*
Y699016D01*
X305610Y531102D02*
X305709Y531201D01*
X292520Y626378D02*
X294094Y627953D01*
X292520Y607677D02*
Y626378D01*
X305709Y531201D02*
Y564272D01*
X305610Y531102D02*
X305709Y531004D01*
X260728Y526968D02*
X262697Y525000D01*
X260728Y526968D02*
Y566634D01*
X288583Y535138D02*
X292028Y531693D01*
Y523130D02*
Y531693D01*
X550098Y687106D02*
Y698996D01*
X542224Y687106D02*
Y698898D01*
X272342Y534350D02*
X273130Y535138D01*
X288583D01*
X211516Y639232D02*
X219528Y631220D01*
X208169Y632579D02*
X219528Y621220D01*
X546161Y683563D02*
Y714075D01*
X544587Y715650D02*
X546161Y714075D01*
X211516Y725472D02*
X215158Y729114D01*
X211516Y639232D02*
Y725472D01*
X208169Y732126D02*
X215158Y739114D01*
X208169Y632579D02*
Y732126D01*
X560728Y690453D02*
Y714370D01*
D58*
X520374Y652953D02*
X520866Y652461D01*
X408366Y669350D02*
X408563Y669547D01*
X471063Y584842D02*
X472047Y583858D01*
X523228Y578051D02*
Y662795D01*
X520177Y588779D02*
Y651575D01*
X520276Y651673D01*
X479232Y561122D02*
Y566240D01*
X472047Y573425D02*
X479232Y566240D01*
X472047Y573425D02*
Y583858D01*
X551673Y573917D02*
Y574016D01*
X555413Y577756D01*
X345276Y577953D02*
Y713779D01*
X347244Y715748D01*
X439685Y579134D02*
X441890Y581339D01*
X434547Y666142D02*
Y697441D01*
Y666142D02*
X434744Y665945D01*
X282677Y874409D02*
X288583D01*
X281102Y872835D02*
X282677Y874409D01*
X438681Y665748D02*
Y710728D01*
X513386Y733858D02*
Y737402D01*
X518110Y733031D02*
Y737402D01*
Y733031D02*
X523228Y727913D01*
X513386Y733858D02*
X520472Y726772D01*
X441890Y655118D02*
Y669134D01*
X414331Y655079D02*
Y669685D01*
X366535Y875197D02*
X372047D01*
X364567Y873228D02*
X366535Y875197D01*
X364567Y859055D02*
Y873228D01*
X281102Y857480D02*
Y872835D01*
X402559Y581693D02*
X405118Y579134D01*
X401575Y581693D02*
X402559D01*
X405118Y579134D02*
X439685D01*
X408425Y669685D02*
X408563Y669547D01*
X408366Y653543D02*
Y669350D01*
X523228Y662795D02*
Y727913D01*
X520472Y653051D02*
Y726772D01*
X520374Y652953D02*
X520472Y653051D01*
X520177Y651772D02*
X520866Y652461D01*
X520177Y651772D02*
X520276Y651673D01*
X555413Y577756D02*
X564252D01*
X569095Y572913D01*
D59*
X576279Y726063D02*
X589764D01*
X576750Y706063D02*
X589764D01*
X505118Y589862D02*
Y681988D01*
X389567Y671358D02*
Y809941D01*
X493504Y723327D02*
Y761024D01*
X514075Y604921D02*
Y711122D01*
X317913Y593602D02*
Y761221D01*
X427461D02*
Y852362D01*
X420866Y858957D02*
X427461Y852362D01*
X317913Y584547D02*
Y593602D01*
X569882Y696063D02*
X586319D01*
X263583Y685433D02*
Y796161D01*
X306594Y590551D02*
Y809842D01*
X370177Y563976D02*
Y607185D01*
X370079Y563878D02*
X370177Y563976D01*
Y607185D02*
Y633415D01*
X370079Y633514D02*
X370177Y633415D01*
X428937Y881496D02*
X436909Y873524D01*
Y811417D02*
Y873524D01*
X420669Y881496D02*
X428937D01*
X493504Y761024D02*
X493701Y761221D01*
X493504Y723327D02*
X501870D01*
X258366Y801378D02*
X263583Y796161D01*
X258366Y801378D02*
Y881496D01*
X559449Y813780D02*
Y819685D01*
X370079Y541929D02*
Y563878D01*
X379921Y532087D02*
X380020D01*
X370079Y541929D02*
X379921Y532087D01*
X370079Y651870D02*
X389567Y671358D01*
X370079Y633514D02*
Y651870D01*
X559449Y813780D02*
X567520Y805709D01*
Y698425D02*
X569882Y696063D01*
X567520Y698425D02*
Y805709D01*
X501870Y723327D02*
X514075Y711122D01*
D61*
X336516Y543110D02*
X341831Y548425D01*
X336516Y531988D02*
Y543110D01*
X422047Y672835D02*
Y702362D01*
D62*
X506791Y558366D02*
D03*
X516791D02*
D03*
X559094Y602913D02*
D03*
Y592913D02*
D03*
Y562913D02*
D03*
Y582913D02*
D03*
Y572913D02*
D03*
Y552913D02*
D03*
Y542913D02*
D03*
Y532913D02*
D03*
X569095D02*
D03*
Y542913D02*
D03*
Y552913D02*
D03*
Y572913D02*
D03*
Y582913D02*
D03*
Y562913D02*
D03*
Y592913D02*
D03*
Y602913D02*
D03*
X533169Y638819D02*
D03*
Y648819D02*
D03*
Y658819D02*
D03*
X215158Y536850D02*
D03*
Y546850D02*
D03*
Y556850D02*
D03*
X537008Y699055D02*
D03*
Y709055D02*
D03*
X555512Y699055D02*
D03*
Y709055D02*
D03*
X334173Y618898D02*
D03*
Y628898D02*
D03*
Y588898D02*
D03*
Y598898D02*
D03*
Y608898D02*
D03*
X215158Y729114D02*
D03*
Y739114D02*
D03*
Y749114D02*
D03*
X559094Y658819D02*
D03*
Y668819D02*
D03*
Y638819D02*
D03*
Y648819D02*
D03*
D63*
X229528Y681220D02*
D03*
X219528D02*
D03*
Y671220D02*
D03*
X229528D02*
D03*
Y661221D02*
D03*
X219528D02*
D03*
Y651221D02*
D03*
X229528D02*
D03*
Y641221D02*
D03*
X219528D02*
D03*
Y631220D02*
D03*
X229528D02*
D03*
Y621220D02*
D03*
X219528D02*
D03*
Y611221D02*
D03*
X229528D02*
D03*
Y601221D02*
D03*
X219528D02*
D03*
Y591221D02*
D03*
X229528D02*
D03*
X576319Y636024D02*
D03*
X586319D02*
D03*
Y646024D02*
D03*
X576319D02*
D03*
Y656024D02*
D03*
X586319D02*
D03*
Y666024D02*
D03*
X576319D02*
D03*
Y676024D02*
D03*
X586319D02*
D03*
Y686024D02*
D03*
X576319D02*
D03*
Y696024D02*
D03*
X586319D02*
D03*
Y706024D02*
D03*
X576319D02*
D03*
Y716024D02*
D03*
X586319D02*
D03*
Y726024D02*
D03*
X576319D02*
D03*
D64*
X559449Y819685D02*
D03*
X537795D02*
D03*
D65*
X582677Y868110D02*
D03*
X225197Y510236D02*
D03*
X583465Y509449D02*
D03*
X224410Y867717D02*
D03*
D66*
X270768Y846260D02*
D03*
X279823Y673327D02*
D03*
X329921Y580315D02*
D03*
X336713Y550295D02*
D03*
X360138Y524311D02*
D03*
X370177D02*
D03*
X375000Y524213D02*
D03*
X497441Y603839D02*
D03*
X497244Y608760D02*
D03*
X498721Y612894D02*
D03*
X496949Y624803D02*
D03*
X498130Y630315D02*
D03*
X498622Y641732D02*
D03*
X497146Y636122D02*
D03*
X565118Y686063D02*
D03*
X526772Y683563D02*
D03*
X276772Y856496D02*
D03*
X361614Y857185D02*
D03*
X353248Y846653D02*
D03*
X362894Y831890D02*
D03*
X357087Y727953D02*
D03*
X352362Y698917D02*
D03*
X329134Y643504D02*
D03*
X317913Y593602D02*
D03*
X265551Y573622D02*
D03*
X238583Y574508D02*
D03*
X279528Y513484D02*
D03*
X292028Y523130D02*
D03*
X507382Y808366D02*
D03*
X285925Y816535D02*
D03*
Y820276D02*
D03*
Y824016D02*
D03*
Y827756D02*
D03*
Y831496D02*
D03*
X361614Y643307D02*
D03*
X532776Y545866D02*
D03*
X487008Y535335D02*
D03*
X521358Y543110D02*
D03*
X525886Y539468D02*
D03*
X523228Y578051D02*
D03*
X520177Y588779D02*
D03*
X493405Y572736D02*
D03*
X478543Y571752D02*
D03*
X479232Y561122D02*
D03*
X482283Y583858D02*
D03*
X484842Y586319D02*
D03*
X478937Y557579D02*
D03*
X477756Y554232D02*
D03*
X551673Y573917D02*
D03*
X487008Y565551D02*
D03*
X518898Y778937D02*
D03*
X503543Y770079D02*
D03*
X280118Y616339D02*
D03*
X327953Y620965D02*
D03*
X326279Y614272D02*
D03*
X328366Y598898D02*
D03*
X292520Y607677D02*
D03*
X264862Y609646D02*
D03*
X294094Y627953D02*
D03*
X385728Y606890D02*
D03*
X382776Y613878D02*
D03*
X399311Y647835D02*
D03*
X351279Y612992D02*
D03*
X348327Y620079D02*
D03*
X381653Y621614D02*
D03*
X370177Y607185D02*
D03*
X378445Y589961D02*
D03*
X333563Y582972D02*
D03*
X344291Y567323D02*
D03*
X329429Y562992D02*
D03*
X341831Y548425D02*
D03*
X336516Y531988D02*
D03*
X305709Y564272D02*
D03*
X305512Y573622D02*
D03*
X262697Y525000D02*
D03*
X260728Y566634D02*
D03*
X305709Y531004D02*
D03*
X298130Y552461D02*
D03*
X315748Y506693D02*
D03*
X305020Y506398D02*
D03*
X315846Y522244D02*
D03*
X270079Y542421D02*
D03*
X264567Y542421D02*
D03*
X356142Y838031D02*
D03*
X367126Y836811D02*
D03*
X272933Y835925D02*
D03*
X283957D02*
D03*
X499606Y831594D02*
D03*
X484547Y808071D02*
D03*
X477658Y832677D02*
D03*
Y761811D02*
D03*
X454035Y831791D02*
D03*
X448228Y690846D02*
D03*
X299410Y499606D02*
D03*
X527067Y746654D02*
D03*
X505807D02*
D03*
X480413Y746457D02*
D03*
X434547Y697441D02*
D03*
X478543Y690650D02*
D03*
X438681Y710728D02*
D03*
X318012Y714075D02*
D03*
X250197Y661221D02*
D03*
X292717Y644488D02*
D03*
X258268Y640945D02*
D03*
X296457Y634449D02*
D03*
X257143Y662914D02*
D03*
X256398Y679823D02*
D03*
X256299Y709055D02*
D03*
X255945Y756929D02*
D03*
X288583Y874409D02*
D03*
X254134Y648524D02*
D03*
X249188Y650197D02*
D03*
X246555Y654035D02*
D03*
X351378Y662106D02*
D03*
X348327Y658858D02*
D03*
X400295Y699016D02*
D03*
X438681Y665748D02*
D03*
X434744Y665945D02*
D03*
X495177Y596457D02*
D03*
X386614Y496752D02*
D03*
X348721Y605118D02*
D03*
X386221Y633661D02*
D03*
X478642Y547835D02*
D03*
X456201Y581791D02*
D03*
X460827Y581988D02*
D03*
X464862Y581890D02*
D03*
X473228Y567126D02*
D03*
X505413Y632579D02*
D03*
X529035Y524213D02*
D03*
X465354Y668504D02*
D03*
Y567224D02*
D03*
X484646Y596457D02*
D03*
X298150Y685157D02*
D03*
Y663110D02*
D03*
X298031Y708898D02*
D03*
Y729528D02*
D03*
X256594Y723228D02*
D03*
X298425Y777953D02*
D03*
Y756929D02*
D03*
X256102Y774508D02*
D03*
X335433Y494095D02*
D03*
X339370Y771260D02*
D03*
X347244Y715748D02*
D03*
X342520Y669685D02*
D03*
X345276Y577953D02*
D03*
X342520Y573228D02*
D03*
X424016Y567323D02*
D03*
X421654Y570079D02*
D03*
X441890Y581339D02*
D03*
X478740Y506299D02*
D03*
X391732Y510236D02*
D03*
X479345Y502151D02*
D03*
X388799Y507303D02*
D03*
X502756Y804331D02*
D03*
X518110Y737402D02*
D03*
X513386D02*
D03*
X488425Y585197D02*
D03*
X335827Y655118D02*
D03*
X441890D02*
D03*
X441732Y669291D02*
D03*
X422047Y672835D02*
D03*
X414331Y669685D02*
D03*
X408425D02*
D03*
X414331Y655079D02*
D03*
X347638Y507579D02*
D03*
X350541Y509498D02*
D03*
X353150Y512205D02*
D03*
X364469Y658957D02*
D03*
X359744Y646850D02*
D03*
X357283Y649213D02*
D03*
X354626Y651673D02*
D03*
X379961Y508228D02*
D03*
X374961Y508209D02*
D03*
X484842Y496850D02*
D03*
X380906Y554823D02*
D03*
X370079Y563878D02*
D03*
X380020Y532087D02*
D03*
X505118Y589862D02*
D03*
X513976Y656791D02*
D03*
X492126Y612106D02*
D03*
X385827Y639468D02*
D03*
X370079Y633514D02*
D03*
X389567Y671358D02*
D03*
X422047Y702362D02*
D03*
X389469Y716732D02*
D03*
X550098Y687106D02*
D03*
X550157Y699055D02*
D03*
X542224Y687106D02*
D03*
X542382Y699055D02*
D03*
X298268Y570217D02*
D03*
X315591Y548976D02*
D03*
X372047Y875197D02*
D03*
X364567Y859055D02*
D03*
X281102Y857480D02*
D03*
X294390Y539665D02*
D03*
X272342Y534350D02*
D03*
X383858Y540059D02*
D03*
X387205Y536221D02*
D03*
X267913Y534350D02*
D03*
X275098Y543405D02*
D03*
X325492Y623819D02*
D03*
X478642Y726279D02*
D03*
X494882Y705709D02*
D03*
X399016Y627854D02*
D03*
X399095Y640531D02*
D03*
X369291Y832087D02*
D03*
Y828347D02*
D03*
Y824606D02*
D03*
Y820866D02*
D03*
Y817126D02*
D03*
X371654Y814272D02*
D03*
X376083Y814173D02*
D03*
X293012Y814173D02*
D03*
X288583Y814272D02*
D03*
X373819Y852854D02*
D03*
X369882Y870965D02*
D03*
Y867126D02*
D03*
Y863287D02*
D03*
X369980Y859449D02*
D03*
Y855020D02*
D03*
X290945Y853051D02*
D03*
X286910Y855020D02*
D03*
Y859449D02*
D03*
X286811Y863287D02*
D03*
Y867126D02*
D03*
Y870965D02*
D03*
X276772Y827854D02*
D03*
X518898Y790158D02*
D03*
X510532Y788681D02*
D03*
X411417Y651575D02*
D03*
X437205Y654134D02*
D03*
X264567Y595433D02*
D03*
X329134Y635039D02*
D03*
X406496Y556693D02*
D03*
X397874Y560472D02*
D03*
X437795Y582283D02*
D03*
X420236Y582126D02*
D03*
X347638Y496654D02*
D03*
X328150Y499705D02*
D03*
X275492Y577067D02*
D03*
X305965Y581890D02*
D03*
X317913Y570118D02*
D03*
X312402D02*
D03*
X290945Y569095D02*
D03*
X298622Y599114D02*
D03*
X357087Y684646D02*
D03*
X347342Y745571D02*
D03*
X362598Y741437D02*
D03*
X357087Y779331D02*
D03*
X347284Y794921D02*
D03*
X362205Y794095D02*
D03*
X492815Y835630D02*
D03*
X470768Y834744D02*
D03*
X446752D02*
D03*
X419980Y709842D02*
D03*
X459744Y702362D02*
D03*
X444587Y676260D02*
D03*
X398327Y595256D02*
D03*
Y601161D02*
D03*
X539961Y616142D02*
D03*
X471673Y603130D02*
D03*
X460236Y556791D02*
D03*
X498524Y619587D02*
D03*
X498622Y647736D02*
D03*
X452756Y580709D02*
D03*
X471260Y596457D02*
D03*
X408130Y702697D02*
D03*
X498032Y590551D02*
D03*
X498819Y593701D02*
D03*
X400098Y713406D02*
D03*
X443595Y878453D02*
D03*
X447138Y881602D02*
D03*
X451806Y878453D02*
D03*
X501075D02*
D03*
X460017D02*
D03*
X468229D02*
D03*
X476440D02*
D03*
X484652D02*
D03*
X489132Y881602D02*
D03*
X492863Y878453D02*
D03*
X472335Y881602D02*
D03*
X463936D02*
D03*
X497532D02*
D03*
X455537D02*
D03*
X480734D02*
D03*
X557087Y765945D02*
D03*
Y757874D02*
D03*
X551968D02*
D03*
X554528Y761909D02*
D03*
X551968Y765945D02*
D03*
X554528Y769980D02*
D03*
X557087Y774016D02*
D03*
X551968D02*
D03*
X362500Y699213D02*
D03*
X565158Y631201D02*
D03*
X259744Y595374D02*
D03*
X482185Y705669D02*
D03*
X507874Y707224D02*
D03*
X386319Y582382D02*
D03*
X401575Y581693D02*
D03*
X401870Y637697D02*
D03*
X395472Y573819D02*
D03*
X397933Y567323D02*
D03*
X397146Y510138D02*
D03*
X505903Y498917D02*
D03*
X497142D02*
D03*
X514665D02*
D03*
X547275D02*
D03*
X554491D02*
D03*
X540059D02*
D03*
X550098Y523130D02*
D03*
X546161Y683563D02*
D03*
X528839Y701083D02*
D03*
X544587Y715650D02*
D03*
X455610Y717126D02*
D03*
X464272D02*
D03*
X472539D02*
D03*
X408366Y653543D02*
D03*
X393799Y657677D02*
D03*
X397539Y659154D02*
D03*
X418110Y676772D02*
D03*
X401279Y683957D02*
D03*
X464075Y683071D02*
D03*
X523228Y662795D02*
D03*
X520472Y653051D02*
D03*
X560728Y714370D02*
D03*
X450492Y655118D02*
D03*
Y665945D02*
D03*
X496949Y650984D02*
D03*
X498917Y654528D02*
D03*
X528543Y643405D02*
D03*
X469291Y617815D02*
D03*
X462894Y615945D02*
D03*
X469587Y611811D02*
D03*
X483366Y611122D02*
D03*
X462697Y607677D02*
D03*
X482579Y616240D02*
D03*
X479035Y655118D02*
D03*
X537992Y633760D02*
D03*
X551279Y663976D02*
D03*
X460099Y650138D02*
D03*
X471260Y664862D02*
D03*
X472835Y661516D02*
D03*
X492224Y671063D02*
D03*
X495374Y674606D02*
D03*
X537008Y679429D02*
D03*
X532480Y676673D02*
D03*
X528150Y673917D02*
D03*
X545768Y669783D02*
D03*
X541240Y673425D02*
D03*
Y638976D02*
D03*
X595571Y524114D02*
D03*
Y600098D02*
D03*
X556102Y613091D02*
D03*
X589665Y619587D02*
D03*
X590650Y615453D02*
D03*
X597835Y609055D02*
D03*
X568996Y616437D02*
D03*
X585728Y609252D02*
D03*
X573524Y613386D02*
D03*
X580020Y612894D02*
D03*
X591831Y604134D02*
D03*
X470866Y584646D02*
D03*
X477224Y581161D02*
D03*
X416535Y721555D02*
D03*
X472835Y643504D02*
D03*
X463189Y653445D02*
D03*
X325197Y556595D02*
D03*
X322539Y559646D02*
D03*
X243996Y584941D02*
D03*
D67*
X420866Y858957D02*
D03*
X427461Y761221D02*
D03*
X436909Y811417D02*
D03*
X420669Y881496D02*
D03*
X263189Y780709D02*
D03*
X264075Y731398D02*
D03*
X263976Y686516D02*
D03*
X258366Y881496D02*
D03*
X389764Y810827D02*
D03*
X493701Y730709D02*
D03*
X514075Y604921D02*
D03*
X505020Y594980D02*
D03*
X505118Y681988D02*
D03*
X389469Y687598D02*
D03*
X493701Y761221D02*
D03*
X317913D02*
D03*
Y584547D02*
D03*
X306594Y590551D02*
D03*
Y809842D02*
D03*
X240453Y799311D02*
D03*
X279528D02*
D03*
D68*
X283268Y532480D02*
D03*
X287598D02*
D03*
X283268Y528150D02*
D03*
X287598D02*
D03*
M02*
