G04 Layer_Color=8388736*
%FSLAX25Y25*%
%MOIN*%
G70*
G01*
G75*
%ADD73R,0.09068X0.09068*%
%ADD74R,0.01981X0.03556*%
%ADD75R,0.03556X0.01981*%
%ADD76R,0.02375X0.06115*%
%ADD77R,0.09068X0.07099*%
%ADD78R,0.07887X0.08280*%
%ADD79R,0.08280X0.08280*%
%ADD80R,0.02375X0.06135*%
%ADD81R,0.03398X0.03241*%
%ADD82R,0.22847X0.09068*%
%ADD83O,0.06706X0.03162*%
%ADD84R,0.03162X0.04737*%
%ADD85R,0.15367X0.08674*%
%ADD86R,0.03162X0.02965*%
%ADD87R,0.02965X0.03162*%
%ADD88R,0.03241X0.03398*%
%ADD89R,0.03950X0.03950*%
%ADD90R,0.05800X0.09265*%
%ADD91R,0.17139X0.04934*%
%ADD92R,0.11430X0.39383*%
%ADD93R,0.08674X0.06706*%
%ADD94R,0.08674X0.15761*%
%ADD95R,0.07099X0.14579*%
%ADD96O,0.01981X0.06115*%
%ADD97O,0.06312X0.02768*%
%ADD98R,0.03950X0.03950*%
%ADD99R,0.06902X0.05918*%
%ADD100R,0.07965X0.05800*%
%ADD101R,0.09068X0.07887*%
%ADD102R,0.06666X0.10249*%
%ADD103R,0.03162X0.01981*%
%ADD104R,0.23241X0.07099*%
%ADD105R,0.05524X0.06115*%
%ADD106R,0.02965X0.01784*%
%ADD107R,0.07099X0.10249*%
%ADD108O,0.02572X0.06312*%
%ADD109R,0.05800X0.07965*%
%ADD110R,0.03800X0.11800*%
%ADD111R,0.05918X0.04343*%
%ADD112O,0.01981X0.06509*%
%ADD113O,0.06509X0.01981*%
%ADD114C,0.28359*%
%ADD115C,0.07099*%
%ADD116C,0.09461*%
%ADD117C,0.00800*%
%ADD118C,0.08280*%
%ADD119C,0.02768*%
D73*
X285433Y530315D02*
D03*
D74*
X281594Y538779D02*
D03*
X284154D02*
D03*
X286713D02*
D03*
X289272D02*
D03*
Y521850D02*
D03*
X286713D02*
D03*
X284154D02*
D03*
X281594D02*
D03*
D75*
X293898Y534154D02*
D03*
Y531595D02*
D03*
Y529035D02*
D03*
Y526476D02*
D03*
X276969D02*
D03*
Y529035D02*
D03*
Y531595D02*
D03*
Y534154D02*
D03*
D76*
X269291Y509350D02*
D03*
X279528D02*
D03*
X276969D02*
D03*
X274410D02*
D03*
D77*
X262205Y508858D02*
D03*
X286614Y508858D02*
D03*
D78*
X259449Y498819D02*
D03*
X289370Y498819D02*
D03*
D79*
X269685Y498819D02*
D03*
X279134D02*
D03*
D80*
X271850Y509350D02*
D03*
D81*
X488425Y631102D02*
D03*
X491890D02*
D03*
X445118Y554724D02*
D03*
X448583D02*
D03*
X426929D02*
D03*
X423465D02*
D03*
X488425Y646063D02*
D03*
X491890D02*
D03*
X488425Y626116D02*
D03*
X491890D02*
D03*
X488425Y641076D02*
D03*
X491890D02*
D03*
X488425Y621129D02*
D03*
X491890D02*
D03*
X298268Y573622D02*
D03*
X301732D02*
D03*
X301732Y581890D02*
D03*
X298268D02*
D03*
X524961Y524016D02*
D03*
X521496D02*
D03*
X488425Y651181D02*
D03*
X491890D02*
D03*
X381653Y630709D02*
D03*
X378189D02*
D03*
X381653Y604331D02*
D03*
X378189D02*
D03*
X488425Y588386D02*
D03*
X491890D02*
D03*
X381653Y599213D02*
D03*
X378189D02*
D03*
X488425Y608268D02*
D03*
X491890D02*
D03*
X488425Y616142D02*
D03*
X491890D02*
D03*
X381653Y624803D02*
D03*
X378189D02*
D03*
X381653Y642520D02*
D03*
X378189D02*
D03*
X381653Y594095D02*
D03*
X378189D02*
D03*
X381653Y585433D02*
D03*
X378189D02*
D03*
X488425Y636089D02*
D03*
X491890D02*
D03*
X356142Y841732D02*
D03*
X359606D02*
D03*
X356142Y846457D02*
D03*
X359606D02*
D03*
X273071Y839764D02*
D03*
X276535D02*
D03*
X273071Y844488D02*
D03*
X276535D02*
D03*
X488425Y603543D02*
D03*
X491890D02*
D03*
X488524Y593012D02*
D03*
X491988D02*
D03*
X411949Y709842D02*
D03*
X415413D02*
D03*
D82*
X454134Y531102D02*
D03*
X416732D02*
D03*
D83*
X501575Y712224D02*
D03*
Y707224D02*
D03*
Y702224D02*
D03*
Y697224D02*
D03*
X522835Y712224D02*
D03*
Y707224D02*
D03*
Y702224D02*
D03*
Y697224D02*
D03*
D84*
X403740Y699016D02*
D03*
X396260D02*
D03*
Y709646D02*
D03*
X400000D02*
D03*
X403740D02*
D03*
D85*
X260630Y627559D02*
D03*
X433071Y704331D02*
D03*
X449713Y870366D02*
D03*
X471707D02*
D03*
X493701D02*
D03*
Y855512D02*
D03*
X471654D02*
D03*
X449713D02*
D03*
D86*
X513484Y688976D02*
D03*
X510138D02*
D03*
X504134Y758268D02*
D03*
X507480D02*
D03*
X521555Y746457D02*
D03*
X518209D02*
D03*
X510039D02*
D03*
X513386D02*
D03*
X270413Y756929D02*
D03*
X273760D02*
D03*
X270413Y708898D02*
D03*
X273760D02*
D03*
X270413Y662835D02*
D03*
X273760D02*
D03*
X272933Y573622D02*
D03*
X269587D02*
D03*
X376673Y875197D02*
D03*
X380020D02*
D03*
X293602Y875591D02*
D03*
X296949D02*
D03*
X512697Y544488D02*
D03*
X509350D02*
D03*
X305413Y548976D02*
D03*
X308760D02*
D03*
X272933Y581890D02*
D03*
X269587D02*
D03*
X378248Y636614D02*
D03*
X381594D02*
D03*
X491831Y598819D02*
D03*
X488484D02*
D03*
X513484Y718504D02*
D03*
X510138D02*
D03*
X518209Y741831D02*
D03*
X521555D02*
D03*
X513386D02*
D03*
X510039D02*
D03*
X451870Y496654D02*
D03*
X448524D02*
D03*
D87*
X555512Y687106D02*
D03*
Y683760D02*
D03*
X537008Y687106D02*
D03*
Y683760D02*
D03*
X491732Y705610D02*
D03*
Y702264D02*
D03*
X310630Y599114D02*
D03*
Y602461D02*
D03*
X357087Y771555D02*
D03*
Y774902D02*
D03*
Y721555D02*
D03*
Y724902D02*
D03*
Y677067D02*
D03*
Y680413D02*
D03*
X564173Y627165D02*
D03*
Y623819D02*
D03*
X359842Y854823D02*
D03*
Y851476D02*
D03*
X350394D02*
D03*
Y854823D02*
D03*
X276772Y853248D02*
D03*
Y849902D02*
D03*
X267323D02*
D03*
Y853248D02*
D03*
X470472Y560138D02*
D03*
Y563484D02*
D03*
X496358Y572638D02*
D03*
Y575984D02*
D03*
X491142Y572638D02*
D03*
Y575984D02*
D03*
X347638Y503346D02*
D03*
Y500000D02*
D03*
X264567Y602461D02*
D03*
Y599114D02*
D03*
X362205Y774902D02*
D03*
Y771555D02*
D03*
X363779Y680413D02*
D03*
Y677067D02*
D03*
X362598Y724902D02*
D03*
Y721555D02*
D03*
X454232Y826968D02*
D03*
Y823622D02*
D03*
X477854Y826968D02*
D03*
Y823622D02*
D03*
X499508Y826968D02*
D03*
Y823622D02*
D03*
D88*
X259449Y602520D02*
D03*
Y599055D02*
D03*
X486614Y702205D02*
D03*
Y705669D02*
D03*
X305512Y602520D02*
D03*
Y599055D02*
D03*
X270079Y545512D02*
D03*
Y548976D02*
D03*
X408425Y672795D02*
D03*
Y676260D02*
D03*
X460236Y563543D02*
D03*
Y560079D02*
D03*
X264567Y548976D02*
D03*
Y545512D02*
D03*
X411909Y699252D02*
D03*
Y702716D02*
D03*
X414331Y672795D02*
D03*
Y676260D02*
D03*
X441732Y672795D02*
D03*
Y676260D02*
D03*
X406496Y563937D02*
D03*
Y560472D02*
D03*
X518898Y782913D02*
D03*
Y786378D02*
D03*
X317913Y574350D02*
D03*
Y577815D02*
D03*
X312402D02*
D03*
Y574350D02*
D03*
X355118Y851417D02*
D03*
Y854882D02*
D03*
X359842Y832913D02*
D03*
Y836378D02*
D03*
X272047Y849842D02*
D03*
Y853307D02*
D03*
X276772Y830945D02*
D03*
Y834410D02*
D03*
X501575Y572677D02*
D03*
Y576142D02*
D03*
X465354Y563543D02*
D03*
Y560079D02*
D03*
X401575Y560472D02*
D03*
Y563937D02*
D03*
D89*
X285669Y756929D02*
D03*
X291575D02*
D03*
X285669Y708898D02*
D03*
X291575D02*
D03*
X285669Y662835D02*
D03*
X291575D02*
D03*
X467717Y496752D02*
D03*
X461811D02*
D03*
D90*
X256299Y731102D02*
D03*
X271260D02*
D03*
X256299Y686614D02*
D03*
X271260D02*
D03*
X303937Y780709D02*
D03*
X288976D02*
D03*
X303937Y731102D02*
D03*
X288976D02*
D03*
X303937Y686614D02*
D03*
X288976D02*
D03*
X256299Y780709D02*
D03*
X271260D02*
D03*
D91*
X538779Y785984D02*
D03*
Y765984D02*
D03*
D92*
X590945Y775984D02*
D03*
D93*
X347284Y771496D02*
D03*
Y780551D02*
D03*
Y789606D02*
D03*
Y721496D02*
D03*
Y730551D02*
D03*
Y739606D02*
D03*
Y677008D02*
D03*
Y686063D02*
D03*
Y695118D02*
D03*
D94*
X322480Y780551D02*
D03*
Y730551D02*
D03*
Y686063D02*
D03*
D95*
X493701Y808268D02*
D03*
X514961D02*
D03*
D96*
X503543Y765256D02*
D03*
X505512D02*
D03*
X507480D02*
D03*
X509449D02*
D03*
X511417D02*
D03*
X503543Y782776D02*
D03*
X505512D02*
D03*
X507480D02*
D03*
X509449D02*
D03*
X511417D02*
D03*
D97*
X294094Y602461D02*
D03*
Y605020D02*
D03*
Y607579D02*
D03*
Y610138D02*
D03*
X276772Y602461D02*
D03*
Y605020D02*
D03*
Y607579D02*
D03*
Y610138D02*
D03*
D98*
X362598Y731299D02*
D03*
Y737205D02*
D03*
X362205Y782874D02*
D03*
Y788779D02*
D03*
X363779Y687992D02*
D03*
Y693898D02*
D03*
X446752Y823524D02*
D03*
Y829429D02*
D03*
X470768Y823524D02*
D03*
Y829429D02*
D03*
X492815Y823524D02*
D03*
Y829429D02*
D03*
D99*
X515846Y517126D02*
D03*
X547146D02*
D03*
X515846Y499409D02*
D03*
X547146D02*
D03*
D100*
X254724Y532283D02*
D03*
Y548976D02*
D03*
D101*
X467323Y702362D02*
D03*
X450000D02*
D03*
X547146Y616142D02*
D03*
X529823D02*
D03*
D102*
X285433Y577165D02*
D03*
D103*
X290945Y573327D02*
D03*
Y575886D02*
D03*
Y578445D02*
D03*
Y581004D02*
D03*
X279921Y573327D02*
D03*
Y575886D02*
D03*
Y578445D02*
D03*
Y581004D02*
D03*
D104*
X403150Y824213D02*
D03*
Y842717D02*
D03*
X319685Y824213D02*
D03*
Y842717D02*
D03*
D105*
X381496Y819291D02*
D03*
X375197D02*
D03*
X381496Y828740D02*
D03*
X375197D02*
D03*
X381496Y858661D02*
D03*
X375197D02*
D03*
X298425Y819291D02*
D03*
X292126D02*
D03*
X298425Y828740D02*
D03*
X292126D02*
D03*
X298425Y858661D02*
D03*
X292126D02*
D03*
X298425Y868110D02*
D03*
X292126D02*
D03*
X381496Y868110D02*
D03*
X375197D02*
D03*
D106*
X368406Y847638D02*
D03*
Y845669D02*
D03*
Y843701D02*
D03*
Y841732D02*
D03*
Y839764D02*
D03*
X381201D02*
D03*
Y841732D02*
D03*
Y843701D02*
D03*
Y845669D02*
D03*
Y847638D02*
D03*
X298130D02*
D03*
Y845669D02*
D03*
Y843701D02*
D03*
Y841732D02*
D03*
Y839764D02*
D03*
X285335D02*
D03*
Y841732D02*
D03*
Y843701D02*
D03*
Y845669D02*
D03*
Y847638D02*
D03*
D107*
X374705Y843701D02*
D03*
X291634D02*
D03*
D108*
X525591Y575984D02*
D03*
X523032D02*
D03*
X520472D02*
D03*
X517913D02*
D03*
X515354D02*
D03*
X512795D02*
D03*
X510236D02*
D03*
X507677D02*
D03*
X525591Y552756D02*
D03*
X523032D02*
D03*
X520472D02*
D03*
X517913D02*
D03*
X515354D02*
D03*
X512795D02*
D03*
X510236D02*
D03*
X507677D02*
D03*
D109*
X305433Y499705D02*
D03*
X322126D02*
D03*
D110*
X379961Y516378D02*
D03*
X374961D02*
D03*
X369961D02*
D03*
X364961D02*
D03*
X359961D02*
D03*
Y500394D02*
D03*
X364961D02*
D03*
X369961D02*
D03*
X374961D02*
D03*
X379961D02*
D03*
D111*
X305118Y526575D02*
D03*
Y519095D02*
D03*
X315748Y526575D02*
D03*
Y519095D02*
D03*
D112*
X400551Y575669D02*
D03*
X402520D02*
D03*
X404488D02*
D03*
X406457D02*
D03*
X408425D02*
D03*
X410394D02*
D03*
X412362D02*
D03*
X414331D02*
D03*
X416299D02*
D03*
X418268D02*
D03*
X420236D02*
D03*
X422205D02*
D03*
X424173D02*
D03*
X426142D02*
D03*
X428110D02*
D03*
X430079D02*
D03*
X432047D02*
D03*
X434016D02*
D03*
X435984D02*
D03*
X437953D02*
D03*
X439921D02*
D03*
X441890D02*
D03*
X443858D02*
D03*
X445827D02*
D03*
X447795D02*
D03*
X449764D02*
D03*
X451732D02*
D03*
X453701D02*
D03*
X455669D02*
D03*
X457638D02*
D03*
X459606D02*
D03*
X461575D02*
D03*
X463543D02*
D03*
X465512D02*
D03*
X467480D02*
D03*
X469449D02*
D03*
Y660118D02*
D03*
X467480D02*
D03*
X465512D02*
D03*
X463543D02*
D03*
X461575D02*
D03*
X459606D02*
D03*
X457638D02*
D03*
X455669D02*
D03*
X453701D02*
D03*
X451732D02*
D03*
X449764D02*
D03*
X447795D02*
D03*
X445827D02*
D03*
X443858D02*
D03*
X441890D02*
D03*
X439921D02*
D03*
X437953D02*
D03*
X435984D02*
D03*
X434016D02*
D03*
X432047D02*
D03*
X430079D02*
D03*
X428110D02*
D03*
X426142D02*
D03*
X424173D02*
D03*
X422205D02*
D03*
X420236D02*
D03*
X418268D02*
D03*
X416299D02*
D03*
X414331D02*
D03*
X412362D02*
D03*
X410394D02*
D03*
X408425D02*
D03*
X406457D02*
D03*
X404488D02*
D03*
X402520D02*
D03*
X400551D02*
D03*
D113*
X477224Y583445D02*
D03*
Y585413D02*
D03*
Y587382D02*
D03*
Y589350D02*
D03*
Y591319D02*
D03*
Y593287D02*
D03*
Y595256D02*
D03*
Y597224D02*
D03*
Y599193D02*
D03*
Y601161D02*
D03*
Y603130D02*
D03*
Y605098D02*
D03*
Y607067D02*
D03*
Y609035D02*
D03*
Y611004D02*
D03*
Y612972D02*
D03*
Y614941D02*
D03*
Y616909D02*
D03*
Y618878D02*
D03*
Y620847D02*
D03*
Y622815D02*
D03*
Y624783D02*
D03*
Y626752D02*
D03*
Y628721D02*
D03*
Y630689D02*
D03*
Y632657D02*
D03*
Y634626D02*
D03*
Y636594D02*
D03*
Y638563D02*
D03*
Y640531D02*
D03*
Y642500D02*
D03*
Y644468D02*
D03*
Y646437D02*
D03*
Y648406D02*
D03*
Y650374D02*
D03*
Y652343D02*
D03*
X392776D02*
D03*
Y650374D02*
D03*
Y648406D02*
D03*
Y646437D02*
D03*
Y644468D02*
D03*
Y642500D02*
D03*
Y640531D02*
D03*
Y638563D02*
D03*
Y636594D02*
D03*
Y634626D02*
D03*
Y632657D02*
D03*
Y630689D02*
D03*
Y628721D02*
D03*
Y626752D02*
D03*
Y624783D02*
D03*
Y622815D02*
D03*
Y620847D02*
D03*
Y618878D02*
D03*
Y616909D02*
D03*
Y614941D02*
D03*
Y612972D02*
D03*
Y611004D02*
D03*
Y609035D02*
D03*
Y607067D02*
D03*
Y605098D02*
D03*
Y603130D02*
D03*
Y601161D02*
D03*
Y599193D02*
D03*
Y597224D02*
D03*
Y595256D02*
D03*
Y593287D02*
D03*
Y591319D02*
D03*
Y589350D02*
D03*
Y587382D02*
D03*
Y585413D02*
D03*
Y583445D02*
D03*
D114*
X224410Y867717D02*
D03*
X583465Y509449D02*
D03*
X225197Y510236D02*
D03*
X582677Y868110D02*
D03*
D115*
X555512Y709055D02*
D03*
Y699055D02*
D03*
X537008Y709055D02*
D03*
Y699055D02*
D03*
X333858Y629213D02*
D03*
Y619213D02*
D03*
Y609213D02*
D03*
Y599213D02*
D03*
X233071Y556850D02*
D03*
Y546850D02*
D03*
Y536850D02*
D03*
X540945Y658819D02*
D03*
Y648819D02*
D03*
Y638819D02*
D03*
X568898Y603071D02*
D03*
Y593071D02*
D03*
Y563071D02*
D03*
Y583071D02*
D03*
Y573071D02*
D03*
Y553071D02*
D03*
Y543071D02*
D03*
Y533071D02*
D03*
X558898D02*
D03*
Y543071D02*
D03*
Y553071D02*
D03*
Y573071D02*
D03*
Y583071D02*
D03*
Y563071D02*
D03*
Y593071D02*
D03*
Y603071D02*
D03*
D116*
X537795Y819685D02*
D03*
X559449D02*
D03*
D117*
X588189D02*
D03*
X224528Y581220D02*
D03*
Y691221D02*
D03*
X584764Y736063D02*
D03*
Y626063D02*
D03*
D118*
X229528Y591221D02*
D03*
X219528D02*
D03*
Y601221D02*
D03*
X229528D02*
D03*
Y611221D02*
D03*
X219528D02*
D03*
Y621220D02*
D03*
X229528D02*
D03*
Y631220D02*
D03*
X219528D02*
D03*
Y641221D02*
D03*
X229528D02*
D03*
Y651221D02*
D03*
X219528D02*
D03*
Y661221D02*
D03*
X229528D02*
D03*
Y671220D02*
D03*
X219528D02*
D03*
Y681220D02*
D03*
X229528D02*
D03*
X579764Y726063D02*
D03*
X589764D02*
D03*
Y716063D02*
D03*
X579764D02*
D03*
Y706063D02*
D03*
X589764D02*
D03*
Y696063D02*
D03*
X579764D02*
D03*
Y686063D02*
D03*
X589764D02*
D03*
Y676063D02*
D03*
X579764D02*
D03*
Y666063D02*
D03*
X589764D02*
D03*
Y656063D02*
D03*
X579764D02*
D03*
Y646063D02*
D03*
X589764D02*
D03*
Y636063D02*
D03*
X579764D02*
D03*
D119*
X287598Y528150D02*
D03*
X283268D02*
D03*
X287598Y532480D02*
D03*
X283268D02*
D03*
M02*
