G04 Layer_Color=32896*
%FSLAX25Y25*%
%MOIN*%
G70*
G01*
G75*
%ADD69C,0.00394*%
%ADD72C,0.00591*%
D69*
X572933Y634842D02*
Y647933D01*
X565158Y627067D02*
X572933Y634842D01*
X565158Y616634D02*
Y627067D01*
X594488Y721555D02*
Y730709D01*
X575000Y721555D02*
X594488D01*
X575000Y730709D02*
X594488D01*
X575000Y721555D02*
Y730709D01*
Y711417D02*
Y720669D01*
X594488D01*
X575000Y711417D02*
X594488D01*
Y720669D01*
X575000Y701378D02*
Y710532D01*
X594488D01*
X575000Y701378D02*
X594488D01*
Y710532D01*
X575000Y691339D02*
Y700492D01*
X594488D01*
X575000Y691339D02*
X594488D01*
Y700492D01*
X575000Y681398D02*
Y690551D01*
X584646D01*
X575000Y681398D02*
X584646D01*
Y690551D01*
Y671358D02*
Y680512D01*
X575000Y671358D02*
X584646D01*
X575000Y680512D02*
X584646D01*
X575000Y671358D02*
Y680512D01*
Y661417D02*
X584646D01*
X575000D02*
Y670571D01*
X584646Y661417D02*
Y670571D01*
X575000D02*
X584646D01*
X575000Y651476D02*
X584646D01*
X575000D02*
Y660630D01*
X584646Y651476D02*
Y660630D01*
X575000D02*
X584646D01*
Y641535D02*
Y650689D01*
X575000Y641535D02*
X584646D01*
X575000Y650689D02*
X584646D01*
X575000Y641535D02*
Y650689D01*
X584646Y641535D02*
Y650689D01*
X594488D01*
X584646Y641535D02*
X594488D01*
Y650689D01*
X575000Y631595D02*
Y640748D01*
X584646D01*
X575000Y631595D02*
X584646D01*
Y640748D01*
Y631595D02*
Y640748D01*
X594488D01*
X584646Y631595D02*
X594488D01*
Y640748D01*
D72*
X286319Y589482D02*
Y592106D01*
X285007Y593418D01*
X283695Y592106D01*
Y589482D01*
Y591450D01*
X286319D01*
X282383Y593418D02*
Y589482D01*
X280415D01*
X279759Y590138D01*
Y592762D01*
X280415Y593418D01*
X282383D01*
X278447Y589482D02*
X277135D01*
X277792D01*
Y593418D01*
X278447Y592762D01*
X275168Y588826D02*
X272544D01*
X268608Y589482D02*
X271232D01*
X268608Y592106D01*
Y592762D01*
X269264Y593418D01*
X270576D01*
X271232Y592762D01*
X267296Y589482D02*
X265984D01*
X266640D01*
Y593418D01*
X267296Y592762D01*
X570211Y657709D02*
X570867Y658365D01*
X572179D01*
X572835Y657709D01*
Y657053D01*
X572179Y656397D01*
X570867D01*
X570211Y655741D01*
Y655085D01*
X570867Y654429D01*
X572179D01*
X572835Y655085D01*
X568899Y658365D02*
Y654429D01*
X566931D01*
X566275Y655085D01*
Y657709D01*
X566931Y658365D01*
X568899D01*
X564963Y654429D02*
Y657053D01*
X563651Y658365D01*
X562339Y657053D01*
Y654429D01*
Y656397D01*
X564963D01*
X275168Y683090D02*
Y679154D01*
Y680466D01*
X272544Y683090D01*
X274512Y681122D01*
X272544Y679154D01*
X271232D02*
X269920D01*
X270576D01*
Y683090D01*
X271232Y682434D01*
X267952Y681122D02*
X265328D01*
X266640Y682434D02*
Y679810D01*
X254266Y672532D02*
X254922Y673188D01*
X256234D01*
X256890Y672532D01*
Y669909D01*
X256234Y669253D01*
X254922D01*
X254266Y669909D01*
Y671220D01*
X255578D01*
X252954Y669253D02*
Y673188D01*
X250330Y669253D01*
Y673188D01*
X249018D02*
Y669253D01*
X247050D01*
X246394Y669909D01*
Y672532D01*
X247050Y673188D01*
X249018D01*
X275168Y673227D02*
Y669291D01*
Y670603D01*
X272544Y673227D01*
X274512Y671259D01*
X272544Y669291D01*
X271232D02*
X269920D01*
X270576D01*
Y673227D01*
X271232Y672571D01*
X267952Y671259D02*
X265328D01*
X275168Y663090D02*
Y659154D01*
Y660466D01*
X272544Y663090D01*
X274512Y661122D01*
X272544Y659154D01*
X268608D02*
X271232D01*
X268608Y661778D01*
Y662434D01*
X269264Y663090D01*
X270576D01*
X271232Y662434D01*
X267296Y661122D02*
X264672D01*
X265984Y662434D02*
Y659810D01*
X256890Y681220D02*
X254266D01*
X255578Y682532D02*
Y679909D01*
X252954Y679253D02*
X251642D01*
X252298D01*
Y683188D01*
X252954Y682532D01*
X247050Y679253D02*
X249674D01*
X247050Y681876D01*
Y682532D01*
X247706Y683188D01*
X249018D01*
X249674Y682532D01*
X245739Y683188D02*
Y680564D01*
X244427Y679253D01*
X243115Y680564D01*
Y683188D01*
X570211Y677656D02*
X570867Y678312D01*
X572179D01*
X572835Y677656D01*
Y675032D01*
X572179Y674376D01*
X570867D01*
X570211Y675032D01*
X568899Y674376D02*
Y677000D01*
X567587Y678312D01*
X566275Y677000D01*
Y674376D01*
Y676344D01*
X568899D01*
X564963Y674376D02*
Y678312D01*
X562339Y674376D01*
Y678312D01*
X561027Y673721D02*
X558404D01*
X557092Y678312D02*
Y674376D01*
X554468D01*
X570309Y727492D02*
X570965Y728148D01*
X572277D01*
X572933Y727492D01*
Y724868D01*
X572277Y724213D01*
X570965D01*
X570309Y724868D01*
Y726181D01*
X571621D01*
X568997Y724213D02*
Y728148D01*
X566373Y724213D01*
Y728148D01*
X565062D02*
Y724213D01*
X563094D01*
X562438Y724868D01*
Y727492D01*
X563094Y728148D01*
X565062D01*
X570211Y707315D02*
X570867Y707971D01*
X572179D01*
X572835Y707315D01*
Y704691D01*
X572179Y704035D01*
X570867D01*
X570211Y704691D01*
Y706003D01*
X571523D01*
X568899Y704035D02*
Y707971D01*
X566275Y704035D01*
Y707971D01*
X564963D02*
Y704035D01*
X562995D01*
X562339Y704691D01*
Y707315D01*
X562995Y707971D01*
X564963D01*
X275168Y653090D02*
Y649154D01*
Y650466D01*
X272544Y653090D01*
X274512Y651122D01*
X272544Y649154D01*
X268608D02*
X271232D01*
X268608Y651778D01*
Y652434D01*
X269264Y653090D01*
X270576D01*
X271232Y652434D01*
X267296Y651122D02*
X264672D01*
X256890Y613188D02*
X254266D01*
X255578D01*
Y609253D01*
X252954Y613188D02*
X250330Y609253D01*
Y613188D02*
X252954Y609253D01*
X570211Y687302D02*
X570867Y687958D01*
X572179D01*
X572835Y687302D01*
Y684678D01*
X572179Y684022D01*
X570867D01*
X570211Y684678D01*
X568899Y684022D02*
Y686646D01*
X567587Y687958D01*
X566275Y686646D01*
Y684022D01*
Y685990D01*
X568899D01*
X564963Y684022D02*
Y687958D01*
X562339Y684022D01*
Y687958D01*
X561027Y683366D02*
X558404D01*
X557092Y687958D02*
Y684022D01*
Y685990D01*
X554468D01*
Y687958D01*
Y684022D01*
X570211Y667650D02*
X570867Y668306D01*
X572179D01*
X572835Y667650D01*
Y666994D01*
X572179Y666338D01*
X570867D01*
X570211Y665682D01*
Y665026D01*
X570867Y664370D01*
X572179D01*
X572835Y665026D01*
X566275Y667650D02*
X566931Y668306D01*
X568243D01*
X568899Y667650D01*
Y665026D01*
X568243Y664370D01*
X566931D01*
X566275Y665026D01*
X564963Y668306D02*
Y664370D01*
X562339D01*
X536156Y619717D02*
X536812Y620373D01*
X538124D01*
X538779Y619717D01*
Y617093D01*
X538124Y616437D01*
X536812D01*
X536156Y617093D01*
Y618405D01*
X537468D01*
X534844Y620373D02*
X533532D01*
X534188D01*
Y616437D01*
X534844D01*
X533532D01*
X529596Y620373D02*
X530908D01*
X531564Y619717D01*
Y617093D01*
X530908Y616437D01*
X529596D01*
X528940Y617093D01*
Y619717D01*
X529596Y620373D01*
X527628Y616437D02*
Y619061D01*
X526316Y620373D01*
X525004Y619061D01*
Y616437D01*
Y618405D01*
X527628D01*
X521069Y616437D02*
X523693D01*
X521069Y619061D01*
Y619717D01*
X521725Y620373D01*
X523037D01*
X523693Y619717D01*
X254266Y622860D02*
X254922Y623516D01*
X256234D01*
X256890Y622860D01*
Y620236D01*
X256234Y619581D01*
X254922D01*
X254266Y620236D01*
X252954Y619581D02*
Y622204D01*
X251642Y623516D01*
X250330Y622204D01*
Y619581D01*
Y621548D01*
X252954D01*
X249018Y619581D02*
Y623516D01*
X246394Y619581D01*
Y623516D01*
X245082Y618925D02*
X242459D01*
X241147Y623516D02*
Y619581D01*
Y621548D01*
X238523D01*
Y623516D01*
Y619581D01*
X254266Y652532D02*
X254922Y653188D01*
X256234D01*
X256890Y652532D01*
Y649909D01*
X256234Y649253D01*
X254922D01*
X254266Y649909D01*
Y651221D01*
X255578D01*
X252954Y649253D02*
Y653188D01*
X250330Y649253D01*
Y653188D01*
X249018D02*
Y649253D01*
X247050D01*
X246394Y649909D01*
Y652532D01*
X247050Y653188D01*
X249018D01*
X562303Y623294D02*
Y625918D01*
X560991Y627229D01*
X559679Y625918D01*
Y623294D01*
Y625262D01*
X562303D01*
X558367Y627229D02*
Y623294D01*
X556399D01*
X555744Y623950D01*
Y626574D01*
X556399Y627229D01*
X558367D01*
X554432Y623294D02*
X553120D01*
X553776D01*
Y627229D01*
X554432Y626574D01*
X551152Y622638D02*
X548528D01*
X547216Y627229D02*
X544592D01*
Y626574D01*
X547216Y623950D01*
Y623294D01*
X275168Y623090D02*
Y619154D01*
X273200D01*
X272544Y619810D01*
Y622434D01*
X273200Y623090D01*
X275168D01*
X271232Y619154D02*
Y621778D01*
X269920Y623090D01*
X268608Y621778D01*
Y619154D01*
Y621122D01*
X271232D01*
X264672Y622434D02*
X265328Y623090D01*
X266640D01*
X267296Y622434D01*
Y619810D01*
X266640Y619154D01*
X265328D01*
X264672Y619810D01*
X286319Y599482D02*
Y602106D01*
X285007Y603418D01*
X283695Y602106D01*
Y599482D01*
Y601450D01*
X286319D01*
X282383Y603418D02*
Y599482D01*
X280415D01*
X279759Y600138D01*
Y602762D01*
X280415Y603418D01*
X282383D01*
X278447Y599482D02*
X277135D01*
X277792D01*
Y603418D01*
X278447Y602762D01*
X275168Y598826D02*
X272544D01*
X268608Y599482D02*
X271232D01*
X268608Y602106D01*
Y602762D01*
X269264Y603418D01*
X270576D01*
X271232Y602762D01*
X267296D02*
X266640Y603418D01*
X265328D01*
X264672Y602762D01*
Y600138D01*
X265328Y599482D01*
X266640D01*
X267296Y600138D01*
Y602762D01*
X256890Y599253D02*
Y603188D01*
X254922D01*
X254266Y602532D01*
Y601221D01*
X254922Y600564D01*
X256890D01*
X255578D02*
X254266Y599253D01*
X252954Y603188D02*
X250330Y599253D01*
Y603188D02*
X252954Y599253D01*
X256890Y661221D02*
X254266D01*
X255578Y662532D02*
Y659909D01*
X250330Y663188D02*
X252954D01*
Y661221D01*
X251642Y661876D01*
X250986D01*
X250330Y661221D01*
Y659909D01*
X250986Y659253D01*
X252298D01*
X252954Y659909D01*
X249018Y663188D02*
Y660565D01*
X247706Y659253D01*
X246394Y660565D01*
Y663188D01*
X275168Y643090D02*
Y639154D01*
Y640466D01*
X272544Y643090D01*
X274512Y641122D01*
X272544Y639154D01*
X271232Y642434D02*
X270576Y643090D01*
X269264D01*
X268608Y642434D01*
Y641778D01*
X269264Y641122D01*
X269920D01*
X269264D01*
X268608Y640466D01*
Y639810D01*
X269264Y639154D01*
X270576D01*
X271232Y639810D01*
X267296Y641122D02*
X264672D01*
X265984Y642434D02*
Y639810D01*
X286319Y609482D02*
Y612106D01*
X285007Y613418D01*
X283695Y612106D01*
Y609482D01*
Y611450D01*
X286319D01*
X282383Y613418D02*
Y609482D01*
X280415D01*
X279759Y610138D01*
Y612762D01*
X280415Y613418D01*
X282383D01*
X278447Y609482D02*
X277135D01*
X277792D01*
Y613418D01*
X278447Y612762D01*
X275168Y608826D02*
X272544D01*
X271232Y609482D02*
X269920D01*
X270576D01*
Y613418D01*
X271232Y612762D01*
X267952Y610138D02*
X267296Y609482D01*
X265984D01*
X265328Y610138D01*
Y612762D01*
X265984Y613418D01*
X267296D01*
X267952Y612762D01*
Y612106D01*
X267296Y611450D01*
X265328D01*
X538779Y623294D02*
Y625918D01*
X537468Y627229D01*
X536156Y625918D01*
Y623294D01*
Y625262D01*
X538779D01*
X534844Y627229D02*
Y623294D01*
X532876D01*
X532220Y623950D01*
Y626574D01*
X532876Y627229D01*
X534844D01*
X530908Y623294D02*
X529596D01*
X530252D01*
Y627229D01*
X530908Y626574D01*
X527628Y622638D02*
X525004D01*
X523693Y623294D02*
X522381D01*
X523037D01*
Y627229D01*
X523693Y626574D01*
X520413D02*
X519757Y627229D01*
X518445D01*
X517789Y626574D01*
Y625918D01*
X518445Y625262D01*
X517789Y624606D01*
Y623950D01*
X518445Y623294D01*
X519757D01*
X520413Y623950D01*
Y624606D01*
X519757Y625262D01*
X520413Y625918D01*
Y626574D01*
X519757Y625262D02*
X518445D01*
X254266Y592532D02*
X254922Y593188D01*
X256234D01*
X256890Y592532D01*
Y589909D01*
X256234Y589253D01*
X254922D01*
X254266Y589909D01*
Y591221D01*
X255578D01*
X252954Y589253D02*
Y593188D01*
X250330Y589253D01*
Y593188D01*
X249018D02*
Y589253D01*
X247050D01*
X246394Y589909D01*
Y592532D01*
X247050Y593188D01*
X249018D01*
X254266Y632860D02*
X254922Y633516D01*
X256234D01*
X256890Y632860D01*
Y630236D01*
X256234Y629581D01*
X254922D01*
X254266Y630236D01*
X252954Y629581D02*
Y632204D01*
X251642Y633516D01*
X250330Y632204D01*
Y629581D01*
Y631548D01*
X252954D01*
X249018Y629581D02*
Y633516D01*
X246394Y629581D01*
Y633516D01*
X245082Y628925D02*
X242459D01*
X241147Y633516D02*
Y629581D01*
X238523D01*
X572736Y695767D02*
X570112D01*
X571424Y697079D02*
Y694455D01*
X568800Y693799D02*
X567489D01*
X568145D01*
Y697735D01*
X568800Y697079D01*
X562897Y693799D02*
X565521D01*
X562897Y696423D01*
Y697079D01*
X563553Y697735D01*
X564865D01*
X565521Y697079D01*
X561585Y697735D02*
Y695111D01*
X560273Y693799D01*
X558961Y695111D01*
Y697735D01*
X562303Y616502D02*
Y619126D01*
X560991Y620438D01*
X559679Y619126D01*
Y616502D01*
Y618470D01*
X562303D01*
X558367Y620438D02*
Y616502D01*
X556399D01*
X555744Y617158D01*
Y619782D01*
X556399Y620438D01*
X558367D01*
X554432Y616502D02*
X553120D01*
X553776D01*
Y620438D01*
X554432Y619782D01*
X551152Y615846D02*
X548528D01*
X547216Y619782D02*
X546560Y620438D01*
X545248D01*
X544592Y619782D01*
Y617158D01*
X545248Y616502D01*
X546560D01*
X547216Y617158D01*
Y619782D01*
X572638Y716043D02*
X570014D01*
X571326Y717355D02*
Y714731D01*
X566078Y718011D02*
X568702D01*
Y716043D01*
X567390Y716699D01*
X566734D01*
X566078Y716043D01*
Y714731D01*
X566734Y714075D01*
X568046D01*
X568702Y714731D01*
X564766Y718011D02*
Y715387D01*
X563454Y714075D01*
X562143Y715387D01*
Y718011D01*
X275168Y633090D02*
Y629154D01*
Y630466D01*
X272544Y633090D01*
X274512Y631122D01*
X272544Y629154D01*
X271232Y632434D02*
X270576Y633090D01*
X269264D01*
X268608Y632434D01*
Y631778D01*
X269264Y631122D01*
X269920D01*
X269264D01*
X268608Y630466D01*
Y629810D01*
X269264Y629154D01*
X270576D01*
X271232Y629810D01*
X267296Y631122D02*
X264672D01*
M02*
