G04 Layer_Color=8421504*
%FSLAX25Y25*%
%MOIN*%
G70*
G01*
G75*
%ADD11R,0.02165X0.02362*%
%ADD12O,0.05709X0.01181*%
%ADD13O,0.01181X0.05709*%
%ADD14R,0.03150X0.03150*%
%ADD15R,0.02362X0.02165*%
%ADD16R,0.02441X0.02598*%
%ADD17R,0.03150X0.03150*%
%ADD18R,0.02598X0.02441*%
%ADD19R,0.01968X0.01181*%
%ADD20R,0.01181X0.01968*%
%ADD21R,0.08268X0.08268*%
%ADD22R,0.05118X0.03543*%
%ADD23R,0.03000X0.11000*%
%ADD24R,0.05000X0.07165*%
%ADD25O,0.01772X0.05512*%
%ADD26R,0.04724X0.05315*%
%ADD27R,0.07874X0.14961*%
%ADD28R,0.07874X0.05905*%
%ADD29R,0.22441X0.06299*%
%ADD30R,0.02165X0.00984*%
%ADD31R,0.06299X0.09449*%
%ADD32R,0.02362X0.01181*%
%ADD33R,0.05866X0.09449*%
%ADD34R,0.14567X0.07874*%
%ADD35R,0.05000X0.08465*%
%ADD36R,0.08268X0.07087*%
%ADD37R,0.07165X0.05000*%
%ADD38R,0.06102X0.05118*%
%ADD39O,0.05512X0.01968*%
%ADD40O,0.01181X0.05315*%
%ADD41R,0.06299X0.13780*%
%ADD42R,0.10630X0.38583*%
%ADD43R,0.16339X0.04134*%
%ADD44R,0.02362X0.03937*%
%ADD45O,0.05905X0.02362*%
%ADD46R,0.22047X0.08268*%
%ADD47R,0.01575X0.05335*%
%ADD48R,0.01575X0.05315*%
%ADD49R,0.07087X0.07480*%
%ADD50R,0.07480X0.07480*%
%ADD51R,0.08268X0.06299*%
D11*
X499508Y823622D02*
D03*
Y826968D02*
D03*
X477854Y823622D02*
D03*
Y826968D02*
D03*
X454232Y823622D02*
D03*
Y826968D02*
D03*
X362598Y721555D02*
D03*
Y724902D02*
D03*
X363779Y677067D02*
D03*
Y680413D02*
D03*
X362205Y771555D02*
D03*
Y774902D02*
D03*
X264567Y599114D02*
D03*
Y602461D02*
D03*
X347638Y500000D02*
D03*
Y503346D02*
D03*
X491142Y575984D02*
D03*
Y572638D02*
D03*
X496358Y575984D02*
D03*
Y572638D02*
D03*
X470472Y563484D02*
D03*
Y560138D02*
D03*
X267323Y853248D02*
D03*
Y849902D02*
D03*
X276772D02*
D03*
Y853248D02*
D03*
X350394Y854823D02*
D03*
Y851476D02*
D03*
X359842D02*
D03*
Y854823D02*
D03*
X564173Y623819D02*
D03*
Y627165D02*
D03*
X357087Y680413D02*
D03*
Y677067D02*
D03*
Y724902D02*
D03*
Y721555D02*
D03*
Y774902D02*
D03*
Y771555D02*
D03*
X310630Y602461D02*
D03*
Y599114D02*
D03*
X491732Y702264D02*
D03*
Y705610D02*
D03*
X537008Y683760D02*
D03*
Y687106D02*
D03*
X555512Y683760D02*
D03*
Y687106D02*
D03*
D12*
X392776Y583445D02*
D03*
Y585413D02*
D03*
Y587382D02*
D03*
Y589350D02*
D03*
Y591319D02*
D03*
Y593287D02*
D03*
Y595256D02*
D03*
Y597224D02*
D03*
Y599193D02*
D03*
Y601161D02*
D03*
Y603130D02*
D03*
Y605098D02*
D03*
Y607067D02*
D03*
Y609035D02*
D03*
Y611004D02*
D03*
Y612972D02*
D03*
Y614941D02*
D03*
Y616909D02*
D03*
Y618878D02*
D03*
Y620847D02*
D03*
Y622815D02*
D03*
Y624783D02*
D03*
Y626752D02*
D03*
Y628721D02*
D03*
Y630689D02*
D03*
Y632657D02*
D03*
Y634626D02*
D03*
Y636594D02*
D03*
Y638563D02*
D03*
Y640531D02*
D03*
Y642500D02*
D03*
Y644468D02*
D03*
Y646437D02*
D03*
Y648406D02*
D03*
Y650374D02*
D03*
Y652343D02*
D03*
X477224D02*
D03*
Y650374D02*
D03*
Y648406D02*
D03*
Y646437D02*
D03*
Y644468D02*
D03*
Y642500D02*
D03*
Y640531D02*
D03*
Y638563D02*
D03*
Y636594D02*
D03*
Y634626D02*
D03*
Y632657D02*
D03*
Y630689D02*
D03*
Y628721D02*
D03*
Y626752D02*
D03*
Y624783D02*
D03*
Y622815D02*
D03*
Y620847D02*
D03*
Y618878D02*
D03*
Y616909D02*
D03*
Y614941D02*
D03*
Y612972D02*
D03*
Y611004D02*
D03*
Y609035D02*
D03*
Y607067D02*
D03*
Y605098D02*
D03*
Y603130D02*
D03*
Y601161D02*
D03*
Y599193D02*
D03*
Y597224D02*
D03*
Y595256D02*
D03*
Y593287D02*
D03*
Y591319D02*
D03*
Y589350D02*
D03*
Y587382D02*
D03*
Y585413D02*
D03*
Y583445D02*
D03*
D13*
X400551Y660118D02*
D03*
X402520D02*
D03*
X404488D02*
D03*
X406457D02*
D03*
X408425D02*
D03*
X410394D02*
D03*
X412362D02*
D03*
X414331D02*
D03*
X416299D02*
D03*
X418268D02*
D03*
X420236D02*
D03*
X422205D02*
D03*
X424173D02*
D03*
X426142D02*
D03*
X428110D02*
D03*
X430079D02*
D03*
X432047D02*
D03*
X434016D02*
D03*
X435984D02*
D03*
X437953D02*
D03*
X439921D02*
D03*
X441890D02*
D03*
X443858D02*
D03*
X445827D02*
D03*
X447795D02*
D03*
X449764D02*
D03*
X451732D02*
D03*
X453701D02*
D03*
X455669D02*
D03*
X457638D02*
D03*
X459606D02*
D03*
X461575D02*
D03*
X463543D02*
D03*
X465512D02*
D03*
X467480D02*
D03*
X469449D02*
D03*
Y575669D02*
D03*
X467480D02*
D03*
X465512D02*
D03*
X463543D02*
D03*
X461575D02*
D03*
X459606D02*
D03*
X457638D02*
D03*
X455669D02*
D03*
X453701D02*
D03*
X451732D02*
D03*
X449764D02*
D03*
X447795D02*
D03*
X445827D02*
D03*
X443858D02*
D03*
X441890D02*
D03*
X439921D02*
D03*
X437953D02*
D03*
X435984D02*
D03*
X434016D02*
D03*
X432047D02*
D03*
X430079D02*
D03*
X428110D02*
D03*
X426142D02*
D03*
X424173D02*
D03*
X422205D02*
D03*
X420236D02*
D03*
X418268D02*
D03*
X416299D02*
D03*
X414331D02*
D03*
X412362D02*
D03*
X410394D02*
D03*
X408425D02*
D03*
X406457D02*
D03*
X404488D02*
D03*
X402520D02*
D03*
X400551D02*
D03*
D14*
X492815Y829429D02*
D03*
Y823524D02*
D03*
X470768Y829429D02*
D03*
Y823524D02*
D03*
X446752Y829429D02*
D03*
Y823524D02*
D03*
X363779Y693898D02*
D03*
Y687992D02*
D03*
X362205Y788779D02*
D03*
Y782874D02*
D03*
X362598Y737205D02*
D03*
Y731299D02*
D03*
D15*
X448524Y496654D02*
D03*
X451870D02*
D03*
X510039Y741831D02*
D03*
X513386D02*
D03*
X521555D02*
D03*
X518209D02*
D03*
X510138Y718504D02*
D03*
X513484D02*
D03*
X488484Y598819D02*
D03*
X491831D02*
D03*
X381594Y636614D02*
D03*
X378248D02*
D03*
X269587Y581890D02*
D03*
X272933D02*
D03*
X308760Y548976D02*
D03*
X305413D02*
D03*
X509350Y544488D02*
D03*
X512697D02*
D03*
X296949Y875591D02*
D03*
X293602D02*
D03*
X380020Y875197D02*
D03*
X376673D02*
D03*
X269587Y573622D02*
D03*
X272933D02*
D03*
X273760Y662835D02*
D03*
X270413D02*
D03*
X273760Y708898D02*
D03*
X270413D02*
D03*
X273760Y756929D02*
D03*
X270413D02*
D03*
X513386Y746457D02*
D03*
X510039D02*
D03*
X518209D02*
D03*
X521555D02*
D03*
X507480Y758268D02*
D03*
X504134D02*
D03*
X510138Y688976D02*
D03*
X513484D02*
D03*
D16*
X401575Y563937D02*
D03*
Y560472D02*
D03*
X465354Y560079D02*
D03*
Y563543D02*
D03*
X501575Y576142D02*
D03*
Y572677D02*
D03*
X276772Y834410D02*
D03*
Y830945D02*
D03*
X272047Y853307D02*
D03*
Y849842D02*
D03*
X359842Y836378D02*
D03*
Y832913D02*
D03*
X355118Y854882D02*
D03*
Y851417D02*
D03*
X312402Y574350D02*
D03*
Y577815D02*
D03*
X317913D02*
D03*
Y574350D02*
D03*
X518898Y786378D02*
D03*
Y782913D02*
D03*
X406496Y560472D02*
D03*
Y563937D02*
D03*
X441732Y676260D02*
D03*
Y672795D02*
D03*
X414331Y676260D02*
D03*
Y672795D02*
D03*
X411909Y702716D02*
D03*
Y699252D02*
D03*
X264567Y545512D02*
D03*
Y548976D02*
D03*
X460236Y560079D02*
D03*
Y563543D02*
D03*
X408425Y676260D02*
D03*
Y672795D02*
D03*
X270079Y548976D02*
D03*
Y545512D02*
D03*
X305512Y599055D02*
D03*
Y602520D02*
D03*
X486614Y705669D02*
D03*
Y702205D02*
D03*
X259449Y599055D02*
D03*
Y602520D02*
D03*
D17*
X461811Y496752D02*
D03*
X467717D02*
D03*
X291575Y662835D02*
D03*
X285669D02*
D03*
X291575Y708898D02*
D03*
X285669D02*
D03*
X291575Y756929D02*
D03*
X285669D02*
D03*
D18*
X415413Y709842D02*
D03*
X411949D02*
D03*
X491988Y593012D02*
D03*
X488524D02*
D03*
X491890Y603543D02*
D03*
X488425D02*
D03*
X276535Y844488D02*
D03*
X273071D02*
D03*
X276535Y839764D02*
D03*
X273071D02*
D03*
X359606Y846457D02*
D03*
X356142D02*
D03*
X359606Y841732D02*
D03*
X356142D02*
D03*
X491890Y636089D02*
D03*
X488425D02*
D03*
X378189Y585433D02*
D03*
X381653D02*
D03*
X378189Y594095D02*
D03*
X381653D02*
D03*
X378189Y642520D02*
D03*
X381653D02*
D03*
X378189Y624803D02*
D03*
X381653D02*
D03*
X491890Y616142D02*
D03*
X488425D02*
D03*
X491890Y608268D02*
D03*
X488425D02*
D03*
X378189Y599213D02*
D03*
X381653D02*
D03*
X491890Y588386D02*
D03*
X488425D02*
D03*
X378189Y604331D02*
D03*
X381653D02*
D03*
X378189Y630709D02*
D03*
X381653D02*
D03*
X491890Y651181D02*
D03*
X488425D02*
D03*
X521496Y524016D02*
D03*
X524961D02*
D03*
X298268Y581890D02*
D03*
X301732D02*
D03*
X301732Y573622D02*
D03*
X298268D02*
D03*
X491890Y621129D02*
D03*
X488425D02*
D03*
X491890Y641076D02*
D03*
X488425D02*
D03*
X491890Y626116D02*
D03*
X488425D02*
D03*
X491890Y646063D02*
D03*
X488425D02*
D03*
X423465Y554724D02*
D03*
X426929D02*
D03*
X448583D02*
D03*
X445118D02*
D03*
X491890Y631102D02*
D03*
X488425D02*
D03*
D19*
X276575Y534154D02*
D03*
Y531595D02*
D03*
Y529035D02*
D03*
Y526476D02*
D03*
X294291D02*
D03*
Y529035D02*
D03*
Y531595D02*
D03*
Y534154D02*
D03*
D20*
X281594Y521457D02*
D03*
X284154D02*
D03*
X286713D02*
D03*
X289272D02*
D03*
Y539173D02*
D03*
X286713D02*
D03*
X284154D02*
D03*
X281594D02*
D03*
D21*
X285433Y530315D02*
D03*
D22*
X315748Y519095D02*
D03*
Y526575D02*
D03*
X305118Y519095D02*
D03*
Y526575D02*
D03*
D23*
X379961Y500394D02*
D03*
X374961D02*
D03*
X369961D02*
D03*
X364961D02*
D03*
X359961D02*
D03*
Y516378D02*
D03*
X364961D02*
D03*
X369961D02*
D03*
X374961D02*
D03*
X379961D02*
D03*
D24*
X322126Y499705D02*
D03*
X305433D02*
D03*
D25*
X507677Y552756D02*
D03*
X510236D02*
D03*
X512795D02*
D03*
X515354D02*
D03*
X517913D02*
D03*
X520472D02*
D03*
X523032D02*
D03*
X525591D02*
D03*
X507677Y575984D02*
D03*
X510236D02*
D03*
X512795D02*
D03*
X515354D02*
D03*
X517913D02*
D03*
X520472D02*
D03*
X523032D02*
D03*
X525591D02*
D03*
D26*
X375197Y868110D02*
D03*
X381496D02*
D03*
X292126Y868110D02*
D03*
X298425D02*
D03*
X292126Y858661D02*
D03*
X298425D02*
D03*
X292126Y828740D02*
D03*
X298425D02*
D03*
X292126Y819291D02*
D03*
X298425D02*
D03*
X375197Y858661D02*
D03*
X381496D02*
D03*
X375197Y828740D02*
D03*
X381496D02*
D03*
X375197Y819291D02*
D03*
X381496D02*
D03*
D27*
X322480Y686063D02*
D03*
Y730551D02*
D03*
Y780551D02*
D03*
D28*
X347284Y695118D02*
D03*
Y686063D02*
D03*
Y677008D02*
D03*
Y739606D02*
D03*
Y730551D02*
D03*
Y721496D02*
D03*
Y789606D02*
D03*
Y780551D02*
D03*
Y771496D02*
D03*
D29*
X319685Y842717D02*
D03*
Y824213D02*
D03*
X403150Y842717D02*
D03*
Y824213D02*
D03*
D30*
X285335Y847638D02*
D03*
Y845669D02*
D03*
Y843701D02*
D03*
Y841732D02*
D03*
Y839764D02*
D03*
X298130D02*
D03*
Y841732D02*
D03*
Y843701D02*
D03*
Y845669D02*
D03*
Y847638D02*
D03*
X381201D02*
D03*
Y845669D02*
D03*
Y843701D02*
D03*
Y841732D02*
D03*
Y839764D02*
D03*
X368406D02*
D03*
Y841732D02*
D03*
Y843701D02*
D03*
Y845669D02*
D03*
Y847638D02*
D03*
D31*
X291634Y843701D02*
D03*
X374705D02*
D03*
D32*
X279921Y581004D02*
D03*
Y578445D02*
D03*
Y575886D02*
D03*
Y573327D02*
D03*
X290945Y581004D02*
D03*
Y578445D02*
D03*
Y575886D02*
D03*
Y573327D02*
D03*
D33*
X285433Y577165D02*
D03*
D34*
X449713Y855512D02*
D03*
X471654D02*
D03*
X493701D02*
D03*
Y870366D02*
D03*
X471707D02*
D03*
X449713D02*
D03*
X433071Y704331D02*
D03*
X260630Y627559D02*
D03*
D35*
X271260Y780709D02*
D03*
X256299D02*
D03*
X288976Y686614D02*
D03*
X303937D02*
D03*
X288976Y731102D02*
D03*
X303937D02*
D03*
X288976Y780709D02*
D03*
X303937D02*
D03*
X271260Y686614D02*
D03*
X256299D02*
D03*
X271260Y731102D02*
D03*
X256299D02*
D03*
D36*
X529823Y616142D02*
D03*
X547146D02*
D03*
X450000Y702362D02*
D03*
X467323D02*
D03*
D37*
X254724Y548976D02*
D03*
Y532283D02*
D03*
D38*
X547146Y499409D02*
D03*
X515846D02*
D03*
X547146Y517126D02*
D03*
X515846D02*
D03*
D39*
X276772Y610138D02*
D03*
Y607579D02*
D03*
Y605020D02*
D03*
Y602461D02*
D03*
X294094Y610138D02*
D03*
Y607579D02*
D03*
Y605020D02*
D03*
Y602461D02*
D03*
D40*
X511417Y782776D02*
D03*
X509449D02*
D03*
X507480D02*
D03*
X505512D02*
D03*
X503543D02*
D03*
X511417Y765256D02*
D03*
X509449D02*
D03*
X507480D02*
D03*
X505512D02*
D03*
X503543D02*
D03*
D41*
X514961Y808268D02*
D03*
X493701D02*
D03*
D42*
X590945Y775984D02*
D03*
D43*
X538779Y765984D02*
D03*
Y785984D02*
D03*
D44*
X403740Y709646D02*
D03*
X400000D02*
D03*
X396260D02*
D03*
Y699016D02*
D03*
X403740D02*
D03*
D45*
X522835Y697224D02*
D03*
Y702224D02*
D03*
Y707224D02*
D03*
Y712224D02*
D03*
X501575Y697224D02*
D03*
Y702224D02*
D03*
Y707224D02*
D03*
Y712224D02*
D03*
D46*
X416732Y531102D02*
D03*
X454134D02*
D03*
D47*
X271850Y509350D02*
D03*
D48*
X274410D02*
D03*
X276969D02*
D03*
X279528D02*
D03*
X269291D02*
D03*
D49*
X289370Y498819D02*
D03*
X259449Y498819D02*
D03*
D50*
X279134D02*
D03*
X269685D02*
D03*
D51*
X286614Y508858D02*
D03*
X262205Y508858D02*
D03*
M02*
