G04 Layer_Color=16711935*
%FSLAX25Y25*%
%MOIN*%
G70*
G01*
G75*
%ADD59C,0.00394*%
%ADD112C,0.07099*%
%ADD113C,0.00800*%
%ADD114C,0.08280*%
%ADD115C,0.09461*%
%ADD116C,0.28359*%
%ADD117C,0.02768*%
D59*
X600000Y875830D02*
G03*
X590003Y885827I-9997J0D01*
G01*
X589928Y492126D02*
G03*
X600000Y502198I0J10072D01*
G01*
X206299D02*
G03*
X216371Y492126I10072J0D01*
G01*
X216371Y885827D02*
G03*
X206299Y875755I0J-10072D01*
G01*
X218110Y885827D02*
X590003D01*
X600000Y874016D02*
Y875830D01*
Y502198D02*
Y874016D01*
X216371Y492126D02*
X589928D01*
X206299Y502198D02*
Y508268D01*
Y875755D01*
X216371Y885827D02*
X218110D01*
D112*
X558898Y603071D02*
D03*
Y593071D02*
D03*
Y563071D02*
D03*
Y583071D02*
D03*
Y573071D02*
D03*
Y553071D02*
D03*
Y543071D02*
D03*
Y533071D02*
D03*
X568898D02*
D03*
Y543071D02*
D03*
Y553071D02*
D03*
Y573071D02*
D03*
Y583071D02*
D03*
Y563071D02*
D03*
Y593071D02*
D03*
Y603071D02*
D03*
X540945Y638819D02*
D03*
Y648819D02*
D03*
Y658819D02*
D03*
X233071Y536850D02*
D03*
Y546850D02*
D03*
Y556850D02*
D03*
X333858Y599213D02*
D03*
Y609213D02*
D03*
Y619213D02*
D03*
Y629213D02*
D03*
X537008Y699055D02*
D03*
Y709055D02*
D03*
X555512Y699055D02*
D03*
Y709055D02*
D03*
D113*
X584764Y626063D02*
D03*
Y736063D02*
D03*
X224528Y691221D02*
D03*
Y581220D02*
D03*
X588189Y819685D02*
D03*
D114*
X579764Y636063D02*
D03*
X589764D02*
D03*
Y646063D02*
D03*
X579764D02*
D03*
Y656063D02*
D03*
X589764D02*
D03*
Y666063D02*
D03*
X579764D02*
D03*
Y676063D02*
D03*
X589764D02*
D03*
Y686063D02*
D03*
X579764D02*
D03*
Y696063D02*
D03*
X589764D02*
D03*
Y706063D02*
D03*
X579764D02*
D03*
Y716063D02*
D03*
X589764D02*
D03*
Y726063D02*
D03*
X579764D02*
D03*
X229528Y681220D02*
D03*
X219528D02*
D03*
Y671220D02*
D03*
X229528D02*
D03*
Y661221D02*
D03*
X219528D02*
D03*
Y651221D02*
D03*
X229528D02*
D03*
Y641221D02*
D03*
X219528D02*
D03*
Y631220D02*
D03*
X229528D02*
D03*
Y621220D02*
D03*
X219528D02*
D03*
Y611221D02*
D03*
X229528D02*
D03*
Y601221D02*
D03*
X219528D02*
D03*
Y591221D02*
D03*
X229528D02*
D03*
D115*
X559449Y819685D02*
D03*
X537795D02*
D03*
D116*
X582677Y868110D02*
D03*
X225197Y510236D02*
D03*
X583465Y509449D02*
D03*
X224410Y867717D02*
D03*
D117*
X283268Y532480D02*
D03*
X287598D02*
D03*
X283268Y528150D02*
D03*
X287598D02*
D03*
M02*
