M48
;Layer_Color=9474304
;FILE_FORMAT=2:5
INCH,LZ
;TYPE=PLATED
T1F00S00C0.01575
T2F00S00C0.03346
T3F00S00C0.04331
T4F00S00C0.04370
T5F00S00C0.04528
T6F00S00C0.15748
%
T01
X0582677Y0074803
X050748Y0088976
X0545168Y0194488
X0442913Y0173247
X043937Y0163247
X0435827Y0153247
X0417323Y0154331
X0409449Y0164567
X0412598Y0134646
X0487086Y0120472
X049252
Y0112127
X0487086Y0112127
Y0104015
X049252Y0099015
X0470472Y0094095
X0457087Y0235494
X0307086Y0199607
X031642Y0179134
X032642Y0169607
X0159843Y0274803
X0142856Y0282127
X0099513Y0285433
X0099372Y0317023
X0102756Y0328346
X0112221Y0323624
X0114566Y0312178
X0078642Y0312017
X0081086Y0330698
X0092069Y03363
X0089116Y0341576
X0103956Y0353563
X0112618Y035376
X0121398Y0345058
X0127823
X0138503Y0352147
X0138505Y0356477
X0136774Y037183
X0132873Y0377595
X0112614Y038419
X0103952Y0384387
X0076632Y0372282
X0162598Y0376378
X0165748Y0370079
X0159843Y0363331
X0156219Y03363
X0188976Y032441
X0198425Y0285039
X0307086Y0364567
X0457087Y0345276
X045962Y0319092
X045647Y0312697
X045315Y0302362
X0469066Y0298085
X0481092Y0291732
X0480643Y0307677
X0492695Y0320372
X0492477Y0277123
X0481092Y0263189
Y024713
X0469066Y0253483
X045315Y0258561
X045647Y0268305
X045962Y0273029
X0502672Y0247973
X0501982Y0389621
X050318Y0339607
X0503676Y0326978
X0508714
X0513752
X0512235Y0292359
X050318Y0292162
X0503873Y0282096
X0508911
X0513949
X0512121Y024817
X0504806Y043949
X0504806Y0449194
Y0459666
X030642Y0409727
X0211811Y0532677
X0102469Y0451753
X0077559Y0456871
X0075984Y0428722
X0117323Y0428759
X0195981Y0563544
X0211807
T02
X0017715Y0117242
Y0125116
Y013299
Y0140864
Y0148738
Y0156612
Y0164486
Y017236
Y0180234
Y0188108
Y0195982
X0025589
Y0188108
Y0180234
Y017236
Y0164486
Y0156612
Y0148738
Y0140864
Y013299
Y0125116
Y0117242
T03
X0176183Y0009607
Y0019607
Y0029607
Y0039607
Y0049607
Y0059607
Y0069607
Y0079607
X0426183
Y0069607
Y0059607
Y0049607
Y0039607
Y0029607
Y0019607
Y0009607
Y0089607
Y0099607
Y0109607
Y0119607
Y0129607
Y0139607
Y0149607
Y0159607
Y0169607
Y0179607
Y0189607
Y0199607
Y0209607
Y0219607
Y0229607
X0176183
Y0219607
Y0209607
Y0199607
Y0189607
Y0179607
Y0169607
Y0159607
Y0149607
Y0139607
Y0129607
Y0119607
Y0109607
Y0099607
Y0089607
Y0239607
Y0249607
Y0259607
Y0269607
Y0279607
Y0289607
Y0299607
Y0309607
Y0319607
Y0329607
Y0339607
Y0349607
Y0359607
Y0369607
Y0379607
Y0389607
X0426183
Y0379607
Y0369607
Y0359607
Y0349607
Y0339607
Y0329607
Y0319607
Y0309607
Y0299607
Y0289607
Y0279607
Y0269607
Y0259607
Y0249607
Y0239607
Y0399607
Y0409607
Y0419607
Y0429607
Y0439607
Y0449607
Y0459607
Y0469607
Y0479607
Y0489607
Y0499607
X0176183
Y0489607
Y0479607
Y0469607
Y0459607
Y0449607
Y0439607
Y0429607
Y0419607
Y0409607
Y0399607
T04
X0564557Y0123247
Y0133247
Y0143247
Y0153247
Y0163247
Y0173247
Y0183247
Y0193247
Y0203247
Y0213247
X0574557
Y0203247
Y0193247
Y0183247
Y0173247
Y0163247
Y0153247
Y0143247
Y0133247
Y0123247
X0038067Y0340412
Y0350413
Y0360413
Y0370412
Y0380413
Y0390412
X0564557Y0357046
Y0347046
Y0337046
Y0327046
Y0317046
Y0307046
Y0297046
Y0287046
Y0277046
Y0267046
X0574557
Y0277046
Y0287046
Y0297046
Y0307046
Y0317046
Y0327046
Y0337046
Y0347046
Y0357046
X032642Y0539959
X031642
X030642
X029642
X028642
X027642
X0038067Y0490413
Y0480412
Y0470412
Y0460413
Y0450413
Y0440413
Y0430412
Y0420412
Y0410413
Y0400413
T05
X0525589Y008889
Y009889
T06
X0015748Y0015748
X0574803
X0015748Y0574803
X0574803
M30
