G04*
G04 #@! TF.GenerationSoftware,Altium Limited,Altium Designer,18.1.11 (251)*
G04*
G04 Layer_Physical_Order=1*
G04 Layer_Color=255*
%FSLAX25Y25*%
%MOIN*%
G70*
G01*
G75*
%ADD17C,0.00984*%
%ADD18C,0.01968*%
%ADD19C,0.02756*%
%ADD20C,0.05512*%
%ADD21C,0.06693*%
%ADD22C,0.23622*%
%ADD23C,0.02756*%
G36*
X15748Y586614D02*
X574803Y586614D01*
X574803Y586614D01*
X574803Y586614D01*
X575577Y586614D01*
X577112Y586412D01*
X578608Y586011D01*
X580038Y585419D01*
X581379Y584645D01*
X582607Y583702D01*
X583702Y582607D01*
X584645Y581379D01*
X585419Y580038D01*
X586011Y578608D01*
X586412Y577112D01*
X586614Y575577D01*
X586614Y574803D01*
X586614Y327848D01*
X586114Y327640D01*
X578514Y335241D01*
X578792Y335911D01*
X578941Y337046D01*
X578792Y338181D01*
X578354Y339238D01*
X577657Y340146D01*
X576749Y340843D01*
X575692Y341281D01*
X574557Y341430D01*
X573422Y341281D01*
X572365Y340843D01*
X571457Y340146D01*
X570760Y339238D01*
X570322Y338181D01*
X570173Y337046D01*
X570322Y335911D01*
X570760Y334854D01*
X571457Y333946D01*
X572365Y333249D01*
X573422Y332811D01*
X574557Y332662D01*
X575692Y332811D01*
X576362Y333089D01*
X583912Y325540D01*
X583912Y78189D01*
X582905Y77182D01*
X582677Y77228D01*
X581749Y77043D01*
X580963Y76518D01*
X580437Y75731D01*
X580253Y74803D01*
X580437Y73875D01*
X580963Y73089D01*
X581749Y72563D01*
X582677Y72379D01*
X583605Y72563D01*
X584392Y73089D01*
X584917Y73875D01*
X585102Y74803D01*
X585056Y75031D01*
X586114Y76089D01*
X586614Y75881D01*
Y15748D01*
X586614Y15748D01*
Y14974D01*
X586412Y13439D01*
X586011Y11943D01*
X585419Y10513D01*
X584645Y9172D01*
X583702Y7944D01*
X582607Y6849D01*
X581379Y5906D01*
X580038Y5132D01*
X578608Y4540D01*
X577112Y4139D01*
X575577Y3937D01*
X15748D01*
X14974Y3937D01*
X13439Y4139D01*
X11943Y4540D01*
X10513Y5132D01*
X9172Y5906D01*
X7944Y6849D01*
X6849Y7944D01*
X5906Y9172D01*
X5132Y10513D01*
X4540Y11943D01*
X4139Y13439D01*
X3937Y14974D01*
X3937Y15748D01*
Y574803D01*
X3937Y575577D01*
X4139Y577112D01*
X4540Y578608D01*
X5132Y580038D01*
X5906Y581379D01*
X6849Y582608D01*
X7944Y583702D01*
X9172Y584645D01*
X10513Y585419D01*
X11943Y586011D01*
X13439Y586412D01*
X14974Y586614D01*
X15748Y586614D01*
D02*
G37*
%LPC*%
G36*
X296420Y544343D02*
X295285Y544193D01*
X294228Y543755D01*
X293320Y543059D01*
X292623Y542151D01*
X292185Y541093D01*
X292036Y539959D01*
X292185Y538824D01*
X292623Y537767D01*
X293320Y536859D01*
X294228Y536162D01*
X295285Y535724D01*
X296420Y535575D01*
X297554Y535724D01*
X298612Y536162D01*
X299520Y536859D01*
X300216Y537767D01*
X300654Y538824D01*
X300804Y539959D01*
X300654Y541093D01*
X300216Y542151D01*
X299520Y543059D01*
X298612Y543755D01*
X297554Y544193D01*
X296420Y544343D01*
D02*
G37*
G36*
X276420D02*
X275285Y544193D01*
X274228Y543755D01*
X273320Y543059D01*
X272623Y542151D01*
X272185Y541093D01*
X272036Y539959D01*
X272185Y538824D01*
X272623Y537767D01*
X273320Y536859D01*
X274228Y536162D01*
X275285Y535724D01*
X276420Y535575D01*
X277554Y535724D01*
X278612Y536162D01*
X279520Y536859D01*
X280216Y537767D01*
X280654Y538824D01*
X280804Y539959D01*
X280654Y541093D01*
X280216Y542151D01*
X279520Y543059D01*
X278612Y543755D01*
X277554Y544193D01*
X276420Y544343D01*
D02*
G37*
G36*
X176183Y503991D02*
X175049Y503841D01*
X173991Y503403D01*
X173083Y502707D01*
X172565Y502031D01*
X148426D01*
X147498Y501847D01*
X146711Y501321D01*
X115608Y470218D01*
X115083Y469432D01*
X114898Y468504D01*
Y428759D01*
Y349134D01*
X115083Y348206D01*
X115608Y347419D01*
X119684Y343344D01*
X120471Y342818D01*
X121398Y342634D01*
X122326Y342818D01*
X123113Y343344D01*
X123638Y344130D01*
X123823Y345058D01*
X123638Y345986D01*
X123113Y346773D01*
X119747Y350138D01*
Y428759D01*
Y467500D01*
X149430Y497182D01*
X172565D01*
X173083Y496507D01*
X173991Y495810D01*
X175049Y495372D01*
X176183Y495223D01*
X177318Y495372D01*
X178375Y495810D01*
X179283Y496507D01*
X179980Y497415D01*
X180418Y498472D01*
X180567Y499607D01*
X180418Y500741D01*
X179980Y501799D01*
X179283Y502707D01*
X178375Y503403D01*
X177318Y503841D01*
X176183Y503991D01*
D02*
G37*
G36*
X38067Y494797D02*
X36932Y494647D01*
X35875Y494209D01*
X34967Y493512D01*
X34270Y492604D01*
X33832Y491547D01*
X33683Y490413D01*
X33832Y489278D01*
X34270Y488221D01*
X34967Y487313D01*
X35875Y486616D01*
X36932Y486178D01*
X38067Y486029D01*
X39201Y486178D01*
X40259Y486616D01*
X41167Y487313D01*
X41863Y488221D01*
X42301Y489278D01*
X42451Y490413D01*
X42301Y491547D01*
X41863Y492604D01*
X41167Y493512D01*
X40259Y494209D01*
X39201Y494647D01*
X38067Y494797D01*
D02*
G37*
G36*
X426183Y503991D02*
X425049Y503841D01*
X423991Y503403D01*
X423083Y502707D01*
X422387Y501799D01*
X421949Y500741D01*
X421800Y499607D01*
X421949Y498472D01*
X422387Y497415D01*
X423083Y496507D01*
X423991Y495810D01*
X425049Y495372D01*
X426183Y495223D01*
X427318Y495372D01*
X428375Y495810D01*
X429283Y496507D01*
X429802Y497182D01*
X471043D01*
X471181Y497044D01*
Y481630D01*
X430050D01*
X429980Y481799D01*
X429283Y482707D01*
X428375Y483403D01*
X427318Y483841D01*
X426183Y483991D01*
X425049Y483841D01*
X423991Y483403D01*
X423083Y482707D01*
X422387Y481799D01*
X421949Y480741D01*
X421800Y479607D01*
X421949Y478472D01*
X422387Y477415D01*
X423083Y476507D01*
X423991Y475810D01*
X425049Y475372D01*
X426183Y475223D01*
X427318Y475372D01*
X428375Y475810D01*
X429283Y476507D01*
X429980Y477415D01*
X430050Y477584D01*
X470343D01*
X485063Y462864D01*
Y121725D01*
X484846Y121400D01*
X484661Y120472D01*
X484846Y119545D01*
X485073Y119204D01*
X484837Y118763D01*
X457010D01*
X448765Y127008D01*
Y198546D01*
X448765Y198546D01*
X448650Y199128D01*
X448320Y199622D01*
X448320Y199622D01*
X430140Y217801D01*
X430418Y218472D01*
X430567Y219607D01*
X430418Y220741D01*
X429980Y221799D01*
X429283Y222707D01*
X428375Y223403D01*
X427318Y223841D01*
X426183Y223991D01*
X425049Y223841D01*
X423991Y223403D01*
X423083Y222707D01*
X422387Y221799D01*
X421949Y220741D01*
X421800Y219607D01*
X421949Y218472D01*
X422387Y217415D01*
X423083Y216507D01*
X423991Y215810D01*
X425049Y215372D01*
X426183Y215223D01*
X427318Y215372D01*
X427989Y215650D01*
X445723Y197916D01*
Y173875D01*
X445223Y173826D01*
X445153Y174175D01*
X444628Y174961D01*
X443841Y175487D01*
X442913Y175671D01*
X441986Y175487D01*
X441199Y174961D01*
X440673Y174175D01*
X440489Y173247D01*
X440673Y172319D01*
X441199Y171532D01*
X441392Y171404D01*
Y165332D01*
X440892Y165090D01*
X440298Y165487D01*
X439370Y165671D01*
X438442Y165487D01*
X437656Y164961D01*
X437130Y164175D01*
X436945Y163247D01*
X437130Y162319D01*
X437656Y161532D01*
X437849Y161404D01*
Y155333D01*
X437349Y155090D01*
X436755Y155487D01*
X435827Y155671D01*
X434899Y155487D01*
X434112Y154961D01*
X433587Y154175D01*
X433402Y153247D01*
X433587Y152319D01*
X434112Y151532D01*
X434305Y151403D01*
Y149880D01*
X427989Y143563D01*
X427318Y143841D01*
X426183Y143991D01*
X425049Y143841D01*
X423991Y143403D01*
X423083Y142707D01*
X422387Y141799D01*
X421949Y140741D01*
X421800Y139607D01*
X421949Y138472D01*
X422387Y137415D01*
X423083Y136507D01*
X423991Y135810D01*
X425049Y135372D01*
X426183Y135223D01*
X427318Y135372D01*
X428375Y135810D01*
X429283Y136507D01*
X429980Y137415D01*
X430418Y138472D01*
X430567Y139607D01*
X430418Y140741D01*
X430140Y141412D01*
X436903Y148174D01*
X436903Y148174D01*
X437232Y148668D01*
X437348Y149250D01*
X437348Y149250D01*
Y150848D01*
X437349Y150849D01*
X437849Y150572D01*
Y143423D01*
X427989Y133563D01*
X427318Y133841D01*
X426183Y133991D01*
X425049Y133841D01*
X423991Y133403D01*
X423083Y132707D01*
X422387Y131799D01*
X421949Y130741D01*
X421800Y129607D01*
X421949Y128472D01*
X422387Y127415D01*
X423083Y126507D01*
X423991Y125810D01*
X425049Y125372D01*
X426183Y125223D01*
X427318Y125372D01*
X428375Y125810D01*
X429283Y126507D01*
X429980Y127415D01*
X430418Y128472D01*
X430567Y129607D01*
X430418Y130741D01*
X430140Y131412D01*
X440446Y141718D01*
X440446Y141718D01*
X440776Y142211D01*
X440891Y142793D01*
Y160848D01*
X440892Y160849D01*
X441392Y160572D01*
Y126967D01*
X427989Y113564D01*
X427318Y113841D01*
X426183Y113991D01*
X425049Y113841D01*
X423991Y113403D01*
X423083Y112707D01*
X422387Y111799D01*
X421949Y110741D01*
X421800Y109607D01*
X421949Y108472D01*
X422387Y107415D01*
X423083Y106507D01*
X423991Y105810D01*
X425049Y105372D01*
X426183Y105223D01*
X427318Y105372D01*
X428375Y105810D01*
X429283Y106507D01*
X429980Y107415D01*
X430418Y108472D01*
X430567Y109607D01*
X430418Y110741D01*
X430140Y111412D01*
X443989Y125261D01*
X444319Y125754D01*
X444435Y126337D01*
Y171404D01*
X444628Y171532D01*
X445153Y172319D01*
X445223Y172668D01*
X445723Y172619D01*
Y126378D01*
X445839Y125796D01*
X446168Y125302D01*
X455304Y116166D01*
X455798Y115836D01*
X456380Y115721D01*
X568552D01*
X569134Y115836D01*
X569628Y116166D01*
X572752Y119290D01*
X573422Y119012D01*
X574557Y118863D01*
X575692Y119012D01*
X576749Y119450D01*
X577657Y120147D01*
X578354Y121055D01*
X578792Y122112D01*
X578941Y123247D01*
X578792Y124381D01*
X578354Y125439D01*
X577657Y126347D01*
X576749Y127043D01*
X575692Y127481D01*
X574557Y127631D01*
X573422Y127481D01*
X572365Y127043D01*
X571457Y126347D01*
X570760Y125439D01*
X570322Y124381D01*
X570173Y123247D01*
X570322Y122112D01*
X570600Y121442D01*
X567922Y118763D01*
X566397D01*
X566297Y119263D01*
X566749Y119450D01*
X567657Y120147D01*
X568354Y121055D01*
X568791Y122112D01*
X568941Y123247D01*
X568791Y124381D01*
X568354Y125439D01*
X567657Y126347D01*
X566749Y127043D01*
X565692Y127481D01*
X564557Y127631D01*
X563422Y127481D01*
X562365Y127043D01*
X561457Y126347D01*
X560760Y125439D01*
X560322Y124381D01*
X560173Y123247D01*
X560322Y122112D01*
X560760Y121055D01*
X561457Y120147D01*
X562365Y119450D01*
X562816Y119263D01*
X562717Y118763D01*
X494768D01*
X494532Y119204D01*
X494760Y119545D01*
X494944Y120472D01*
Y277080D01*
X494902Y277292D01*
X495120Y320360D01*
X495118Y320366D01*
X495120Y320372D01*
Y478959D01*
X494935Y479886D01*
X494410Y480673D01*
X473761Y501321D01*
X472975Y501847D01*
X472047Y502031D01*
X429802D01*
X429283Y502707D01*
X428375Y503403D01*
X427318Y503841D01*
X426183Y503991D01*
D02*
G37*
G36*
X38067Y484796D02*
X36932Y484647D01*
X35875Y484209D01*
X34967Y483512D01*
X34270Y482605D01*
X33832Y481547D01*
X33683Y480412D01*
X33832Y479278D01*
X34270Y478221D01*
X34967Y477313D01*
X35875Y476616D01*
X36932Y476178D01*
X38067Y476029D01*
X39201Y476178D01*
X40259Y476616D01*
X41167Y477313D01*
X41863Y478221D01*
X42301Y479278D01*
X42451Y480412D01*
X42301Y481547D01*
X41863Y482605D01*
X41167Y483512D01*
X40259Y484209D01*
X39201Y484647D01*
X38067Y484796D01*
D02*
G37*
G36*
X176183Y483991D02*
X175049Y483841D01*
X173991Y483403D01*
X173083Y482707D01*
X172387Y481799D01*
X171949Y480741D01*
X171800Y479607D01*
X171949Y478472D01*
X172387Y477415D01*
X173083Y476507D01*
X173991Y475810D01*
X175049Y475372D01*
X176183Y475223D01*
X177318Y475372D01*
X178375Y475810D01*
X179283Y476507D01*
X179980Y477415D01*
X180418Y478472D01*
X180567Y479607D01*
X180418Y480741D01*
X179980Y481799D01*
X179283Y482707D01*
X178375Y483403D01*
X177318Y483841D01*
X176183Y483991D01*
D02*
G37*
G36*
X38067Y474796D02*
X36932Y474647D01*
X35875Y474209D01*
X34967Y473513D01*
X34270Y472605D01*
X33832Y471547D01*
X33683Y470412D01*
X33832Y469278D01*
X34270Y468221D01*
X34967Y467313D01*
X35875Y466616D01*
X36932Y466178D01*
X38067Y466029D01*
X39201Y466178D01*
X40259Y466616D01*
X41167Y467313D01*
X41863Y468221D01*
X42301Y469278D01*
X42451Y470412D01*
X42301Y471547D01*
X41863Y472605D01*
X41167Y473513D01*
X40259Y474209D01*
X39201Y474647D01*
X38067Y474796D01*
D02*
G37*
G36*
Y464796D02*
X36932Y464647D01*
X35875Y464209D01*
X34967Y463513D01*
X34270Y462605D01*
X33832Y461547D01*
X33683Y460413D01*
X33832Y459278D01*
X34270Y458221D01*
X34967Y457313D01*
X35875Y456616D01*
X36932Y456178D01*
X38067Y456029D01*
X39201Y456178D01*
X40259Y456616D01*
X41167Y457313D01*
X41863Y458221D01*
X42301Y459278D01*
X42451Y460413D01*
X42301Y461547D01*
X41863Y462605D01*
X41167Y463513D01*
X40259Y464209D01*
X39201Y464647D01*
X38067Y464796D01*
D02*
G37*
G36*
X426183Y463991D02*
X425049Y463841D01*
X423991Y463403D01*
X423083Y462707D01*
X422387Y461799D01*
X421949Y460741D01*
X421800Y459607D01*
X421949Y458472D01*
X422387Y457415D01*
X423083Y456507D01*
X423991Y455810D01*
X425049Y455372D01*
X426183Y455223D01*
X427318Y455372D01*
X428375Y455810D01*
X429283Y456507D01*
X429980Y457415D01*
X430418Y458472D01*
X430567Y459607D01*
X430418Y460741D01*
X429980Y461799D01*
X429283Y462707D01*
X428375Y463403D01*
X427318Y463841D01*
X426183Y463991D01*
D02*
G37*
G36*
X176183D02*
X175049Y463841D01*
X173991Y463403D01*
X173083Y462707D01*
X172387Y461799D01*
X171949Y460741D01*
X171800Y459607D01*
X171949Y458472D01*
X172387Y457415D01*
X173083Y456507D01*
X173991Y455810D01*
X175049Y455372D01*
X176183Y455223D01*
X177318Y455372D01*
X178375Y455810D01*
X179283Y456507D01*
X179980Y457415D01*
X180418Y458472D01*
X180567Y459607D01*
X180418Y460741D01*
X179980Y461799D01*
X179283Y462707D01*
X178375Y463403D01*
X177318Y463841D01*
X176183Y463991D01*
D02*
G37*
G36*
X38067Y454797D02*
X36932Y454647D01*
X35875Y454209D01*
X34967Y453512D01*
X34270Y452604D01*
X33832Y451547D01*
X33683Y450413D01*
X33832Y449278D01*
X34270Y448221D01*
X34967Y447313D01*
X35875Y446616D01*
X36932Y446178D01*
X38067Y446029D01*
X39201Y446178D01*
X40259Y446616D01*
X41167Y447313D01*
X41863Y448221D01*
X42301Y449278D01*
X42451Y450413D01*
X42301Y451547D01*
X41863Y452604D01*
X41167Y453512D01*
X40259Y454209D01*
X39201Y454647D01*
X38067Y454797D01*
D02*
G37*
G36*
X426183Y453991D02*
X425049Y453841D01*
X423991Y453403D01*
X423083Y452707D01*
X422387Y451799D01*
X421949Y450741D01*
X421800Y449607D01*
X421949Y448472D01*
X422387Y447415D01*
X423083Y446507D01*
X423991Y445810D01*
X425049Y445372D01*
X426183Y445223D01*
X427318Y445372D01*
X428375Y445810D01*
X429283Y446507D01*
X429980Y447415D01*
X430418Y448472D01*
X430567Y449607D01*
X430418Y450741D01*
X429980Y451799D01*
X429283Y452707D01*
X428375Y453403D01*
X427318Y453841D01*
X426183Y453991D01*
D02*
G37*
G36*
X176183D02*
X175049Y453841D01*
X173991Y453403D01*
X173083Y452707D01*
X172387Y451799D01*
X171949Y450741D01*
X171800Y449607D01*
X171949Y448472D01*
X172387Y447415D01*
X173083Y446507D01*
X173991Y445810D01*
X175049Y445372D01*
X176183Y445223D01*
X177318Y445372D01*
X178375Y445810D01*
X179283Y446507D01*
X179980Y447415D01*
X180418Y448472D01*
X180567Y449607D01*
X180418Y450741D01*
X179980Y451799D01*
X179283Y452707D01*
X178375Y453403D01*
X177318Y453841D01*
X176183Y453991D01*
D02*
G37*
G36*
X38067Y444797D02*
X36932Y444647D01*
X35875Y444209D01*
X34967Y443512D01*
X34270Y442604D01*
X33832Y441547D01*
X33683Y440413D01*
X33832Y439278D01*
X34270Y438221D01*
X34967Y437313D01*
X35875Y436616D01*
X36932Y436178D01*
X38067Y436029D01*
X39201Y436178D01*
X40259Y436616D01*
X41167Y437313D01*
X41863Y438221D01*
X42301Y439278D01*
X42451Y440413D01*
X42301Y441547D01*
X41863Y442604D01*
X41167Y443512D01*
X40259Y444209D01*
X39201Y444647D01*
X38067Y444797D01*
D02*
G37*
G36*
X426183Y443991D02*
X425049Y443841D01*
X423991Y443403D01*
X423083Y442707D01*
X422387Y441799D01*
X421949Y440741D01*
X421800Y439607D01*
X421949Y438472D01*
X422387Y437415D01*
X423083Y436507D01*
X423991Y435810D01*
X425049Y435372D01*
X426183Y435223D01*
X427318Y435372D01*
X428375Y435810D01*
X429283Y436507D01*
X429980Y437415D01*
X430418Y438472D01*
X430567Y439607D01*
X430418Y440741D01*
X429980Y441799D01*
X429283Y442707D01*
X428375Y443403D01*
X427318Y443841D01*
X426183Y443991D01*
D02*
G37*
G36*
X176183D02*
X175049Y443841D01*
X173991Y443403D01*
X173083Y442707D01*
X172387Y441799D01*
X171949Y440741D01*
X171800Y439607D01*
X171949Y438472D01*
X172387Y437415D01*
X173083Y436507D01*
X173991Y435810D01*
X175049Y435372D01*
X176183Y435223D01*
X177318Y435372D01*
X178375Y435810D01*
X179283Y436507D01*
X179980Y437415D01*
X180418Y438472D01*
X180567Y439607D01*
X180418Y440741D01*
X179980Y441799D01*
X179283Y442707D01*
X178375Y443403D01*
X177318Y443841D01*
X176183Y443991D01*
D02*
G37*
G36*
X38067Y434796D02*
X36932Y434647D01*
X35875Y434209D01*
X34967Y433512D01*
X34270Y432605D01*
X33832Y431547D01*
X33683Y430412D01*
X33832Y429278D01*
X34270Y428221D01*
X34967Y427313D01*
X35875Y426616D01*
X36932Y426178D01*
X38067Y426029D01*
X39201Y426178D01*
X40259Y426616D01*
X41167Y427313D01*
X41863Y428221D01*
X42301Y429278D01*
X42451Y430412D01*
X42301Y431547D01*
X41863Y432605D01*
X41167Y433512D01*
X40259Y434209D01*
X39201Y434647D01*
X38067Y434796D01*
D02*
G37*
G36*
X426183Y433991D02*
X425049Y433841D01*
X423991Y433403D01*
X423083Y432707D01*
X422387Y431799D01*
X421949Y430741D01*
X421800Y429607D01*
X421949Y428472D01*
X422387Y427415D01*
X423083Y426507D01*
X423991Y425810D01*
X425049Y425372D01*
X426183Y425223D01*
X427318Y425372D01*
X428375Y425810D01*
X429283Y426507D01*
X429980Y427415D01*
X430418Y428472D01*
X430567Y429607D01*
X430418Y430741D01*
X429980Y431799D01*
X429283Y432707D01*
X428375Y433403D01*
X427318Y433841D01*
X426183Y433991D01*
D02*
G37*
G36*
X176183D02*
X175049Y433841D01*
X173991Y433403D01*
X173083Y432707D01*
X172387Y431799D01*
X171949Y430741D01*
X171800Y429607D01*
X171949Y428472D01*
X172387Y427415D01*
X173083Y426507D01*
X173991Y425810D01*
X175049Y425372D01*
X176183Y425223D01*
X177318Y425372D01*
X178375Y425810D01*
X179283Y426507D01*
X179980Y427415D01*
X180418Y428472D01*
X180567Y429607D01*
X180418Y430741D01*
X179980Y431799D01*
X179283Y432707D01*
X178375Y433403D01*
X177318Y433841D01*
X176183Y433991D01*
D02*
G37*
G36*
X38067Y424796D02*
X36932Y424647D01*
X35875Y424209D01*
X34967Y423513D01*
X34270Y422605D01*
X33832Y421547D01*
X33683Y420412D01*
X33832Y419278D01*
X34270Y418221D01*
X34967Y417313D01*
X35875Y416616D01*
X36932Y416178D01*
X38067Y416029D01*
X39201Y416178D01*
X40259Y416616D01*
X41167Y417313D01*
X41863Y418221D01*
X42301Y419278D01*
X42451Y420412D01*
X42301Y421547D01*
X41863Y422605D01*
X41167Y423513D01*
X40259Y424209D01*
X39201Y424647D01*
X38067Y424796D01*
D02*
G37*
G36*
X426183Y423991D02*
X425049Y423841D01*
X423991Y423403D01*
X423083Y422707D01*
X422387Y421799D01*
X421949Y420741D01*
X421800Y419607D01*
X421949Y418472D01*
X422387Y417415D01*
X423083Y416507D01*
X423991Y415810D01*
X425049Y415372D01*
X426183Y415223D01*
X427318Y415372D01*
X428375Y415810D01*
X429283Y416507D01*
X429980Y417415D01*
X430418Y418472D01*
X430567Y419607D01*
X430418Y420741D01*
X429980Y421799D01*
X429283Y422707D01*
X428375Y423403D01*
X427318Y423841D01*
X426183Y423991D01*
D02*
G37*
G36*
X176183D02*
X175049Y423841D01*
X173991Y423403D01*
X173083Y422707D01*
X172387Y421799D01*
X171949Y420741D01*
X171800Y419607D01*
X171949Y418472D01*
X172387Y417415D01*
X173083Y416507D01*
X173991Y415810D01*
X175049Y415372D01*
X176183Y415223D01*
X177318Y415372D01*
X178375Y415810D01*
X179283Y416507D01*
X179980Y417415D01*
X180418Y418472D01*
X180567Y419607D01*
X180418Y420741D01*
X179980Y421799D01*
X179283Y422707D01*
X178375Y423403D01*
X177318Y423841D01*
X176183Y423991D01*
D02*
G37*
G36*
X306420Y544343D02*
X305285Y544193D01*
X304228Y543755D01*
X303320Y543059D01*
X302623Y542151D01*
X302185Y541093D01*
X302036Y539959D01*
X302185Y538824D01*
X302623Y537767D01*
X303320Y536859D01*
X304228Y536162D01*
X304898Y535884D01*
X304898Y411571D01*
X304705Y411442D01*
X304180Y410655D01*
X303995Y409727D01*
X304180Y408799D01*
X304705Y408013D01*
X305492Y407487D01*
X306420Y407303D01*
X307347Y407487D01*
X308134Y408013D01*
X308660Y408799D01*
X308844Y409727D01*
X308660Y410655D01*
X308134Y411442D01*
X307941Y411571D01*
X307941Y535884D01*
X308612Y536162D01*
X309520Y536859D01*
X310216Y537767D01*
X310654Y538824D01*
X310804Y539959D01*
X310654Y541093D01*
X310216Y542151D01*
X309520Y543059D01*
X308612Y543755D01*
X307554Y544193D01*
X306420Y544343D01*
D02*
G37*
G36*
X38067Y414796D02*
X36932Y414647D01*
X35875Y414209D01*
X34967Y413513D01*
X34270Y412605D01*
X33832Y411547D01*
X33683Y410413D01*
X33832Y409278D01*
X34270Y408221D01*
X34967Y407313D01*
X35875Y406616D01*
X36932Y406178D01*
X38067Y406029D01*
X39201Y406178D01*
X40259Y406616D01*
X41167Y407313D01*
X41863Y408221D01*
X42301Y409278D01*
X42451Y410413D01*
X42301Y411547D01*
X41863Y412605D01*
X41167Y413513D01*
X40259Y414209D01*
X39201Y414647D01*
X38067Y414796D01*
D02*
G37*
G36*
X426183Y413991D02*
X425049Y413841D01*
X423991Y413403D01*
X423083Y412707D01*
X422387Y411799D01*
X421949Y410741D01*
X421800Y409607D01*
X421949Y408472D01*
X422387Y407415D01*
X423083Y406507D01*
X423991Y405810D01*
X425049Y405372D01*
X426183Y405223D01*
X427318Y405372D01*
X428375Y405810D01*
X429283Y406507D01*
X429980Y407415D01*
X430418Y408472D01*
X430567Y409607D01*
X430418Y410741D01*
X429980Y411799D01*
X429283Y412707D01*
X428375Y413403D01*
X427318Y413841D01*
X426183Y413991D01*
D02*
G37*
G36*
X176183D02*
X175049Y413841D01*
X173991Y413403D01*
X173083Y412707D01*
X172387Y411799D01*
X171949Y410741D01*
X171800Y409607D01*
X171949Y408472D01*
X172387Y407415D01*
X173083Y406507D01*
X173991Y405810D01*
X175049Y405372D01*
X176183Y405223D01*
X177318Y405372D01*
X178375Y405810D01*
X179283Y406507D01*
X179980Y407415D01*
X180418Y408472D01*
X180567Y409607D01*
X180418Y410741D01*
X179980Y411799D01*
X179283Y412707D01*
X178375Y413403D01*
X177318Y413841D01*
X176183Y413991D01*
D02*
G37*
G36*
X38067Y404797D02*
X36932Y404647D01*
X35875Y404209D01*
X34967Y403512D01*
X34270Y402604D01*
X33832Y401547D01*
X33683Y400413D01*
X33832Y399278D01*
X34270Y398221D01*
X34967Y397313D01*
X35875Y396616D01*
X36932Y396178D01*
X38067Y396029D01*
X39201Y396178D01*
X40259Y396616D01*
X41167Y397313D01*
X41863Y398221D01*
X42301Y399278D01*
X42451Y400413D01*
X42301Y401547D01*
X41863Y402604D01*
X41167Y403512D01*
X40259Y404209D01*
X39201Y404647D01*
X38067Y404797D01*
D02*
G37*
G36*
X426183Y403991D02*
X425049Y403841D01*
X423991Y403403D01*
X423083Y402707D01*
X422387Y401799D01*
X421949Y400741D01*
X421800Y399607D01*
X421949Y398472D01*
X422387Y397415D01*
X423083Y396507D01*
X423991Y395810D01*
X425049Y395372D01*
X426183Y395223D01*
X427318Y395372D01*
X428375Y395810D01*
X429283Y396507D01*
X429980Y397415D01*
X430418Y398472D01*
X430567Y399607D01*
X430418Y400741D01*
X429980Y401799D01*
X429283Y402707D01*
X428375Y403403D01*
X427318Y403841D01*
X426183Y403991D01*
D02*
G37*
G36*
X38067Y394796D02*
X36932Y394647D01*
X35875Y394209D01*
X34967Y393513D01*
X34270Y392604D01*
X33832Y391547D01*
X33683Y390412D01*
X33832Y389278D01*
X34270Y388221D01*
X34967Y387313D01*
X35875Y386616D01*
X36932Y386178D01*
X38067Y386029D01*
X39201Y386178D01*
X40259Y386616D01*
X41167Y387313D01*
X41863Y388221D01*
X42301Y389278D01*
X42451Y390412D01*
X42301Y391547D01*
X41863Y392604D01*
X41167Y393513D01*
X40259Y394209D01*
X39201Y394647D01*
X38067Y394796D01*
D02*
G37*
G36*
X426183Y393991D02*
X425049Y393841D01*
X423991Y393403D01*
X423083Y392707D01*
X422387Y391799D01*
X421949Y390741D01*
X421800Y389607D01*
X421949Y388472D01*
X422387Y387415D01*
X423083Y386507D01*
X423991Y385810D01*
X425049Y385372D01*
X426183Y385223D01*
X427318Y385372D01*
X428375Y385810D01*
X429283Y386507D01*
X429980Y387415D01*
X430418Y388472D01*
X430567Y389607D01*
X430418Y390741D01*
X429980Y391799D01*
X429283Y392707D01*
X428375Y393403D01*
X427318Y393841D01*
X426183Y393991D01*
D02*
G37*
G36*
X176183D02*
X175049Y393841D01*
X173991Y393403D01*
X173083Y392707D01*
X172387Y391799D01*
X171949Y390741D01*
X171800Y389607D01*
X171949Y388472D01*
X172387Y387415D01*
X173083Y386507D01*
X173991Y385810D01*
X175049Y385372D01*
X176183Y385223D01*
X177318Y385372D01*
X178375Y385810D01*
X179283Y386507D01*
X179980Y387415D01*
X180418Y388472D01*
X180567Y389607D01*
X180418Y390741D01*
X179980Y391799D01*
X179283Y392707D01*
X178375Y393403D01*
X177318Y393841D01*
X176183Y393991D01*
D02*
G37*
G36*
X38067Y384797D02*
X36932Y384647D01*
X35875Y384209D01*
X34967Y383512D01*
X34270Y382605D01*
X33832Y381547D01*
X33683Y380413D01*
X33832Y379278D01*
X34270Y378221D01*
X34967Y377313D01*
X35875Y376616D01*
X36932Y376178D01*
X38067Y376029D01*
X39201Y376178D01*
X40259Y376616D01*
X41167Y377313D01*
X41863Y378221D01*
X42301Y379278D01*
X42451Y380413D01*
X42301Y381547D01*
X41863Y382605D01*
X41167Y383512D01*
X40259Y384209D01*
X39201Y384647D01*
X38067Y384797D01*
D02*
G37*
G36*
X426183Y383991D02*
X425049Y383841D01*
X423991Y383403D01*
X423083Y382707D01*
X422387Y381799D01*
X421949Y380741D01*
X421800Y379607D01*
X421949Y378472D01*
X422387Y377415D01*
X423083Y376507D01*
X423991Y375810D01*
X425049Y375372D01*
X426183Y375223D01*
X427318Y375372D01*
X428375Y375810D01*
X429283Y376507D01*
X429980Y377415D01*
X430418Y378472D01*
X430567Y379607D01*
X430418Y380741D01*
X429980Y381799D01*
X429283Y382707D01*
X428375Y383403D01*
X427318Y383841D01*
X426183Y383991D01*
D02*
G37*
G36*
X176183D02*
X175049Y383841D01*
X173991Y383403D01*
X173083Y382707D01*
X172387Y381799D01*
X171949Y380741D01*
X171800Y379607D01*
X171949Y378472D01*
X172387Y377415D01*
X173083Y376507D01*
X173991Y375810D01*
X175049Y375372D01*
X176183Y375223D01*
X177318Y375372D01*
X178375Y375810D01*
X179283Y376507D01*
X179980Y377415D01*
X180418Y378472D01*
X180567Y379607D01*
X180418Y380741D01*
X179980Y381799D01*
X179283Y382707D01*
X178375Y383403D01*
X177318Y383841D01*
X176183Y383991D01*
D02*
G37*
G36*
X75984Y431146D02*
X75056Y430962D01*
X74270Y430436D01*
X73744Y429649D01*
X73560Y428722D01*
X73744Y427794D01*
X74270Y427007D01*
X74463Y426878D01*
Y373316D01*
X74392Y373209D01*
X74207Y372282D01*
X74392Y371354D01*
X74917Y370567D01*
X75704Y370042D01*
X76632Y369857D01*
X77559Y370042D01*
X78346Y370567D01*
X78872Y371354D01*
X79056Y372282D01*
X78872Y373209D01*
X78346Y373996D01*
X77559Y374521D01*
X77506Y374532D01*
Y426878D01*
X77699Y427007D01*
X78224Y427794D01*
X78409Y428722D01*
X78224Y429649D01*
X77699Y430436D01*
X76912Y430962D01*
X75984Y431146D01*
D02*
G37*
G36*
X38067Y374797D02*
X36932Y374647D01*
X35875Y374209D01*
X34967Y373513D01*
X34270Y372604D01*
X33832Y371547D01*
X33683Y370412D01*
X33832Y369278D01*
X34270Y368221D01*
X34967Y367313D01*
X35875Y366616D01*
X36932Y366178D01*
X38067Y366029D01*
X39201Y366178D01*
X40259Y366616D01*
X41167Y367313D01*
X41863Y368221D01*
X42301Y369278D01*
X42451Y370412D01*
X42301Y371547D01*
X41863Y372604D01*
X41167Y373513D01*
X40259Y374209D01*
X39201Y374647D01*
X38067Y374797D01*
D02*
G37*
G36*
X176183Y373991D02*
X175049Y373841D01*
X173991Y373403D01*
X173083Y372707D01*
X172387Y371799D01*
X171949Y370741D01*
X171800Y369607D01*
X171949Y368472D01*
X172387Y367415D01*
X173083Y366507D01*
X173991Y365810D01*
X175049Y365372D01*
X176183Y365223D01*
X177318Y365372D01*
X178375Y365810D01*
X179283Y366507D01*
X179980Y367415D01*
X180418Y368472D01*
X180567Y369607D01*
X180418Y370741D01*
X179980Y371799D01*
X179283Y372707D01*
X178375Y373403D01*
X177318Y373841D01*
X176183Y373991D01*
D02*
G37*
G36*
X38067Y364796D02*
X36932Y364647D01*
X35875Y364209D01*
X34967Y363512D01*
X34270Y362604D01*
X33832Y361547D01*
X33683Y360413D01*
X33832Y359278D01*
X34270Y358221D01*
X34967Y357313D01*
X35875Y356616D01*
X36932Y356178D01*
X38067Y356029D01*
X39201Y356178D01*
X40259Y356616D01*
X41167Y357313D01*
X41863Y358221D01*
X42301Y359278D01*
X42451Y360413D01*
X42301Y361547D01*
X41863Y362604D01*
X41167Y363512D01*
X40259Y364209D01*
X39201Y364647D01*
X38067Y364796D01*
D02*
G37*
G36*
X426183Y363991D02*
X425049Y363841D01*
X423991Y363403D01*
X423083Y362707D01*
X422387Y361799D01*
X421949Y360741D01*
X421800Y359607D01*
X421949Y358472D01*
X422387Y357415D01*
X423083Y356507D01*
X423991Y355810D01*
X425049Y355372D01*
X426183Y355223D01*
X427318Y355372D01*
X428375Y355810D01*
X429283Y356507D01*
X429980Y357415D01*
X430418Y358472D01*
X430567Y359607D01*
X430418Y360741D01*
X429980Y361799D01*
X429283Y362707D01*
X428375Y363403D01*
X427318Y363841D01*
X426183Y363991D01*
D02*
G37*
G36*
X176183D02*
X175049Y363841D01*
X173991Y363403D01*
X173083Y362707D01*
X172387Y361799D01*
X171949Y360741D01*
X171800Y359607D01*
X171949Y358472D01*
X172387Y357415D01*
X173083Y356507D01*
X173991Y355810D01*
X175049Y355372D01*
X176183Y355223D01*
X177318Y355372D01*
X178375Y355810D01*
X179283Y356507D01*
X179980Y357415D01*
X180418Y358472D01*
X180567Y359607D01*
X180418Y360741D01*
X179980Y361799D01*
X179283Y362707D01*
X178375Y363403D01*
X177318Y363841D01*
X176183Y363991D01*
D02*
G37*
G36*
X574557Y361430D02*
X573422Y361281D01*
X572365Y360843D01*
X571457Y360146D01*
X570760Y359238D01*
X570322Y358181D01*
X570173Y357046D01*
X570322Y355911D01*
X570760Y354854D01*
X571457Y353946D01*
X572365Y353250D01*
X573422Y352812D01*
X574557Y352662D01*
X575692Y352812D01*
X576749Y353250D01*
X577657Y353946D01*
X578354Y354854D01*
X578792Y355911D01*
X578941Y357046D01*
X578792Y358181D01*
X578354Y359238D01*
X577657Y360146D01*
X576749Y360843D01*
X575692Y361281D01*
X574557Y361430D01*
D02*
G37*
G36*
X564557D02*
X563422Y361281D01*
X562365Y360843D01*
X561457Y360146D01*
X560760Y359238D01*
X560322Y358181D01*
X560173Y357046D01*
X560322Y355911D01*
X560760Y354854D01*
X561457Y353946D01*
X562365Y353250D01*
X563422Y352812D01*
X564557Y352662D01*
X565692Y352812D01*
X566749Y353250D01*
X567657Y353946D01*
X568354Y354854D01*
X568791Y355911D01*
X568941Y357046D01*
X568791Y358181D01*
X568354Y359238D01*
X567657Y360146D01*
X566749Y360843D01*
X565692Y361281D01*
X564557Y361430D01*
D02*
G37*
G36*
X38067Y354797D02*
X36932Y354647D01*
X35875Y354209D01*
X34967Y353513D01*
X34270Y352605D01*
X33832Y351547D01*
X33683Y350413D01*
X33832Y349278D01*
X34270Y348221D01*
X34967Y347313D01*
X35875Y346616D01*
X36932Y346178D01*
X38067Y346029D01*
X39201Y346178D01*
X40259Y346616D01*
X41167Y347313D01*
X41863Y348221D01*
X42301Y349278D01*
X42451Y350413D01*
X42301Y351547D01*
X41863Y352605D01*
X41167Y353513D01*
X40259Y354209D01*
X39201Y354647D01*
X38067Y354797D01*
D02*
G37*
G36*
X426183Y353991D02*
X425049Y353841D01*
X423991Y353403D01*
X423083Y352707D01*
X422387Y351799D01*
X421949Y350741D01*
X421800Y349607D01*
X421949Y348472D01*
X422227Y347801D01*
X408373Y333948D01*
X408043Y333454D01*
X407928Y332872D01*
Y166410D01*
X407734Y166281D01*
X407209Y165495D01*
X407024Y164567D01*
X407209Y163639D01*
X407734Y162853D01*
X408521Y162327D01*
X409449Y162142D01*
X410377Y162327D01*
X410636Y162500D01*
X411077Y162265D01*
Y136489D01*
X410884Y136360D01*
X410358Y135573D01*
X410174Y134646D01*
X410358Y133718D01*
X410884Y132931D01*
X411671Y132406D01*
X412598Y132221D01*
X413526Y132406D01*
X414313Y132931D01*
X414838Y133718D01*
X415023Y134646D01*
X414838Y135573D01*
X414313Y136360D01*
X414120Y136489D01*
Y153937D01*
X414977D01*
X415083Y153403D01*
X415608Y152616D01*
X416395Y152091D01*
X417323Y151906D01*
X418251Y152091D01*
X419037Y152616D01*
X419563Y153403D01*
X419747Y154331D01*
X419563Y155259D01*
X419037Y156045D01*
X418844Y156174D01*
Y310116D01*
X424378Y315650D01*
X425049Y315372D01*
X426183Y315223D01*
X427318Y315372D01*
X428375Y315810D01*
X429283Y316507D01*
X429980Y317415D01*
X430418Y318472D01*
X430567Y319607D01*
X430418Y320741D01*
X429980Y321799D01*
X429283Y322707D01*
X428375Y323403D01*
X427318Y323841D01*
X426183Y323991D01*
Y325223D01*
X427318Y325372D01*
X428375Y325810D01*
X429283Y326507D01*
X429980Y327415D01*
X430418Y328472D01*
X430567Y329607D01*
X430418Y330741D01*
X429980Y331799D01*
X429283Y332707D01*
X428375Y333403D01*
X427318Y333841D01*
X426183Y333991D01*
X425049Y333841D01*
X423991Y333403D01*
X423083Y332707D01*
X422387Y331799D01*
X421949Y330741D01*
X421800Y329607D01*
X421949Y328472D01*
X422227Y327801D01*
X411523Y317097D01*
X411470Y317019D01*
X410970Y317171D01*
Y332242D01*
X424378Y345650D01*
X425049Y345372D01*
X426183Y345223D01*
X427318Y345372D01*
X428375Y345810D01*
X429283Y346507D01*
X429980Y347415D01*
X430418Y348472D01*
X430567Y349607D01*
X430418Y350741D01*
X429980Y351799D01*
X429283Y352707D01*
X428375Y353403D01*
X427318Y353841D01*
X426183Y353991D01*
D02*
G37*
G36*
X574557Y351430D02*
X573422Y351281D01*
X572365Y350843D01*
X571457Y350146D01*
X570760Y349238D01*
X570322Y348181D01*
X570173Y347046D01*
X570322Y345912D01*
X570760Y344854D01*
X571457Y343946D01*
X572365Y343250D01*
X573422Y342811D01*
X574557Y342662D01*
X575692Y342811D01*
X576749Y343250D01*
X577657Y343946D01*
X578354Y344854D01*
X578792Y345912D01*
X578941Y347046D01*
X578792Y348181D01*
X578354Y349238D01*
X577657Y350146D01*
X576749Y350843D01*
X575692Y351281D01*
X574557Y351430D01*
D02*
G37*
G36*
X564557D02*
X563422Y351281D01*
X562365Y350843D01*
X561457Y350146D01*
X560760Y349238D01*
X560322Y348181D01*
X560173Y347046D01*
X560322Y345912D01*
X560760Y344854D01*
X561457Y343946D01*
X562365Y343250D01*
X563422Y342811D01*
X564557Y342662D01*
X565692Y342811D01*
X566749Y343250D01*
X567657Y343946D01*
X568354Y344854D01*
X568791Y345912D01*
X568941Y347046D01*
X568791Y348181D01*
X568354Y349238D01*
X567657Y350146D01*
X566749Y350843D01*
X565692Y351281D01*
X564557Y351430D01*
D02*
G37*
G36*
X127823Y347483D02*
X126895Y347298D01*
X126108Y346773D01*
X125583Y345986D01*
X125398Y345058D01*
X125583Y344130D01*
X126108Y343344D01*
X126895Y342818D01*
X127823Y342634D01*
X128751Y342818D01*
X129537Y343344D01*
X130063Y344130D01*
X130247Y345058D01*
X130063Y345986D01*
X129537Y346773D01*
X128751Y347298D01*
X127823Y347483D01*
D02*
G37*
G36*
X38067Y344796D02*
X36932Y344647D01*
X35875Y344209D01*
X34967Y343513D01*
X34270Y342604D01*
X33832Y341547D01*
X33683Y340412D01*
X33832Y339278D01*
X34270Y338221D01*
X34967Y337313D01*
X35875Y336616D01*
X36932Y336178D01*
X38067Y336029D01*
X39201Y336178D01*
X40259Y336616D01*
X41167Y337313D01*
X41863Y338221D01*
X42301Y339278D01*
X42451Y340412D01*
X42301Y341547D01*
X41863Y342604D01*
X41167Y343513D01*
X40259Y344209D01*
X39201Y344647D01*
X38067Y344796D01*
D02*
G37*
G36*
X426183Y343991D02*
X425049Y343841D01*
X423991Y343403D01*
X423083Y342707D01*
X422387Y341799D01*
X421949Y340741D01*
X421800Y339607D01*
X421949Y338472D01*
X422387Y337415D01*
X423083Y336507D01*
X423991Y335810D01*
X425049Y335372D01*
X426183Y335223D01*
X427318Y335372D01*
X428375Y335810D01*
X429283Y336507D01*
X429980Y337415D01*
X430418Y338472D01*
X430567Y339607D01*
X430418Y340741D01*
X429980Y341799D01*
X429283Y342707D01*
X428375Y343403D01*
X427318Y343841D01*
X426183Y343991D01*
D02*
G37*
G36*
X176183D02*
X175049Y343841D01*
X173991Y343403D01*
X173083Y342707D01*
X172387Y341799D01*
X171949Y340741D01*
X171800Y339607D01*
X171949Y338472D01*
X172387Y337415D01*
X173083Y336507D01*
X173991Y335810D01*
X175049Y335372D01*
X176183Y335223D01*
X177318Y335372D01*
X178375Y335810D01*
X179283Y336507D01*
X179980Y337415D01*
X180418Y338472D01*
X180567Y339607D01*
X180418Y340741D01*
X179980Y341799D01*
X179283Y342707D01*
X178375Y343403D01*
X177318Y343841D01*
X176183Y343991D01*
D02*
G37*
G36*
X564557Y341430D02*
X563422Y341281D01*
X562365Y340843D01*
X561457Y340146D01*
X560760Y339238D01*
X560322Y338181D01*
X560173Y337046D01*
X560322Y335911D01*
X560760Y334854D01*
X561457Y333946D01*
X562365Y333249D01*
X563422Y332811D01*
X564557Y332662D01*
X565692Y332811D01*
X566749Y333249D01*
X567657Y333946D01*
X568354Y334854D01*
X568791Y335911D01*
X568941Y337046D01*
X568791Y338181D01*
X568354Y339238D01*
X567657Y340146D01*
X566749Y340843D01*
X565692Y341281D01*
X564557Y341430D01*
D02*
G37*
G36*
X176183Y333991D02*
X175049Y333841D01*
X173991Y333403D01*
X173083Y332707D01*
X172387Y331799D01*
X171949Y330741D01*
X171800Y329607D01*
X171949Y328472D01*
X172387Y327415D01*
X173083Y326507D01*
X173991Y325810D01*
X175049Y325372D01*
X176183Y325223D01*
X177318Y325372D01*
X178375Y325810D01*
X179283Y326507D01*
X179980Y327415D01*
X180418Y328472D01*
X180567Y329607D01*
X180418Y330741D01*
X179980Y331799D01*
X179283Y332707D01*
X178375Y333403D01*
X177318Y333841D01*
X176183Y333991D01*
D02*
G37*
G36*
X574557Y331430D02*
X573422Y331281D01*
X572365Y330843D01*
X571457Y330146D01*
X570760Y329238D01*
X570322Y328181D01*
X570173Y327046D01*
X570322Y325911D01*
X570760Y324854D01*
X571457Y323946D01*
X572365Y323250D01*
X573422Y322812D01*
X574557Y322662D01*
X575692Y322812D01*
X576749Y323250D01*
X577657Y323946D01*
X578354Y324854D01*
X578792Y325911D01*
X578941Y327046D01*
X578792Y328181D01*
X578354Y329238D01*
X577657Y330146D01*
X576749Y330843D01*
X575692Y331281D01*
X574557Y331430D01*
D02*
G37*
G36*
X501982Y392045D02*
X501055Y391861D01*
X500268Y391335D01*
X499742Y390548D01*
X499558Y389621D01*
X499742Y388693D01*
X500268Y387906D01*
X501055Y387381D01*
X501982Y387196D01*
X502210Y387241D01*
X560600Y328851D01*
X560322Y328181D01*
X560173Y327046D01*
X560322Y325911D01*
X560760Y324854D01*
X561457Y323946D01*
X562365Y323250D01*
X563422Y322812D01*
X564557Y322662D01*
X565692Y322812D01*
X566749Y323250D01*
X567657Y323946D01*
X568354Y324854D01*
X568791Y325911D01*
X568941Y327046D01*
X568791Y328181D01*
X568354Y329238D01*
X567657Y330146D01*
X566749Y330843D01*
X565692Y331281D01*
X564557Y331430D01*
X563422Y331281D01*
X562752Y331003D01*
X504362Y389393D01*
X504407Y389621D01*
X504222Y390548D01*
X503697Y391335D01*
X502910Y391861D01*
X501982Y392045D01*
D02*
G37*
G36*
X176183Y323991D02*
X175049Y323841D01*
X173991Y323403D01*
X173083Y322707D01*
X172387Y321799D01*
X171949Y320741D01*
X171800Y319607D01*
X171949Y318472D01*
X172387Y317415D01*
X173083Y316507D01*
X173991Y315810D01*
X175049Y315372D01*
X176183Y315223D01*
X177318Y315372D01*
X178375Y315810D01*
X179283Y316507D01*
X179980Y317415D01*
X180418Y318472D01*
X180567Y319607D01*
X180418Y320741D01*
X179980Y321799D01*
X179283Y322707D01*
X178375Y323403D01*
X177318Y323841D01*
X176183Y323991D01*
D02*
G37*
G36*
X459620Y321517D02*
X458692Y321333D01*
X457906Y320807D01*
X457380Y320020D01*
X457196Y319092D01*
X457380Y318165D01*
X457906Y317378D01*
X458099Y317249D01*
Y315000D01*
X457658Y314764D01*
X457398Y314937D01*
X456470Y315122D01*
X455543Y314937D01*
X454756Y314412D01*
X454230Y313625D01*
X454046Y312697D01*
X454230Y311770D01*
X454756Y310983D01*
X454949Y310854D01*
Y304621D01*
X454449Y304354D01*
X454077Y304602D01*
X453150Y304787D01*
X452222Y304602D01*
X451435Y304077D01*
X450910Y303290D01*
X450725Y302362D01*
X450910Y301434D01*
X451435Y300648D01*
X451628Y300519D01*
Y260404D01*
X451435Y260275D01*
X450910Y259489D01*
X450725Y258561D01*
X450910Y257633D01*
X451435Y256847D01*
X452222Y256321D01*
X453150Y256136D01*
X454077Y256321D01*
X454864Y256847D01*
X455390Y257633D01*
X455574Y258561D01*
X455390Y259489D01*
X454864Y260275D01*
X454671Y260404D01*
Y266046D01*
X455171Y266314D01*
X455543Y266065D01*
X456470Y265880D01*
X457398Y266065D01*
X458185Y266591D01*
X458710Y267377D01*
X458895Y268305D01*
X458710Y269233D01*
X458185Y270020D01*
X457992Y270148D01*
Y270727D01*
X458433Y270963D01*
X458692Y270790D01*
X459620Y270605D01*
X460548Y270790D01*
X461335Y271315D01*
X461860Y272102D01*
X462045Y273029D01*
X461860Y273957D01*
X461335Y274744D01*
X461141Y274873D01*
Y317249D01*
X461335Y317378D01*
X461860Y318165D01*
X462045Y319092D01*
X461860Y320020D01*
X461335Y320807D01*
X460548Y321333D01*
X459620Y321517D01*
D02*
G37*
G36*
X574557Y321430D02*
X573422Y321281D01*
X572365Y320843D01*
X571457Y320146D01*
X570760Y319238D01*
X570322Y318181D01*
X570173Y317046D01*
X570322Y315912D01*
X570760Y314854D01*
X571457Y313946D01*
X572365Y313249D01*
X573422Y312811D01*
X574557Y312662D01*
X575692Y312811D01*
X576749Y313249D01*
X577657Y313946D01*
X578354Y314854D01*
X578792Y315912D01*
X578941Y317046D01*
X578792Y318181D01*
X578354Y319238D01*
X577657Y320146D01*
X576749Y320843D01*
X575692Y321281D01*
X574557Y321430D01*
D02*
G37*
G36*
X426183Y313991D02*
X425049Y313841D01*
X423991Y313403D01*
X423083Y312707D01*
X422387Y311799D01*
X421949Y310741D01*
X421800Y309607D01*
X421949Y308472D01*
X422387Y307415D01*
X423083Y306507D01*
X423991Y305810D01*
X425049Y305372D01*
X426183Y305223D01*
X427318Y305372D01*
X428375Y305810D01*
X429283Y306507D01*
X429980Y307415D01*
X430418Y308472D01*
X430567Y309607D01*
X430418Y310741D01*
X429980Y311799D01*
X429283Y312707D01*
X428375Y313403D01*
X427318Y313841D01*
X426183Y313991D01*
D02*
G37*
G36*
X176183D02*
X175049Y313841D01*
X173991Y313403D01*
X173083Y312707D01*
X172387Y311799D01*
X171949Y310741D01*
X171800Y309607D01*
X171949Y308472D01*
X172387Y307415D01*
X173083Y306507D01*
X173991Y305810D01*
X175049Y305372D01*
X176183Y305223D01*
X177318Y305372D01*
X178375Y305810D01*
X179283Y306507D01*
X179980Y307415D01*
X180418Y308472D01*
X180567Y309607D01*
X180418Y310741D01*
X179980Y311799D01*
X179283Y312707D01*
X178375Y313403D01*
X177318Y313841D01*
X176183Y313991D01*
D02*
G37*
G36*
X574557Y311430D02*
X573422Y311281D01*
X572365Y310843D01*
X571457Y310146D01*
X570760Y309238D01*
X570322Y308181D01*
X570173Y307046D01*
X570322Y305911D01*
X570760Y304854D01*
X571457Y303946D01*
X572365Y303250D01*
X573422Y302812D01*
X574557Y302662D01*
X575692Y302812D01*
X576749Y303250D01*
X577657Y303946D01*
X578354Y304854D01*
X578792Y305911D01*
X578941Y307046D01*
X578792Y308181D01*
X578354Y309238D01*
X577657Y310146D01*
X576749Y310843D01*
X575692Y311281D01*
X574557Y311430D01*
D02*
G37*
G36*
X469066Y300510D02*
X468139Y300325D01*
X467352Y299800D01*
X466826Y299013D01*
X466642Y298085D01*
X466826Y297158D01*
X467352Y296371D01*
X468139Y295845D01*
X469066Y295661D01*
X469994Y295845D01*
X470781Y296371D01*
X471307Y297158D01*
X471491Y298085D01*
X471307Y299013D01*
X470781Y299800D01*
X469994Y300325D01*
X469066Y300510D01*
D02*
G37*
G36*
X426183Y303991D02*
X425049Y303841D01*
X423991Y303403D01*
X423083Y302707D01*
X422387Y301799D01*
X421949Y300741D01*
X421800Y299607D01*
X421949Y298472D01*
X422387Y297415D01*
X423083Y296507D01*
X423991Y295810D01*
X425049Y295372D01*
X426183Y295223D01*
X427318Y295372D01*
X428375Y295810D01*
X429283Y296507D01*
X429980Y297415D01*
X430418Y298472D01*
X430567Y299607D01*
X430418Y300741D01*
X429980Y301799D01*
X429283Y302707D01*
X428375Y303403D01*
X427318Y303841D01*
X426183Y303991D01*
D02*
G37*
G36*
X176183D02*
X175049Y303841D01*
X173991Y303403D01*
X173083Y302707D01*
X172387Y301799D01*
X171949Y300741D01*
X171800Y299607D01*
X171949Y298472D01*
X172387Y297415D01*
X173083Y296507D01*
X173991Y295810D01*
X175049Y295372D01*
X176183Y295223D01*
X177318Y295372D01*
X178375Y295810D01*
X179283Y296507D01*
X179980Y297415D01*
X180418Y298472D01*
X180567Y299607D01*
X180418Y300741D01*
X179980Y301799D01*
X179283Y302707D01*
X178375Y303403D01*
X177318Y303841D01*
X176183Y303991D01*
D02*
G37*
G36*
X503180Y342031D02*
X502252Y341847D01*
X501466Y341321D01*
X500940Y340534D01*
X500756Y339607D01*
X500940Y338679D01*
X501466Y337892D01*
X502252Y337367D01*
X503180Y337182D01*
X504108Y337367D01*
X504894Y337892D01*
X505023Y338085D01*
X511338D01*
X548530Y300893D01*
X548531Y300893D01*
X549024Y300563D01*
X549606Y300447D01*
X549606Y300447D01*
X561058D01*
X561304Y299947D01*
X560760Y299238D01*
X560322Y298181D01*
X560173Y297046D01*
X560322Y295912D01*
X560760Y294854D01*
X561457Y293946D01*
X562365Y293250D01*
X563422Y292811D01*
X564557Y292662D01*
X565692Y292811D01*
X566749Y293250D01*
X567657Y293946D01*
X568354Y294854D01*
X568791Y295912D01*
X568941Y297046D01*
X568791Y298181D01*
X568354Y299238D01*
X567809Y299947D01*
X568056Y300447D01*
X569004D01*
X570600Y298851D01*
X570322Y298181D01*
X570173Y297046D01*
X570322Y295912D01*
X570760Y294854D01*
X571457Y293946D01*
X572365Y293250D01*
X573422Y292811D01*
X574557Y292662D01*
X575692Y292811D01*
X576749Y293250D01*
X577657Y293946D01*
X578354Y294854D01*
X578792Y295912D01*
X578941Y297046D01*
X578792Y298181D01*
X578354Y299238D01*
X577657Y300146D01*
X576749Y300843D01*
X575692Y301281D01*
X574557Y301430D01*
X573422Y301281D01*
X572752Y301003D01*
X570710Y303044D01*
X570217Y303374D01*
X569634Y303490D01*
X567812D01*
X567760Y303643D01*
X567690Y303990D01*
X568354Y304854D01*
X568791Y305911D01*
X568941Y307046D01*
X568791Y308181D01*
X568354Y309238D01*
X567657Y310146D01*
X566749Y310843D01*
X565692Y311281D01*
X564557Y311430D01*
X563422Y311281D01*
X562365Y310843D01*
X561457Y310146D01*
X560760Y309238D01*
X560322Y308181D01*
X560173Y307046D01*
X560322Y305911D01*
X560760Y304854D01*
X561423Y303990D01*
X561354Y303643D01*
X561302Y303490D01*
X550237D01*
X513044Y340682D01*
X512550Y341012D01*
X511968Y341128D01*
X505023D01*
X504894Y341321D01*
X504108Y341847D01*
X503180Y342031D01*
D02*
G37*
G36*
X426183Y293991D02*
X425049Y293841D01*
X423991Y293403D01*
X423083Y292707D01*
X422387Y291799D01*
X421949Y290741D01*
X421800Y289607D01*
X421949Y288472D01*
X422387Y287415D01*
X423083Y286507D01*
X423991Y285810D01*
X425049Y285372D01*
X426183Y285223D01*
X427318Y285372D01*
X428375Y285810D01*
X429283Y286507D01*
X429980Y287415D01*
X430418Y288472D01*
X430567Y289607D01*
X430418Y290741D01*
X429980Y291799D01*
X429283Y292707D01*
X428375Y293403D01*
X427318Y293841D01*
X426183Y293991D01*
D02*
G37*
G36*
X176183D02*
X175049Y293841D01*
X173991Y293403D01*
X173083Y292707D01*
X172387Y291799D01*
X171949Y290741D01*
X171800Y289607D01*
X171949Y288472D01*
X172387Y287415D01*
X173083Y286507D01*
X173991Y285810D01*
X175049Y285372D01*
X176183Y285223D01*
X177318Y285372D01*
X178375Y285810D01*
X179283Y286507D01*
X179980Y287415D01*
X180418Y288472D01*
X180567Y289607D01*
X180418Y290741D01*
X179980Y291799D01*
X179283Y292707D01*
X178375Y293403D01*
X177318Y293841D01*
X176183Y293991D01*
D02*
G37*
G36*
X102756Y330771D02*
X101828Y330586D01*
X101041Y330061D01*
X100516Y329274D01*
X100331Y328346D01*
X100516Y327419D01*
X101041Y326632D01*
X101828Y326107D01*
X102211Y326030D01*
X104670Y323571D01*
Y293451D01*
X98968Y287749D01*
X98585Y287673D01*
X97799Y287147D01*
X97273Y286361D01*
X97088Y285433D01*
X97273Y284505D01*
X97799Y283719D01*
X98585Y283193D01*
X99513Y283009D01*
X100441Y283193D01*
X101227Y283719D01*
X101753Y284505D01*
X101829Y284888D01*
X108124Y291182D01*
X108562Y291839D01*
X108716Y292613D01*
Y324410D01*
X108562Y325184D01*
X108124Y325840D01*
X105072Y328891D01*
X104996Y329274D01*
X104470Y330061D01*
X103684Y330586D01*
X102756Y330771D01*
D02*
G37*
G36*
X574557Y291430D02*
X573422Y291281D01*
X572365Y290843D01*
X571457Y290146D01*
X570760Y289238D01*
X570322Y288181D01*
X570173Y287046D01*
X570322Y285911D01*
X570760Y284854D01*
X571457Y283946D01*
X572365Y283249D01*
X573422Y282811D01*
X574557Y282662D01*
X575692Y282811D01*
X576749Y283249D01*
X577657Y283946D01*
X578354Y284854D01*
X578792Y285911D01*
X578941Y287046D01*
X578792Y288181D01*
X578354Y289238D01*
X577657Y290146D01*
X576749Y290843D01*
X575692Y291281D01*
X574557Y291430D01*
D02*
G37*
G36*
X564557D02*
X563422Y291281D01*
X562365Y290843D01*
X561457Y290146D01*
X560760Y289238D01*
X560322Y288181D01*
X560173Y287046D01*
X560322Y285911D01*
X560760Y284854D01*
X561457Y283946D01*
X562365Y283249D01*
X563422Y282811D01*
X564557Y282662D01*
X565692Y282811D01*
X566749Y283249D01*
X567657Y283946D01*
X568354Y284854D01*
X568791Y285911D01*
X568941Y287046D01*
X568791Y288181D01*
X568354Y289238D01*
X567657Y290146D01*
X566749Y290843D01*
X565692Y291281D01*
X564557Y291430D01*
D02*
G37*
G36*
X176183Y403991D02*
X175049Y403841D01*
X173991Y403403D01*
X173083Y402707D01*
X172387Y401799D01*
X171949Y400741D01*
X171800Y399607D01*
X171949Y398472D01*
X172387Y397415D01*
X173083Y396507D01*
X173991Y395810D01*
X175049Y395372D01*
X176183Y395223D01*
X177318Y395372D01*
X177989Y395650D01*
X196904Y376735D01*
Y286883D01*
X196711Y286754D01*
X196185Y285967D01*
X196001Y285039D01*
X196185Y284111D01*
X196711Y283325D01*
X197497Y282799D01*
X198425Y282615D01*
X199353Y282799D01*
X200140Y283325D01*
X200665Y284111D01*
X200850Y285039D01*
X200665Y285967D01*
X200140Y286754D01*
X199947Y286883D01*
Y377365D01*
X199947Y377365D01*
X199831Y377947D01*
X199501Y378441D01*
X199501Y378441D01*
X180140Y397801D01*
X180418Y398472D01*
X180567Y399607D01*
X180418Y400741D01*
X179980Y401799D01*
X179283Y402707D01*
X178375Y403403D01*
X177318Y403841D01*
X176183Y403991D01*
D02*
G37*
G36*
Y283991D02*
X175049Y283841D01*
X173991Y283403D01*
X173083Y282707D01*
X172387Y281799D01*
X171949Y280741D01*
X171800Y279607D01*
X171949Y278472D01*
X172387Y277415D01*
X173083Y276507D01*
X173991Y275810D01*
X175049Y275372D01*
X176183Y275223D01*
X177318Y275372D01*
X178375Y275810D01*
X179283Y276507D01*
X179980Y277415D01*
X180418Y278472D01*
X180567Y279607D01*
X180418Y280741D01*
X179980Y281799D01*
X179283Y282707D01*
X178375Y283403D01*
X177318Y283841D01*
X176183Y283991D01*
D02*
G37*
G36*
X574557Y281430D02*
X573422Y281281D01*
X572365Y280843D01*
X571457Y280146D01*
X570760Y279238D01*
X570322Y278181D01*
X570173Y277046D01*
X570322Y275911D01*
X570760Y274854D01*
X571457Y273946D01*
X572365Y273250D01*
X573422Y272812D01*
X574557Y272662D01*
X575692Y272812D01*
X576749Y273250D01*
X577657Y273946D01*
X578354Y274854D01*
X578792Y275911D01*
X578941Y277046D01*
X578792Y278181D01*
X578354Y279238D01*
X577657Y280146D01*
X576749Y280843D01*
X575692Y281281D01*
X574557Y281430D01*
D02*
G37*
G36*
X564557D02*
X563422Y281281D01*
X562365Y280843D01*
X561457Y280146D01*
X560760Y279238D01*
X560322Y278181D01*
X560173Y277046D01*
X560322Y275911D01*
X560760Y274854D01*
X561457Y273946D01*
X562365Y273250D01*
X563422Y272812D01*
X564557Y272662D01*
X565692Y272812D01*
X566749Y273250D01*
X567657Y273946D01*
X568354Y274854D01*
X568791Y275911D01*
X568941Y277046D01*
X568791Y278181D01*
X568354Y279238D01*
X567657Y280146D01*
X566749Y280843D01*
X565692Y281281D01*
X564557Y281430D01*
D02*
G37*
G36*
X426183Y273991D02*
X425049Y273841D01*
X423991Y273403D01*
X423083Y272707D01*
X422387Y271799D01*
X421949Y270741D01*
X421800Y269607D01*
X421949Y268472D01*
X422387Y267415D01*
X423083Y266507D01*
X423991Y265810D01*
X425049Y265372D01*
X426183Y265223D01*
X427318Y265372D01*
X428375Y265810D01*
X429283Y266507D01*
X429980Y267415D01*
X430418Y268472D01*
X430567Y269607D01*
X430418Y270741D01*
X429980Y271799D01*
X429283Y272707D01*
X428375Y273403D01*
X427318Y273841D01*
X426183Y273991D01*
D02*
G37*
G36*
X176183D02*
X175049Y273841D01*
X173991Y273403D01*
X173083Y272707D01*
X172387Y271799D01*
X171949Y270741D01*
X171800Y269607D01*
X171949Y268472D01*
X172387Y267415D01*
X173083Y266507D01*
X173991Y265810D01*
X175049Y265372D01*
X176183Y265223D01*
X177318Y265372D01*
X178375Y265810D01*
X179283Y266507D01*
X179980Y267415D01*
X180418Y268472D01*
X180567Y269607D01*
X180418Y270741D01*
X179980Y271799D01*
X179283Y272707D01*
X178375Y273403D01*
X177318Y273841D01*
X176183Y273991D01*
D02*
G37*
G36*
X574557Y271430D02*
X573422Y271281D01*
X572365Y270843D01*
X571457Y270146D01*
X570760Y269238D01*
X570322Y268181D01*
X570173Y267046D01*
X570322Y265912D01*
X570760Y264854D01*
X571457Y263946D01*
X572365Y263249D01*
X573422Y262811D01*
X574557Y262662D01*
X575692Y262811D01*
X576749Y263249D01*
X577657Y263946D01*
X578354Y264854D01*
X578792Y265912D01*
X578941Y267046D01*
X578792Y268181D01*
X578354Y269238D01*
X577657Y270146D01*
X576749Y270843D01*
X575692Y271281D01*
X574557Y271430D01*
D02*
G37*
G36*
X564557D02*
X563422Y271281D01*
X562365Y270843D01*
X561457Y270146D01*
X560760Y269238D01*
X560322Y268181D01*
X560173Y267046D01*
X560322Y265912D01*
X560760Y264854D01*
X561457Y263946D01*
X562365Y263249D01*
X563422Y262811D01*
X564557Y262662D01*
X565692Y262811D01*
X566749Y263249D01*
X567657Y263946D01*
X568354Y264854D01*
X568791Y265912D01*
X568941Y267046D01*
X568791Y268181D01*
X568354Y269238D01*
X567657Y270146D01*
X566749Y270843D01*
X565692Y271281D01*
X564557Y271430D01*
D02*
G37*
G36*
X426183Y263991D02*
X425049Y263841D01*
X423991Y263403D01*
X423083Y262707D01*
X422387Y261799D01*
X421949Y260741D01*
X421800Y259607D01*
X421949Y258472D01*
X422387Y257415D01*
X423083Y256507D01*
X423991Y255810D01*
X425049Y255372D01*
X426183Y255223D01*
X427318Y255372D01*
X428375Y255810D01*
X429283Y256507D01*
X429980Y257415D01*
X430418Y258472D01*
X430567Y259607D01*
X430418Y260741D01*
X429980Y261799D01*
X429283Y262707D01*
X428375Y263403D01*
X427318Y263841D01*
X426183Y263991D01*
D02*
G37*
G36*
X469066Y255907D02*
X468139Y255723D01*
X467352Y255197D01*
X466826Y254411D01*
X466642Y253483D01*
X466826Y252555D01*
X467352Y251768D01*
X468139Y251243D01*
X469066Y251058D01*
X469994Y251243D01*
X470781Y251768D01*
X471307Y252555D01*
X471491Y253483D01*
X471307Y254411D01*
X470781Y255197D01*
X469994Y255723D01*
X469066Y255907D01*
D02*
G37*
G36*
X426183Y253991D02*
X425049Y253841D01*
X423991Y253403D01*
X423083Y252707D01*
X422387Y251799D01*
X421949Y250741D01*
X421800Y249607D01*
X421949Y248472D01*
X422387Y247415D01*
X423083Y246507D01*
X423991Y245810D01*
X425049Y245372D01*
X426183Y245223D01*
X427318Y245372D01*
X428375Y245810D01*
X429283Y246507D01*
X429980Y247415D01*
X430418Y248472D01*
X430567Y249607D01*
X430418Y250741D01*
X429980Y251799D01*
X429283Y252707D01*
X428375Y253403D01*
X427318Y253841D01*
X426183Y253991D01*
D02*
G37*
G36*
X176183D02*
X175049Y253841D01*
X173991Y253403D01*
X173083Y252707D01*
X172387Y251799D01*
X171949Y250741D01*
X171800Y249607D01*
X171949Y248472D01*
X172387Y247415D01*
X173083Y246507D01*
X173991Y245810D01*
X175049Y245372D01*
X176183Y245223D01*
X177318Y245372D01*
X178375Y245810D01*
X179283Y246507D01*
X179980Y247415D01*
X180418Y248472D01*
X180567Y249607D01*
X180418Y250741D01*
X179980Y251799D01*
X179283Y252707D01*
X178375Y253403D01*
X177318Y253841D01*
X176183Y253991D01*
D02*
G37*
G36*
X426183Y243991D02*
X425049Y243841D01*
X423991Y243403D01*
X423083Y242707D01*
X422387Y241799D01*
X421949Y240741D01*
X421800Y239607D01*
X421949Y238472D01*
X422387Y237415D01*
X423083Y236507D01*
X423991Y235810D01*
X425049Y235372D01*
X426183Y235223D01*
X427318Y235372D01*
X428375Y235810D01*
X429283Y236507D01*
X429980Y237415D01*
X430418Y238472D01*
X430567Y239607D01*
X430418Y240741D01*
X429980Y241799D01*
X429283Y242707D01*
X428375Y243403D01*
X427318Y243841D01*
X426183Y243991D01*
D02*
G37*
G36*
X176183D02*
X175049Y243841D01*
X173991Y243403D01*
X173083Y242707D01*
X172387Y241799D01*
X171949Y240741D01*
X171800Y239607D01*
X171949Y238472D01*
X172387Y237415D01*
X173083Y236507D01*
X173991Y235810D01*
X175049Y235372D01*
X176183Y235223D01*
X177318Y235372D01*
X178375Y235810D01*
X179283Y236507D01*
X179980Y237415D01*
X180418Y238472D01*
X180567Y239607D01*
X180418Y240741D01*
X179980Y241799D01*
X179283Y242707D01*
X178375Y243403D01*
X177318Y243841D01*
X176183Y243991D01*
D02*
G37*
G36*
X426183Y233991D02*
X425049Y233841D01*
X423991Y233403D01*
X423083Y232707D01*
X422387Y231799D01*
X421949Y230741D01*
X421800Y229607D01*
X421949Y228472D01*
X422387Y227415D01*
X423083Y226507D01*
X423991Y225810D01*
X425049Y225372D01*
X426183Y225223D01*
X427318Y225372D01*
X428375Y225810D01*
X429283Y226507D01*
X429980Y227415D01*
X430418Y228472D01*
X430567Y229607D01*
X430418Y230741D01*
X429980Y231799D01*
X429283Y232707D01*
X428375Y233403D01*
X427318Y233841D01*
X426183Y233991D01*
D02*
G37*
G36*
X176183D02*
X175049Y233841D01*
X173991Y233403D01*
X173083Y232707D01*
X172387Y231799D01*
X171949Y230741D01*
X171800Y229607D01*
X171949Y228472D01*
X172387Y227415D01*
X173083Y226507D01*
X173991Y225810D01*
X175049Y225372D01*
X176183Y225223D01*
X177318Y225372D01*
X178375Y225810D01*
X179283Y226507D01*
X179980Y227415D01*
X180418Y228472D01*
X180567Y229607D01*
X180418Y230741D01*
X179980Y231799D01*
X179283Y232707D01*
X178375Y233403D01*
X177318Y233841D01*
X176183Y233991D01*
D02*
G37*
G36*
Y223991D02*
X175049Y223841D01*
X173991Y223403D01*
X173083Y222707D01*
X172387Y221799D01*
X171949Y220741D01*
X171800Y219607D01*
X171949Y218472D01*
X172387Y217415D01*
X173083Y216507D01*
X173991Y215810D01*
X175049Y215372D01*
X176183Y215223D01*
X177318Y215372D01*
X178375Y215810D01*
X179283Y216507D01*
X179980Y217415D01*
X180418Y218472D01*
X180567Y219607D01*
X180418Y220741D01*
X179980Y221799D01*
X179283Y222707D01*
X178375Y223403D01*
X177318Y223841D01*
X176183Y223991D01*
D02*
G37*
G36*
X574557Y217631D02*
X573422Y217481D01*
X572365Y217043D01*
X571457Y216347D01*
X570760Y215439D01*
X570322Y214382D01*
X570173Y213247D01*
X570322Y212112D01*
X570760Y211055D01*
X571457Y210147D01*
X572365Y209450D01*
X573422Y209012D01*
X574557Y208863D01*
X575692Y209012D01*
X576749Y209450D01*
X577657Y210147D01*
X578354Y211055D01*
X578792Y212112D01*
X578941Y213247D01*
X578792Y214382D01*
X578354Y215439D01*
X577657Y216347D01*
X576749Y217043D01*
X575692Y217481D01*
X574557Y217631D01*
D02*
G37*
G36*
X426183Y213991D02*
X425049Y213841D01*
X423991Y213403D01*
X423083Y212707D01*
X422387Y211799D01*
X421949Y210741D01*
X421800Y209607D01*
X421949Y208472D01*
X422387Y207415D01*
X423083Y206507D01*
X423991Y205810D01*
X425049Y205372D01*
X426183Y205223D01*
X427318Y205372D01*
X428375Y205810D01*
X429283Y206507D01*
X429980Y207415D01*
X430418Y208472D01*
X430567Y209607D01*
X430418Y210741D01*
X429980Y211799D01*
X429283Y212707D01*
X428375Y213403D01*
X427318Y213841D01*
X426183Y213991D01*
D02*
G37*
G36*
X176183D02*
X175049Y213841D01*
X173991Y213403D01*
X173083Y212707D01*
X172387Y211799D01*
X171949Y210741D01*
X171800Y209607D01*
X171949Y208472D01*
X172387Y207415D01*
X173083Y206507D01*
X173991Y205810D01*
X175049Y205372D01*
X176183Y205223D01*
X177318Y205372D01*
X178375Y205810D01*
X179283Y206507D01*
X179980Y207415D01*
X180418Y208472D01*
X180567Y209607D01*
X180418Y210741D01*
X179980Y211799D01*
X179283Y212707D01*
X178375Y213403D01*
X177318Y213841D01*
X176183Y213991D01*
D02*
G37*
G36*
X574557Y207631D02*
X573422Y207482D01*
X572365Y207044D01*
X571457Y206347D01*
X570760Y205439D01*
X570322Y204381D01*
X570173Y203247D01*
X570322Y202112D01*
X570600Y201442D01*
X569105Y199947D01*
X568133D01*
X567887Y200447D01*
X568354Y201055D01*
X568791Y202112D01*
X568941Y203247D01*
X568791Y204381D01*
X568354Y205439D01*
X567657Y206347D01*
X566749Y207044D01*
X565692Y207482D01*
X564557Y207631D01*
X563422Y207482D01*
X562365Y207044D01*
X561457Y206347D01*
X560760Y205439D01*
X560322Y204381D01*
X560173Y203247D01*
X560322Y202112D01*
X560760Y201055D01*
X561227Y200447D01*
X560981Y199947D01*
X558661D01*
X558079Y199831D01*
X557586Y199501D01*
X557586Y199501D01*
X554094Y196010D01*
X547012D01*
X546883Y196203D01*
X546096Y196728D01*
X545168Y196913D01*
X544240Y196728D01*
X543454Y196203D01*
X542928Y195416D01*
X542744Y194488D01*
X542928Y193560D01*
X543454Y192774D01*
X544240Y192248D01*
X545168Y192064D01*
X546096Y192248D01*
X546883Y192774D01*
X547012Y192967D01*
X554724D01*
X555307Y193083D01*
X555800Y193412D01*
X559292Y196904D01*
X561405D01*
X561566Y196430D01*
X561457Y196347D01*
X560760Y195439D01*
X560322Y194381D01*
X560173Y193247D01*
X560322Y192112D01*
X560760Y191055D01*
X561457Y190147D01*
X562365Y189450D01*
X563422Y189012D01*
X564557Y188863D01*
X565692Y189012D01*
X566749Y189450D01*
X567657Y190147D01*
X568354Y191055D01*
X568791Y192112D01*
X568941Y193247D01*
X568791Y194381D01*
X568354Y195439D01*
X567657Y196347D01*
X567548Y196430D01*
X567709Y196904D01*
X569735D01*
X570317Y197020D01*
X570811Y197349D01*
X572752Y199290D01*
X573422Y199012D01*
X574557Y198863D01*
X575692Y199012D01*
X576749Y199450D01*
X577657Y200147D01*
X578354Y201055D01*
X578792Y202112D01*
X578941Y203247D01*
X578792Y204381D01*
X578354Y205439D01*
X577657Y206347D01*
X576749Y207044D01*
X575692Y207482D01*
X574557Y207631D01*
D02*
G37*
G36*
X307086Y366991D02*
X306158Y366807D01*
X305372Y366281D01*
X304846Y365495D01*
X304662Y364567D01*
X304846Y363639D01*
X305372Y362853D01*
X305565Y362723D01*
X305565Y201450D01*
X305372Y201321D01*
X304846Y200535D01*
X304662Y199607D01*
X304846Y198679D01*
X305372Y197892D01*
X306158Y197367D01*
X307086Y197182D01*
X308014Y197367D01*
X308801Y197892D01*
X309326Y198679D01*
X309511Y199607D01*
X309326Y200535D01*
X308801Y201321D01*
X308608Y201450D01*
X308608Y362723D01*
X308801Y362853D01*
X309326Y363639D01*
X309511Y364567D01*
X309326Y365495D01*
X308801Y366281D01*
X308014Y366807D01*
X307086Y366991D01*
D02*
G37*
G36*
X25589Y199770D02*
X24608Y199641D01*
X23695Y199263D01*
X22910Y198661D01*
X22308Y197876D01*
X21929Y196963D01*
X21904Y196768D01*
X21399D01*
X21374Y196963D01*
X20995Y197876D01*
X20393Y198661D01*
X19609Y199263D01*
X18695Y199641D01*
X17715Y199770D01*
X16734Y199641D01*
X15821Y199263D01*
X15036Y198661D01*
X14434Y197876D01*
X14055Y196963D01*
X13926Y195982D01*
X14055Y195002D01*
X14434Y194088D01*
X15036Y193303D01*
X15821Y192701D01*
X16734Y192323D01*
X16929Y192297D01*
Y191793D01*
X16734Y191767D01*
X15821Y191389D01*
X15036Y190787D01*
X14434Y190002D01*
X14055Y189088D01*
X13926Y188108D01*
X14055Y187127D01*
X14434Y186214D01*
X15036Y185429D01*
X15821Y184827D01*
X16734Y184449D01*
X16929Y184423D01*
Y183919D01*
X16734Y183893D01*
X15821Y183515D01*
X15036Y182913D01*
X14434Y182128D01*
X14055Y181214D01*
X13926Y180234D01*
X14055Y179253D01*
X14434Y178340D01*
X15036Y177555D01*
X15821Y176953D01*
X16734Y176575D01*
X16929Y176549D01*
Y176045D01*
X16734Y176019D01*
X15821Y175641D01*
X15036Y175039D01*
X14434Y174254D01*
X14055Y173340D01*
X13926Y172360D01*
X14055Y171379D01*
X14434Y170466D01*
X15036Y169681D01*
X15821Y169079D01*
X16734Y168701D01*
X16929Y168675D01*
Y168171D01*
X16734Y168145D01*
X15821Y167767D01*
X15036Y167165D01*
X14434Y166380D01*
X14055Y165466D01*
X13926Y164486D01*
X14055Y163505D01*
X14434Y162592D01*
X15036Y161807D01*
X15821Y161205D01*
X16734Y160827D01*
X16929Y160801D01*
Y160297D01*
X16734Y160271D01*
X15821Y159893D01*
X15036Y159291D01*
X14434Y158506D01*
X14055Y157592D01*
X13926Y156612D01*
X14055Y155631D01*
X14434Y154718D01*
X15036Y153933D01*
X15821Y153331D01*
X16734Y152953D01*
X16929Y152927D01*
Y152423D01*
X16734Y152397D01*
X15821Y152019D01*
X15036Y151417D01*
X14434Y150632D01*
X14055Y149718D01*
X13926Y148738D01*
X14055Y147757D01*
X14434Y146844D01*
X15036Y146059D01*
X15821Y145457D01*
X16734Y145079D01*
X16929Y145053D01*
Y144549D01*
X16734Y144523D01*
X15821Y144145D01*
X15036Y143543D01*
X14434Y142758D01*
X14055Y141844D01*
X13926Y140864D01*
X14055Y139883D01*
X14434Y138970D01*
X15036Y138185D01*
X15821Y137583D01*
X16734Y137205D01*
X16929Y137179D01*
Y136675D01*
X16734Y136649D01*
X15821Y136271D01*
X15036Y135669D01*
X14434Y134884D01*
X14055Y133970D01*
X13926Y132990D01*
X14055Y132009D01*
X14434Y131096D01*
X15036Y130311D01*
X15821Y129709D01*
X16734Y129331D01*
X16929Y129305D01*
Y128801D01*
X16734Y128775D01*
X15821Y128397D01*
X15036Y127795D01*
X14434Y127010D01*
X14055Y126096D01*
X13926Y125116D01*
X14055Y124135D01*
X14434Y123222D01*
X15036Y122437D01*
X15821Y121835D01*
X16734Y121457D01*
X17715Y121328D01*
X18695Y121457D01*
X19609Y121835D01*
X20393Y122437D01*
X20995Y123222D01*
X21374Y124135D01*
X21399Y124330D01*
X21904D01*
X21929Y124135D01*
X22308Y123222D01*
X22910Y122437D01*
X23695Y121835D01*
X24608Y121457D01*
X24803Y121431D01*
Y120927D01*
X24608Y120901D01*
X23695Y120523D01*
X22910Y119921D01*
X22308Y119136D01*
X21929Y118222D01*
X21800Y117242D01*
X21929Y116261D01*
X22308Y115348D01*
X22910Y114563D01*
X23695Y113961D01*
X24608Y113583D01*
X25589Y113454D01*
X26569Y113583D01*
X27483Y113961D01*
X28267Y114563D01*
X28869Y115348D01*
X29248Y116261D01*
X29377Y117242D01*
X29248Y118222D01*
X28869Y119136D01*
X28267Y119921D01*
X27483Y120523D01*
X26569Y120901D01*
X26375Y120927D01*
Y121431D01*
X26569Y121457D01*
X27483Y121835D01*
X28267Y122437D01*
X28869Y123222D01*
X29248Y124135D01*
X29377Y125116D01*
X29248Y126096D01*
X28869Y127010D01*
X28267Y127795D01*
X27483Y128397D01*
X26569Y128775D01*
X26375Y128801D01*
Y129305D01*
X26569Y129331D01*
X27483Y129709D01*
X28267Y130311D01*
X28869Y131096D01*
X29248Y132009D01*
X29377Y132990D01*
X29248Y133970D01*
X28869Y134884D01*
X28267Y135669D01*
X27483Y136271D01*
X26569Y136649D01*
X26375Y136675D01*
Y137179D01*
X26569Y137205D01*
X27483Y137583D01*
X28267Y138185D01*
X28869Y138970D01*
X29248Y139883D01*
X29377Y140864D01*
X29248Y141844D01*
X28869Y142758D01*
X28267Y143543D01*
X27483Y144145D01*
X26569Y144523D01*
X26375Y144549D01*
Y145053D01*
X26569Y145079D01*
X27483Y145457D01*
X28267Y146059D01*
X28869Y146844D01*
X29248Y147757D01*
X29377Y148738D01*
X29248Y149718D01*
X28869Y150632D01*
X28267Y151417D01*
X27483Y152019D01*
X26569Y152397D01*
X26375Y152423D01*
Y152927D01*
X26569Y152953D01*
X27483Y153331D01*
X28267Y153933D01*
X28869Y154718D01*
X29248Y155631D01*
X29377Y156612D01*
X29248Y157592D01*
X28869Y158506D01*
X28267Y159291D01*
X27483Y159893D01*
X26569Y160271D01*
X26375Y160297D01*
Y160801D01*
X26569Y160827D01*
X27483Y161205D01*
X28267Y161807D01*
X28869Y162592D01*
X29248Y163505D01*
X29377Y164486D01*
X29248Y165466D01*
X28869Y166380D01*
X28267Y167165D01*
X27483Y167767D01*
X26569Y168145D01*
X26375Y168171D01*
Y168675D01*
X26569Y168701D01*
X27483Y169079D01*
X28267Y169681D01*
X28869Y170466D01*
X29248Y171379D01*
X29377Y172360D01*
X29248Y173340D01*
X28869Y174254D01*
X28267Y175039D01*
X27483Y175641D01*
X26569Y176019D01*
X26375Y176045D01*
Y176549D01*
X26569Y176575D01*
X27483Y176953D01*
X28267Y177555D01*
X28869Y178340D01*
X29248Y179253D01*
X29377Y180234D01*
X29248Y181214D01*
X28869Y182128D01*
X28267Y182913D01*
X27483Y183515D01*
X26569Y183893D01*
X26375Y183919D01*
Y184423D01*
X26569Y184449D01*
X27483Y184827D01*
X28267Y185429D01*
X28869Y186214D01*
X29248Y187127D01*
X29377Y188108D01*
X29248Y189088D01*
X28869Y190002D01*
X28267Y190787D01*
X27483Y191389D01*
X26569Y191767D01*
X26375Y191793D01*
Y192297D01*
X26569Y192323D01*
X27483Y192701D01*
X28267Y193303D01*
X28869Y194088D01*
X29248Y195002D01*
X29377Y195982D01*
X29248Y196963D01*
X28869Y197876D01*
X28267Y198661D01*
X27483Y199263D01*
X26569Y199641D01*
X25589Y199770D01*
D02*
G37*
G36*
X426183Y203991D02*
X425049Y203841D01*
X423991Y203403D01*
X423083Y202707D01*
X422387Y201799D01*
X421949Y200741D01*
X421800Y199607D01*
X421949Y198472D01*
X422387Y197415D01*
X423083Y196507D01*
X423991Y195810D01*
X425049Y195372D01*
X426183Y195223D01*
X427318Y195372D01*
X428375Y195810D01*
X429283Y196507D01*
X429980Y197415D01*
X430418Y198472D01*
X430567Y199607D01*
X430418Y200741D01*
X429980Y201799D01*
X429283Y202707D01*
X428375Y203403D01*
X427318Y203841D01*
X426183Y203991D01*
D02*
G37*
G36*
X176183D02*
X175049Y203841D01*
X173991Y203403D01*
X173083Y202707D01*
X172387Y201799D01*
X171949Y200741D01*
X171800Y199607D01*
X171949Y198472D01*
X172387Y197415D01*
X173083Y196507D01*
X173991Y195810D01*
X175049Y195372D01*
X176183Y195223D01*
X177318Y195372D01*
X178375Y195810D01*
X179283Y196507D01*
X179980Y197415D01*
X180418Y198472D01*
X180567Y199607D01*
X180418Y200741D01*
X179980Y201799D01*
X179283Y202707D01*
X178375Y203403D01*
X177318Y203841D01*
X176183Y203991D01*
D02*
G37*
G36*
X574557Y197631D02*
X573422Y197482D01*
X572365Y197044D01*
X571457Y196347D01*
X570760Y195439D01*
X570322Y194381D01*
X570173Y193247D01*
X570322Y192112D01*
X570760Y191055D01*
X571457Y190147D01*
X572365Y189450D01*
X573422Y189012D01*
X574557Y188863D01*
X575692Y189012D01*
X576749Y189450D01*
X577657Y190147D01*
X578354Y191055D01*
X578792Y192112D01*
X578941Y193247D01*
X578792Y194381D01*
X578354Y195439D01*
X577657Y196347D01*
X576749Y197044D01*
X575692Y197482D01*
X574557Y197631D01*
D02*
G37*
G36*
X211811Y535102D02*
X114567D01*
X113639Y534917D01*
X112853Y534392D01*
X87401Y508941D01*
X86876Y508154D01*
X86691Y507226D01*
Y341576D01*
X86876Y340648D01*
X87093Y340323D01*
Y319607D01*
X87247Y318832D01*
X87685Y318176D01*
X90269Y315592D01*
X90925Y315154D01*
X91699Y315000D01*
X98120D01*
X98444Y314783D01*
X99372Y314598D01*
X100300Y314783D01*
X101087Y315309D01*
X101612Y316095D01*
X101797Y317023D01*
X101612Y317951D01*
X101087Y318737D01*
X100300Y319263D01*
X99372Y319447D01*
X98444Y319263D01*
X98120Y319046D01*
X92537D01*
X91139Y320445D01*
Y333551D01*
X91639Y333961D01*
X92069Y333876D01*
X92996Y334060D01*
X93783Y334586D01*
X93912Y334779D01*
X154376D01*
X154505Y334586D01*
X155292Y334060D01*
X156219Y333876D01*
X157147Y334060D01*
X157821Y334510D01*
X158321Y334334D01*
Y276647D01*
X158128Y276518D01*
X157603Y275731D01*
X157418Y274803D01*
X157603Y273875D01*
X158128Y273089D01*
X158321Y272960D01*
Y175948D01*
X158437Y175365D01*
X158767Y174872D01*
X172227Y161412D01*
X171949Y160741D01*
X171800Y159607D01*
X171949Y158472D01*
X172387Y157415D01*
X173083Y156507D01*
X173991Y155810D01*
X175049Y155372D01*
X176183Y155223D01*
X177318Y155372D01*
X178375Y155810D01*
X179283Y156507D01*
X179980Y157415D01*
X180418Y158472D01*
X180567Y159607D01*
X180418Y160741D01*
X179980Y161799D01*
X179283Y162707D01*
X178375Y163403D01*
X177318Y163841D01*
X176183Y163991D01*
X175049Y163841D01*
X174378Y163564D01*
X161364Y176578D01*
Y192156D01*
X161864Y192363D01*
X172405Y181822D01*
X172387Y181799D01*
X171949Y180741D01*
X171800Y179607D01*
X171949Y178472D01*
X172387Y177415D01*
X173083Y176507D01*
X173991Y175810D01*
X175049Y175372D01*
X176183Y175223D01*
X177318Y175372D01*
X178375Y175810D01*
X179283Y176507D01*
X179980Y177415D01*
X180418Y178472D01*
X180567Y179607D01*
X180418Y180741D01*
X179980Y181799D01*
X179283Y182707D01*
X178375Y183403D01*
X177318Y183841D01*
X176183Y183991D01*
X175049Y183841D01*
X174794Y183736D01*
X164120Y194410D01*
Y198893D01*
X164620Y199045D01*
X164672Y198966D01*
X172227Y191412D01*
X171949Y190741D01*
X171800Y189607D01*
X171949Y188472D01*
X172387Y187415D01*
X173083Y186507D01*
X173991Y185810D01*
X175049Y185372D01*
X176183Y185223D01*
X177318Y185372D01*
X178375Y185810D01*
X179283Y186507D01*
X179980Y187415D01*
X180418Y188472D01*
X180567Y189607D01*
X180418Y190741D01*
X179980Y191799D01*
X179283Y192707D01*
X178375Y193403D01*
X177318Y193841D01*
X176183Y193991D01*
X175049Y193841D01*
X174378Y193563D01*
X167269Y200672D01*
Y368235D01*
X167462Y368364D01*
X167988Y369151D01*
X168173Y370079D01*
X167988Y371007D01*
X167462Y371793D01*
X166676Y372319D01*
X165748Y372503D01*
X164820Y372319D01*
X164561Y372145D01*
X164120Y372381D01*
Y374535D01*
X164313Y374663D01*
X164838Y375450D01*
X165023Y376378D01*
X164838Y377306D01*
X164313Y378092D01*
X163526Y378618D01*
X162598Y378802D01*
X161671Y378618D01*
X160884Y378092D01*
X160358Y377306D01*
X160174Y376378D01*
X160358Y375450D01*
X160884Y374663D01*
X161077Y374535D01*
Y365922D01*
X160577Y365610D01*
X159843Y365756D01*
X158915Y365571D01*
X158128Y365045D01*
X157603Y364259D01*
X157418Y363331D01*
X157603Y362403D01*
X158128Y361617D01*
X158321Y361488D01*
Y338266D01*
X157821Y338090D01*
X157147Y338540D01*
X156219Y338725D01*
X155292Y338540D01*
X154505Y338015D01*
X154376Y337822D01*
X93912D01*
X93783Y338015D01*
X92996Y338540D01*
X92069Y338725D01*
X91639Y338639D01*
X91139Y339050D01*
Y340323D01*
X91356Y340648D01*
X91540Y341576D01*
Y506222D01*
X115571Y530253D01*
X211811D01*
X212739Y530437D01*
X213525Y530963D01*
X214051Y531749D01*
X214236Y532677D01*
X214051Y533605D01*
X213525Y534392D01*
X212739Y534917D01*
X211811Y535102D01*
D02*
G37*
G36*
X574557Y187631D02*
X573422Y187481D01*
X572365Y187043D01*
X571457Y186347D01*
X570760Y185439D01*
X570322Y184381D01*
X570173Y183247D01*
X570322Y182112D01*
X570760Y181055D01*
X571457Y180147D01*
X572365Y179450D01*
X573422Y179012D01*
X574557Y178863D01*
X575692Y179012D01*
X576749Y179450D01*
X577657Y180147D01*
X578354Y181055D01*
X578792Y182112D01*
X578941Y183247D01*
X578792Y184381D01*
X578354Y185439D01*
X577657Y186347D01*
X576749Y187043D01*
X575692Y187481D01*
X574557Y187631D01*
D02*
G37*
G36*
X564557D02*
X563422Y187481D01*
X562365Y187043D01*
X561457Y186347D01*
X560760Y185439D01*
X560322Y184381D01*
X560173Y183247D01*
X560322Y182112D01*
X560760Y181055D01*
X561457Y180147D01*
X562365Y179450D01*
X563422Y179012D01*
X564557Y178863D01*
X565692Y179012D01*
X566749Y179450D01*
X567657Y180147D01*
X568354Y181055D01*
X568791Y182112D01*
X568941Y183247D01*
X568791Y184381D01*
X568354Y185439D01*
X567657Y186347D01*
X566749Y187043D01*
X565692Y187481D01*
X564557Y187631D01*
D02*
G37*
G36*
X316420Y544343D02*
X315285Y544193D01*
X314228Y543755D01*
X313320Y543059D01*
X312623Y542151D01*
X312185Y541093D01*
X312036Y539959D01*
X312185Y538824D01*
X312623Y537767D01*
X313320Y536859D01*
X314228Y536162D01*
X314898Y535884D01*
X314898Y180977D01*
X314705Y180848D01*
X314180Y180062D01*
X313995Y179134D01*
X314180Y178206D01*
X314705Y177419D01*
X315492Y176894D01*
X316420Y176709D01*
X317348Y176894D01*
X318134Y177419D01*
X318660Y178206D01*
X318844Y179134D01*
X318660Y180062D01*
X318134Y180848D01*
X317941Y180977D01*
X317941Y535884D01*
X318612Y536162D01*
X319520Y536859D01*
X320216Y537767D01*
X320654Y538824D01*
X320804Y539959D01*
X320654Y541093D01*
X320216Y542151D01*
X319520Y543059D01*
X318612Y543755D01*
X317554Y544193D01*
X316420Y544343D01*
D02*
G37*
G36*
X426183Y183991D02*
X425049Y183841D01*
X423991Y183403D01*
X423083Y182707D01*
X422387Y181799D01*
X421949Y180741D01*
X421800Y179607D01*
X421949Y178472D01*
X422387Y177415D01*
X423083Y176507D01*
X423991Y175810D01*
X425049Y175372D01*
X426183Y175223D01*
X427318Y175372D01*
X428375Y175810D01*
X429283Y176507D01*
X429980Y177415D01*
X430418Y178472D01*
X430567Y179607D01*
X430418Y180741D01*
X429980Y181799D01*
X429283Y182707D01*
X428375Y183403D01*
X427318Y183841D01*
X426183Y183991D01*
D02*
G37*
G36*
X574557Y177631D02*
X573422Y177481D01*
X572365Y177043D01*
X571457Y176347D01*
X570760Y175439D01*
X570322Y174381D01*
X570173Y173247D01*
X570322Y172112D01*
X570760Y171055D01*
X571457Y170147D01*
X572365Y169450D01*
X573422Y169012D01*
X574557Y168863D01*
X575692Y169012D01*
X576749Y169450D01*
X577657Y170147D01*
X578354Y171055D01*
X578792Y172112D01*
X578941Y173247D01*
X578792Y174381D01*
X578354Y175439D01*
X577657Y176347D01*
X576749Y177043D01*
X575692Y177481D01*
X574557Y177631D01*
D02*
G37*
G36*
X564557D02*
X563422Y177481D01*
X562365Y177043D01*
X561457Y176347D01*
X560760Y175439D01*
X560322Y174381D01*
X560173Y173247D01*
X560322Y172112D01*
X560760Y171055D01*
X561457Y170147D01*
X562365Y169450D01*
X563422Y169012D01*
X564557Y168863D01*
X565692Y169012D01*
X566749Y169450D01*
X567657Y170147D01*
X568354Y171055D01*
X568791Y172112D01*
X568941Y173247D01*
X568791Y174381D01*
X568354Y175439D01*
X567657Y176347D01*
X566749Y177043D01*
X565692Y177481D01*
X564557Y177631D01*
D02*
G37*
G36*
X326420Y544343D02*
X325285Y544193D01*
X324228Y543755D01*
X323320Y543059D01*
X322623Y542151D01*
X322185Y541093D01*
X322036Y539959D01*
X322185Y538824D01*
X322623Y537767D01*
X323320Y536859D01*
X324228Y536162D01*
X324898Y535884D01*
X324898Y171450D01*
X324705Y171321D01*
X324180Y170535D01*
X323995Y169607D01*
X324180Y168679D01*
X324705Y167892D01*
X325492Y167367D01*
X326420Y167182D01*
X327347Y167367D01*
X328134Y167892D01*
X328660Y168679D01*
X328844Y169607D01*
X328660Y170535D01*
X328134Y171321D01*
X327941Y171450D01*
X327941Y535884D01*
X328612Y536162D01*
X329520Y536859D01*
X330216Y537767D01*
X330654Y538824D01*
X330804Y539959D01*
X330654Y541093D01*
X330216Y542151D01*
X329520Y543059D01*
X328612Y543755D01*
X327554Y544193D01*
X326420Y544343D01*
D02*
G37*
G36*
X426183Y173991D02*
X425049Y173841D01*
X423991Y173403D01*
X423083Y172707D01*
X422387Y171799D01*
X421949Y170741D01*
X421800Y169607D01*
X421949Y168472D01*
X422387Y167415D01*
X423083Y166507D01*
X423991Y165810D01*
X425049Y165372D01*
X426183Y165223D01*
X427318Y165372D01*
X428375Y165810D01*
X429283Y166507D01*
X429980Y167415D01*
X430418Y168472D01*
X430567Y169607D01*
X430418Y170741D01*
X429980Y171799D01*
X429283Y172707D01*
X428375Y173403D01*
X427318Y173841D01*
X426183Y173991D01*
D02*
G37*
G36*
X564557Y167631D02*
X563422Y167482D01*
X562365Y167043D01*
X561457Y166347D01*
X560760Y165439D01*
X560322Y164382D01*
X560173Y163247D01*
X560322Y162112D01*
X560760Y161055D01*
X561457Y160147D01*
X562365Y159450D01*
X563422Y159012D01*
X564557Y158863D01*
X565692Y159012D01*
X566749Y159450D01*
X567657Y160147D01*
X568354Y161055D01*
X568791Y162112D01*
X568941Y163247D01*
X568791Y164382D01*
X568354Y165439D01*
X567657Y166347D01*
X566749Y167043D01*
X565692Y167482D01*
X564557Y167631D01*
D02*
G37*
G36*
X426183Y163991D02*
X425049Y163841D01*
X423991Y163403D01*
X423083Y162707D01*
X422387Y161799D01*
X421949Y160741D01*
X421800Y159607D01*
X421949Y158472D01*
X422387Y157415D01*
X423083Y156507D01*
X423991Y155810D01*
X425049Y155372D01*
X426183Y155223D01*
X427318Y155372D01*
X428375Y155810D01*
X429283Y156507D01*
X429980Y157415D01*
X430418Y158472D01*
X430567Y159607D01*
X430418Y160741D01*
X429980Y161799D01*
X429283Y162707D01*
X428375Y163403D01*
X427318Y163841D01*
X426183Y163991D01*
D02*
G37*
G36*
X574557Y157631D02*
X573422Y157482D01*
X572365Y157044D01*
X571457Y156347D01*
X570760Y155439D01*
X570322Y154382D01*
X570173Y153247D01*
X570322Y152112D01*
X570760Y151055D01*
X571457Y150147D01*
X572365Y149450D01*
X573422Y149012D01*
X574557Y148863D01*
X575692Y149012D01*
X576749Y149450D01*
X577657Y150147D01*
X578354Y151055D01*
X578792Y152112D01*
X578941Y153247D01*
X578792Y154382D01*
X578354Y155439D01*
X577657Y156347D01*
X576749Y157044D01*
X575692Y157482D01*
X574557Y157631D01*
D02*
G37*
G36*
X564557D02*
X563422Y157482D01*
X562365Y157044D01*
X561457Y156347D01*
X560760Y155439D01*
X560322Y154382D01*
X560173Y153247D01*
X560322Y152112D01*
X560760Y151055D01*
X561457Y150147D01*
X562365Y149450D01*
X563422Y149012D01*
X564557Y148863D01*
X565692Y149012D01*
X566749Y149450D01*
X567657Y150147D01*
X568354Y151055D01*
X568791Y152112D01*
X568941Y153247D01*
X568791Y154382D01*
X568354Y155439D01*
X567657Y156347D01*
X566749Y157044D01*
X565692Y157482D01*
X564557Y157631D01*
D02*
G37*
G36*
X426183Y153991D02*
X425049Y153841D01*
X423991Y153403D01*
X423083Y152707D01*
X422387Y151799D01*
X421949Y150741D01*
X421800Y149607D01*
X421949Y148472D01*
X422387Y147415D01*
X423083Y146507D01*
X423991Y145810D01*
X425049Y145372D01*
X426183Y145223D01*
X427318Y145372D01*
X428375Y145810D01*
X429283Y146507D01*
X429980Y147415D01*
X430418Y148472D01*
X430567Y149607D01*
X430418Y150741D01*
X429980Y151799D01*
X429283Y152707D01*
X428375Y153403D01*
X427318Y153841D01*
X426183Y153991D01*
D02*
G37*
G36*
X176183D02*
X175049Y153841D01*
X173991Y153403D01*
X173083Y152707D01*
X172387Y151799D01*
X171949Y150741D01*
X171800Y149607D01*
X171949Y148472D01*
X172387Y147415D01*
X173083Y146507D01*
X173991Y145810D01*
X175049Y145372D01*
X176183Y145223D01*
X177318Y145372D01*
X178375Y145810D01*
X179283Y146507D01*
X179980Y147415D01*
X180418Y148472D01*
X180567Y149607D01*
X180418Y150741D01*
X179980Y151799D01*
X179283Y152707D01*
X178375Y153403D01*
X177318Y153841D01*
X176183Y153991D01*
D02*
G37*
G36*
X188976Y326834D02*
X188049Y326649D01*
X187262Y326124D01*
X186736Y325337D01*
X186552Y324410D01*
X186736Y323482D01*
X187262Y322695D01*
X187455Y322566D01*
Y153030D01*
X177989Y143563D01*
X177318Y143841D01*
X176183Y143991D01*
X175049Y143841D01*
X173991Y143403D01*
X173083Y142707D01*
X172387Y141799D01*
X171949Y140741D01*
X171800Y139607D01*
X171949Y138472D01*
X172387Y137415D01*
X173083Y136507D01*
X173991Y135810D01*
X175049Y135372D01*
X176183Y135223D01*
X177318Y135372D01*
X178375Y135810D01*
X179283Y136507D01*
X179980Y137415D01*
X180418Y138472D01*
X180567Y139607D01*
X180418Y140741D01*
X180140Y141412D01*
X190052Y151324D01*
X190382Y151817D01*
X190498Y152400D01*
X190498Y152400D01*
Y322566D01*
X190691Y322695D01*
X191216Y323482D01*
X191401Y324410D01*
X191216Y325337D01*
X190691Y326124D01*
X189904Y326649D01*
X188976Y326834D01*
D02*
G37*
G36*
X574557Y147631D02*
X573422Y147482D01*
X572365Y147044D01*
X571457Y146347D01*
X570760Y145439D01*
X570322Y144381D01*
X570173Y143247D01*
X570322Y142112D01*
X570760Y141055D01*
X571457Y140147D01*
X572365Y139450D01*
X573422Y139012D01*
X574557Y138863D01*
X575692Y139012D01*
X576749Y139450D01*
X577657Y140147D01*
X578354Y141055D01*
X578792Y142112D01*
X578941Y143247D01*
X578792Y144381D01*
X578354Y145439D01*
X577657Y146347D01*
X576749Y147044D01*
X575692Y147482D01*
X574557Y147631D01*
D02*
G37*
G36*
X564557D02*
X563422Y147482D01*
X562365Y147044D01*
X561457Y146347D01*
X560760Y145439D01*
X560322Y144381D01*
X560173Y143247D01*
X560322Y142112D01*
X560760Y141055D01*
X561457Y140147D01*
X562365Y139450D01*
X563422Y139012D01*
X564557Y138863D01*
X565692Y139012D01*
X566749Y139450D01*
X567657Y140147D01*
X568354Y141055D01*
X568791Y142112D01*
X568941Y143247D01*
X568791Y144381D01*
X568354Y145439D01*
X567657Y146347D01*
X566749Y147044D01*
X565692Y147482D01*
X564557Y147631D01*
D02*
G37*
G36*
X574557Y137631D02*
X573422Y137481D01*
X572365Y137043D01*
X571457Y136347D01*
X570760Y135439D01*
X570322Y134381D01*
X570173Y133247D01*
X570322Y132112D01*
X570760Y131055D01*
X571457Y130147D01*
X572365Y129450D01*
X573422Y129012D01*
X574557Y128863D01*
X575692Y129012D01*
X576749Y129450D01*
X577657Y130147D01*
X578354Y131055D01*
X578792Y132112D01*
X578941Y133247D01*
X578792Y134381D01*
X578354Y135439D01*
X577657Y136347D01*
X576749Y137043D01*
X575692Y137481D01*
X574557Y137631D01*
D02*
G37*
G36*
X564557D02*
X563422Y137481D01*
X562365Y137043D01*
X561457Y136347D01*
X560760Y135439D01*
X560322Y134381D01*
X560173Y133247D01*
X560322Y132112D01*
X560760Y131055D01*
X561457Y130147D01*
X562365Y129450D01*
X563422Y129012D01*
X564557Y128863D01*
X565692Y129012D01*
X566749Y129450D01*
X567657Y130147D01*
X568354Y131055D01*
X568791Y132112D01*
X568941Y133247D01*
X568791Y134381D01*
X568354Y135439D01*
X567657Y136347D01*
X566749Y137043D01*
X565692Y137481D01*
X564557Y137631D01*
D02*
G37*
G36*
X176183Y133991D02*
X175049Y133841D01*
X173991Y133403D01*
X173083Y132707D01*
X172387Y131799D01*
X171949Y130741D01*
X171800Y129607D01*
X171949Y128472D01*
X172387Y127415D01*
X173083Y126507D01*
X173991Y125810D01*
X175049Y125372D01*
X176183Y125223D01*
X177318Y125372D01*
X178375Y125810D01*
X179283Y126507D01*
X179980Y127415D01*
X180418Y128472D01*
X180567Y129607D01*
X180418Y130741D01*
X179980Y131799D01*
X179283Y132707D01*
X178375Y133403D01*
X177318Y133841D01*
X176183Y133991D01*
D02*
G37*
G36*
X426183Y123991D02*
X425049Y123841D01*
X423991Y123403D01*
X423083Y122707D01*
X422387Y121799D01*
X421949Y120741D01*
X421800Y119607D01*
X421949Y118472D01*
X422387Y117415D01*
X423083Y116507D01*
X423991Y115810D01*
X425049Y115372D01*
X426183Y115223D01*
X427318Y115372D01*
X428375Y115810D01*
X429283Y116507D01*
X429980Y117415D01*
X430418Y118472D01*
X430567Y119607D01*
X430418Y120741D01*
X429980Y121799D01*
X429283Y122707D01*
X428375Y123403D01*
X427318Y123841D01*
X426183Y123991D01*
D02*
G37*
G36*
X176183D02*
X175049Y123841D01*
X173991Y123403D01*
X173083Y122707D01*
X172387Y121799D01*
X171949Y120741D01*
X171800Y119607D01*
X171949Y118472D01*
X172387Y117415D01*
X173083Y116507D01*
X173991Y115810D01*
X175049Y115372D01*
X176183Y115223D01*
X177318Y115372D01*
X178375Y115810D01*
X179283Y116507D01*
X179980Y117415D01*
X180418Y118472D01*
X180567Y119607D01*
X180418Y120741D01*
X179980Y121799D01*
X179283Y122707D01*
X178375Y123403D01*
X177318Y123841D01*
X176183Y123991D01*
D02*
G37*
G36*
Y113991D02*
X175049Y113841D01*
X173991Y113403D01*
X173083Y112707D01*
X172387Y111799D01*
X171949Y110741D01*
X171800Y109607D01*
X171949Y108472D01*
X172387Y107415D01*
X173083Y106507D01*
X173991Y105810D01*
X175049Y105372D01*
X176183Y105223D01*
X177318Y105372D01*
X178375Y105810D01*
X179283Y106507D01*
X179980Y107415D01*
X180418Y108472D01*
X180567Y109607D01*
X180418Y110741D01*
X179980Y111799D01*
X179283Y112707D01*
X178375Y113403D01*
X177318Y113841D01*
X176183Y113991D01*
D02*
G37*
G36*
X487086Y114551D02*
X486158Y114367D01*
X485371Y113841D01*
X484846Y113055D01*
X484661Y112127D01*
X484846Y111199D01*
X485063Y110874D01*
Y105267D01*
X484846Y104943D01*
X484661Y104015D01*
X484846Y103087D01*
X485371Y102300D01*
X486158Y101775D01*
X487086Y101590D01*
X488014Y101775D01*
X488800Y102300D01*
X489326Y103087D01*
X489510Y104015D01*
X489326Y104943D01*
X489109Y105267D01*
Y110874D01*
X489326Y111199D01*
X489510Y112127D01*
X489326Y113055D01*
X488800Y113841D01*
X488014Y114367D01*
X487086Y114551D01*
D02*
G37*
G36*
X492520Y114551D02*
X491592Y114367D01*
X490805Y113841D01*
X490280Y113055D01*
X490095Y112127D01*
X490280Y111199D01*
X490497Y110874D01*
Y100267D01*
X490280Y99943D01*
X490095Y99015D01*
X490280Y98087D01*
X490805Y97300D01*
X491592Y96775D01*
X492520Y96590D01*
X493447Y96775D01*
X494234Y97300D01*
X494760Y98087D01*
X494944Y99015D01*
X494760Y99943D01*
X494543Y100267D01*
Y110874D01*
X494760Y111199D01*
X494944Y112127D01*
X494760Y113055D01*
X494234Y113841D01*
X493447Y114367D01*
X492520Y114551D01*
D02*
G37*
G36*
X426183Y103991D02*
X425049Y103841D01*
X423991Y103403D01*
X423083Y102707D01*
X422387Y101799D01*
X421949Y100741D01*
X421800Y99607D01*
X421949Y98472D01*
X422387Y97415D01*
X423083Y96507D01*
X423991Y95810D01*
X425049Y95372D01*
X426183Y95223D01*
X427318Y95372D01*
X428375Y95810D01*
X429283Y96507D01*
X429980Y97415D01*
X430418Y98472D01*
X430567Y99607D01*
X430418Y100741D01*
X429980Y101799D01*
X429283Y102707D01*
X428375Y103403D01*
X427318Y103841D01*
X426183Y103991D01*
D02*
G37*
G36*
X176183D02*
X175049Y103841D01*
X173991Y103403D01*
X173083Y102707D01*
X172387Y101799D01*
X171949Y100741D01*
X171800Y99607D01*
X171949Y98472D01*
X172387Y97415D01*
X173083Y96507D01*
X173991Y95810D01*
X175049Y95372D01*
X176183Y95223D01*
X177318Y95372D01*
X178375Y95810D01*
X179283Y96507D01*
X179980Y97415D01*
X180418Y98472D01*
X180567Y99607D01*
X180418Y100741D01*
X179980Y101799D01*
X179283Y102707D01*
X178375Y103403D01*
X177318Y103841D01*
X176183Y103991D01*
D02*
G37*
G36*
X525589Y103274D02*
X524454Y103125D01*
X523397Y102687D01*
X522489Y101990D01*
X521792Y101082D01*
X521354Y100025D01*
X521205Y98890D01*
X521354Y97755D01*
X521792Y96698D01*
X522489Y95790D01*
X523397Y95093D01*
X524454Y94655D01*
X525589Y94506D01*
X526723Y94655D01*
X527781Y95093D01*
X528689Y95790D01*
X529385Y96698D01*
X529823Y97755D01*
X529973Y98890D01*
X529823Y100025D01*
X529385Y101082D01*
X528689Y101990D01*
X527781Y102687D01*
X526723Y103125D01*
X525589Y103274D01*
D02*
G37*
G36*
X426183Y93991D02*
X425049Y93841D01*
X423991Y93403D01*
X423083Y92707D01*
X422387Y91799D01*
X421949Y90741D01*
X421800Y89607D01*
X421949Y88472D01*
X422387Y87415D01*
X423083Y86507D01*
X423991Y85810D01*
X425049Y85372D01*
X426183Y85223D01*
X427318Y85372D01*
X428375Y85810D01*
X429283Y86507D01*
X429980Y87415D01*
X430418Y88472D01*
X430567Y89607D01*
X430418Y90741D01*
X429980Y91799D01*
X429283Y92707D01*
X428375Y93403D01*
X427318Y93841D01*
X426183Y93991D01*
D02*
G37*
G36*
X176183D02*
X175049Y93841D01*
X173991Y93403D01*
X173083Y92707D01*
X172387Y91799D01*
X171949Y90741D01*
X171800Y89607D01*
X171949Y88472D01*
X172387Y87415D01*
X173083Y86507D01*
X173991Y85810D01*
X175049Y85372D01*
X176183Y85223D01*
X177318Y85372D01*
X178375Y85810D01*
X179283Y86507D01*
X179980Y87415D01*
X180418Y88472D01*
X180567Y89607D01*
X180418Y90741D01*
X179980Y91799D01*
X179283Y92707D01*
X178375Y93403D01*
X177318Y93841D01*
X176183Y93991D01*
D02*
G37*
G36*
X525589Y93274D02*
X524454Y93125D01*
X523397Y92687D01*
X522489Y91990D01*
X521792Y91082D01*
X521354Y90025D01*
X521205Y88890D01*
X521354Y87755D01*
X521792Y86698D01*
X522489Y85790D01*
X523397Y85093D01*
X524454Y84655D01*
X525589Y84506D01*
X526723Y84655D01*
X527781Y85093D01*
X528689Y85790D01*
X529385Y86698D01*
X529823Y87755D01*
X529973Y88890D01*
X529823Y90025D01*
X529385Y91082D01*
X528689Y91990D01*
X527781Y92687D01*
X526723Y93125D01*
X525589Y93274D01*
D02*
G37*
G36*
X426183Y83991D02*
X425049Y83841D01*
X423991Y83403D01*
X423083Y82707D01*
X422387Y81799D01*
X421949Y80741D01*
X421800Y79607D01*
X421949Y78472D01*
X422387Y77415D01*
X423083Y76507D01*
X423991Y75810D01*
X425049Y75372D01*
X426183Y75223D01*
X427318Y75372D01*
X428375Y75810D01*
X429283Y76507D01*
X429980Y77415D01*
X430418Y78472D01*
X430567Y79607D01*
X430418Y80741D01*
X429980Y81799D01*
X429283Y82707D01*
X428375Y83403D01*
X427318Y83841D01*
X426183Y83991D01*
D02*
G37*
G36*
X176183D02*
X175049Y83841D01*
X173991Y83403D01*
X173083Y82707D01*
X172387Y81799D01*
X171949Y80741D01*
X171800Y79607D01*
X171949Y78472D01*
X172387Y77415D01*
X173083Y76507D01*
X173991Y75810D01*
X175049Y75372D01*
X176183Y75223D01*
X177318Y75372D01*
X178375Y75810D01*
X179283Y76507D01*
X179980Y77415D01*
X180418Y78472D01*
X180567Y79607D01*
X180418Y80741D01*
X179980Y81799D01*
X179283Y82707D01*
X178375Y83403D01*
X177318Y83841D01*
X176183Y83991D01*
D02*
G37*
G36*
X426183Y73991D02*
X425049Y73841D01*
X423991Y73403D01*
X423083Y72707D01*
X422387Y71799D01*
X421949Y70741D01*
X421800Y69607D01*
X421949Y68472D01*
X422387Y67415D01*
X423083Y66507D01*
X423991Y65810D01*
X425049Y65372D01*
X426183Y65223D01*
X427318Y65372D01*
X428375Y65810D01*
X429283Y66507D01*
X429980Y67415D01*
X430418Y68472D01*
X430567Y69607D01*
X430418Y70741D01*
X429980Y71799D01*
X429283Y72707D01*
X428375Y73403D01*
X427318Y73841D01*
X426183Y73991D01*
D02*
G37*
G36*
X176183D02*
X175049Y73841D01*
X173991Y73403D01*
X173083Y72707D01*
X172387Y71799D01*
X171949Y70741D01*
X171800Y69607D01*
X171949Y68472D01*
X172387Y67415D01*
X173083Y66507D01*
X173991Y65810D01*
X175049Y65372D01*
X176183Y65223D01*
X177318Y65372D01*
X178375Y65810D01*
X179283Y66507D01*
X179980Y67415D01*
X180418Y68472D01*
X180567Y69607D01*
X180418Y70741D01*
X179980Y71799D01*
X179283Y72707D01*
X178375Y73403D01*
X177318Y73841D01*
X176183Y73991D01*
D02*
G37*
G36*
X426183Y63991D02*
X425049Y63841D01*
X423991Y63403D01*
X423083Y62707D01*
X422387Y61799D01*
X421949Y60741D01*
X421800Y59607D01*
X421949Y58472D01*
X422387Y57415D01*
X423083Y56507D01*
X423991Y55810D01*
X425049Y55372D01*
X426183Y55223D01*
X427318Y55372D01*
X428375Y55810D01*
X429283Y56507D01*
X429980Y57415D01*
X430418Y58472D01*
X430567Y59607D01*
X430418Y60741D01*
X429980Y61799D01*
X429283Y62707D01*
X428375Y63403D01*
X427318Y63841D01*
X426183Y63991D01*
D02*
G37*
G36*
X176183D02*
X175049Y63841D01*
X173991Y63403D01*
X173083Y62707D01*
X172387Y61799D01*
X171949Y60741D01*
X171800Y59607D01*
X171949Y58472D01*
X172387Y57415D01*
X173083Y56507D01*
X173991Y55810D01*
X175049Y55372D01*
X176183Y55223D01*
X177318Y55372D01*
X178375Y55810D01*
X179283Y56507D01*
X179980Y57415D01*
X180418Y58472D01*
X180567Y59607D01*
X180418Y60741D01*
X179980Y61799D01*
X179283Y62707D01*
X178375Y63403D01*
X177318Y63841D01*
X176183Y63991D01*
D02*
G37*
G36*
X426183Y53991D02*
X425049Y53841D01*
X423991Y53403D01*
X423083Y52707D01*
X422387Y51799D01*
X421949Y50741D01*
X421800Y49607D01*
X421949Y48472D01*
X422387Y47415D01*
X423083Y46507D01*
X423991Y45810D01*
X425049Y45372D01*
X426183Y45223D01*
X427318Y45372D01*
X428375Y45810D01*
X429283Y46507D01*
X429980Y47415D01*
X430418Y48472D01*
X430567Y49607D01*
X430418Y50741D01*
X429980Y51799D01*
X429283Y52707D01*
X428375Y53403D01*
X427318Y53841D01*
X426183Y53991D01*
D02*
G37*
G36*
X176183D02*
X175049Y53841D01*
X173991Y53403D01*
X173083Y52707D01*
X172387Y51799D01*
X171949Y50741D01*
X171800Y49607D01*
X171949Y48472D01*
X172387Y47415D01*
X173083Y46507D01*
X173991Y45810D01*
X175049Y45372D01*
X176183Y45223D01*
X177318Y45372D01*
X178375Y45810D01*
X179283Y46507D01*
X179980Y47415D01*
X180418Y48472D01*
X180567Y49607D01*
X180418Y50741D01*
X179980Y51799D01*
X179283Y52707D01*
X178375Y53403D01*
X177318Y53841D01*
X176183Y53991D01*
D02*
G37*
G36*
X426183Y43991D02*
X425049Y43841D01*
X423991Y43403D01*
X423083Y42707D01*
X422387Y41799D01*
X421949Y40741D01*
X421800Y39607D01*
X421949Y38472D01*
X422387Y37415D01*
X423083Y36507D01*
X423991Y35810D01*
X425049Y35372D01*
X426183Y35223D01*
X427318Y35372D01*
X428375Y35810D01*
X429283Y36507D01*
X429980Y37415D01*
X430418Y38472D01*
X430567Y39607D01*
X430418Y40741D01*
X429980Y41799D01*
X429283Y42707D01*
X428375Y43403D01*
X427318Y43841D01*
X426183Y43991D01*
D02*
G37*
G36*
X176183D02*
X175049Y43841D01*
X173991Y43403D01*
X173083Y42707D01*
X172387Y41799D01*
X171949Y40741D01*
X171800Y39607D01*
X171949Y38472D01*
X172387Y37415D01*
X173083Y36507D01*
X173991Y35810D01*
X175049Y35372D01*
X176183Y35223D01*
X177318Y35372D01*
X178375Y35810D01*
X179283Y36507D01*
X179980Y37415D01*
X180418Y38472D01*
X180567Y39607D01*
X180418Y40741D01*
X179980Y41799D01*
X179283Y42707D01*
X178375Y43403D01*
X177318Y43841D01*
X176183Y43991D01*
D02*
G37*
G36*
X426183Y33991D02*
X425049Y33841D01*
X423991Y33403D01*
X423083Y32707D01*
X422387Y31799D01*
X421949Y30741D01*
X421800Y29607D01*
X421949Y28472D01*
X422387Y27415D01*
X423083Y26507D01*
X423991Y25810D01*
X425049Y25372D01*
X426183Y25223D01*
X427318Y25372D01*
X428375Y25810D01*
X429283Y26507D01*
X429980Y27415D01*
X430418Y28472D01*
X430567Y29607D01*
X430418Y30741D01*
X429980Y31799D01*
X429283Y32707D01*
X428375Y33403D01*
X427318Y33841D01*
X426183Y33991D01*
D02*
G37*
G36*
X176183D02*
X175049Y33841D01*
X173991Y33403D01*
X173083Y32707D01*
X172387Y31799D01*
X171949Y30741D01*
X171800Y29607D01*
X171949Y28472D01*
X172387Y27415D01*
X173083Y26507D01*
X173991Y25810D01*
X175049Y25372D01*
X176183Y25223D01*
X177318Y25372D01*
X178375Y25810D01*
X179283Y26507D01*
X179980Y27415D01*
X180418Y28472D01*
X180567Y29607D01*
X180418Y30741D01*
X179980Y31799D01*
X179283Y32707D01*
X178375Y33403D01*
X177318Y33841D01*
X176183Y33991D01*
D02*
G37*
G36*
X426183Y23991D02*
X425049Y23841D01*
X423991Y23403D01*
X423083Y22707D01*
X422387Y21799D01*
X421949Y20741D01*
X421800Y19607D01*
X421949Y18472D01*
X422387Y17415D01*
X423083Y16507D01*
X423991Y15810D01*
X425049Y15372D01*
X426183Y15223D01*
X427318Y15372D01*
X428375Y15810D01*
X429283Y16507D01*
X429980Y17415D01*
X430418Y18472D01*
X430567Y19607D01*
X430418Y20741D01*
X429980Y21799D01*
X429283Y22707D01*
X428375Y23403D01*
X427318Y23841D01*
X426183Y23991D01*
D02*
G37*
G36*
X176183D02*
X175049Y23841D01*
X173991Y23403D01*
X173083Y22707D01*
X172387Y21799D01*
X171949Y20741D01*
X171800Y19607D01*
X171949Y18472D01*
X172387Y17415D01*
X173083Y16507D01*
X173991Y15810D01*
X175049Y15372D01*
X176183Y15223D01*
X177318Y15372D01*
X178375Y15810D01*
X179283Y16507D01*
X179980Y17415D01*
X180418Y18472D01*
X180567Y19607D01*
X180418Y20741D01*
X179980Y21799D01*
X179283Y22707D01*
X178375Y23403D01*
X177318Y23841D01*
X176183Y23991D01*
D02*
G37*
G36*
X426183Y13991D02*
X425049Y13841D01*
X423991Y13403D01*
X423083Y12707D01*
X422387Y11799D01*
X421949Y10741D01*
X421800Y9607D01*
X421949Y8472D01*
X422387Y7415D01*
X423083Y6507D01*
X423991Y5810D01*
X425049Y5372D01*
X426183Y5223D01*
X427318Y5372D01*
X428375Y5810D01*
X429283Y6507D01*
X429980Y7415D01*
X430418Y8472D01*
X430567Y9607D01*
X430418Y10741D01*
X429980Y11799D01*
X429283Y12707D01*
X428375Y13403D01*
X427318Y13841D01*
X426183Y13991D01*
D02*
G37*
G36*
X176183D02*
X175049Y13841D01*
X173991Y13403D01*
X173083Y12707D01*
X172387Y11799D01*
X171949Y10741D01*
X171800Y9607D01*
X171949Y8472D01*
X172387Y7415D01*
X173083Y6507D01*
X173991Y5810D01*
X175049Y5372D01*
X176183Y5223D01*
X177318Y5372D01*
X178375Y5810D01*
X179283Y6507D01*
X179980Y7415D01*
X180418Y8472D01*
X180567Y9607D01*
X180418Y10741D01*
X179980Y11799D01*
X179283Y12707D01*
X178375Y13403D01*
X177318Y13841D01*
X176183Y13991D01*
D02*
G37*
%LPD*%
D17*
X425081Y179134D02*
X425869Y179921D01*
X574557Y337046D02*
X585433Y326170D01*
X585433Y77559D01*
X582677Y74803D02*
X585433Y77559D01*
X176183Y139607D02*
X188976Y152400D01*
Y324410D01*
X198425Y285039D02*
Y377365D01*
X176183Y399607D02*
X198425Y377365D01*
X569735Y198425D02*
X574557Y203247D01*
X558661Y198425D02*
X569735D01*
X554724Y194488D02*
X558661Y198425D01*
X545168Y194488D02*
X554724D01*
X162598Y193780D02*
X176772Y179607D01*
X307086Y364567D02*
X307086Y199607D01*
X501982Y389621D02*
X564557Y327046D01*
X503180Y339607D02*
X511968D01*
X549606Y301969D01*
X569634D01*
X574557Y297046D01*
X409449Y332872D02*
X426183Y349607D01*
X409449Y164567D02*
Y332872D01*
X412598Y316022D02*
X426183Y329607D01*
X412598Y134646D02*
Y316022D01*
X417323Y310746D02*
X426183Y319607D01*
X417323Y154331D02*
Y310746D01*
X456380Y117242D02*
X568552D01*
X447244Y126378D02*
X456380Y117242D01*
X447244Y126378D02*
Y198546D01*
X568552Y117242D02*
X574557Y123247D01*
X453150Y258561D02*
Y302362D01*
X456470Y268305D02*
Y312697D01*
X459620Y273029D02*
Y319092D01*
X165748Y200042D02*
Y370079D01*
X426183Y219607D02*
X447244Y198546D01*
X435827Y149250D02*
Y153247D01*
X426183Y139607D02*
X435827Y149250D01*
X439370Y142793D02*
Y163247D01*
X426183Y129607D02*
X439370Y142793D01*
X442913Y126337D02*
Y173228D01*
X426183Y109607D02*
X442913Y126337D01*
X306420Y539959D02*
X306420Y409727D01*
X326420Y539565D02*
X326420Y170352D01*
X316420Y179134D02*
X316420Y539959D01*
X75984Y372929D02*
Y428722D01*
Y372929D02*
X76632Y372282D01*
X92069Y336300D02*
X156219D01*
X162598Y193780D02*
Y376378D01*
X159843Y175948D02*
Y363331D01*
Y175948D02*
X176183Y159607D01*
X165748Y200042D02*
X176183Y189607D01*
X306420Y409727D02*
X306540Y409607D01*
X425869Y179921D02*
X426183Y179607D01*
X426183Y199606D02*
X426183Y199607D01*
X176104Y429528D02*
X176183Y429607D01*
D18*
X102756Y328346D02*
X106693Y324410D01*
Y292613D02*
Y324410D01*
X99513Y285433D02*
X106693Y292613D01*
X492520Y99015D02*
Y112127D01*
X492477Y277123D02*
X492520Y277080D01*
X487086Y104015D02*
Y112127D01*
Y120472D02*
Y463702D01*
X471181Y479607D02*
X487086Y463702D01*
X426183Y479607D02*
X471181D01*
X89116Y319607D02*
Y341576D01*
Y319607D02*
X91699Y317023D01*
X99372D01*
D19*
X492520Y120472D02*
Y277080D01*
X492477Y277123D02*
X492695Y320372D01*
Y478959D01*
X472047Y499607D02*
X492695Y478959D01*
X426183Y499607D02*
X472047D01*
X117323Y349134D02*
X121398Y345058D01*
X117323Y349134D02*
Y428759D01*
Y468504D01*
X148426Y499607D01*
X176183D01*
X114567Y532677D02*
X211811D01*
X89116Y507226D02*
X114567Y532677D01*
X89116Y341576D02*
Y507226D01*
D20*
X17715Y117242D02*
D03*
Y125116D02*
D03*
Y132990D02*
D03*
Y140864D02*
D03*
Y148738D02*
D03*
Y156612D02*
D03*
Y164486D02*
D03*
Y172360D02*
D03*
Y180234D02*
D03*
Y188108D02*
D03*
Y195982D02*
D03*
X25589D02*
D03*
Y188108D02*
D03*
Y180234D02*
D03*
Y172360D02*
D03*
Y164486D02*
D03*
Y156612D02*
D03*
Y148738D02*
D03*
Y140864D02*
D03*
Y132990D02*
D03*
Y125116D02*
D03*
Y117242D02*
D03*
D21*
X276420Y539959D02*
D03*
X286420D02*
D03*
X296420D02*
D03*
X306420D02*
D03*
X316420D02*
D03*
X326420D02*
D03*
X38067Y490413D02*
D03*
Y480412D02*
D03*
Y470412D02*
D03*
Y460413D02*
D03*
Y450413D02*
D03*
Y440413D02*
D03*
Y430412D02*
D03*
Y420412D02*
D03*
Y410413D02*
D03*
Y400413D02*
D03*
Y390412D02*
D03*
Y380413D02*
D03*
Y370412D02*
D03*
Y360413D02*
D03*
Y350413D02*
D03*
Y340412D02*
D03*
X176183Y499607D02*
D03*
Y489607D02*
D03*
Y479607D02*
D03*
Y469607D02*
D03*
Y459607D02*
D03*
Y449607D02*
D03*
Y439607D02*
D03*
Y429607D02*
D03*
Y419607D02*
D03*
Y409607D02*
D03*
Y399607D02*
D03*
Y389607D02*
D03*
Y379607D02*
D03*
Y369607D02*
D03*
Y359607D02*
D03*
Y349607D02*
D03*
Y339607D02*
D03*
Y329607D02*
D03*
Y319607D02*
D03*
Y309607D02*
D03*
Y299607D02*
D03*
Y289607D02*
D03*
Y279607D02*
D03*
Y269607D02*
D03*
Y259607D02*
D03*
Y249607D02*
D03*
Y239607D02*
D03*
Y229607D02*
D03*
Y219607D02*
D03*
Y209607D02*
D03*
Y199607D02*
D03*
Y189607D02*
D03*
Y179607D02*
D03*
Y169607D02*
D03*
Y159607D02*
D03*
Y149607D02*
D03*
Y139607D02*
D03*
Y129607D02*
D03*
Y119607D02*
D03*
Y109607D02*
D03*
Y99607D02*
D03*
Y89607D02*
D03*
Y79607D02*
D03*
Y69607D02*
D03*
Y59607D02*
D03*
Y49607D02*
D03*
Y39607D02*
D03*
Y29607D02*
D03*
Y19607D02*
D03*
Y9607D02*
D03*
X426183Y489607D02*
D03*
Y479607D02*
D03*
Y469607D02*
D03*
Y459607D02*
D03*
Y449607D02*
D03*
Y439607D02*
D03*
Y429607D02*
D03*
Y419607D02*
D03*
Y409607D02*
D03*
Y399607D02*
D03*
Y389607D02*
D03*
Y379607D02*
D03*
Y369607D02*
D03*
Y359607D02*
D03*
Y349607D02*
D03*
Y339607D02*
D03*
Y329607D02*
D03*
Y319607D02*
D03*
Y309607D02*
D03*
Y299607D02*
D03*
Y289607D02*
D03*
Y279607D02*
D03*
Y269607D02*
D03*
Y259607D02*
D03*
Y249607D02*
D03*
Y239607D02*
D03*
Y229607D02*
D03*
Y219607D02*
D03*
Y209607D02*
D03*
Y199607D02*
D03*
Y189607D02*
D03*
Y179607D02*
D03*
Y169607D02*
D03*
Y159607D02*
D03*
Y149607D02*
D03*
Y139607D02*
D03*
Y129607D02*
D03*
Y119607D02*
D03*
Y109607D02*
D03*
Y99607D02*
D03*
Y89607D02*
D03*
Y79607D02*
D03*
Y69607D02*
D03*
Y59607D02*
D03*
Y49607D02*
D03*
Y39607D02*
D03*
Y29607D02*
D03*
Y19607D02*
D03*
Y9607D02*
D03*
Y499607D02*
D03*
X525589Y98890D02*
D03*
Y88890D02*
D03*
X564557Y357046D02*
D03*
Y347046D02*
D03*
Y337046D02*
D03*
Y327046D02*
D03*
Y317046D02*
D03*
Y307046D02*
D03*
Y297046D02*
D03*
Y287046D02*
D03*
Y277046D02*
D03*
Y267046D02*
D03*
X574557D02*
D03*
Y277046D02*
D03*
Y287046D02*
D03*
Y297046D02*
D03*
Y307046D02*
D03*
Y317046D02*
D03*
Y327046D02*
D03*
Y337046D02*
D03*
Y347046D02*
D03*
Y357046D02*
D03*
X564557Y213247D02*
D03*
Y203247D02*
D03*
Y193247D02*
D03*
Y183247D02*
D03*
Y173247D02*
D03*
Y163247D02*
D03*
Y153247D02*
D03*
Y143247D02*
D03*
Y133247D02*
D03*
Y123247D02*
D03*
X574557D02*
D03*
Y133247D02*
D03*
Y143247D02*
D03*
Y153247D02*
D03*
Y163247D02*
D03*
Y173247D02*
D03*
Y183247D02*
D03*
Y193247D02*
D03*
Y203247D02*
D03*
Y213247D02*
D03*
D22*
X574803Y574803D02*
D03*
Y15748D02*
D03*
X15748D02*
D03*
Y574803D02*
D03*
D23*
X142856Y282127D02*
D03*
X470472Y94095D02*
D03*
X188976Y324410D02*
D03*
X159843Y274803D02*
D03*
X198425Y285039D02*
D03*
X582677Y74803D02*
D03*
X545168Y194488D02*
D03*
X307086Y364567D02*
D03*
X501982Y389621D02*
D03*
X503180Y339607D02*
D03*
X409449Y164567D02*
D03*
X412598Y134646D02*
D03*
X417323Y154331D02*
D03*
X492520Y112127D02*
D03*
Y120472D02*
D03*
X487086Y112127D02*
D03*
Y120472D02*
D03*
X507480Y88976D02*
D03*
X481092Y247130D02*
D03*
Y291732D02*
D03*
X487086Y104015D02*
D03*
X492520Y99015D02*
D03*
X453150Y258561D02*
D03*
Y302362D02*
D03*
X165748Y370079D02*
D03*
X442913Y173247D02*
D03*
X439370Y163247D02*
D03*
X435827Y153247D02*
D03*
X504806Y439490D02*
D03*
X117323Y428759D02*
D03*
X77559Y456871D02*
D03*
X76632Y372282D02*
D03*
X102756Y328346D02*
D03*
X156219Y336300D02*
D03*
X114566Y312178D02*
D03*
X112221Y323624D02*
D03*
X162598Y376378D02*
D03*
X159843Y363331D02*
D03*
X102469Y451753D02*
D03*
X75984Y428722D02*
D03*
X99372Y317023D02*
D03*
X92069Y336300D02*
D03*
X307086Y199607D02*
D03*
X492695Y320372D02*
D03*
X492477Y277123D02*
D03*
X78642Y312017D02*
D03*
X99513Y285433D02*
D03*
X457087Y235494D02*
D03*
X456470Y312697D02*
D03*
Y268305D02*
D03*
X469066Y253483D02*
D03*
Y298085D02*
D03*
X459620Y319092D02*
D03*
Y273029D02*
D03*
X132873Y377595D02*
D03*
X136774Y371830D02*
D03*
X504806Y459666D02*
D03*
Y449194D02*
D03*
X306420Y409727D02*
D03*
X316420Y179134D02*
D03*
X326420Y169607D02*
D03*
X503676Y326978D02*
D03*
X508714D02*
D03*
X513752D02*
D03*
X513949Y282096D02*
D03*
X457087Y345276D02*
D03*
X481092Y263189D02*
D03*
X502672Y247973D02*
D03*
X512121Y248170D02*
D03*
X508911Y282096D02*
D03*
X503873D02*
D03*
X512235Y292359D02*
D03*
X503180Y292162D02*
D03*
X480643Y307677D02*
D03*
X81086Y330698D02*
D03*
X138503Y352147D02*
D03*
X138505Y356477D02*
D03*
X112614Y384190D02*
D03*
X103952Y384387D02*
D03*
X112618Y353760D02*
D03*
X103956Y353563D02*
D03*
X211807Y563544D02*
D03*
X195981D02*
D03*
X121398Y345058D02*
D03*
X127823D02*
D03*
X211811Y532677D02*
D03*
X89116Y341576D02*
D03*
M02*
