G04*
G04 #@! TF.GenerationSoftware,Altium Limited,Altium Designer,18.1.11 (251)*
G04*
G04 Layer_Color=128*
%FSLAX25Y25*%
%MOIN*%
G70*
G01*
G75*
%ADD24R,0.03150X0.03150*%
%ADD25R,0.03543X0.03347*%
%ADD26R,0.03150X0.03150*%
%ADD27R,0.03347X0.03543*%
%ADD28C,0.07874*%
%ADD29R,0.05315X0.03937*%
%ADD30R,0.03937X0.05315*%
%ADD31R,0.05709X0.05118*%
%ADD32R,0.05709X0.07677*%
%ADD33R,0.05118X0.05709*%
%ADD34R,0.07087X0.05118*%
%ADD35O,0.05315X0.01181*%
%ADD36R,0.04134X0.03937*%
%ADD37R,0.05709X0.05709*%
%ADD38O,0.03740X0.00984*%
%ADD39O,0.00984X0.03740*%
%ADD40O,0.05512X0.01772*%
%ADD41O,0.05709X0.02362*%
D24*
X142856Y287006D02*
D03*
Y293305D02*
D03*
X195983Y558663D02*
D03*
Y552364D02*
D03*
X211809Y558663D02*
D03*
Y552364D02*
D03*
D25*
X142856Y304568D02*
D03*
Y298466D02*
D03*
X195923Y537558D02*
D03*
Y543660D02*
D03*
X211809Y537558D02*
D03*
Y543660D02*
D03*
X99513Y296000D02*
D03*
Y289898D02*
D03*
X450706Y339273D02*
D03*
Y345376D02*
D03*
Y229449D02*
D03*
Y235551D02*
D03*
X63779Y18661D02*
D03*
Y12559D02*
D03*
Y33388D02*
D03*
Y27286D02*
D03*
Y48116D02*
D03*
Y42014D02*
D03*
Y62844D02*
D03*
Y56741D02*
D03*
Y77571D02*
D03*
Y71469D02*
D03*
Y92299D02*
D03*
Y86196D02*
D03*
Y107026D02*
D03*
Y100924D02*
D03*
Y121754D02*
D03*
Y115651D02*
D03*
Y136481D02*
D03*
Y130379D02*
D03*
Y151209D02*
D03*
Y145106D02*
D03*
Y165936D02*
D03*
Y159834D02*
D03*
Y180664D02*
D03*
Y174561D02*
D03*
Y195391D02*
D03*
Y189289D02*
D03*
Y210119D02*
D03*
Y204016D02*
D03*
Y224846D02*
D03*
Y218744D02*
D03*
Y239574D02*
D03*
Y233471D02*
D03*
Y254301D02*
D03*
Y248199D02*
D03*
Y269029D02*
D03*
Y262927D02*
D03*
Y283756D02*
D03*
Y277654D02*
D03*
X63978Y299391D02*
D03*
Y293289D02*
D03*
D26*
X499925Y459666D02*
D03*
X493626D02*
D03*
X499925Y449194D02*
D03*
X493626D02*
D03*
X499925Y439490D02*
D03*
X493626D02*
D03*
D27*
X478819Y459666D02*
D03*
X484922D02*
D03*
X478819Y449194D02*
D03*
X484922D02*
D03*
X478819Y439490D02*
D03*
X484922D02*
D03*
X89052Y304077D02*
D03*
X95154D02*
D03*
X101240Y323624D02*
D03*
X107342D02*
D03*
X92069Y330700D02*
D03*
X85966D02*
D03*
X515113Y98890D02*
D03*
X509011D02*
D03*
X463144Y339372D02*
D03*
X457042D02*
D03*
X463144Y229449D02*
D03*
X457042D02*
D03*
D28*
X211809Y518052D02*
D03*
X195983D02*
D03*
X87784Y360900D02*
D03*
X87934Y372282D02*
D03*
X530350Y275056D02*
D03*
X532059Y264759D02*
D03*
X534421Y303284D02*
D03*
X535996Y327418D02*
D03*
X77295Y240755D02*
D03*
Y226027D02*
D03*
Y211300D02*
D03*
Y196572D02*
D03*
Y181845D02*
D03*
Y167117D02*
D03*
Y152390D02*
D03*
Y137662D02*
D03*
Y122935D02*
D03*
Y108207D02*
D03*
Y93480D02*
D03*
Y78752D02*
D03*
Y64025D02*
D03*
Y255483D02*
D03*
Y19842D02*
D03*
Y49297D02*
D03*
Y34569D02*
D03*
Y284938D02*
D03*
Y270210D02*
D03*
X49214Y299942D02*
D03*
D29*
X103954Y365530D02*
D03*
Y358444D02*
D03*
X103954Y379506D02*
D03*
Y372420D02*
D03*
X152380Y375963D02*
D03*
Y368877D02*
D03*
X503202Y311413D02*
D03*
Y318499D02*
D03*
X502670Y267063D02*
D03*
Y274150D02*
D03*
X502670Y252854D02*
D03*
Y259940D02*
D03*
X503178Y297043D02*
D03*
Y304130D02*
D03*
X464991Y257775D02*
D03*
Y264861D02*
D03*
Y302161D02*
D03*
Y309247D02*
D03*
D30*
X137358Y377989D02*
D03*
X144445D02*
D03*
X481079Y253483D02*
D03*
X473992D02*
D03*
X481079Y298085D02*
D03*
X473992D02*
D03*
D31*
X112616Y364940D02*
D03*
Y358641D02*
D03*
X112616Y379310D02*
D03*
Y373010D02*
D03*
X81390Y305681D02*
D03*
Y299382D02*
D03*
X73189Y312021D02*
D03*
Y305722D02*
D03*
X512119Y253050D02*
D03*
Y259350D02*
D03*
X512119Y267654D02*
D03*
Y273953D02*
D03*
X512233Y297240D02*
D03*
Y303539D02*
D03*
X512398Y312003D02*
D03*
Y318302D02*
D03*
D32*
X72151Y341674D02*
D03*
X83765D02*
D03*
D33*
X133622Y354249D02*
D03*
X127323D02*
D03*
X498992Y282138D02*
D03*
X492693D02*
D03*
X498681Y326711D02*
D03*
X492382D02*
D03*
D34*
X72088Y330505D02*
D03*
Y319481D02*
D03*
X92776Y297083D02*
D03*
Y286059D02*
D03*
D35*
X142912Y369857D02*
D03*
Y367889D02*
D03*
Y365920D02*
D03*
Y363952D02*
D03*
Y361983D02*
D03*
X125392Y369857D02*
D03*
Y367889D02*
D03*
Y365920D02*
D03*
Y363952D02*
D03*
Y361983D02*
D03*
X474852Y306693D02*
D03*
Y308662D02*
D03*
Y310630D02*
D03*
Y312599D02*
D03*
Y314567D02*
D03*
X492372Y306693D02*
D03*
Y308662D02*
D03*
Y310630D02*
D03*
Y312599D02*
D03*
Y314567D02*
D03*
X475131Y262402D02*
D03*
Y264370D02*
D03*
Y266339D02*
D03*
Y268307D02*
D03*
Y270276D02*
D03*
X492651Y262402D02*
D03*
Y264370D02*
D03*
Y266339D02*
D03*
Y268307D02*
D03*
Y270276D02*
D03*
D36*
X109687Y312178D02*
D03*
X103781D02*
D03*
D37*
X89156Y318007D02*
D03*
D38*
X94570Y315054D02*
D03*
Y317023D02*
D03*
Y318991D02*
D03*
Y320960D02*
D03*
X83743D02*
D03*
Y318991D02*
D03*
Y317023D02*
D03*
Y315054D02*
D03*
D39*
X92109Y323421D02*
D03*
X90140D02*
D03*
X88172D02*
D03*
X86203D02*
D03*
Y312594D02*
D03*
X88172D02*
D03*
X90140D02*
D03*
X92109D02*
D03*
D40*
X84841Y428722D02*
D03*
Y431281D02*
D03*
Y433840D02*
D03*
Y436399D02*
D03*
Y438958D02*
D03*
Y441517D02*
D03*
Y444076D02*
D03*
Y446635D02*
D03*
Y449194D02*
D03*
Y451753D02*
D03*
Y454312D02*
D03*
Y456871D02*
D03*
X108069Y428722D02*
D03*
Y431281D02*
D03*
Y433840D02*
D03*
Y436399D02*
D03*
Y438958D02*
D03*
Y441517D02*
D03*
Y444076D02*
D03*
Y446635D02*
D03*
Y449194D02*
D03*
Y451753D02*
D03*
Y454312D02*
D03*
Y456871D02*
D03*
D41*
X499778Y104015D02*
D03*
Y99015D02*
D03*
Y94015D02*
D03*
Y89015D02*
D03*
X478321Y104015D02*
D03*
Y99015D02*
D03*
Y94015D02*
D03*
Y89015D02*
D03*
M02*
