G04*
G04 #@! TF.GenerationSoftware,Altium Limited,Altium Designer,18.1.11 (251)*
G04*
G04 Layer_Color=32896*
%FSLAX25Y25*%
%MOIN*%
G70*
G01*
G75*
%ADD10C,0.00787*%
%ADD12C,0.01181*%
%ADD17C,0.00984*%
%ADD18C,0.01968*%
%ADD44C,0.02362*%
%ADD45C,0.01575*%
%ADD66C,0.00197*%
G36*
X361109Y498318D02*
X361909D01*
Y497518D01*
X362709D01*
Y496718D01*
Y495918D01*
X363509D01*
Y495118D01*
X364309D01*
Y494318D01*
Y493518D01*
X365109D01*
Y492718D01*
X365909D01*
Y491918D01*
Y491118D01*
X366709D01*
Y490318D01*
X367509D01*
Y489518D01*
X368309D01*
Y488718D01*
Y487918D01*
X369109D01*
Y487118D01*
Y486318D01*
X370709D01*
Y485518D01*
Y484718D01*
X371509D01*
Y483918D01*
X372309D01*
Y483118D01*
Y482318D01*
X373109D01*
Y481518D01*
X365109D01*
Y480718D01*
Y479918D01*
Y479118D01*
Y478318D01*
Y477518D01*
Y476718D01*
X364309D01*
Y475918D01*
Y475118D01*
Y474318D01*
Y473518D01*
Y472718D01*
X362709D01*
Y471918D01*
Y471118D01*
Y470318D01*
X361909D01*
Y469518D01*
Y468718D01*
X361109D01*
Y467918D01*
Y467118D01*
X360309D01*
Y466318D01*
X357909D01*
Y465518D01*
Y464718D01*
X357109D01*
Y463918D01*
X356309D01*
Y463118D01*
X353909D01*
Y462318D01*
X349109D01*
Y461518D01*
X347509D01*
Y462318D01*
X343509D01*
Y463118D01*
X345909D01*
Y463918D01*
X347509D01*
Y464718D01*
X348309D01*
Y465518D01*
X350709D01*
Y466318D01*
X351509D01*
Y467118D01*
X352309D01*
Y467918D01*
X353109D01*
Y468718D01*
X353909D01*
Y469518D01*
Y470318D01*
X354709D01*
Y471118D01*
Y471918D01*
Y472718D01*
Y473518D01*
X355509D01*
Y474318D01*
X356309D01*
Y475118D01*
Y475918D01*
Y476718D01*
Y477518D01*
Y478318D01*
Y479118D01*
Y479918D01*
Y480718D01*
Y481518D01*
X348309D01*
Y482318D01*
Y483118D01*
X349109D01*
Y483918D01*
Y484718D01*
X349909D01*
Y485518D01*
X350709D01*
Y486318D01*
Y487118D01*
X351509D01*
Y487918D01*
Y488718D01*
X352309D01*
Y489518D01*
X353909D01*
Y490318D01*
Y491118D01*
X354709D01*
Y491918D01*
Y492718D01*
X355509D01*
Y493518D01*
X356309D01*
Y494318D01*
X357109D01*
Y495118D01*
Y495918D01*
Y496718D01*
X357909D01*
Y497518D01*
X358709D01*
Y498318D01*
X359509D01*
Y499118D01*
X361109D01*
Y498318D01*
D02*
G37*
G36*
X125263Y161641D02*
Y160841D01*
X126063D01*
Y160041D01*
Y159241D01*
X126863D01*
Y158441D01*
Y157641D01*
X127663D01*
Y156841D01*
Y156041D01*
X128463D01*
Y155241D01*
Y154441D01*
X129263D01*
Y153641D01*
Y152841D01*
X130063D01*
Y152041D01*
X130863D01*
Y151241D01*
Y150441D01*
Y149641D01*
X131663D01*
Y148841D01*
X132463D01*
Y148041D01*
Y147241D01*
X133263D01*
Y146441D01*
Y145641D01*
X134063D01*
Y144841D01*
Y144041D01*
X134863D01*
Y143241D01*
Y142441D01*
X135663D01*
Y141641D01*
Y140841D01*
X136463D01*
Y140041D01*
X137263D01*
Y139241D01*
Y138441D01*
X138063D01*
Y137641D01*
Y136841D01*
X138863D01*
Y136041D01*
Y135241D01*
X139663D01*
Y134441D01*
Y133641D01*
X140463D01*
Y132841D01*
Y132041D01*
X141263D01*
Y131241D01*
Y130441D01*
X142063D01*
Y129641D01*
Y128841D01*
X142863D01*
Y128041D01*
X143663D01*
Y127241D01*
Y126441D01*
X144463D01*
Y125641D01*
Y124841D01*
X145263D01*
Y124041D01*
Y123241D01*
X146063D01*
Y122441D01*
Y121641D01*
Y120841D01*
X100463D01*
Y121641D01*
Y122441D01*
Y123241D01*
X101263D01*
Y124041D01*
Y124841D01*
X102063D01*
Y125641D01*
X102863D01*
Y126441D01*
Y127241D01*
X103663D01*
Y128041D01*
Y128841D01*
X104463D01*
Y129641D01*
Y130441D01*
X105263D01*
Y131241D01*
Y132041D01*
X106063D01*
Y132841D01*
X106863D01*
Y133641D01*
Y134441D01*
X107663D01*
Y135241D01*
X108463D01*
Y136041D01*
Y136841D01*
X109263D01*
Y137641D01*
Y138441D01*
X110063D01*
Y139241D01*
Y140041D01*
X110863D01*
Y140841D01*
Y141641D01*
X111663D01*
Y142441D01*
X112463D01*
Y143241D01*
Y144041D01*
X113263D01*
Y144841D01*
Y145641D01*
X114063D01*
Y146441D01*
Y147241D01*
X114863D01*
Y148041D01*
X115663D01*
Y148841D01*
Y149641D01*
X116463D01*
Y150441D01*
Y151241D01*
X117263D01*
Y152041D01*
Y152841D01*
X118063D01*
Y153641D01*
Y154441D01*
X118863D01*
Y155241D01*
X119663D01*
Y156041D01*
Y156841D01*
X120463D01*
Y157641D01*
Y158441D01*
X121263D01*
Y159241D01*
X122063D01*
Y160041D01*
Y160841D01*
X122863D01*
Y161641D01*
Y162441D01*
X125263D01*
Y161641D01*
D02*
G37*
G36*
X298775Y314303D02*
X299868D01*
X300634Y314194D01*
X301180Y314084D01*
X301399D01*
X304461Y313647D01*
X305773Y313319D01*
X306977Y313100D01*
X308070Y312772D01*
X308836Y312663D01*
X309273Y312444D01*
X309492D01*
X312444Y311460D01*
X313757Y311022D01*
X314960Y310475D01*
X315944Y310147D01*
X316709Y309819D01*
X317147Y309601D01*
X317366Y309491D01*
X320100Y308070D01*
X321303Y307414D01*
X322396Y306757D01*
X323271Y306101D01*
X323927Y305664D01*
X324474Y305336D01*
X324583Y305226D01*
X327099Y303258D01*
X328192Y302383D01*
X329176Y301508D01*
X330051Y300743D01*
X330708Y300196D01*
X331145Y299758D01*
X331254Y299649D01*
X333442Y297352D01*
X334316Y296259D01*
X335191Y295274D01*
X335847Y294509D01*
X336394Y293743D01*
X336722Y293306D01*
X336832Y293197D01*
X338581Y290463D01*
X339347Y289260D01*
X340003Y288057D01*
X340550Y287072D01*
X340987Y286307D01*
X341206Y285870D01*
X341316Y285651D01*
X342628Y282807D01*
X343175Y281495D01*
X343612Y280183D01*
X343940Y279199D01*
X344268Y278433D01*
X344378Y277886D01*
X344487Y277667D01*
X345252Y274715D01*
X345471Y273293D01*
X345690Y272090D01*
X345909Y270997D01*
X346018Y270231D01*
X346127Y269684D01*
Y269465D01*
X346346Y266404D01*
Y264982D01*
Y263779D01*
Y262685D01*
Y261920D01*
Y261373D01*
Y261154D01*
X346237Y259623D01*
X346127Y258092D01*
X346018Y256670D01*
X345909Y255358D01*
X345690Y254374D01*
X345581Y253499D01*
X345471Y253062D01*
Y252843D01*
X344706Y249999D01*
X344268Y248578D01*
X343940Y247484D01*
X343612Y246391D01*
X343284Y245625D01*
X343175Y245188D01*
X343065Y244969D01*
X341862Y242126D01*
X341206Y240813D01*
X340659Y239720D01*
X340222Y238735D01*
X339785Y237970D01*
X339566Y237532D01*
X339456Y237314D01*
X337816Y234689D01*
X337051Y233595D01*
X336285Y232611D01*
X335629Y231736D01*
X335082Y231080D01*
X334754Y230643D01*
X334645Y230533D01*
X333114Y231846D01*
X334863Y234142D01*
X335629Y235236D01*
X336394Y236329D01*
X336941Y237095D01*
X337379Y237860D01*
X337597Y238298D01*
X337707Y238407D01*
X339128Y241032D01*
X339675Y242235D01*
X340222Y243438D01*
X340659Y244313D01*
X340878Y245078D01*
X341097Y245516D01*
X341206Y245734D01*
X342190Y248468D01*
X342518Y249781D01*
X342847Y250984D01*
X343065Y251968D01*
X343284Y252733D01*
X343393Y253171D01*
Y253390D01*
X343831Y256233D01*
X344050Y257545D01*
X344268Y258748D01*
X344378Y259733D01*
Y260498D01*
X344487Y260935D01*
Y261154D01*
Y264107D01*
X344378Y265419D01*
Y266622D01*
X344268Y267716D01*
Y268481D01*
X344159Y268919D01*
Y269137D01*
X343721Y272090D01*
X343393Y273403D01*
X343175Y274605D01*
X342847Y275699D01*
X342737Y276465D01*
X342518Y276902D01*
Y277121D01*
X341534Y279964D01*
X340987Y281276D01*
X340550Y282479D01*
X340113Y283354D01*
X339785Y284120D01*
X339566Y284667D01*
X339456Y284776D01*
X338035Y287510D01*
X337269Y288713D01*
X336613Y289807D01*
X336066Y290681D01*
X335629Y291447D01*
X335301Y291884D01*
X335191Y291994D01*
X333223Y294400D01*
X332348Y295493D01*
X331473Y296368D01*
X330817Y297134D01*
X330270Y297680D01*
X329833Y298118D01*
X329723Y298227D01*
X327536Y300305D01*
X326443Y301289D01*
X325458Y302055D01*
X324693Y302711D01*
X324037Y303258D01*
X323599Y303586D01*
X323490Y303695D01*
X320974Y305226D01*
X319772Y305882D01*
X318678Y306429D01*
X317803Y306867D01*
X317147Y307195D01*
X316600Y307413D01*
X316491Y307523D01*
X313757Y308726D01*
X312554Y309273D01*
X311351Y309710D01*
X310367Y310038D01*
X309601Y310257D01*
X309164Y310475D01*
X308945D01*
X306102Y311132D01*
X304789Y311460D01*
X303586Y311679D01*
X302602Y311788D01*
X301836Y311897D01*
X301399Y312007D01*
X301180D01*
X298228Y312335D01*
X296915D01*
X295712Y312444D01*
X293197D01*
X290244Y312225D01*
X288932Y312007D01*
X287729Y311788D01*
X286635Y311679D01*
X285870Y311460D01*
X285433Y311350D01*
X285214D01*
X282370Y310694D01*
X281058Y310257D01*
X279855Y309929D01*
X278980Y309601D01*
X278215Y309273D01*
X277668Y309163D01*
X277559Y309054D01*
X276684Y311022D01*
X279637Y312007D01*
X280949Y312444D01*
X282152Y312772D01*
X283245Y313100D01*
X284011Y313319D01*
X284558Y313428D01*
X284776D01*
X287839Y313975D01*
X289260Y314084D01*
X290463Y314303D01*
X291557D01*
X292322Y314412D01*
X297571D01*
X298775Y314303D01*
D02*
G37*
G36*
X258311Y295712D02*
X256343Y293306D01*
X255468Y292212D01*
X254812Y291228D01*
X254156Y290353D01*
X253718Y289588D01*
X253499Y289150D01*
X253390Y289041D01*
X251859Y286416D01*
X251203Y285213D01*
X250656Y284120D01*
X250219Y283136D01*
X249891Y282370D01*
X249781Y281932D01*
X249672Y281714D01*
X248688Y278871D01*
X248250Y277558D01*
X247922Y276355D01*
X247594Y275371D01*
X247375Y274605D01*
X247266Y274168D01*
Y273949D01*
X246719Y270996D01*
X246500Y269684D01*
X246391Y268481D01*
X246282Y267497D01*
X246172Y266622D01*
Y266185D01*
Y265966D01*
X246063Y262904D01*
X246172Y261482D01*
Y260279D01*
X246282Y259186D01*
Y258420D01*
X246391Y257873D01*
Y257655D01*
X246829Y254702D01*
X247047Y253390D01*
X247266Y252187D01*
X247594Y251093D01*
X247703Y250327D01*
X247922Y249890D01*
Y249671D01*
X248906Y246719D01*
X249453Y245406D01*
X249891Y244203D01*
X250328Y243219D01*
X250656Y242454D01*
X250875Y242016D01*
X250984Y241797D01*
X251750Y240376D01*
X252406Y239063D01*
X253171Y237860D01*
X253828Y236767D01*
X254374Y235892D01*
X254812Y235126D01*
X255140Y234689D01*
X255249Y234580D01*
X256233Y233267D01*
X257218Y232064D01*
X258093Y230971D01*
X258967Y229987D01*
X259733Y229112D01*
X260280Y228565D01*
X260717Y228127D01*
X260827Y228018D01*
X263123Y225940D01*
X264217Y225065D01*
X265201Y224190D01*
X266076Y223534D01*
X266841Y223097D01*
X267279Y222769D01*
X267388Y222659D01*
X269903Y221019D01*
X271106Y220363D01*
X272200Y219816D01*
X273184Y219269D01*
X273840Y218941D01*
X274278Y218723D01*
X274497Y218613D01*
X277231Y217410D01*
X278543Y216973D01*
X279746Y216645D01*
X280730Y216317D01*
X281496Y216098D01*
X281933Y215879D01*
X282152D01*
X285104Y215114D01*
X286417Y214786D01*
X287620Y214567D01*
X288604Y214457D01*
X289479Y214348D01*
X289916Y214239D01*
X290135D01*
X293088Y214129D01*
X294510Y214020D01*
X295712D01*
X296806Y214129D01*
X298337D01*
X301399Y214348D01*
X302712Y214567D01*
X303914Y214786D01*
X305008Y214895D01*
X305773Y215114D01*
X306211Y215223D01*
X306430D01*
X309273Y216098D01*
X310585Y216535D01*
X311788Y216863D01*
X312773Y217301D01*
X313538Y217629D01*
X313976Y217738D01*
X314194Y217848D01*
X315069Y215988D01*
X312116Y214895D01*
X310804Y214457D01*
X309492Y214020D01*
X308507Y213801D01*
X307633Y213583D01*
X307195Y213364D01*
X306977D01*
X303805Y212817D01*
X302383Y212598D01*
X301071Y212380D01*
X299977Y212270D01*
X299212Y212161D01*
X298446D01*
X297790Y212052D01*
X295275D01*
X292760Y212161D01*
X291557D01*
X290573Y212270D01*
X289698Y212380D01*
X288932D01*
X288495Y212489D01*
X288385D01*
X285870Y212926D01*
X284667Y213145D01*
X283683Y213364D01*
X282808Y213583D01*
X282152Y213801D01*
X281714Y213911D01*
X281605D01*
X278652Y214895D01*
X277340Y215332D01*
X276137Y215879D01*
X275153Y216207D01*
X274387Y216535D01*
X273950Y216754D01*
X273731Y216863D01*
X270888Y218285D01*
X269575Y218941D01*
X268482Y219597D01*
X267497Y220144D01*
X266841Y220582D01*
X266295Y220910D01*
X266185Y221019D01*
X263670Y222988D01*
X262576Y223862D01*
X261483Y224737D01*
X260717Y225503D01*
X260061Y226050D01*
X259624Y226487D01*
X259514Y226596D01*
X257218Y229002D01*
X256233Y230096D01*
X255359Y231080D01*
X254593Y231955D01*
X254046Y232721D01*
X253718Y233158D01*
X253609Y233267D01*
X251859Y236001D01*
X251094Y237314D01*
X250437Y238517D01*
X249891Y239501D01*
X249453Y240266D01*
X249234Y240704D01*
X249125Y240923D01*
X247813Y243875D01*
X247266Y245297D01*
X246829Y246500D01*
X246500Y247593D01*
X246282Y248468D01*
X246063Y248906D01*
Y249125D01*
X245297Y252187D01*
X244969Y253608D01*
X244751Y254811D01*
X244641Y255905D01*
X244532Y256780D01*
X244423Y257217D01*
Y257436D01*
X244094Y260607D01*
Y262029D01*
Y263341D01*
Y264435D01*
Y265310D01*
Y265857D01*
Y266075D01*
X244423Y269137D01*
X244532Y270559D01*
X244751Y271762D01*
X244969Y272856D01*
X245188Y273730D01*
X245297Y274168D01*
Y274387D01*
X246063Y277449D01*
X246500Y278761D01*
X246829Y279964D01*
X247266Y281058D01*
X247485Y281823D01*
X247703Y282261D01*
X247813Y282479D01*
X249016Y285323D01*
X249672Y286635D01*
X250328Y287729D01*
X250875Y288713D01*
X251203Y289369D01*
X251531Y289916D01*
X251640Y290025D01*
X252515Y291447D01*
X253390Y292650D01*
X254265Y293853D01*
X255030Y294837D01*
X255796Y295712D01*
X256343Y296368D01*
X256671Y296806D01*
X256780Y296915D01*
X258311Y295712D01*
D02*
G37*
G36*
X251312Y317365D02*
X254702Y314631D01*
X257874Y312007D01*
X260717Y309710D01*
X261920Y308726D01*
X263123Y307741D01*
X264107Y306976D01*
X264982Y306210D01*
X265638Y305664D01*
X266185Y305226D01*
X266513Y305008D01*
X266623Y304898D01*
X270122Y302055D01*
X273512Y299211D01*
X276684Y296696D01*
X279527Y294290D01*
X280730Y293306D01*
X281933Y292322D01*
X282917Y291556D01*
X283792Y290791D01*
X284448Y290244D01*
X284995Y289807D01*
X285323Y289588D01*
X285433Y289478D01*
X288932Y286635D01*
X292322Y283901D01*
X295494Y281276D01*
X297025Y280073D01*
X298337Y278980D01*
X299649Y277886D01*
X300743Y277011D01*
X301727Y276136D01*
X302602Y275480D01*
X303258Y274934D01*
X303805Y274496D01*
X304133Y274277D01*
X304242Y274168D01*
X307851Y271325D01*
X311242Y268481D01*
X314522Y265857D01*
X315944Y264544D01*
X317366Y263451D01*
X318678Y262357D01*
X319772Y261482D01*
X320756Y260607D01*
X321631Y259842D01*
X322287Y259295D01*
X322834Y258858D01*
X323162Y258639D01*
X323271Y258529D01*
X321303Y257873D01*
X319553Y257217D01*
X317803Y256670D01*
X316272Y256124D01*
X314960Y255686D01*
X313976Y255358D01*
X313319Y255139D01*
X313101Y255030D01*
X311132Y254374D01*
X309273Y253827D01*
X307633Y253280D01*
X305992Y252733D01*
X304680Y252296D01*
X303696Y251968D01*
X303040Y251749D01*
X302930Y251640D01*
X302821D01*
X304024Y250109D01*
X305117Y248906D01*
X305445Y248359D01*
X305773Y248031D01*
X305992Y247812D01*
X306102Y247703D01*
X307305Y246391D01*
X308398Y245297D01*
X308836Y244860D01*
X309164Y244531D01*
X309382Y244313D01*
X309492Y244203D01*
X312663Y240813D01*
X314085Y239282D01*
X315397Y237860D01*
X316491Y236658D01*
X317366Y235673D01*
X317913Y235126D01*
X318131Y235017D01*
Y234908D01*
X321303Y231518D01*
X322724Y229987D01*
X324037Y228565D01*
X325130Y227362D01*
X326005Y226378D01*
X326552Y225831D01*
X326771Y225722D01*
Y225612D01*
X328411Y223862D01*
X329942Y222222D01*
X331364Y220582D01*
X332676Y219160D01*
X333770Y218066D01*
X334645Y217082D01*
X335191Y216535D01*
X335410Y216317D01*
X338581Y212926D01*
X340003Y211395D01*
X341316Y209974D01*
X342409Y208880D01*
X343284Y207896D01*
X343831Y207349D01*
X344050Y207130D01*
X344924Y206474D01*
X345252Y206256D01*
X345362Y206146D01*
X345690Y205709D01*
X345799Y205381D01*
Y205052D01*
Y204943D01*
X345690Y204724D01*
X345252D01*
X344924Y204943D01*
X344815Y205052D01*
X344268Y205599D01*
X343831Y205927D01*
X343503Y206037D01*
X343393Y206146D01*
X339894Y208771D01*
X336504Y211395D01*
X333332Y213801D01*
X330489Y215879D01*
X329177Y216863D01*
X328083Y217738D01*
X327099Y218504D01*
X326224Y219160D01*
X325568Y219707D01*
X325021Y220035D01*
X324693Y220253D01*
X324583Y220363D01*
X321084Y222988D01*
X317694Y225503D01*
X314522Y227909D01*
X312991Y229002D01*
X311679Y230096D01*
X310367Y230971D01*
X309273Y231846D01*
X308289Y232611D01*
X307414Y233267D01*
X306648Y233814D01*
X306211Y234142D01*
X305883Y234361D01*
X305773Y234470D01*
X302274Y237204D01*
X298775Y239720D01*
X295603Y242126D01*
X294072Y243328D01*
X292650Y244313D01*
X291447Y245297D01*
X290244Y246172D01*
X289260Y246937D01*
X288385Y247593D01*
X287729Y248140D01*
X287182Y248468D01*
X286854Y248687D01*
X286745Y248797D01*
X283245Y251421D01*
X279855Y254046D01*
X276574Y256452D01*
X275153Y257545D01*
X273731Y258529D01*
X272528Y259514D01*
X271325Y260389D01*
X270341Y261154D01*
X269466Y261810D01*
X268810Y262357D01*
X268263Y262685D01*
X267935Y262904D01*
X267826Y263013D01*
X267388Y263451D01*
X266951Y263779D01*
X266623Y263998D01*
X266513Y264107D01*
X265967Y264544D01*
X265420Y264872D01*
X264982Y265200D01*
X264873Y265310D01*
X267279Y265966D01*
X269466Y266622D01*
X271653Y267169D01*
X273512Y267716D01*
X275153Y268044D01*
X275809Y268263D01*
X276356Y268372D01*
X276793Y268591D01*
X277121D01*
X277340Y268700D01*
X277449D01*
X279746Y269356D01*
X282042Y270012D01*
X284120Y270559D01*
X285979Y271106D01*
X287620Y271434D01*
X288276Y271653D01*
X288823Y271762D01*
X289260Y271981D01*
X289588D01*
X289807Y272090D01*
X289916D01*
X287948Y274277D01*
X285979Y276465D01*
X284120Y278433D01*
X282589Y280292D01*
X281168Y281823D01*
X280074Y283026D01*
X279746Y283464D01*
X279418Y283792D01*
X279308Y283901D01*
X279199Y284010D01*
X277231Y286307D01*
X275262Y288385D01*
X273512Y290463D01*
X271872Y292212D01*
X270560Y293743D01*
X269466Y294946D01*
X269138Y295384D01*
X268810Y295712D01*
X268701Y295821D01*
X268591Y295931D01*
X266623Y298227D01*
X264654Y300305D01*
X262795Y302383D01*
X261264Y304133D01*
X259842Y305664D01*
X258749Y306867D01*
X258421Y307304D01*
X258092Y307632D01*
X257983Y307741D01*
X257874Y307851D01*
X255905Y310038D01*
X254046Y312116D01*
X252296Y314084D01*
X250765Y315834D01*
X249453Y317365D01*
X248359Y318568D01*
X248031Y319006D01*
X247703Y319334D01*
X247594Y319443D01*
X247485Y319552D01*
X247594Y319771D01*
X247703Y319881D01*
Y320099D01*
X247813Y320209D01*
X251312Y317365D01*
D02*
G37*
G36*
X279155Y16870D02*
X279271Y16855D01*
X279402D01*
X279548Y16826D01*
X279884Y16782D01*
X280234Y16695D01*
X280598Y16592D01*
X280948Y16447D01*
X280962D01*
X280992Y16432D01*
X281035Y16403D01*
X281108Y16374D01*
X281181Y16330D01*
X281269Y16272D01*
X281487Y16126D01*
X281735Y15951D01*
X282012Y15732D01*
X282275Y15470D01*
X282537Y15164D01*
X282581D01*
X282246Y16563D01*
X286590D01*
X289477Y5016D01*
X285176D01*
X283252Y12641D01*
Y12656D01*
X283237Y12671D01*
X283222Y12758D01*
X283179Y12875D01*
X283120Y13020D01*
X283048Y13195D01*
X282945Y13356D01*
X282829Y13516D01*
X282683Y13662D01*
X282668Y13677D01*
X282610Y13720D01*
X282523Y13764D01*
X282406Y13837D01*
X282260Y13895D01*
X282085Y13939D01*
X281881Y13983D01*
X281662Y13997D01*
X281560D01*
X281458Y13983D01*
X281327Y13953D01*
X281181Y13910D01*
X281035Y13851D01*
X280919Y13779D01*
X280817Y13662D01*
X280802Y13647D01*
X280788Y13604D01*
X280758Y13516D01*
X280729Y13414D01*
X280715Y13268D01*
Y13079D01*
X280744Y12875D01*
X280802Y12627D01*
X282698Y5016D01*
X278396D01*
X276486Y12641D01*
Y12656D01*
X276472Y12671D01*
X276457Y12758D01*
X276414Y12875D01*
X276341Y13020D01*
X276268Y13195D01*
X276166Y13356D01*
X276049Y13516D01*
X275903Y13662D01*
X275889Y13677D01*
X275830Y13720D01*
X275743Y13764D01*
X275612Y13837D01*
X275466Y13895D01*
X275276Y13939D01*
X275072Y13983D01*
X274839Y13997D01*
X274737D01*
X274635Y13983D01*
X274504Y13953D01*
X274358Y13910D01*
X274227Y13851D01*
X274095Y13779D01*
X274008Y13662D01*
X273993Y13647D01*
X273979Y13604D01*
X273950Y13516D01*
X273920Y13414D01*
X273906Y13268D01*
Y13093D01*
X273920Y12889D01*
X273979Y12641D01*
X275889Y5016D01*
X273877D01*
X273804Y5031D01*
X273716D01*
X273614Y5045D01*
X273366Y5089D01*
X273089Y5162D01*
X272769Y5264D01*
X272448Y5410D01*
X272127Y5614D01*
X272112Y5628D01*
X272083Y5643D01*
X272054Y5672D01*
X271996Y5716D01*
X271850Y5847D01*
X271675Y6022D01*
X271485Y6241D01*
X271311Y6503D01*
X271165Y6795D01*
X271048Y7115D01*
X269386Y13720D01*
Y13735D01*
X269371Y13764D01*
Y13808D01*
X269357Y13881D01*
X269328Y14041D01*
X269284Y14260D01*
X269255Y14508D01*
X269240Y14755D01*
Y15018D01*
X269269Y15266D01*
Y15280D01*
Y15295D01*
X269284Y15368D01*
X269328Y15484D01*
X269371Y15630D01*
X269430Y15776D01*
X269517Y15936D01*
X269634Y16097D01*
X269765Y16243D01*
X269780Y16257D01*
X269838Y16301D01*
X269940Y16359D01*
X270057Y16432D01*
X270202Y16505D01*
X270392Y16592D01*
X270582Y16665D01*
X270800Y16724D01*
X270829Y16738D01*
X270902Y16753D01*
X271019Y16782D01*
X271179Y16811D01*
X271384Y16840D01*
X271617Y16855D01*
X271865Y16884D01*
X272331D01*
X272462Y16870D01*
X272623Y16855D01*
X272798Y16840D01*
X273162Y16782D01*
X273177D01*
X273250Y16768D01*
X273352Y16738D01*
X273468Y16709D01*
X273629Y16665D01*
X273789Y16607D01*
X274154Y16476D01*
X274183Y16461D01*
X274241Y16447D01*
X274343Y16403D01*
X274474Y16345D01*
X274620Y16257D01*
X274781Y16170D01*
X274956Y16068D01*
X275131Y15936D01*
X275145Y15922D01*
X275203Y15878D01*
X275291Y15805D01*
X275408Y15703D01*
X275539Y15572D01*
X275670Y15426D01*
X275816Y15266D01*
X275962Y15091D01*
Y15105D01*
X275976Y15164D01*
X276005Y15251D01*
X276034Y15353D01*
X276078Y15484D01*
X276136Y15616D01*
X276268Y15878D01*
X276282Y15893D01*
X276297Y15936D01*
X276341Y15995D01*
X276399Y16082D01*
X276472Y16170D01*
X276574Y16257D01*
X276676Y16359D01*
X276793Y16447D01*
X276807Y16461D01*
X276851Y16476D01*
X276924Y16520D01*
X277026Y16563D01*
X277157Y16622D01*
X277303Y16680D01*
X277463Y16724D01*
X277653Y16768D01*
X277682D01*
X277740Y16782D01*
X277842Y16811D01*
X277988Y16826D01*
X278163Y16855D01*
X278367Y16870D01*
X278601Y16884D01*
X279052D01*
X279155Y16870D01*
D02*
G37*
G36*
X301987Y7815D02*
Y7801D01*
X302002Y7772D01*
Y7728D01*
X302016Y7670D01*
X302045Y7495D01*
X302089Y7290D01*
X302118Y7043D01*
X302133Y6795D01*
Y6547D01*
X302103Y6299D01*
Y6270D01*
X302074Y6197D01*
X302045Y6095D01*
X301987Y5949D01*
X301914Y5803D01*
X301827Y5658D01*
X301695Y5512D01*
X301550Y5381D01*
X301535Y5366D01*
X301477Y5322D01*
X301389Y5264D01*
X301287Y5191D01*
X301141Y5103D01*
X300981Y5016D01*
X300791Y4943D01*
X300587Y4870D01*
X300558D01*
X300485Y4841D01*
X300368Y4826D01*
X300208Y4797D01*
X300019Y4768D01*
X299785Y4739D01*
X299537Y4724D01*
X299056D01*
X298969Y4739D01*
X298838Y4754D01*
X298706D01*
X298561Y4783D01*
X298240Y4826D01*
X297890Y4899D01*
X297540Y5001D01*
X297190Y5147D01*
X297176D01*
X297146Y5162D01*
X297103Y5191D01*
X297030Y5220D01*
X296957Y5264D01*
X296869Y5322D01*
X296651Y5453D01*
X296403Y5628D01*
X296140Y5847D01*
X295878Y6095D01*
X295615Y6386D01*
X295557D01*
X295892Y5001D01*
X291606D01*
X288719Y16563D01*
X293020D01*
X294945Y8923D01*
Y8909D01*
X294959Y8894D01*
X294974Y8807D01*
X295018Y8690D01*
X295076Y8544D01*
X295163Y8369D01*
X295266Y8194D01*
X295382Y8034D01*
X295528Y7888D01*
X295543Y7874D01*
X295601Y7830D01*
X295688Y7772D01*
X295805Y7713D01*
X295951Y7655D01*
X296126Y7597D01*
X296330Y7553D01*
X296563Y7538D01*
X296665D01*
X296767Y7553D01*
X296884Y7582D01*
X297030Y7626D01*
X297161Y7684D01*
X297277Y7772D01*
X297380Y7888D01*
X297394Y7903D01*
X297409Y7961D01*
X297438Y8034D01*
X297452Y8151D01*
X297482Y8297D01*
Y8472D01*
X297452Y8676D01*
X297409Y8923D01*
X295499Y16563D01*
X299800D01*
X301987Y7815D01*
D02*
G37*
G36*
X327196Y20237D02*
X327356D01*
X327560Y20208D01*
X327794Y20179D01*
X328056Y20135D01*
X328333Y20077D01*
X328610Y20004D01*
X328625D01*
X328639Y19990D01*
X328683Y19975D01*
X328727Y19961D01*
X328872Y19917D01*
X329047Y19844D01*
X329266Y19756D01*
X329499Y19640D01*
X329733Y19523D01*
X329980Y19377D01*
X330010Y19363D01*
X330083Y19304D01*
X330199Y19217D01*
X330360Y19115D01*
X330535Y18969D01*
X330724Y18809D01*
X330928Y18634D01*
X331132Y18430D01*
X331161Y18401D01*
X331220Y18342D01*
X331307Y18225D01*
X331438Y18080D01*
X331570Y17905D01*
X331730Y17686D01*
X331891Y17467D01*
X332036Y17220D01*
X338583Y5001D01*
X333626Y5016D01*
X332459Y7655D01*
X328756D01*
X328902Y5001D01*
X323930D01*
X324498Y20252D01*
X327137D01*
X327196Y20237D01*
D02*
G37*
G36*
X323026Y5001D02*
X318710D01*
X314890Y20252D01*
X319191D01*
X323026Y5001D01*
D02*
G37*
G36*
X308956Y5001D02*
X304655D01*
X301754Y16563D01*
X306069D01*
X308956Y5001D01*
D02*
G37*
G36*
X315954Y7801D02*
Y7786D01*
X315969Y7757D01*
Y7713D01*
X315984Y7640D01*
X316027Y7480D01*
X316057Y7261D01*
X316100Y7013D01*
X316129Y6766D01*
X316144Y6503D01*
X316129Y6270D01*
Y6241D01*
X316115Y6168D01*
X316086Y6066D01*
X316042Y5935D01*
X315984Y5803D01*
X315896Y5658D01*
X315794Y5526D01*
X315663Y5410D01*
X315648Y5395D01*
X315590Y5366D01*
X315517Y5322D01*
X315401Y5264D01*
X315255Y5206D01*
X315080Y5133D01*
X314876Y5074D01*
X314642Y5016D01*
X314613D01*
X314526Y5001D01*
X314380Y4972D01*
X314190Y4958D01*
X313943Y4928D01*
X313666Y4914D01*
X313345Y4899D01*
X312630D01*
X312455Y4914D01*
X312033D01*
X311814Y4928D01*
X311712D01*
X311580Y4943D01*
X311420D01*
X311231Y4958D01*
X311027Y4972D01*
X310793Y4987D01*
X310545Y5001D01*
X309904Y7568D01*
X310808Y7568D01*
X310924Y7582D01*
X311056Y7611D01*
X311187Y7640D01*
X311289Y7699D01*
X311391Y7772D01*
X311406Y7786D01*
X311420Y7815D01*
X311449Y7874D01*
X311478Y7947D01*
X311508Y8049D01*
Y8165D01*
Y8311D01*
X311478Y8472D01*
X310108Y13968D01*
X308300Y13968D01*
X307659Y16563D01*
X309466D01*
X308533Y20092D01*
X312849Y20092D01*
X315954Y7801D01*
D02*
G37*
G36*
X97642Y553773D02*
X96469D01*
Y556426D01*
X93382D01*
Y553773D01*
X92234D01*
Y559998D01*
X93382D01*
Y557421D01*
X96469D01*
Y559998D01*
X97642D01*
Y553773D01*
D02*
G37*
G36*
X84096D02*
X82974D01*
Y558390D01*
X79683Y553773D01*
X78510D01*
Y559998D01*
X79632D01*
Y555457D01*
X82949Y559998D01*
X84096D01*
Y553773D01*
D02*
G37*
G36*
X112948D02*
X111877D01*
Y558084D01*
X110142Y553773D01*
X109147D01*
X107464Y558084D01*
Y553773D01*
X106392D01*
Y559998D01*
X107540D01*
X109632Y555278D01*
X111724Y559998D01*
X112948D01*
Y553773D01*
D02*
G37*
G36*
X65347Y553773D02*
X64301D01*
Y558084D01*
X62566Y553773D01*
X61597D01*
X59862Y558084D01*
Y553773D01*
X58816D01*
Y559997D01*
X59964D01*
X62030Y555278D01*
X64173Y559997D01*
X65347D01*
Y553773D01*
D02*
G37*
G36*
X130601Y559003D02*
X128790D01*
Y553773D01*
X127642D01*
Y559003D01*
X125831D01*
Y559998D01*
X130601D01*
Y559003D01*
D02*
G37*
G36*
X125193Y553773D02*
X120856D01*
Y554768D01*
X124071D01*
Y556400D01*
X121035D01*
Y557421D01*
X124020D01*
Y559003D01*
X120907D01*
Y559998D01*
X125193D01*
Y553773D01*
D02*
G37*
G36*
X120321D02*
X119147D01*
X117055Y558824D01*
X116086Y556452D01*
X117361D01*
X117744Y555457D01*
X115652D01*
X114964Y553773D01*
X113688D01*
X116418Y559998D01*
X117668D01*
X120321Y553773D01*
D02*
G37*
G36*
X103101D02*
X101953D01*
Y558977D01*
X100372D01*
X100142Y558952D01*
X99964Y558875D01*
X99836Y558799D01*
X99811Y558773D01*
X99683Y558620D01*
X99632Y558416D01*
X99607Y558263D01*
Y558237D01*
Y558212D01*
X99632Y558033D01*
X99658Y557880D01*
X99811Y557625D01*
X99887Y557523D01*
X99938Y557446D01*
X99989Y557421D01*
X100015Y557395D01*
X100168Y557293D01*
X100346Y557191D01*
X100754Y557064D01*
X100908Y557013D01*
X101061Y556987D01*
X101163Y556962D01*
X101188D01*
X101035Y555916D01*
X100576Y556018D01*
X100168Y556120D01*
X99811Y556248D01*
X99530Y556400D01*
X99326Y556503D01*
X99173Y556605D01*
X99071Y556681D01*
X99045Y556707D01*
X98816Y556936D01*
X98663Y557191D01*
X98535Y557446D01*
X98459Y557702D01*
X98408Y557906D01*
X98382Y558084D01*
Y558186D01*
Y558237D01*
X98408Y558543D01*
X98459Y558799D01*
X98535Y559028D01*
X98612Y559207D01*
X98714Y559360D01*
X98790Y559462D01*
X98841Y559513D01*
X98867Y559538D01*
X99071Y559691D01*
X99300Y559793D01*
X99530Y559895D01*
X99760Y559946D01*
X99964Y559972D01*
X100142Y559998D01*
X103101D01*
Y553773D01*
D02*
G37*
G36*
X91469D02*
X90295D01*
X88229Y558824D01*
X87234Y556452D01*
X88484D01*
X88892Y555457D01*
X86826D01*
X86086Y553773D01*
X84862D01*
X87566Y559998D01*
X88816D01*
X91469Y553773D01*
D02*
G37*
G36*
X77872Y559003D02*
X76061D01*
Y553773D01*
X74913Y553773D01*
Y559002D01*
X73127D01*
Y559997D01*
X77872Y559998D01*
Y559003D01*
D02*
G37*
G36*
X70091Y560023D02*
X70576Y559921D01*
X70984Y559793D01*
X71316Y559640D01*
X71571Y559487D01*
X71750Y559360D01*
X71877Y559258D01*
X71903Y559232D01*
X72158Y558900D01*
X72362Y558518D01*
X72489Y558135D01*
X72592Y557753D01*
X72642Y557395D01*
X72668Y557115D01*
X72694Y557013D01*
Y556936D01*
Y556885D01*
Y556860D01*
X72642Y556324D01*
X72540Y555839D01*
X72387Y555431D01*
X72234Y555099D01*
X72107Y554819D01*
X71979Y554640D01*
X71877Y554538D01*
X71852Y554487D01*
X71520Y554232D01*
X71163Y554028D01*
X70780Y553901D01*
X70398Y553798D01*
X70066Y553748D01*
X69811Y553722D01*
X69709Y553696D01*
X69556D01*
X69020Y553722D01*
X68535Y553824D01*
X68127Y553952D01*
X67821Y554105D01*
X67566Y554232D01*
X67387Y554360D01*
X67260Y554462D01*
X67234Y554487D01*
X66979Y554819D01*
X66775Y555202D01*
X66648Y555610D01*
X66546Y555992D01*
X66495Y556324D01*
X66444Y556605D01*
Y556707D01*
Y556783D01*
Y556834D01*
Y556860D01*
X66469Y557421D01*
X66571Y557906D01*
X66699Y558314D01*
X66826Y558645D01*
X66979Y558900D01*
X67107Y559079D01*
X67209Y559207D01*
X67234Y559232D01*
X67541Y559513D01*
X67923Y559717D01*
X68306Y559844D01*
X68688Y559946D01*
X69020Y559997D01*
X69301Y560048D01*
X69556D01*
X70091Y560023D01*
D02*
G37*
G36*
X132004Y550559D02*
X57464Y550559D01*
Y551094D01*
X132004Y551094D01*
Y550559D01*
D02*
G37*
G36*
X150218Y567829D02*
X150882Y567753D01*
X151468Y567676D01*
X151749Y567625D01*
X151979Y567574D01*
X152183Y567523D01*
X152361Y567472D01*
X152514Y567446D01*
X152616Y567421D01*
X152667Y567395D01*
X152693D01*
X153382Y567166D01*
X154045Y566885D01*
X154632Y566605D01*
X155167Y566324D01*
X155397Y566196D01*
X155601Y566069D01*
X155805Y565967D01*
X155958Y565865D01*
X156060Y565788D01*
X156162Y565737D01*
X156213Y565712D01*
X156239Y565686D01*
X156825Y565227D01*
X157387Y564742D01*
X157871Y564258D01*
X158280Y563798D01*
X158637Y563390D01*
X158790Y563237D01*
X158892Y563084D01*
X158994Y562957D01*
X159070Y562880D01*
X159096Y562829D01*
X159121Y562804D01*
X159530Y562166D01*
X159912Y561528D01*
X160193Y560916D01*
X160448Y560355D01*
X160550Y560100D01*
X160652Y559870D01*
X160703Y559666D01*
X160780Y559513D01*
X160831Y559360D01*
X160856Y559258D01*
X160882Y559207D01*
Y559181D01*
X161060Y558467D01*
X161213Y557753D01*
X161315Y557089D01*
X161366Y556477D01*
X161392Y556222D01*
Y555967D01*
X161417Y555763D01*
Y555584D01*
Y555431D01*
Y555329D01*
Y555253D01*
Y555227D01*
X161366Y554487D01*
X161264Y553798D01*
X161137Y553135D01*
X160984Y552549D01*
X160933Y552293D01*
X160856Y552064D01*
X160805Y551860D01*
X160729Y551707D01*
X160703Y551554D01*
X160652Y551452D01*
X160626Y551401D01*
Y551375D01*
X160346Y550686D01*
X160014Y550023D01*
X159683Y549411D01*
X159351Y548875D01*
X159198Y548645D01*
X159070Y548441D01*
X158943Y548263D01*
X158815Y548110D01*
X158739Y547982D01*
X158662Y547906D01*
X158637Y547855D01*
X158611Y547829D01*
X158177Y548212D01*
X158611Y548799D01*
X159019Y549385D01*
X159351Y549946D01*
X159606Y550457D01*
X159836Y550890D01*
X159912Y551094D01*
X159989Y551248D01*
X160040Y551375D01*
X160091Y551477D01*
X160116Y551528D01*
Y551554D01*
X160346Y552242D01*
X160499Y552906D01*
X160652Y553543D01*
X160729Y554105D01*
X160780Y554334D01*
X160805Y554564D01*
Y554768D01*
X160831Y554947D01*
X160856Y555074D01*
Y555176D01*
Y555227D01*
Y555253D01*
Y555967D01*
X160805Y556630D01*
X160729Y557268D01*
X160626Y557829D01*
X160575Y558084D01*
X160550Y558314D01*
X160499Y558518D01*
X160448Y558671D01*
X160422Y558824D01*
X160397Y558926D01*
X160371Y558977D01*
Y559003D01*
X160142Y559691D01*
X159861Y560329D01*
X159581Y560916D01*
X159300Y561426D01*
X159172Y561656D01*
X159045Y561860D01*
X158943Y562038D01*
X158841Y562191D01*
X158764Y562319D01*
X158713Y562395D01*
X158662Y562446D01*
Y562472D01*
X158203Y563059D01*
X157744Y563594D01*
X157285Y564079D01*
X156851Y564462D01*
X156468Y564793D01*
X156315Y564921D01*
X156188Y565023D01*
X156060Y565125D01*
X155984Y565176D01*
X155933Y565227D01*
X155907D01*
X155295Y565610D01*
X154708Y565941D01*
X154147Y566222D01*
X153611Y566452D01*
X153178Y566630D01*
X152973Y566707D01*
X152820Y566758D01*
X152693Y566809D01*
X152591Y566834D01*
X152540Y566860D01*
X152514D01*
X151825Y567038D01*
X151162Y567166D01*
X150524Y567242D01*
X149963Y567293D01*
X149708Y567319D01*
X149479Y567344D01*
X148764D01*
X148050Y567293D01*
X147361Y567217D01*
X146698Y567089D01*
X146137Y566936D01*
X145882Y566885D01*
X145652Y566809D01*
X145448Y566758D01*
X145295Y566681D01*
X145142Y566656D01*
X145040Y566605D01*
X144989Y566579D01*
X144963D01*
X144785Y567089D01*
X145499Y567344D01*
X146213Y567523D01*
X146877Y567676D01*
X147489Y567753D01*
X147744Y567803D01*
X147999Y567829D01*
X148203Y567854D01*
X148382D01*
X148535Y567880D01*
X149504D01*
X150218Y567829D01*
D02*
G37*
G36*
X108050Y545100D02*
X107515D01*
Y547294D01*
X107489D01*
X106749Y545610D01*
X106290D01*
X105576Y547294D01*
X105550D01*
Y545100D01*
X105015D01*
Y548620D01*
X105525D01*
X106520Y546324D01*
X107540Y548620D01*
X108050D01*
Y545100D01*
D02*
G37*
G36*
X122413Y546273D02*
X122387Y546095D01*
X122362Y545941D01*
X122336Y545839D01*
Y545788D01*
X122234Y545635D01*
X122132Y545533D01*
X122055Y545431D01*
X122030Y545406D01*
X121902Y545304D01*
X121775Y545202D01*
X121673Y545176D01*
X121647Y545151D01*
X121469Y545100D01*
X121316Y545074D01*
X121162D01*
X120958Y545100D01*
X120805Y545125D01*
X120703Y545151D01*
X120652D01*
X120499Y545227D01*
X120372Y545304D01*
X120295Y545380D01*
X120270Y545406D01*
X120142Y545533D01*
X120040Y545661D01*
X120015Y545763D01*
X119989Y545788D01*
X119938Y545967D01*
X119887Y546120D01*
Y546222D01*
Y546273D01*
Y548620D01*
X120423D01*
Y546350D01*
Y546222D01*
X120448Y546120D01*
X120474Y546069D01*
Y546043D01*
X120525Y545941D01*
X120576Y545865D01*
X120627Y545814D01*
X120652Y545788D01*
X120805Y545686D01*
X120856Y545635D01*
X120882D01*
X120958Y545610D01*
X121265D01*
X121367Y545635D01*
X121443D01*
X121596Y545737D01*
X121647Y545763D01*
X121673Y545788D01*
X121775Y545967D01*
X121826Y546018D01*
Y546043D01*
X121877Y546248D01*
Y546324D01*
Y546350D01*
Y548620D01*
X122413D01*
Y546273D01*
D02*
G37*
G36*
X104096D02*
X104071Y546095D01*
X104045Y545941D01*
X104020Y545839D01*
Y545788D01*
X103918Y545635D01*
X103816Y545533D01*
X103739Y545431D01*
X103714Y545406D01*
X103586Y545304D01*
X103459Y545202D01*
X103357Y545176D01*
X103331Y545151D01*
X103153Y545100D01*
X102999Y545074D01*
X102821D01*
X102642Y545100D01*
X102489Y545125D01*
X102387Y545151D01*
X102336D01*
X102183Y545227D01*
X102056Y545304D01*
X101979Y545380D01*
X101953Y545406D01*
X101826Y545533D01*
X101724Y545661D01*
X101698Y545763D01*
X101673Y545788D01*
X101622Y545967D01*
X101571Y546120D01*
Y546222D01*
Y546273D01*
Y548620D01*
X102107D01*
Y546350D01*
Y546222D01*
X102132Y546120D01*
X102158Y546069D01*
Y546043D01*
X102260Y545865D01*
X102285Y545814D01*
X102311Y545788D01*
X102464Y545686D01*
X102515Y545635D01*
X102540D01*
X102719Y545610D01*
X102948D01*
X103050Y545635D01*
X103127D01*
X103254Y545737D01*
X103305Y545763D01*
X103331Y545788D01*
X103408Y545890D01*
X103459Y545967D01*
X103510Y546018D01*
Y546043D01*
X103561Y546248D01*
Y546324D01*
Y546350D01*
Y548620D01*
X104096D01*
Y546273D01*
D02*
G37*
G36*
X72132Y548620D02*
X72234Y548595D01*
X72260D01*
X72387Y548569D01*
X72489Y548518D01*
X72540Y548492D01*
X72566Y548467D01*
X72745Y548339D01*
X72796Y548288D01*
X72821Y548263D01*
X72949Y548110D01*
X72974Y548059D01*
X73000Y548033D01*
X73025Y547906D01*
X73051Y547880D01*
Y547855D01*
X73076Y547727D01*
X73102Y547702D01*
Y547676D01*
X73127Y547574D01*
Y547498D01*
Y547396D01*
Y547370D01*
Y547217D01*
Y547064D01*
Y546936D01*
Y546911D01*
Y546885D01*
Y546656D01*
Y546503D01*
Y546375D01*
Y546350D01*
Y546222D01*
X73102Y546120D01*
Y546069D01*
Y546043D01*
Y545967D01*
Y545941D01*
Y545916D01*
X73076Y545865D01*
X73051Y545839D01*
X73025Y545788D01*
Y545763D01*
X73000Y545712D01*
Y545686D01*
X72872Y545533D01*
X72847Y545482D01*
X72821Y545457D01*
X72642Y545329D01*
X72592Y545278D01*
X72566Y545253D01*
X72362Y545151D01*
X72285Y545125D01*
X72260D01*
X72132Y545100D01*
X71979Y545074D01*
X71699D01*
X71571Y545100D01*
X71469Y545125D01*
X71443D01*
X71290Y545176D01*
X71188Y545253D01*
X71112Y545278D01*
X71086Y545304D01*
X70959Y545431D01*
X70857Y545533D01*
X70806Y545610D01*
X70780Y545635D01*
X70704Y545788D01*
X70653Y545941D01*
X70627Y546043D01*
Y546095D01*
X71188D01*
X71265Y545916D01*
X71367Y545814D01*
X71443Y545737D01*
X71469Y545712D01*
X71597Y545661D01*
X71724Y545635D01*
X71826Y545610D01*
X72056D01*
X72158Y545661D01*
X72183Y545686D01*
X72285Y545712D01*
X72311Y545737D01*
X72387Y545814D01*
X72413Y545839D01*
X72438D01*
X72489Y545941D01*
X72515Y545993D01*
X72540Y546095D01*
X72566Y546145D01*
X72592Y546222D01*
Y546324D01*
Y546401D01*
Y546426D01*
Y546579D01*
Y546732D01*
Y546834D01*
Y546885D01*
Y547038D01*
Y547166D01*
Y547268D01*
Y547294D01*
Y547421D01*
X72566Y547523D01*
Y547549D01*
Y547574D01*
X72540Y547676D01*
X72515Y547727D01*
X72464Y547829D01*
X72438Y547880D01*
X72336Y547931D01*
X72311Y547957D01*
X72234Y548033D01*
X72183Y548059D01*
X72107Y548084D01*
X72056D01*
X71928Y548110D01*
X71877Y548135D01*
X71852D01*
X71699Y548110D01*
X71648Y548084D01*
X71622D01*
X71495Y548033D01*
X71443Y548008D01*
Y547982D01*
X71316Y547855D01*
X71290Y547829D01*
Y547804D01*
X71214Y547676D01*
X71188Y547625D01*
Y547600D01*
X70627D01*
X70678Y547753D01*
X70729Y547880D01*
X70755Y547982D01*
X70780Y548008D01*
X70857Y548161D01*
X70933Y548263D01*
X71010Y548339D01*
X71035Y548365D01*
X71163Y548467D01*
X71290Y548518D01*
X71367Y548569D01*
X71418D01*
X71571Y548620D01*
X71699Y548645D01*
X72005D01*
X72132Y548620D01*
D02*
G37*
G36*
X61571D02*
X61648Y548595D01*
X61673D01*
X61801Y548569D01*
X61903Y548518D01*
X61979Y548492D01*
X62005Y548467D01*
X62107Y548416D01*
X62183Y548339D01*
X62234Y548288D01*
X62260Y548263D01*
X62362Y548110D01*
X62388Y548059D01*
X62413Y548033D01*
X62464Y547906D01*
X62489Y547880D01*
Y547855D01*
X62515Y547727D01*
Y547702D01*
Y547676D01*
X62541Y547574D01*
X62566Y547498D01*
X62592Y547396D01*
Y547370D01*
Y547217D01*
Y547064D01*
Y546936D01*
Y546911D01*
Y546885D01*
Y546656D01*
Y546503D01*
Y546375D01*
Y546350D01*
X62566Y546222D01*
X62541Y546120D01*
X62515Y546069D01*
Y546043D01*
Y545967D01*
Y545941D01*
Y545916D01*
X62489Y545865D01*
X62464Y545839D01*
Y545788D01*
Y545763D01*
X62438Y545712D01*
X62413Y545686D01*
X62311Y545533D01*
X62260Y545482D01*
Y545457D01*
X62081Y545329D01*
X62030Y545278D01*
X62005Y545253D01*
X61877Y545202D01*
X61775Y545151D01*
X61699Y545125D01*
X61673D01*
X61546Y545100D01*
X61418Y545074D01*
X61163D01*
X61010Y545100D01*
X60908Y545125D01*
X60882D01*
X60729Y545176D01*
X60602Y545253D01*
X60525Y545278D01*
X60500Y545304D01*
X60398Y545431D01*
X60321Y545533D01*
X60270Y545610D01*
X60245Y545635D01*
X60168Y545788D01*
X60092Y545941D01*
X60066Y546043D01*
X60041Y546095D01*
X60653D01*
X60729Y545916D01*
X60831Y545814D01*
X60908Y545737D01*
X60933Y545712D01*
X61061Y545661D01*
X61189Y545635D01*
X61265Y545610D01*
X61469D01*
X61597Y545661D01*
X61622Y545686D01*
X61648D01*
X61724Y545712D01*
X61750Y545737D01*
X61826Y545814D01*
X61852Y545839D01*
X61928Y545941D01*
X61954Y545993D01*
X61979Y546095D01*
Y546145D01*
X62005Y546222D01*
Y546324D01*
X62030Y546401D01*
Y546426D01*
Y546579D01*
Y546732D01*
Y546834D01*
Y546885D01*
Y547038D01*
Y547166D01*
Y547268D01*
Y547294D01*
X62005Y547421D01*
Y547523D01*
X61979Y547549D01*
Y547574D01*
X61954Y547676D01*
Y547727D01*
X61877Y547829D01*
X61852Y547880D01*
X61775Y547931D01*
X61750Y547957D01*
X61673Y548033D01*
X61648Y548059D01*
X61520Y548084D01*
X61469D01*
X61367Y548110D01*
X61316Y548135D01*
X61163Y548110D01*
X61112Y548084D01*
X61086D01*
X60933Y548033D01*
X60882Y548008D01*
X60857Y547982D01*
X60755Y547855D01*
X60729Y547829D01*
Y547804D01*
X60678Y547676D01*
X60653Y547625D01*
Y547600D01*
X60041D01*
X60092Y547753D01*
X60168Y547880D01*
X60194Y547982D01*
X60219Y548008D01*
X60296Y548161D01*
X60372Y548263D01*
X60449Y548339D01*
X60474Y548365D01*
X60602Y548467D01*
X60729Y548518D01*
X60831Y548569D01*
X60857D01*
X61010Y548620D01*
X61163Y548645D01*
X61444D01*
X61571Y548620D01*
D02*
G37*
G36*
X125270Y545100D02*
X124734D01*
Y546605D01*
X123254D01*
Y547089D01*
X124734D01*
Y548135D01*
X122999D01*
Y548620D01*
X125270D01*
Y545100D01*
D02*
G37*
G36*
X117515D02*
X116979D01*
Y546605D01*
X115499D01*
Y547089D01*
X116979D01*
Y548135D01*
X115270D01*
Y548620D01*
X117515D01*
Y545100D01*
D02*
G37*
G36*
X111341D02*
X110805D01*
Y546605D01*
X110091D01*
X109377Y545100D01*
X108714D01*
X109555Y546656D01*
X109326Y546758D01*
X109173Y546885D01*
X109071Y546987D01*
X109045Y547013D01*
X108943Y547217D01*
X108892Y547421D01*
X108867Y547600D01*
Y547625D01*
Y547651D01*
X108892Y547829D01*
X108918Y547957D01*
X108943Y548059D01*
X108969Y548084D01*
X109045Y548212D01*
X109122Y548314D01*
X109173Y548390D01*
X109198Y548416D01*
X109326Y548492D01*
X109453Y548544D01*
X109530Y548569D01*
X109555D01*
X109683Y548595D01*
X109811Y548620D01*
X111341D01*
Y545100D01*
D02*
G37*
G36*
X100627D02*
X98357D01*
Y545610D01*
X100117D01*
Y548620D01*
X100627D01*
Y545100D01*
D02*
G37*
G36*
X98000D02*
X97413D01*
X97158Y545865D01*
X95806D01*
X95551Y545100D01*
X94964D01*
X96265Y548620D01*
X96698D01*
X98000Y545100D01*
D02*
G37*
G36*
X90168D02*
X89581D01*
X89326Y545865D01*
X87974D01*
X87719Y545100D01*
X87132D01*
X88433Y548620D01*
X88867D01*
X90168Y545100D01*
D02*
G37*
G36*
X86520D02*
X84275D01*
Y545610D01*
X85984D01*
Y546630D01*
X84505D01*
Y547115D01*
X85984D01*
Y548135D01*
X84275D01*
Y548620D01*
X86520D01*
Y545100D01*
D02*
G37*
G36*
X82056D02*
X79811D01*
Y545610D01*
X81520D01*
Y546630D01*
X80040D01*
Y547115D01*
X81520D01*
Y548135D01*
X79811D01*
Y548620D01*
X82056D01*
Y545100D01*
D02*
G37*
G36*
X79045D02*
X76775D01*
Y545610D01*
X78510D01*
Y548620D01*
X79045D01*
Y545100D01*
D02*
G37*
G36*
X76035D02*
X73765Y545100D01*
Y545610D01*
X75500D01*
Y546630D01*
X74020D01*
Y547115D01*
X75500D01*
Y548135D01*
X73765D01*
Y548620D01*
X76035Y548620D01*
Y545100D01*
D02*
G37*
G36*
X70347Y548161D02*
X69377D01*
Y545100D01*
X68841D01*
Y548161D01*
X67872D01*
Y548620D01*
X70347D01*
Y548161D01*
D02*
G37*
G36*
X67260Y545100D02*
X66724D01*
Y546605D01*
X66061D01*
X65296Y545100D01*
X64683D01*
X65474Y546656D01*
X65270Y546758D01*
X65117Y546885D01*
X65015Y546987D01*
X64990Y547013D01*
X64887Y547217D01*
X64837Y547421D01*
X64811Y547600D01*
Y547625D01*
Y547651D01*
X64837Y547829D01*
X64862Y547957D01*
X64887Y548059D01*
X64913Y548084D01*
X64990Y548212D01*
X65066Y548314D01*
X65143Y548390D01*
X65168Y548416D01*
X65372Y548544D01*
X65449Y548569D01*
X65474D01*
X65602Y548595D01*
X65755Y548620D01*
X67260D01*
Y545100D01*
D02*
G37*
G36*
X63969D02*
X63433D01*
Y548620D01*
X63969D01*
Y545100D01*
D02*
G37*
G36*
X127693Y548620D02*
X127795Y548595D01*
X127846Y548569D01*
X127974Y548518D01*
X128076Y548467D01*
X128152Y548416D01*
X128178Y548390D01*
X128280Y548263D01*
X128356Y548161D01*
X128407Y548084D01*
X128433Y548059D01*
X128484Y547906D01*
X128509Y547778D01*
Y547676D01*
Y547625D01*
X128484Y547498D01*
X128458Y547370D01*
X128433Y547294D01*
Y547268D01*
X128382Y547166D01*
X128305Y547064D01*
X128280Y547013D01*
X128254Y546987D01*
X128152Y546885D01*
X128050Y546809D01*
X127974Y546758D01*
X127948Y546732D01*
X127821Y546681D01*
X127693Y546656D01*
X127591Y546630D01*
X127566D01*
X127463Y546605D01*
X127387D01*
X127336Y546579D01*
X127081D01*
X126928Y546528D01*
X126826Y546477D01*
X126775Y546426D01*
X126749Y546401D01*
X126673Y546299D01*
X126647Y546197D01*
X126622Y546120D01*
Y546095D01*
X126647Y545916D01*
X126698Y545814D01*
X126775Y545737D01*
X126800Y545712D01*
X126953Y545661D01*
X127106Y545635D01*
X127259Y545610D01*
X127310D01*
X127515Y545635D01*
X127693Y545661D01*
X127821Y545686D01*
X127872D01*
X128050Y545763D01*
X128178Y545865D01*
X128280Y545941D01*
X128305Y545967D01*
X128688Y545559D01*
X128458Y545380D01*
X128254Y545278D01*
X128101Y545202D01*
X128076Y545176D01*
X128050D01*
X127795Y545125D01*
X127566Y545100D01*
X127463Y545074D01*
X127106D01*
X126928Y545125D01*
X126775Y545151D01*
X126647Y545202D01*
X126545Y545253D01*
X126469Y545278D01*
X126443Y545329D01*
X126418D01*
X126316Y545431D01*
X126239Y545559D01*
X126137Y545814D01*
X126111Y545916D01*
X126086Y546018D01*
Y546069D01*
Y546095D01*
Y546222D01*
X126111Y546324D01*
X126137Y546401D01*
Y546426D01*
X126188Y546554D01*
X126239Y546656D01*
X126290Y546732D01*
X126316Y546758D01*
X126418Y546860D01*
X126494Y546936D01*
X126596Y546962D01*
X126622Y546987D01*
X126775Y547064D01*
X126902Y547089D01*
X127004Y547115D01*
X127285D01*
X127387Y547140D01*
X127412Y547166D01*
X127438D01*
X127540Y547191D01*
X127617D01*
X127668Y547217D01*
X127693D01*
X127795Y547294D01*
X127821Y547319D01*
X127897Y547446D01*
X127923Y547472D01*
X127948Y547574D01*
Y547625D01*
X127923Y547778D01*
X127897Y547804D01*
Y547829D01*
X127846Y547906D01*
X127821Y547957D01*
X127770Y548008D01*
X127642Y548059D01*
X127617Y548084D01*
X127591D01*
X127438Y548135D01*
X127362D01*
X127183Y548110D01*
X127055Y548084D01*
X126953Y548059D01*
X126902Y548033D01*
X126749Y547982D01*
X126596Y547906D01*
X126494Y547855D01*
X126469Y547829D01*
X126188Y548288D01*
X126367Y548416D01*
X126520Y548492D01*
X126647Y548518D01*
X126673Y548544D01*
X126698D01*
X126928Y548595D01*
X127132Y548645D01*
X127540D01*
X127693Y548620D01*
D02*
G37*
G36*
X113714D02*
X113816Y548595D01*
X113841D01*
X113969Y548569D01*
X114071Y548518D01*
X114122Y548492D01*
X114147Y548467D01*
X114249Y548416D01*
X114326Y548339D01*
X114377Y548288D01*
X114402Y548263D01*
X114504Y548110D01*
X114555Y548059D01*
Y548033D01*
X114606Y547906D01*
X114632Y547880D01*
Y547855D01*
X114657Y547727D01*
X114683Y547702D01*
Y547676D01*
Y547574D01*
Y547498D01*
X114708Y547396D01*
Y547370D01*
X114734Y547217D01*
Y547064D01*
Y546936D01*
Y546911D01*
Y546885D01*
Y546656D01*
X114708Y546503D01*
Y546375D01*
Y546350D01*
X114683Y546222D01*
Y546120D01*
Y546069D01*
Y546043D01*
X114657Y545967D01*
Y545941D01*
Y545916D01*
X114632Y545865D01*
Y545839D01*
X114606Y545788D01*
Y545763D01*
X114581Y545712D01*
X114555Y545686D01*
X114453Y545533D01*
X114428Y545482D01*
X114402Y545457D01*
X114224Y545329D01*
X114173Y545278D01*
X114147Y545253D01*
X113943Y545151D01*
X113867Y545125D01*
X113841D01*
X113714Y545100D01*
X113586Y545074D01*
X113305D01*
X113178Y545100D01*
X113101Y545125D01*
X113076D01*
X112948Y545176D01*
X112846Y545202D01*
X112795Y545253D01*
X112770D01*
X112668Y545329D01*
X112591Y545406D01*
X112540Y545431D01*
X112515Y545457D01*
X112387Y545610D01*
X112362Y545661D01*
Y545686D01*
X112311Y545788D01*
X112285Y545839D01*
X112234Y545993D01*
X112208Y546018D01*
Y546043D01*
Y546145D01*
Y546248D01*
Y546324D01*
Y546350D01*
X112183Y546528D01*
Y546707D01*
Y546834D01*
Y546860D01*
Y546885D01*
Y547089D01*
Y547242D01*
X112208Y547344D01*
Y547370D01*
Y547498D01*
Y547600D01*
Y547651D01*
Y547676D01*
X112259Y547804D01*
X112285Y547855D01*
X112336Y547982D01*
X112362Y548033D01*
X112464Y548186D01*
X112489Y548237D01*
X112515Y548263D01*
X112668Y548416D01*
X112744Y548441D01*
X112770Y548467D01*
X112872Y548544D01*
X112974Y548569D01*
X113050Y548595D01*
X113076D01*
X113203Y548620D01*
X113331Y548645D01*
X113612D01*
X113714Y548620D01*
D02*
G37*
G36*
X92209D02*
X92336Y548595D01*
X92362Y548569D01*
X92489Y548518D01*
X92617Y548467D01*
X92693Y548416D01*
X92719Y548390D01*
X92821Y548263D01*
X92897Y548161D01*
X92923Y548084D01*
X92949Y548059D01*
X92974Y547906D01*
X93000Y547778D01*
Y547676D01*
Y547625D01*
Y547498D01*
X92974Y547370D01*
X92949Y547294D01*
Y547268D01*
X92897Y547166D01*
X92846Y547064D01*
X92795Y547013D01*
X92770Y546987D01*
X92693Y546885D01*
X92591Y546809D01*
X92515Y546758D01*
X92489Y546732D01*
X92362Y546681D01*
X92209Y546656D01*
X92107Y546630D01*
X92081D01*
X91928Y546605D01*
X91877Y546579D01*
X91622D01*
X91469Y546528D01*
X91341Y546477D01*
X91290Y546426D01*
X91265Y546401D01*
X91214Y546299D01*
X91163Y546197D01*
Y546120D01*
Y546095D01*
X91188Y545916D01*
X91239Y545814D01*
X91316Y545737D01*
X91341Y545712D01*
X91494Y545661D01*
X91647Y545635D01*
X91800Y545610D01*
X91852D01*
X92056Y545635D01*
X92234Y545661D01*
X92362Y545686D01*
X92413D01*
X92566Y545763D01*
X92719Y545865D01*
X92821Y545941D01*
X92846Y545967D01*
X93204Y545559D01*
X93000Y545380D01*
X92795Y545278D01*
X92642Y545202D01*
X92617Y545176D01*
X92591D01*
X92336Y545125D01*
X92107Y545100D01*
X92005Y545074D01*
X91647D01*
X91443Y545125D01*
X91290Y545151D01*
X91163Y545202D01*
X91061Y545253D01*
X90984Y545278D01*
X90959Y545329D01*
X90933D01*
X90831Y545431D01*
X90755Y545559D01*
X90653Y545814D01*
Y545916D01*
X90627Y546018D01*
Y546069D01*
Y546095D01*
Y546222D01*
X90653Y546324D01*
X90678Y546401D01*
Y546426D01*
X90729Y546554D01*
X90780Y546656D01*
X90831Y546732D01*
X90857Y546758D01*
X90959Y546860D01*
X91035Y546936D01*
X91137Y546962D01*
X91163Y546987D01*
X91316Y547064D01*
X91443Y547089D01*
X91545Y547115D01*
X91826D01*
X91928Y547140D01*
X91954Y547166D01*
X91979D01*
X92081Y547191D01*
X92158D01*
X92209Y547217D01*
X92234D01*
X92336Y547294D01*
X92362Y547319D01*
X92413Y547446D01*
X92438Y547472D01*
X92464Y547574D01*
Y547625D01*
X92438Y547778D01*
Y547804D01*
Y547829D01*
X92387Y547906D01*
X92362Y547957D01*
X92311Y548008D01*
X92183Y548059D01*
X92158Y548084D01*
X92132D01*
X91954Y548135D01*
X91877D01*
X91724Y548110D01*
X91571Y548084D01*
X91469Y548059D01*
X91443Y548033D01*
X91290Y547982D01*
X91137Y547906D01*
X91035Y547855D01*
X91010Y547829D01*
X90729Y548288D01*
X90908Y548416D01*
X91061Y548492D01*
X91188Y548518D01*
X91214Y548544D01*
X91239D01*
X91443Y548595D01*
X91647Y548645D01*
X92056D01*
X92209Y548620D01*
D02*
G37*
G36*
X140423Y563365D02*
X139938Y562778D01*
X139504Y562191D01*
X139147Y561630D01*
X138866Y561120D01*
X138637Y560661D01*
X138535Y560482D01*
X138458Y560304D01*
X138407Y560176D01*
X138356Y560074D01*
X138331Y560023D01*
Y559998D01*
X138076Y559309D01*
X137897Y558620D01*
X137744Y557982D01*
X137642Y557421D01*
X137617Y557166D01*
X137566Y556936D01*
Y556732D01*
X137540Y556554D01*
X137514Y556401D01*
Y556298D01*
Y556248D01*
Y556222D01*
Y555508D01*
X137540Y554844D01*
X137617Y554181D01*
X137693Y553620D01*
X137744Y553365D01*
X137795Y553135D01*
X137846Y552931D01*
X137897Y552753D01*
X137923Y552600D01*
X137948Y552497D01*
X137974Y552447D01*
Y552421D01*
X138203Y551707D01*
X138458Y551069D01*
X138764Y550457D01*
X139045Y549921D01*
X139173Y549691D01*
X139300Y549487D01*
X139402Y549283D01*
X139504Y549130D01*
X139581Y549028D01*
X139657Y548926D01*
X139683Y548875D01*
X139708Y548850D01*
X140167Y548237D01*
X140652Y547702D01*
X141137Y547242D01*
X141570Y546834D01*
X141953Y546503D01*
X142132Y546375D01*
X142259Y546273D01*
X142387Y546171D01*
X142463Y546120D01*
X142514Y546095D01*
X142540Y546069D01*
X143152Y545686D01*
X143764Y545329D01*
X144351Y545049D01*
X144887Y544819D01*
X145346Y544640D01*
X145525Y544564D01*
X145703Y544513D01*
X145831Y544462D01*
X145933Y544436D01*
X145984Y544411D01*
X146009D01*
X146698Y544232D01*
X147387Y544130D01*
X148050Y544054D01*
X148611Y544003D01*
X149836D01*
X150576Y544079D01*
X151264Y544181D01*
X151928Y544334D01*
X152514Y544513D01*
X152769Y544589D01*
X152999Y544666D01*
X153203Y544717D01*
X153382Y544794D01*
X153535Y544844D01*
X153637Y544896D01*
X153688Y544921D01*
X153713D01*
X153917Y544385D01*
X153076Y544079D01*
X152693Y543952D01*
X152336Y543850D01*
X152030Y543773D01*
X151800Y543722D01*
X151647Y543671D01*
X151596D01*
X151137Y543595D01*
X150703Y543543D01*
X150320Y543493D01*
X149938Y543467D01*
X149632D01*
X149402Y543441D01*
X149198D01*
X148586Y543467D01*
X148305D01*
X148076Y543493D01*
X147871Y543518D01*
X147693D01*
X147591Y543543D01*
X147565D01*
X146953Y543646D01*
X146698Y543697D01*
X146443Y543748D01*
X146239Y543799D01*
X146060Y543850D01*
X145958Y543875D01*
X145933D01*
X145193Y544105D01*
X144504Y544385D01*
X143866Y544666D01*
X143305Y544947D01*
X143076Y545074D01*
X142846Y545202D01*
X142667Y545329D01*
X142514Y545431D01*
X142387Y545508D01*
X142285Y545559D01*
X142234Y545610D01*
X142208D01*
X141570Y546069D01*
X141009Y546579D01*
X140499Y547064D01*
X140065Y547523D01*
X139734Y547906D01*
X139581Y548084D01*
X139479Y548237D01*
X139377Y548365D01*
X139300Y548441D01*
X139275Y548492D01*
X139249Y548518D01*
X138815Y549156D01*
X138458Y549819D01*
X138152Y550431D01*
X137897Y550992D01*
X137795Y551248D01*
X137718Y551503D01*
X137642Y551707D01*
X137566Y551885D01*
X137514Y552013D01*
X137489Y552140D01*
X137463Y552191D01*
Y552217D01*
X137285Y552982D01*
X137132Y553722D01*
X137055Y554411D01*
X137004Y555023D01*
X136979Y555304D01*
Y555559D01*
Y555788D01*
Y555967D01*
Y556120D01*
Y556222D01*
Y556298D01*
Y556324D01*
X137055Y557089D01*
X137157Y557829D01*
X137310Y558492D01*
X137463Y559079D01*
X137540Y559360D01*
X137617Y559589D01*
X137693Y559793D01*
X137744Y559972D01*
X137795Y560125D01*
X137846Y560227D01*
X137872Y560278D01*
Y560304D01*
X138178Y560992D01*
X138535Y561656D01*
X138866Y562242D01*
X139224Y562752D01*
X139377Y562957D01*
X139530Y563161D01*
X139657Y563339D01*
X139759Y563467D01*
X139861Y563594D01*
X139938Y563671D01*
X139963Y563722D01*
X139989Y563747D01*
X140423Y563365D01*
D02*
G37*
G36*
X138713Y568569D02*
X139530Y567906D01*
X140269Y567293D01*
X140627Y567013D01*
X140958Y566758D01*
X141264Y566503D01*
X141519Y566273D01*
X141775Y566094D01*
X141979Y565916D01*
X142132Y565788D01*
X142259Y565686D01*
X142336Y565635D01*
X142361Y565610D01*
X143178Y564921D01*
X143994Y564258D01*
X144759Y563645D01*
X145091Y563339D01*
X145422Y563084D01*
X145729Y562829D01*
X146009Y562600D01*
X146239Y562395D01*
X146443Y562242D01*
X146596Y562089D01*
X146724Y561987D01*
X146800Y561936D01*
X146826Y561911D01*
X147667Y561222D01*
X148484Y560559D01*
X149249Y559946D01*
X149606Y559666D01*
X149912Y559411D01*
X150218Y559156D01*
X150499Y558926D01*
X150754Y558747D01*
X150958Y558569D01*
X151111Y558441D01*
X151239Y558339D01*
X151315Y558288D01*
X151341Y558263D01*
X152183Y557574D01*
X152999Y556911D01*
X153764Y556298D01*
X154121Y555992D01*
X154453Y555737D01*
X154759Y555482D01*
X155040Y555253D01*
X155295Y555049D01*
X155499Y554895D01*
X155652Y554742D01*
X155780Y554640D01*
X155856Y554589D01*
X155882Y554564D01*
X155422Y554411D01*
X154963Y554258D01*
X154555Y554105D01*
X154198Y553977D01*
X153866Y553875D01*
X153637Y553798D01*
X153484Y553748D01*
X153458Y553722D01*
X153433D01*
X152973Y553569D01*
X152540Y553441D01*
X152132Y553288D01*
X151749Y553161D01*
X151443Y553059D01*
X151188Y552982D01*
X151035Y552931D01*
X151009Y552906D01*
X150984D01*
X151264Y552549D01*
X151519Y552242D01*
X151621Y552115D01*
X151698Y552038D01*
X151749Y551987D01*
X151775Y551962D01*
X152081Y551656D01*
X152310Y551401D01*
X152412Y551273D01*
X152489Y551196D01*
X152540Y551146D01*
X152565Y551120D01*
X152948Y550712D01*
X153331Y550304D01*
X153688Y549946D01*
X153994Y549615D01*
X154249Y549334D01*
X154453Y549105D01*
X154581Y548977D01*
X154632Y548952D01*
Y548926D01*
X155014Y548518D01*
X155397Y548110D01*
X155754Y547727D01*
X156060Y547396D01*
X156315Y547115D01*
X156519Y546885D01*
X156647Y546758D01*
X156698Y546732D01*
Y546707D01*
X157081Y546299D01*
X157438Y545890D01*
X157795Y545533D01*
X158101Y545202D01*
X158356Y544921D01*
X158560Y544692D01*
X158688Y544564D01*
X158739Y544538D01*
Y544513D01*
X159121Y544105D01*
X159504Y543697D01*
X159861Y543314D01*
X160167Y542982D01*
X160422Y542702D01*
X160626Y542472D01*
X160754Y542345D01*
X160805Y542319D01*
Y542294D01*
X160907Y542217D01*
X160984Y542140D01*
X161086Y542089D01*
X161111Y542064D01*
X161213Y541962D01*
X161239Y541885D01*
X161213Y541809D01*
Y541783D01*
X161188Y541758D01*
X161162Y541732D01*
X161086Y541758D01*
X161009Y541783D01*
X160984Y541809D01*
X160856Y541911D01*
X160754Y542013D01*
X160703Y542064D01*
X160678Y542089D01*
X159836Y542702D01*
X159019Y543314D01*
X158254Y543875D01*
X157897Y544156D01*
X157565Y544385D01*
X157259Y544615D01*
X157004Y544819D01*
X156749Y545023D01*
X156545Y545176D01*
X156392Y545278D01*
X156264Y545380D01*
X156188Y545431D01*
X156162Y545457D01*
X155320Y546095D01*
X154504Y546707D01*
X153764Y547268D01*
X153407Y547523D01*
X153076Y547778D01*
X152769Y548008D01*
X152489Y548212D01*
X152259Y548390D01*
X152055Y548544D01*
X151902Y548671D01*
X151775Y548747D01*
X151698Y548799D01*
X151672Y548824D01*
X150831Y549462D01*
X150014Y550074D01*
X149249Y550661D01*
X148892Y550916D01*
X148586Y551171D01*
X148280Y551401D01*
X147999Y551605D01*
X147769Y551783D01*
X147565Y551936D01*
X147412Y552038D01*
X147285Y552140D01*
X147208Y552191D01*
X147183Y552217D01*
X146341Y552855D01*
X145525Y553467D01*
X144759Y554054D01*
X144402Y554309D01*
X144070Y554564D01*
X143764Y554793D01*
X143484Y554997D01*
X143229Y555176D01*
X143025Y555329D01*
X142871Y555431D01*
X142744Y555533D01*
X142667Y555584D01*
X142642Y555610D01*
X142514Y555712D01*
X142412Y555814D01*
X142336Y555865D01*
X142310Y555890D01*
X142183Y555992D01*
X142055Y556069D01*
X141953Y556145D01*
X141928Y556171D01*
X142489Y556324D01*
X143050Y556477D01*
X143560Y556605D01*
X143994Y556732D01*
X144377Y556809D01*
X144555Y556860D01*
X144683Y556885D01*
X144785Y556936D01*
X144861D01*
X144912Y556962D01*
X144938D01*
X145499Y557115D01*
X146035Y557268D01*
X146519Y557395D01*
X146979Y557523D01*
X147361Y557625D01*
X147540Y557676D01*
X147667Y557702D01*
X147769Y557727D01*
X147846Y557753D01*
X147897Y557778D01*
X147923D01*
X147438Y558314D01*
X146979Y558824D01*
X146545Y559309D01*
X146162Y559742D01*
X145831Y560100D01*
X145576Y560380D01*
X145499Y560482D01*
X145422Y560559D01*
X145397Y560584D01*
X145371Y560610D01*
X144887Y561145D01*
X144428Y561656D01*
X143994Y562140D01*
X143611Y562574D01*
X143280Y562931D01*
X143025Y563212D01*
X142948Y563314D01*
X142871Y563390D01*
X142846Y563416D01*
X142821Y563441D01*
X142361Y563977D01*
X141902Y564487D01*
X141469Y564972D01*
X141111Y565406D01*
X140780Y565763D01*
X140525Y566043D01*
X140448Y566145D01*
X140372Y566222D01*
X140346Y566247D01*
X140321Y566273D01*
X139836Y566809D01*
X139377Y567319D01*
X138969Y567803D01*
X138586Y568237D01*
X138254Y568594D01*
X137999Y568875D01*
X137923Y568977D01*
X137846Y569054D01*
X137821Y569079D01*
X137795Y569104D01*
X137821Y569130D01*
X137846Y569156D01*
X137872Y569232D01*
Y569258D01*
X138713Y568569D01*
D02*
G37*
%LPC*%
G36*
X124463Y158441D02*
X123663D01*
Y157641D01*
Y156841D01*
X122863D01*
Y156041D01*
X122063D01*
Y155241D01*
Y154441D01*
X121263D01*
Y153641D01*
Y152841D01*
X120463D01*
Y152041D01*
Y151241D01*
X119663D01*
Y150441D01*
X118863D01*
Y149641D01*
Y148841D01*
X118063D01*
Y148041D01*
Y147241D01*
X117263D01*
Y146441D01*
X116463D01*
Y145641D01*
Y144841D01*
X115663D01*
Y144041D01*
Y143241D01*
X114863D01*
Y142441D01*
Y141641D01*
X114063D01*
Y140841D01*
X113263D01*
Y140041D01*
Y139241D01*
X112463D01*
Y138441D01*
Y137641D01*
X111663D01*
Y136841D01*
Y136041D01*
X110863D01*
Y135241D01*
Y134441D01*
X110063D01*
Y133641D01*
X109263D01*
Y132841D01*
Y132041D01*
X108463D01*
Y131241D01*
Y130441D01*
X107663D01*
Y129641D01*
Y128841D01*
X106863D01*
Y128041D01*
X106063D01*
Y127241D01*
Y126441D01*
X105263D01*
Y125641D01*
Y124841D01*
X104463D01*
Y124041D01*
X103663D01*
Y123241D01*
X142863D01*
Y124041D01*
X142063D01*
Y124841D01*
Y125641D01*
X141263D01*
Y126441D01*
Y127241D01*
X140463D01*
Y128041D01*
X139663D01*
Y128841D01*
Y129641D01*
X138863D01*
Y130441D01*
Y131241D01*
X138063D01*
Y132041D01*
Y132841D01*
X137263D01*
Y133641D01*
Y134441D01*
X136463D01*
Y135241D01*
X135663D01*
Y136041D01*
Y136841D01*
Y137641D01*
X134863D01*
Y138441D01*
X134063D01*
Y139241D01*
Y140041D01*
X133263D01*
Y140841D01*
Y141641D01*
X132463D01*
Y142441D01*
Y143241D01*
X131663D01*
Y144041D01*
Y144841D01*
X130863D01*
Y145641D01*
Y146441D01*
X130063D01*
Y147241D01*
Y148041D01*
X129263D01*
Y148841D01*
X128463D01*
Y149641D01*
Y150441D01*
Y151241D01*
X127663D01*
Y152041D01*
X126863D01*
Y152841D01*
Y153641D01*
X126063D01*
Y154441D01*
Y155241D01*
X125263D01*
Y156041D01*
Y156841D01*
X124463D01*
Y157641D01*
Y158441D01*
D02*
G37*
%LPD*%
G36*
X125263Y149641D02*
X126063D01*
Y148841D01*
Y148041D01*
Y147241D01*
Y146441D01*
X126863D01*
Y145641D01*
Y144841D01*
Y144041D01*
X127663D01*
Y143241D01*
Y142441D01*
Y141641D01*
Y140841D01*
X128463D01*
Y140041D01*
Y139241D01*
Y138441D01*
X129263D01*
Y137641D01*
Y136841D01*
Y136041D01*
X130063D01*
Y135241D01*
Y134441D01*
X129263D01*
Y135241D01*
X127663D01*
Y136041D01*
X126063D01*
Y136841D01*
X124463D01*
Y137641D01*
X122863D01*
Y136841D01*
Y136041D01*
Y135241D01*
X123663D01*
Y134441D01*
Y133641D01*
Y132841D01*
Y132041D01*
X124463D01*
Y132841D01*
X125263D01*
Y132041D01*
Y131241D01*
Y130441D01*
Y129641D01*
Y128841D01*
Y128041D01*
Y127241D01*
Y126441D01*
Y125641D01*
X123663D01*
Y126441D01*
Y127241D01*
X122863D01*
Y128041D01*
X122063D01*
Y128841D01*
X121263D01*
Y129641D01*
Y130441D01*
X120463D01*
Y131241D01*
X122063D01*
Y132041D01*
X121263D01*
Y132841D01*
Y133641D01*
Y134441D01*
X120463D01*
Y135241D01*
Y136041D01*
Y136841D01*
Y137641D01*
X119663D01*
Y138441D01*
Y139241D01*
Y140041D01*
Y140841D01*
X118863D01*
Y141641D01*
X121263D01*
Y140841D01*
X122863D01*
Y140041D01*
X124463D01*
Y139241D01*
X126063D01*
Y140041D01*
Y140841D01*
X125263D01*
Y141641D01*
Y142441D01*
X124463D01*
Y143241D01*
Y144041D01*
Y144841D01*
X123663D01*
Y145641D01*
Y146441D01*
Y147241D01*
X122863D01*
Y148041D01*
Y148841D01*
X122063D01*
Y149641D01*
X124463D01*
Y150441D01*
X125263D01*
Y149641D01*
D02*
G37*
%LPC*%
G36*
X328231Y16928D02*
X328595Y10571D01*
X331176D01*
X328231Y16928D01*
D02*
G37*
G36*
X69709Y559028D02*
X69556D01*
X69224Y559002D01*
X68944Y558952D01*
X68688Y558849D01*
X68510Y558773D01*
X68357Y558671D01*
X68229Y558569D01*
X68178Y558518D01*
X68153Y558492D01*
X68000Y558263D01*
X67872Y558008D01*
X67796Y557753D01*
X67719Y557498D01*
X67694Y557242D01*
X67668Y557064D01*
Y556936D01*
Y556885D01*
X67694Y556503D01*
X67745Y556171D01*
X67821Y555890D01*
X67898Y555661D01*
X68000Y555482D01*
X68076Y555355D01*
X68127Y555278D01*
X68153Y555253D01*
X68331Y555074D01*
X68561Y554921D01*
X68791Y554819D01*
X69020Y554768D01*
X69224Y554717D01*
X69403Y554691D01*
X69556D01*
X69887Y554717D01*
X70194Y554768D01*
X70449Y554870D01*
X70653Y554972D01*
X70806Y555074D01*
X70908Y555176D01*
X70984Y555227D01*
X71010Y555253D01*
X71163Y555482D01*
X71290Y555737D01*
X71367Y556018D01*
X71443Y556273D01*
X71469Y556528D01*
X71495Y556707D01*
Y556834D01*
Y556885D01*
X71469Y557268D01*
X71418Y557599D01*
X71342Y557855D01*
X71240Y558084D01*
X71163Y558263D01*
X71086Y558390D01*
X71035Y558467D01*
X71010Y558492D01*
X70806Y558671D01*
X70576Y558799D01*
X70347Y558900D01*
X70091Y558952D01*
X69887Y559002D01*
X69709Y559028D01*
D02*
G37*
G36*
X110805Y548161D02*
X109785D01*
X109760Y548135D01*
X109734D01*
X109658Y548110D01*
X109607Y548084D01*
X109555Y548059D01*
X109479Y548008D01*
X109453Y547931D01*
X109428Y547906D01*
Y547880D01*
X109377Y547727D01*
Y547676D01*
Y547651D01*
X109402Y547498D01*
X109428Y547446D01*
Y547421D01*
X109479Y547294D01*
X109504Y547268D01*
X109530Y547242D01*
X109581Y547191D01*
X109632Y547140D01*
X109683Y547115D01*
X109708D01*
X109887Y547089D01*
X110805D01*
Y548161D01*
D02*
G37*
G36*
X96469Y547906D02*
X95959Y546350D01*
X97005D01*
X96469Y547906D01*
D02*
G37*
G36*
X88663D02*
X88153Y546350D01*
X89173D01*
X88663Y547906D01*
D02*
G37*
G36*
X66724Y548161D02*
X65729D01*
X65704Y548135D01*
X65678D01*
X65525Y548084D01*
X65500Y548059D01*
X65474D01*
X65398Y547931D01*
X65372Y547906D01*
Y547880D01*
X65321Y547727D01*
Y547676D01*
Y547651D01*
Y547498D01*
X65347Y547446D01*
Y547421D01*
X65398Y547294D01*
X65423Y547268D01*
X65449Y547242D01*
X65576Y547140D01*
X65627Y547115D01*
X65653D01*
X65806Y547089D01*
X66724D01*
Y548161D01*
D02*
G37*
G36*
X113459Y548135D02*
X113331Y548110D01*
X113280Y548084D01*
X113152D01*
X113127Y548059D01*
X113025Y547982D01*
X112999Y547957D01*
X112948Y547906D01*
X112923Y547880D01*
X112872Y547778D01*
X112846Y547753D01*
Y547727D01*
X112795Y547625D01*
X112770Y547600D01*
Y547574D01*
Y547498D01*
Y547396D01*
Y547319D01*
Y547294D01*
X112744Y547166D01*
Y547013D01*
Y546936D01*
Y546885D01*
Y546707D01*
Y546554D01*
X112770Y546452D01*
Y546426D01*
Y546299D01*
Y546222D01*
Y546171D01*
Y546145D01*
X112821Y546043D01*
X112846Y546018D01*
Y545993D01*
X112897Y545890D01*
X112923Y545865D01*
Y545839D01*
X112974Y545763D01*
X112999Y545737D01*
X113076Y545712D01*
X113101Y545686D01*
X113127D01*
X113229Y545635D01*
X113254Y545610D01*
X113637D01*
X113739Y545661D01*
X113790Y545686D01*
X113892Y545712D01*
X113918Y545737D01*
X113969Y545814D01*
X113994Y545839D01*
X114071Y545941D01*
X114096Y545993D01*
X114122Y546095D01*
X114147Y546145D01*
Y546222D01*
Y546324D01*
X114173Y546401D01*
Y546426D01*
Y546579D01*
Y546732D01*
Y546834D01*
Y546885D01*
Y547038D01*
Y547166D01*
Y547268D01*
Y547294D01*
X114147Y547421D01*
Y547523D01*
Y547549D01*
Y547574D01*
X114122Y547676D01*
X114096Y547727D01*
X114020Y547829D01*
X113994Y547880D01*
X113943Y547931D01*
X113918Y547957D01*
X113841Y548033D01*
X113790Y548059D01*
X113688Y548084D01*
X113637D01*
X113510Y548110D01*
X113459Y548135D01*
D02*
G37*
%LPD*%
D10*
X578740Y338189D02*
X581496Y340945D01*
Y359055D01*
X578740Y298425D02*
X581890Y301575D01*
Y314961D01*
X578740Y278740D02*
X581102Y281102D01*
Y292359D01*
X546457Y292913D02*
X559878D01*
X546457D02*
Y342913D01*
X536614Y352756D02*
X546457Y342913D01*
X435433Y352756D02*
X536614D01*
X542126Y138976D02*
X559093D01*
X537402Y143701D02*
X542126Y138976D01*
X537402Y143701D02*
Y173622D01*
X542126Y178347D01*
X558699D01*
X571654Y158268D02*
X586614D01*
X569685Y156299D02*
X571654Y158268D01*
X569685Y111811D02*
Y156299D01*
X101690Y361593D02*
Y362381D01*
X106218Y361593D02*
Y362381D01*
X101690Y375570D02*
Y376357D01*
X106218Y375570D02*
Y376357D01*
X140508Y375725D02*
X141296D01*
X140508Y380252D02*
X141296D01*
X71265Y336359D02*
X84651D01*
X71265Y346989D02*
X84651D01*
X150116Y372026D02*
Y372814D01*
X154643Y372026D02*
Y372814D01*
X68939Y323615D02*
Y326371D01*
X75238Y323615D02*
Y326371D01*
X89627Y290193D02*
Y292949D01*
X95926Y290193D02*
Y292949D01*
X129624Y372023D02*
X138680D01*
X129624Y359818D02*
X138680D01*
Y372023D01*
X129624Y359818D02*
Y372023D01*
X82463Y311314D02*
Y312987D01*
Y311314D02*
X84136D01*
X82463Y323027D02*
Y324700D01*
X84136D01*
X94176D02*
X95849D01*
Y323027D02*
Y324700D01*
Y311314D02*
Y312987D01*
X94176Y311314D02*
X95849D01*
X89171Y427245D02*
Y458348D01*
X103738Y427245D02*
Y458348D01*
X89171Y427245D02*
X103738D01*
X89171Y458348D02*
X103738D01*
X482750Y106357D02*
X495348D01*
X482750Y86672D02*
X495348D01*
Y106357D01*
X482750Y86672D02*
Y106357D01*
X505466Y314562D02*
Y315350D01*
X500938Y314562D02*
Y315350D01*
X479084Y304528D02*
X488140D01*
X479084Y316733D02*
X488140D01*
X479084Y304528D02*
Y316733D01*
X488140Y304528D02*
Y316733D01*
X504934Y270213D02*
Y271000D01*
X500406Y270213D02*
Y271000D01*
X504934Y256003D02*
Y256791D01*
X500406Y256003D02*
Y256791D01*
X505442Y300192D02*
Y300980D01*
X500914Y300192D02*
Y300980D01*
X479364Y260236D02*
X488419D01*
X479364Y272441D02*
X488419D01*
X479364Y260236D02*
Y272441D01*
X488419Y260236D02*
Y272441D01*
X477142Y255747D02*
X477929D01*
X477142Y251219D02*
X477929D01*
X477142Y300349D02*
X477929D01*
X477142Y295822D02*
X477929D01*
X467255Y260925D02*
Y261712D01*
X462727Y260925D02*
Y261712D01*
X467255Y305311D02*
Y306098D01*
X462727Y305311D02*
Y306098D01*
X530983Y77321D02*
X529671D01*
X530327D01*
Y81256D01*
X530983Y80600D01*
X525079Y77321D02*
X527703D01*
X525079Y79944D01*
Y80600D01*
X525735Y81256D01*
X527047D01*
X527703Y80600D01*
X523767D02*
X523111Y81256D01*
X521799D01*
X521143Y80600D01*
Y77977D01*
X521799Y77321D01*
X523111D01*
X523767Y77977D01*
Y80600D01*
X529015Y74644D02*
X530327D01*
X530983Y73988D01*
Y71364D01*
X530327Y70708D01*
X529015D01*
X528359Y71364D01*
Y73988D01*
X529015Y74644D01*
X527047D02*
Y70708D01*
Y72676D01*
X524423D01*
Y74644D01*
Y70708D01*
X523111D02*
Y74644D01*
X521799Y73332D01*
X520487Y74644D01*
Y70708D01*
X37008Y170392D02*
X35696D01*
X36352D01*
Y174328D01*
X37008Y173672D01*
X33728D02*
X33072Y174328D01*
X31760D01*
X31104Y173672D01*
Y173016D01*
X31760Y172360D01*
X32416D01*
X31760D01*
X31104Y171704D01*
Y171048D01*
X31760Y170392D01*
X33072D01*
X33728Y171048D01*
X589801Y155039D02*
Y152415D01*
X588489Y151103D01*
X587178Y152415D01*
Y155039D01*
X583242Y154383D02*
X583898Y155039D01*
X585210D01*
X585866Y154383D01*
Y151759D01*
X585210Y151103D01*
X583898D01*
X583242Y151759D01*
X581930Y155039D02*
Y151759D01*
X581274Y151103D01*
X579962D01*
X579306Y151759D01*
Y155039D01*
X555682Y124540D02*
X556337Y125196D01*
X557649D01*
X558305Y124540D01*
Y121916D01*
X557649Y121260D01*
X556337D01*
X555682Y121916D01*
X554370Y121260D02*
Y123884D01*
X553058Y125196D01*
X551746Y123884D01*
Y121260D01*
Y123228D01*
X554370D01*
X550434Y121260D02*
Y125196D01*
X547810Y121260D01*
Y125196D01*
X546498D02*
Y121260D01*
Y123228D01*
X543874D01*
Y125196D01*
Y121260D01*
X34384Y134958D02*
X37008D01*
Y132990D01*
X35696Y133646D01*
X35040D01*
X34384Y132990D01*
Y131678D01*
X35040Y131022D01*
X36352D01*
X37008Y131678D01*
X328304Y525978D02*
Y528602D01*
Y527290D01*
X324368D01*
X328304Y529914D02*
X324368Y532538D01*
X328304D02*
X324368Y529914D01*
X314290Y525978D02*
X318225D01*
Y527946D01*
X317569Y528602D01*
X316258D01*
X315601Y527946D01*
Y525978D01*
Y527290D02*
X314290Y528602D01*
X318225Y529914D02*
X314290Y532538D01*
X318225D02*
X314290Y529914D01*
X66535Y352380D02*
X63912D01*
X65223D01*
Y348445D01*
X59976Y352380D02*
X62600D01*
Y348445D01*
X59976D01*
X62600Y350413D02*
X61288D01*
X58664Y348445D02*
Y352380D01*
X57352Y351068D01*
X56040Y352380D01*
Y348445D01*
X54728D02*
Y352380D01*
X52760D01*
X52104Y351724D01*
Y350413D01*
X52760Y349757D01*
X54728D01*
X48169Y348445D02*
X50792D01*
X48169Y351068D01*
Y351724D01*
X48825Y352380D01*
X50137D01*
X50792Y351724D01*
X66535Y432380D02*
X63912D01*
X65223D01*
Y428445D01*
X59976Y432380D02*
X62600D01*
Y428445D01*
X59976D01*
X62600Y430412D02*
X61288D01*
X58664Y428445D02*
Y432380D01*
X57352Y431069D01*
X56040Y432380D01*
Y428445D01*
X54728D02*
Y432380D01*
X52760D01*
X52104Y431724D01*
Y430412D01*
X52760Y429757D01*
X54728D01*
X50792Y428445D02*
X49481D01*
X50137D01*
Y432380D01*
X50792Y431724D01*
X47513D02*
X46857Y432380D01*
X45545D01*
X44889Y431724D01*
Y429101D01*
X45545Y428445D01*
X46857D01*
X47513Y429101D01*
Y431724D01*
X66535Y442380D02*
X63912D01*
X65223D01*
Y438445D01*
X59976Y442380D02*
X62600D01*
Y438445D01*
X59976D01*
X62600Y440413D02*
X61288D01*
X58664Y438445D02*
Y442380D01*
X57352Y441069D01*
X56040Y442380D01*
Y438445D01*
X54728D02*
Y442380D01*
X52760D01*
X52104Y441724D01*
Y440413D01*
X52760Y439757D01*
X54728D01*
X50792Y438445D02*
X49481D01*
X50137D01*
Y442380D01*
X50792Y441724D01*
X47513Y438445D02*
X46201D01*
X46857D01*
Y442380D01*
X47513Y441724D01*
X588620Y117716D02*
Y113780D01*
X586653D01*
X585996Y114436D01*
Y115092D01*
X586653Y115748D01*
X588620D01*
X586653D01*
X585996Y116404D01*
Y117060D01*
X586653Y117716D01*
X588620D01*
X582061Y117060D02*
X582717Y117716D01*
X584029D01*
X584685Y117060D01*
Y116404D01*
X584029Y115748D01*
X582717D01*
X582061Y115092D01*
Y114436D01*
X582717Y113780D01*
X584029D01*
X584685Y114436D01*
X580749Y113780D02*
Y117716D01*
X578781D01*
X578125Y117060D01*
Y115748D01*
X578781Y115092D01*
X580749D01*
X576813Y117716D02*
Y113780D01*
X574845D01*
X574189Y114436D01*
Y117060D01*
X574845Y117716D01*
X576813D01*
X556075Y365099D02*
X556731Y365755D01*
X558043D01*
X558699Y365099D01*
Y362475D01*
X558043Y361819D01*
X556731D01*
X556075Y362475D01*
X554763Y361819D02*
Y365755D01*
X552796D01*
X552140Y365099D01*
Y363787D01*
X552796Y363131D01*
X554763D01*
X553451D02*
X552140Y361819D01*
X550828D02*
Y365755D01*
X548204Y361819D01*
Y365755D01*
X546892D02*
X544268D01*
X545580D01*
Y361819D01*
X556075Y358486D02*
X556731Y359142D01*
X558043D01*
X558699Y358486D01*
Y357830D01*
X558043Y357174D01*
X556731D01*
X556075Y356518D01*
Y355862D01*
X556731Y355206D01*
X558043D01*
X558699Y355862D01*
X552140Y359142D02*
X554763D01*
Y355206D01*
X552140D01*
X554763Y357174D02*
X553451D01*
X550828Y355206D02*
Y359142D01*
X548204Y355206D01*
Y359142D01*
X544268Y358486D02*
X544924Y359142D01*
X546236D01*
X546892Y358486D01*
Y357830D01*
X546236Y357174D01*
X544924D01*
X544268Y356518D01*
Y355862D01*
X544924Y355206D01*
X546236D01*
X546892Y355862D01*
X540332Y359142D02*
X542956D01*
Y355206D01*
X540332D01*
X542956Y357174D02*
X541644D01*
X559486Y298690D02*
Y294754D01*
X557519D01*
X556863Y295410D01*
Y296066D01*
X557519Y296722D01*
X559486D01*
X557519D01*
X556863Y297378D01*
Y298033D01*
X557519Y298690D01*
X559486D01*
X552927Y298033D02*
X553583Y298690D01*
X554895D01*
X555551Y298033D01*
Y297378D01*
X554895Y296722D01*
X553583D01*
X552927Y296066D01*
Y295410D01*
X553583Y294754D01*
X554895D01*
X555551Y295410D01*
X548991Y298690D02*
X551615D01*
Y294754D01*
X548991D01*
X551615Y296722D02*
X550303D01*
X558305Y141418D02*
Y145354D01*
X556993Y144042D01*
X555682Y145354D01*
Y141418D01*
X554370Y145354D02*
X553058D01*
X553714D01*
Y141418D01*
X554370D01*
X553058D01*
X548466Y144698D02*
X549122Y145354D01*
X550434D01*
X551090Y144698D01*
Y144042D01*
X550434Y143386D01*
X549122D01*
X548466Y142730D01*
Y142074D01*
X549122Y141418D01*
X550434D01*
X551090Y142074D01*
X545186Y145354D02*
X546498D01*
X547154Y144698D01*
Y142074D01*
X546498Y141418D01*
X545186D01*
X544530Y142074D01*
Y144698D01*
X545186Y145354D01*
X589408Y135275D02*
X588096D01*
X588752D01*
Y131339D01*
X589408D01*
X588096D01*
X586128D02*
Y135275D01*
X584816Y133963D01*
X583504Y135275D01*
Y131339D01*
X582192Y135275D02*
Y131339D01*
X580224D01*
X579568Y131995D01*
Y134619D01*
X580224Y135275D01*
X582192D01*
X66535Y482380D02*
X63912D01*
X65223D01*
Y478445D01*
X59976Y482380D02*
X62600D01*
Y478445D01*
X59976D01*
X62600Y480412D02*
X61288D01*
X58664Y478445D02*
Y482380D01*
X57352Y481069D01*
X56040Y482380D01*
Y478445D01*
X54728D02*
Y482380D01*
X52760D01*
X52104Y481724D01*
Y480412D01*
X52760Y479757D01*
X54728D01*
X50792Y478445D02*
X49481D01*
X50137D01*
Y482380D01*
X50792Y481724D01*
X44889Y482380D02*
X47513D01*
Y480412D01*
X46201Y481069D01*
X45545D01*
X44889Y480412D01*
Y479101D01*
X45545Y478445D01*
X46857D01*
X47513Y479101D01*
X559055Y325257D02*
Y329193D01*
X557087D01*
X556431Y328537D01*
Y327225D01*
X557087Y326569D01*
X559055D01*
X557743D02*
X556431Y325257D01*
X555119Y329193D02*
X552496D01*
X553807D01*
Y325257D01*
X551184Y329193D02*
Y325257D01*
X549216D01*
X548560Y325913D01*
Y328537D01*
X549216Y329193D01*
X551184D01*
X37008Y147426D02*
X36352Y146770D01*
X35040D01*
X34384Y147426D01*
Y150050D01*
X35040Y150706D01*
X36352D01*
X37008Y150050D01*
Y149394D01*
X36352Y148738D01*
X34384D01*
X589014Y194960D02*
X587702D01*
X588358D01*
Y191024D01*
X589014D01*
X587702D01*
X585734D02*
Y194960D01*
X584422Y193648D01*
X583110Y194960D01*
Y191024D01*
X581799Y194960D02*
Y191024D01*
X579831D01*
X579175Y191680D01*
Y194304D01*
X579831Y194960D01*
X581799D01*
X287727Y524666D02*
X288383Y524010D01*
Y522698D01*
X287727Y522042D01*
X285103D01*
X284447Y522698D01*
Y524010D01*
X285103Y524666D01*
X286415D01*
Y523354D01*
X284447Y525978D02*
X288383D01*
X284447Y528602D01*
X288383D01*
Y529914D02*
X284447D01*
Y531882D01*
X285103Y532538D01*
X287727D01*
X288383Y531882D01*
Y529914D01*
X585959Y110009D02*
X588583D01*
Y108041D01*
X587271D01*
X588583D01*
Y106073D01*
X584647D02*
Y108697D01*
X583335Y110009D01*
X582023Y108697D01*
Y106073D01*
Y108041D01*
X584647D01*
X580711Y110009D02*
Y106729D01*
X580055Y106073D01*
X578743D01*
X578087Y106729D01*
Y110009D01*
X576776D02*
Y106073D01*
X574152D01*
X572840Y110009D02*
X570216D01*
X571528D01*
Y106073D01*
X566280Y109353D02*
X566936Y110009D01*
X568248D01*
X568904Y109353D01*
Y108697D01*
X568248Y108041D01*
X566936D01*
X566280Y107385D01*
Y106729D01*
X566936Y106073D01*
X568248D01*
X568904Y106729D01*
X533597Y169915D02*
X534253Y170571D01*
X535565D01*
X536221Y169915D01*
Y169260D01*
X535565Y168604D01*
X534253D01*
X533597Y167948D01*
Y167292D01*
X534253Y166636D01*
X535565D01*
X536221Y167292D01*
X532285Y166636D02*
Y170571D01*
X530317D01*
X529661Y169915D01*
Y168604D01*
X530317Y167948D01*
X532285D01*
X528349Y170571D02*
X527037D01*
X527693D01*
Y166636D01*
X528349D01*
X527037D01*
X521134Y169915D02*
X520477Y170571D01*
X519166D01*
X518510Y169915D01*
Y169260D01*
X519166Y168604D01*
X519822D01*
X519166D01*
X518510Y167948D01*
Y167292D01*
X519166Y166636D01*
X520477D01*
X521134Y167292D01*
X513262Y166636D02*
X511950D01*
X512606D01*
Y169260D01*
X513262D01*
X509982Y166636D02*
Y169260D01*
X508014D01*
X507358Y168604D01*
Y166636D01*
X502111Y170571D02*
Y167948D01*
X500799Y166636D01*
X499487Y167948D01*
Y170571D01*
X495551Y169915D02*
X496207Y170571D01*
X497519D01*
X498175Y169915D01*
Y167292D01*
X497519Y166636D01*
X496207D01*
X495551Y167292D01*
X494239Y170571D02*
Y167292D01*
X493583Y166636D01*
X492271D01*
X491615Y167292D01*
Y170571D01*
X486368Y166636D02*
Y169260D01*
X485712D01*
X485056Y168604D01*
Y166636D01*
Y168604D01*
X484400Y169260D01*
X483744Y168604D01*
Y166636D01*
X481776D02*
X480464D01*
X479808Y167292D01*
Y168604D01*
X480464Y169260D01*
X481776D01*
X482432Y168604D01*
Y167292D01*
X481776Y166636D01*
X475873Y170571D02*
Y166636D01*
X477840D01*
X478496Y167292D01*
Y168604D01*
X477840Y169260D01*
X475873D01*
X472593Y166636D02*
X473905D01*
X474560Y167292D01*
Y168604D01*
X473905Y169260D01*
X472593D01*
X471937Y168604D01*
Y167948D01*
X474560D01*
X466033Y169260D02*
X464721D01*
X464065Y168604D01*
Y166636D01*
X466033D01*
X466689Y167292D01*
X466033Y167948D01*
X464065D01*
X460129Y169260D02*
X462097D01*
X462753Y168604D01*
Y167292D01*
X462097Y166636D01*
X460129D01*
X458162Y169915D02*
Y169260D01*
X458818D01*
X457506D01*
X458162D01*
Y167292D01*
X457506Y166636D01*
X455538D02*
X453570D01*
X452914Y167292D01*
X453570Y167948D01*
X454882D01*
X455538Y168604D01*
X454882Y169260D01*
X452914D01*
X447010D02*
X445698D01*
X445043Y168604D01*
Y166636D01*
X447010D01*
X447666Y167292D01*
X447010Y167948D01*
X445043D01*
X443731Y166636D02*
X441763D01*
X441107Y167292D01*
X441763Y167948D01*
X443075D01*
X443731Y168604D01*
X443075Y169260D01*
X441107D01*
X536221Y163959D02*
Y160023D01*
Y161991D01*
X533597D01*
Y163959D01*
Y160023D01*
X532285Y163959D02*
Y161335D01*
X530973Y160023D01*
X529661Y161335D01*
Y163959D01*
X524413Y162647D02*
X523101Y160023D01*
X521789Y162647D01*
X519822Y160023D02*
X518510D01*
X517854Y160679D01*
Y161991D01*
X518510Y162647D01*
X519822D01*
X520477Y161991D01*
Y160679D01*
X519822Y160023D01*
X515886Y163303D02*
Y162647D01*
X516542D01*
X515230D01*
X515886D01*
Y160679D01*
X515230Y160023D01*
X513262D02*
X511950D01*
X512606D01*
Y163959D01*
X513262D01*
X509326Y162647D02*
X508014D01*
X507358Y161991D01*
Y160023D01*
X509326D01*
X509982Y160679D01*
X509326Y161335D01*
X507358D01*
X504735Y158711D02*
X504079D01*
X503423Y159367D01*
Y162647D01*
X505391D01*
X506046Y161991D01*
Y160679D01*
X505391Y160023D01*
X503423D01*
X500143D02*
X501455D01*
X502111Y160679D01*
Y161991D01*
X501455Y162647D01*
X500143D01*
X499487Y161991D01*
Y161335D01*
X502111D01*
X494239Y160023D02*
X492271D01*
X491615Y160679D01*
X492271Y161335D01*
X493583D01*
X494239Y161991D01*
X493583Y162647D01*
X491615D01*
X488336Y160023D02*
X489647D01*
X490304Y160679D01*
Y161991D01*
X489647Y162647D01*
X488336D01*
X487680Y161991D01*
Y161335D01*
X490304D01*
X486368Y160023D02*
Y162647D01*
X484400D01*
X483744Y161991D01*
Y160023D01*
X482432D02*
X480464D01*
X479808Y160679D01*
X480464Y161335D01*
X481776D01*
X482432Y161991D01*
X481776Y162647D01*
X479808D01*
X476528Y160023D02*
X477840D01*
X478496Y160679D01*
Y161991D01*
X477840Y162647D01*
X476528D01*
X475873Y161991D01*
Y161335D01*
X478496D01*
X533597Y155378D02*
X534253Y156034D01*
X535565D01*
X536221Y155378D01*
Y154722D01*
X535565Y154066D01*
X534253D01*
X533597Y153410D01*
Y152754D01*
X534253Y152098D01*
X535565D01*
X536221Y152754D01*
X532285Y152098D02*
Y156034D01*
X530317D01*
X529661Y155378D01*
Y154066D01*
X530317Y153410D01*
X532285D01*
X528349Y156034D02*
X527037D01*
X527693D01*
Y152098D01*
X528349D01*
X527037D01*
X521134Y155378D02*
X520477Y156034D01*
X519166D01*
X518510Y155378D01*
Y154722D01*
X519166Y154066D01*
X519822D01*
X519166D01*
X518510Y153410D01*
Y152754D01*
X519166Y152098D01*
X520477D01*
X521134Y152754D01*
X513262Y152098D02*
X511950D01*
X512606D01*
Y154722D01*
X513262D01*
X509982Y152098D02*
Y154722D01*
X508014D01*
X507358Y154066D01*
Y152098D01*
X502111Y156034D02*
Y152098D01*
X500143D01*
X499487Y152754D01*
Y153410D01*
X500143Y154066D01*
X502111D01*
X500143D01*
X499487Y154722D01*
Y155378D01*
X500143Y156034D01*
X502111D01*
X498175Y152098D02*
Y156034D01*
X496863Y154722D01*
X495551Y156034D01*
Y152098D01*
X491615Y155378D02*
X492271Y156034D01*
X493583D01*
X494239Y155378D01*
Y154722D01*
X493583Y154066D01*
X492271D01*
X491615Y153410D01*
Y152754D01*
X492271Y152098D01*
X493583D01*
X494239Y152754D01*
X486368Y152098D02*
Y154722D01*
X485712D01*
X485056Y154066D01*
Y152098D01*
Y154066D01*
X484400Y154722D01*
X483744Y154066D01*
Y152098D01*
X481776D02*
X480464D01*
X479808Y152754D01*
Y154066D01*
X480464Y154722D01*
X481776D01*
X482432Y154066D01*
Y152754D01*
X481776Y152098D01*
X475873Y156034D02*
Y152098D01*
X477840D01*
X478496Y152754D01*
Y154066D01*
X477840Y154722D01*
X475873D01*
X472593Y152098D02*
X473905D01*
X474560Y152754D01*
Y154066D01*
X473905Y154722D01*
X472593D01*
X471937Y154066D01*
Y153410D01*
X474560D01*
X466033Y154722D02*
X464721D01*
X464065Y154066D01*
Y152098D01*
X466033D01*
X466689Y152754D01*
X466033Y153410D01*
X464065D01*
X460129Y154722D02*
X462097D01*
X462753Y154066D01*
Y152754D01*
X462097Y152098D01*
X460129D01*
X458162Y155378D02*
Y154722D01*
X458818D01*
X457506D01*
X458162D01*
Y152754D01*
X457506Y152098D01*
X455538D02*
X453570D01*
X452914Y152754D01*
X453570Y153410D01*
X454882D01*
X455538Y154066D01*
X454882Y154722D01*
X452914D01*
X447010D02*
X445698D01*
X445043Y154066D01*
Y152098D01*
X447010D01*
X447666Y152754D01*
X447010Y153410D01*
X445043D01*
X443731Y152098D02*
X441763D01*
X441107Y152754D01*
X441763Y153410D01*
X443075D01*
X443731Y154066D01*
X443075Y154722D01*
X441107D01*
X536221Y149422D02*
X533597D01*
X534909D01*
Y145486D01*
X532285Y149422D02*
Y145486D01*
Y147454D01*
X531629Y148110D01*
X530317D01*
X529661Y147454D01*
Y145486D01*
X526381D02*
X527693D01*
X528349Y146142D01*
Y147454D01*
X527693Y148110D01*
X526381D01*
X525725Y147454D01*
Y146798D01*
X528349D01*
X524413Y148110D02*
Y145486D01*
Y146798D01*
X523757Y147454D01*
X523101Y148110D01*
X522445D01*
X520477Y145486D02*
Y148110D01*
X519822D01*
X519166Y147454D01*
Y145486D01*
Y147454D01*
X518510Y148110D01*
X517854Y147454D01*
Y145486D01*
X516542D02*
X515230D01*
X515886D01*
Y148110D01*
X516542D01*
X513262Y145486D02*
X511294D01*
X510638Y146142D01*
X511294Y146798D01*
X512606D01*
X513262Y147454D01*
X512606Y148110D01*
X510638D01*
X508670Y148766D02*
Y148110D01*
X509326D01*
X508014D01*
X508670D01*
Y146142D01*
X508014Y145486D01*
X505391D02*
X504079D01*
X503423Y146142D01*
Y147454D01*
X504079Y148110D01*
X505391D01*
X506046Y147454D01*
Y146142D01*
X505391Y145486D01*
X502111Y148110D02*
Y145486D01*
Y146798D01*
X501455Y147454D01*
X500799Y148110D01*
X500143D01*
X491615Y149422D02*
X494239D01*
Y145486D01*
X491615D01*
X494239Y147454D02*
X492927D01*
X490304Y148110D02*
X487680Y145486D01*
X488992Y146798D01*
X487680Y148110D01*
X490304Y145486D01*
X486368Y144174D02*
Y148110D01*
X484400D01*
X483744Y147454D01*
Y146142D01*
X484400Y145486D01*
X486368D01*
X589408Y205057D02*
Y201121D01*
Y203089D01*
X586784D01*
Y205057D01*
Y201121D01*
X582848Y205057D02*
X585472D01*
Y201121D01*
X582848D01*
X585472Y203089D02*
X584160D01*
X581536Y205057D02*
X578912D01*
X580224D01*
Y201121D01*
X12598Y150050D02*
X11942Y150706D01*
X10631D01*
X9975Y150050D01*
Y149394D01*
X10631Y148738D01*
X9975Y148082D01*
Y147426D01*
X10631Y146770D01*
X11942D01*
X12598Y147426D01*
Y148082D01*
X11942Y148738D01*
X12598Y149394D01*
Y150050D01*
X11942Y148738D02*
X10631D01*
X37008Y115274D02*
X35696D01*
X36352D01*
Y119210D01*
X37008Y118554D01*
X12598Y170392D02*
X11287D01*
X11942D01*
Y174328D01*
X12598Y173672D01*
X7351Y170392D02*
Y174328D01*
X9319Y172360D01*
X6695D01*
X559093Y185275D02*
X556469D01*
X557781D01*
Y181339D01*
X552533Y184619D02*
X553189Y185275D01*
X554501D01*
X555157Y184619D01*
Y183963D01*
X554501Y183307D01*
X553189D01*
X552533Y182651D01*
Y181995D01*
X553189Y181339D01*
X554501D01*
X555157Y181995D01*
X551221Y181339D02*
Y183963D01*
X549909Y185275D01*
X548597Y183963D01*
Y181339D01*
Y183307D01*
X551221D01*
X547286Y185275D02*
Y181339D01*
X544662D01*
X66535Y382380D02*
X63912D01*
X65223D01*
Y378445D01*
X59976Y382380D02*
X62600D01*
Y378445D01*
X59976D01*
X62600Y380413D02*
X61288D01*
X58664Y378445D02*
Y382380D01*
X57352Y381068D01*
X56040Y382380D01*
Y378445D01*
X54728D02*
Y382380D01*
X52760D01*
X52104Y381724D01*
Y380413D01*
X52760Y379757D01*
X54728D01*
X48169Y382380D02*
X50792D01*
Y380413D01*
X49481Y381068D01*
X48825D01*
X48169Y380413D01*
Y379101D01*
X48825Y378445D01*
X50137D01*
X50792Y379101D01*
X557912Y191182D02*
Y195117D01*
X555944D01*
X555288Y194462D01*
Y193150D01*
X555944Y192494D01*
X557912D01*
X556600D02*
X555288Y191182D01*
X553976Y195117D02*
X551352Y191182D01*
Y195117D02*
X553976Y191182D01*
X37008Y186140D02*
X35696D01*
X36352D01*
Y190076D01*
X37008Y189420D01*
X33728Y190076D02*
X31104D01*
Y189420D01*
X33728Y186796D01*
Y186140D01*
X12598Y178266D02*
X11287D01*
X11942D01*
Y182202D01*
X12598Y181546D01*
X6695Y182202D02*
X8007Y181546D01*
X9319Y180234D01*
Y178922D01*
X8663Y178266D01*
X7351D01*
X6695Y178922D01*
Y179578D01*
X7351Y180234D01*
X9319D01*
X556075Y268696D02*
X556731Y269352D01*
X558043D01*
X558699Y268696D01*
Y268040D01*
X558043Y267384D01*
X556731D01*
X556075Y266728D01*
Y266072D01*
X556731Y265416D01*
X558043D01*
X558699Y266072D01*
X552140Y268696D02*
X552796Y269352D01*
X554107D01*
X554763Y268696D01*
Y266072D01*
X554107Y265416D01*
X552796D01*
X552140Y266072D01*
X550828Y269352D02*
Y265416D01*
X548204D01*
X37008Y154644D02*
X35696D01*
X36352D01*
Y158580D01*
X37008Y157924D01*
X33728D02*
X33072Y158580D01*
X31760D01*
X31104Y157924D01*
Y155300D01*
X31760Y154644D01*
X33072D01*
X33728Y155300D01*
Y157924D01*
X555682Y164855D02*
X556337Y165511D01*
X557649D01*
X558305Y164855D01*
Y162231D01*
X557649Y161575D01*
X556337D01*
X555682Y162231D01*
X554370Y165511D02*
Y161575D01*
X551746D01*
X550434Y165511D02*
Y161575D01*
Y162887D01*
X547810Y165511D01*
X549778Y163543D01*
X547810Y161575D01*
X587715Y301497D02*
X583779D01*
Y303465D01*
X584436Y304120D01*
X585091D01*
X585747Y303465D01*
Y301497D01*
Y303465D01*
X586403Y304120D01*
X587059D01*
X587715Y303465D01*
Y301497D01*
X583779Y305432D02*
X587715D01*
Y307400D01*
X587059Y308056D01*
X585747D01*
X585091Y307400D01*
Y305432D01*
Y306744D02*
X583779Y308056D01*
Y309368D02*
X586403D01*
X587715Y310680D01*
X586403Y311992D01*
X583779D01*
X585747D01*
Y309368D01*
X587715Y313304D02*
X583779D01*
X585091D01*
X587715Y315928D01*
X585747Y313960D01*
X583779Y315928D01*
X587715Y319863D02*
Y317240D01*
X583779D01*
Y319863D01*
X585747Y317240D02*
Y318551D01*
X134794Y80587D02*
Y77307D01*
X134138Y76651D01*
X132826D01*
X132170Y77307D01*
Y80587D01*
X130858Y76651D02*
Y80587D01*
X128234Y76651D01*
Y80587D01*
X126922D02*
Y76651D01*
X124954D01*
X124298Y77307D01*
Y79931D01*
X124954Y80587D01*
X126922D01*
X120363D02*
X122986D01*
Y76651D01*
X120363D01*
X122986Y78619D02*
X121675D01*
X119051Y76651D02*
Y80587D01*
X117083D01*
X116427Y79931D01*
Y78619D01*
X117083Y77963D01*
X119051D01*
X117739D02*
X116427Y76651D01*
X111179Y80587D02*
Y77963D01*
X109867Y76651D01*
X108555Y77963D01*
Y80587D01*
X103308Y78619D02*
X100684D01*
X99372D02*
X96748D01*
X555682Y174540D02*
X556337Y175196D01*
X557649D01*
X558305Y174540D01*
Y171916D01*
X557649Y171260D01*
X556337D01*
X555682Y171916D01*
X551746Y174540D02*
X552402Y175196D01*
X553714D01*
X554370Y174540D01*
Y173884D01*
X553714Y173228D01*
X552402D01*
X551746Y172572D01*
Y171916D01*
X552402Y171260D01*
X553714D01*
X554370Y171916D01*
X9975Y142832D02*
X11287Y142176D01*
X12598Y140864D01*
Y139552D01*
X11942Y138896D01*
X10631D01*
X9975Y139552D01*
Y140208D01*
X10631Y140864D01*
X12598D01*
X557912Y151497D02*
Y155432D01*
X556600Y154121D01*
X555288Y155432D01*
Y151497D01*
X552008Y155432D02*
X553320D01*
X553976Y154777D01*
Y152153D01*
X553320Y151497D01*
X552008D01*
X551352Y152153D01*
Y154777D01*
X552008Y155432D01*
X547416Y154777D02*
X548072Y155432D01*
X549384D01*
X550040Y154777D01*
Y154121D01*
X549384Y153465D01*
X548072D01*
X547416Y152809D01*
Y152153D01*
X548072Y151497D01*
X549384D01*
X550040Y152153D01*
X546104Y155432D02*
X544793D01*
X545448D01*
Y151497D01*
X546104D01*
X544793D01*
X12598Y162518D02*
X11287D01*
X11942D01*
Y166454D01*
X12598Y165798D01*
X6695Y162518D02*
X9319D01*
X6695Y165142D01*
Y165798D01*
X7351Y166454D01*
X8663D01*
X9319Y165798D01*
X559090Y285119D02*
Y287743D01*
X557778Y289054D01*
X556466Y287743D01*
Y285119D01*
Y287087D01*
X559090D01*
X555155Y285119D02*
Y289054D01*
X553187D01*
X552531Y288399D01*
Y287087D01*
X553187Y286431D01*
X555155D01*
X551219Y285119D02*
Y289054D01*
X549251D01*
X548595Y288399D01*
Y287087D01*
X549251Y286431D01*
X551219D01*
X544659Y288399D02*
X545315Y289054D01*
X546627D01*
X547283Y288399D01*
Y287743D01*
X546627Y287087D01*
X545315D01*
X544659Y286431D01*
Y285775D01*
X545315Y285119D01*
X546627D01*
X547283Y285775D01*
X540723Y285119D02*
X543347D01*
X540723Y287743D01*
Y288399D01*
X541379Y289054D01*
X542691D01*
X543347Y288399D01*
X298462Y516794D02*
Y515483D01*
Y516139D01*
X295182D01*
X294526Y515483D01*
Y514827D01*
X295182Y514171D01*
X294526Y518106D02*
X297150D01*
X298462Y519418D01*
X297150Y520730D01*
X294526D01*
X296494D01*
Y518106D01*
X294526Y522042D02*
X298462D01*
Y524010D01*
X297806Y524666D01*
X296494D01*
X295838Y524010D01*
Y522042D01*
Y523354D02*
X294526Y524666D01*
X298462Y527946D02*
Y526634D01*
X297806Y525978D01*
X295182D01*
X294526Y526634D01*
Y527946D01*
X295182Y528602D01*
X297806D01*
X298462Y527946D01*
Y529914D02*
X294526D01*
Y531882D01*
X295182Y532538D01*
X297806D01*
X298462Y531882D01*
Y529914D01*
X12598Y186140D02*
X11287D01*
X11942D01*
Y190076D01*
X12598Y189420D01*
X9319D02*
X8663Y190076D01*
X7351D01*
X6695Y189420D01*
Y188764D01*
X7351Y188108D01*
X6695Y187452D01*
Y186796D01*
X7351Y186140D01*
X8663D01*
X9319Y186796D01*
Y187452D01*
X8663Y188108D01*
X9319Y188764D01*
Y189420D01*
X8663Y188108D02*
X7351D01*
X9975Y194014D02*
X12598D01*
X9975Y196638D01*
Y197294D01*
X10631Y197950D01*
X11942D01*
X12598Y197294D01*
X8663D02*
X8007Y197950D01*
X6695D01*
X6039Y197294D01*
Y194670D01*
X6695Y194014D01*
X8007D01*
X8663Y194670D01*
Y197294D01*
X66535Y342380D02*
X63912D01*
X65223D01*
Y338445D01*
X59976Y342380D02*
X62600D01*
Y338445D01*
X59976D01*
X62600Y340412D02*
X61288D01*
X58664Y338445D02*
Y342380D01*
X57352Y341069D01*
X56040Y342380D01*
Y338445D01*
X54728D02*
Y342380D01*
X52760D01*
X52104Y341724D01*
Y340412D01*
X52760Y339757D01*
X54728D01*
X50792Y338445D02*
X49481D01*
X50137D01*
Y342380D01*
X50792Y341724D01*
X9975Y123148D02*
X12598D01*
X9975Y125772D01*
Y126428D01*
X10631Y127084D01*
X11942D01*
X12598Y126428D01*
X587637Y273584D02*
X583701D01*
Y275552D01*
X584357Y276208D01*
X585013D01*
X585669Y275552D01*
Y273584D01*
Y275552D01*
X586325Y276208D01*
X586981D01*
X587637Y275552D01*
Y273584D01*
Y277520D02*
X584357D01*
X583701Y278176D01*
Y279488D01*
X584357Y280144D01*
X587637D01*
Y281456D02*
Y284080D01*
X586981D01*
X584357Y281456D01*
X583701D01*
Y284080D01*
X587637Y285392D02*
Y288015D01*
X586981D01*
X584357Y285392D01*
X583701D01*
Y288015D01*
X587637Y291951D02*
Y289327D01*
X583701D01*
Y291951D01*
X585669Y289327D02*
Y290639D01*
X583701Y293263D02*
X587637D01*
Y295231D01*
X586981Y295887D01*
X585669D01*
X585013Y295231D01*
Y293263D01*
Y294575D02*
X583701Y295887D01*
X37008Y194014D02*
X35696D01*
X36352D01*
Y197950D01*
X37008Y197294D01*
X33728Y194670D02*
X33072Y194014D01*
X31760D01*
X31104Y194670D01*
Y197294D01*
X31760Y197950D01*
X33072D01*
X33728Y197294D01*
Y196638D01*
X33072Y195982D01*
X31104D01*
X583239Y366101D02*
Y364789D01*
Y365445D01*
X587175D01*
Y366101D01*
Y364789D01*
Y362822D02*
X583239D01*
X587175Y360198D01*
X583239D01*
Y358886D02*
X585863D01*
X587175Y357574D01*
X585863Y356262D01*
X583239D01*
Y352326D02*
Y354950D01*
X587175D01*
Y352326D01*
X585207Y354950D02*
Y353638D01*
X587175Y351014D02*
X583239D01*
Y349046D01*
X583895Y348390D01*
X585207D01*
X585863Y349046D01*
Y351014D01*
Y349702D02*
X587175Y348390D01*
X583239Y347078D02*
Y344455D01*
Y345767D01*
X587175D01*
X583239Y340519D02*
Y343143D01*
X587175D01*
Y340519D01*
X585207Y343143D02*
Y341831D01*
X587175Y339207D02*
X583239D01*
Y337239D01*
X583895Y336583D01*
X585207D01*
X585863Y337239D01*
Y339207D01*
Y337895D02*
X587175Y336583D01*
X558305Y204960D02*
X555682D01*
X556993D01*
Y201024D01*
X554370Y204960D02*
X551746Y201024D01*
Y204960D02*
X554370Y201024D01*
X66535Y412380D02*
X63912D01*
X65223D01*
Y408445D01*
X59976Y412380D02*
X62600D01*
Y408445D01*
X59976D01*
X62600Y410413D02*
X61288D01*
X58664Y408445D02*
Y412380D01*
X57352Y411068D01*
X56040Y412380D01*
Y408445D01*
X54728D02*
Y412380D01*
X52760D01*
X52104Y411724D01*
Y410413D01*
X52760Y409757D01*
X54728D01*
X50792Y411724D02*
X50137Y412380D01*
X48825D01*
X48169Y411724D01*
Y411068D01*
X48825Y410413D01*
X48169Y409757D01*
Y409101D01*
X48825Y408445D01*
X50137D01*
X50792Y409101D01*
Y409757D01*
X50137Y410413D01*
X50792Y411068D01*
Y411724D01*
X50137Y410413D02*
X48825D01*
X12598Y154644D02*
X11287D01*
X11942D01*
Y158580D01*
X12598Y157924D01*
X9319D02*
X8663Y158580D01*
X7351D01*
X6695Y157924D01*
Y155300D01*
X7351Y154644D01*
X8663D01*
X9319Y155300D01*
Y157924D01*
X10631Y131022D02*
Y134958D01*
X12598Y132990D01*
X9975D01*
X558959Y275434D02*
Y278058D01*
X557648Y279369D01*
X556336Y278058D01*
Y275434D01*
Y277402D01*
X558959D01*
X555024Y275434D02*
Y279369D01*
X553056D01*
X552400Y278713D01*
Y277402D01*
X553056Y276746D01*
X555024D01*
X551088Y275434D02*
Y279369D01*
X549120D01*
X548464Y278713D01*
Y277402D01*
X549120Y276746D01*
X551088D01*
X544528Y278713D02*
X545184Y279369D01*
X546496D01*
X547152Y278713D01*
Y278058D01*
X546496Y277402D01*
X545184D01*
X544528Y276746D01*
Y276090D01*
X545184Y275434D01*
X546496D01*
X547152Y276090D01*
X543217Y275434D02*
X541905D01*
X542560D01*
Y279369D01*
X543217Y278713D01*
X37008Y126428D02*
X36352Y127084D01*
X35040D01*
X34384Y126428D01*
Y125772D01*
X35040Y125116D01*
X35696D01*
X35040D01*
X34384Y124460D01*
Y123804D01*
X35040Y123148D01*
X36352D01*
X37008Y123804D01*
X139369Y277910D02*
X135433D01*
X137401D01*
Y280534D01*
X139369D01*
X135433D01*
X139369Y281846D02*
X136745D01*
X135433Y283158D01*
X136745Y284470D01*
X139369D01*
X135433Y289718D02*
X138057D01*
X139369Y291030D01*
X138057Y292341D01*
X135433D01*
X137401D01*
Y289718D01*
X138713Y296277D02*
X139369Y295621D01*
Y294309D01*
X138713Y293653D01*
X136089D01*
X135433Y294309D01*
Y295621D01*
X136089Y296277D01*
X139369Y297589D02*
Y300213D01*
Y298901D01*
X135433D01*
X139369Y301525D02*
Y302837D01*
Y302181D01*
X135433D01*
Y301525D01*
Y302837D01*
X139369Y304805D02*
X136745D01*
X135433Y306117D01*
X136745Y307429D01*
X139369D01*
Y311364D02*
Y308740D01*
X135433D01*
Y311364D01*
X137401Y308740D02*
Y310052D01*
X265354Y529942D02*
X264042D01*
X264698D01*
Y533878D01*
X265354Y533222D01*
X259451Y529942D02*
X262074D01*
X259451Y532566D01*
Y533222D01*
X260107Y533878D01*
X261419D01*
X262074Y533222D01*
X258139Y533878D02*
Y531254D01*
X256827Y529942D01*
X255515Y531254D01*
Y533878D01*
X250267Y529942D02*
Y532566D01*
X248300D01*
X247643Y531910D01*
Y529942D01*
X245676D02*
X244364D01*
X243708Y530598D01*
Y531910D01*
X244364Y532566D01*
X245676D01*
X246332Y531910D01*
Y530598D01*
X245676Y529942D01*
X241740Y533222D02*
Y532566D01*
X242396D01*
X241084D01*
X241740D01*
Y530598D01*
X241084Y529942D01*
X265354Y523329D02*
Y525953D01*
X263387D01*
X262731Y525297D01*
Y523329D01*
X259451D02*
X260763D01*
X261419Y523985D01*
Y525297D01*
X260763Y525953D01*
X259451D01*
X258795Y525297D01*
Y524641D01*
X261419D01*
X255515Y523329D02*
X256827D01*
X257483Y523985D01*
Y525297D01*
X256827Y525953D01*
X255515D01*
X254859Y525297D01*
Y524641D01*
X257483D01*
X250923Y527265D02*
Y523329D01*
X252891D01*
X253547Y523985D01*
Y525297D01*
X252891Y525953D01*
X250923D01*
X247643Y523329D02*
X248955D01*
X249611Y523985D01*
Y525297D01*
X248955Y525953D01*
X247643D01*
X246988Y525297D01*
Y524641D01*
X249611D01*
X243052Y527265D02*
Y523329D01*
X245020D01*
X245676Y523985D01*
Y525297D01*
X245020Y525953D01*
X243052D01*
X237804Y523329D02*
X236492D01*
X237148D01*
Y525953D01*
X237804D01*
X233868Y523329D02*
Y526609D01*
Y525297D01*
X234524D01*
X233212D01*
X233868D01*
Y526609D01*
X233212Y527265D01*
X264698Y516717D02*
X263387D01*
X262731Y517373D01*
Y518685D01*
X263387Y519341D01*
X264698D01*
X265354Y518685D01*
Y517373D01*
X264698Y516717D01*
X261419D02*
Y519341D01*
X259451D01*
X258795Y518685D01*
Y516717D01*
X257483D02*
X256171D01*
X256827D01*
Y520652D01*
X257483D01*
X254203Y519341D02*
Y517373D01*
X253547Y516717D01*
X251579D01*
Y516061D01*
X252235Y515405D01*
X252891D01*
X251579Y516717D02*
Y519341D01*
X264698Y512072D02*
Y511416D01*
X265354D01*
X264042D01*
X264698D01*
Y509448D01*
X264042Y508792D01*
X260107D02*
X261419D01*
X262074Y509448D01*
Y510760D01*
X261419Y511416D01*
X260107D01*
X259451Y510760D01*
Y510104D01*
X262074D01*
X258139Y508792D02*
X256171D01*
X255515Y509448D01*
X256171Y510104D01*
X257483D01*
X258139Y510760D01*
X257483Y511416D01*
X255515D01*
X253547Y512072D02*
Y511416D01*
X254203D01*
X252891D01*
X253547D01*
Y509448D01*
X252891Y508792D01*
X250923D02*
X249611D01*
X250267D01*
Y511416D01*
X250923D01*
X247643Y508792D02*
Y511416D01*
X245676D01*
X245020Y510760D01*
Y508792D01*
X242396Y507480D02*
X241740D01*
X241084Y508136D01*
Y511416D01*
X243052D01*
X243708Y510760D01*
Y509448D01*
X243052Y508792D01*
X241084D01*
X235836Y512728D02*
Y510104D01*
X234524Y508792D01*
X233212Y510104D01*
Y512728D01*
X229277Y512072D02*
X229933Y512728D01*
X231245D01*
X231901Y512072D01*
Y509448D01*
X231245Y508792D01*
X229933D01*
X229277Y509448D01*
X227965Y512728D02*
Y509448D01*
X227309Y508792D01*
X225997D01*
X225341Y509448D01*
Y512728D01*
X131497Y181168D02*
X132809D01*
X133465Y180512D01*
Y177888D01*
X132809Y177232D01*
X131497D01*
X130841Y177888D01*
Y180512D01*
X131497Y181168D01*
X129529D02*
Y178544D01*
X128217Y177232D01*
X126905Y178544D01*
Y181168D01*
X122969D02*
X125593D01*
Y177232D01*
X122969D01*
X125593Y179200D02*
X124281D01*
X121657Y177232D02*
Y181168D01*
X119690D01*
X119034Y180512D01*
Y179200D01*
X119690Y178544D01*
X121657D01*
X120345D02*
X119034Y177232D01*
X113786Y181168D02*
Y178544D01*
X112474Y177232D01*
X111162Y178544D01*
Y181168D01*
X105914Y179200D02*
X103291D01*
X101979D02*
X99355D01*
X37008Y162518D02*
X35696D01*
X36352D01*
Y166454D01*
X37008Y165798D01*
X33728Y162518D02*
X32416D01*
X33072D01*
Y166454D01*
X33728Y165798D01*
X66535Y452380D02*
X63912D01*
X65223D01*
Y448445D01*
X59976Y452380D02*
X62600D01*
Y448445D01*
X59976D01*
X62600Y450413D02*
X61288D01*
X58664Y448445D02*
Y452380D01*
X57352Y451068D01*
X56040Y452380D01*
Y448445D01*
X54728D02*
Y452380D01*
X52760D01*
X52104Y451724D01*
Y450413D01*
X52760Y449757D01*
X54728D01*
X50792Y448445D02*
X49481D01*
X50137D01*
Y452380D01*
X50792Y451724D01*
X44889Y448445D02*
X47513D01*
X44889Y451068D01*
Y451724D01*
X45545Y452380D01*
X46857D01*
X47513Y451724D01*
X308540Y506299D02*
X305917D01*
X304605Y507611D01*
X305917Y508923D01*
X308540D01*
X307884Y512859D02*
X308540Y512203D01*
Y510891D01*
X307884Y510235D01*
X305261D01*
X304605Y510891D01*
Y512203D01*
X305261Y512859D01*
X308540Y514171D02*
X305261D01*
X304605Y514827D01*
Y516139D01*
X305261Y516794D01*
X308540D01*
X304605Y522042D02*
X308540D01*
Y524010D01*
X307884Y524666D01*
X306573D01*
X305917Y524010D01*
Y522042D01*
Y523354D02*
X304605Y524666D01*
X307884Y528602D02*
X308540Y527946D01*
Y526634D01*
X307884Y525978D01*
X307228D01*
X306573Y526634D01*
Y527946D01*
X305917Y528602D01*
X305261D01*
X304605Y527946D01*
Y526634D01*
X305261Y525978D01*
X308540Y529914D02*
Y532538D01*
Y531226D01*
X304605D01*
X66535Y392380D02*
X63912D01*
X65223D01*
Y388445D01*
X59976Y392380D02*
X62600D01*
Y388445D01*
X59976D01*
X62600Y390412D02*
X61288D01*
X58664Y388445D02*
Y392380D01*
X57352Y391069D01*
X56040Y392380D01*
Y388445D01*
X54728D02*
Y392380D01*
X52760D01*
X52104Y391724D01*
Y390412D01*
X52760Y389757D01*
X54728D01*
X48169Y392380D02*
X49481Y391724D01*
X50792Y390412D01*
Y389101D01*
X50137Y388445D01*
X48825D01*
X48169Y389101D01*
Y389757D01*
X48825Y390412D01*
X50792D01*
X274410Y522698D02*
Y524010D01*
Y523354D01*
X278346D01*
X277690Y522698D01*
X274410Y528602D02*
Y525978D01*
X277034Y528602D01*
X277690D01*
X278346Y527946D01*
Y526634D01*
X277690Y525978D01*
X278346Y529914D02*
X275722D01*
X274410Y531226D01*
X275722Y532538D01*
X278346D01*
X66535Y402380D02*
X63912D01*
X65223D01*
Y398445D01*
X59976Y402380D02*
X62600D01*
Y398445D01*
X59976D01*
X62600Y400413D02*
X61288D01*
X58664Y398445D02*
Y402380D01*
X57352Y401068D01*
X56040Y402380D01*
Y398445D01*
X54728D02*
Y402380D01*
X52760D01*
X52104Y401724D01*
Y400413D01*
X52760Y399757D01*
X54728D01*
X50792Y402380D02*
X48169D01*
Y401724D01*
X50792Y399101D01*
Y398445D01*
X66535Y462380D02*
X63912D01*
X65223D01*
Y458445D01*
X59976Y462380D02*
X62600D01*
Y458445D01*
X59976D01*
X62600Y460413D02*
X61288D01*
X58664Y458445D02*
Y462380D01*
X57352Y461068D01*
X56040Y462380D01*
Y458445D01*
X54728D02*
Y462380D01*
X52760D01*
X52104Y461724D01*
Y460413D01*
X52760Y459757D01*
X54728D01*
X50792Y458445D02*
X49481D01*
X50137D01*
Y462380D01*
X50792Y461724D01*
X47513D02*
X46857Y462380D01*
X45545D01*
X44889Y461724D01*
Y461068D01*
X45545Y460413D01*
X46201D01*
X45545D01*
X44889Y459757D01*
Y459101D01*
X45545Y458445D01*
X46857D01*
X47513Y459101D01*
X66535Y372380D02*
X63912D01*
X65223D01*
Y368445D01*
X59976Y372380D02*
X62600D01*
Y368445D01*
X59976D01*
X62600Y370412D02*
X61288D01*
X58664Y368445D02*
Y372380D01*
X57352Y371069D01*
X56040Y372380D01*
Y368445D01*
X54728D02*
Y372380D01*
X52760D01*
X52104Y371724D01*
Y370412D01*
X52760Y369757D01*
X54728D01*
X48825Y368445D02*
Y372380D01*
X50792Y370412D01*
X48169D01*
X66535Y492380D02*
X63912D01*
X65223D01*
Y488445D01*
X59976Y492380D02*
X62600D01*
Y488445D01*
X59976D01*
X62600Y490413D02*
X61288D01*
X58664Y488445D02*
Y492380D01*
X57352Y491069D01*
X56040Y492380D01*
Y488445D01*
X54728D02*
Y492380D01*
X52760D01*
X52104Y491724D01*
Y490413D01*
X52760Y489757D01*
X54728D01*
X50792Y488445D02*
X49481D01*
X50137D01*
Y492380D01*
X50792Y491724D01*
X44889Y492380D02*
X46201Y491724D01*
X47513Y490413D01*
Y489101D01*
X46857Y488445D01*
X45545D01*
X44889Y489101D01*
Y489757D01*
X45545Y490413D01*
X47513D01*
X37008Y142832D02*
X34384D01*
Y142176D01*
X37008Y139552D01*
Y138896D01*
X9975Y118554D02*
X10631Y119210D01*
X11942D01*
X12598Y118554D01*
Y115930D01*
X11942Y115274D01*
X10631D01*
X9975Y115930D01*
Y117242D01*
X11287D01*
X8663Y115274D02*
Y119210D01*
X6039Y115274D01*
Y119210D01*
X4727D02*
Y115274D01*
X2759D01*
X2103Y115930D01*
Y118554D01*
X2759Y119210D01*
X4727D01*
X556075Y134619D02*
X556731Y135275D01*
X558043D01*
X558699Y134619D01*
Y131995D01*
X558043Y131339D01*
X556731D01*
X556075Y131995D01*
X554763Y131339D02*
Y133963D01*
X553451Y135275D01*
X552140Y133963D01*
Y131339D01*
Y133307D01*
X554763D01*
X550828Y131339D02*
Y135275D01*
X548204Y131339D01*
Y135275D01*
X546892D02*
Y131339D01*
X544268D01*
X37008Y178266D02*
X35696D01*
X36352D01*
Y182202D01*
X37008Y181546D01*
X31104Y182202D02*
X33728D01*
Y180234D01*
X32416Y180890D01*
X31760D01*
X31104Y180234D01*
Y178922D01*
X31760Y178266D01*
X33072D01*
X33728Y178922D01*
X589801Y144960D02*
Y141024D01*
X587834D01*
X587178Y141680D01*
Y142336D01*
X587834Y142992D01*
X589801D01*
X587834D01*
X587178Y143648D01*
Y144304D01*
X587834Y144960D01*
X589801D01*
X585866Y141024D02*
Y144960D01*
X584554Y143648D01*
X583242Y144960D01*
Y141024D01*
X579306Y144304D02*
X579962Y144960D01*
X581274D01*
X581930Y144304D01*
Y143648D01*
X581274Y142992D01*
X579962D01*
X579306Y142336D01*
Y141680D01*
X579962Y141024D01*
X581274D01*
X581930Y141680D01*
X66535Y362380D02*
X63912D01*
X65223D01*
Y358445D01*
X59976Y362380D02*
X62600D01*
Y358445D01*
X59976D01*
X62600Y360413D02*
X61288D01*
X58664Y358445D02*
Y362380D01*
X57352Y361069D01*
X56040Y362380D01*
Y358445D01*
X54728D02*
Y362380D01*
X52760D01*
X52104Y361724D01*
Y360413D01*
X52760Y359757D01*
X54728D01*
X50792Y361724D02*
X50137Y362380D01*
X48825D01*
X48169Y361724D01*
Y361069D01*
X48825Y360413D01*
X49481D01*
X48825D01*
X48169Y359757D01*
Y359101D01*
X48825Y358445D01*
X50137D01*
X50792Y359101D01*
X66535Y472380D02*
X63912D01*
X65223D01*
Y468445D01*
X59976Y472380D02*
X62600D01*
Y468445D01*
X59976D01*
X62600Y470412D02*
X61288D01*
X58664Y468445D02*
Y472380D01*
X57352Y471068D01*
X56040Y472380D01*
Y468445D01*
X54728D02*
Y472380D01*
X52760D01*
X52104Y471724D01*
Y470412D01*
X52760Y469757D01*
X54728D01*
X50792Y468445D02*
X49481D01*
X50137D01*
Y472380D01*
X50792Y471724D01*
X45545Y468445D02*
Y472380D01*
X47513Y470412D01*
X44889D01*
X525591Y365755D02*
Y363131D01*
X524279Y361819D01*
X522967Y363131D01*
Y365755D01*
X519031Y365099D02*
X519687Y365755D01*
X520999D01*
X521655Y365099D01*
Y362475D01*
X520999Y361819D01*
X519687D01*
X519031Y362475D01*
X517719Y365755D02*
Y362475D01*
X517063Y361819D01*
X515751D01*
X515095Y362475D01*
Y365755D01*
X509848Y361819D02*
Y364443D01*
X509192D01*
X508536Y363787D01*
Y361819D01*
Y363787D01*
X507880Y364443D01*
X507224Y363787D01*
Y361819D01*
X505256D02*
X503944D01*
X503288Y362475D01*
Y363787D01*
X503944Y364443D01*
X505256D01*
X505912Y363787D01*
Y362475D01*
X505256Y361819D01*
X499352Y365755D02*
Y361819D01*
X501320D01*
X501976Y362475D01*
Y363787D01*
X501320Y364443D01*
X499352D01*
X496072Y361819D02*
X497384D01*
X498040Y362475D01*
Y363787D01*
X497384Y364443D01*
X496072D01*
X495417Y363787D01*
Y363131D01*
X498040D01*
X490169Y365755D02*
Y361819D01*
X488201D01*
X487545Y362475D01*
Y365099D01*
X488201Y365755D01*
X490169D01*
X486233Y361819D02*
Y364443D01*
X484921Y365755D01*
X483609Y364443D01*
Y361819D01*
Y363787D01*
X486233D01*
X479674Y365099D02*
X480330Y365755D01*
X481641D01*
X482297Y365099D01*
Y362475D01*
X481641Y361819D01*
X480330D01*
X479674Y362475D01*
X473770Y361819D02*
X472458D01*
X471802Y362475D01*
Y363787D01*
X472458Y364443D01*
X473770D01*
X474426Y363787D01*
Y362475D01*
X473770Y361819D01*
X470490Y364443D02*
Y362475D01*
X469834Y361819D01*
X467866D01*
Y364443D01*
X465899Y365099D02*
Y364443D01*
X466554D01*
X465242D01*
X465899D01*
Y362475D01*
X465242Y361819D01*
X459339D02*
X458027D01*
X458683D01*
Y364443D01*
X459339D01*
X456059Y361819D02*
X454091D01*
X453435Y362475D01*
X454091Y363131D01*
X455403D01*
X456059Y363787D01*
X455403Y364443D01*
X453435D01*
X448188Y365755D02*
Y361819D01*
X446220D01*
X445564Y362475D01*
Y363131D01*
X446220Y363787D01*
X448188D01*
X446220D01*
X445564Y364443D01*
Y365099D01*
X446220Y365755D01*
X448188D01*
X441628Y365099D02*
X442284Y365755D01*
X443596D01*
X444252Y365099D01*
Y364443D01*
X443596Y363787D01*
X442284D01*
X441628Y363131D01*
Y362475D01*
X442284Y361819D01*
X443596D01*
X444252Y362475D01*
X437692Y365755D02*
X440316D01*
Y361819D01*
X437692D01*
X440316Y363787D02*
X439004D01*
X525591Y359142D02*
Y355206D01*
X523623D01*
X522967Y355862D01*
Y356518D01*
X523623Y357174D01*
X525591D01*
X523623D01*
X522967Y357830D01*
Y358486D01*
X523623Y359142D01*
X525591D01*
X521655Y355206D02*
Y359142D01*
X520343Y357830D01*
X519031Y359142D01*
Y355206D01*
X515095Y358486D02*
X515751Y359142D01*
X517063D01*
X517719Y358486D01*
Y357830D01*
X517063Y357174D01*
X515751D01*
X515095Y356518D01*
Y355862D01*
X515751Y355206D01*
X517063D01*
X517719Y355862D01*
X509848Y355206D02*
Y357830D01*
X509192D01*
X508536Y357174D01*
Y355206D01*
Y357174D01*
X507880Y357830D01*
X507224Y357174D01*
Y355206D01*
X505256D02*
X503944D01*
X503288Y355862D01*
Y357174D01*
X503944Y357830D01*
X505256D01*
X505912Y357174D01*
Y355862D01*
X505256Y355206D01*
X499352Y359142D02*
Y355206D01*
X501320D01*
X501976Y355862D01*
Y357174D01*
X501320Y357830D01*
X499352D01*
X496072Y355206D02*
X497384D01*
X498040Y355862D01*
Y357174D01*
X497384Y357830D01*
X496072D01*
X495417Y357174D01*
Y356518D01*
X498040D01*
X490169Y359142D02*
Y355206D01*
X488201D01*
X487545Y355862D01*
Y358486D01*
X488201Y359142D01*
X490169D01*
X486233Y355206D02*
Y357830D01*
X484921Y359142D01*
X483609Y357830D01*
Y355206D01*
Y357174D01*
X486233D01*
X479674Y358486D02*
X480330Y359142D01*
X481641D01*
X482297Y358486D01*
Y355862D01*
X481641Y355206D01*
X480330D01*
X479674Y355862D01*
X473770Y355206D02*
X472458D01*
X471802Y355862D01*
Y357174D01*
X472458Y357830D01*
X473770D01*
X474426Y357174D01*
Y355862D01*
X473770Y355206D01*
X470490Y357830D02*
Y355862D01*
X469834Y355206D01*
X467866D01*
Y357830D01*
X465899Y358486D02*
Y357830D01*
X466554D01*
X465242D01*
X465899D01*
Y355862D01*
X465242Y355206D01*
X459339D02*
X458027D01*
X458683D01*
Y357830D01*
X459339D01*
X456059Y355206D02*
X454091D01*
X453435Y355862D01*
X454091Y356518D01*
X455403D01*
X456059Y357174D01*
X455403Y357830D01*
X453435D01*
X448188Y359142D02*
X446876D01*
X447532D01*
Y355206D01*
X448188D01*
X446876D01*
X442284Y358486D02*
X442940Y359142D01*
X444252D01*
X444908Y358486D01*
Y357830D01*
X444252Y357174D01*
X442940D01*
X442284Y356518D01*
Y355862D01*
X442940Y355206D01*
X444252D01*
X444908Y355862D01*
X440972Y355206D02*
Y359142D01*
X438348Y355206D01*
Y359142D01*
X434413Y358486D02*
X435069Y359142D01*
X436380D01*
X437036Y358486D01*
Y357830D01*
X436380Y357174D01*
X435069D01*
X434413Y356518D01*
Y355862D01*
X435069Y355206D01*
X436380D01*
X437036Y355862D01*
X587178Y268497D02*
X587834Y269153D01*
X589146D01*
X589801Y268497D01*
Y267841D01*
X589146Y267185D01*
X587834D01*
X587178Y266529D01*
Y265873D01*
X587834Y265217D01*
X589146D01*
X589801Y265873D01*
X585866Y269153D02*
Y265217D01*
X583898D01*
X583242Y265873D01*
Y268497D01*
X583898Y269153D01*
X585866D01*
X581930Y265217D02*
Y267841D01*
X580618Y269153D01*
X579306Y267841D01*
Y265217D01*
Y267185D01*
X581930D01*
X66535Y422380D02*
X63912D01*
X65223D01*
Y418445D01*
X59976Y422380D02*
X62600D01*
Y418445D01*
X59976D01*
X62600Y420412D02*
X61288D01*
X58664Y418445D02*
Y422380D01*
X57352Y421068D01*
X56040Y422380D01*
Y418445D01*
X54728D02*
Y422380D01*
X52760D01*
X52104Y421724D01*
Y420412D01*
X52760Y419757D01*
X54728D01*
X50792Y419101D02*
X50137Y418445D01*
X48825D01*
X48169Y419101D01*
Y421724D01*
X48825Y422380D01*
X50137D01*
X50792Y421724D01*
Y421068D01*
X50137Y420412D01*
X48169D01*
X146274Y296307D02*
X150210D01*
Y298274D01*
X149554Y298930D01*
X148242D01*
X147586Y298274D01*
Y296307D01*
Y297619D02*
X146274Y298930D01*
Y302210D02*
X150210D01*
X148242Y300242D01*
Y302866D01*
X150210Y304178D02*
Y306802D01*
X149554D01*
X146930Y304178D01*
X146274D01*
X150426Y285824D02*
X146490D01*
Y287792D01*
X147146Y288448D01*
X149770D01*
X150426Y287792D01*
Y285824D01*
Y292384D02*
X149770Y291072D01*
X148458Y289760D01*
X147146D01*
X146490Y290416D01*
Y291728D01*
X147146Y292384D01*
X147802D01*
X148458Y291728D01*
Y289760D01*
X424910Y515606D02*
Y512326D01*
X424254Y511670D01*
X422942D01*
X422286Y512326D01*
Y515606D01*
X420974Y511670D02*
X419662D01*
X420318D01*
Y515606D01*
X420974Y514950D01*
X108782Y302079D02*
Y306015D01*
X106814D01*
X106158Y305359D01*
Y304047D01*
X106814Y303391D01*
X108782D01*
X107470D02*
X106158Y302079D01*
X104846D02*
X103534D01*
X104191D01*
Y306015D01*
X104846Y305359D01*
X101567Y302735D02*
X100911Y302079D01*
X99599D01*
X98943Y302735D01*
Y305359D01*
X99599Y306015D01*
X100911D01*
X101567Y305359D01*
Y304703D01*
X100911Y304047D01*
X98943D01*
X216893Y508272D02*
X215581D01*
X216237D01*
Y512208D01*
X216893Y511552D01*
X210990Y508272D02*
X213614D01*
X210990Y510896D01*
Y511552D01*
X211646Y512208D01*
X212958D01*
X213614Y511552D01*
X209678Y512208D02*
Y509584D01*
X208366Y508272D01*
X207054Y509584D01*
Y512208D01*
X86149Y378894D02*
X84316Y380771D01*
X85233Y379832D01*
X82417Y377082D01*
X81566Y383587D02*
X83399Y381710D01*
X80584Y378960D01*
X78750Y380837D01*
X81991Y380335D02*
X81075Y381273D01*
X77834Y381775D02*
X80650Y384525D01*
X78794Y384547D01*
X78816Y386403D01*
X76000Y383653D01*
X75084Y384591D02*
X77900Y387341D01*
X76525Y388749D01*
X75597Y388760D01*
X74659Y387843D01*
X74648Y386916D01*
X76022Y385508D01*
X98865Y345783D02*
X97029Y343909D01*
X95174Y343890D01*
X95155Y345745D01*
X96991Y347619D01*
X94648Y349914D02*
X95585Y348996D01*
X95595Y348069D01*
X93759Y346194D01*
X92831Y346185D01*
X91894Y347103D01*
X91884Y348031D01*
X93721Y349905D01*
X94648Y349914D01*
X93243Y351291D02*
X90488Y348480D01*
X88614Y350317D01*
X90431Y354046D02*
X88557Y355882D01*
X89494Y354964D01*
X86740Y352153D01*
X543175Y338006D02*
X541863D01*
X542519D01*
Y334070D01*
X543175D01*
X541863D01*
X537271Y337350D02*
X537927Y338006D01*
X539239D01*
X539895Y337350D01*
Y336694D01*
X539239Y336038D01*
X537927D01*
X537271Y335382D01*
Y334726D01*
X537927Y334070D01*
X539239D01*
X539895Y334726D01*
X535959Y334070D02*
Y338006D01*
X533335Y334070D01*
Y338006D01*
X529400Y337350D02*
X530056Y338006D01*
X531367D01*
X532023Y337350D01*
Y336694D01*
X531367Y336038D01*
X530056D01*
X529400Y335382D01*
Y334726D01*
X530056Y334070D01*
X531367D01*
X532023Y334726D01*
X197314Y512602D02*
X199938D01*
Y510634D01*
X198626Y511290D01*
X197970D01*
X197314Y510634D01*
Y509322D01*
X197970Y508666D01*
X199282D01*
X199938Y509322D01*
X196002Y512602D02*
Y509978D01*
X194690Y508666D01*
X193378Y509978D01*
Y512602D01*
X41039Y301301D02*
X41695Y301957D01*
X43007D01*
X43663Y301301D01*
Y298677D01*
X43007Y298021D01*
X41695D01*
X41039Y298677D01*
X37104Y301957D02*
X39728D01*
Y298021D01*
X37104D01*
X39728Y299989D02*
X38416D01*
X35792Y301957D02*
Y298021D01*
X33168D01*
X31856Y301957D02*
Y298021D01*
X29232D01*
X25297D02*
X27920D01*
X25297Y300645D01*
Y301301D01*
X25952Y301957D01*
X27264D01*
X27920Y301301D01*
X23985D02*
X23329Y301957D01*
X22017D01*
X21361Y301301D01*
Y298677D01*
X22017Y298021D01*
X23329D01*
X23985Y298677D01*
Y301301D01*
X95621Y268463D02*
X96549D01*
X97477Y267535D01*
Y266608D01*
X95621Y264752D01*
X94694D01*
X93766Y265680D01*
Y266608D01*
X93302Y271710D02*
X95157Y269855D01*
X92374Y267072D01*
X90519Y268927D01*
X93766Y268463D02*
X92838Y269391D01*
X92374Y272638D02*
X89591Y269855D01*
X87736Y271710D01*
X89591Y275420D02*
X86809Y272638D01*
X84953Y274493D01*
X84026Y275420D02*
X83098Y276348D01*
X83562Y275884D01*
X86345Y278667D01*
Y277740D01*
X82170Y278204D02*
X81243D01*
X80315Y279131D01*
Y280059D01*
X82170Y281914D01*
X83098Y281914D01*
X84026Y280986D01*
Y280059D01*
X83562Y279595D01*
X82634Y279595D01*
X81243Y280986D01*
X96015Y254151D02*
X96943D01*
X97870Y253223D01*
Y252295D01*
X96015Y250440D01*
X95087D01*
X94160Y251368D01*
Y252295D01*
X93696Y257397D02*
X95551Y255542D01*
X92768Y252759D01*
X90913Y254614D01*
X94160Y254151D02*
X93232Y255078D01*
X92768Y258325D02*
X89985Y255542D01*
X88130Y257397D01*
X89985Y261108D02*
X87202Y258325D01*
X85347Y260180D01*
X84419Y261108D02*
X83492Y262036D01*
X83955Y261572D01*
X86738Y264355D01*
Y263427D01*
X84419Y265746D02*
Y266674D01*
X83492Y267602D01*
X82564Y267602D01*
X82100Y267138D01*
Y266210D01*
X81172Y266210D01*
X80709Y265746D01*
Y264819D01*
X81636Y263891D01*
X82564D01*
X83028Y264355D01*
Y265283D01*
X83955Y265283D01*
X84419Y265746D01*
X83028Y265283D02*
X82100Y266210D01*
X95621Y239444D02*
X96549D01*
X97477Y238517D01*
Y237589D01*
X95621Y235734D01*
X94694D01*
X93766Y236661D01*
Y237589D01*
X93302Y242691D02*
X95157Y240836D01*
X92374Y238053D01*
X90519Y239908D01*
X93766Y239444D02*
X92838Y240372D01*
X92374Y243619D02*
X89591Y240836D01*
X87736Y242691D01*
X89591Y246402D02*
X86809Y243619D01*
X84953Y245474D01*
X84026Y246402D02*
X83098Y247329D01*
X83562Y246866D01*
X86345Y249649D01*
Y248721D01*
X84489Y251504D02*
X82634Y253359D01*
X82170Y252895D01*
Y249185D01*
X81706Y248721D01*
X96015Y224738D02*
X96943D01*
X97870Y223811D01*
Y222883D01*
X96015Y221027D01*
X95087D01*
X94160Y221955D01*
Y222883D01*
X93696Y227985D02*
X95551Y226130D01*
X92768Y223347D01*
X90913Y225202D01*
X94160Y224738D02*
X93232Y225666D01*
X92768Y228913D02*
X89985Y226130D01*
X88130Y227985D01*
X89985Y231696D02*
X87202Y228913D01*
X85347Y230768D01*
X84419Y231696D02*
X83492Y232623D01*
X83955Y232159D01*
X86738Y234942D01*
Y234015D01*
X83028Y238653D02*
X83492Y237262D01*
Y235406D01*
X82564Y234479D01*
X81636D01*
X80709Y235406D01*
Y236334D01*
X81172Y236798D01*
X82100Y236798D01*
X83492Y235406D01*
X95621Y210032D02*
X96549D01*
X97477Y209104D01*
Y208177D01*
X95621Y206321D01*
X94694D01*
X93766Y207249D01*
Y208177D01*
X93302Y213279D02*
X95157Y211423D01*
X92374Y208640D01*
X90519Y210496D01*
X93766Y210032D02*
X92838Y210960D01*
X92374Y214206D02*
X89591Y211423D01*
X87736Y213279D01*
X89591Y216989D02*
X86809Y214206D01*
X84953Y216062D01*
X84026Y216989D02*
X83098Y217917D01*
X83562Y217453D01*
X86345Y220236D01*
Y219309D01*
X82634Y223947D02*
X84489Y222092D01*
X83098Y220700D01*
X82634Y222092D01*
X82170Y222555D01*
X81243D01*
X80315Y221628D01*
Y220700D01*
X81243Y219772D01*
X82170D01*
X96015Y195817D02*
X96943D01*
X97870Y194889D01*
Y193961D01*
X96015Y192106D01*
X95087D01*
X94160Y193034D01*
Y193961D01*
X93696Y199064D02*
X95551Y197208D01*
X92768Y194425D01*
X90913Y196281D01*
X94160Y195817D02*
X93232Y196744D01*
X92768Y199991D02*
X89985Y197208D01*
X88130Y199064D01*
X89985Y202774D02*
X87202Y199991D01*
X85347Y201847D01*
X84419Y202774D02*
X83492Y203702D01*
X83955Y203238D01*
X86738Y206021D01*
Y205093D01*
X80709Y206485D02*
X83492Y209268D01*
Y206485D01*
X81636Y208340D01*
X96015Y180620D02*
X96943D01*
X97870Y179692D01*
Y178764D01*
X96015Y176909D01*
X95087D01*
X94160Y177837D01*
Y178764D01*
X93696Y183866D02*
X95551Y182011D01*
X92768Y179228D01*
X90913Y181083D01*
X94160Y180620D02*
X93232Y181547D01*
X92768Y184794D02*
X89985Y182011D01*
X88130Y183866D01*
X89985Y187577D02*
X87202Y184794D01*
X85347Y186649D01*
X84419Y187577D02*
X83492Y188505D01*
X83955Y188041D01*
X86738Y190824D01*
Y189896D01*
X84419Y192215D02*
Y193143D01*
X83492Y194071D01*
X82564Y194071D01*
X82100Y193607D01*
Y192679D01*
X82564Y192215D01*
X82100Y192679D01*
X81172Y192679D01*
X80709Y192215D01*
Y191288D01*
X81636Y190360D01*
X82564D01*
X96015Y165520D02*
X96943D01*
X97870Y164592D01*
Y163664D01*
X96015Y161809D01*
X95087D01*
X94160Y162737D01*
Y163664D01*
X93696Y168766D02*
X95551Y166911D01*
X92768Y164128D01*
X90913Y165983D01*
X94160Y165520D02*
X93232Y166447D01*
X92768Y169694D02*
X89985Y166911D01*
X88130Y168766D01*
X89985Y172477D02*
X87202Y169694D01*
X85347Y171549D01*
X84419Y172477D02*
X83492Y173405D01*
X83955Y172941D01*
X86738Y175724D01*
Y174796D01*
X80245Y176652D02*
X82100Y174796D01*
Y178507D01*
X82564Y178971D01*
X83492Y178971D01*
X84419Y178043D01*
Y177115D01*
X95228Y151995D02*
X96155D01*
X97083Y151067D01*
Y150139D01*
X95228Y148284D01*
X94300D01*
X93372Y149212D01*
Y150139D01*
X92909Y155241D02*
X94764Y153386D01*
X91981Y150603D01*
X90126Y152458D01*
X93372Y151995D02*
X92445Y152922D01*
X91981Y156169D02*
X89198Y153386D01*
X87343Y155241D01*
X89198Y158952D02*
X86415Y156169D01*
X84560Y158024D01*
X83632Y158952D02*
X82704Y159880D01*
X83168Y159416D01*
X85951Y162199D01*
Y161271D01*
X81313D02*
X80385Y162199D01*
X80849Y161735D01*
X83632Y164518D01*
Y163590D01*
X95621Y136416D02*
X96549D01*
X97477Y135488D01*
Y134561D01*
X95621Y132705D01*
X94694D01*
X93766Y133633D01*
Y134561D01*
X93302Y139663D02*
X95157Y137807D01*
X92374Y135024D01*
X90519Y136880D01*
X93766Y136416D02*
X92838Y137344D01*
X92374Y140590D02*
X89591Y137807D01*
X87736Y139663D01*
X89591Y143373D02*
X86809Y140590D01*
X84953Y142446D01*
X84026Y143373D02*
X83098Y144301D01*
X83562Y143837D01*
X86345Y146620D01*
Y145693D01*
X84026Y148012D02*
Y148939D01*
X83098Y149867D01*
X82170Y149867D01*
X80315Y148012D01*
Y147084D01*
X81243Y146156D01*
X82170D01*
X84026Y148012D01*
X93259Y123763D02*
X94187D01*
X95114Y122836D01*
Y121908D01*
X93259Y120053D01*
X92331D01*
X91404Y120980D01*
Y121908D01*
X90940Y127010D02*
X92795Y125155D01*
X90012Y122372D01*
X88157Y124227D01*
X91404Y123763D02*
X90476Y124691D01*
X90012Y127938D02*
X87229Y125155D01*
X85374Y127010D01*
X87229Y130721D02*
X84446Y127938D01*
X82591Y129793D01*
X82127Y131184D02*
X81200D01*
X80272Y132112D01*
X80272Y133040D01*
X82127Y134895D01*
X83055Y134895D01*
X83982Y133967D01*
Y133040D01*
X83519Y132576D01*
X82591Y132576D01*
X81200Y133967D01*
X93653Y109385D02*
X94581D01*
X95508Y108457D01*
Y107530D01*
X93653Y105674D01*
X92725D01*
X91798Y106602D01*
Y107530D01*
X91334Y112632D02*
X93189Y110776D01*
X90406Y107993D01*
X88551Y109849D01*
X91798Y109385D02*
X90870Y110313D01*
X90406Y113559D02*
X87623Y110776D01*
X85768Y112632D01*
X87623Y116342D02*
X84840Y113559D01*
X82985Y115415D01*
X84376Y118661D02*
Y119589D01*
X83448Y120517D01*
X82521Y120517D01*
X82057Y120053D01*
Y119125D01*
X81129D01*
X80665Y118661D01*
X80665Y117734D01*
X81593Y116806D01*
X82521D01*
X82985Y117270D01*
Y118198D01*
X83912Y118198D01*
X84376Y118661D01*
X82985Y118198D02*
X82057Y119125D01*
X93259Y94744D02*
X94187D01*
X95114Y93817D01*
Y92889D01*
X93259Y91034D01*
X92331D01*
X91404Y91961D01*
Y92889D01*
X90940Y97991D02*
X92795Y96136D01*
X90012Y93353D01*
X88157Y95208D01*
X91404Y94744D02*
X90476Y95672D01*
X90012Y98919D02*
X87229Y96136D01*
X85374Y97991D01*
X87229Y101702D02*
X84446Y98919D01*
X82591Y100774D01*
X84446Y104485D02*
X82591Y106340D01*
X82127Y105876D01*
Y102166D01*
X81663Y101702D01*
X93653Y80038D02*
X94580D01*
X95508Y79111D01*
Y78183D01*
X93653Y76328D01*
X92725D01*
X91798Y77255D01*
Y78183D01*
X91334Y83285D02*
X93189Y81430D01*
X90406Y78647D01*
X88551Y80502D01*
X91798Y80038D02*
X90870Y80966D01*
X90406Y84213D02*
X87623Y81430D01*
X85768Y83285D01*
X87623Y86996D02*
X84840Y84213D01*
X82985Y86068D01*
Y91634D02*
X83448Y90242D01*
Y88387D01*
X82521Y87459D01*
X81593D01*
X80665Y88387D01*
X80665Y89315D01*
X81129Y89779D01*
X82057D01*
X83448Y88387D01*
X93653Y64860D02*
X94581D01*
X95508Y63932D01*
Y63005D01*
X93653Y61149D01*
X92725D01*
X91798Y62077D01*
Y63005D01*
X91334Y68107D02*
X93189Y66251D01*
X90406Y63468D01*
X88551Y65324D01*
X91798Y64860D02*
X90870Y65788D01*
X90406Y69034D02*
X87623Y66251D01*
X85768Y68107D01*
X87623Y71817D02*
X84840Y69034D01*
X82985Y70890D01*
Y76456D02*
X84840Y74600D01*
X83448Y73209D01*
X82985Y74600D01*
X82521Y75064D01*
X81593D01*
X80665Y74137D01*
X80665Y73209D01*
X81593Y72281D01*
X82521D01*
X93653Y50626D02*
X94580D01*
X95508Y49698D01*
Y48770D01*
X93653Y46915D01*
X92725D01*
X91798Y47843D01*
Y48770D01*
X91334Y53873D02*
X93189Y52017D01*
X90406Y49234D01*
X88551Y51090D01*
X91798Y50626D02*
X90870Y51553D01*
X90406Y54800D02*
X87623Y52017D01*
X85768Y53873D01*
X87623Y57583D02*
X84840Y54800D01*
X82985Y56656D01*
X80665Y58975D02*
X83448Y61758D01*
Y58975D01*
X81593Y60830D01*
X93653Y35920D02*
X94581D01*
X95508Y34992D01*
Y34064D01*
X93653Y32209D01*
X92725D01*
X91798Y33137D01*
Y34064D01*
X91334Y39166D02*
X93189Y37311D01*
X90406Y34528D01*
X88551Y36383D01*
X91798Y35920D02*
X90870Y36847D01*
X90406Y40094D02*
X87623Y37311D01*
X85768Y39166D01*
X87623Y42877D02*
X84840Y40094D01*
X82985Y41949D01*
X84376Y45196D02*
Y46124D01*
X83448Y47052D01*
X82521Y47052D01*
X82057Y46588D01*
Y45660D01*
X82521Y45196D01*
X82057Y45660D01*
X81129D01*
X80665Y45196D01*
X80665Y44269D01*
X81593Y43341D01*
X82521D01*
X93653Y21213D02*
X94580D01*
X95508Y20286D01*
Y19358D01*
X93653Y17503D01*
X92725D01*
X91798Y18430D01*
Y19358D01*
X91334Y24460D02*
X93189Y22605D01*
X90406Y19822D01*
X88551Y21677D01*
X91798Y21213D02*
X90870Y22141D01*
X90406Y25388D02*
X87623Y22605D01*
X85768Y24460D01*
X87623Y28171D02*
X84840Y25388D01*
X82985Y27243D01*
X80202Y30026D02*
X82057Y28171D01*
Y31881D01*
X82521Y32345D01*
X83448Y32345D01*
X84376Y31418D01*
Y30490D01*
X92472Y6901D02*
X93399D01*
X94327Y5973D01*
Y5046D01*
X92472Y3190D01*
X91544D01*
X90616Y4118D01*
Y5046D01*
X90153Y10148D02*
X92008Y8292D01*
X89225Y5509D01*
X87370Y7365D01*
X90616Y6901D02*
X89689Y7829D01*
X89225Y11075D02*
X86442Y8292D01*
X84587Y10148D01*
X86442Y13858D02*
X83659Y11075D01*
X81804Y12931D01*
X80876Y13858D02*
X79948Y14786D01*
X80412Y14322D01*
X83195Y17105D01*
Y16177D01*
X486927Y443327D02*
Y447262D01*
X484959D01*
X484303Y446606D01*
Y445295D01*
X484959Y444639D01*
X486927D01*
X485615D02*
X484303Y443327D01*
X481023D02*
Y447262D01*
X482991Y445295D01*
X480368D01*
X476432Y447262D02*
X477744Y446606D01*
X479056Y445295D01*
Y443983D01*
X478400Y443327D01*
X477088D01*
X476432Y443983D01*
Y444639D01*
X477088Y445295D01*
X479056D01*
X486927Y463406D02*
Y467341D01*
X484959D01*
X484303Y466685D01*
Y465373D01*
X484959Y464717D01*
X486927D01*
X485615D02*
X484303Y463406D01*
X481023D02*
Y467341D01*
X482991Y465373D01*
X480368D01*
X476432Y467341D02*
X479056D01*
Y465373D01*
X477744Y466029D01*
X477088D01*
X476432Y465373D01*
Y464061D01*
X477088Y463406D01*
X478400D01*
X479056Y464061D01*
X486927Y452914D02*
Y456850D01*
X484959D01*
X484303Y456194D01*
Y454882D01*
X484959Y454226D01*
X486927D01*
X485615D02*
X484303Y452914D01*
X481023D02*
Y456850D01*
X482991Y454882D01*
X480368D01*
X477088Y452914D02*
Y456850D01*
X479056Y454882D01*
X476432D01*
X200364Y535109D02*
X204300D01*
Y537077D01*
X203644Y537733D01*
X202332D01*
X201676Y537077D01*
Y535109D01*
Y536421D02*
X200364Y537733D01*
Y541013D02*
X204300D01*
X202332Y539045D01*
Y541669D01*
X203644Y542981D02*
X204300Y543637D01*
Y544948D01*
X203644Y545605D01*
X202988D01*
X202332Y544948D01*
Y544293D01*
Y544948D01*
X201676Y545605D01*
X201020D01*
X200364Y544948D01*
Y543637D01*
X201020Y542981D01*
X216112Y535062D02*
X220048D01*
Y537030D01*
X219392Y537685D01*
X218080D01*
X217424Y537030D01*
Y535062D01*
Y536374D02*
X216112Y537685D01*
Y540965D02*
X220048D01*
X218080Y538997D01*
Y541621D01*
X216112Y545557D02*
Y542933D01*
X218736Y545557D01*
X219392D01*
X220048Y544901D01*
Y543589D01*
X219392Y542933D01*
X499980Y446669D02*
Y442733D01*
X498012D01*
X497356Y443389D01*
Y446013D01*
X498012Y446669D01*
X499980D01*
X493420D02*
X496044D01*
Y444701D01*
X494732Y445357D01*
X494076D01*
X493420Y444701D01*
Y443389D01*
X494076Y442733D01*
X495388D01*
X496044Y443389D01*
X499980Y467438D02*
Y463502D01*
X498012D01*
X497356Y464158D01*
Y466782D01*
X498012Y467438D01*
X499980D01*
X494076Y463502D02*
Y467438D01*
X496044Y465470D01*
X493420D01*
X499980Y457053D02*
Y453117D01*
X498012D01*
X497356Y453773D01*
Y456397D01*
X498012Y457053D01*
X499980D01*
X496044Y456397D02*
X495388Y457053D01*
X494076D01*
X493420Y456397D01*
Y455741D01*
X494076Y455085D01*
X494732D01*
X494076D01*
X493420Y454429D01*
Y453773D01*
X494076Y453117D01*
X495388D01*
X496044Y453773D01*
X204633Y552138D02*
X200697D01*
Y554106D01*
X201353Y554762D01*
X203977D01*
X204633Y554106D01*
Y552138D01*
X200697Y558698D02*
Y556074D01*
X203321Y558698D01*
X203977D01*
X204633Y558042D01*
Y556730D01*
X203977Y556074D01*
X219988Y552808D02*
X216052D01*
Y554776D01*
X216708Y555432D01*
X219332D01*
X219988Y554776D01*
Y552808D01*
X216052Y556744D02*
Y558056D01*
Y557400D01*
X219988D01*
X219332Y556744D01*
X108749Y320041D02*
Y316761D01*
X108093Y316105D01*
X106781D01*
X106125Y316761D01*
Y320041D01*
X104813D02*
X102190D01*
Y319385D01*
X104813Y316761D01*
Y316105D01*
X98500Y464562D02*
Y461282D01*
X97843Y460626D01*
X96532D01*
X95876Y461282D01*
Y464562D01*
X91940D02*
X93252Y463906D01*
X94564Y462594D01*
Y461282D01*
X93908Y460626D01*
X92596D01*
X91940Y461282D01*
Y461938D01*
X92596Y462594D01*
X94564D01*
X492510Y84681D02*
Y81401D01*
X491854Y80746D01*
X490542D01*
X489886Y81401D01*
Y84681D01*
X485950D02*
X488574D01*
Y82713D01*
X487262Y83369D01*
X486606D01*
X485950Y82713D01*
Y81401D01*
X486606Y80746D01*
X487918D01*
X488574Y81401D01*
X129765Y378739D02*
Y375459D01*
X129109Y374803D01*
X127797D01*
X127141Y375459D01*
Y378739D01*
X123862Y374803D02*
Y378739D01*
X125830Y376771D01*
X123206D01*
X487313Y278662D02*
Y275382D01*
X486657Y274726D01*
X485345D01*
X484689Y275382D01*
Y278662D01*
X483378Y278006D02*
X482722Y278662D01*
X481410D01*
X480754Y278006D01*
Y277350D01*
X481410Y276694D01*
X482066D01*
X481410D01*
X480754Y276038D01*
Y275382D01*
X481410Y274726D01*
X482722D01*
X483378Y275382D01*
X487120Y322945D02*
Y319665D01*
X486464Y319009D01*
X485152D01*
X484496Y319665D01*
Y322945D01*
X480560Y319009D02*
X483184D01*
X480560Y321633D01*
Y322289D01*
X481216Y322945D01*
X482528D01*
X483184Y322289D01*
X55279Y11165D02*
X59215D01*
Y13133D01*
X58559Y13789D01*
X57247D01*
X56591Y13133D01*
Y11165D01*
Y12477D02*
X55279Y13789D01*
Y17069D02*
X59215D01*
X57247Y15101D01*
Y17725D01*
X55279Y19037D02*
Y20348D01*
Y19692D01*
X59215D01*
X58559Y19037D01*
X55279Y25815D02*
X59215D01*
Y27783D01*
X58559Y28439D01*
X57247D01*
X56591Y27783D01*
Y25815D01*
Y27127D02*
X55279Y28439D01*
Y31719D02*
X59215D01*
X57247Y29751D01*
Y32375D01*
X58559Y33686D02*
X59215Y34342D01*
Y35654D01*
X58559Y36310D01*
X55935D01*
X55279Y35654D01*
Y34342D01*
X55935Y33686D01*
X58559D01*
X55279Y40465D02*
X59215D01*
Y42433D01*
X58559Y43088D01*
X57247D01*
X56591Y42433D01*
Y40465D01*
Y41777D02*
X55279Y43088D01*
X58559Y44401D02*
X59215Y45056D01*
Y46368D01*
X58559Y47024D01*
X57903D01*
X57247Y46368D01*
Y45712D01*
Y46368D01*
X56591Y47024D01*
X55935D01*
X55279Y46368D01*
Y45056D01*
X55935Y44401D01*
Y48336D02*
X55279Y48992D01*
Y50304D01*
X55935Y50960D01*
X58559D01*
X59215Y50304D01*
Y48992D01*
X58559Y48336D01*
X57903D01*
X57247Y48992D01*
Y50960D01*
X55279Y55115D02*
X59215D01*
Y57082D01*
X58559Y57738D01*
X57247D01*
X56591Y57082D01*
Y55115D01*
Y56426D02*
X55279Y57738D01*
X58559Y59050D02*
X59215Y59706D01*
Y61018D01*
X58559Y61674D01*
X57903D01*
X57247Y61018D01*
Y60362D01*
Y61018D01*
X56591Y61674D01*
X55935D01*
X55279Y61018D01*
Y59706D01*
X55935Y59050D01*
X58559Y62986D02*
X59215Y63642D01*
Y64954D01*
X58559Y65610D01*
X57903D01*
X57247Y64954D01*
X56591Y65610D01*
X55935D01*
X55279Y64954D01*
Y63642D01*
X55935Y62986D01*
X56591D01*
X57247Y63642D01*
X57903Y62986D01*
X58559D01*
X57247Y63642D02*
Y64954D01*
X55279Y69764D02*
X59215D01*
Y71732D01*
X58559Y72388D01*
X57247D01*
X56591Y71732D01*
Y69764D01*
Y71076D02*
X55279Y72388D01*
X58559Y73700D02*
X59215Y74356D01*
Y75668D01*
X58559Y76324D01*
X57903D01*
X57247Y75668D01*
Y75012D01*
Y75668D01*
X56591Y76324D01*
X55935D01*
X55279Y75668D01*
Y74356D01*
X55935Y73700D01*
X59215Y77636D02*
Y80260D01*
X58559D01*
X55935Y77636D01*
X55279D01*
X55279Y84414D02*
X59215D01*
Y86382D01*
X58559Y87038D01*
X57247D01*
X56591Y86382D01*
Y84414D01*
Y85726D02*
X55279Y87038D01*
X58559Y88350D02*
X59215Y89006D01*
Y90318D01*
X58559Y90974D01*
X57903D01*
X57247Y90318D01*
Y89662D01*
Y90318D01*
X56591Y90974D01*
X55935D01*
X55279Y90318D01*
Y89006D01*
X55935Y88350D01*
X59215Y94909D02*
X58559Y93598D01*
X57247Y92286D01*
X55935D01*
X55279Y92942D01*
Y94253D01*
X55935Y94909D01*
X56591D01*
X57247Y94253D01*
Y92286D01*
X55279Y99064D02*
X59215D01*
Y101032D01*
X58559Y101688D01*
X57247D01*
X56591Y101032D01*
Y99064D01*
Y100376D02*
X55279Y101688D01*
X58559Y103000D02*
X59215Y103656D01*
Y104968D01*
X58559Y105623D01*
X57903D01*
X57247Y104968D01*
Y104312D01*
Y104968D01*
X56591Y105623D01*
X55935D01*
X55279Y104968D01*
Y103656D01*
X55935Y103000D01*
X59215Y109559D02*
Y106935D01*
X57247D01*
X57903Y108247D01*
Y108903D01*
X57247Y109559D01*
X55935D01*
X55279Y108903D01*
Y107591D01*
X55935Y106935D01*
X55279Y113714D02*
X59215D01*
Y115682D01*
X58559Y116338D01*
X57247D01*
X56591Y115682D01*
Y113714D01*
Y115026D02*
X55279Y116338D01*
X58559Y117649D02*
X59215Y118306D01*
Y119617D01*
X58559Y120273D01*
X57903D01*
X57247Y119617D01*
Y118961D01*
Y119617D01*
X56591Y120273D01*
X55935D01*
X55279Y119617D01*
Y118306D01*
X55935Y117649D01*
X55279Y123553D02*
X59215D01*
X57247Y121585D01*
Y124209D01*
X55279Y128364D02*
X59215D01*
Y130331D01*
X58559Y130987D01*
X57247D01*
X56591Y130331D01*
Y128364D01*
Y129675D02*
X55279Y130987D01*
X58559Y132299D02*
X59215Y132955D01*
Y134267D01*
X58559Y134923D01*
X57903D01*
X57247Y134267D01*
Y133611D01*
Y134267D01*
X56591Y134923D01*
X55935D01*
X55279Y134267D01*
Y132955D01*
X55935Y132299D01*
X58559Y136235D02*
X59215Y136891D01*
Y138203D01*
X58559Y138859D01*
X57903D01*
X57247Y138203D01*
Y137547D01*
Y138203D01*
X56591Y138859D01*
X55935D01*
X55279Y138203D01*
Y136891D01*
X55935Y136235D01*
X55279Y143013D02*
X59215D01*
Y144981D01*
X58559Y145637D01*
X57247D01*
X56591Y144981D01*
Y143013D01*
Y144325D02*
X55279Y145637D01*
X58559Y146949D02*
X59215Y147605D01*
Y148917D01*
X58559Y149573D01*
X57903D01*
X57247Y148917D01*
Y148261D01*
Y148917D01*
X56591Y149573D01*
X55935D01*
X55279Y148917D01*
Y147605D01*
X55935Y146949D01*
X55279Y153509D02*
Y150885D01*
X57903Y153509D01*
X58559D01*
X59215Y152853D01*
Y151541D01*
X58559Y150885D01*
X55279Y157663D02*
X59215D01*
Y159631D01*
X58559Y160287D01*
X57247D01*
X56591Y159631D01*
Y157663D01*
Y158975D02*
X55279Y160287D01*
X58559Y161599D02*
X59215Y162255D01*
Y163567D01*
X58559Y164223D01*
X57903D01*
X57247Y163567D01*
Y162911D01*
Y163567D01*
X56591Y164223D01*
X55935D01*
X55279Y163567D01*
Y162255D01*
X55935Y161599D01*
X55279Y165535D02*
Y166847D01*
Y166191D01*
X59215D01*
X58559Y165535D01*
X55279Y172313D02*
X59215D01*
Y174281D01*
X58559Y174937D01*
X57247D01*
X56591Y174281D01*
Y172313D01*
Y173625D02*
X55279Y174937D01*
X58559Y176249D02*
X59215Y176905D01*
Y178217D01*
X58559Y178873D01*
X57903D01*
X57247Y178217D01*
Y177561D01*
Y178217D01*
X56591Y178873D01*
X55935D01*
X55279Y178217D01*
Y176905D01*
X55935Y176249D01*
X58559Y180184D02*
X59215Y180840D01*
Y182152D01*
X58559Y182808D01*
X55935D01*
X55279Y182152D01*
Y180840D01*
X55935Y180184D01*
X58559D01*
X55279Y186963D02*
X59215D01*
Y188931D01*
X58559Y189587D01*
X57247D01*
X56591Y188931D01*
Y186963D01*
Y188275D02*
X55279Y189587D01*
Y193522D02*
Y190899D01*
X57903Y193522D01*
X58559D01*
X59215Y192866D01*
Y191554D01*
X58559Y190899D01*
X55935Y194834D02*
X55279Y195490D01*
Y196802D01*
X55935Y197458D01*
X58559D01*
X59215Y196802D01*
Y195490D01*
X58559Y194834D01*
X57903D01*
X57247Y195490D01*
Y197458D01*
X55279Y201613D02*
X59215D01*
Y203580D01*
X58559Y204236D01*
X57247D01*
X56591Y203580D01*
Y201613D01*
Y202924D02*
X55279Y204236D01*
Y208172D02*
Y205548D01*
X57903Y208172D01*
X58559D01*
X59215Y207516D01*
Y206204D01*
X58559Y205548D01*
Y209484D02*
X59215Y210140D01*
Y211452D01*
X58559Y212108D01*
X57903D01*
X57247Y211452D01*
X56591Y212108D01*
X55935D01*
X55279Y211452D01*
Y210140D01*
X55935Y209484D01*
X56591D01*
X57247Y210140D01*
X57903Y209484D01*
X58559D01*
X57247Y210140D02*
Y211452D01*
X55279Y216262D02*
X59215D01*
Y218230D01*
X58559Y218886D01*
X57247D01*
X56591Y218230D01*
Y216262D01*
Y217574D02*
X55279Y218886D01*
Y222822D02*
Y220198D01*
X57903Y222822D01*
X58559D01*
X59215Y222166D01*
Y220854D01*
X58559Y220198D01*
X59215Y224134D02*
Y226758D01*
X58559D01*
X55935Y224134D01*
X55279D01*
Y230912D02*
X59215D01*
Y232880D01*
X58559Y233536D01*
X57247D01*
X56591Y232880D01*
Y230912D01*
Y232224D02*
X55279Y233536D01*
Y237472D02*
Y234848D01*
X57903Y237472D01*
X58559D01*
X59215Y236816D01*
Y235504D01*
X58559Y234848D01*
X59215Y241407D02*
X58559Y240096D01*
X57247Y238784D01*
X55935D01*
X55279Y239440D01*
Y240752D01*
X55935Y241407D01*
X56591D01*
X57247Y240752D01*
Y238784D01*
X55279Y245562D02*
X59215D01*
Y247530D01*
X58559Y248186D01*
X57247D01*
X56591Y247530D01*
Y245562D01*
Y246874D02*
X55279Y248186D01*
Y252122D02*
Y249498D01*
X57903Y252122D01*
X58559D01*
X59215Y251466D01*
Y250154D01*
X58559Y249498D01*
X59215Y256057D02*
Y253433D01*
X57247D01*
X57903Y254745D01*
Y255401D01*
X57247Y256057D01*
X55935D01*
X55279Y255401D01*
Y254089D01*
X55935Y253433D01*
X55279Y260212D02*
X59215D01*
Y262180D01*
X58559Y262836D01*
X57247D01*
X56591Y262180D01*
Y260212D01*
Y261524D02*
X55279Y262836D01*
Y266771D02*
Y264148D01*
X57903Y266771D01*
X58559D01*
X59215Y266115D01*
Y264804D01*
X58559Y264148D01*
X55279Y270051D02*
X59215D01*
X57247Y268083D01*
Y270707D01*
X55279Y274862D02*
X59215D01*
Y276830D01*
X58559Y277485D01*
X57247D01*
X56591Y276830D01*
Y274862D01*
Y276174D02*
X55279Y277485D01*
Y281421D02*
Y278797D01*
X57903Y281421D01*
X58559D01*
X59215Y280765D01*
Y279453D01*
X58559Y278797D01*
Y282733D02*
X59215Y283389D01*
Y284701D01*
X58559Y285357D01*
X57903D01*
X57247Y284701D01*
Y284045D01*
Y284701D01*
X56591Y285357D01*
X55935D01*
X55279Y284701D01*
Y283389D01*
X55935Y282733D01*
X55279Y291206D02*
X59215D01*
Y293174D01*
X58559Y293830D01*
X57247D01*
X56591Y293174D01*
Y291206D01*
Y292518D02*
X55279Y293830D01*
Y297766D02*
Y295142D01*
X57903Y297766D01*
X58559D01*
X59215Y297110D01*
Y295798D01*
X58559Y295142D01*
X55279Y301701D02*
Y299078D01*
X57903Y301701D01*
X58559D01*
X59215Y301046D01*
Y299734D01*
X58559Y299078D01*
X124587Y321616D02*
Y325552D01*
X122619D01*
X121963Y324896D01*
Y323584D01*
X122619Y322928D01*
X124587D01*
X123275D02*
X121963Y321616D01*
X118027D02*
X120651D01*
X118027Y324240D01*
Y324896D01*
X118683Y325552D01*
X119995D01*
X120651Y324896D01*
X116716Y321616D02*
X115404D01*
X116060D01*
Y325552D01*
X116716Y324896D01*
X103989Y287887D02*
X107925D01*
Y289855D01*
X107269Y290511D01*
X105957D01*
X105301Y289855D01*
Y287887D01*
Y289199D02*
X103989Y290511D01*
Y294447D02*
Y291823D01*
X106613Y294447D01*
X107269D01*
X107925Y293791D01*
Y292479D01*
X107269Y291823D01*
Y295759D02*
X107925Y296415D01*
Y297726D01*
X107269Y298382D01*
X104645D01*
X103989Y297726D01*
Y296415D01*
X104645Y295759D01*
X107269D01*
X105676Y331651D02*
Y335587D01*
X103708D01*
X103052Y334931D01*
Y333619D01*
X103708Y332963D01*
X105676D01*
X104364D02*
X103052Y331651D01*
X101740D02*
X100428D01*
X101084D01*
Y335587D01*
X101740Y334931D01*
X98461D02*
X97804Y335587D01*
X96493D01*
X95837Y334931D01*
Y334275D01*
X96493Y333619D01*
X95837Y332963D01*
Y332307D01*
X96493Y331651D01*
X97804D01*
X98461Y332307D01*
Y332963D01*
X97804Y333619D01*
X98461Y334275D01*
Y334931D01*
X97804Y333619D02*
X96493D01*
X515949Y102919D02*
Y106855D01*
X513981D01*
X513326Y106199D01*
Y104887D01*
X513981Y104231D01*
X515949D01*
X514638D02*
X513326Y102919D01*
X512014D02*
X510702D01*
X511358D01*
Y106855D01*
X512014Y106199D01*
X508734Y106855D02*
X506110D01*
Y106199D01*
X508734Y103575D01*
Y102919D01*
X101536Y387030D02*
X105472D01*
Y388998D01*
X104816Y389654D01*
X103504D01*
X102848Y388998D01*
Y387030D01*
Y388342D02*
X101536Y389654D01*
Y390966D02*
Y392277D01*
Y391621D01*
X105472D01*
X104816Y390966D01*
X105472Y396869D02*
X104816Y395557D01*
X103504Y394245D01*
X102192D01*
X101536Y394901D01*
Y396213D01*
X102192Y396869D01*
X102848D01*
X103504Y396213D01*
Y394245D01*
X102150Y341497D02*
X106086D01*
Y343464D01*
X105430Y344120D01*
X104118D01*
X103462Y343464D01*
Y341497D01*
Y342809D02*
X102150Y344120D01*
Y345432D02*
Y346744D01*
Y346088D01*
X106086D01*
X105430Y345432D01*
X106086Y351336D02*
Y348712D01*
X104118D01*
X104774Y350024D01*
Y350680D01*
X104118Y351336D01*
X102806D01*
X102150Y350680D01*
Y349368D01*
X102806Y348712D01*
X516888Y251138D02*
X520824D01*
Y253106D01*
X520168Y253762D01*
X518856D01*
X518200Y253106D01*
Y251138D01*
Y252450D02*
X516888Y253762D01*
Y255074D02*
Y256386D01*
Y255730D01*
X520824D01*
X520168Y255074D01*
X516888Y260322D02*
X520824D01*
X518856Y258354D01*
Y260978D01*
X516888Y265411D02*
X520824D01*
Y267379D01*
X520168Y268035D01*
X518856D01*
X518200Y267379D01*
Y265411D01*
Y266723D02*
X516888Y268035D01*
Y269347D02*
Y270659D01*
Y270003D01*
X520824D01*
X520168Y269347D01*
Y272627D02*
X520824Y273283D01*
Y274595D01*
X520168Y275251D01*
X519512D01*
X518856Y274595D01*
Y273939D01*
Y274595D01*
X518200Y275251D01*
X517544D01*
X516888Y274595D01*
Y273283D01*
X517544Y272627D01*
X517676Y296229D02*
X521611D01*
Y298196D01*
X520956Y298852D01*
X519644D01*
X518988Y298196D01*
Y296229D01*
Y297540D02*
X517676Y298852D01*
Y300164D02*
Y301476D01*
Y300820D01*
X521611D01*
X520956Y300164D01*
X517676Y306068D02*
Y303444D01*
X520300Y306068D01*
X520956D01*
X521611Y305412D01*
Y304100D01*
X520956Y303444D01*
X517676Y310003D02*
X521611D01*
Y311971D01*
X520956Y312627D01*
X519644D01*
X518988Y311971D01*
Y310003D01*
Y311315D02*
X517676Y312627D01*
Y313939D02*
Y315251D01*
Y314595D01*
X521611D01*
X520956Y313939D01*
X517676Y317219D02*
Y318531D01*
Y317875D01*
X521611D01*
X520956Y317219D01*
X456347Y299758D02*
X460283D01*
Y301726D01*
X459627Y302382D01*
X458315D01*
X457659Y301726D01*
Y299758D01*
Y301070D02*
X456347Y302382D01*
Y303694D02*
Y305006D01*
Y304350D01*
X460283D01*
X459627Y303694D01*
Y306974D02*
X460283Y307630D01*
Y308942D01*
X459627Y309598D01*
X457003D01*
X456347Y308942D01*
Y307630D01*
X457003Y306974D01*
X459627D01*
X157105Y368026D02*
X161040D01*
Y369994D01*
X160384Y370650D01*
X159072D01*
X158416Y369994D01*
Y368026D01*
Y369338D02*
X157105Y370650D01*
X157761Y371961D02*
X157105Y372618D01*
Y373929D01*
X157761Y374585D01*
X160384D01*
X161040Y373929D01*
Y372618D01*
X160384Y371961D01*
X159728D01*
X159072Y372618D01*
Y374585D01*
X456060Y258126D02*
X459995D01*
Y260094D01*
X459339Y260750D01*
X458028D01*
X457372Y260094D01*
Y258126D01*
Y259438D02*
X456060Y260750D01*
X459339Y262062D02*
X459995Y262718D01*
Y264030D01*
X459339Y264686D01*
X458683D01*
X458028Y264030D01*
X457372Y264686D01*
X456716D01*
X456060Y264030D01*
Y262718D01*
X456716Y262062D01*
X457372D01*
X458028Y262718D01*
X458683Y262062D01*
X459339D01*
X458028Y262718D02*
Y264030D01*
X478264Y289232D02*
Y293168D01*
X476297D01*
X475641Y292512D01*
Y291200D01*
X476297Y290544D01*
X478264D01*
X476953D02*
X475641Y289232D01*
X474329Y293168D02*
X471705D01*
Y292512D01*
X474329Y289888D01*
Y289232D01*
X144046Y382546D02*
Y386482D01*
X142078D01*
X141422Y385826D01*
Y384514D01*
X142078Y383858D01*
X144046D01*
X142734D02*
X141422Y382546D01*
X137487Y386482D02*
X138798Y385826D01*
X140110Y384514D01*
Y383202D01*
X139454Y382546D01*
X138142D01*
X137487Y383202D01*
Y383858D01*
X138142Y384514D01*
X140110D01*
X478285Y245109D02*
Y249045D01*
X476318D01*
X475662Y248389D01*
Y247077D01*
X476318Y246421D01*
X478285D01*
X476973D02*
X475662Y245109D01*
X471726Y249045D02*
X474350D01*
Y247077D01*
X473038Y247733D01*
X472382D01*
X471726Y247077D01*
Y245765D01*
X472382Y245109D01*
X473694D01*
X474350Y245765D01*
X463427Y221885D02*
Y225821D01*
X461459D01*
X460803Y225165D01*
Y223853D01*
X461459Y223197D01*
X463427D01*
X462115D02*
X460803Y221885D01*
X457523D02*
Y225821D01*
X459491Y223853D01*
X456868D01*
X463451Y331972D02*
Y335908D01*
X461484D01*
X460828Y335252D01*
Y333940D01*
X461484Y333284D01*
X463451D01*
X462140D02*
X460828Y331972D01*
X459516Y335252D02*
X458860Y335908D01*
X457548D01*
X456892Y335252D01*
Y334596D01*
X457548Y333940D01*
X458204D01*
X457548D01*
X456892Y333284D01*
Y332628D01*
X457548Y331972D01*
X458860D01*
X459516Y332628D01*
X443097Y229329D02*
X447032D01*
Y231297D01*
X446376Y231953D01*
X445064D01*
X444409Y231297D01*
Y229329D01*
Y230641D02*
X443097Y231953D01*
Y235889D02*
Y233265D01*
X445720Y235889D01*
X446376D01*
X447032Y235233D01*
Y233921D01*
X446376Y233265D01*
X442996Y339713D02*
X446932D01*
Y341681D01*
X446276Y342337D01*
X444964D01*
X444308Y341681D01*
Y339713D01*
Y341025D02*
X442996Y342337D01*
Y343649D02*
Y344961D01*
Y344305D01*
X446932D01*
X446276Y343649D01*
X80559Y353152D02*
Y349216D01*
X77936D01*
X76624D02*
X75312D01*
X75968D01*
Y353152D01*
X76624Y352496D01*
X38972Y505713D02*
X40284D01*
X39628D01*
Y502433D01*
X40284Y501777D01*
X40940D01*
X41596Y502433D01*
X35036Y505713D02*
X37660D01*
Y503745D01*
X36348Y504401D01*
X35692D01*
X35036Y503745D01*
Y502433D01*
X35692Y501777D01*
X37004D01*
X37660Y502433D01*
X22436Y210594D02*
X23748D01*
X23092D01*
Y207314D01*
X23748Y206658D01*
X24404D01*
X25060Y207314D01*
X19157Y206658D02*
Y210594D01*
X21125Y208626D01*
X18501D01*
X344644Y585189D02*
X345955D01*
X345300D01*
Y581909D01*
X345955Y581253D01*
X346611D01*
X347268Y581909D01*
X343332Y584533D02*
X342676Y585189D01*
X341364D01*
X340708Y584533D01*
Y583877D01*
X341364Y583221D01*
X342020D01*
X341364D01*
X340708Y582565D01*
Y581909D01*
X341364Y581253D01*
X342676D01*
X343332Y581909D01*
X570336Y371787D02*
X571648D01*
X570992D01*
Y368508D01*
X571648Y367851D01*
X572304D01*
X572960Y368508D01*
X566400Y367851D02*
X569024D01*
X566400Y370475D01*
Y371131D01*
X567056Y371787D01*
X568368D01*
X569024Y371131D01*
X569170Y227707D02*
X570482D01*
X569826D01*
Y224427D01*
X570482Y223771D01*
X571138D01*
X571794Y224427D01*
X567858Y223771D02*
X566546D01*
X567202D01*
Y227707D01*
X567858Y227051D01*
X86082Y286992D02*
X86738Y286336D01*
Y285024D01*
X86082Y284368D01*
X83458D01*
X82802Y285024D01*
Y286336D01*
X83458Y286992D01*
X82802Y288304D02*
Y289616D01*
Y288960D01*
X86738D01*
X86082Y288304D01*
X86738Y294208D02*
Y291584D01*
X84770D01*
X85426Y292896D01*
Y293552D01*
X84770Y294208D01*
X83458D01*
X82802Y293552D01*
Y292240D01*
X83458Y291584D01*
X67782Y307075D02*
X68438Y306419D01*
Y305107D01*
X67782Y304451D01*
X65158D01*
X64502Y305107D01*
Y306419D01*
X65158Y307075D01*
X64502Y308387D02*
Y309699D01*
Y309043D01*
X68438D01*
X67782Y308387D01*
X64502Y313634D02*
X68438D01*
X66470Y311667D01*
Y314290D01*
X75032Y292844D02*
X75688Y292188D01*
Y290876D01*
X75032Y290220D01*
X72409D01*
X71753Y290876D01*
Y292188D01*
X72409Y292844D01*
X71753Y294156D02*
Y295468D01*
Y294812D01*
X75688D01*
X75032Y294156D01*
Y297436D02*
X75688Y298092D01*
Y299404D01*
X75032Y300059D01*
X74376D01*
X73721Y299404D01*
Y298747D01*
Y299404D01*
X73065Y300059D01*
X72409D01*
X71753Y299404D01*
Y298092D01*
X72409Y297436D01*
X65987Y324022D02*
X66643Y323366D01*
Y322054D01*
X65987Y321398D01*
X63363D01*
X62707Y322054D01*
Y323366D01*
X63363Y324022D01*
X62707Y325334D02*
Y326646D01*
Y325990D01*
X66643D01*
X65987Y325334D01*
X62707Y328614D02*
Y329926D01*
Y329270D01*
X66643D01*
X65987Y328614D01*
X124039Y313550D02*
X124695Y314206D01*
X126007D01*
X126663Y313550D01*
Y310926D01*
X126007Y310270D01*
X124695D01*
X124039Y310926D01*
X122727Y310270D02*
X121415D01*
X122071D01*
Y314206D01*
X122727Y313550D01*
X119447D02*
X118791Y314206D01*
X117479D01*
X116823Y313550D01*
Y310926D01*
X117479Y310270D01*
X118791D01*
X119447Y310926D01*
Y313550D01*
X113871Y389871D02*
X114527Y389215D01*
Y387903D01*
X113871Y387247D01*
X111247D01*
X110591Y387903D01*
Y389215D01*
X111247Y389871D01*
Y391183D02*
X110591Y391839D01*
Y393151D01*
X111247Y393807D01*
X113871D01*
X114527Y393151D01*
Y391839D01*
X113871Y391183D01*
X113215D01*
X112559Y391839D01*
Y393807D01*
X114098Y347506D02*
X114754Y346850D01*
Y345538D01*
X114098Y344882D01*
X111474D01*
X110818Y345538D01*
Y346850D01*
X111474Y347506D01*
X114098Y348818D02*
X114754Y349474D01*
Y350786D01*
X114098Y351442D01*
X113442D01*
X112786Y350786D01*
X112130Y351442D01*
X111474D01*
X110818Y350786D01*
Y349474D01*
X111474Y348818D01*
X112130D01*
X112786Y349474D01*
X113442Y348818D01*
X114098D01*
X112786Y349474D02*
Y350786D01*
X526074Y255581D02*
X526730Y254925D01*
Y253614D01*
X526074Y252958D01*
X523450D01*
X522794Y253614D01*
Y254925D01*
X523450Y255581D01*
X526730Y256893D02*
Y259517D01*
X526074D01*
X523450Y256893D01*
X522794D01*
X526074Y269361D02*
X526730Y268705D01*
Y267393D01*
X526074Y266737D01*
X523450D01*
X522794Y267393D01*
Y268705D01*
X523450Y269361D01*
X526730Y273297D02*
X526074Y271985D01*
X524762Y270673D01*
X523450D01*
X522794Y271329D01*
Y272641D01*
X523450Y273297D01*
X524106D01*
X524762Y272641D01*
Y270673D01*
X526861Y300170D02*
X527517Y299514D01*
Y298202D01*
X526861Y297546D01*
X524237D01*
X523581Y298202D01*
Y299514D01*
X524237Y300170D01*
X527517Y304105D02*
Y301482D01*
X525549D01*
X526205Y302794D01*
Y303449D01*
X525549Y304105D01*
X524237D01*
X523581Y303449D01*
Y302137D01*
X524237Y301482D01*
X526861Y313751D02*
X527517Y313095D01*
Y311783D01*
X526861Y311127D01*
X524237D01*
X523581Y311783D01*
Y313095D01*
X524237Y313751D01*
X523581Y317031D02*
X527517D01*
X525549Y315063D01*
Y317687D01*
X134663Y348409D02*
X135319Y349065D01*
X136631D01*
X137287Y348409D01*
Y345785D01*
X136631Y345129D01*
X135319D01*
X134663Y345785D01*
X133351Y348409D02*
X132695Y349065D01*
X131383D01*
X130727Y348409D01*
Y347753D01*
X131383Y347097D01*
X132039D01*
X131383D01*
X130727Y346441D01*
Y345785D01*
X131383Y345129D01*
X132695D01*
X133351Y345785D01*
X496916Y290208D02*
X497572Y290864D01*
X498884D01*
X499540Y290208D01*
Y287584D01*
X498884Y286929D01*
X497572D01*
X496916Y287584D01*
X492981Y286929D02*
X495605D01*
X492981Y289552D01*
Y290208D01*
X493637Y290864D01*
X494949D01*
X495605Y290208D01*
X495636Y335372D02*
X496292Y336028D01*
X497604D01*
X498260Y335372D01*
Y332748D01*
X497604Y332092D01*
X496292D01*
X495636Y332748D01*
X494324Y332092D02*
X493012D01*
X493668D01*
Y336028D01*
X494324Y335372D01*
D12*
X343896Y481328D02*
Y475031D01*
X339698D01*
X337598D02*
Y479229D01*
X335500Y481328D01*
X333400Y479229D01*
Y475031D01*
Y478180D01*
X337598D01*
X331301Y481328D02*
Y476081D01*
X330252Y475031D01*
X328153D01*
X327103Y476081D01*
Y481328D01*
X325004Y475031D02*
Y481328D01*
X320806Y475031D01*
Y481328D01*
X314509Y480279D02*
X315558Y481328D01*
X317657D01*
X318707Y480279D01*
Y476081D01*
X317657Y475031D01*
X315558D01*
X314509Y476081D01*
X312410Y481328D02*
Y475031D01*
Y478180D01*
X308212D01*
Y481328D01*
Y475031D01*
X306113D02*
Y481328D01*
X302964D01*
X301915Y480279D01*
Y478180D01*
X302964Y477130D01*
X306113D01*
X299816Y475031D02*
Y479229D01*
X297716Y481328D01*
X295617Y479229D01*
Y475031D01*
Y478180D01*
X299816D01*
X293518Y481328D02*
Y475031D01*
X290370D01*
X289320Y476081D01*
Y480279D01*
X290370Y481328D01*
X293518D01*
X343896Y470937D02*
Y465690D01*
X342846Y464640D01*
X340747D01*
X339698Y465690D01*
Y470937D01*
X333400Y469888D02*
X334450Y470937D01*
X336549D01*
X337598Y469888D01*
Y468838D01*
X336549Y467789D01*
X334450D01*
X333400Y466739D01*
Y465690D01*
X334450Y464640D01*
X336549D01*
X337598Y465690D01*
X331301Y470937D02*
Y464640D01*
X328153D01*
X327103Y465690D01*
Y466739D01*
X328153Y467789D01*
X331301D01*
X328153D01*
X327103Y468838D01*
Y469888D01*
X328153Y470937D01*
X331301D01*
X318707D02*
X314509D01*
X316608D01*
Y464640D01*
X312410Y470937D02*
Y464640D01*
Y467789D01*
X308212D01*
Y470937D01*
Y464640D01*
X306113Y470937D02*
X304014D01*
X305063D01*
Y464640D01*
X306113D01*
X304014D01*
X296667Y469888D02*
X297716Y470937D01*
X299816D01*
X300865Y469888D01*
Y468838D01*
X299816Y467789D01*
X297716D01*
X296667Y466739D01*
Y465690D01*
X297716Y464640D01*
X299816D01*
X300865Y465690D01*
X343896Y460546D02*
Y454249D01*
X341797Y456348D01*
X339698Y454249D01*
Y460546D01*
X337598Y454249D02*
Y458447D01*
X335500Y460546D01*
X333400Y458447D01*
Y454249D01*
Y457397D01*
X337598D01*
X331301Y460546D02*
Y459496D01*
X329202Y457397D01*
X327103Y459496D01*
Y460546D01*
X329202Y457397D02*
Y454249D01*
X563581Y462951D02*
Y456654D01*
X560432D01*
X559383Y457703D01*
Y458753D01*
X560432Y459802D01*
X563581D01*
X560432D01*
X559383Y460852D01*
Y461902D01*
X560432Y462951D01*
X563581D01*
X557284Y456654D02*
Y462951D01*
X555185Y460852D01*
X553086Y462951D01*
Y456654D01*
X546788Y461902D02*
X547838Y462951D01*
X549937D01*
X550986Y461902D01*
Y460852D01*
X549937Y459802D01*
X547838D01*
X546788Y458753D01*
Y457703D01*
X547838Y456654D01*
X549937D01*
X550986Y457703D01*
X538392Y456654D02*
Y462951D01*
X536293Y460852D01*
X534194Y462951D01*
Y456654D01*
X528946Y462951D02*
X531045D01*
X532095Y461902D01*
Y457703D01*
X531045Y456654D01*
X528946D01*
X527897Y457703D01*
Y461902D01*
X528946Y462951D01*
X525798D02*
Y456654D01*
X522649D01*
X521600Y457703D01*
Y461902D01*
X522649Y462951D01*
X525798D01*
X515302D02*
X519501D01*
Y456654D01*
X515302D01*
X519501Y459802D02*
X517402D01*
X48425Y280074D02*
Y273777D01*
X45277D01*
X44227Y274827D01*
Y275876D01*
X45277Y276926D01*
X48425D01*
X45277D01*
X44227Y277975D01*
Y279025D01*
X45277Y280074D01*
X48425D01*
X42128Y273777D02*
Y280074D01*
X40029Y277975D01*
X37930Y280074D01*
Y273777D01*
X31633Y279025D02*
X32682Y280074D01*
X34781D01*
X35831Y279025D01*
Y277975D01*
X34781Y276926D01*
X32682D01*
X31633Y275876D01*
Y274827D01*
X32682Y273777D01*
X34781D01*
X35831Y274827D01*
X48425Y269683D02*
Y265485D01*
X46326Y263386D01*
X44227Y265485D01*
Y269683D01*
X38979D02*
X41078D01*
X42128Y268634D01*
Y264435D01*
X41078Y263386D01*
X38979D01*
X37930Y264435D01*
Y268634D01*
X38979Y269683D01*
X35831D02*
Y263386D01*
X31633D01*
X29534Y269683D02*
X25336D01*
X27435D01*
Y263386D01*
X23236D02*
Y267584D01*
X21137Y269683D01*
X19038Y267584D01*
Y263386D01*
Y266534D01*
X23236D01*
X12741Y268634D02*
X13791Y269683D01*
X15890D01*
X16939Y268634D01*
Y264435D01*
X15890Y263386D01*
X13791D01*
X12741Y264435D01*
Y266534D01*
X14840D01*
X6444Y269683D02*
X10642D01*
Y263386D01*
X6444D01*
X10642Y266534D02*
X8543D01*
X147361Y54693D02*
Y47806D01*
X143917D01*
X142770Y48954D01*
Y53545D01*
X143917Y54693D01*
X147361D01*
X137030D02*
X139326D01*
X140474Y53545D01*
Y48954D01*
X139326Y47806D01*
X137030D01*
X135882Y48954D01*
Y53545D01*
X137030Y54693D01*
X147361Y36706D02*
Y43594D01*
X142770Y36706D01*
Y43594D01*
X137030D02*
X139326D01*
X140474Y42446D01*
Y37854D01*
X139326Y36706D01*
X137030D01*
X135882Y37854D01*
Y42446D01*
X137030Y43594D01*
X133586D02*
X128995D01*
X131290D01*
Y36706D01*
X147361Y32494D02*
X142770D01*
X145065D01*
Y25606D01*
X137030Y32494D02*
X139326D01*
X140474Y31346D01*
Y26754D01*
X139326Y25606D01*
X137030D01*
X135882Y26754D01*
Y31346D01*
X137030Y32494D01*
X133586D02*
Y26754D01*
X132438Y25606D01*
X130142D01*
X128995Y26754D01*
Y32494D01*
X122107Y31346D02*
X123255Y32494D01*
X125551D01*
X126699Y31346D01*
Y26754D01*
X125551Y25606D01*
X123255D01*
X122107Y26754D01*
X119811Y32494D02*
Y25606D01*
Y29050D01*
X115219D01*
Y32494D01*
Y25606D01*
X563581Y452814D02*
Y448616D01*
X561482Y446517D01*
X559383Y448616D01*
Y452814D01*
X553086Y451765D02*
X554135Y452814D01*
X556234D01*
X557284Y451765D01*
Y447567D01*
X556234Y446517D01*
X554135D01*
X553086Y447567D01*
X550986Y452814D02*
Y447567D01*
X549937Y446517D01*
X547838D01*
X546788Y447567D01*
Y452814D01*
X538392Y446517D02*
Y452814D01*
X536293Y450715D01*
X534194Y452814D01*
Y446517D01*
X528946Y452814D02*
X531045D01*
X532095Y451765D01*
Y447567D01*
X531045Y446517D01*
X528946D01*
X527897Y447567D01*
Y451765D01*
X528946Y452814D01*
X525798D02*
Y446517D01*
X522649D01*
X521600Y447567D01*
Y451765D01*
X522649Y452814D01*
X525798D01*
X515302D02*
X519501D01*
Y446517D01*
X515302D01*
X519501Y449666D02*
X517402D01*
X563581Y442677D02*
Y436380D01*
Y439529D01*
X559383D01*
Y442677D01*
Y436380D01*
X553086Y442677D02*
X557284D01*
Y436380D01*
X553086D01*
X557284Y439529D02*
X555185D01*
X550986Y436380D02*
Y440578D01*
X548887Y442677D01*
X546788Y440578D01*
Y436380D01*
Y439529D01*
X550986D01*
X544689Y436380D02*
Y442677D01*
X541541D01*
X540491Y441628D01*
Y439529D01*
X541541Y438479D01*
X544689D01*
X542590D02*
X540491Y436380D01*
X538392Y442677D02*
X534194D01*
X536293D01*
Y436380D01*
X532095Y442677D02*
Y436380D01*
X528946D01*
X527897Y437430D01*
Y438479D01*
X528946Y439529D01*
X532095D01*
X528946D01*
X527897Y440578D01*
Y441628D01*
X528946Y442677D01*
X532095D01*
X521600D02*
X525798D01*
Y436380D01*
X521600D01*
X525798Y439529D02*
X523699D01*
X519501Y436380D02*
Y440578D01*
X517402Y442677D01*
X515302Y440578D01*
Y436380D01*
Y439529D01*
X519501D01*
X513203Y442677D02*
X509005D01*
X511104D01*
Y436380D01*
X146457Y501334D02*
Y495037D01*
X143308D01*
X142259Y496086D01*
Y497136D01*
X143308Y498185D01*
X146457D01*
X143308D01*
X142259Y499235D01*
Y500285D01*
X143308Y501334D01*
X146457D01*
X140159Y495037D02*
Y501334D01*
X138060Y499235D01*
X135961Y501334D01*
Y495037D01*
X129664Y500285D02*
X130714Y501334D01*
X132813D01*
X133862Y500285D01*
Y499235D01*
X132813Y498185D01*
X130714D01*
X129664Y497136D01*
Y496086D01*
X130714Y495037D01*
X132813D01*
X133862Y496086D01*
X146457Y490943D02*
X142259D01*
X144358D01*
Y484646D01*
X135961Y490943D02*
X140159D01*
Y484646D01*
X135961D01*
X140159Y487794D02*
X138060D01*
X133862Y484646D02*
Y490943D01*
X131763Y488844D01*
X129664Y490943D01*
Y484646D01*
X127565D02*
Y490943D01*
X124417D01*
X123367Y489893D01*
Y487794D01*
X124417Y486745D01*
X127565D01*
X117070Y490943D02*
X121268D01*
Y484646D01*
X117070D01*
X121268Y487794D02*
X119169D01*
X114971Y484646D02*
Y490943D01*
X111822D01*
X110773Y489893D01*
Y487794D01*
X111822Y486745D01*
X114971D01*
X112872D02*
X110773Y484646D01*
X108674D02*
Y488844D01*
X106575Y490943D01*
X104476Y488844D01*
Y484646D01*
Y487794D01*
X108674D01*
X102376Y490943D02*
X98178D01*
X100277D01*
Y484646D01*
X96079Y490943D02*
Y485695D01*
X95030Y484646D01*
X92931D01*
X91881Y485695D01*
Y490943D01*
X89782Y484646D02*
Y490943D01*
X86634D01*
X85584Y489893D01*
Y487794D01*
X86634Y486745D01*
X89782D01*
X87683D02*
X85584Y484646D01*
X79287Y490943D02*
X83485D01*
Y484646D01*
X79287D01*
X83485Y487794D02*
X81386D01*
X199129Y571521D02*
Y567323D01*
X195981D01*
X197030Y569422D01*
Y570471D01*
X195981Y571521D01*
X193882D01*
X192832Y570471D01*
Y568372D01*
X193882Y567323D01*
X199129Y573620D02*
X194931D01*
X192832Y575719D01*
X194931Y577818D01*
X199129D01*
X208659Y566929D02*
Y569028D01*
Y567979D01*
X214956D01*
X213906Y566929D01*
X208659Y576375D02*
Y572177D01*
X212857Y576375D01*
X213906D01*
X214956Y575325D01*
Y573226D01*
X213906Y572177D01*
X214956Y578474D02*
X210758D01*
X208659Y580573D01*
X210758Y582672D01*
X214956D01*
X148702Y240131D02*
Y233244D01*
Y236687D01*
X144110D01*
Y240131D01*
Y233244D01*
X141814Y240131D02*
X139519D01*
X140667D01*
Y233244D01*
X141814D01*
X139519D01*
X131483Y238983D02*
X132631Y240131D01*
X134927D01*
X136075Y238983D01*
Y234392D01*
X134927Y233244D01*
X132631D01*
X131483Y234392D01*
Y236687D01*
X133779D01*
X129187Y240131D02*
Y233244D01*
Y236687D01*
X124596D01*
Y240131D01*
Y233244D01*
X148702Y229032D02*
Y224440D01*
X146406Y222144D01*
X144110Y224440D01*
Y229032D01*
X138371D02*
X140667D01*
X141814Y227884D01*
Y223292D01*
X140667Y222144D01*
X138371D01*
X137223Y223292D01*
Y227884D01*
X138371Y229032D01*
X134927D02*
Y222144D01*
X130335D01*
X128040Y229032D02*
X123448D01*
X125744D01*
Y222144D01*
X121152D02*
Y226736D01*
X118856Y229032D01*
X116560Y226736D01*
Y222144D01*
Y225588D01*
X121152D01*
X109673Y227884D02*
X110821Y229032D01*
X113117D01*
X114264Y227884D01*
Y223292D01*
X113117Y222144D01*
X110821D01*
X109673Y223292D01*
Y225588D01*
X111969D01*
X102785Y229032D02*
X107377D01*
Y222144D01*
X102785D01*
X107377Y225588D02*
X105081D01*
X586221Y250153D02*
Y245955D01*
X584121Y243856D01*
X582022Y245955D01*
Y250153D01*
X575725Y249103D02*
X576775Y250153D01*
X578874D01*
X579923Y249103D01*
Y244905D01*
X578874Y243856D01*
X576775D01*
X575725Y244905D01*
X573626Y250153D02*
Y244905D01*
X572577Y243856D01*
X570477D01*
X569428Y244905D01*
Y250153D01*
X561032Y243856D02*
X556834Y248054D01*
X586221Y239762D02*
Y233465D01*
X583072D01*
X582022Y234514D01*
Y235564D01*
X583072Y236613D01*
X586221D01*
X583072D01*
X582022Y237663D01*
Y238712D01*
X583072Y239762D01*
X586221D01*
X579923Y233465D02*
Y239762D01*
X577824Y237663D01*
X575725Y239762D01*
Y233465D01*
X569428Y238712D02*
X570477Y239762D01*
X572577D01*
X573626Y238712D01*
Y237663D01*
X572577Y236613D01*
X570477D01*
X569428Y235564D01*
Y234514D01*
X570477Y233465D01*
X572577D01*
X573626Y234514D01*
X561032Y233465D02*
Y239762D01*
X558933Y237663D01*
X556834Y239762D01*
Y233465D01*
X554735D02*
Y237663D01*
X552636Y239762D01*
X550536Y237663D01*
Y233465D01*
Y236613D01*
X554735D01*
X544239Y238712D02*
X545289Y239762D01*
X547388D01*
X548437Y238712D01*
Y237663D01*
X547388Y236613D01*
X545289D01*
X544239Y235564D01*
Y234514D01*
X545289Y233465D01*
X547388D01*
X548437Y234514D01*
X542140Y239762D02*
X537942D01*
X540041D01*
Y233465D01*
X531645Y239762D02*
X535843D01*
Y233465D01*
X531645D01*
X535843Y236613D02*
X533744D01*
X529546Y233465D02*
Y239762D01*
X526397D01*
X525348Y238712D01*
Y236613D01*
X526397Y235564D01*
X529546D01*
X527447D02*
X525348Y233465D01*
D17*
X125884Y359227D02*
G03*
X125884Y359227I-492J0D01*
G01*
X95751Y308755D02*
G03*
X95751Y308755I-492J0D01*
G01*
X85333Y425670D02*
G03*
X85333Y425670I-492J0D01*
G01*
X478813Y85668D02*
G03*
X478813Y85668I-492J0D01*
G01*
X492864Y317323D02*
G03*
X492864Y317323I-492J0D01*
G01*
X493143Y273032D02*
G03*
X493143Y273032I-492J0D01*
G01*
D18*
X110236Y334646D02*
X127165D01*
X3937Y322835D02*
X40157D01*
X51968Y334646D02*
X65748D01*
X40157Y322835D02*
X51968Y334646D01*
X127165D02*
X152756Y309055D01*
X152756Y4724D02*
X152756Y309055D01*
D44*
X134743Y363755D02*
G03*
X134743Y363755I-1181J0D01*
G01*
X94290Y431182D02*
G03*
X94290Y431182I-1181J0D01*
G01*
X487868Y90609D02*
G03*
X487868Y90609I-1181J0D01*
G01*
X485384Y312796D02*
G03*
X485384Y312796I-1181J0D01*
G01*
X485663Y268504D02*
G03*
X485663Y268504I-1181J0D01*
G01*
D45*
X539959Y564204D02*
Y558957D01*
X537335Y556333D01*
X534711Y558957D01*
Y564204D01*
X526840Y562892D02*
X528152Y564204D01*
X530775D01*
X532087Y562892D01*
Y557645D01*
X530775Y556333D01*
X528152D01*
X526840Y557645D01*
X524216Y564204D02*
Y557645D01*
X522904Y556333D01*
X520280D01*
X518968Y557645D01*
Y564204D01*
X508473Y556333D02*
X503225Y561581D01*
X492730Y564204D02*
Y556333D01*
X488794D01*
X487482Y557645D01*
Y558957D01*
X488794Y560269D01*
X492730D01*
X488794D01*
X487482Y561581D01*
Y562892D01*
X488794Y564204D01*
X492730D01*
X484858Y556333D02*
Y564204D01*
X482234Y561581D01*
X479611Y564204D01*
Y556333D01*
X471739Y562892D02*
X473051Y564204D01*
X475675D01*
X476987Y562892D01*
Y561581D01*
X475675Y560269D01*
X473051D01*
X471739Y558957D01*
Y557645D01*
X473051Y556333D01*
X475675D01*
X476987Y557645D01*
X539959Y550979D02*
X534711D01*
X537335D01*
Y543108D01*
X526840Y550979D02*
X532087D01*
Y543108D01*
X526840D01*
X532087Y547043D02*
X529463D01*
X518968Y549667D02*
X520280Y550979D01*
X522904D01*
X524216Y549667D01*
Y548355D01*
X522904Y547043D01*
X520280D01*
X518968Y545731D01*
Y544419D01*
X520280Y543108D01*
X522904D01*
X524216Y544419D01*
X516344Y550979D02*
X511097D01*
X513720D01*
Y543108D01*
X500601Y550979D02*
Y543108D01*
X496665D01*
X495354Y544419D01*
Y545731D01*
X496665Y547043D01*
X500601D01*
X496665D01*
X495354Y548355D01*
Y549667D01*
X496665Y550979D01*
X500601D01*
X488794D02*
X491418D01*
X492730Y549667D01*
Y544419D01*
X491418Y543108D01*
X488794D01*
X487482Y544419D01*
Y549667D01*
X488794Y550979D01*
X484858Y543108D02*
Y548355D01*
X482234Y550979D01*
X479611Y548355D01*
Y543108D01*
Y547043D01*
X484858D01*
X476987Y543108D02*
Y550979D01*
X473051D01*
X471739Y549667D01*
Y547043D01*
X473051Y545731D01*
X476987D01*
X474363D02*
X471739Y543108D01*
X469115Y550979D02*
Y543108D01*
X465180D01*
X463868Y544419D01*
Y549667D01*
X465180Y550979D01*
X469115D01*
X539959Y529882D02*
Y537754D01*
X536023D01*
X534711Y536442D01*
Y533818D01*
X536023Y532506D01*
X539959D01*
X537335D02*
X534711Y529882D01*
X526840Y537754D02*
X532087D01*
Y529882D01*
X526840D01*
X532087Y533818D02*
X529463D01*
X524216Y537754D02*
Y532506D01*
X521592Y529882D01*
X518968Y532506D01*
Y537754D01*
X508473Y536442D02*
X507161Y537754D01*
X504537D01*
X503225Y536442D01*
Y531194D01*
X504537Y529882D01*
X507161D01*
X508473Y531194D01*
Y536442D01*
D66*
X141379Y284742D02*
X144332D01*
X502189Y458190D02*
Y461142D01*
Y447717D02*
Y450670D01*
Y438014D02*
Y440966D01*
X194506Y560927D02*
X197459D01*
X210333D02*
X213285D01*
M02*
