G04*
G04 #@! TF.GenerationSoftware,Altium Limited,Altium Designer,18.1.11 (251)*
G04*
G04 Layer_Physical_Order=2*
G04 Layer_Color=16711680*
%FSLAX25Y25*%
%MOIN*%
G70*
G01*
G75*
%ADD10C,0.00787*%
%ADD12C,0.01181*%
%ADD17C,0.00984*%
%ADD18C,0.01968*%
%ADD19C,0.02756*%
%ADD20C,0.05512*%
%ADD21C,0.06693*%
%ADD22C,0.23622*%
%ADD23C,0.02756*%
%ADD24R,0.03150X0.03150*%
%ADD25R,0.03543X0.03347*%
%ADD26R,0.03150X0.03150*%
%ADD27R,0.03347X0.03543*%
%ADD28C,0.07874*%
%ADD29R,0.05315X0.03937*%
%ADD30R,0.03937X0.05315*%
%ADD31R,0.05709X0.05118*%
%ADD32R,0.05709X0.07677*%
%ADD33R,0.05118X0.05709*%
%ADD34R,0.07087X0.05118*%
%ADD35O,0.05315X0.01181*%
%ADD36R,0.04134X0.03937*%
%ADD37R,0.05709X0.05709*%
%ADD38O,0.03740X0.00984*%
%ADD39O,0.00984X0.03740*%
%ADD40O,0.05512X0.01772*%
%ADD41O,0.05709X0.02362*%
%ADD42C,0.03937*%
%ADD43C,0.06299*%
%ADD44C,0.02362*%
%ADD45C,0.01575*%
%ADD46C,0.01000*%
%ADD47C,0.03150*%
G36*
X89038Y307612D02*
X92481Y304170D01*
Y301305D01*
X97827D01*
Y301876D01*
X98262Y302124D01*
X101240Y300352D01*
Y296850D01*
X61811Y296850D01*
X61811Y302362D01*
X69334Y302362D01*
Y302163D01*
X77043D01*
Y302163D01*
X77536Y302145D01*
Y302122D01*
X85245D01*
Y306290D01*
X86158Y308877D01*
X86628Y309047D01*
X89038Y307612D01*
D02*
G37*
G36*
X102560Y283563D02*
X88977D01*
Y291535D01*
X102560D01*
Y283563D01*
D02*
G37*
G36*
X77068Y330315D02*
X84682Y322701D01*
Y322043D01*
X84798Y321460D01*
X85128Y320967D01*
X85302Y320850D01*
Y318693D01*
X85121Y318544D01*
X84247D01*
X83743Y318645D01*
X80864D01*
X76632Y322877D01*
Y323040D01*
X76468D01*
X71949Y327559D01*
X68012D01*
Y345669D01*
X77068D01*
Y330315D01*
D02*
G37*
G36*
X130081Y365473D02*
X127964D01*
X127459Y365573D01*
X123325D01*
X122705Y365450D01*
X122179Y365098D01*
X121827Y364572D01*
X121704Y363952D01*
X121827Y363331D01*
X122179Y362805D01*
X122705Y362454D01*
X123325Y362330D01*
X127459D01*
X127964Y362430D01*
X130081D01*
Y358104D01*
X130063D01*
Y350395D01*
X130081D01*
Y343090D01*
X118664D01*
Y366367D01*
X122821D01*
X123325Y366267D01*
X127459D01*
X128080Y366390D01*
X128561Y366712D01*
X130081D01*
Y365473D01*
D02*
G37*
G36*
X141477Y378544D02*
Y374331D01*
X145435D01*
Y367893D01*
X144979Y367542D01*
X140845D01*
X140630Y367499D01*
X136611D01*
X131262Y372848D01*
Y380788D01*
X139233Y380788D01*
X141477Y378544D01*
D02*
G37*
G36*
X515723Y315943D02*
X500403D01*
Y322857D01*
X500326Y323247D01*
X500105Y323578D01*
X499774Y323799D01*
X499384Y323876D01*
X496431D01*
Y329722D01*
X515723D01*
Y315943D01*
D02*
G37*
G36*
X495122Y322857D02*
X499384D01*
Y310183D01*
X494943D01*
X494439Y310284D01*
X490389D01*
X490220Y310376D01*
X489983Y310634D01*
X490305Y310977D01*
X494439D01*
X495059Y311101D01*
X495585Y311452D01*
X495937Y311978D01*
X496061Y312599D01*
X495937Y313220D01*
X495585Y313746D01*
X495059Y314097D01*
X494439Y314221D01*
X490305D01*
X490041Y314168D01*
X489541Y314503D01*
Y330510D01*
X495122D01*
Y322857D01*
D02*
G37*
G36*
X515919Y271455D02*
X500012D01*
Y278284D01*
X499934Y278674D01*
X499713Y279005D01*
X499382Y279226D01*
X498992Y279303D01*
X496628D01*
Y284840D01*
X515919D01*
Y271455D01*
D02*
G37*
G36*
X495433Y285992D02*
Y278284D01*
X498992D01*
Y265892D01*
X495223D01*
X494718Y265992D01*
X490633D01*
X490555Y266020D01*
X490224Y266342D01*
X490584Y266686D01*
X494718D01*
X495339Y266809D01*
X495865Y267161D01*
X496216Y267687D01*
X496340Y268307D01*
X496216Y268928D01*
X495865Y269454D01*
X495339Y269806D01*
X494718Y269929D01*
X490584D01*
X490300Y269873D01*
X489800Y270198D01*
Y286022D01*
X494945D01*
X495433Y285992D01*
D02*
G37*
D10*
X35433Y70079D02*
X63779Y41732D01*
X35433Y70079D02*
Y116628D01*
X39960Y80512D02*
X63779Y56693D01*
X39960Y80512D02*
Y119316D01*
X44488Y90552D02*
X63779Y71260D01*
X44488Y90552D02*
Y122004D01*
X49016Y100430D02*
X63779Y85666D01*
X49016Y100430D02*
Y124692D01*
X53543Y110630D02*
X63779Y100394D01*
X53543Y110630D02*
Y127380D01*
X58071Y121063D02*
X63779Y115354D01*
X58071Y121063D02*
Y130068D01*
X49294Y144801D02*
X63779Y130315D01*
X21652Y144801D02*
X49294D01*
X61908Y148354D02*
X63975Y146287D01*
X61519Y148354D02*
X61908D01*
X61135Y148738D02*
X61519Y148354D01*
X25589Y148738D02*
X61135D01*
X25589Y172360D02*
X47274D01*
X21652Y176297D02*
X43996D01*
X21652Y168423D02*
X50553D01*
X25589Y164486D02*
X61343D01*
X26198Y156612D02*
X63975D01*
X25589Y140864D02*
X47274D01*
X21652Y136927D02*
X43996D01*
X35433Y241668D02*
X63975Y270210D01*
X39960Y231468D02*
X63975Y255483D01*
X40717Y180234D02*
X49016Y188532D01*
X37439Y184171D02*
X44488Y191220D01*
X37439Y129053D02*
X44488Y122004D01*
X40717Y132990D02*
X49016Y124692D01*
Y211068D02*
X63975Y226027D01*
X43996Y176297D02*
X53543Y185844D01*
X34161Y125116D02*
X39960Y119316D01*
X17715Y180234D02*
X21652Y184171D01*
X44488Y221268D02*
X63975Y240755D01*
X58071Y190668D02*
X63975Y196572D01*
X53543Y200868D02*
X63975Y211300D01*
X47274Y172360D02*
X58071Y183156D01*
X50553Y168423D02*
X63975Y181845D01*
X43996Y136927D02*
X53543Y127380D01*
X47274Y140864D02*
X58071Y130068D01*
X34161Y188108D02*
X39960Y193908D01*
X17715Y188108D02*
X21652Y192045D01*
X25589Y188108D02*
X34161D01*
X25589Y180234D02*
X40717D01*
X17715Y132990D02*
X21652Y129053D01*
X17715Y125116D02*
X21652Y121179D01*
X17715Y140864D02*
X21652Y136927D01*
X17715Y148738D02*
X21652Y144801D01*
X61343Y164486D02*
X62963Y166106D01*
X61952Y165095D02*
X63975Y167117D01*
X21652Y192045D02*
X30882D01*
X21652Y184171D02*
X37439D01*
X17715Y172360D02*
X21652Y176297D01*
X17715Y164486D02*
X21652Y168423D01*
X17715Y156612D02*
X25589D01*
Y132990D02*
X40717D01*
X21652Y129053D02*
X37439D01*
X25589Y125116D02*
X34161D01*
X21652Y121179D02*
X30882D01*
X44488Y191220D02*
Y221268D01*
X39960Y193908D02*
Y231468D01*
X35433Y196596D02*
Y241668D01*
X58071Y183156D02*
Y190668D01*
X53543Y185844D02*
Y200868D01*
X49016Y188532D02*
Y211068D01*
X30882Y192045D02*
X35433Y196596D01*
X30882Y121179D02*
X35433Y116628D01*
X25589Y157221D02*
X26198Y156612D01*
D12*
X86203Y306925D02*
X89052Y304077D01*
X86203Y306925D02*
Y312594D01*
X69194Y317023D02*
X83743D01*
D17*
X83765Y341674D02*
X83863Y341576D01*
X156219Y317932D02*
Y336300D01*
X142856Y304568D02*
X156219Y317932D01*
X142856Y293305D02*
Y298466D01*
X316535Y179134D02*
Y180079D01*
X555058Y193247D02*
X564557D01*
X548032Y186221D02*
X555058Y193247D01*
X432797Y186221D02*
X548032D01*
X326420Y170352D02*
X327165Y169607D01*
X564557Y203247D02*
X566929Y200875D01*
Y198369D02*
Y200875D01*
Y198369D02*
X569615Y195684D01*
Y190481D02*
Y195684D01*
X567717Y188583D02*
X569615Y190481D01*
X559449Y188583D02*
X567717D01*
X549606Y178740D02*
X559449Y188583D01*
X435317Y178740D02*
X549606D01*
X426183Y179607D02*
X432797Y186221D01*
X176183Y119607D02*
X191557Y104233D01*
X478321D01*
Y104015D02*
Y104233D01*
X168504Y107874D02*
Y121927D01*
X172047Y104331D02*
X182677D01*
X192520Y94488D02*
X431102D01*
X436576Y89015D01*
X426183Y229449D02*
X450706D01*
X457042D01*
X429528Y154331D02*
X435433Y148425D01*
X417323Y154331D02*
X429528D01*
X441023Y175984D02*
X557294D01*
X429606Y164567D02*
X441023Y175984D01*
X409449Y164567D02*
X429606D01*
X492372Y314567D02*
Y326701D01*
X492651Y270276D02*
Y282096D01*
X188976Y324410D02*
X476350D01*
X488161Y312599D01*
X198527Y284938D02*
X471728D01*
X198425Y285039D02*
X198527Y284938D01*
X221065Y194488D02*
X545168D01*
X176183Y149607D02*
X221065Y194488D01*
X200987Y74803D02*
X582677D01*
X176183Y99607D02*
X200987Y74803D01*
X464835Y258069D02*
X465129Y257775D01*
X469421Y253483D01*
X152752Y375590D02*
X153540Y376378D01*
X251301Y254724D02*
X449313D01*
X176183Y179607D02*
X251301Y254724D01*
X176183Y189607D02*
X251537Y264961D01*
X159843Y274803D02*
X457846D01*
X459620Y273029D01*
X251537Y264961D02*
X453126D01*
X456470Y268305D01*
X449313Y254724D02*
X453150Y258561D01*
X92109Y323421D02*
Y331183D01*
X156219Y339643D02*
X176183Y359607D01*
X156219Y336300D02*
Y339643D01*
X169685Y364567D02*
X307087D01*
X426183Y389607D02*
X426197Y389621D01*
X501982D01*
X463144Y339372D02*
X463379Y339607D01*
X503180D01*
X443289Y173247D02*
X564557D01*
X557294Y175984D02*
X564557Y183247D01*
X435433Y148425D02*
X569379D01*
X574557Y143247D01*
X412598Y134646D02*
X453499D01*
X457042Y138189D01*
X569615D01*
X574557Y133247D01*
X420079Y233502D02*
X426183Y239607D01*
X420079Y227559D02*
Y233502D01*
X422835Y224803D02*
X432283D01*
X420079Y227559D02*
X422835Y224803D01*
X569952Y197852D02*
X574557Y193247D01*
X569952Y197852D02*
Y201289D01*
X569931Y201310D02*
X569952Y201289D01*
X569931Y201310D02*
Y205533D01*
X567196Y208268D02*
X569931Y205533D01*
X448819Y208268D02*
X567196D01*
X432283Y224803D02*
X448819Y208268D01*
X569952Y272441D02*
X574557Y277046D01*
X566494Y272441D02*
X569952D01*
X566473Y272420D02*
X566494Y272441D01*
X562184Y272420D02*
X566473D01*
X558319Y268555D02*
X562184Y272420D01*
X558319Y255169D02*
Y268555D01*
X532598Y229449D02*
X558319Y255169D01*
X463144Y229449D02*
X532598Y229449D01*
X426183Y429607D02*
X545196D01*
X585827Y388976D01*
Y264469D02*
Y388976D01*
X581594Y260236D02*
X585827Y264469D01*
X571367Y260236D02*
X581594D01*
X564557Y267046D02*
X571367Y260236D01*
X426183Y419607D02*
X549291D01*
X581890Y387008D01*
Y274379D02*
Y387008D01*
X535996Y348201D02*
X544841Y357046D01*
X535996Y327752D02*
Y348201D01*
X544841Y357046D02*
X564557D01*
X574557Y267046D02*
X581890Y274379D01*
X436576Y89015D02*
X478321D01*
X426183Y169607D02*
X435317Y178740D01*
X464205Y258561D02*
X464991Y257775D01*
X453150Y258561D02*
X464205D01*
X453150Y302362D02*
X464651D01*
X464754Y302259D01*
X155512Y363952D02*
X161639Y370079D01*
X165748D01*
X435827Y153543D02*
X436123Y153247D01*
X439370Y163779D02*
X439903Y163247D01*
X436123Y153247D02*
X564557D01*
X442913Y173622D02*
X443289Y173247D01*
X439903Y163247D02*
X564557D01*
X432543Y143247D02*
X564557D01*
X426183Y149607D02*
X432543Y143247D01*
X426183Y158621D02*
X569183D01*
X574557Y153247D01*
X426183Y158621D02*
Y159607D01*
X168504Y121927D02*
X176183Y129607D01*
X168504Y107874D02*
X172047Y104331D01*
X182677D02*
X192520Y94488D01*
X508971Y99015D02*
X543203Y133247D01*
X564557D01*
X525589Y88890D02*
X530200D01*
X564557Y123247D01*
X306540Y409607D02*
X426183D01*
X307086Y199607D02*
X426183D01*
X316535Y179134D02*
X425081D01*
X326420Y169607D02*
X426183Y169607D01*
X108466Y428759D02*
X117323D01*
X77559Y456871D02*
X84841D01*
X76632Y372282D02*
X87934D01*
X76632D02*
X103816D01*
X101011Y323395D02*
X101240Y323624D01*
X96607Y318991D02*
X101011Y323395D01*
X94726Y304077D02*
X95154D01*
X88172Y310630D02*
X94726Y304077D01*
X88172Y310630D02*
Y312594D01*
X153540Y376378D02*
X162598D01*
X152380Y375963D02*
X152752Y375590D01*
X158495Y361983D02*
X159843Y363331D01*
X142912Y361983D02*
X158495D01*
X142912Y363952D02*
X155512D01*
X139132Y359623D02*
X164741D01*
X134803Y363952D02*
X139132Y359623D01*
X164741D02*
X169685Y364567D01*
X169843Y429607D02*
X176183D01*
X145137Y454312D02*
X169843Y429607D01*
X108069Y454312D02*
X145137D01*
X169842Y439607D02*
X176183D01*
X152578Y456871D02*
X169842Y439607D01*
X108069Y456871D02*
X152578D01*
X169527Y459607D02*
X176183D01*
X166929Y462205D02*
X169527Y459607D01*
X101359Y462205D02*
X166929D01*
X169685Y449607D02*
X176183D01*
X159055Y460236D02*
X169685Y449607D01*
X104331Y460236D02*
X159055D01*
X93467Y454312D02*
X101359Y462205D01*
X84841Y454312D02*
X93467D01*
X95848Y451753D02*
X104331Y460236D01*
X84841Y451753D02*
X95848D01*
X102469D02*
X108069D01*
X52064Y424409D02*
X87402D01*
X38067Y410413D02*
X52064Y424409D01*
X75984Y428722D02*
X84841D01*
X87402Y424409D02*
X90158Y427165D01*
X86757Y421260D02*
X91929Y426432D01*
X58914Y421260D02*
X86757D01*
X38067Y400413D02*
X58914Y421260D01*
X81237Y413583D02*
X86597D01*
X38067Y370412D02*
X81237Y413583D01*
X99016Y421362D02*
Y432855D01*
X38067Y360413D02*
X99016Y421362D01*
X100787Y413133D02*
Y431102D01*
X38067Y350413D02*
X100787Y413133D01*
X97029Y446635D02*
X108069D01*
X91929Y441535D02*
X97029Y446635D01*
X91929Y426432D02*
Y441535D01*
X98603Y444076D02*
X108069D01*
X93701Y439173D02*
X98603Y444076D01*
X93701Y425698D02*
Y439173D01*
X100178Y441517D02*
X108069D01*
X95472Y436811D02*
X100178Y441517D01*
X95472Y424964D02*
Y436811D01*
X101359Y438958D02*
X108069D01*
X97244Y434842D02*
X101359Y438958D01*
X97244Y424230D02*
Y434842D01*
X102559Y436399D02*
X108069D01*
X99016Y432855D02*
X102559Y436399D01*
X103525Y433840D02*
X108069D01*
X100787Y431102D02*
X103525Y433840D01*
X102559Y404905D02*
Y429589D01*
X38067Y340412D02*
X102559Y404905D01*
Y429589D02*
X104250Y431281D01*
X108069D01*
X87934Y361024D02*
X95669D01*
X86597Y413583D02*
X97244Y424230D01*
X85863Y415354D02*
X95472Y424964D01*
X73009Y415354D02*
X85863D01*
X85129Y417126D02*
X93701Y425698D01*
X64780Y417126D02*
X85129D01*
X90158Y427165D02*
Y443701D01*
X38067Y380413D02*
X73009Y415354D01*
X90158Y443701D02*
X95651Y449194D01*
X38067Y390412D02*
X64780Y417126D01*
X95651Y449194D02*
X108069D01*
X48935Y431281D02*
X84841D01*
X38067Y420412D02*
X48935Y431281D01*
X41494Y433840D02*
X84841D01*
X38067Y430412D02*
X41494Y433840D01*
X42081Y436399D02*
X84841D01*
X38067Y440413D02*
X42081Y436399D01*
X49521Y438958D02*
X84841D01*
X38067Y450413D02*
X49521Y438958D01*
X56962Y441517D02*
X84841D01*
X38067Y460413D02*
X56962Y441517D01*
X64403Y444076D02*
X84841D01*
X38067Y470412D02*
X64403Y444076D01*
X71844Y446635D02*
X84841D01*
X38067Y480412D02*
X71844Y446635D01*
X38067Y490413D02*
X79285Y449194D01*
X84841D01*
X100176Y365530D02*
X103954D01*
X95669Y361024D02*
X100176Y365530D01*
X95669Y321260D02*
Y361024D01*
X92069Y330700D02*
Y336300D01*
X125392Y363952D02*
X134803D01*
X89116Y328398D02*
Y341576D01*
X112616Y373010D02*
X115769Y369857D01*
X103954Y372420D02*
X112025D01*
X112616Y364940D02*
X115565Y367889D01*
X120628Y364741D02*
X121807Y365920D01*
X142912D02*
X148581D01*
X144445Y377989D02*
X150354D01*
X120628Y363166D02*
X121811Y361983D01*
X125392D01*
X115769Y369857D02*
X125392D01*
X115565Y367889D02*
X125392D01*
X103954Y365530D02*
X112025D01*
X121807Y365920D02*
X125392D01*
X90140Y323421D02*
Y327374D01*
X81390Y305681D02*
Y314321D01*
X125392Y356180D02*
Y361983D01*
X120628Y363166D02*
Y364741D01*
X112025Y372420D02*
X112616Y373010D01*
X112025Y365530D02*
X112616Y364940D01*
X103816Y372282D02*
X103954Y372420D01*
X94570Y317023D02*
X98623D01*
X82123Y315054D02*
X83743D01*
X73189Y305722D02*
X81350D01*
X151391Y367889D02*
X152380Y368877D01*
X150549Y367889D02*
X151391D01*
X148581Y365920D02*
X150549Y367889D01*
X125392Y356180D02*
X127323Y354249D01*
X83765Y340547D02*
Y341674D01*
X89116Y328398D02*
X90140Y327374D01*
X94570Y318991D02*
X96607D01*
X103052Y312594D02*
Y313344D01*
X81390Y314321D02*
X82123Y315054D01*
X81350Y305722D02*
X81390Y305681D01*
X544346Y277046D02*
X564557D01*
X532059Y264759D02*
X544346Y277046D01*
X512119Y259350D02*
X526650D01*
X532059Y264759D01*
X542341Y287046D02*
X564557D01*
X523008Y267654D02*
X530380Y275026D01*
X530350Y275056D02*
X542341Y287046D01*
X558319Y303284D02*
X564557Y297046D01*
X534421Y303284D02*
X558319D01*
X534166Y303539D02*
X534421Y303284D01*
X512233Y303539D02*
X534166D01*
X520248Y312003D02*
X535996Y327752D01*
Y327418D02*
Y327752D01*
X520464Y94015D02*
X525589Y88890D01*
X497809Y94015D02*
X520464D01*
X515113Y98890D02*
X525589D01*
X497809Y99015D02*
X508971D01*
X450706Y339273D02*
X456944D01*
X457042Y339372D01*
X464991Y302161D02*
X469066Y298085D01*
X492372Y306693D02*
X500614D01*
X464145Y314567D02*
X474852D01*
X492651Y264370D02*
X499977D01*
X492651Y262402D02*
X500209D01*
X462374Y270276D02*
X475131D01*
X456470Y268305D02*
X475129D01*
X492372Y308662D02*
X500451D01*
X456470Y312697D02*
X474754D01*
X502670Y267063D02*
X511528D01*
X499977Y264370D02*
X502670Y267063D01*
X500614Y306693D02*
X503178Y304130D01*
X471728Y284938D02*
X488358Y268307D01*
X492372Y314567D02*
X495841D01*
X459620Y319092D02*
X464145Y314567D01*
X500209Y262402D02*
X502670Y259940D01*
X511528D01*
X512119Y267654D02*
X523008D01*
X503178Y304130D02*
X511643D01*
X500451Y308662D02*
X503202Y311413D01*
X511808D01*
X512398Y312003D02*
X520248D01*
X469421Y253483D02*
X473992D01*
X466708Y266339D02*
X475131D01*
X492651D02*
X495843D01*
X492651Y270276D02*
X495838D01*
X469066Y298085D02*
X473992D01*
X466768Y310630D02*
X474852D01*
X492372D02*
X495646D01*
X459620Y273029D02*
X462374Y270276D01*
X511528Y267063D02*
X512119Y267654D01*
X495843Y266339D02*
X497022Y267518D01*
X495841Y314567D02*
X497022Y313386D01*
X511528Y259940D02*
X512119Y259350D01*
X511643Y304130D02*
X512233Y303539D01*
X511808Y311413D02*
X512398Y312003D01*
X497022Y267518D02*
Y269092D01*
X495838Y270276D02*
X497022Y269092D01*
X495646Y310630D02*
X497022Y312006D01*
Y313386D01*
X488358Y268307D02*
X492651D01*
Y282096D02*
X492693Y282138D01*
X488161Y312599D02*
X492372D01*
Y326701D02*
X492382Y326711D01*
X473992Y253483D02*
X474583D01*
X475129Y268305D02*
X475131Y268307D01*
X474754Y312697D02*
X474852Y312599D01*
X464991Y257775D02*
X465129D01*
Y264760D02*
X466708Y266339D01*
X464991Y308854D02*
X466768Y310630D01*
X25589Y65195D02*
X63779Y27004D01*
X25589Y65195D02*
Y117242D01*
Y246551D02*
X63975Y284938D01*
X25589Y195982D02*
Y246551D01*
D18*
X470472Y94095D02*
X478241D01*
X450706Y235551D02*
X450762Y235494D01*
X457087D01*
X195983Y500000D02*
Y518052D01*
X100787Y323618D02*
X102756Y325587D01*
X100787Y323618D02*
X101011Y323395D01*
X101240Y323166D01*
X426183Y339527D02*
X450452D01*
X492520Y112127D02*
Y120472D01*
X487086Y112127D02*
Y120472D01*
X478241Y94095D02*
X478321Y94015D01*
X499816Y88976D02*
X507480D01*
X499778Y89015D02*
X499816Y88976D01*
X481092Y247130D02*
Y253469D01*
X481079Y298085D02*
X481092Y298072D01*
Y291732D02*
Y298072D01*
X87460Y319471D02*
Y324349D01*
X86203Y325606D02*
X87460Y324349D01*
X487086Y104015D02*
X499778D01*
X478321Y99015D02*
X492520D01*
X485059Y459666D02*
X493703D01*
X426183D02*
X478819D01*
X484922Y449194D02*
X493626D01*
X426183D02*
X478819D01*
X484742Y439490D02*
X493309D01*
X426183D02*
X478819D01*
X484999Y459696D02*
X485059Y459636D01*
X484605Y439422D02*
X484742Y439559D01*
X211809Y537558D02*
X214210Y539959D01*
X276420D01*
X195923Y518110D02*
Y537558D01*
X195983Y543720D02*
Y552364D01*
X195923Y543660D02*
X195983Y543720D01*
X211809Y543660D02*
Y552364D01*
X102756Y325587D02*
Y328346D01*
X48937Y299665D02*
X64173D01*
X81381Y299391D02*
X81390Y299382D01*
X63978Y299391D02*
X81381D01*
X99372Y317023D02*
X103052Y313344D01*
X86203Y325606D02*
Y330463D01*
X478243Y98937D02*
X478321Y99015D01*
X63975Y19842D02*
X77823D01*
X63975Y284938D02*
X77823D01*
X63975Y211300D02*
X77823D01*
X63975Y196572D02*
X77823D01*
X63975Y108207D02*
X77823D01*
X63975Y270210D02*
X77823D01*
X63975Y255483D02*
X77823D01*
X63975Y240755D02*
X77823D01*
X63975Y226027D02*
X77823D01*
X63975Y181845D02*
X77823D01*
X63975Y167117D02*
X77823D01*
X63975Y152390D02*
X77823D01*
X63975Y137662D02*
X77823D01*
X63975Y122754D02*
X77823D01*
X63975Y93480D02*
X77823D01*
X63975Y78752D02*
X77823D01*
X63975Y64025D02*
X77823D01*
X63975Y49116D02*
X77823D01*
X63975Y34389D02*
X77823D01*
D19*
X211809Y517659D02*
Y537558D01*
X142856Y282127D02*
Y287006D01*
X492693Y275631D02*
Y280510D01*
X133622Y352145D02*
X138501D01*
X473793Y263187D02*
X481090D01*
X473793Y307675D02*
X480641D01*
X450706Y345376D02*
X457087D01*
X500002Y459666D02*
X504806D01*
X499925Y449194D02*
X504804D01*
X499925Y439490D02*
X504487D01*
X195983Y558663D02*
Y563542D01*
X211809Y558663D02*
Y563542D01*
X211809Y517659D02*
X211809Y517659D01*
X133624Y356475D02*
X138503D01*
X81087Y330700D02*
X85966D01*
X112616Y353762D02*
Y358641D01*
X112616Y379310D02*
Y384188D01*
X107342Y323624D02*
X112221D01*
X101240Y323166D02*
Y323624D01*
X103954Y353565D02*
Y358444D01*
X103954Y379506D02*
Y384385D01*
X109687Y312178D02*
X114566D01*
X73706Y311979D02*
X78584D01*
X92776Y297083D02*
X93859Y296000D01*
X99513D01*
X498992Y282138D02*
X503871D01*
X512119Y248172D02*
Y253050D01*
X513949Y275628D02*
Y280506D01*
X502670Y247975D02*
Y252854D01*
X503178Y292164D02*
Y297043D01*
X512233Y292361D02*
Y297240D01*
D20*
X17715Y117242D02*
D03*
Y125116D02*
D03*
Y132990D02*
D03*
Y140864D02*
D03*
Y148738D02*
D03*
Y156612D02*
D03*
Y164486D02*
D03*
Y172360D02*
D03*
Y180234D02*
D03*
Y188108D02*
D03*
Y195982D02*
D03*
X25589D02*
D03*
Y188108D02*
D03*
Y180234D02*
D03*
Y172360D02*
D03*
Y164486D02*
D03*
Y156612D02*
D03*
Y148738D02*
D03*
Y140864D02*
D03*
Y132990D02*
D03*
Y125116D02*
D03*
Y117242D02*
D03*
D21*
X276420Y539959D02*
D03*
X286420D02*
D03*
X296420D02*
D03*
X306420D02*
D03*
X316420D02*
D03*
X326420D02*
D03*
X38067Y490413D02*
D03*
Y480412D02*
D03*
Y470412D02*
D03*
Y460413D02*
D03*
Y450413D02*
D03*
Y440413D02*
D03*
Y430412D02*
D03*
Y420412D02*
D03*
Y410413D02*
D03*
Y400413D02*
D03*
Y390412D02*
D03*
Y380413D02*
D03*
Y370412D02*
D03*
Y360413D02*
D03*
Y350413D02*
D03*
Y340412D02*
D03*
X176183Y499607D02*
D03*
Y489607D02*
D03*
Y479607D02*
D03*
Y469607D02*
D03*
Y459607D02*
D03*
Y449607D02*
D03*
Y439607D02*
D03*
Y429607D02*
D03*
Y419607D02*
D03*
Y409607D02*
D03*
Y399607D02*
D03*
Y389607D02*
D03*
Y379607D02*
D03*
Y369607D02*
D03*
Y359607D02*
D03*
Y349607D02*
D03*
Y339607D02*
D03*
Y329607D02*
D03*
Y319607D02*
D03*
Y309607D02*
D03*
Y299607D02*
D03*
Y289607D02*
D03*
Y279607D02*
D03*
Y269607D02*
D03*
Y259607D02*
D03*
Y249607D02*
D03*
Y239607D02*
D03*
Y229607D02*
D03*
Y219607D02*
D03*
Y209607D02*
D03*
Y199607D02*
D03*
Y189607D02*
D03*
Y179607D02*
D03*
Y169607D02*
D03*
Y159607D02*
D03*
Y149607D02*
D03*
Y139607D02*
D03*
Y129607D02*
D03*
Y119607D02*
D03*
Y109607D02*
D03*
Y99607D02*
D03*
Y89607D02*
D03*
Y79607D02*
D03*
Y69607D02*
D03*
Y59607D02*
D03*
Y49607D02*
D03*
Y39607D02*
D03*
Y29607D02*
D03*
Y19607D02*
D03*
Y9607D02*
D03*
X426183Y489607D02*
D03*
Y479607D02*
D03*
Y469607D02*
D03*
Y459607D02*
D03*
Y449607D02*
D03*
Y439607D02*
D03*
Y429607D02*
D03*
Y419607D02*
D03*
Y409607D02*
D03*
Y399607D02*
D03*
Y389607D02*
D03*
Y379607D02*
D03*
Y369607D02*
D03*
Y359607D02*
D03*
Y349607D02*
D03*
Y339607D02*
D03*
Y329607D02*
D03*
Y319607D02*
D03*
Y309607D02*
D03*
Y299607D02*
D03*
Y289607D02*
D03*
Y279607D02*
D03*
Y269607D02*
D03*
Y259607D02*
D03*
Y249607D02*
D03*
Y239607D02*
D03*
Y229607D02*
D03*
Y219607D02*
D03*
Y209607D02*
D03*
Y199607D02*
D03*
Y189607D02*
D03*
Y179607D02*
D03*
Y169607D02*
D03*
Y159607D02*
D03*
Y149607D02*
D03*
Y139607D02*
D03*
Y129607D02*
D03*
Y119607D02*
D03*
Y109607D02*
D03*
Y99607D02*
D03*
Y89607D02*
D03*
Y79607D02*
D03*
Y69607D02*
D03*
Y59607D02*
D03*
Y49607D02*
D03*
Y39607D02*
D03*
Y29607D02*
D03*
Y19607D02*
D03*
Y9607D02*
D03*
Y499607D02*
D03*
X525589Y98890D02*
D03*
Y88890D02*
D03*
X564557Y357046D02*
D03*
Y347046D02*
D03*
Y337046D02*
D03*
Y327046D02*
D03*
Y317046D02*
D03*
Y307046D02*
D03*
Y297046D02*
D03*
Y287046D02*
D03*
Y277046D02*
D03*
Y267046D02*
D03*
X574557D02*
D03*
Y277046D02*
D03*
Y287046D02*
D03*
Y297046D02*
D03*
Y307046D02*
D03*
Y317046D02*
D03*
Y327046D02*
D03*
Y337046D02*
D03*
Y347046D02*
D03*
Y357046D02*
D03*
X564557Y213247D02*
D03*
Y203247D02*
D03*
Y193247D02*
D03*
Y183247D02*
D03*
Y173247D02*
D03*
Y163247D02*
D03*
Y153247D02*
D03*
Y143247D02*
D03*
Y133247D02*
D03*
Y123247D02*
D03*
X574557D02*
D03*
Y133247D02*
D03*
Y143247D02*
D03*
Y153247D02*
D03*
Y163247D02*
D03*
Y173247D02*
D03*
Y183247D02*
D03*
Y193247D02*
D03*
Y203247D02*
D03*
Y213247D02*
D03*
D22*
X574803Y574803D02*
D03*
Y15748D02*
D03*
X15748D02*
D03*
Y574803D02*
D03*
D23*
X142856Y282127D02*
D03*
X470472Y94095D02*
D03*
X188976Y324410D02*
D03*
X159843Y274803D02*
D03*
X198425Y285039D02*
D03*
X582677Y74803D02*
D03*
X545168Y194488D02*
D03*
X307086Y364567D02*
D03*
X501982Y389621D02*
D03*
X503180Y339607D02*
D03*
X409449Y164567D02*
D03*
X412598Y134646D02*
D03*
X417323Y154331D02*
D03*
X492520Y112127D02*
D03*
Y120472D02*
D03*
X487086Y112127D02*
D03*
Y120472D02*
D03*
X507480Y88976D02*
D03*
X481092Y247130D02*
D03*
Y291732D02*
D03*
X487086Y104015D02*
D03*
X492520Y99015D02*
D03*
X453150Y258561D02*
D03*
Y302362D02*
D03*
X165748Y370079D02*
D03*
X442913Y173247D02*
D03*
X439370Y163247D02*
D03*
X435827Y153247D02*
D03*
X504806Y439490D02*
D03*
X117323Y428759D02*
D03*
X77559Y456871D02*
D03*
X76632Y372282D02*
D03*
X102756Y328346D02*
D03*
X156219Y336300D02*
D03*
X114566Y312178D02*
D03*
X112221Y323624D02*
D03*
X162598Y376378D02*
D03*
X159843Y363331D02*
D03*
X102469Y451753D02*
D03*
X75984Y428722D02*
D03*
X99372Y317023D02*
D03*
X92069Y336300D02*
D03*
X307086Y199607D02*
D03*
X492695Y320372D02*
D03*
X492477Y277123D02*
D03*
X78642Y312017D02*
D03*
X99513Y285433D02*
D03*
X457087Y235494D02*
D03*
X456470Y312697D02*
D03*
Y268305D02*
D03*
X469066Y253483D02*
D03*
Y298085D02*
D03*
X459620Y319092D02*
D03*
Y273029D02*
D03*
X132873Y377595D02*
D03*
X136774Y371830D02*
D03*
X504806Y459666D02*
D03*
Y449194D02*
D03*
X306420Y409727D02*
D03*
X316420Y179134D02*
D03*
X326420Y169607D02*
D03*
X503676Y326978D02*
D03*
X508714D02*
D03*
X513752D02*
D03*
X513949Y282096D02*
D03*
X457087Y345276D02*
D03*
X481092Y263189D02*
D03*
X502672Y247973D02*
D03*
X512121Y248170D02*
D03*
X508911Y282096D02*
D03*
X503873D02*
D03*
X512235Y292359D02*
D03*
X503180Y292162D02*
D03*
X480643Y307677D02*
D03*
X81086Y330698D02*
D03*
X138503Y352147D02*
D03*
X138505Y356477D02*
D03*
X112614Y384190D02*
D03*
X103952Y384387D02*
D03*
X112618Y353760D02*
D03*
X103956Y353563D02*
D03*
X211807Y563544D02*
D03*
X195981D02*
D03*
X121398Y345058D02*
D03*
X127823D02*
D03*
X211811Y532677D02*
D03*
X89116Y341576D02*
D03*
D24*
X142856Y287006D02*
D03*
Y293305D02*
D03*
X195983Y558663D02*
D03*
Y552364D02*
D03*
X211809Y558663D02*
D03*
Y552364D02*
D03*
D25*
X142856Y304568D02*
D03*
Y298466D02*
D03*
X195923Y537558D02*
D03*
Y543660D02*
D03*
X211809Y537558D02*
D03*
Y543660D02*
D03*
X99513Y296000D02*
D03*
Y289898D02*
D03*
X450706Y339273D02*
D03*
Y345376D02*
D03*
Y229449D02*
D03*
Y235551D02*
D03*
X63779Y18661D02*
D03*
Y12559D02*
D03*
Y33388D02*
D03*
Y27286D02*
D03*
Y48116D02*
D03*
Y42014D02*
D03*
Y62844D02*
D03*
Y56741D02*
D03*
Y77571D02*
D03*
Y71469D02*
D03*
Y92299D02*
D03*
Y86196D02*
D03*
Y107026D02*
D03*
Y100924D02*
D03*
Y121754D02*
D03*
Y115651D02*
D03*
Y136481D02*
D03*
Y130379D02*
D03*
Y151209D02*
D03*
Y145106D02*
D03*
Y165936D02*
D03*
Y159834D02*
D03*
Y180664D02*
D03*
Y174561D02*
D03*
Y195391D02*
D03*
Y189289D02*
D03*
Y210119D02*
D03*
Y204016D02*
D03*
Y224846D02*
D03*
Y218744D02*
D03*
Y239574D02*
D03*
Y233471D02*
D03*
Y254301D02*
D03*
Y248199D02*
D03*
Y269029D02*
D03*
Y262927D02*
D03*
Y283756D02*
D03*
Y277654D02*
D03*
X63978Y299391D02*
D03*
Y293289D02*
D03*
D26*
X499925Y459666D02*
D03*
X493626D02*
D03*
X499925Y449194D02*
D03*
X493626D02*
D03*
X499925Y439490D02*
D03*
X493626D02*
D03*
D27*
X478819Y459666D02*
D03*
X484922D02*
D03*
X478819Y449194D02*
D03*
X484922D02*
D03*
X478819Y439490D02*
D03*
X484922D02*
D03*
X89052Y304077D02*
D03*
X95154D02*
D03*
X101240Y323624D02*
D03*
X107342D02*
D03*
X92069Y330700D02*
D03*
X85966D02*
D03*
X515113Y98890D02*
D03*
X509011D02*
D03*
X463144Y339372D02*
D03*
X457042D02*
D03*
X463144Y229449D02*
D03*
X457042D02*
D03*
D28*
X211809Y518052D02*
D03*
X195983D02*
D03*
X87784Y360900D02*
D03*
X87934Y372282D02*
D03*
X530350Y275056D02*
D03*
X532059Y264759D02*
D03*
X534421Y303284D02*
D03*
X535996Y327418D02*
D03*
X77295Y240755D02*
D03*
Y226027D02*
D03*
Y211300D02*
D03*
Y196572D02*
D03*
Y181845D02*
D03*
Y167117D02*
D03*
Y152390D02*
D03*
Y137662D02*
D03*
Y122935D02*
D03*
Y108207D02*
D03*
Y93480D02*
D03*
Y78752D02*
D03*
Y64025D02*
D03*
Y255483D02*
D03*
Y19842D02*
D03*
Y49297D02*
D03*
Y34569D02*
D03*
Y284938D02*
D03*
Y270210D02*
D03*
X49214Y299942D02*
D03*
D29*
X103954Y365530D02*
D03*
Y358444D02*
D03*
X103954Y379506D02*
D03*
Y372420D02*
D03*
X152380Y375963D02*
D03*
Y368877D02*
D03*
X503202Y311413D02*
D03*
Y318499D02*
D03*
X502670Y267063D02*
D03*
Y274150D02*
D03*
X502670Y252854D02*
D03*
Y259940D02*
D03*
X503178Y297043D02*
D03*
Y304130D02*
D03*
X464991Y257775D02*
D03*
Y264861D02*
D03*
Y302161D02*
D03*
Y309247D02*
D03*
D30*
X137358Y377989D02*
D03*
X144445D02*
D03*
X481079Y253483D02*
D03*
X473992D02*
D03*
X481079Y298085D02*
D03*
X473992D02*
D03*
D31*
X112616Y364940D02*
D03*
Y358641D02*
D03*
X112616Y379310D02*
D03*
Y373010D02*
D03*
X81390Y305681D02*
D03*
Y299382D02*
D03*
X73189Y312021D02*
D03*
Y305722D02*
D03*
X512119Y253050D02*
D03*
Y259350D02*
D03*
X512119Y267654D02*
D03*
Y273953D02*
D03*
X512233Y297240D02*
D03*
Y303539D02*
D03*
X512398Y312003D02*
D03*
Y318302D02*
D03*
D32*
X72151Y341674D02*
D03*
X83765D02*
D03*
D33*
X133622Y354249D02*
D03*
X127323D02*
D03*
X498992Y282138D02*
D03*
X492693D02*
D03*
X498681Y326711D02*
D03*
X492382D02*
D03*
D34*
X72088Y330505D02*
D03*
Y319481D02*
D03*
X92776Y297083D02*
D03*
Y286059D02*
D03*
D35*
X142912Y369857D02*
D03*
Y367889D02*
D03*
Y365920D02*
D03*
Y363952D02*
D03*
Y361983D02*
D03*
X125392Y369857D02*
D03*
Y367889D02*
D03*
Y365920D02*
D03*
Y363952D02*
D03*
Y361983D02*
D03*
X474852Y306693D02*
D03*
Y308662D02*
D03*
Y310630D02*
D03*
Y312599D02*
D03*
Y314567D02*
D03*
X492372Y306693D02*
D03*
Y308662D02*
D03*
Y310630D02*
D03*
Y312599D02*
D03*
Y314567D02*
D03*
X475131Y262402D02*
D03*
Y264370D02*
D03*
Y266339D02*
D03*
Y268307D02*
D03*
Y270276D02*
D03*
X492651Y262402D02*
D03*
Y264370D02*
D03*
Y266339D02*
D03*
Y268307D02*
D03*
Y270276D02*
D03*
D36*
X109687Y312178D02*
D03*
X103781D02*
D03*
D37*
X89156Y318007D02*
D03*
D38*
X94570Y315054D02*
D03*
Y317023D02*
D03*
Y318991D02*
D03*
Y320960D02*
D03*
X83743D02*
D03*
Y318991D02*
D03*
Y317023D02*
D03*
Y315054D02*
D03*
D39*
X92109Y323421D02*
D03*
X90140D02*
D03*
X88172D02*
D03*
X86203D02*
D03*
Y312594D02*
D03*
X88172D02*
D03*
X90140D02*
D03*
X92109D02*
D03*
D40*
X84841Y428722D02*
D03*
Y431281D02*
D03*
Y433840D02*
D03*
Y436399D02*
D03*
Y438958D02*
D03*
Y441517D02*
D03*
Y444076D02*
D03*
Y446635D02*
D03*
Y449194D02*
D03*
Y451753D02*
D03*
Y454312D02*
D03*
Y456871D02*
D03*
X108069Y428722D02*
D03*
Y431281D02*
D03*
Y433840D02*
D03*
Y436399D02*
D03*
Y438958D02*
D03*
Y441517D02*
D03*
Y444076D02*
D03*
Y446635D02*
D03*
Y449194D02*
D03*
Y451753D02*
D03*
Y454312D02*
D03*
Y456871D02*
D03*
D41*
X499778Y104015D02*
D03*
Y99015D02*
D03*
Y94015D02*
D03*
Y89015D02*
D03*
X478321Y104015D02*
D03*
Y99015D02*
D03*
Y94015D02*
D03*
Y89015D02*
D03*
D42*
X83863Y341576D02*
X89116D01*
D43*
X176183Y499607D02*
X426183D01*
X176183Y479607D02*
X426183D01*
D44*
X81390Y299382D02*
X84577Y296195D01*
X84561Y299382D02*
X87824Y302645D01*
X81390Y299382D02*
X84561D01*
X84577Y296195D02*
X91888D01*
X92776Y297083D01*
D45*
X17715Y268442D02*
X48937Y299665D01*
X17715Y195982D02*
Y268442D01*
Y58663D02*
X63502Y12876D01*
X17715Y58663D02*
Y117242D01*
D46*
X88172Y318991D02*
Y323421D01*
X142912Y367889D02*
Y369857D01*
X85966Y330700D02*
X86203Y330463D01*
X88172Y318991D02*
X89156Y318007D01*
D47*
X63779Y18661D02*
Y27004D01*
Y33388D02*
Y41732D01*
Y33208D02*
Y33388D01*
Y48116D02*
Y56693D01*
Y47935D02*
Y48116D01*
Y62844D02*
Y71260D01*
Y77571D02*
Y85666D01*
Y92299D02*
Y100394D01*
Y107026D02*
Y115354D01*
Y121754D02*
Y130315D01*
X63975Y255483D02*
Y264108D01*
Y156851D02*
Y161015D01*
X63779Y121573D02*
Y121754D01*
Y269029D02*
Y277654D01*
Y283756D02*
Y292382D01*
Y210119D02*
Y218744D01*
Y224846D02*
Y233471D01*
Y239574D02*
Y248199D01*
Y195391D02*
Y204016D01*
Y180664D02*
Y189289D01*
Y165936D02*
Y174561D01*
Y151209D02*
Y155431D01*
Y136481D02*
Y145106D01*
M02*
